<svg xmlns="http://www.w3.org/2000/svg" viewBox="0 0 321.41 208"><defs><style>.cls-1{fill:#ef5035}</style></defs><title>accolade-laurel-red_1</title><g id="Layer_2" data-name="Layer 2"><g id="Layer_1-2" data-name="Layer 1"><path class="cls-1" d="M247.34 13.81c-3-4.06-4.73-8.35-2.69-13.45 4.93 1.3 8.31 4.74 8 9.87-.4 5.84 2.87 7.71 7.25 9.21.22.08.53-.09.8-.15-1.56-7.93-1.48-8.8 1.18-12.94 4.9 2.63 7 7 5.78 12.07-1.13 4.93 1 7.36 4.79 9.37.5.27.94.66 2 1.38-1-5.13-.83-9.63 2.4-13.43 5.53 2.73 6.19 6.86 3 18.14.71.78 1.54 1.6 2.26 2.5a15.1 15.1 0 0 0 3.08 3.32c1-5 1.78-9.52 6.42-12.73 2.83 4.21 4.18 8.9 1.65 12.88-3.36 5.28-1.46 9 1.6 13a4.91 4.91 0 0 0 .56.47c.68-5.19 2.84-9.34 7.74-12 2.42 3.53 2.25 7.13 1 10.62a19.23 19.23 0 0 1-3.57 6 4 4 0 0 0-.82 4.77c.82 1.86 1.6 3.73 2.72 6.36 1.25-6 4.37-9.52 9.33-11.46 2.53 5.06 2.08 10-2.77 13.82-4.58 3.61-4.5 7.24-2.35 12.23 2.88-4.29 6.18-7.79 11.66-8.48 1.39 4.36.07 7.93-2.71 11a16.33 16.33 0 0 1-4.8 3.8c-2.93 1.41-3.84 3.36-2.91 6.38a27.79 27.79 0 0 1 .54 3.08 16.89 16.89 0 0 1 12.85-5.94 12.64 12.64 0 0 1 0 3.25 14 14 0 0 1-9.66 10.07c-3.08.93-4.46 2.35-4.31 5.51a23.94 23.94 0 0 1-.71 4.27c4.3-4.47 9-5.59 14.51-4.79a10.31 10.31 0 0 1-5.2 8.89 26.51 26.51 0 0 1-6.47 2.71c-5.18 1.47-5.21 1.37-5.78 7 9-2.52 9.41-2.54 14.8-.44a15.07 15.07 0 0 1-8.13 8c-1.62.64-3.48 1.34-5.11 1.13-5.43-.72-7.65 2.25-8.81 6.86 7.11-2.28 9.57-2.12 15.47 1.22-2.06 4.42-5.94 6.15-10.29 7a22.13 22.13 0 0 1-6.16 0c-4.93-.48-5.44-.24-7.83 5a19.32 19.32 0 0 1 15.07 4c-6.7 7.66-14.26 5.74-22.13 2.73l-5.11 4.75a65.79 65.79 0 0 1 8.32 1.94c2.56.94 5.07 2.28 6.59 5.16-5.21 4.45-10.77 4.13-16.56 1.89a17.34 17.34 0 0 1-2-.93c-4.34-2.35-4.34-2.36-8.76 1.49 5.35 1.7 10.06 4.13 13.39 9.58-3.94 2-7.69 3.23-11.81 1.67-2.32-.88-4.9-1.81-6.56-3.5-3.27-3.32-6.3-3.09-10.06-.39 5.38 2.23 9.53 5.59 11.66 11-6.67 3.89-13 1.35-21.55-8.5-13.69 2.54-26.22 7.78-36.86 18l-3.17-3c3.06-4.35 7.1-6.9 11.3-8.85a172.52 172.52 0 0 1 20.85-8.27c3.56-1.12 5.13-2.76 5.43-6.23.51-5.82 3.22-10.31 8.46-13.1a17 17 0 0 1 2.37-.86c2.87 4.55 2 9.42-2.65 16.65 5.89-1.12 6.21-1.24 5.88-6.88-.35-6 1.39-11 6.17-14.79a8 8 0 0 1 1.48-.91 2.29 2.29 0 0 1 .86-.05c3.19 5.16 3.15 9.08-.4 17 1.07-.63 1.79-1 2.48-1.47 3.72-2.37 3.76-2.39 2.59-6.61a15.72 15.72 0 0 1 2.07-14.01 36.25 36.25 0 0 1 3.42-3.65 17 17 0 0 1 3.2 15c4.3-1.12 5-2.27 3.37-6.17-2.26-5.56-3.06-11.05.43-16.44.39-.6.91-1.11 1.71-2.08 4.42 3.89 5.77 8.72 5.65 14.23 4.37-2.63 4.73-3.75 2.25-7.5-3.26-4.93-4.83-10.06-2.26-15.79a22.45 22.45 0 0 1 1.54-2.38c4.46 3.83 7.41 8 7.38 15l3.94-6.66c-5.51-5.6-10.63-11.15-6.83-20.25 5.61 2.57 8.91 6.59 10 13.24.47-1.29.69-1.9.91-2.5 1.75-4.62 1.75-4.61-2.15-7.95-3.41-2.93-6.48-6.09-6.51-11a37.11 37.11 0 0 1 .43-4.15c5.69 1.33 8.08 3.42 12 10.16.22-1 .43-1.79.6-2.62 1-4.52 1-4.56-3.22-6.67-4.89-2.45-8.33-6-9.08-11.64a5 5 0 0 1 0-1.31 6.26 6.26 0 0 1 .68-1.3 17.41 17.41 0 0 1 13.07 8.29v-2.53c0-5.31 0-5.28-4.94-7.06-5.41-1.93-9.57-5-10.49-11.88 5.83-.45 10.5.91 14.39 6.65-.24-1.84-.33-2.71-.47-3.57-.16-1-.33-2-.54-3a3.36 3.36 0 0 0-3.25-3 37.34 37.34 0 0 1-6-1.23c-4-1.12-6.45-3.8-7.73-8.14 3.58-2.14 5.69-1.92 13.79 1.6-.47-1.62-.82-3-1.26-4.33a3.58 3.58 0 0 0-4-2.7 35.52 35.52 0 0 1-4.85 0c-4.75-.35-8.05-2.86-10.72-7.13 5.5-2.85 10.34-2.44 15.84 1.52l-5.24-9.08c-7 2.64-13.54 3.76-18.92-3.34 5.08-3.38 9.86-4.41 15.37-1.57l-6.29-7.3c-9.85 4.52-14.39 4.45-19.21-.41a16.6 16.6 0 0 1 13.21-4.67l-6.2-5.19c-5.79 3.75-11.41 8.13-18.45 3.07 3.19-4.76 6.26-6.23 13.15-6.29-1.09-.76-1.88-1.39-2.75-1.9-5.07-3-5.08-2.95-9.62 1-4.27 3.69-8.38 4.39-13.21 2 2.41-5.06 6.41-7.6 12.38-7.87l-2-2.34zm-173-.02l-2 2.33c5.94.31 9.94 2.83 12.47 8.05a9.82 9.82 0 0 1-8.82.59 16.48 16.48 0 0 1-3.81-2.17c-1.76-1.24-3.56-3.87-5.09-3.69-2.7.31-5.21 2.28-7.68 3.79 6.43.31 8.37 1.17 12.72 5.85-3.81 4.52-7.3 4.15-18.27-2.18l-6.26 4.82c5.27 0 9.59 1.25 13.22 4.81-4.2 4.86-9.73 5-19.11.4l-6.39 7.32c5.46-2.76 10.27-1.88 15 1.31-3.1 5.89-8.06 6.93-18.48 3.72l-5.32 9c5.49-3.94 10.35-4.43 15.8-1.55-2.38 4.17-5.62 6.52-10.1 7.12a20.56 20.56 0 0 1-2.64.07c-6.33 0-6.58.25-7.72 7.14 4.27-2.5 8.52-4.21 13.73-2.23a10.86 10.86 0 0 1-7.45 8.45 19.56 19.56 0 0 1-5.58 1.2c-2.94.16-4.16 1.69-4.47 4.4-.17 1.44-.5 2.87-.93 5.18a16 16 0 0 1 14.28-6.58c.11 5-2.65 7.86-6.07 10.27a12.69 12.69 0 0 1-2.79 1.31c-6.59 2.52-6.59 2.51-6.09 10a62.5 62.5 0 0 1 5.76-5.66 12.22 12.22 0 0 1 7.71-2.44c0 4.47-.94 8.14-4.21 10.86a30.39 30.39 0 0 1-5.14 3.38c-3.74 2-3.83 2-3 6 .2 1 .45 2 .68 3 1.55-2.12 2.82-4.44 4.65-6.19s4.22-2.93 6.8-4.66c2 4.84.9 8.49-1.46 11.8a27.5 27.5 0 0 1-4.68 4.65c-3.28 2.79-3.32 2.74-1.9 6.55.35.93.72 1.84 1.29 3.3a16.17 16.17 0 0 1 9.45-12.93c4.27 7 1.39 12.11-6.24 20.12l3.68 6.47c.2-6.53 2.9-10.88 7.22-14.75 3.58 3.54 3.51 7.6 2.66 11.61a19.74 19.74 0 0 1-2.79 5.93c-2.48 4-2.52 4.33.79 7.87.39.41.85.76 1.79 1.59-1.38-6.44.55-11.26 5-15.92 3 3.82 4.76 7.52 4 12a36.19 36.19 0 0 1-1.75 6.37c-1.58 4.39-1.54 4.59 3.35 7a17.1 17.1 0 0 1 2.73-15c5.55 3.45 7.68 9.11 6.24 15.86-1.22 5.75-1.22 5.75 5.12 9.47-3.71-6.1-4.11-11.64-.73-17.67 4.46 2.92 7.67 6.26 8.29 11.5a36.85 36.85 0 0 1 .11 4.41c0 5.73 0 5.73 6.31 7.69-3.79-5.37-5.85-10.7-3.52-17.25a15.4 15.4 0 0 1 10.3 9.15 5.36 5.36 0 0 1 .6 2.11c-.17 6.52 3.64 8.75 9.44 10.18a66.27 66.27 0 0 1 23 10.78c1.88 1.36 3.56 3 5.77 4.84l-3.25 3.46a69.34 69.34 0 0 0-37-17.89c-9.07 9.92-14.65 12.17-21.65 8.48a19.59 19.59 0 0 1 11.39-10.77c-4.42-3.39-4.78-3.35-9.22-.12-5 3.61-10.26 5.83-16.46 3.28a22.37 22.37 0 0 1-2.18-1.23c2.85-5.37 7.55-7.78 12.9-9.35-3.47-4.09-4-4.14-8.22-1.89-6.24 3.33-12.46 4.11-18.53-.48 2.28-4.51 7.89-7.16 15.07-7.55a37.83 37.83 0 0 1-3.73-3c-1.32-1.35-2.51-1.44-4.31-.83a31.55 31.55 0 0 1-8.11 1.71c-4.84.29-7.33-1-11.46-5.22a17.45 17.45 0 0 1 14.77-3.82c-1.52-4.83-2.9-5.75-7-5.21-4.94.66-9.74.36-13.84-2.9a43.72 43.72 0 0 1-3.68-3.78c5.4-3.42 10.38-4 16.33-.8-.81-1.79-1.39-2.89-1.81-4-.94-2.61-2.75-3.46-5.46-3.34A15.39 15.39 0 0 1 4.21 132a11.79 11.79 0 0 1-.86-2.11c5.15-2.56 9.85-1.11 14.54.87-.18-5.71-.21-5.72-5.48-7.28-4.28-1.26-8.52-2.63-10.64-7.1-.61-1.28-1-2.66-1.65-4.44C6 111 10.75 112 15 116.39c-.36-2.5-.67-4.49-.92-6.5-.28-2.33-2.27-2.48-3.87-3a14.42 14.42 0 0 1-9.32-8.7A25.12 25.12 0 0 1 0 94.06c5.11-.72 8.34.63 13 5.38.27-1.24.44-2.3.74-3.32.86-2.86-.12-4.64-2.8-6a14.12 14.12 0 0 1-7.83-9.6 30.84 30.84 0 0 1-.3-5.13c5.45.63 8 2.4 12.3 8.64.61-2.86 1.37-5.17 1.46-7.5 0-1-1.19-2.21-2.1-3-2.91-2.6-5.58-5.36-5.93-9.46a45.58 45.58 0 0 1 .36-6.45c6 2.08 8 4.23 10.39 11.12a28.08 28.08 0 0 1 1.49-3.4c2-3.28 1.7-6-.89-9.07-3.65-4.33-4.39-9.36-1.45-15.19 4.55 3.09 7.29 6.72 7.64 12.84l4.2-6.49c1.24-1.91-.11-3.39-.93-4.87a14.24 14.24 0 0 1-.75-13.14 11.78 11.78 0 0 1 1.44-2.05c4 2.76 5.17 5.08 5.88 12.69a74.64 74.64 0 0 0 5.31-5.48c.46-.58.21-1.88 0-2.8-.4-2.16-1.17-4.27-1.4-6.44-.42-4 .91-6.77 4.61-9.8 3.5 3.8 4 8.16 2.43 14a78.87 78.87 0 0 0 6.38-4.88 4.6 4.6 0 0 0 1-3c0-1.74-.4-3.5-.4-5.25 0-4.9 1.33-7 6.09-10 3 4.1 2.31 8.47.59 13.57 1.91-.84 3.16-1.49 4.46-1.95 2.88-1 4-2.85 3.84-6-.28-5.49 2.16-9.54 7.62-12 3 5.39.83 9.66-2.2 13.81z"/><path class="cls-1" d="M59.41 91.61h6.22l10.87 29.82h-7.06l-2.31-6.68h-9.28l-2.27 6.68h-7.05zM66 110l-3.49-10.54L58.94 110zm10.63-3.73a15.05 15.05 0 0 1 1-5.35 14.61 14.61 0 0 1 2.94-4.77 15 15 0 0 1 4.7-3.4 14.65 14.65 0 0 1 6.3-1.3 14.18 14.18 0 0 1 7.29 1.81 11.68 11.68 0 0 1 4.6 4.7l-5.29 3.7a6.16 6.16 0 0 0-1.28-2 7 7 0 0 0-3.59-1.93 9.83 9.83 0 0 0-1.89-.19 7.12 7.12 0 0 0-3.44.8 7.57 7.57 0 0 0-2.44 2.06 8.54 8.54 0 0 0-1.43 2.86 11.56 11.56 0 0 0-.46 3.23 10.66 10.66 0 0 0 .55 3.4 9.06 9.06 0 0 0 1.57 2.9 7.59 7.59 0 0 0 2.48 2 7.09 7.09 0 0 0 3.25.74 8.36 8.36 0 0 0 1.91-.23 7.73 7.73 0 0 0 1.89-.71 6.73 6.73 0 0 0 1.71-1.25 5.9 5.9 0 0 0 1.22-1.91l5.63 3.32a8.77 8.77 0 0 1-2 2.94 12.32 12.32 0 0 1-3 2.18 16.72 16.72 0 0 1-7.43 1.81 13.35 13.35 0 0 1-5.94-1.32 15 15 0 0 1-4.66-3.51 16 16 0 0 1-3-5 15.5 15.5 0 0 1-1.19-5.58zm28.6 0a15.06 15.06 0 0 1 1-5.35 14.59 14.59 0 0 1 2.94-4.77 14.93 14.93 0 0 1 4.7-3.4 14.65 14.65 0 0 1 6.3-1.3 14.18 14.18 0 0 1 7.29 1.81 11.69 11.69 0 0 1 4.6 4.7l-5.29 3.7a6.16 6.16 0 0 0-1.28-2 7 7 0 0 0-3.59-1.93 9.84 9.84 0 0 0-1.89-.19 7.12 7.12 0 0 0-3.44.8 7.59 7.59 0 0 0-2.44 2.06 8.55 8.55 0 0 0-1.43 2.86 11.56 11.56 0 0 0-.46 3.23 10.68 10.68 0 0 0 .55 3.4 9 9 0 0 0 1.58 2.9 7.6 7.6 0 0 0 2.48 2 7.09 7.09 0 0 0 3.26.74 8.36 8.36 0 0 0 1.91-.23 7.71 7.71 0 0 0 1.89-.71 6.73 6.73 0 0 0 1.66-1.26 5.9 5.9 0 0 0 1.22-1.91l5.63 3.32a8.77 8.77 0 0 1-2 2.94 12.29 12.29 0 0 1-3 2.18 16.72 16.72 0 0 1-7.43 1.81 13.36 13.36 0 0 1-5.94-1.32 15 15 0 0 1-4.66-3.51 16 16 0 0 1-3-5 15.48 15.48 0 0 1-1.16-5.57zm43.39 15.41a13.86 13.86 0 0 1-6-1.3 14.89 14.89 0 0 1-4.66-3.42 15.57 15.57 0 0 1-3-4.85 15.28 15.28 0 0 1-1.07-5.63 14.88 14.88 0 0 1 1.11-5.67 15 15 0 0 1 7.83-8.13 14.26 14.26 0 0 1 6-1.24 13.87 13.87 0 0 1 6 1.3 14.75 14.75 0 0 1 4.66 3.44 15.58 15.58 0 0 1 3 4.87 15.35 15.35 0 0 1 1 5.54 14.9 14.9 0 0 1-1.11 5.67 15.09 15.09 0 0 1-7.79 8.15 14.06 14.06 0 0 1-5.97 1.27zm-7.77-15.12a11.16 11.16 0 0 0 .5 3.34 8.92 8.92 0 0 0 1.49 2.88 7.34 7.34 0 0 0 2.46 2 7.24 7.24 0 0 0 3.36.76 7.11 7.11 0 0 0 3.44-.8 7.46 7.46 0 0 0 2.44-2.08 9.08 9.08 0 0 0 1.45-2.9 11.48 11.48 0 0 0 .48-3.3 11.16 11.16 0 0 0-.5-3.34 8.47 8.47 0 0 0-1.51-2.86 7.5 7.5 0 0 0-2.46-2 7.29 7.29 0 0 0-3.34-.73 7.14 7.14 0 0 0-3.42.78 7.63 7.63 0 0 0-2.44 2 8.62 8.62 0 0 0-1.47 2.88 11.45 11.45 0 0 0-.48 3.37zm26.62 14.87V91.61h6.89v23.77h14.45v6zm32.68-29.82h6.22l10.88 29.82h-7.06l-2.31-6.68h-9.28l-2.27 6.68h-7.06zm6.59 18.4l-3.49-10.54-3.56 10.53zm13.44 11.42V91.61h11.13a16.47 16.47 0 0 1 6.47 1.18 13 13 0 0 1 7.46 7.92 17.41 17.41 0 0 1 .95 5.77 17.16 17.16 0 0 1-1.05 6.15 13.21 13.21 0 0 1-3 4.7 13.47 13.47 0 0 1-4.7 3 16.72 16.72 0 0 1-6.11 1.07zm19-15a11.6 11.6 0 0 0-.52-3.59 8.09 8.09 0 0 0-1.53-2.79 6.68 6.68 0 0 0-2.48-1.81 8.35 8.35 0 0 0-3.32-.63h-4.24v17.72h4.24a8 8 0 0 0 3.36-.67 6.8 6.8 0 0 0 2.46-1.87 8.56 8.56 0 0 0 1.51-2.81 11.45 11.45 0 0 0 .51-3.5zm32.03 8.95v6h-21V91.61h20.58v6h-13.65v5.8h11.76V109h-11.76v6.34zM77 61.55h2.56l5.67 14.91h-3l-1.39-3.72h-5.17l-1.37 3.72h-3zm3.34 9.16l-2.06-5.86-2.14 5.86zm10.41-9.12h2.67l1.68 4.94 1.68-4.94h2.69l-2.54 6.78 1.89 4.77L103 61.55h3.15l-6.07 14.91h-2.41l-2.58-6.26-2.58 6.26h-2.44L84 61.55h3.11l4.29 11.59 1.85-4.77zm19.92-.04h2.56l5.67 14.91h-3l-1.39-3.72h-5.21l-1.3 3.72h-3zm3.33 9.16l-2-5.86-2.14 5.86zm6.54 5.75V61.55h6.59A4.24 4.24 0 0 1 129 62a4.93 4.93 0 0 1 1.5 1.13 5.37 5.37 0 0 1 1 1.6 4.82 4.82 0 0 1 .36 1.8 5 5 0 0 1-.72 2.64 4.16 4.16 0 0 1-2 1.71l3.4 5.61h-3.26l-3-5h-2.86v5zm2.9-7.54h3.63a1.53 1.53 0 0 0 .75-.19 1.9 1.9 0 0 0 .6-.51 2.58 2.58 0 0 0 .4-.77 3 3 0 0 0 .15-.95 2.69 2.69 0 0 0-.17-1 2.52 2.52 0 0 0-.45-.77 2.05 2.05 0 0 0-.65-.5 1.69 1.69 0 0 0-.75-.18h-3.51zm11.07 7.54V61.55h5.42a8.09 8.09 0 0 1 3.2.59 6.44 6.44 0 0 1 3.69 4 8.89 8.89 0 0 1 .46 2.89 8.73 8.73 0 0 1-.51 3.08 6.59 6.59 0 0 1-1.48 2.35 6.68 6.68 0 0 1-2.29 1.46 8.2 8.2 0 0 1-3 .54zm9.85-7.46a6.37 6.37 0 0 0-.29-2 4.42 4.42 0 0 0-.86-1.55 3.84 3.84 0 0 0-1.4-1 4.72 4.72 0 0 0-1.88-.36h-2.52v9.83h2.52a4.54 4.54 0 0 0 1.9-.38 3.89 3.89 0 0 0 1.39-1 4.64 4.64 0 0 0 .85-1.56 6.29 6.29 0 0 0 .29-1.98zm16.59 7.56a6.77 6.77 0 0 1-3-.64 7.29 7.29 0 0 1-2.29-1.7 7.89 7.89 0 0 1-2-5.22 7.49 7.49 0 0 1 .56-2.86 7.9 7.9 0 0 1 1.53-2.42 7.33 7.33 0 0 1 2.32-1.67 6.9 6.9 0 0 1 2.92-.62 6.55 6.55 0 0 1 3 .66 7.37 7.37 0 0 1 2.28 1.73 8 8 0 0 1 1.47 2.44 7.68 7.68 0 0 1 .53 2.77 7.56 7.56 0 0 1-.55 2.85 7.74 7.74 0 0 1-1.51 2.39 7.28 7.28 0 0 1-2.31 1.66 6.89 6.89 0 0 1-2.95.63zM156.62 69a6 6 0 0 0 .29 1.87 5 5 0 0 0 .85 1.6 4.22 4.22 0 0 0 1.37 1.11 4.23 4.23 0 0 0 3.7 0 4.23 4.23 0 0 0 1.36-1.14 5.1 5.1 0 0 0 .84-1.61 6 6 0 0 0 .28-1.82 5.81 5.81 0 0 0-.3-1.87 5.16 5.16 0 0 0-.86-1.6 4.12 4.12 0 0 0-1.36-1.1 4.25 4.25 0 0 0-3.69 0 4.15 4.15 0 0 0-1.37 1.13 5.1 5.1 0 0 0-.83 1.6 6 6 0 0 0-.28 1.83zm13.84 7.46V61.55h10v2.54h-7.12v3.84h5.92v2.35h-5.92v6.17zm28.79 0v-9.87l-3.84 7.35h-1.58L190 66.59v9.87h-2.9V61.55h3.11l4.4 8.45 4.45-8.48h3.09v14.94zm16.36-2.54v2.54h-10.35V61.55h10.16v2.54h-7.27v3.59h6.28V70h-6.28v3.88zm2.27 2.54V61.55h6.59a4.24 4.24 0 0 1 1.9.43 4.93 4.93 0 0 1 1.5 1.13 5.37 5.37 0 0 1 1 1.6 4.82 4.82 0 0 1 .36 1.8 5 5 0 0 1-.72 2.64 4.16 4.16 0 0 1-2 1.71l3.4 5.61h-3.26l-3-5h-2.86v5zm2.9-7.54h3.63a1.53 1.53 0 0 0 .75-.19 1.9 1.9 0 0 0 .6-.51 2.58 2.58 0 0 0 .4-.77 3 3 0 0 0 .15-.95 2.69 2.69 0 0 0-.17-1 2.52 2.52 0 0 0-.45-.77 2.05 2.05 0 0 0-.65-.5 1.69 1.69 0 0 0-.75-.18h-3.51zm11.06 7.54V61.55h2.9v14.91zM249 64.09h-4.77v12.37h-2.88V64.09h-4.77v-2.54H249zM66.8 145.88a4.07 4.07 0 0 1-3 1.28 4.7 4.7 0 0 1-2-.42 5 5 0 0 1-1.61-1.15 5.51 5.51 0 0 1-1.08-1.73 5.75 5.75 0 0 1-.4-2.15 5.41 5.41 0 0 1 1.49-3.76 5.24 5.24 0 0 1 1.64-1.15 4.92 4.92 0 0 1 2.05-.43 5 5 0 0 1 2.57.63 4.09 4.09 0 0 1 1.61 1.7l-1.55 1.14a2.87 2.87 0 0 0-1.13-1.22 3.11 3.11 0 0 0-1.58-.42 2.7 2.7 0 0 0-1.24.29 2.89 2.89 0 0 0-1 .78 3.7 3.7 0 0 0-.62 1.14 4.26 4.26 0 0 0-.22 1.36 4 4 0 0 0 .24 1.4 3.57 3.57 0 0 0 .66 1.13 3.08 3.08 0 0 0 1 .76 2.84 2.84 0 0 0 1.25.28 3.63 3.63 0 0 0 2.79-1.46v-.75h-2.02v-1.53h3.85v5.48h-1.7zm3.48 1.2v-10.65h2.07v8.83h5.43v1.81zm12.63.07a4.84 4.84 0 0 1-2.12-.46 5.21 5.21 0 0 1-1.63-1.22 5.63 5.63 0 0 1-1.43-3.73 5.36 5.36 0 0 1 .4-2 5.62 5.62 0 0 1 1.08-1.74 5.24 5.24 0 0 1 1.66-1.19 4.93 4.93 0 0 1 2.08-.44 4.68 4.68 0 0 1 2.11.47 5.26 5.26 0 0 1 1.63 1.24 5.7 5.7 0 0 1 1.05 1.74 5.5 5.5 0 0 1 .38 2 5.39 5.39 0 0 1-.39 2 5.51 5.51 0 0 1-1.08 1.71 5.18 5.18 0 0 1-1.65 1.18 4.92 4.92 0 0 1-2.09.44zm-3.09-5.4a4.26 4.26 0 0 0 .21 1.33 3.54 3.54 0 0 0 .61 1.14 3 3 0 0 0 1 .79 3 3 0 0 0 2.64 0 3 3 0 0 0 1-.82 3.65 3.65 0 0 0 .6-1.15 4.27 4.27 0 0 0 .2-1.3 4.17 4.17 0 0 0-.22-1.33 3.7 3.7 0 0 0-.62-1.14 2.93 2.93 0 0 0-1-.79 3 3 0 0 0-2.63 0 3 3 0 0 0-1 .81 3.63 3.63 0 0 0-.59 1.14 4.27 4.27 0 0 0-.2 1.32zm18.46 2.58a2.42 2.42 0 0 1-1 2 3.47 3.47 0 0 1-1.1.52 4.75 4.75 0 0 1-1.33.18H89.7v-10.6h5.7a2.11 2.11 0 0 1 1 .24 2.51 2.51 0 0 1 .76.62 2.86 2.86 0 0 1 .49.87 2.92 2.92 0 0 1 .17 1 2.89 2.89 0 0 1-.39 1.46 2.37 2.37 0 0 1-1.14 1 2.74 2.74 0 0 1 1.45 1 2.79 2.79 0 0 1 .54 1.71zm-6.51-6.13v2.69h2.76a1.23 1.23 0 0 0 .89-.36 1.32 1.32 0 0 0 .37-1 1.37 1.37 0 0 0-.34-1 1.09 1.09 0 0 0-.83-.36zm4.43 5.75a1.58 1.58 0 0 0-.1-.55 1.55 1.55 0 0 0-.26-.46 1.23 1.23 0 0 0-.39-.31 1.09 1.09 0 0 0-.5-.11h-3.18v2.81h3.08a1.35 1.35 0 0 0 .53-.1 1.28 1.28 0 0 0 .43-.29 1.43 1.43 0 0 0 .39-1zm6.51-7.52h1.83l4 10.65h-2.13l-1-2.65h-3.72l-1 2.65h-2.05zm2.39 6.54l-1.47-4.19-1.54 4.22zm4.66 4.11v-10.65h2.07v8.83h5.43v1.81zm11.95 0v-10.65h7.15v1.81h-5.08V141H128v1.68h-4.23v4.41zm8.61 0v-10.65h2.07v10.65zm4.29 0v-10.65h2.07v8.83h5.43v1.81zm17.44 0v-7l-2.75 5.25h-1.12l-2.74-5.33v7h-2.07v-10.57h2.22l3.15 6.06 3.18-6.06h2.21v10.65zm7.25-5.4a5.51 5.51 0 0 1 .35-1.93 5.17 5.17 0 0 1 2.68-2.92 5.1 5.1 0 0 1 2.22-.46 4.85 4.85 0 0 1 2.54.65 4.12 4.12 0 0 1 1.6 1.68l-1.59 1.09a2.71 2.71 0 0 0-.51-.76 2.56 2.56 0 0 0-.64-.49 2.93 2.93 0 0 0-.72-.26 3.4 3.4 0 0 0-.73-.08 2.79 2.79 0 0 0-1.36.31 3 3 0 0 0-1 .82 3.59 3.59 0 0 0-.58 1.14 4.32 4.32 0 0 0-.19 1.27 4.12 4.12 0 0 0 .22 1.36 3.61 3.61 0 0 0 .64 1.15 3.17 3.17 0 0 0 1 .79 2.7 2.7 0 0 0 1.27.3 3.33 3.33 0 0 0 .75-.09 2.84 2.84 0 0 0 .75-.25 2.81 2.81 0 0 0 .65-.5 2.29 2.29 0 0 0 .48-.74l1.7 1a3.19 3.19 0 0 1-.73 1.06 4.67 4.67 0 0 1-1.06.77 5.46 5.46 0 0 1-1.27.48 5.54 5.54 0 0 1-1.32.17 4.53 4.53 0 0 1-2.08-.48 5.43 5.43 0 0 1-1.63-1.25 5.8 5.8 0 0 1-1.06-1.75 5.48 5.48 0 0 1-.38-2.08zm15.37 5.47a4.84 4.84 0 0 1-2.12-.46 5.21 5.21 0 0 1-1.63-1.22 5.63 5.63 0 0 1-1.43-3.73 5.36 5.36 0 0 1 .4-2A5.62 5.62 0 0 1 171 138a5.24 5.24 0 0 1 1.66-1.19 4.93 4.93 0 0 1 2.08-.44 4.68 4.68 0 0 1 2.11.47 5.26 5.26 0 0 1 1.63 1.24 5.7 5.7 0 0 1 1.05 1.74 5.5 5.5 0 0 1 .38 2 5.39 5.39 0 0 1-.39 2 5.51 5.51 0 0 1-1.08 1.71 5.18 5.18 0 0 1-1.65 1.19 4.92 4.92 0 0 1-2.12.43zm-3.09-5.4a4.26 4.26 0 0 0 .21 1.33 3.54 3.54 0 0 0 .61 1.14 3 3 0 0 0 1 .79 3 3 0 0 0 2.64 0 3 3 0 0 0 1-.82 3.65 3.65 0 0 0 .6-1.15 4.27 4.27 0 0 0 .2-1.3 4.17 4.17 0 0 0-.22-1.33 3.7 3.7 0 0 0-.62-1.14 2.93 2.93 0 0 0-1-.79 3 3 0 0 0-2.63 0 3 3 0 0 0-1 .81 3.63 3.63 0 0 0-.59 1.14 4.27 4.27 0 0 0-.2 1.32zm18.57 5.33v-7l-2.75 5.25h-1.12l-2.74-5.33v7h-2.07v-10.57h2.22l3.15 6.06 3.18-6.06h2.21v10.65zm4.29 0v-10.65H199a3 3 0 0 1 1.36.31 3.52 3.52 0 0 1 1.07.81 3.81 3.81 0 0 1 .71 1.14 3.43 3.43 0 0 1 .25 1.28 3.72 3.72 0 0 1-.24 1.31 3.65 3.65 0 0 1-.68 1.13 3.31 3.31 0 0 1-1 .79 3 3 0 0 1-1.35.3h-2.52v3.57zm2.07-5.38h2.4a1.18 1.18 0 0 0 1-.47 1.92 1.92 0 0 0 .38-1.26 2.07 2.07 0 0 0-.12-.73 1.79 1.79 0 0 0-.31-.55 1.26 1.26 0 0 0-.46-.34 1.34 1.34 0 0 0-.53-.11h-2.31zm14.67 3.56v1.81h-7.39v-10.64H211v1.81h-5.19v2.56h4.49v1.68h-4.49v2.77zm9.59-7.02h-3.41v8.83h-2.05v-8.83h-3.41v-1.81h8.87zm1.32 8.84v-10.65h2.07v10.65zm12.25-8.84h-3.41v8.83h-2.05v-8.83h-3.41v-1.81h8.87zm1.32 8.84v-10.65h2.07v10.65zm8.84.07a4.84 4.84 0 0 1-2.12-.46 5.21 5.21 0 0 1-1.63-1.22 5.63 5.63 0 0 1-1.43-3.73 5.36 5.36 0 0 1 .4-2 5.62 5.62 0 0 1 1.08-1.74 5.24 5.24 0 0 1 1.66-1.19 4.93 4.93 0 0 1 2.08-.44 4.68 4.68 0 0 1 2.11.47 5.26 5.26 0 0 1 1.63 1.24 5.7 5.7 0 0 1 1.05 1.74 5.5 5.5 0 0 1 .38 2 5.39 5.39 0 0 1-.39 2 5.51 5.51 0 0 1-1.08 1.71 5.18 5.18 0 0 1-1.65 1.19 4.92 4.92 0 0 1-2.09.43zm-3.09-5.4a4.26 4.26 0 0 0 .21 1.33 3.54 3.54 0 0 0 .61 1.14 3 3 0 0 0 1 .79 3 3 0 0 0 2.64 0 3 3 0 0 0 1-.82 3.65 3.65 0 0 0 .6-1.15 4.27 4.27 0 0 0 .2-1.3 4.17 4.17 0 0 0-.22-1.33 3.7 3.7 0 0 0-.62-1.14 2.93 2.93 0 0 0-1-.79 3 3 0 0 0-2.63 0 3 3 0 0 0-1 .81 3.63 3.63 0 0 0-.59 1.14 4.27 4.27 0 0 0-.2 1.32zm11.95-1.5v6.83h-2.07v-10.65h1.6l5.55 7v-7h2.07v10.63h-1.68z"/></g></g></svg>