<svg xmlns="http://www.w3.org/2000/svg" viewBox="0 0 104.44 67.6"><defs><style>.cls-1{fill:#ef5035}</style></defs><title>acefest-laurel-red</title><g id="Layer_2" data-name="Layer 2"><g id="Layer_1-2" data-name="Layer 1"><g id="Layer_2-2" data-name="Layer 2"><g id="Layer_1-2-2" data-name="Layer 1-2"><path class="cls-1" d="M80.37 4.48a4.27 4.27 0 0 1-.88-4.37 3.09 3.09 0 0 1 2.6 3.21c-.13 1.9.93 2.51 2.36 3h.26c-.51-2.58-.48-2.86.38-4.2A3.35 3.35 0 0 1 87 6c-.37 1.6.32 2.39 1.56 3 .16.09.31.21.65.45A4.85 4.85 0 0 1 90 5.1c1.8.89 2 2.23 1 5.89.23.25.5.52.73.81a4.91 4.91 0 0 0 1 1.08c.32-1.62.58-3.09 2.09-4.14.92 1.37 1.36 2.89.54 4.19-1.09 1.72-.47 2.92.52 4.22l.18.15a4.79 4.79 0 0 1 2.51-3.9 3.6 3.6 0 0 1 .32 3.45 6.25 6.25 0 0 1-1.16 1.95 1.3 1.3 0 0 0-.27 1.55c.27.6.52 1.21.88 2.07a4.67 4.67 0 0 1 3-3.72 3.33 3.33 0 0 1-.9 4.49c-1.49 1.17-1.46 2.35-.76 4a5.34 5.34 0 0 1 3.79-2.76 3.45 3.45 0 0 1-.88 3.57 5.31 5.31 0 0 1-1.59 1.23 1.53 1.53 0 0 0-.95 2.07 9 9 0 0 1 .18 1 5.49 5.49 0 0 1 4.18-1.93 4.11 4.11 0 0 1 0 1.06 4.55 4.55 0 0 1-3.14 3.27c-1 .3-1.45.76-1.4 1.79a7.78 7.78 0 0 1-.23 1.39 5 5 0 0 1 4.71-1.56 3.35 3.35 0 0 1-1.69 2.89 8.61 8.61 0 0 1-2.1.88c-1.68.48-1.69.45-1.88 2.27 2.92-.82 3.06-.83 4.81-.14a4.9 4.9 0 0 1-2.64 2.6 3.61 3.61 0 0 1-1.66.37c-1.76-.23-2.49.73-2.86 2.23 2.31-.74 3.11-.69 5 .4A4.21 4.21 0 0 1 98 50.09a7.19 7.19 0 0 1-2 0c-1.6-.16-1.77-.08-2.54 1.62a6.28 6.28 0 0 1 4.9 1.3c-2.18 2.49-4.63 1.87-7.19.89l-1.66 1.54a21.38 21.38 0 0 1 2.7.63 3.63 3.63 0 0 1 2.14 1.68c-1.69 1.45-3.5 1.34-5.38.61a5.63 5.63 0 0 1-.65-.3c-1.41-.76-1.41-.77-2.85.48a7.2 7.2 0 0 1 4.35 3.11 4.55 4.55 0 0 1-3.82.55 5.9 5.9 0 0 1-2.13-1.14c-1.06-1.08-2-1-3.27-.13a6.4 6.4 0 0 1 3.79 3.57c-2.17 1.26-4.22.44-7-2.76a22.62 22.62 0 0 0-12 5.85l-1-1A8.76 8.76 0 0 1 68 63.75a56.06 56.06 0 0 1 6.77-2.69 2.09 2.09 0 0 0 1.76-2 5 5 0 0 1 2.75-4.26 5.52 5.52 0 0 1 .77-.28c.93 1.48.65 3.06-.86 5.41 1.91-.36 2-.4 1.91-2.24a5.32 5.32 0 0 1 2-4.81 2.6 2.6 0 0 1 .48-.3.74.74 0 0 1 .28 0c1 1.68 1 3-.13 5.52.35-.2.58-.32.81-.48 1.21-.77 1.22-.78.84-2.15a5.11 5.11 0 0 1 .67-4.55 11.78 11.78 0 0 1 1.11-1.19 5.52 5.52 0 0 1 1 4.87c1.4-.36 1.62-.74 1.1-2-.73-1.81-1-3.59.14-5.34.13-.19.3-.36.56-.68a5.56 5.56 0 0 1 1.84 4.62c1.42-.85 1.54-1.22.73-2.44a5 5 0 0 1-.73-5.13 7.29 7.29 0 0 1 .5-.77 5.9 5.9 0 0 1 2.4 4.87l1.28-2.16c-1.79-1.82-3.45-3.62-2.22-6.58a5.28 5.28 0 0 1 3.25 4.3l.3-.81c.57-1.5.57-1.5-.7-2.58-1.11-1-2.11-2-2.12-3.57a12.06 12.06 0 0 1 .22-1.33c1.85.43 2.63 1.11 3.9 3.3.07-.32.14-.58.19-.85.32-1.47.32-1.48-1-2.17a4.83 4.83 0 0 1-3-3.78 1.62 1.62 0 0 1 0-.43 2 2 0 0 1 .22-.42 5.66 5.66 0 0 1 4.25 2.69v-.82c0-1.73 0-1.72-1.61-2.29a4.5 4.5 0 0 1-3.41-3.86 4.62 4.62 0 0 1 4.68 2.16c-.08-.6-.11-.88-.15-1.16s-.11-.65-.18-1a1.09 1.09 0 0 0-1.06-1A12.13 12.13 0 0 1 95.6 25a3.51 3.51 0 0 1-2.51-2.64c1.16-.7 1.85-.62 4.48.52-.15-.53-.27-1-.41-1.41a1.16 1.16 0 0 0-1.3-.88 11.54 11.54 0 0 1-1.58 0 4.33 4.33 0 0 1-3.48-2.32 4.46 4.46 0 0 1 5.15.49l-1.7-3c-2.27.86-4.4 1.22-6.15-1.09a4.53 4.53 0 0 1 5-.51l-2-2.37c-3.2 1.47-4.68 1.45-6.24-.13a5.39 5.39 0 0 1 4.29-1.52l-2-1.69c-1.88 1.22-3.71 2.64-6 1 1-1.55 2-2 4.27-2-.35-.25-.61-.45-.89-.62-1.65-1-1.65-1-3.13.32a3.54 3.54 0 0 1-4.29.65 4.28 4.28 0 0 1 4-2.56l-.65-.76zm-56.21-.01l-.65.76a4.36 4.36 0 0 1 4.05 2.62 3.19 3.19 0 0 1-2.87.15 5.35 5.35 0 0 1-1.24-.71c-.57-.4-1.16-1.26-1.65-1.2a6.81 6.81 0 0 0-2.5 1.23 4.68 4.68 0 0 1 4.13 1.9c-1.24 1.47-2.37 1.35-5.94-.71l-2 1.57a5.72 5.72 0 0 1 4.3 1.56c-1.36 1.58-3.16 1.62-6.21.13l-2.08 2.38a4.46 4.46 0 0 1 4.87.43c-1 1.91-2.62 2.25-6 1.21l-1.75 2.96a4.43 4.43 0 0 1 5.13-.5 4.26 4.26 0 0 1-3.28 2.31 6.68 6.68 0 0 1-.86 0c-2.06 0-2.14.08-2.51 2.32 1.39-.81 2.77-1.37 4.46-.72a3.53 3.53 0 0 1-2.42 2.75 6.36 6.36 0 0 1-1.81.39 1.39 1.39 0 0 0-1.45 1.43c-.06.47-.16.93-.3 1.68a5.2 5.2 0 0 1 4.64-2.14 3.8 3.8 0 0 1-2 3.34 4.12 4.12 0 0 1-.91.43c-2.14.82-2.14.82-2 3.25a20.31 20.31 0 0 1 1.87-1.84 4 4 0 0 1 2.51-.79 4.21 4.21 0 0 1-1.32 3.54 9.87 9.87 0 0 1-1.67 1.1c-1.22.65-1.24.65-1 1.95.06.32.15.65.22 1a14.58 14.58 0 0 1 1.51-2 16.69 16.69 0 0 1 2.23-1.55 3.66 3.66 0 0 1-.47 3.83A8.94 8.94 0 0 1 7.67 40c-1.07.91-1.08.89-.62 2.13.11.3.23.6.42 1.07a5.25 5.25 0 0 1 3.07-4.2c1.39 2.27.45 3.93-2 6.54l1.2 2.1a6.29 6.29 0 0 1 2.35-4.79 3.74 3.74 0 0 1 .86 3.77 6.41 6.41 0 0 1-.95 1.97c-.81 1.3-.82 1.41.26 2.56.13.13.28.25.58.52a5.32 5.32 0 0 1 1.62-5.17 4.82 4.82 0 0 1 1.3 3.9 11.76 11.76 0 0 1-.57 2.07c-.51 1.43-.5 1.49 1.09 2.27a5.56 5.56 0 0 1 .89-4.87 4.55 4.55 0 0 1 2 5.15c-.4 1.87-.4 1.87 1.66 3.08a5.21 5.21 0 0 1-.24-5.74 5.14 5.14 0 0 1 2.69 3.74 12 12 0 0 1 0 1.43c0 1.86 0 1.86 2.05 2.5-1.23-1.74-1.9-3.48-1.14-5.6a5 5 0 0 1 3.35 3 1.74 1.74 0 0 1 .19.69c-.06 2.12 1.18 2.84 3.07 3.31a21.53 21.53 0 0 1 7.47 3.5c.61.44 1.16 1 1.87 1.57l-1.06 1.12a22.53 22.53 0 0 0-12-5.81c-2.95 3.22-4.76 4-7 2.76a6.37 6.37 0 0 1 3.7-3.5c-1.44-1.1-1.55-1.09-3 0-1.62 1.17-3.33 1.89-5.35 1.07a7.27 7.27 0 0 1-.71-.4 6.33 6.33 0 0 1 4.19-3c-1.13-1.33-1.3-1.35-2.67-.61-2 1.08-4 1.34-6-.16.74-1.47 2.56-2.33 4.9-2.45a12.29 12.29 0 0 1-1.21-1 1.16 1.16 0 0 0-1.4-.27 10.25 10.25 0 0 1-2.64.56c-1.57.09-2.38-.32-3.72-1.7A5.67 5.67 0 0 1 11 51.76c-.49-1.57-.94-1.87-2.27-1.69a5.65 5.65 0 0 1-4.5-.94A14.21 14.21 0 0 1 3 47.89a4.76 4.76 0 0 1 5.31-.26c-.26-.58-.45-.94-.59-1.3A1.56 1.56 0 0 0 6 45.25a5 5 0 0 1-4.6-2.37 3.83 3.83 0 0 1-.28-.69c1.67-.83 3.2-.36 4.72.28-.06-1.86-.07-1.86-1.78-2.37-1.39-.41-2.77-.85-3.46-2.31-.2-.42-.32-.86-.54-1.44a5 5 0 0 1 4.83 1.45c-.12-.81-.22-1.46-.3-2.11s-.74-.81-1.26-1a4.69 4.69 0 0 1-3-2.83A8.16 8.16 0 0 1 0 30.55c1.66-.23 2.71.2 4.22 1.75.09-.4.14-.75.24-1.08a1.47 1.47 0 0 0-.91-1.95A4.59 4.59 0 0 1 1 26.15a10 10 0 0 1-.1-1.67c1.77.2 2.6.78 4 2.81a15.42 15.42 0 0 0 .47-2.44c0-.32-.39-.72-.68-1a4.73 4.73 0 0 1-1.93-3.07 14.81 14.81 0 0 1 .12-2.1c1.95.68 2.6 1.37 3.38 3.61a9.12 9.12 0 0 1 .48-1.1 2.24 2.24 0 0 0-.29-2.95 4.17 4.17 0 0 1-.45-4.9 5 5 0 0 1 2.48 4.17l1.36-2.11c.4-.62 0-1.1-.3-1.58a4.63 4.63 0 0 1-.24-4.27 3.83 3.83 0 0 1 .47-.67c1.3.9 1.68 1.65 1.91 4.12a24.25 24.25 0 0 0 1.73-1.78c.15-.19.07-.61 0-.91-.13-.7-.38-1.39-.45-2.09A3.31 3.31 0 0 1 14.44 5c1.14 1.23 1.3 2.65.79 4.55A25.63 25.63 0 0 0 17.3 8a1.49 1.49 0 0 0 .32-1c0-.57-.13-1.14-.13-1.71 0-1.59.43-2.27 2-3.25 1 1.33.75 2.75.19 4.41.62-.27 1-.48 1.45-.63a1.7 1.7 0 0 0 1.23-1.92A3.77 3.77 0 0 1 24.84 0c1 1.75.27 3.14-.71 4.49z"/><path class="cls-1" d="M21.57 28.51H24L28.2 40h-2.73l-.89-2.6H21l-.91 2.6h-2.73zm2.55 7.12l-1.35-4.08-1.38 4.08zm4.11-1.45a5.82 5.82 0 0 1 .39-2.07 5.66 5.66 0 0 1 1.14-1.85A5.78 5.78 0 0 1 31.58 29a5.67 5.67 0 0 1 2.44-.5 5.48 5.48 0 0 1 2.82.7 4.52 4.52 0 0 1 1.77 1.8l-2 1.43a2.38 2.38 0 0 0-.5-.77 2.7 2.7 0 0 0-1.39-.75 3.8 3.8 0 0 0-.73-.07 2.75 2.75 0 0 0-1.33.31 2.92 2.92 0 0 0-.94.8 3.3 3.3 0 0 0-.55 1.1 4.47 4.47 0 0 0-.18 1.25 4.13 4.13 0 0 0 .21 1.3 3.49 3.49 0 0 0 .61 1.13 2.92 2.92 0 0 0 1 .77 2.74 2.74 0 0 0 1.26.29 3.25 3.25 0 0 0 .74-.09 3 3 0 0 0 .73-.28 2.6 2.6 0 0 0 .65-.49 2.27 2.27 0 0 0 .47-.74l2.18 1.28A3.39 3.39 0 0 1 38 38.6a4.76 4.76 0 0 1-1.18.84 6.46 6.46 0 0 1-2.88.7 5.17 5.17 0 0 1-2.31-.51 5.81 5.81 0 0 1-1.8-1.36 6.2 6.2 0 0 1-1.17-1.92 6 6 0 0 1-.43-2.17zm19.95 3.52V40h-8.11V28.51h8v2.35h-5.3v2.24h4.55v2.16h-4.58v2.45zM49.8 40V28.51h7.83v2.35h-5.16v2.49h4.26v2.15h-4.26v4.55zm17.35-2.3V40H59V28.51h8v2.35h-5.3v2.24h4.55v2.16h-4.56v2.45zm8.3-5.81a1.62 1.62 0 0 0-.32-.24 6.5 6.5 0 0 0-.73-.37 7.07 7.07 0 0 0-1-.32 3.82 3.82 0 0 0-1-.15q-1.43 0-1.43 1a.76.76 0 0 0 .15.49 1.36 1.36 0 0 0 .45.35 4.16 4.16 0 0 0 .75.29l1.06.29a13.82 13.82 0 0 1 1.49.5 4 4 0 0 1 1.13.65 2.71 2.71 0 0 1 .71 1 3.36 3.36 0 0 1 .29 1.29 3.42 3.42 0 0 1-.36 1.65 3.08 3.08 0 0 1-1 1.09 4.08 4.08 0 0 1-1.38.6 6.89 6.89 0 0 1-1.62.19 9 9 0 0 1-1.3-.1 9.42 9.42 0 0 1-1.3-.28 10.28 10.28 0 0 1-1.22-.45 6.82 6.82 0 0 1-1.1-.6l1.17-2.32a2.27 2.27 0 0 0 .42.31 6.32 6.32 0 0 0 .89.45 9 9 0 0 0 1.18.41 4.93 4.93 0 0 0 1.3.18q1.41 0 1.41-.86a.73.73 0 0 0-.21-.54 2 2 0 0 0-.58-.38 6.38 6.38 0 0 0-.88-.32l-1.11-.32a9.6 9.6 0 0 1-1.38-.53 3.64 3.64 0 0 1-1-.65 2.39 2.39 0 0 1-.57-.86 3.16 3.16 0 0 1-.19-1.14 3.63 3.63 0 0 1 .32-1.62 3.48 3.48 0 0 1 .93-1.18 4 4 0 0 1 1.42-.74 5.39 5.39 0 0 1 1.62-.24 6.22 6.22 0 0 1 1.19.11 9 9 0 0 1 1.12.29 8 8 0 0 1 1 .42q.46.23.85.45zm11.78-1.03h-3.51v9.2h-2.66v-9.2h-3.52v-2.34h9.7zM23.46 16.74h.83l1.84 4.84h-1l-.45-1.21H23l-.45 1.21h-1zm1.09 3l-.67-1.9-.7 1.9zm3.96 1.05a1.08 1.08 0 0 0 .56-.14 1.1 1.1 0 0 0 .37-.35 1.47 1.47 0 0 0 .2-.5 2.9 2.9 0 0 0 .06-.58v-2.48h.94v2.47a3.53 3.53 0 0 1-.12.93 2.14 2.14 0 0 1-.38.76 1.8 1.8 0 0 1-.65.52 2.23 2.23 0 0 1-1 .19 2.2 2.2 0 0 1-1-.2 1.84 1.84 0 0 1-.65-.53 2.13 2.13 0 0 1-.36-.77 3.63 3.63 0 0 1-.11-.91v-2.47h.94v2.47a2.92 2.92 0 0 0 0 .61 1.46 1.46 0 0 0 .2.5 1.08 1.08 0 0 0 .35.34 1.07 1.07 0 0 0 .65.14zm3.07.79v-4.84h1.76a2.63 2.63 0 0 1 1 .19 2.09 2.09 0 0 1 1.2 1.3 2.89 2.89 0 0 1 .17.93 2.84 2.84 0 0 1-.17 1 2.14 2.14 0 0 1-.48.76 2.17 2.17 0 0 1-.75.49 2.66 2.66 0 0 1-1 .18zm3.19-2.42a2.07 2.07 0 0 0-.09-.65 1.44 1.44 0 0 0-.28-.5 1.25 1.25 0 0 0-.45-.32 1.53 1.53 0 0 0-.61-.12h-.82v3.19h.82a1.48 1.48 0 0 0 .62-.12 1.26 1.26 0 0 0 .45-.32 1.51 1.51 0 0 0 .28-.51 2 2 0 0 0 .08-.65zm1.69 2.42v-4.84h.94v4.84zm5.32-.82v.83h-3.37v-4.85h3.3v.83h-2.36v1.17h2v.75h-2v1.26zm1.68-2.28v3.11h-.94v-4.85h.73l2.52 3.18v-3.17h.94v4.84h-.76zm3.98.65a2.51 2.51 0 0 1 .16-.88 2.35 2.35 0 0 1 1.22-1.33 2.32 2.32 0 0 1 1-.21A2.2 2.2 0 0 1 51 17a1.87 1.87 0 0 1 .73.76l-.72.5a1.24 1.24 0 0 0-.23-.34 1.17 1.17 0 0 0-.29-.22 1.32 1.32 0 0 0-.32-.12 1.56 1.56 0 0 0-.32 0 1.27 1.27 0 0 0-.62.14 1.36 1.36 0 0 0-.46.37 1.62 1.62 0 0 0-.26.52 2 2 0 0 0-.09.58 1.88 1.88 0 0 0 .1.62 1.62 1.62 0 0 0 .29.52 1.45 1.45 0 0 0 .45.36 1.23 1.23 0 0 0 .58.14 1.52 1.52 0 0 0 .32 0 1.27 1.27 0 0 0 .65-.36 1 1 0 0 0 .22-.32l.77.45a1.46 1.46 0 0 1-.32.48 2.12 2.12 0 0 1-.48.35 2.47 2.47 0 0 1-.58.22 2.53 2.53 0 0 1-.6.07 2.06 2.06 0 0 1-.95-.22 2.47 2.47 0 0 1-.74-.59 2.64 2.64 0 0 1-.48-.8 2.49 2.49 0 0 1-.21-.98zm8.33 1.63v.83H52.4v-4.85h3.3v.83h-2.36v1.17h2v.75h-2v1.26zm3.54-4.02h.83L62 21.58h-1l-.45-1.21h-1.69l-.45 1.21h-1zm1.09 3l-.67-1.9-.7 1.9zm3.37-2.99h.87l.55 1.61.55-1.61h.88L65.78 19l.61 1.55 1.37-3.77h1l-2 4.84H66l-.84-2-.85 2h-.79l-1.95-4.84h1L64 20.51l.6-1.55zm6.48-.01h.83l1.84 4.84h-1l-.45-1.21H69.8l-.45 1.21h-1zm1.09 3l-.67-1.9-.7 1.9zm2.11 1.84v-4.84h2.14a1.38 1.38 0 0 1 .62.14 1.6 1.6 0 0 1 .49.37 1.74 1.74 0 0 1 .32.52 1.57 1.57 0 0 1 .12.58 1.62 1.62 0 0 1-.23.86 1.35 1.35 0 0 1-.65.56l1.1 1.82H76.3l-1-1.62h-.92v1.62zm.94-2.45h1.18a.5.5 0 0 0 .24-.06.62.62 0 0 0 .19-.17.84.84 0 0 0 .13-.25 1 1 0 0 0 0-.31.87.87 0 0 0-.06-.32.82.82 0 0 0-.15-.25.67.67 0 0 0-.21-.16.55.55 0 0 0-.24-.06h-1.06zM78 21.58v-4.84h1.76a2.63 2.63 0 0 1 1 .19 2.09 2.09 0 0 1 1.2 1.3 2.89 2.89 0 0 1 .15.94 2.84 2.84 0 0 1-.17 1 2.14 2.14 0 0 1-.48.76 2.17 2.17 0 0 1-.75.49 2.66 2.66 0 0 1-1 .18zm3.21-2.42a2.07 2.07 0 0 0-.09-.65 1.44 1.44 0 0 0-.28-.5 1.25 1.25 0 0 0-.45-.32 1.53 1.53 0 0 0-.61-.12h-.82v3.19h.82a1.48 1.48 0 0 0 .62-.12 1.26 1.26 0 0 0 .45-.32 1.51 1.51 0 0 0 .28-.51 2 2 0 0 0 .06-.65zM28.37 50.83V46h3.25v.83h-2.31v1.25h1.92v.76h-1.92v2zm3.92 0V46h.94v4.84zm1.95 0V46h.94v4h2.47v.83zm7.94 0v-3.21L40.94 50h-.51l-1.25-2.39v3.21h-.94V46h1l1.43 2.76L42.13 46h1v4.84zm3.59 0V46H49v.83h-2.3v1.25h1.92v.76H46.7v2zM53 50v.83h-3.32V46H53v.83h-2.38V48h2v.75h-2V50zm3.57-2.75l-.18-.13a2.12 2.12 0 0 0-.31-.16 2.67 2.67 0 0 0-.39-.13 1.72 1.72 0 0 0-.43-.06 1 1 0 0 0-.58.14.47.47 0 0 0-.19.4.42.42 0 0 0 .07.25.62.62 0 0 0 .21.18 1.75 1.75 0 0 0 .34.14l.48.13q.35.09.65.2a1.75 1.75 0 0 1 .49.27 1.13 1.13 0 0 1 .32.39 1.3 1.3 0 0 1 .11.56 1.4 1.4 0 0 1-.15.65 1.23 1.23 0 0 1-.4.45 1.72 1.72 0 0 1-.57.25 2.87 2.87 0 0 1-.68.08 3.65 3.65 0 0 1-1.08-.16 3.32 3.32 0 0 1-1-.46l.42-.81a1.3 1.3 0 0 0 .22.16 3.33 3.33 0 0 0 .38.2 2.92 2.92 0 0 0 .48.17 2.19 2.19 0 0 0 .55.07q.78 0 .78-.5a.41.41 0 0 0-.09-.27.75.75 0 0 0-.25-.19 2.43 2.43 0 0 0-.4-.15l-.52-.15a4.43 4.43 0 0 1-.6-.21 1.58 1.58 0 0 1-.43-.27 1 1 0 0 1-.26-.35 1.22 1.22 0 0 1-.08-.48 1.5 1.5 0 0 1 .14-.65 1.32 1.32 0 0 1 .38-.48 1.72 1.72 0 0 1 .56-.29 2.33 2.33 0 0 1 .69-.1 2.68 2.68 0 0 1 .94.16 3.51 3.51 0 0 1 .75.38zm4.88-.44H59.9v4H59v-4h-1.58V46h4zm.61 4.02V46H63v4.84zM64.5 46l1.3 3.67L67.1 46h1l-1.89 4.84h-.79L63.49 46zm5.08 0h.83l1.84 4.84h-1l-.45-1.21h-1.66l-.45 1.21h-1zm1.09 3L70 47.06 69.3 49zm2.11 1.83V46h.94v4h2.48v.83z"/></g></g></g></g></svg>