<svg xmlns="http://www.w3.org/2000/svg" viewBox="0 0 638.77 152.01"><title>adobe-black</title><g data-name="Layer 1"><path d="M358.47 144.87H338c-.73-3.12.71-6.74-1.54-9.69-3.24 4.08-6.36 8.41-11.56 10.15-4 1.34-7.94 2.07-12.51 1.11a21.94 21.94 0 0 1-11.39-6.1 33.1 33.1 0 0 1-7.43-11.34 108.06 108.06 0 0 1-4-14.86 40.23 40.23 0 0 1-.77-8.13c-.11-5.66-.37-11.35 0-17 .72-9.93 3.36-19.47 9.22-27.6 3.34-4.64 7.84-8.6 13.78-9.91 2.51-.56 5.2-.33 7.8-.52 5.93-.43 10.08 2.35 13.15 7.16a1.62 1.62 0 0 0 .78.49c.36-.43 1-1.12.91-1.35-.93-1.71-1.12-3.17.22-4.86.49-.61.08-1.94.08-2.94v-29c0-1.41.43-2.89-.9-4.17a1.46 1.46 0 0 1 1.27-2.4c.87 0 1.72-.89 2.59-.9 5.83-.09 11.66 0 17.49-.05a2.35 2.35 0 0 1 2.54 2.32 26.64 26.64 0 0 1 0 3.49V138.2c.06 2.08.47 4.11.74 6.67zM334.76 98c-.44-4.59.59-10.29-.88-16a22.37 22.37 0 0 0-3.08-7.73c-3.09-4.4-8.23-5-12.25-1.67-3.33 2.73-4 6.73-5.62 10.19-1.21 2.61-1 6-1.14 9s.22 6.34-.1 9.46c-.48 4.62.94 9 1.16 13.55.08 1.58 1.52 3.05 1.85 4.67.67 3.3 3 5.33 5.35 7.2a6.21 6.21 0 0 0 4.83 1.24c3.62-1.1 6.75-3.31 7.82-7.23.95-3.47 2.13-6.93 2.06-10.62s0-7.36 0-12.06zm142-36.11c2.58-3.35 4.53-5.78 7.18-7.64a16.88 16.88 0 0 1 8.67-3.25c2-.14 4 .11 6-.05 4.1-.34 7.46 1.45 10.39 3.86a31.21 31.21 0 0 1 9.77 14.91c.71 2.21 2 4.27 2 6.67s1.71 4.58 1 7.08c2.16 7.28 1.3 14.79.79 22.06-.64 9.13-2.53 18.2-7.21 26.44-3.41 6-7.88 10.73-14.37 13.25a21.82 21.82 0 0 1-12.49 1.2c-6.48-1.24-9.75-5.69-13.16-10.36a14.52 14.52 0 0 0-1.31-1.32l-1.62 10a2.82 2.82 0 0 1-.78.2h-18.85c0-5.21-.77-10.47.21-15.39 1.08-5.44.72-10.77.74-16.12q.18-46 0-92c0-2.23.78-4.59-.61-6.73-.07-.11.27-.68.52-.76a12.65 12.65 0 0 1 3.58-1c5.33-.11 10.66-.07 16 0 3.1 0 3.55.49 3.56 3.8v18zm23.14 36.84h-.14c0-1.66.13-3.34 0-5s-.93-3.39-.91-5.07c.06-5.05-1.83-9.45-4-13.8-1.85-3.41-5.45-3.46-8.34-4.86-2.34 1-5 1.66-6.27 4.07-1.79 3.27-3.54 6.57-3.51 10.52.08 9.31.17 18.62 0 27.92-.09 4 1.5 7.34 3.12 10.7 1.36 2.82 6.09 5.52 8.25 4.73a13 13 0 0 0 6.81-4.79c2.22-3.23 3-6.89 3.74-10.42.96-4.55.87-9.32 1.26-14zM201.38 145c1-4.65 1.89-8.79 2.82-12.92.48-2.13 1.48-4.24 1.47-6.35 0-3.91 2.32-7.29 2.1-11.17 1.39-.9.84-2.33 1-3.58s.75-2.38.95-3.59a125.52 125.52 0 0 1 3.69-16.48c.6-2-.45-4.28 1.33-5.94C216 79 217 73 218.6 67.08c.81-3 1.5-6.09 2-9.15s1.54-5.8 2-8.67c.76-5.16 2.06-10.18 3.22-15.22s2-9.84 2.93-14.77c.34-1.78 1.41-2.29 3.13-2.28 8.49.05 17 0 25.54 0 .57 3.33 1.06 6.61 1.71 9.85s.9 6.38 1.87 9.24c.82 2.42.31 5 1.61 7.34 1.07 2 .44 4.78 1.25 7s.65 4.62 1.52 6.86a34.46 34.46 0 0 1 1.36 6.94c.38 2.35.38 4.82 1.07 7.06 1.45 4.68 1.82 9.57 3.06 14.25 1.08 4.08 1.8 8.25 2.65 12.34s1.54 8.44 2.42 12.58.79 8.37 2.64 12.38c.91 2 .3 4.67 1.11 7 1.48 4.29 1.46 8.95 3 13.25.3.82.37 2-1.3 2-7.13-.07-14.27 0-21.47 0-.42-2.73-.18-5.58-1.34-7.63-1.28-2.25-.27-4.66-1.6-6.89-.93-1.56-.73-4-1.06-6-.36-2.18-.76-4.37-1.16-6.56-.65-3.53-1-3.92-4.46-3.92h-17.5a2.74 2.74 0 0 0-3.08 2.35c-.5 1.84-.72 3.73-1.08 5.57-.83 4.13-1.4 8.32-2.6 12.39a45.7 45.7 0 0 0-1.27 7.48c-.34 2.77-.7 3.22-3.66 3.23-6.3-.1-12.62-.1-19.73-.1zm40.38-104.91c0 2.82.64 5-.16 6.29-1 1.65-.56 3.14-.85 4.68s-.77 3-1 4.58c-.41 3.18-.19 6.54-1.13 9.53-1.89 6-2.24 12.31-3.78 18.37a47.15 47.15 0 0 0-1 5.06c-.3 1.87 0 3.78-1 5.6-.44.79-.22 1.87 1.38 1.84 5.32-.1 10.65 0 16 0a1.51 1.51 0 0 0 1.56-2.19c-1.75-5.11-2.06-10.49-2.89-15.75-.44-2.82-1.77-5.58-1.11-8.55-2.26-2.14.24-5.52-2-7.66.31-2.77-.55-5.39-1-8.08-.53-3.49-.64-7-1.1-10.55-.07-.84-.86-1.53-1.92-3.17zM0 150.49V0h60.62c2.36.05 2.65.63 1.7 3-.58 1.42-1.09 3-1.72 4.27-1.45 2.91-2.49 6-3.86 8.9a135.45 135.45 0 0 0-6 15c-.43 1.3-1.42 2.41-1.94 3.69-2.47 6-4.73 12-7.32 17.94-3.48 7.85-7.07 15.71-10.33 23.65s-6.41 15.66-9.8 23.41c-3.57 8.17-6.9 16.47-10.3 24.7-2.93 7.09-6.35 14-8.73 21.36A35.48 35.48 0 0 1 0 150.49zM172.67 0v150.83c-1.92-4.31-3.45-7.65-4.89-11-1.27-3-2.52-5.95-3.66-9-2-5.33-4.48-10.46-6.39-15.83-1-2.75-2.29-5.38-3.51-8-2.82-6.16-5-12.62-7.88-18.7-3.33-7-5.58-14.34-9-21.25-2.11-4.27-3.84-8.73-5.55-13.17s-3.77-8.75-5.17-13.35c-1-3.35-3.1-6.36-4.45-9.63-2.17-5.26-4.39-10.5-6.44-15.81-1.33-3.44-3-6.75-4.53-10.11A17 17 0 0 1 109.82 2c-.19-.81-.52-2.14 1.19-2h.5zm198.09 99.75v-7.73c-.07-3.22 1.33-6.18 1.66-9.27a33.15 33.15 0 0 1 3.37-11.11c.89-1.81 2-3.5 3-5.26 3.77-6.74 9.63-11.14 16.48-14.22 2.09-.94 4.65-.89 7-1.12 1.65-.16 3.33 0 5 0 8.11-.3 14.74 2.79 20.5 8.41 5.14 5 8 11.16 10 17.85 1.14 3.94 2.22 7.94 2.06 12.14-.13 3.55 1.61 6.93 1 10.57-.49 3-.68 6-1 9.06-.33 2.85-.35 5.81-1.17 8.51a50 50 0 0 1-2.93 8.25c-5.11 10-11.7 18.45-23.85 20.21-3.2 1.89-6.91 1.48-10 .78-3.83-.86-7.8-1.43-11.49-3.54-7.73-4.41-12.61-10.78-15.55-18.95a104.22 104.22 0 0 1-3.25-13.18c-.99-4.15-.2-8.15-.83-11.4zm46-1.72c-.37-4.09.17-8.94-.79-13.86a71.52 71.52 0 0 0-3.13-10.24c-1.14-3.22-3.8-4.3-6.37-5.68a2 2 0 0 0-1.34-.09c-3.91 1.15-7 3.73-8.23 7.39a62.78 62.78 0 0 0-3.1 15.71c-.23 3.82.21 7.69-.12 11.49-.34 4 .85 7.72 1.15 11.59.33 4.22 2.22 8.07 4.48 11.6a6.76 6.76 0 0 0 3.78 2.75c1.78.41 4.13.52 5.6-.33a13.67 13.67 0 0 0 5.92-7.93 66.76 66.76 0 0 0 2.08-12.64c.31-2.96.07-5.99.07-9.79zM599.8 106h-41.68c-3.15 0-3.55.82-2.67 4.21.55 2.12.72 4.35 1.33 6.45A15.51 15.51 0 0 0 571.93 128a5.69 5.69 0 0 1 2.77.51 1.65 1.65 0 0 0 2.13 0 3.71 3.71 0 0 1 2.27-.49c4.42.41 8.41-1.33 12.51-2.45.63-.17 1.15-.83 1.13.3 0 2 1.13 3.56 1.19 5.58a24.53 24.53 0 0 0 1.56 7.79c.82 2.18.27 3.05-2.23 3.73-3.18.86-6.42 1.49-9.63 2.19-4.91 1.08-9.75.63-14.62.81-10 .36-18.25-3.19-25.22-10.38a34.28 34.28 0 0 1-9-17.29c-.58-2.74-1.58-5.42-1.91-8.18a72 72 0 0 1-.07-8.49c0-2.17-.08-4.34 0-6.5.32-7.45 1.5-14.63 4.74-21.53 3.56-7.58 6.43-12.9 12.18-16.87 4.73-3.27 9.89-6.14 16.09-5.76 2.16.13 4.33 0 6.5 0 6 0 10.95 2.54 15.36 6.38 3.68 3.2 6 7.31 8.17 11.61 1.08 2.16 1.2 4.49 1.9 6.71 3.08 9.88 1.74 20.03 2.05 30.33zm-33.39-16c3.16 0 6.32.06 9.48 0 2.5-.06 3.27-1.36 2.53-3.84a10 10 0 0 1-.62-3.22 18.3 18.3 0 0 0-2.88-10.32c-2.64-4.57-6.86-6-11.62-3.65-.69.34-1.71.53-2 1.09-1.62 3.14-4 5.8-4.75 9.55-.48 2.37-.43 4.74-1 7.05-.63 2.81-.37 3.29 2.32 3.35s5.71-.01 8.54-.01zM58.93 120.86c1.68-3.75 3.58-7.16 4.74-10.81 1-3.27 2.7-6.22 4-9.36 3.42-8.41 7.11-16.72 10.74-25 2.69-6.16 5.28-12.4 7.77-18.84 4.81 9 7.67 18.47 12.09 27.3a89.18 89.18 0 0 1 4.38 10.66c1.27 3.65 3.75 6.82 4.17 10.77 3.25 4.79 4.64 10.41 6.87 15.65 2.47 5.8 4.91 11.64 7.43 17.41 1.89 4.33 3.51 8.78 5.68 13.4h-24.55c-1.54 0-2-1.06-2.52-2.38-1.6-4-3.42-7.91-5-11.93-1.83-4.74-3.59-9.5-5.73-14.12-1-2.08-2-2.59-4-2.58-7.83.06-15.66 0-23.49 0-.89-.03-1.83-.12-2.58-.17zM625.17 22c7.47-.94 13.73 6.52 13.6 13.46a15.83 15.83 0 0 1-3.77 9.96 12.08 12.08 0 0 1-9.61 4.33 13.91 13.91 0 0 1-10.19-3.92c-2.73-2.9-4.57-6.33-4.46-10.6s2.47-7 5.12-9.87 5.92-3.57 9.31-3.36zm10.59 13.57c.29-3.42-1.33-6.13-3.46-8.51a9.77 9.77 0 0 0-7.16-2.9c-3.24 0-6.2 1.65-8.63 4.35-2 2.26-2.38 5-2.55 7.39a9.6 9.6 0 0 0 3 7.62 11.57 11.57 0 0 0 8 3.46c6.04.02 10.78-4.98 10.8-11.37z"/><path d="M619.76 28c2.48 0 4.48-.11 6.47 0 3 .2 4.75 2 4.53 4.39 0 .46 0 1.19-.31 1.34-3.09 1.71-.84 4-.39 5.82a9.83 9.83 0 0 1 .66 3.17 1.63 1.63 0 0 1-1 1.2c-.68.09-1.69.53-2-.75a34.85 34.85 0 0 0-1-4.07 4.25 4.25 0 0 0-1.33-1.92 1.68 1.68 0 0 0-2.63 1.36c0 1 .08 2 0 3a3 3 0 0 1-.74 1.66 3.44 3.44 0 0 1-1.66.73 2 2 0 0 1-.54-1.15V32.3z"/></g></svg>