<svg xmlns="http://www.w3.org/2000/svg" viewBox="0 0 99.41 23.66"><title>adobe-black</title><g data-name="Layer 1-2"><path d="M55.79 22.55H52.6c-.11-.49.11-1-.24-1.51a4.11 4.11 0 0 1-1.8 1.58 3.56 3.56 0 0 1-1.95.17 3.41 3.41 0 0 1-1.77-.95 5.15 5.15 0 0 1-1.16-1.76 16.82 16.82 0 0 1-.62-2.31 6.26 6.26 0 0 1-.12-1.27c0-.88-.06-1.77 0-2.65a8.23 8.23 0 0 1 1.43-4.3A3.66 3.66 0 0 1 48.53 8a8.46 8.46 0 0 1 1.21-.08 2.12 2.12 0 0 1 2 1.11.25.25 0 0 0 .12.08c.06-.07.16-.17.14-.21a.61.61 0 0 1 0-.76c.08-.09 0-.3 0-.46V3.19c0-.22.07-.45-.14-.65a.23.23 0 0 1 .2-.37c.14 0 .27-.14.4-.14h2.72a.37.37 0 0 1 .39.33 4.15 4.15 0 0 1 0 .54v18.61c.11.32.18.64.22 1.04zm-3.69-7.3a13.76 13.76 0 0 0-.1-2.49 3.48 3.48 0 0 0-.48-1.2 1.25 1.25 0 0 0-1.91-.26 3.85 3.85 0 0 0-.87 1.59 3.88 3.88 0 0 0-.18 1.4v1.47a13.66 13.66 0 0 0 .18 2.11c0 .25.24.47.29.73a2 2 0 0 0 .83 1.12 1 1 0 0 0 .75.19 1.66 1.66 0 0 0 1.22-1.13 5.85 5.85 0 0 0 .32-1.65c-.06-.57-.05-1.13-.05-1.88zm22.1-5.62a5.32 5.32 0 0 1 1.12-1.19 2.63 2.63 0 0 1 1.35-.51h.93a2.22 2.22 0 0 1 1.62.6 4.86 4.86 0 0 1 1.52 2.32 3.45 3.45 0 0 1 .31 1c0 .37.27.71.16 1.1a9.55 9.55 0 0 1 .12 3.43 9.55 9.55 0 0 1-1.12 4.11A4.4 4.4 0 0 1 78 22.6a3.4 3.4 0 0 1-1.94.19 3.3 3.3 0 0 1-2-1.61l-.2-.21-.25 1.56h-3.15a12.52 12.52 0 0 1 0-2.4 12.84 12.84 0 0 0 .12-2.51V3.3c0-.35.12-.71-.09-1 0 0 0-.11.08-.12a2 2 0 0 1 .59-.18h2.49c.48 0 .55.08.55.59v7zm3.6 5.73v-.78c0-.26-.14-.53-.14-.79a4.65 4.65 0 0 0-.66-2.14c-.29-.53-.85-.54-1.3-.76-.36.16-.78.26-1 .63a3.34 3.34 0 0 0-.55 1.64v4.35a3.59 3.59 0 0 0 .49 1.67c.21.44.95.86 1.28.74a2 2 0 0 0 1.08-.75 4.3 4.3 0 0 0 .58-1.62 17.71 17.71 0 0 0 .2-2.18zm-46.46 7.21c.16-.72.29-1.37.44-2a4.67 4.67 0 0 0 .23-1c0-.61.36-1.13.33-1.74.22-.14.13-.36.16-.56s.12-.37.15-.56a19.53 19.53 0 0 1 .57-2.56c.09-.31-.07-.67.21-.92.2-.93.35-1.86.6-2.78a14.43 14.43 0 0 0 .3-1.45c.08-.48.24-.9.31-1.35.12-.8.32-1.58.5-2.37s.31-1.53.46-2.3c.05-.28.22-.36.49-.35h4c.09.52.16 1 .27 1.53a11.86 11.86 0 0 0 .29 1.44c.13.38 0 .78.25 1.14s.07.74.19 1.09.1.72.24 1.07a5.36 5.36 0 0 1 .18 1.1 8.2 8.2 0 0 0 .17 1.1c.23.73.28 1.49.48 2.22s.28 1.28.41 1.92.24 1.31.38 2a8.55 8.55 0 0 0 .41 1.93c.14.31 0 .73.17 1.09.23.67.23 1.39.47 2.06 0 .13.06.31-.2.31h-3.34a3.69 3.69 0 0 0-.21-1.19c-.2-.35 0-.73-.25-1.07a2.9 2.9 0 0 1-.16-.93c-.06-.34-.12-.68-.18-1-.1-.55-.16-.61-.69-.61h-2.74a.43.43 0 0 0-.48.37c-.08.29-.11.58-.17.87-.13.64-.22 1.29-.4 1.93a7.11 7.11 0 0 0-.2 1.16c-.05.43-.11.5-.57.5-.98-.09-1.96-.09-3.07-.09zm6.29-16.33c0 .44.1.78 0 1s-.09.49-.13.73-.12.47-.16.71a8.72 8.72 0 0 1-.18 1.48c-.29.93-.35 1.92-.59 2.86a7.34 7.34 0 0 0-.16.79 2.43 2.43 0 0 1-.16.87c-.07.12 0 .29.21.29h2.49a.24.24 0 0 0 .24-.34 14.3 14.3 0 0 1-.45-2.45 3.51 3.51 0 0 1-.17-1.33c-.35-.33 0-.86-.31-1.19a4.52 4.52 0 0 0-.16-1.26c-.08-.54-.1-1.09-.17-1.64-.02-.16-.14-.26-.3-.52zM0 23.42V0h9.43c.37 0 .41.1.26.47s-.17.47-.27.66c-.23.45-.39.93-.6 1.39a21.08 21.08 0 0 0-.92 2.33c-.07.2-.22.38-.3.57-.38.93-.74 1.87-1.14 2.79-.54 1.22-1.1 2.44-1.61 3.68s-1 2.44-1.53 3.64-1.07 2.56-1.6 3.84c-.46 1.1-1 2.18-1.36 3.32a5.52 5.52 0 0 1-.36.73zM26.87 0v23.48c-.3-.67-.54-1.19-.76-1.71s-.39-.93-.57-1.4c-.31-.83-.7-1.63-1-2.46-.16-.43-.36-.84-.55-1.25-.44-1-.78-2-1.23-2.91s-.87-2.23-1.4-3.31c-.33-.66-.6-1.36-.86-2s-.59-1.36-.8-2.08c-.16-.52-.48-1-.69-1.5-.34-.82-.68-1.63-1-2.46-.21-.54-.47-1.05-.71-1.57a2.65 2.65 0 0 1-.21-.46c0-.13-.08-.33.19-.31h9.6zM57.7 15.53v-1.2a11.05 11.05 0 0 1 .3-1.45 5.16 5.16 0 0 1 .52-1.73c.14-.28.31-.54.47-.82a5.28 5.28 0 0 1 2.56-2.21 3.53 3.53 0 0 1 1.09-.17h.78a4.18 4.18 0 0 1 3.19 1.31A6.19 6.19 0 0 1 68.13 12a6 6 0 0 1 .32 1.89 12 12 0 0 1 .16 1.65c-.08.47-.11.93-.16 1.41a7.58 7.58 0 0 1-.18 1.32 7.78 7.78 0 0 1-.46 1.28C67 21.14 66 22.46 64.1 22.73a2.1 2.1 0 0 1-1.56.12 6.1 6.1 0 0 1-1.79-.55 5.3 5.3 0 0 1-2.42-2.95 16.22 16.22 0 0 1-.51-2.05c-.14-.65-.02-1.3-.12-1.77zm7.16-.27a18.43 18.43 0 0 0-.12-2.16 11.13 11.13 0 0 0-.49-1.59c-.18-.5-.59-.67-1-.88a.31.31 0 0 0-.21 0 1.84 1.84 0 0 0-1.28 1.15 9.77 9.77 0 0 0-.48 2.44v1.79a10.85 10.85 0 0 0 .18 1.8 4 4 0 0 0 .7 1.81 1.05 1.05 0 0 0 .59.43 1.32 1.32 0 0 0 .85-.05 2.13 2.13 0 0 0 .92-1.23 10.39 10.39 0 0 0 .32-2v-1.52zm28.49 1.24h-6.49c-.49 0-.55.13-.42.66.09.33.11.68.21 1A2.41 2.41 0 0 0 89 19.92a.89.89 0 0 1 .43.08.26.26 0 0 0 .33 0 .58.58 0 0 1 .35-.08 5.44 5.44 0 0 0 1.95-.38c.1 0 .18-.13.18 0s.18.55.19.87a3.82 3.82 0 0 0 .24 1.21c.13.34 0 .47-.35.58s-1 .23-1.5.34a12.43 12.43 0 0 1-2.28.13 5 5 0 0 1-3.92-1.62 5.34 5.34 0 0 1-1.4-2.69c-.09-.43-.25-.84-.3-1.27a11.21 11.21 0 0 1 0-1.32v-1a8.58 8.58 0 0 1 .74-3.35 5.87 5.87 0 0 1 1.9-2.63 4 4 0 0 1 2.5-.9h1a3.57 3.57 0 0 1 2.39 1 5.65 5.65 0 0 1 1.27 1.81 6.62 6.62 0 0 1 .3 1 17.25 17.25 0 0 1 .33 4.8zm-5.2-2.5h1.48c.39 0 .51-.21.39-.6a1.56 1.56 0 0 1-.1-.5 2.85 2.85 0 0 0-.45-1.61 1.27 1.27 0 0 0-1.81-.57c-.11.05-.27.08-.31.17a5.65 5.65 0 0 0-.74 1.49c-.07.37-.07.74-.16 1.1s-.06.51.36.52zM9.17 18.81a16.58 16.58 0 0 0 .74-1.68c.16-.51.42-1 .62-1.46.53-1.31 1.11-2.6 1.67-3.89.42-1 .82-1.93 1.21-2.93.75 1.4 1.19 2.87 1.88 4.25a13.88 13.88 0 0 1 .71 1.66 7.71 7.71 0 0 1 .65 1.68 13.63 13.63 0 0 1 1.07 2.44c.38.9.76 1.81 1.16 2.71.29.67.55 1.37.88 2.09h-3.85c-.24 0-.31-.16-.39-.37-.25-.62-.53-1.23-.78-1.86s-.56-1.48-.89-2.2a.58.58 0 0 0-.62-.4H9.57zM97.3 3.43a2.05 2.05 0 0 1 2.12 2.09 2.46 2.46 0 0 1-.59 1.55 1.88 1.88 0 0 1-1.5.67 2.16 2.16 0 0 1-1.59-.61A2.27 2.27 0 0 1 95 5.48a2.3 2.3 0 0 1 .8-1.54 1.71 1.71 0 0 1 1.5-.51zm1.65 2.11a1.74 1.74 0 0 0-.54-1.32 1.52 1.52 0 0 0-1.11-.45 1.81 1.81 0 0 0-1.74 1.83A1.49 1.49 0 0 0 96 6.77a1.8 1.8 0 0 0 1.25.54 1.71 1.71 0 0 0 1.68-1.77z"/><path d="M96.45 4.36h1c.47 0 .74.31.71.68v.21c-.48.27-.13.62-.06.91a1.53 1.53 0 0 1 .1.49.25.25 0 0 1-.16.19c-.11 0-.26.08-.31-.12a5.42 5.42 0 0 0-.16-.63.66.66 0 0 0-.21-.3.26.26 0 0 0-.41.21v.47a.47.47 0 0 1-.12.26.54.54 0 0 1-.26.11.31.31 0 0 1-.08-.18v-2.3z"/></g></svg>