<svg xmlns="http://www.w3.org/2000/svg" viewBox="0 0 1584.17 857.92"><title>ali-black</title><path d="M770.72 107.31h113.22a16.63 16.63 0 0 1-1.34 2.5 54.51 54.51 0 0 0-11.67 28.56c-1.22 11-2.61 22-3.76 33-1 9.25-1.87 18.52-2.51 27.8-.91 13.13-1.62 26.27-2.29 39.41-.64 12.34-1.12 24.69-1.67 37 0 .64 0 1.28-.07 1.93-1.31 46.07-1.4 92.15-.89 138.24q.51 46.24 1.11 92.48.45 37.09.91 74.17a106.4 106.4 0 0 0 1.08 11.26c2.84.21 5.37.54 7.9.55 18 0 36 .08 54 0 8.35 0 16.71-.08 25-.6 23-1.42 45.57-5 66.73-14.76a102.75 102.75 0 0 0 34.71-25.43c.73-.83 1.49-1.62 2.18-2.38.34.17.5.2.57.29a.63.63 0 0 1 .13.44q-8.39 35.08-16.81 70.14a11.72 11.72 0 0 1-.86 1.9c-1.43.08-2.85.22-4.27.23-11.4.06-22.8.08-34.2.15q-90.56.54-181.12 1.09-60.69.34-121.39.54h-6.11c-.66-1.53-1.35-2.95-1.89-4.41q-14.33-38.81-28.63-77.62-17.31-46.94-34.64-93.88c-5.66-15.35-11.19-30.74-16.95-46-2.7-7.19-.95-6.93-9.74-6.93H434.63c-2.41 0-4.84.18-7.22 0-3.73-.36-5.78 1.08-7.31 4.6-5.94 13.68-12.19 27.23-18.34 40.82-8.33 18.41-16.79 36.77-25 55.25-5.91 13.34-12.13 26.54-16.84 40.4A263.37 263.37 0 0 0 348.15 585c-1.21 8.41-2.13 16.92-.37 25.4.58 2.82 1.43 5.58 2.15 8.37.23.89.43 1.79.71 3a24 24 0 0 1-3.51.39c-4.65-.2-9.29-.52-13.93-.76-2.4-.12-4.81-.17-7.22-.22-14.76-.33-29.53-.77-44.29-.92-9.28-.1-18.58-.51-28.47.77 1.29-1.72 2.19-3 3.15-4.2 10.25-13 20.72-25.78 30.69-39a440.6 440.6 0 0 0 29.68-45.57c12-20.85 23.14-42.21 33.87-63.76 23.82-47.82 47.22-95.85 69.56-144.39 17.58-38.18 34.36-76.71 49.68-115.85 7.54-19.26 14.88-38.61 20.52-58.54 1.79-6.32 3.56-12.63 3.63-19.31a35.4 35.4 0 0 0-3.39-15.36c-.79-1.72-1.59-3.45-2.59-5.61a16.23 16.23 0 0 1 3-.52c6.57.21 13.14.48 19.71.74h.48c15.08.29 30.12 1.89 45.23 1.08 8.17-.44 16.35-.68 24.53-1 1.72-.06 3.46.14 5.3.22.55 1.63 1.1 3 1.45 4.33 9 36 19.3 71.53 30.13 107 10.35 33.9 21.41 67.57 32.93 101.08q21.2 61.66 44.83 122.44c13.8 35.43 28.23 70.6 43.79 105.29 9.45 21.08 19.22 42 30.05 62.45.81 1.52 1.36 3.24 3.1 4.54a16.91 16.91 0 0 0 1.71-2.31 65.25 65.25 0 0 0 6.8-22.78c.79-8.14 1.42-16.29 2-24.45q1.34-19.2 2.49-38.42c.39-6.25.69-12.5 1-18.75.47-11.06.87-22.13 1.32-33.2.54-13.15 1.23-26.29 1.65-39.44q.8-25 1.24-50.07.64-33.23 1.08-66.46c.2-14.77.45-29.54.37-44.31-.11-20.71-.34-41.42-.83-62.12q-.48-20.45-1.87-40.88a236.61 236.61 0 0 0-4.59-35.27c-2.38-10.76-6-21-13.34-29.5a9.34 9.34 0 0 1-.86-1.82zM526.2 171.25c-.94 1.6-1.66 2.61-2.17 3.72q-6.17 13.31-12.28 26.66L460.2 314q-10 21.87-20 43.75c-.58 1.28-1.53 2.49-.91 4 4.35.94 116.44 1.41 147.76.6 1.24 0 2.48-.28 3.81-.44a12.1 12.1 0 0 0 0-2.61c-1.64-6.24-62.8-184.61-64.66-188.05zm566.38-63.33c10.71-.18 21.05 1.62 31.75.66a13.12 13.12 0 0 0-.42-3.07 99.85 99.85 0 0 0-15.64-25.84 1.84 1.84 0 0 0-.56-.39c-5.3.43-10.39 1.17-15.47 1.17a32.79 32.79 0 0 1-26.44-12.59 77 77 0 0 1-7.31-11.28c-4.84-8.69-9.45-17.51-15.15-25.7A101.8 101.8 0 0 0 1019.44 6c-2.58-1.86-5.31-3.51-8.19-5.39 1.19-.84 2.31-.47 3.32-.48 4.66 0 9.32.12 14-.05a119.61 119.61 0 0 1 29.59 3 146.8 146.8 0 0 1 32.4 10.51c9.91 4.7 18.4 11.14 24.79 20.1a60.58 60.58 0 0 1 6 10.36 23.52 23.52 0 0 1 .1 19.19c-1.47 3.54-3.28 6.94-5.09 10.73a32.6 32.6 0 0 0 1.87 3 98.25 98.25 0 0 1 15.12 27.79c.26.76.59 1.49.89 2.24a2.81 2.81 0 0 0 2.58 1.85c1.12.08 2.24.11 3.37.11 10 0 19.92.11 29.87-.11 8.17-.18 16.34-.77 24.89-1.2a18.78 18.78 0 0 1-.55 2.93 229.54 229.54 0 0 0-11.19 51.59 20.12 20.12 0 0 1-.36 2.38c-1.92 8.28.57 15.8 3.88 23.18 2.12.15 2.81-1.55 3.79-2.7a71.29 71.29 0 0 1 13.35-12.45 85.16 85.16 0 0 1 10.75-6.35c2.33-1.17 3.71-2.52 4.31-5.2a51.82 51.82 0 0 1 9.39-20.39c8.32-10.84 19.41-16.88 32.82-19.19 7.84-1.35 15.34-.28 22.76 2 5.67 1.74 11.2 3.93 16.88 5.64 10.73 3.24 13.41 3.56 25.68 2.81a30 30 0 0 1-3.22 11.92c-8.2 17-21.07 28.95-38.84 35.33-8.59 3.09-17.59 3.17-26.61 2.07-11.76-1.43-22.74-5.33-33.34-10.45-1-.48-2-.88-3.17-1.35a59.51 59.51 0 0 0-15.66 10.21 83.72 83.72 0 0 0-14.92 17.57 8.93 8.93 0 0 0-1.41 6.37 127.6 127.6 0 0 1-8.49 63.71 30.21 30.21 0 0 0-2.27 11.67c.18 30.83.2 61.66.36 92.49.07 14 .4 27.93.5 41.9a15.36 15.36 0 0 0 1.94 7.32 136.2 136.2 0 0 1 12.67 33.13 121.94 121.94 0 0 1-4.31 70.55c-2.07 5.72-4.66 11.26-7.24 16.77a18.16 18.16 0 0 0-1.87 8.32c.16 7.71-.06 15.42.24 23.12.29 7.2.76 14.43 1.69 21.57 1.35 10.3 6.25 19.13 12.44 27.29l2.8 3.69c-.15.33-.18.51-.28.59a.8.8 0 0 1-.46.13H1089.1c-.63 0-1.25-.11-2.35-.22a18.72 18.72 0 0 1 1.44-2.56c9.08-11.23 13.48-24.2 14.88-38.46.87-8.95 1.59-17.89 1.89-26.88.5-14.75 1.29-29.5 1.92-44.25q.53-12.27.93-24.54c.38-11.87.76-23.74 1-35.62.34-13.64.58-27.28.86-40.92a17.46 17.46 0 0 0-1-6.6 124.77 124.77 0 0 1-7.82-50.53 33.49 33.49 0 0 0-2.75-14.93 120.08 120.08 0 0 0-18.78-31.23c-.61-.74-1.15-1.53-1.84-2.45-1.69.85-3 1.41-4.18 2.11a36.63 36.63 0 0 1-18.34 5c-21.36.23-39-8.08-53.1-23.85-4.92-5.49-9.19-11.55-13.84-17.29A66.79 66.79 0 0 0 950 249c-1.25-.28-2.47-.66-4.07-1.09 3.6-1.83 7.35-2.22 10.94-2.91 7.86-1.52 15.81-2.47 23.8-3.21a228.58 228.58 0 0 1 32.71-.52c14.1.71 28.09 2.55 41.69 6.58 9.7 2.87 18.49 7.31 25.49 14.82 5.47 5.87 8.71 12.62 8.36 20.84a28 28 0 0 1-3 11.08c-.69 1.44-1.47 2.83-2.27 4.34 1.76 3.71 4.82 6.42 7.07 9.69s4.42 6.31 6.67 9.44 3.69 7.06 6.47 10.08c1.47-2.3 6.44-15.59 6.57-17.56.07-1.12 0-2.25 0-3.37-.07-18.31-.06-36.61-.25-54.92-.17-16.7-.43-33.39-.92-50.08-.34-11.54-.88-23.1-1.8-34.61-.87-10.86-2-21.71-4.49-32.36a104.52 104.52 0 0 0-8.25-23c-.65-1.43-1.37-2.82-2.14-4.32zM1181 514.27a19.93 19.93 0 0 0 1.47-2.94 119.48 119.48 0 0 0 3.85-35.17c-.1-2.08-.42-4.14-.59-6.21a105 105 0 0 0-4-20.68c-.17-.58-.88-1-1.54-1.72-.85 5.45-.25 60.23.81 66.72zM43.77 689.43h33.95c.67 1.52 1.34 2.95 1.93 4.41 9.38 23.36 18.69 46.75 28.15 70.07a215.86 215.86 0 0 0 15 30.63c1.81 3 3.8 5.9 5.64 8.75a2.19 2.19 0 0 1-.2.62.6.6 0 0 1-.41.2q-15.4.08-30.8.13a25.64 25.64 0 0 1-2.65-.29l-17.89-46.36c-3.86-.85-32.74-1-37.76-.26a4.29 4.29 0 0 0-.84 1.11c-2.74 8.2-5.5 16.4-8.14 24.64a46.39 46.39 0 0 0-1.2 6.12 14.54 14.54 0 0 0 3.25 12.59c.49.57.88 1.21 1.41 1.95-4 .66-27.72.77-33.21.16a12.26 12.26 0 0 1 1.21-2c6.57-7.2 11.31-15.59 15.37-24.32 10-21.52 19.26-43.36 26.78-65.89 1.11-3.33 1.79-6.81 2.76-10.2a12.51 12.51 0 0 0-1.67-10.58 13.93 13.93 0 0 1-.68-1.48zm28 57.38c0-3.44-2-6.23-3.13-9.3s-2.56-6.22-3.87-9.32-2.53-6.23-3.94-9.28-2.12-6.25-4.61-9.29a22.28 22.28 0 0 0-1.57 2.82Q49 728.27 43.4 744.12a10.86 10.86 0 0 0-.26 2.64c4.15 1.08 24.35 1.11 28.64.05zm335.01 46.91c9.8.89 18.87 1.31 27.47-2.77 4.64-2.2 7.94-5.91 10.64-10.19a17.13 17.13 0 0 1 3.55-4.49L443 803.75a22.8 22.8 0 0 1-3.31.5h-68.37c-.61 0-1.22-.13-2.4-.27.94-1.16 1.58-2 2.26-2.79a20.61 20.61 0 0 0 5.22-12.65c.33-6.41.55-12.82 1.06-19.21 1.24-15.7.92-31.43.89-47.15a105.28 105.28 0 0 0-.93-16.8c-1-6.25-2.93-11.83-8.65-15.53 4.49-.9 27.28-1.13 47.51-.51-1.36 1.26-2.4 2.32-3.53 3.27-4.24 3.52-6 8-6.19 13.51-1.07 25.83-.39 51.67-.63 77.5-.05 3.17.51 6.38.85 10.1zm727.54 10.35h-43.38c6.45-4.86 7.86-11.23 8.19-18.19 1.15-24.38.74-48.78.75-73.17 0-4.16-.49-8.32-.88-12.47a16.56 16.56 0 0 0-5.27-10.89h39.61a14.75 14.75 0 0 1-1.27 1.95 14.41 14.41 0 0 0-3.74 9.65c-.28 7.21-.75 14.43-.8 21.64-.15 20.71-.15 41.41-.15 62.12a53.87 53.87 0 0 0 .52 7.19c.58 4.38 1.92 8.45 6.42 12.17zm-459.03.12c-6.06.06-11.16.31-16.62-.18l-1.46-7.93a19.31 19.31 0 0 0-3.06 1.35 45.17 45.17 0 0 1-23.56 7.49c-10.18.48-18.32-3.85-24.22-12.25a39.26 39.26 0 0 1-6.09-14.56 54 54 0 0 1 2.51-32.11c4.7-11.68 13-19.23 25.41-22.1a100.49 100.49 0 0 1 22.84-3c1.72 0 3.44-.2 5.47-.33.13-1.75.34-3.15.32-4.54-.08-8-.27-16.05-.31-24.08 0-4.35-.32-8.64-2.14-13 5.45-2.08 11.07-2 16.53-3.1 1.09 1.82.53 3.6.47 5.3-.11 3.21-.5 6.4-.56 9.61-.38 23.44-.83 46.87-1 70.31-.06 9.14.44 18.29.93 27.42.3 5.3.98 10.57 4.54 15.7zM657 760.77h.35v-3.85c0-6.1.11-12.2.06-18.29a36.2 36.2 0 0 0-.65-5.73c-.77-4.52-3-6.86-7.53-7.49a31.78 31.78 0 0 0-7.2-.14c-14.7 1.32-23.66 9.68-27.37 21.94-2.19 7.23-2.25 14.57-1.57 21.93a38.06 38.06 0 0 0 3.84 13.34c5.51 11.18 19.05 17.16 30.84 13.7 4-1.18 6.79-3.65 7.94-7.64a28.84 28.84 0 0 0 1.06-7.08c.16-6.9.15-13.8.23-20.69zm-383.77-40.24a21.2 21.2 0 0 0 .45-3.14c-.17-8.66-.44-17.32-.59-26-.07-4.19-.28-8.32-2.18-12.45 5.45-2.11 11.1-1.77 16.47-3.2 1.11 2.14.61 4.08.57 5.94-.23 9-.64 17.95-.8 26.93-.32 17.64-.64 35.28-.72 52.93 0 8.49.36 17 .82 25.48.31 5.73.8 11.51 4.46 16.91a114.92 114.92 0 0 1-16.34.17l-1.56-8a12.25 12.25 0 0 0-2.65 1c-7.19 5-15.37 7.31-23.94 7.77a26.26 26.26 0 0 1-20.51-7.79c-5.72-5.63-8.67-12.66-10.13-20.35a55.69 55.69 0 0 1 .76-24.79 45.87 45.87 0 0 1 6-13.57 32.44 32.44 0 0 1 16.29-12.93 63.9 63.9 0 0 1 15.4-3.56c5.09-.55 10.22-.73 15.32-1.09.82.01 1.65-.11 2.88-.26zm.78 39.9c0-6.77.06-13.67 0-20.57a41.49 41.49 0 0 0-.73-7.16c-.89-4.68-3-6.71-7.65-7.33a31.32 31.32 0 0 0-6.72-.12c-12.58 1.08-22 7-26.56 19a48.42 48.42 0 0 0 .31 36.19c5.1 12.63 15.92 17.61 28.62 16.38 7.26-.7 11.17-5 12-12.22.07-.64.08-1.28.1-1.92.16-7.38.39-14.75.62-22.25zm610.76-84.61c-.06 9.77 0 18.88-.62 28-.71 10-.83 23.29.12 26.92 1.68-.58 2.27-2.21 3.34-3.29 8.83-8.93 19.39-12.15 31.62-9.26a21.61 21.61 0 0 1 6.47 3.08c4.87 3.13 6.79 7.94 7 13.53.16 5 .28 9.95.27 14.92q0 20.7-.14 41.41c0 4.39.44 8.64 3 12.4-3.56 1-11.19 1.09-15.76.11-.08-1.16-.26-2.41-.25-3.65.13-12 .4-24.06.42-36.1 0-7.22-.29-14.43-.59-21.65a28.71 28.71 0 0 0-1.07-6.15c-1.49-5.55-7.21-10.09-13.47-10.84h-.48c-11-1-17.15 3.11-19.79 13.79a68.27 68.27 0 0 0-2.07 15.21c-.19 13.31 0 26.64.28 40 .06 3.15 1 6.29 1.52 9.45-3 .9-12 1-17.5.19.15-.89.28-1.78.47-2.66a113 113 0 0 0 2.24-17.23c1.79-31.75.83-63.53.84-95.29 0-3.49-.64-7-1-10.67 4.58-1.51 9.57-1.21 15.15-2.22zm109.65 182.1h-19.81c3.33-6.08 3.71-12.62 3.88-19.12.38-14.43.73-28.87.68-43.3-.06-20.37-.48-40.74-.77-61.11 0-3.37-.14-6.74-2.12-10.2 4.69-.51 9-1.49 13.41-1.26 1.71 2.56 0 5.55 1.37 8 1.5.67 2.34-.56 3.38-1.2 3.27-2 6.4-4.3 9.82-6 11.42-5.64 22.47-1.63 29.38 4.79a36.4 36.4 0 0 1 9.11 13.42c3.9 9.81 4.89 19.89 2.18 30.16-3.75 14.24-13 23.65-26.36 29.19a55.46 55.46 0 0 1-21.57 4.09c-6.09 0-6.15.13-6.21 6.23q-.12 12.51-.13 25 0 3.61.15 7.22c.19 4.68.58 9.31 3.61 14.09zm-4.55-95.48c.3 6.91.57 15.39 1.05 23.86.35 6.25 2.73 9.46 8.85 11 7.69 1.93 15.3 1.44 22.16-3.07 6.14-4 9.08-10.12 10.57-17.1s1-14-.32-21a38 38 0 0 0-6-15.06c-5.64-7.94-13.17-11.92-23-11.09-5.3.44-9.06 2.89-10.8 8.06a28 28 0 0 0-.92 3.22c-1.35 6.47-1.46 13.03-1.59 21.17zm-850.59 41.42c3.61-17.4 2.77-35.06 3-52.65 0-3.69 0-7.38-.07-11.07-.08-6.06.43-12.17-2.13-18.3 4.64-1.56 9.18-.46 13.28-1.92 2.21 3.33.94 7 2.32 10.15 2-.41 2.73-2 3.8-3.08a33.84 33.84 0 0 1 16.52-9.43 29.41 29.41 0 0 1 13.85-.24 18.6 18.6 0 0 1 13.43 12 30.1 30.1 0 0 1 1.9 10.83q.07 25.76.28 51.52c0 4.15-.31 8.36 2.44 12.44-5.75.19-10.82.25-15.92 0-.91-2-.6-3.76-.57-5.48.25-16.21.62-32.41.78-48.62a67.49 67.49 0 0 0-.91-11.48c-1.17-7.16-4.42-10.21-11.45-11.74a26.66 26.66 0 0 0-14.66 1.21 13.9 13.9 0 0 0-9.34 9.61 40.23 40.23 0 0 0-1.56 9c-.85 16.83-.18 33.68-.14 50.52 0 2.17.78 4.34 1.19 6.52-3.22.8-10.42.93-16.04.21zM1147 722.15c.31-.35.39-.52.52-.58a4.61 4.61 0 0 1 1.34-.47c3.81-.31 7.63-.58 11.58-.87 1.86 3 .19 6.78 2.16 9.66 1.92-.18 2.59-1.84 3.68-2.93a33.32 33.32 0 0 1 25.08-10.25c13.34.22 19.68 10.43 20.14 19.23.27 5.13.47 10.26.52 15.39.13 13.32.15 26.65.22 40a29.32 29.32 0 0 0 1.53 12.24c-3.32.93-8.94 1.08-15 .36a19 19 0 0 1-.45-3.1c.15-11.87.41-23.75.51-35.62.07-8.33.77-16.69-.53-25a27.48 27.48 0 0 0-1.39-5.57 11.83 11.83 0 0 0-8.73-7.52 27.79 27.79 0 0 0-14.73.35c-6.18 1.8-10.52 5.73-11.4 12.31a172.68 172.68 0 0 0-1.57 19.63c-.22 11.55-.09 23.11.11 34.67.06 3.3.91 6.58 1.42 10H1146a69.26 69.26 0 0 0 1.16-7c.7-10.56 1.45-21.12 1.85-31.69.29-7.69.1-15.41.08-23.11.03-6.82.34-13.72-2.09-20.13zm305-.61a10.67 10.67 0 0 1 1.78-.49c3.94-.38 7.89-.72 12-1.1-.14 5.53-.3 10.62-.38 15.71-.3 18.93-.62 37.85-.81 56.78-.05 5.37.53 6.93 3 11.75h-13.48a2.25 2.25 0 0 1-2.37-2.47c0-1.44 0-2.89-.06-4.33s-.12-3.13-.18-4.68c-2.24-.26-2.66 1.46-3.49 2.48-4 5-8.9 8.87-15.25 10.33-6.52 1.49-13.07 1.61-19.26-1.44-5.47-2.69-9.12-6.79-10.26-13.06-1.83-10-1.77-20.08-1.41-30.2.41-11.54.53-23.09.67-34.64a26 26 0 0 0-.9-4.87c3.22-.39 6.49-.86 9.79-1.15 2-.18 2.9.68 3.09 2.79a41.48 41.48 0 0 1 .07 4.33c-.25 15.24-.57 30.48-.74 45.72a47.2 47.2 0 0 0 .77 9.56c1.68 8.55 7.94 13.94 16.26 14.51 10.27.71 16.94-4.22 19.57-12.17a40.39 40.39 0 0 0 2-11.78c.27-15.08.21-30.17.2-45.25a59 59 0 0 0-.61-6.33zm-860 82.6c-5.25.18-10.32.29-15.38 0-1.79-3.87-.9-8.2-3.34-12.08-1.27 1.63-2.34 3-3.39 4.34-9 11.72-27.4 12.47-37.45 2.07a16.41 16.41 0 0 1-5-12.11 15.56 15.56 0 0 1 4.45-10.84 30.08 30.08 0 0 1 8.94-6.44c7.37-3.55 14.77-7 22.12-10.63a63.08 63.08 0 0 0 6.31-3.49 10.28 10.28 0 0 0 4.78-7.44 41.4 41.4 0 0 0-1.5-18.52 10.14 10.14 0 0 0-8.24-7.27 21 21 0 0 0-9.07.15c-4.27 1-6.93 3.82-8.81 7.57-1.22 2.44-2.26 5-3.7 7.28-2.26 3.62-5.71 4.58-9.6 3a5.12 5.12 0 0 1-3.31-6.16 13 13 0 0 1 6.78-9.45 36.31 36.31 0 0 1 7.52-3.13c8.59-2.5 17.42-2.48 26.25-2.13a38.58 38.58 0 0 1 7.11 1c6.1 1.42 9.72 5.34 10.17 12.87a101.28 101.28 0 0 1-.11 13.48c-1 12.83-.85 25.67-.66 38.51a43.67 43.67 0 0 0 1.17 10c.8 3.02 2.41 5.86 3.96 9.42zm-18.37-45.41a11.64 11.64 0 0 0-2.5.27c-6.1 2.45-12.25 4.79-18.22 7.52a25.92 25.92 0 0 0-6.61 4.7c-3.67 3.41-4.8 8-4.41 12.76.45 5.39 3.38 9.18 8.53 11.23 3 1.17 6 1.12 9 1 6.26-.34 10.47-3.58 12.68-9.41a27.17 27.17 0 0 0 1.81-9.88v-14c-.06-1.26-.21-2.51-.32-4.19zm1010.29-11.86a10.62 10.62 0 0 1-6.35 2.34c-5.43.39-10.87.73-16.32.94-4.81.18-9.63.05-14.44.23-3.36.13-6.71.49-10 .86-1.92.21-2.51.76-2.75 2.72-1.16 9.61-.06 18.89 4.55 27.53 7.6 14.27 24.57 16.24 34.95 11.44 2.32-1.07 4.46-2.52 6.67-3.82.79-.46 1.55-1 2.36-1.49 1.16 2.13.32 3.85-.61 5.23a22.75 22.75 0 0 1-4.7 5.39 37.71 37.71 0 0 1-30.39 7.4c-12-2.06-19.62-9.69-23.85-20.78a56.77 56.77 0 0 1-3.19-28.36 50.64 50.64 0 0 1 4-14.79c5.19-11.13 13.83-17.69 26-19.9a38.62 38.62 0 0 1 16.21.14c8.88 2.16 15.32 7.14 17.68 16.4a23.26 23.26 0 0 1 .18 8.52zm-47.66-.58a11.21 11.21 0 0 0 2.44.6c7 0 14.07 0 21.1-.1a19.16 19.16 0 0 0 4.23-.8c3.91-1 5.66-3.41 5.11-7.37a16.42 16.42 0 0 0-4.82-9.71c-3-2.9-6.57-4.63-10.8-4.21a16.53 16.53 0 0 0-11.78 6.62 31.2 31.2 0 0 0-5.57 12.1 11.1 11.1 0 0 0 .09 2.87zm-789.73 40.79c-.14 5.61-2.85 9.13-6.65 11.76-10 6.92-21.1 9.18-32.95 6.08-7.45-1.95-13.06-6.69-17.23-13.11a44.36 44.36 0 0 1-6.7-20.37c-.8-8.65-.54-17.31 2.44-25.67 4.84-13.56 14.11-21.74 28.51-24.08 7.17-1.16 14.1-.86 20.73 2.1 8.26 3.69 12.36 10.4 13 19.27.29 3.93-.35 4.61-4.26 5.68a11.88 11.88 0 0 1-2.35.46c-5.44.34-10.88.73-16.32.93-5 .18-10 .07-14.92.25-3.2.12-6.38.55-9.58.81a2.94 2.94 0 0 0-3 2.6 18.17 18.17 0 0 0-.38 2.37 51.81 51.81 0 0 0 3.22 21.73c7.45 18.94 27.91 20.46 39.15 13.82 2.34-1.37 4.58-2.9 7.29-4.63zm-47-40.67a12.17 12.17 0 0 0 2.35.49c6.89 0 13.77.06 20.66-.08a21.68 21.68 0 0 0 5.65-1c2.93-.87 4.36-3.09 4.31-6.17-.1-6.36-5.21-13-11.4-14.52-5.66-1.44-10.44.51-14.44 4.4-4.14 4-6.3 9.18-7.29 14.83a9.23 9.23 0 0 0 .15 2.05zm-181.61 40.87a11.73 11.73 0 0 1-4.62 10c-11.6 9.12-24.47 11.62-38.36 6.33-7.36-2.8-12.37-8.5-15.75-15.52a48.9 48.9 0 0 1-4.82-19.46c-.31-7.89 0-15.7 2.74-23.25C462 732 471.21 724 485.42 721.69a38.32 38.32 0 0 1 18.5 1.18c8.71 2.86 14.6 9.64 15.36 20.59.23 3.4-.35 4.42-3.78 5a118.91 118.91 0 0 1-14.78 1.6c-6.41.31-12.84.12-19.25.3-3.2.09-6.39.46-9.58.82-2.19.25-2.85.81-3.18 2.93a35.07 35.07 0 0 0-.33 5.75 49.43 49.43 0 0 0 3.62 18.8c7.26 17.24 26.06 19.59 37.42 13.76 2.81-1.42 5.45-3.28 8.5-5.14zm-46.84-41a16 16 0 0 0 3.1.61c6.56 0 13.13 0 19.69-.11a22.2 22.2 0 0 0 5.65-1c3.43-1 4.86-3.3 4.43-6.95a16 16 0 0 0-8.49-12.64 11.62 11.62 0 0 0-8.31-1.33c-9.01 1.92-16.15 11.14-16.06 21.46zM804 790.31l1.87 2.69c4 5.68 9.53 8.42 16.3 8.87a32.66 32.66 0 0 0 11-.89c7.76-2.14 11.62-8 11.27-16.3a15.12 15.12 0 0 0-5.44-11.47 67 67 0 0 0-7.79-5.59c-5.07-3.08-10.31-5.89-15.41-8.92a28.53 28.53 0 0 1-4.6-3.45c-6.78-6.18-7.73-14.48-4.9-22.52 1.45-4.12 4.49-7 8.27-9a27.83 27.83 0 0 1 12.43-3.68c6.57-.22 13.16-.07 19.73.05a27 27 0 0 1 4.72.93c1.36 3.75.46 7.34.6 11.83-1.69-1.61-2.63-2.62-3.69-3.5-5.86-4.91-12.41-7.13-20.08-5.26-8.59 2.1-12.28 11.48-7.71 19.05a28 28 0 0 0 6.54 6.95 98.78 98.78 0 0 0 9.61 6.39c3.12 2 6.36 3.75 9.48 5.71a52.41 52.41 0 0 1 4.67 3.39c10.06 8 9 18.77 4.36 26.74-3.62 6.24-9.18 10.2-15.79 12.77a32.82 32.82 0 0 1-10.78 2.28c-6.77.25-13.48.06-20-2.19a29.12 29.12 0 0 1-3.56-1.43 3.18 3.18 0 0 1-1.87-3.1v-10.11zm467.77-69.14a18.67 18.67 0 0 1 .44 2.6v9c-1.33-1.12-2.05-1.62-2.65-2.25a23.13 23.13 0 0 0-12.49-6.74 19.07 19.07 0 0 0-9 .36c-8.32 2.22-11.66 11.19-7.9 18.42a23.06 23.06 0 0 0 7.46 8c3.4 2.4 7 4.53 10.53 6.74 3.26 2 6.64 3.91 9.81 6.09a37.8 37.8 0 0 1 5.83 5c4.18 4.36 5.51 9.7 4.53 15.57a24.39 24.39 0 0 1-7.64 14.15 33.49 33.49 0 0 1-20.24 9.08 57.46 57.46 0 0 1-18.65-1.1 36.83 36.83 0 0 1-4.58-1.41 37.41 37.41 0 0 1-3.47-1.75c-.73-4.21-.24-8.3-.38-13.43 1.12 1.57 1.66 2.29 2.16 3a20.27 20.27 0 0 0 14.63 9.15A30.76 30.76 0 0 0 1253 801c7.52-2.12 11.32-7.08 11.43-15.21a15.56 15.56 0 0 0-4.94-12.13 46.89 46.89 0 0 0-6.88-5.2c-4.23-2.61-8.63-4.94-12.93-7.44a68 68 0 0 1-6.13-3.8c-7.39-5.41-9.89-12.79-8.11-21.61a16.52 16.52 0 0 1 7-10.55 27.26 27.26 0 0 1 14.36-5c6.4-.3 12.83-.13 19.24 0a33.19 33.19 0 0 1 5.73 1.11zm83.78 4.64v-3.23c2-2.25 5-1 7.19-2 1.39-1.09 1.2-2.61 1.22-4 .06-4.65.06-9.31.11-14 0-1.58.1-3.16.17-5.07l11.33-3.54c.18 1.49.4 2.55.41 3.61v17.34c0 1.58.1 3.16.17 5 5.33 1.74 10.73.13 15.74 1.22.78 1.54-.06 2.33-1.11 2.83-3.1 1.48-6.49 1.67-9.82 2-1.4.15-2.81.22-4.48.34a33.78 33.78 0 0 0-.48 3.94c0 17.34-.09 34.67.07 52a27.64 27.64 0 0 0 1.66 8.9c1.67 4.66 5.63 6.47 10.45 5.08 2.57-.74 5-1.9 7.53-2.87 1.12 4.42.88 5.42-2.16 7.5a27.56 27.56 0 0 1-15.75 5.12A12 12 0 0 1 1367 800a19.93 19.93 0 0 1-3-9.53q-.24-4.08-.25-8.18v-50.08c.08-5.61-.58-6.19-6-6.06a15.28 15.28 0 0 1-2.2-.34zm-30.98 66.88c.9 4.73-1 7.48-4.63 9.45a29.42 29.42 0 0 1-13.7 3.94c-5.54.07-9.5-2.48-11.82-7.48a30.43 30.43 0 0 1-2.65-13.08q.05-26.23 0-52.46c0-1.91-.07-3.81-.11-5.42-2.26-2.25-5-.83-7.53-2.07 0-.92-.32-2.12.1-3 .34-.68 1.51-1.11 2.39-1.33a43.55 43.55 0 0 1 4.56-.65c1.34-3.7.51-7.59.92-11.34s.39-7.64.57-11.79l11-3.59c.16 1.87.37 3.25.38 4.63v15.88a29.3 29.3 0 0 0 .1 3.36c.25 2.09.92 2.8 3.09 2.91 2.88.15 5.77.07 8.66.13 1.55 0 3.11.15 5 .25-.71 2.88-2.76 3.53-4.68 3.94-2.65.56-5.39.72-8.09 1l-3.66.42c-.16 1.67-.43 3.23-.44 4.79 0 16.52-.09 33 .05 49.57a34.41 34.41 0 0 0 1.4 9.45c1.62 5.41 5.86 7.51 11.25 6a28 28 0 0 0 4-1.52c1.27-.42 2.27-1.13 3.84-1.99zM1513 721c-1.22 3.17-3.24 3.77-5.29 4.11-2.68.44-5.4.65-8.1 1-.94.11-1.87.27-3.17.46-.18 1.8-.51 3.52-.51 5.24q-.06 24.09 0 48.17a46 46 0 0 0 .78 8.14c1.3 7 6.52 10.67 13.9 7.63 1.91-.78 3.71-1.82 5.62-2.77 1.34 4.13-.27 6.79-3.72 8.77a29.23 29.23 0 0 1-14.08 4.35c-5.73.12-9.85-2.44-12.23-7.65a32.26 32.26 0 0 1-2.61-13.59v-52c0-1.89-.12-3.78-.2-6l-7.24-1c-.07-1-.54-2.27-.11-3s1.73-1.21 2.72-1.58a12.23 12.23 0 0 1 2.38-.28c.62-.09 1.22-.28 2.05-.47 1.91-7.53.28-15.32 1.59-23.08l10.51-3.41a31 31 0 0 1 .57 3.94c.06 5.62 0 11.24 0 16.86s.24 5.9 6 6zm-738.39 83.09h-17.8c.74-3.43 1.7-6.65 2.07-9.93.72-6.37 1.43-12.76 1.58-19.16q.38-16.85 0-33.71c-.14-6.37-.25-12.83-3.07-19a62.2 62.2 0 0 1 14.87-1.56c1.4 3.11-.32 6.58 1.81 9.79 1.09-1.15 1.87-2.08 2.77-2.91a71.7 71.7 0 0 1 6.8-6c3.57-2.53 7.76-2.95 12-2.32 2.67.39 4.87 1.65 5.72 4.48a3.85 3.85 0 0 1-3.71 5.27c-2.73.13-5.46.06-8.18.21-2.23.13-4.46.48-6.69.7a8.72 8.72 0 0 0-8 6.62 44.18 44.18 0 0 0-1.89 10.84c-.24 8.34-.08 16.7.05 25q.18 11.31.67 22.62c.11 2.82.61 5.66 1 9.06zm-471.39-82.18a15.57 15.57 0 0 1 2.87-.78c3.79-.37 7.59-.62 11.61-.93.83 3.9.17 7.55 0 11.18-.15 4.49-.61 9-.76 13.46-.27 8.18-.68 16.37-.52 24.55.16 8.49.85 17 1.48 25.45.22 3 1 5.94 1.49 8.9a63.34 63.34 0 0 1-17-.06c.17-.9.39-1.8.5-2.71a92.73 92.73 0 0 0 1.11-10.48q.19-28.42.06-56.85c.03-3.8-.52-7.64-.84-11.73zM964 803.75c-4.7.79-13.3.71-16.92-.12a3.64 3.64 0 0 1-.12-1.38c1.74-5.28 1.77-10.72 1.75-16.19v-45.27c0-6.21.62-12.47-1.48-18.62a15.27 15.27 0 0 1 2-.76 24.42 24.42 0 0 1 2.85-.39c3.31-.29 6.63-.56 10.2-.85.64 3.61.19 6.94 0 10.26-1.18 17.3-1.83 34.6-.88 51.95a128 128 0 0 0 2.6 21.37zm382-83.27a16.79 16.79 0 0 1 .36 2.86c-.21 4.33-.51 8.65-.77 13-.15 2.56-.37 5.13-.4 7.7-.13 10.91-.63 21.81-.23 32.73.33 9 .55 17.93 2.86 26.65-3.34 1.11-12.59 1.24-17.46.22 2.43-6.62 2-13.53 2-20.39.14-14.77.39-29.54.26-44.31 0-5.55.17-11.2-1.71-16.94 1.8-.35 3.36-1 4.88-.89 3.41.16 6.63-1.53 10.21-.63zm-15.89-23.55c3.43-3.1 7.3-5.25 11.51-7.69l6.56 9.39c-1.89 2.75-4.87 4.77-11.6 8a49.72 49.72 0 0 1-6.47-9.7zm-383.57-.59l10.93-7.09c3 3 5 6.44 7.11 10.09a59.74 59.74 0 0 1-11.64 7.24c-3.48-3.93-5.35-6.93-6.4-10.24zM313 688.88c1.82 2.59 3.22 4.52 4.56 6.49.8 1.18 1.52 2.41 2.41 3.84-3.47 3.34-7.71 5.15-11.76 7.72l-6.69-9.93c3.48-3.2 7.7-4.81 11.48-8.12z" data-name="Layer 1"/></svg>