<svg xmlns="http://www.w3.org/2000/svg" viewBox="0 0 99.85 70.11"><defs><style>.cls-1{fill:#fff}</style></defs><title>AmFilmshow-white</title><g id="Layer_2" data-name="Layer 2"><g id="Layer_1-2" data-name="Layer 1"><g id="Layer_2-2" data-name="Layer 2"><path class="cls-1" d="M79.28 43.07l13-27.37h.34c.31 1.57.63 3.14.93 4.71l4.88 26.79c.37 2 .7 4.07 1.09 6.09.13.69-.05.95-.75.93-1.29 0-2.58-.06-3.87 0-.9 0-1.26-.26-1.41-1.17-1-6.42-2.09-12.83-3.15-19.24 0-.19-.1-.38-.21-.82-.28.49-.49.8-.64 1.13L80 54.1a6.09 6.09 0 0 1-.27.56c-.19.3-.38.59-.58.89a6 6 0 0 1-.69-1q-4.63-10.03-9.26-20.09c-.21-.45-.45-.89-.85-1.67-.52 2.8-1 5.26-1.44 7.71-.76 4.11-1.5 8.22-2.27 12.33-.24 1.32-.26 1.33-1.57 1.33h-3.4c-1.28 0-1.31-.06-1.05-1.36l2.74-13.5L66 16.7a1.9 1.9 0 0 1 .09-.45 5.53 5.53 0 0 1 .38-.59 2.31 2.31 0 0 1 .39.45c.19.37.31.76.49 1.14l11.16 24.48c.23.43.49.77.77 1.34zM0 36.17V19.76c0-1.67 0-1.68 1.72-1.68h15.52c1.67 0 1.67 0 1.67 1.72v2c0 1.57 0 1.57-1.64 1.57H8.13c-2.55 0-2.2-.32-2.24 2.21v4.64c0 1.54 0 1.54 1.5 1.55H17c1.43 0 1.44 0 1.46 1.43v2.32c0 1.55 0 1.56-1.52 1.57H7.33c-1.43 0-1.46 0-1.46 1.43v14.1c0 1.58 0 1.58-1.65 1.59H1.59C0 54.21 0 54.21 0 52.55v-12zm37.73-.02V19.74c0-1.66 0-1.66 1.71-1.66h3.1c.7 0 1.08.21 1 1v28.63c-.09.95.33 1.26 1.26 1.25h8.05c1.67 0 1.67 0 1.67 1.73V53c0 1.24 0 1.25-1.33 1.26H39.28c-1.53 0-1.54 0-1.55-1.51v-16.6zm-13.39 6.62V32.54c0-1.2 0-1.2 1.18-1.2h3.41c.82 0 1.1.3 1.07 1.09V52.7c0 1.53 0 1.53-1.54 1.54h-2.79c-1.3 0-1.31 0-1.31-1.39V42.79zM18 0l4.56 9.87c.36-.65.61-1.1.84-1.58 1.2-2.51 2.39-5 3.6-7.54a3.28 3.28 0 0 1 .54-.65 2.74 2.74 0 0 1 .32.66Q29 7 30.13 13.24c.07.4.4.93-.39 1.07-1 .17-1.74-.07-1.87-.76-.35-1.95-.66-3.86-1-5.8 0-.28-.12-.56-.26-1.2-1.2 2.51-2.22 4.69-3.28 6.85a9.68 9.68 0 0 1-.85 1.21c-.23-.39-.49-.77-.68-1.18-1-2.19-2-4.38-3.31-6.58-.25 1.4-.49 2.79-.78 4.15-.12.66-.23 1.32-.35 2-.23 1.26-.49 1.39-1.76 1.29-.62-.05-.82-.3-.7-.89.19-.91.38-1.82.56-2.73L17.63.08zm31.89 64.77C51 62.2 52 59.92 53 57.67c.18-.4.43-.94.77-1a5 5 0 0 1 1.67 0 6.33 6.33 0 0 1-.29 1.33c-1.52 3.56-3.08 7.1-4.63 10.65a5.63 5.63 0 0 1-.32.7 2.72 2.72 0 0 1-.4.42 1.76 1.76 0 0 1-.37-.43c-.44-1.1-.85-2.22-1.28-3.33l-1.75-4.6-3.47 8.68c-.31-.58-.52-.92-.66-1.27-1.51-3.62-3-7.24-4.49-10.87-.17-.42-.86-1 0-1.39a1.56 1.56 0 0 1 2.07.72c.77 1.86 1.52 3.73 2.27 5.59l.74 1.81c.31-.69.55-1.15.74-1.64.76-1.92 1.5-3.85 2.27-5.76a5.49 5.49 0 0 1 .64-1 7.06 7.06 0 0 1 .6 1c.74 1.95 1.46 3.86 2.17 5.8.14.52.32.92.61 1.69zM97.57 9.78V1.92c0-1.22.16-1.32 1.31-1.28.75 0 1 .36 1 1.05v12.37a3.26 3.26 0 0 1-.16.71 3.9 3.9 0 0 1-.74-.49Q95 10.35 91.09 6.4c-.38-.39-.8-.75-1.46-1.35v8c0 1.12-.77 1.63-1.81 1.16a1.12 1.12 0 0 1-.44-.84c-.05-.93 0-1.86 0-2.78V1a3.7 3.7 0 0 1 .26-1 5 5 0 0 1 .73.51q4.15 4.16 8.28 8.33a8.24 8.24 0 0 0 .92.94zM30 69.62a6.68 6.68 0 1 1 0-13.34 6.68 6.68 0 1 1 0 13.34zm4.75-6.67a4.66 4.66 0 0 0-4.62-4.69H30a4.78 4.78 0 0 0-4.85 4.59A4.84 4.84 0 0 0 30 67.63 4.68 4.68 0 0 0 34.75 63v-.06zM45.9 9v4.09c0 .78-.13 1.27-1.08 1.23s-1.2-.09-1.2-1.26V1.91c0-.9.22-1.37 1.2-1.3s2.28 0 3.41.21A3.7 3.7 0 0 1 51.58 4a3.69 3.69 0 0 1-2.1 4.23c-.85.43-.58.7-.19 1.21 1 1.34 2.05 2.71 3.07 4.07.38.49.41.77-.37.84A2.68 2.68 0 0 1 49.16 13c-.89-1.42-1.95-2.73-2.92-4.08zm0-4.28a8.28 8.28 0 0 0 0 1.39c0 .24.35.65.49.63a7.39 7.39 0 0 0 2.36-.58 1.93 1.93 0 0 0 .4-2.39 2.82 2.82 0 0 0-2.62-1c-1.05.22-.43 1.08-.6 1.64a1.12 1.12 0 0 0 0 .29zm-33.69 9.57c-.78.18-1.13-.32-1.46-1.07-1.23-2.63-.44-2.1-3.34-2.17h-.93a4.81 4.81 0 0 0-2.22.37 3.44 3.44 0 0 0-1.46 1.86 1.83 1.83 0 0 1-2.37 1c-.15-.06-.25-.38-.26-.57s.16-.37.25-.56Q3.36 7 6.32.9A4.87 4.87 0 0 1 7 .09a5.64 5.64 0 0 1 .49.75Q10.28 6.92 13.11 13c.56 1.22.52 1.29-.9 1.29zM6.85 4.7c-.66 1.38-1.19 2.48-1.68 3.59-.05.13.19.56.32.57a22 22 0 0 0 2.62 0c.14 0 .42-.43.37-.56C8 7.19 7.5 6.09 6.85 4.7zm77.55 9.59c-.83.19-1.36-.24-1.58-1.13a2.49 2.49 0 0 0-3.24-2.1 2.13 2.13 0 0 1-.77 0c-2.05-.37-3.41.29-4 2.41a1.79 1.79 0 0 1-2.32.72.62.62 0 0 1-.17-.49 1.75 1.75 0 0 1 .22-.57Q75.46 7 78.43.89a4.33 4.33 0 0 1 .64-.78 5.26 5.26 0 0 1 .49.73Q82.44 7 85.29 13.15c.52 1.13.48 1.14-.89 1.14zM79 4.73c-.37.71-.61 1.1-.78 1.52-.34.84-.63 1.69-.95 2.54.92 0 1.84.06 2.75.12.76 0 .72-.32.49-.83zM10.87 63v-5.26c0-.84.25-1.17 1.15-1.19s1.09.49 1.07 1.25v2.92c0 .6.25.82.83.81h3.87c.61 0 .81-.28.8-.85V57.4c0-.82.49-.88 1.11-.88s1.1.13 1.09.92v11c0 .92-.56.92-1.23.95s-1-.3-1-1v-3.87c0-.68-.14-1.08-.93-1h-3.71c-.72 0-.87.33-.86.95v4c0 .77-.36 1-1 1s-1.19-.12-1.16-1c.01-1.9-.03-3.7-.03-5.47zM33.11 7.26V1.84c0-.82.16-1.23 1.1-1.2 1.9.05 3.81 0 5.72 0 .76 0 1.12.23 1.1 1.08s-.38 1.05-1.13 1h-3.56c-.76 0-1 .28-.95 1v.77c0 1.27 0 1.28 1.27 1.3h3.25c.75 0 1 .33 1 1S40.73 8 40 7.95c-1.14 0-2.28.06-3.41 0-1-.06-1.28.33-1.19 1.26a15.44 15.44 0 0 1 0 2.16c0 .67.23.92.9.9h3.71c.7 0 1 .2 1 1s-.19 1.14-1 1.12h-5.88c-.74 0-1-.29-1-1v-6zm46.11 62.11a1.13 1.13 0 0 1-1.39-1c-.41-1.81-1.58-2.35-3.29-2.07a1 1 0 0 1-.31 0c-1.92-.29-3.38.13-4 2.28a1.48 1.48 0 0 1-2.05.74.65.65 0 0 1-.31-.54 3 3 0 0 1 .35-.85l5.25-10.85a6 6 0 0 1 .35-.69c.28-.49.55-.37.77.05.07.14.13.28.19.42q2.67 5.66 5.29 11.33c.54 1.09.45 1.2-.85 1.18zm-5-9c-.31.61-.55 1-.71 1.42-.32.78-.6 1.59-.89 2.38l2.58.11h.15c.13-.19.4-.45.36-.57-.45-1.04-.94-2.09-1.5-3.3zM67.06.26a29.33 29.33 0 0 1 2.92.8 1.46 1.46 0 0 1 .7 1 5.4 5.4 0 0 1-.14 1.5 10.14 10.14 0 0 1-1.26-.49 5.07 5.07 0 0 0-6.47 1.46 5.19 5.19 0 0 0 0 5.93 5.1 5.1 0 0 0 5.68 1.71c.24-.09.49-.22.71-.31.49-.17 1.24-.58 1.39-.42.57.59 0 2.18-.83 2.53a7.61 7.61 0 0 1-8.17-1.53A6.82 6.82 0 0 1 60 5.06a7.63 7.63 0 0 1 7.06-4.8zm25.19 62.65V57.8c0-1.24 0-1.26 1.32-1.27h5c.67 0 1.2 0 1.2.95s-.54 1.06-1.29 1h-2.92c-.97 0-1.07.46-1.07 1.23 0 1.46 0 1.56 1 1.6s2.07 0 3.09 0c.73 0 1 .29 1 1s-.28 1-1 1h-3.1c-.73 0-1 .31-1 1-.19 3-.21 3 2.71 3h1.55c.69 0 1.06.17 1 .95s-.2 1.05-1 1h-5.57c-.77 0-1-.35-1-1 .1-1.73.08-3.54.08-5.35zM90 65.48a4 4 0 0 1-3.35 4.05 4.14 4.14 0 0 1-4.9-2.53c-.18-.49-.61-1.07.23-1.41s1.43-.28 1.77.6a2 2 0 0 0 2 1.43 2 2 0 0 0 1.88-1.13 1.78 1.78 0 0 0-.63-2.43 27 27 0 0 0-2.51-1.19c-1.33-.63-2.35-1.46-2.39-3.11a3.08 3.08 0 0 1 1.33-2.65 4.26 4.26 0 0 1 5.63.44c.29.31.79.61.33 1.16a1.23 1.23 0 0 1-1.7.31 1.86 1.86 0 0 0-2.07-.67 2.41 2.41 0 0 0-1.25 1.19c-.25.66.28 1.14.9 1.41.9.4 1.82.73 2.68 1.19A3.47 3.47 0 0 1 90 65.48zM4.32 69.61a4 4 0 0 1-4-3c-.12-.45-.3-1 .41-1.07.56 0 1.34-.77 1.66.34A2.05 2.05 0 0 0 4 67.58a2.06 2.06 0 0 0 2.31-1.14A1.81 1.81 0 0 0 5.57 64c-.6-.38-1.32-.58-1.95-.92a10.08 10.08 0 0 1-2.07-1.31 2.92 2.92 0 0 1-.21-4.05 4.3 4.3 0 0 1 6.07-.41l.13.12c.31.32 1 .64.46 1.27a1.36 1.36 0 0 1-1.84.23 3.82 3.82 0 0 0-1.49-.66 1.68 1.68 0 0 0-1.77 1.2c-.13.82.42 1.22 1.05 1.52s1.54.59 2.28 1c2 1 2.82 2.59 2.33 4.52a4.16 4.16 0 0 1-4.24 3.1zM56 63a6.89 6.89 0 0 1 9.67-6.2 1.92 1.92 0 0 1 .77 2.34c-.08.12-.45.13-.63.06-.57-.22-1.1-.58-1.68-.76a4.61 4.61 0 0 0-5.33 2.11 4.84 4.84 0 0 0 .49 5.49 4.79 4.79 0 0 0 5.66 1.07l.14-.07c.49-.1.85-1.06 1.37-.29a1.74 1.74 0 0 1-.73 2.25c-5.22 2.24-10.01-1.87-9.73-6zM23.51 22a3.58 3.58 0 0 1 3.71-3.45h.07a3.51 3.51 0 0 1 3.46 3.55 3.45 3.45 0 0 1-3.46 3.44h-.13a3.54 3.54 0 0 1-3.65-3.42V22zM57.06 7.57v5.72c0 .69-.16 1.08-.95 1s-1.35.12-1.34-1q.05-5.87 0-11.74c0-.93.51-.95 1.19-1s1.12.26 1.1 1.07v5.87z" id="Layer_1-2-2" data-name="Layer 1-2"/></g></g></g></svg>