<svg xmlns="http://www.w3.org/2000/svg" viewBox="0 0 204.87 143.94"><defs><style>.cls-1{fill:#fff}</style></defs><title>AmFilmshow-white</title><g id="Layer_2" data-name="Layer 2"><path class="cls-1" d="M162.67 88.4l26.73-56.18h.69c.63 3.22 1.3 6.44 1.9 9.67q5 27.49 10 55c.76 4.17 1.43 8.35 2.24 12.51.27 1.41-.11 1.94-1.54 1.91-2.65 0-5.3-.12-7.95 0-1.84.09-2.59-.53-2.89-2.4-2.09-13.18-4.29-26.34-6.46-39.5-.07-.4-.2-.79-.44-1.68-.58 1-1 1.65-1.32 2.32l-19.48 41a12.5 12.5 0 0 1-.55 1.14c-.38.62-.79 1.22-1.2 1.82a12.4 12.4 0 0 1-1.41-2q-9.51-20.63-19-41.28c-.43-.93-.92-1.83-1.74-3.43-1.07 5.75-2 10.79-2.95 15.82-1.55 8.44-3.08 16.88-4.65 25.31-.5 2.71-.54 2.72-3.22 2.74h-7c-2.62 0-2.69-.12-2.16-2.79q2.79-13.86 5.62-27.71l9.43-46.39a3.91 3.91 0 0 1 .18-.93 11.35 11.35 0 0 1 .78-1.21 4.75 4.75 0 0 1 .81.92c.38.76.64 1.57 1 2.34q11.51 25.13 23 50.25c.47.89.91 1.58 1.58 2.75zM0 74.24V40.55c0-3.43 0-3.45 3.53-3.45h31.79c3.42 0 3.42 0 3.43 3.53v4.13c0 3.22 0 3.23-3.37 3.23H16.63c-5.24 0-4.52-.66-4.59 4.53v9.53c0 3.17 0 3.17 3.07 3.18h19.7c2.93 0 2.95 0 3 2.94v4.77c0 3.18 0 3.21-3.13 3.22h-19.7c-2.94 0-3 0-3 2.93v28.92c0 3.25 0 3.25-3.38 3.27H3.2c-3.23 0-3.25 0-3.26-3.41Q0 95.53 0 83.14v-8.9zm77.39-.03V40.52c0-3.4 0-3.4 3.51-3.41 2.12 0 4.24.05 6.36 0 1.44 0 2.21.44 2.13 2v56.54c0 .74.07 1.49 0 2.22-.19 1.95.67 2.59 2.58 2.56 5.51-.09 11 0 16.53 0 3.42 0 3.42 0 3.42 3.56v4.77c-.05 2.54-.07 2.57-2.74 2.58H80.57c-3.15 0-3.17 0-3.18-3.09q-.01-17.03 0-34.04zM49.9 87.8v-21c0-2.46 0-2.46 2.42-2.47s4.66.06 7 0c1.68-.08 2.25.62 2.2 2.23-.08 2.43 0 4.87 0 7.31v34.31c0 3.14 0 3.15-3.16 3.16h-5.72c-2.67 0-2.68 0-2.69-2.86V87.83zM36.92 0l9.35 20.25C47 18.92 47.52 18 48 17c2.47-5.16 4.9-10.33 7.39-15.48a6.73 6.73 0 0 1 1.1-1.33 5.63 5.63 0 0 1 .66 1.36q2.35 12.81 4.63 25.63c.15.83.82 1.91-.81 2.19-2.1.35-3.57-.14-3.83-1.56-.72-4-1.35-7.93-2-11.9-.1-.58-.25-1.15-.53-2.47-2.46 5.15-4.56 9.63-6.74 14.07A19.87 19.87 0 0 1 46.12 30c-.47-.81-1-1.59-1.4-2.43-2.1-4.49-4.17-9-6.79-13.5-.54 2.86-1.09 5.71-1.63 8.57-.25 1.35-.47 2.71-.72 4.07-.48 2.58-1 2.86-3.62 2.64-1.27-.11-1.69-.61-1.43-1.82.4-1.86.77-3.73 1.15-5.6L36.13.16zm65.43 132.95c2.28-5.28 4.27-9.95 6.33-14.58.36-.82.89-1.92 1.58-2.15a10.34 10.34 0 0 1 3.42 0 13 13 0 0 1-.53 2.86c-3.13 7.3-6.32 14.57-9.5 21.86a11.56 11.56 0 0 1-.66 1.44 5.59 5.59 0 0 1-.83.87 3.62 3.62 0 0 1-.75-.88c-.9-2.26-1.75-4.55-2.62-6.83l-3.59-9.44-7.12 17.81c-.63-1.2-1.06-1.88-1.36-2.61-3.1-7.43-6.2-14.86-9.22-22.32-.35-.86-1.77-2.06-.06-2.86a3.21 3.21 0 0 1 4.25 1.47c1.59 3.81 3.11 7.65 4.66 11.48.43 1.07.87 2.13 1.52 3.72.64-1.41 1.12-2.37 1.51-3.36 1.56-3.94 3.07-7.9 4.66-11.83a11.26 11.26 0 0 1 1.32-2 14.5 14.5 0 0 1 1.23 2.1c1.52 4 3 7.93 4.46 11.9.34.95.7 1.81 1.3 3.35zm97.86-112.88V3.95c0-2.51.34-2.72 2.69-2.64 1.53 0 2 .73 2 2.16v25.39a6.69 6.69 0 0 1-.33 1.46 8 8 0 0 1-1.52-1q-8.09-8.07-16.13-16.18c-.79-.8-1.64-1.54-3-2.78v16.38c-.07 2.3-1.59 3.34-3.72 2.38a2.3 2.3 0 0 1-.9-1.72c-.11-1.9 0-3.81 0-5.71V2.01a7.59 7.59 0 0 1 .54-1.93 10.28 10.28 0 0 1 1.5 1.05q8.52 8.53 17 17.09c.38.5.86.91 1.87 1.85zM61.5 142.9a14 14 0 0 1-14.32-13.52c-.11-7.59 6.34-13.83 14.33-13.86 7.83 0 14.26 6 14.3 13.53.05 7.67-6.3 13.82-14.31 13.85zm9.76-13.69a9.56 9.56 0 0 0-9.65-9.63 9.81 9.81 0 0 0-9.95 9.42 9.94 9.94 0 0 0 9.9 9.83 9.6 9.6 0 0 0 9.7-9.62zM94.15 18.44c0 2.8-.05 5.59 0 8.39 0 1.61-.26 2.61-2.21 2.52-2.21-.1-2.46-.18-2.47-2.59V3.92c0-1.85.45-2.82 2.47-2.66 2.32.18 4.67.08 7 .43 3.9.59 6.32 3 6.88 6.45.62 3.84-.7 6.83-4.31 8.68-1.74.89-1.2 1.44-.38 2.49 2.14 2.75 4.21 5.56 6.31 8.35.78 1 .84 1.58-.76 1.72-2.54.23-4.39-.42-5.83-2.73-1.82-2.91-4-5.6-6-8.38zm0-8.78a17 17 0 0 0 0 2.85c.08.49.71 1.33 1 1.29a15.17 15.17 0 0 0 4.85-1.2c1.43-.77 1.65-3.42.82-4.91-.73-1.32-3.53-2.42-5.38-2-2.16.45-.88 2.22-1.23 3.37a2.29 2.29 0 0 0-.04.6zM25 29.34c-1.6.37-2.32-.65-3-2.19-2.53-5.39-.91-4.31-6.86-4.46h-1.9a9.88 9.88 0 0 0-4.56.75c-1.24.65-2.12 1.8-3 3.82a3.76 3.76 0 0 1-4.86 2c-.3-.12-.52-.77-.53-1.17s.32-.76.51-1.14Q6.83 14.38 12.92 1.84A10 10 0 0 1 14.21.18a11.58 11.58 0 0 1 1 1.54q5.84 12.49 11.64 25c1.15 2.47 1.07 2.61-1.85 2.62zM14 9.65c-1.35 2.84-2.45 5.08-3.44 7.37-.11.26.4 1.15.65 1.16a45.16 45.16 0 0 0 5.37 0c.29 0 .87-.89.76-1.14-.93-2.29-2.01-4.54-3.34-7.39zm159.19 19.68c-1.7.39-2.79-.5-3.25-2.31-.88-3.5-3-5-6.65-4.32a4.37 4.37 0 0 1-1.58 0c-4.21-.76-7 .6-8.28 4.95-.43 1.56-3.43 2.35-4.77 1.47a1.27 1.27 0 0 1-.35-1 3.59 3.59 0 0 1 .46-1.17q6.06-12.57 12.15-25.12a8.89 8.89 0 0 1 1.31-1.6 10.79 10.79 0 0 1 1 1.5Q169.16 14.35 175 27c1.08 2.32 1 2.34-1.81 2.33zM162.1 9.7c-.75 1.45-1.25 2.26-1.6 3.13-.69 1.72-1.3 3.47-1.95 5.21 1.88.08 3.77.12 5.65.24 1.56.1 1.48-.65 1-1.7-.94-2.1-1.89-4.2-3.1-6.88zM22.25 129.24c0-3.6.05-7.2 0-10.8 0-1.72.51-2.41 2.36-2.44 2 0 2.24 1 2.19 2.56-.06 2 0 4 0 6 0 1.24.51 1.68 1.7 1.67q4-.06 7.94 0c1.25 0 1.66-.57 1.64-1.74v-6.67c0-1.69 1-1.8 2.27-1.81s2.25.27 2.24 1.88v22.56c0 1.89-1.14 1.89-2.52 1.94-1.55.06-2-.62-2-2.08.06-2.65 0-5.3 0-7.94 0-1.39-.28-2.21-1.91-2.15-2.54.08-5.09.08-7.62 0-1.47 0-1.78.68-1.76 1.94 0 2.75-.05 5.51 0 8.26 0 1.59-.74 2-2.14 2s-2.44-.24-2.39-2.06c.08-3.71 0-7.41 0-11.12zM67.9 14.9c0-3.71.06-7.41 0-11.12 0-1.68.32-2.52 2.25-2.47 3.91.11 7.83 0 11.75 0 1.56 0 2.29.48 2.26 2.21s-.78 2.16-2.32 2.11c-2.43-.07-4.87.06-7.3 0-1.57-.06-2.1.58-1.95 2.05.05.52 0 1.06 0 1.59 0 2.6 0 2.63 2.6 2.67 2.22 0 4.45.06 6.67 0 1.54 0 2 .67 2 2.11s-.31 2.28-1.9 2.26c-2.33 0-4.67.13-7 0-2-.13-2.62.68-2.45 2.58a31.7 31.7 0 0 1 0 4.44c-.07 1.37.47 1.88 1.85 1.85 2.54-.07 5.08 0 7.62 0 1.43 0 2.1.41 2.11 2s-.4 2.33-2.12 2.3c-4-.07-8 0-12.07 0-1.51 0-2.05-.6-2-2.07.05-4.13 0-8.26 0-12.39zm94.65 127.5c-1.54.31-2.51-.56-2.86-2.08-.84-3.71-3.24-4.83-6.75-4.25a2.06 2.06 0 0 1-.63 0c-3.95-.59-6.94.26-8.11 4.69-.43 1.63-2.48 2.19-4.21 1.52a1.34 1.34 0 0 1-.64-1.1 6.16 6.16 0 0 1 .72-1.74l10.77-22.27c.23-.48.44-1 .71-1.41.58-1 1.12-.76 1.58.11.15.28.26.58.39.87Q159 128.36 164.38 140c1.02 2.21.84 2.43-1.83 2.4zM152.27 124c-.63 1.25-1.12 2.06-1.46 2.92-.65 1.61-1.23 3.26-1.83 4.89l5.3.23h.3c.27-.39.83-.93.73-1.18-.89-2.23-1.9-4.37-3.04-6.86zM137.59.53a60.2 60.2 0 0 1 6 1.64 3 3 0 0 1 1.44 2.06 11.09 11.09 0 0 1-.28 3.08c-.86-.31-1.75-.57-2.58-1-5.02-2.31-10.26-1.17-13.28 2.99a10.66 10.66 0 0 0 .06 12.18A10.47 10.47 0 0 0 140.6 25c.5-.18 1-.46 1.45-.63 1-.34 2.55-1.19 2.86-.86 1.16 1.21-.06 4.48-1.71 5.2a15.62 15.62 0 0 1-16.78-3.14 14 14 0 0 1-3.3-15.19c2.39-5.99 7.73-9.52 14.47-9.85zm51.71 128.61v-10.49c0-2.55.07-2.59 2.71-2.61h10.17c1.37 0 2.46 0 2.47 1.94s-1.1 2.18-2.64 2.14c-2-.06-4 .09-6 0s-2.2.94-2.19 2.53c0 3 0 3.2 2.08 3.28s4.24.07 6.35 0c1.5 0 2 .6 2 2.1s-.58 2.11-2.06 2.08h-6.36c-1.5 0-2 .63-2.05 2.09-.39 6.13-.44 6.13 5.56 6.16 1.06 0 2.12.05 3.18 0 1.41-.08 2.17.34 2.14 1.95 0 1.42-.41 2.16-2 2.13q-5.72-.09-11.44 0c-1.59 0-2-.72-2-2.13.11-3.75.08-7.46.08-11.17zm-4.62 5.27a8.29 8.29 0 0 1-6.88 8.32c-4.52.88-8.57-1.18-10.06-5.22-.37-1-1.26-2.19.47-2.9 2-.83 2.93-.57 3.64 1.23a4.16 4.16 0 0 0 4.09 2.93 4 4 0 0 0 3.86-2.31 3.65 3.65 0 0 0-1.42-5 55.43 55.43 0 0 0-5.15-2.45c-2.72-1.29-4.83-3-4.91-6.38a6.32 6.32 0 0 1 2.74-5.43 8.75 8.75 0 0 1 11.56.91c.6.64 1.63 1.26.68 2.38s-2.65 1.5-3.49.64c-1.21-1.26-2.64-2-4.24-1.38a4.94 4.94 0 0 0-2.57 2.45c-.52 1.35.58 2.34 1.84 2.9 1.84.82 3.74 1.5 5.51 2.45 3.07 1.63 4.32 3.75 4.33 6.86zM8.81 142.89a8.27 8.27 0 0 1-8.31-6.06c-.24-.92-.61-2.08.85-2.19 1.15-.09 2.75-1.58 3.41.69a4.21 4.21 0 0 0 3.36 3.38 4.23 4.23 0 0 0 4.74-2.33 3.72 3.72 0 0 0-1.49-5c-1.23-.79-2.7-1.19-4-1.89a20.69 20.69 0 0 1-4.24-2.69 6 6 0 0 1-.43-8.32 8.83 8.83 0 0 1 12.73-.6c.63.65 2 1.31.94 2.6a2.8 2.8 0 0 1-3.77.47 7.85 7.85 0 0 0-3.06-1.35 3.44 3.44 0 0 0-3.63 2.47c-.27 1.68.87 2.51 2.16 3.11 1.53.71 3.16 1.22 4.67 2 4.12 2 5.78 5.31 4.79 9.27a8.54 8.54 0 0 1-8.72 6.44zm106.06-13.54a14.14 14.14 0 0 1 19.85-12.72c1.48.67 2.47 3.5 1.59 4.8-.16.24-.92.27-1.3.12-1.17-.46-2.25-1.2-3.45-1.55a9.47 9.47 0 0 0-10.94 4.33 9.94 9.94 0 0 0 1 11.26 9.83 9.83 0 0 0 11.61 2.2 1.3 1.3 0 0 1 .28-.15c1-.2 1.75-2.17 2.81-.6.93 1.37 0 4-1.45 4.6-10.72 4.6-20.55-3.85-20-12.29zM48.2 45.07A7.35 7.35 0 0 1 55.95 38a7.2 7.2 0 0 1 7.11 7.35 7.08 7.08 0 0 1-7.37 7.05 7.26 7.26 0 0 1-7.49-7.33zm68.86-29.53v11.74c0 1.41-.32 2.22-1.95 2.07-1.35-.12-2.77.24-2.75-2q.11-12.05 0-24.1c0-1.9 1.05-1.94 2.44-2 1.6-.05 2.29.53 2.26 2.2-.08 4 0 8 0 12.05z" id="Layer_1-2" data-name="Layer 1"/></g></svg>