<svg xmlns="http://www.w3.org/2000/svg" viewBox="0 0 165.2 191.13"><defs><style>.cls-1,.cls-2{fill:#fff}.cls-1{opacity:0}</style></defs><title>AP-white</title><g id="Layer_2" data-name="Layer 2"><g id="Layer_1-2" data-name="Layer 1"><path class="cls-1" d="M0 170.49V0h165.2v170.49c-1.05 0-2.11-.13-3.16-.13H3.16c-1.05 0-2.11.09-3.16.13zM61.54 45H37.47L9.59 128.67H30.8L49 72.11h.51l8.37 26.21H46.1L40.9 116h22.62l4.15 12.59h21.74zm56 59.37c5-.52 9.75-.61 14.32-1.56 7.41-1.54 13.89-5 18.25-11.5a28.92 28.92 0 0 0 4.54-13.87c.54-6.48-.25-12.85-3.64-18.55-6-10-15.63-13.51-26.51-14-10.12-.43-20.28-.1-30.42-.08-.94 0-1.88.13-3 .2v83.61h20.82V62c3.75.25 7 .54 10.33.68 5.48.24 10.46 4.55 11 9.61.73 7.1-2.32 11.86-8.65 13.35-2.27.53-4.6.82-7 1.24z"/><path class="cls-2" d="M0 170.49c1.05 0 2.11-.13 3.16-.13H162c1.05 0 2.11.08 3.16.13v20.64H0zM61.54 45l27.87 83.62H67.66L63.52 116H40.9l5.2-17.71h11.74l-8.37-26.18H49l-18.2 56.56H9.59L37.47 45zm55.99 59.36V86.84c2.43-.42 4.76-.71 7-1.24 6.34-1.49 9.38-6.25 8.65-13.35-.52-5.06-5.5-9.37-11-9.61-3.29-.14-6.58-.43-10.33-.68v66.67H91.1V45c1.09-.08 2-.2 3-.2 10.14 0 20.3-.35 30.42.08 10.88.47 20.56 4 26.51 14 3.39 5.7 4.18 12.07 3.64 18.55a28.92 28.92 0 0 1-4.54 13.87c-4.36 6.52-10.83 10-18.25 11.5-4.6.95-9.34 1.05-14.35 1.56z"/></g></g></svg>