<svg xmlns="http://www.w3.org/2000/svg" viewBox="0 0 321.41 208"><defs><style>.cls-1{fill:#ef5035}</style></defs><title>cinemaeye-laurel-red_1</title><g id="Layer_2" data-name="Layer 2"><g id="Layer_1-2" data-name="Layer 1"><path class="cls-1" d="M247.34 13.81c-3-4.06-4.73-8.35-2.69-13.45 4.93 1.3 8.31 4.74 8 9.87-.4 5.84 2.87 7.71 7.25 9.21.22.08.53-.09.8-.15-1.56-7.93-1.48-8.8 1.18-12.94 4.9 2.63 7 7 5.78 12.07-1.13 4.93 1 7.36 4.79 9.37.5.27.94.66 2 1.38-1-5.13-.83-9.63 2.4-13.43 5.53 2.73 6.19 6.86 3 18.14.71.78 1.54 1.6 2.26 2.5a15.1 15.1 0 0 0 3.08 3.32c1-5 1.78-9.52 6.42-12.73 2.83 4.21 4.18 8.9 1.65 12.88-3.36 5.28-1.46 9 1.6 13a4.91 4.91 0 0 0 .56.47c.68-5.19 2.84-9.34 7.74-12 2.42 3.53 2.25 7.13 1 10.62a19.23 19.23 0 0 1-3.57 6 4 4 0 0 0-.82 4.77c.82 1.86 1.6 3.73 2.72 6.36 1.25-6 4.37-9.52 9.33-11.46 2.53 5.06 2.08 10-2.77 13.82-4.58 3.61-4.5 7.24-2.35 12.23 2.88-4.29 6.18-7.79 11.66-8.48 1.39 4.36.07 7.93-2.71 11a16.33 16.33 0 0 1-4.8 3.8c-2.93 1.41-3.84 3.36-2.91 6.38a27.79 27.79 0 0 1 .54 3.08 16.89 16.89 0 0 1 12.85-5.94 12.64 12.64 0 0 1 0 3.25 14 14 0 0 1-9.66 10.07c-3.08.93-4.46 2.35-4.31 5.51a23.94 23.94 0 0 1-.71 4.27c4.3-4.47 9-5.59 14.51-4.79a10.31 10.31 0 0 1-5.2 8.89 26.51 26.51 0 0 1-6.47 2.71c-5.18 1.47-5.21 1.37-5.78 7 9-2.52 9.41-2.54 14.8-.44a15.07 15.07 0 0 1-8.13 8c-1.62.64-3.48 1.34-5.11 1.13-5.43-.72-7.65 2.25-8.81 6.86 7.11-2.28 9.57-2.12 15.47 1.22-2.06 4.42-5.94 6.15-10.29 7a22.13 22.13 0 0 1-6.16 0c-4.93-.48-5.44-.24-7.83 5a19.32 19.32 0 0 1 15.07 4c-6.7 7.66-14.26 5.74-22.13 2.73l-5.11 4.75a65.79 65.79 0 0 1 8.32 1.94c2.56.94 5.07 2.28 6.59 5.16-5.21 4.45-10.77 4.13-16.56 1.89a17.34 17.34 0 0 1-2-.93c-4.34-2.35-4.34-2.36-8.76 1.49 5.35 1.7 10.06 4.13 13.39 9.58-3.94 2-7.69 3.23-11.81 1.67-2.32-.88-4.9-1.81-6.56-3.5-3.27-3.32-6.3-3.09-10.06-.39 5.38 2.23 9.53 5.59 11.66 11-6.67 3.89-13 1.35-21.55-8.5-13.69 2.54-26.22 7.78-36.86 18l-3.17-3c3.06-4.35 7.1-6.9 11.3-8.85a172.52 172.52 0 0 1 20.85-8.27c3.56-1.12 5.13-2.76 5.43-6.23.51-5.82 3.22-10.31 8.46-13.1a17 17 0 0 1 2.37-.86c2.87 4.55 2 9.42-2.65 16.65 5.89-1.12 6.21-1.24 5.88-6.88-.35-6 1.39-11 6.17-14.79a8 8 0 0 1 1.48-.91 2.29 2.29 0 0 1 .86-.05c3.19 5.16 3.15 9.08-.4 17 1.07-.63 1.79-1 2.48-1.47 3.72-2.37 3.76-2.39 2.59-6.61a15.72 15.72 0 0 1 2.07-14.01 36.25 36.25 0 0 1 3.42-3.65 17 17 0 0 1 3.2 15c4.3-1.12 5-2.27 3.37-6.17-2.26-5.56-3.06-11.05.43-16.44.39-.6.91-1.11 1.71-2.08 4.42 3.89 5.77 8.72 5.65 14.23 4.37-2.63 4.73-3.75 2.25-7.5-3.26-4.93-4.83-10.06-2.26-15.79a22.45 22.45 0 0 1 1.54-2.38c4.46 3.83 7.41 8 7.38 15l3.94-6.66c-5.51-5.6-10.63-11.15-6.83-20.25 5.61 2.57 8.91 6.59 10 13.24.47-1.29.69-1.9.91-2.5 1.75-4.62 1.75-4.61-2.15-7.95-3.41-2.93-6.48-6.09-6.51-11a37.11 37.11 0 0 1 .43-4.15c5.69 1.33 8.08 3.42 12 10.16.22-1 .43-1.79.6-2.62 1-4.52 1-4.56-3.22-6.67-4.89-2.45-8.33-6-9.08-11.64a5 5 0 0 1 0-1.31 6.26 6.26 0 0 1 .68-1.3 17.41 17.41 0 0 1 13.07 8.29v-2.53c0-5.31 0-5.28-4.94-7.06-5.41-1.93-9.57-5-10.49-11.88 5.83-.45 10.5.91 14.39 6.65-.24-1.84-.33-2.71-.47-3.57-.16-1-.33-2-.54-3a3.36 3.36 0 0 0-3.25-3 37.34 37.34 0 0 1-6-1.23c-4-1.12-6.45-3.8-7.73-8.14 3.58-2.14 5.69-1.92 13.79 1.6-.47-1.62-.82-3-1.26-4.33a3.58 3.58 0 0 0-4-2.7 35.52 35.52 0 0 1-4.85 0c-4.75-.35-8.05-2.86-10.72-7.13 5.5-2.85 10.34-2.44 15.84 1.52l-5.24-9.08c-7 2.64-13.54 3.76-18.92-3.34 5.08-3.38 9.86-4.41 15.37-1.57l-6.29-7.3c-9.85 4.52-14.39 4.45-19.21-.41a16.6 16.6 0 0 1 13.21-4.67l-6.2-5.19c-5.79 3.75-11.41 8.13-18.45 3.07 3.19-4.76 6.26-6.23 13.15-6.29-1.09-.76-1.88-1.39-2.75-1.9-5.07-3-5.08-2.95-9.62 1-4.27 3.69-8.38 4.39-13.21 2 2.41-5.06 6.41-7.6 12.38-7.87l-2-2.34zm-173-.02l-2 2.33c5.94.31 9.94 2.83 12.47 8.05a9.82 9.82 0 0 1-8.82.59 16.48 16.48 0 0 1-3.81-2.17c-1.76-1.24-3.56-3.87-5.09-3.69-2.7.31-5.21 2.28-7.68 3.79 6.43.31 8.37 1.17 12.72 5.85-3.81 4.52-7.3 4.15-18.27-2.18l-6.26 4.82c5.27 0 9.59 1.25 13.22 4.81-4.2 4.86-9.73 5-19.11.4l-6.39 7.32c5.46-2.76 10.27-1.88 15 1.31-3.1 5.89-8.06 6.93-18.48 3.72l-5.32 9c5.49-3.94 10.35-4.43 15.8-1.55-2.38 4.17-5.62 6.52-10.1 7.12a20.56 20.56 0 0 1-2.64.07c-6.33 0-6.58.25-7.72 7.14 4.27-2.5 8.52-4.21 13.73-2.23a10.86 10.86 0 0 1-7.45 8.45 19.56 19.56 0 0 1-5.58 1.2c-2.94.16-4.16 1.69-4.47 4.4-.17 1.44-.5 2.87-.93 5.18a16 16 0 0 1 14.28-6.58c.11 5-2.65 7.86-6.07 10.27a12.69 12.69 0 0 1-2.79 1.31c-6.59 2.52-6.59 2.51-6.09 10a62.5 62.5 0 0 1 5.76-5.66 12.22 12.22 0 0 1 7.71-2.44c0 4.47-.94 8.14-4.21 10.86a30.39 30.39 0 0 1-5.14 3.38c-3.74 2-3.83 2-3 6 .2 1 .45 2 .68 3 1.55-2.12 2.82-4.44 4.65-6.19s4.22-2.93 6.8-4.66c2 4.84.9 8.49-1.46 11.8a27.5 27.5 0 0 1-4.68 4.65c-3.28 2.79-3.32 2.74-1.9 6.55.35.93.72 1.84 1.29 3.3a16.17 16.17 0 0 1 9.45-12.93c4.27 7 1.39 12.11-6.24 20.12l3.68 6.47c.2-6.53 2.9-10.88 7.22-14.75 3.58 3.54 3.51 7.6 2.66 11.61a19.74 19.74 0 0 1-2.79 5.93c-2.48 4-2.52 4.33.79 7.87.39.41.85.76 1.79 1.59-1.38-6.44.55-11.26 5-15.92 3 3.82 4.76 7.52 4 12a36.19 36.19 0 0 1-1.75 6.37c-1.58 4.39-1.54 4.59 3.35 7a17.1 17.1 0 0 1 2.73-15c5.55 3.45 7.68 9.11 6.24 15.86-1.22 5.75-1.22 5.75 5.12 9.47-3.71-6.1-4.11-11.64-.73-17.67 4.46 2.92 7.67 6.26 8.29 11.5a36.85 36.85 0 0 1 .11 4.41c0 5.73 0 5.73 6.31 7.69-3.79-5.37-5.85-10.7-3.52-17.25a15.4 15.4 0 0 1 10.3 9.15 5.36 5.36 0 0 1 .6 2.11c-.17 6.52 3.64 8.75 9.44 10.18a66.27 66.27 0 0 1 23 10.78c1.88 1.36 3.56 3 5.77 4.84l-3.25 3.46a69.34 69.34 0 0 0-37-17.89c-9.07 9.92-14.65 12.17-21.65 8.48a19.59 19.59 0 0 1 11.39-10.77c-4.42-3.39-4.78-3.35-9.22-.12-5 3.61-10.26 5.83-16.46 3.28a22.37 22.37 0 0 1-2.18-1.23c2.85-5.37 7.55-7.78 12.9-9.35-3.47-4.09-4-4.14-8.22-1.89-6.24 3.33-12.46 4.11-18.53-.48 2.28-4.51 7.89-7.16 15.07-7.55a37.83 37.83 0 0 1-3.73-3c-1.32-1.35-2.51-1.44-4.31-.83a31.55 31.55 0 0 1-8.11 1.71c-4.84.29-7.33-1-11.46-5.22a17.45 17.45 0 0 1 14.77-3.82c-1.52-4.83-2.9-5.75-7-5.21-4.94.66-9.74.36-13.84-2.9a43.72 43.72 0 0 1-3.68-3.78c5.4-3.42 10.38-4 16.33-.8-.81-1.79-1.39-2.89-1.81-4-.94-2.61-2.75-3.46-5.46-3.34A15.39 15.39 0 0 1 4.21 132a11.79 11.79 0 0 1-.86-2.11c5.15-2.56 9.85-1.11 14.54.87-.18-5.71-.21-5.72-5.48-7.28-4.28-1.26-8.52-2.63-10.64-7.1-.61-1.28-1-2.66-1.65-4.44C6 111 10.75 112 15 116.39c-.36-2.5-.67-4.49-.92-6.5-.28-2.33-2.27-2.48-3.87-3a14.42 14.42 0 0 1-9.32-8.7A25.12 25.12 0 0 1 0 94.06c5.11-.72 8.34.63 13 5.38.27-1.24.44-2.3.74-3.32.86-2.86-.12-4.64-2.8-6a14.12 14.12 0 0 1-7.83-9.6 30.84 30.84 0 0 1-.3-5.13c5.45.63 8 2.4 12.3 8.64.61-2.86 1.37-5.17 1.46-7.5 0-1-1.19-2.21-2.1-3-2.91-2.6-5.58-5.36-5.93-9.46a45.58 45.58 0 0 1 .36-6.45c6 2.08 8 4.23 10.39 11.12a28.08 28.08 0 0 1 1.49-3.4c2-3.28 1.7-6-.89-9.07-3.65-4.33-4.39-9.36-1.45-15.19 4.55 3.09 7.29 6.72 7.64 12.84l4.2-6.49c1.24-1.91-.11-3.39-.93-4.87a14.24 14.24 0 0 1-.75-13.14 11.78 11.78 0 0 1 1.44-2.05c4 2.76 5.17 5.08 5.88 12.69a74.64 74.64 0 0 0 5.31-5.48c.46-.58.21-1.88 0-2.8-.4-2.16-1.17-4.27-1.4-6.44-.42-4 .91-6.77 4.61-9.8 3.5 3.8 4 8.16 2.43 14a78.87 78.87 0 0 0 6.38-4.88 4.6 4.6 0 0 0 1-3c0-1.74-.4-3.5-.4-5.25 0-4.9 1.33-7 6.09-10 3 4.1 2.31 8.47.59 13.57 1.91-.84 3.16-1.49 4.46-1.95 2.88-1 4-2.85 3.84-6-.28-5.49 2.16-9.54 7.62-12 3 5.39.83 9.66-2.2 13.81z"/><path class="cls-1" d="M73.31 82.74a16.48 16.48 0 0 1 1.1-5.87 16 16 0 0 1 3.22-5.22 16.36 16.36 0 0 1 5.15-3.73 16.06 16.06 0 0 1 6.9-1.43 15.53 15.53 0 0 1 8 2 12.8 12.8 0 0 1 5 5.15l-5.8 4a6.74 6.74 0 0 0-1.4-2.14 7.65 7.65 0 0 0-3.93-2.12 10.77 10.77 0 0 0-2.07-.21 7.78 7.78 0 0 0-3.77.87 8.3 8.3 0 0 0-2.67 2.25 9.33 9.33 0 0 0-1.56 3.13A12.66 12.66 0 0 0 81 83a11.71 11.71 0 0 0 .6 3.73 9.91 9.91 0 0 0 1.72 3.17A8.33 8.33 0 0 0 86 92.1a7.76 7.76 0 0 0 3.56.81 9.18 9.18 0 0 0 2.09-.25 8.44 8.44 0 0 0 2.07-.78 7.39 7.39 0 0 0 1.82-1.38 6.46 6.46 0 0 0 1.33-2.09l6.2 3.59a9.59 9.59 0 0 1-2.19 3.22 13.47 13.47 0 0 1-3.33 2.39 18.31 18.31 0 0 1-8.14 2 14.64 14.64 0 0 1-6.51-1.45 16.47 16.47 0 0 1-5.11-3.84 17.58 17.58 0 0 1-3.31-5.43 17 17 0 0 1-1.17-6.15zm33.53 16.61V66.69h7.54v32.66zm21.34-18.68v18.68h-7.54V66.69h5.89l15.23 19.18V66.69h7.54v32.66h-6.07zm50.33 12.06v6.62h-23V66.69h22.54v6.62h-15v6.35H176v6.12h-12.9v6.95zm30.36 6.62V79.8L201.79 94h-4l-7.14-14.2v19.55h-7.54V66.69h8.19l8.46 17.07 8.51-17.07h8.14v32.66zm22.68-32.66h6.81l11.91 32.66h-7.73L240 92h-10.16l-2.48 7.31h-7.73zm7.22 20.15L235 75.29l-4 11.55zm-94.99 49.89v6.62h-23v-32.66h22.54v6.62h-15v6.35h12.88v6.12h-12.83v6.95zm9.66-26.04l7 15 7.13-15h8.23l-11.6 21.53v11.13h-7.5v-11.22l-11.45-21.44zm48.39 26.04v6.62h-23v-32.66h22.54v6.62h-15v6.35h12.93v6.12h-12.88v6.95zM79 45.39h-3.6v9.42h-2.19v-9.42h-3.63v-1.94H79zm11-1.94v11.36h-2.2V50h-5.15v4.85h-2.21v-11.4h2.21V48h5.15v-4.55zm10.25 9.42v1.94h-7.89V43.45h7.74v1.94h-5.53v2.74h4.78v1.79h-4.78v3zm10.37.07a2.53 2.53 0 0 0 1.32-.32 2.58 2.58 0 0 0 .86-.83 3.44 3.44 0 0 0 .46-1.18 6.79 6.79 0 0 0 .14-1.37v-5.79h2.19v5.79a8.29 8.29 0 0 1-.28 2.19 5 5 0 0 1-.88 1.79 4.21 4.21 0 0 1-1.54 1.22 5.22 5.22 0 0 1-2.26.45 5.15 5.15 0 0 1-2.31-.47 4.31 4.31 0 0 1-1.54-1.25 5 5 0 0 1-.86-1.8 8.5 8.5 0 0 1-.26-2.13v-5.79h2.21v5.79a6.87 6.87 0 0 0 .14 1.38 3.44 3.44 0 0 0 .46 1.18 2.41 2.41 0 0 0 2.15 1.14zm9.38-5.41v7.28h-2.21V43.45h1.71l5.92 7.46v-7.44h2.21v11.34h-1.79zm10 7.28V43.45h7.63v1.94h-5.42v2.93h4.51v1.79h-4.51v4.7zm13.8.08a5.16 5.16 0 0 1-2.26-.49 5.54 5.54 0 0 1-1.74-1.3 6 6 0 0 1-1.53-4 5.72 5.72 0 0 1 .42-2.18 6 6 0 0 1 1.17-1.84 5.56 5.56 0 0 1 1.77-1.27 5.24 5.24 0 0 1 2.22-.47 5 5 0 0 1 2.25.5 5.63 5.63 0 0 1 1.74 1.32A6.09 6.09 0 0 1 149 47a5.84 5.84 0 0 1 .4 2.11 5.74 5.74 0 0 1-.42 2.17 5.88 5.88 0 0 1-1.15 1.82 5.53 5.53 0 0 1-1.83 1.32 5.24 5.24 0 0 1-2.2.47zm-3.3-5.76a4.57 4.57 0 0 0 .22 1.42 3.79 3.79 0 0 0 .65 1.22 3.21 3.21 0 0 0 1 .85 3.22 3.22 0 0 0 2.82 0 3.22 3.22 0 0 0 1-.87 3.89 3.89 0 0 0 .64-1.22 4.53 4.53 0 0 0 .22-1.38 4.44 4.44 0 0 0-.23-1.42 3.91 3.91 0 0 0-.66-1.22 3.12 3.12 0 0 0-1-.84 3.24 3.24 0 0 0-2.81 0 3.16 3.16 0 0 0-1 .86 3.87 3.87 0 0 0-.63 1.22 4.53 4.53 0 0 0-.21 1.38zm10.5 5.68V43.45h5a3.23 3.23 0 0 1 1.45.33 3.74 3.74 0 0 1 1.14.86 4.08 4.08 0 0 1 .75 1.22 3.65 3.65 0 0 1 .27 1.37 3.78 3.78 0 0 1-.55 2 3.17 3.17 0 0 1-1.5 1.3l2.59 4.27h-2.48l-2.24-3.8h-2.18v3.81zm2.21-5.74H156a1.16 1.16 0 0 0 .57-.14 1.44 1.44 0 0 0 .46-.39 2 2 0 0 0 .3-.58 2.28 2.28 0 0 0 .11-.72 2 2 0 0 0-.13-.74 1.9 1.9 0 0 0-.34-.58 1.55 1.55 0 0 0-.5-.38 1.29 1.29 0 0 0-.57-.14h-2.67zm16.37 4.46a4.34 4.34 0 0 1-3.17 1.36 5 5 0 0 1-2.1-.45 5.31 5.31 0 0 1-1.71-1.23 5.89 5.89 0 0 1-1.15-1.85 6.15 6.15 0 0 1-.42-2.3 5.77 5.77 0 0 1 1.59-4 5.59 5.59 0 0 1 1.75-1.23 5.25 5.25 0 0 1 2.19-.46 5.33 5.33 0 0 1 2.74.67 4.35 4.35 0 0 1 1.7 1.81l-1.65 1.22a3.07 3.07 0 0 0-1.21-1.3 3.32 3.32 0 0 0-1.69-.45 2.88 2.88 0 0 0-1.32.3 3.08 3.08 0 0 0-1 .83 3.91 3.91 0 0 0-.66 1.22 4.54 4.54 0 0 0-.23 1.46 4.29 4.29 0 0 0 .26 1.5 3.8 3.8 0 0 0 .7 1.21 3.28 3.28 0 0 0 1.06.81 3 3 0 0 0 1.34.3 3.87 3.87 0 0 0 3-1.55v-.8h-2.29V49h4.11v5.84h-1.82zm11.6-.66v1.94h-7.89V43.45H181v1.94h-5.5v2.74h4.78v1.79h-4.78v3zm10.22-7.48h-3.63v9.42h-2.19v-9.42h-3.63v-1.94h9.46zm9.9 0h-3.63v9.42h-2.19v-9.42h-3.63v-1.94h9.46zm3.53-1.94h2l4.32 11.36h-2.27L207.77 52h-4l-1 2.83h-2.27zm2.54 7L205.8 46l-1.63 4.46zm14.13 1.43a2.58 2.58 0 0 1-1.08 2.18 3.7 3.7 0 0 1-1.17.56 5.08 5.08 0 0 1-1.42.19h-5.49V43.45h6.08a2.25 2.25 0 0 1 1.07.26 2.69 2.69 0 0 1 .82.66 3.06 3.06 0 0 1 .52.93 3.11 3.11 0 0 1-.23 2.61 2.54 2.54 0 0 1-1.22 1.09 2.92 2.92 0 0 1 1.54 1 3 3 0 0 1 .58 1.88zm-6.94-6.54v2.86h2.94a1.31 1.31 0 0 0 1-.38 1.41 1.41 0 0 0 .39-1.06 1.46 1.46 0 0 0-.36-1 1.17 1.17 0 0 0-.89-.38zm4.72 6.13a1.67 1.67 0 0 0-.1-.58 1.61 1.61 0 0 0-.28-.49 1.3 1.3 0 0 0-.42-.33 1.16 1.16 0 0 0-.53-.12h-3.39v3h3.28a1.44 1.44 0 0 0 .57-.11 1.36 1.36 0 0 0 .46-.31 1.52 1.52 0 0 0 .42-1zm3.94 3.34V43.45h2.21v9.42h5.79v1.94zm17.24-1.94v1.94h-7.89V43.45h7.74v1.94h-5.54v2.74h4.78v1.79h-4.78v3zm8.25-6.44a2.76 2.76 0 0 0-.41-.3 5 5 0 0 0-.72-.38 6.27 6.27 0 0 0-.92-.31 4 4 0 0 0-1-.13 2.26 2.26 0 0 0-1.36.34 1.11 1.11 0 0 0-.45.94 1 1 0 0 0 .17.58 1.45 1.45 0 0 0 .49.41 4.05 4.05 0 0 0 .81.32l1.13.3q.83.22 1.51.48a4.09 4.09 0 0 1 1.15.64 2.65 2.65 0 0 1 .73.92 3.06 3.06 0 0 1 .26 1.32 3.3 3.3 0 0 1-.34 1.56 2.89 2.89 0 0 1-.93 1 4 4 0 0 1-1.34.58 6.75 6.75 0 0 1-1.59.18 8.56 8.56 0 0 1-2.53-.38 7.82 7.82 0 0 1-2.24-1.09l1-1.9a3.06 3.06 0 0 0 .52.38 7.87 7.87 0 0 0 .89.46 6.86 6.86 0 0 0 1.14.39 5.12 5.12 0 0 0 1.28.16q1.82 0 1.82-1.17a1 1 0 0 0-.21-.62 1.77 1.77 0 0 0-.59-.45 5.7 5.7 0 0 0-.93-.35l-1.26-.31a10.29 10.29 0 0 1-1.42-.49 3.7 3.7 0 0 1-1-.62 2.34 2.34 0 0 1-.6-.83 2.89 2.89 0 0 1-.2-1.13 3.54 3.54 0 0 1 .32-1.54 3.11 3.11 0 0 1 .89-1.12 4 4 0 0 1 1.32-.68 5.47 5.47 0 0 1 1.62-.23 6.28 6.28 0 0 1 2.21.38 8.21 8.21 0 0 1 1.76.89zM93.05 153.49v12.78h-2.46v-5.45h-5.8v5.45h-2.48v-12.78h2.48v5.17h5.8v-5.17zm8.12 12.87a5.8 5.8 0 0 1-2.55-.55 6.24 6.24 0 0 1-2-1.46 6.76 6.76 0 0 1-1.72-4.47 6.42 6.42 0 0 1 .48-2.45 6.76 6.76 0 0 1 1.31-2.07 6.29 6.29 0 0 1 2-1.43 5.9 5.9 0 0 1 2.5-.53 5.62 5.62 0 0 1 2.53.57 6.32 6.32 0 0 1 2 1.49 6.83 6.83 0 0 1 1.26 2.09 6.58 6.58 0 0 1 .45 2.38 6.47 6.47 0 0 1-.47 2.44 6.64 6.64 0 0 1-1.3 2.05 6.23 6.23 0 0 1-2 1.42 5.91 5.91 0 0 1-2.49.52zm-3.71-6.48a5.14 5.14 0 0 0 .25 1.6 4.29 4.29 0 0 0 .73 1.37 3.63 3.63 0 0 0 1.17 1 3.63 3.63 0 0 0 3.17 0 3.63 3.63 0 0 0 1.17-1 4.38 4.38 0 0 0 .72-1.38 5.11 5.11 0 0 0 .24-1.56 5 5 0 0 0-.26-1.6 4.43 4.43 0 0 0-.74-1.37 3.53 3.53 0 0 0-1.17-.95 3.65 3.65 0 0 0-3.16 0 3.55 3.55 0 0 0-1.17 1 4.36 4.36 0 0 0-.71 1.37 5.11 5.11 0 0 0-.24 1.52zm14.35-1.8v8.19h-2.48v-12.78h1.93l6.66 8.39v-8.37h2.48v12.76h-2zm16.7 8.28a5.8 5.8 0 0 1-2.55-.55 6.24 6.24 0 0 1-2-1.46 6.76 6.76 0 0 1-1.72-4.47 6.42 6.42 0 0 1 .48-2.45 6.76 6.76 0 0 1 1.31-2.07 6.29 6.29 0 0 1 2-1.43 5.9 5.9 0 0 1 2.5-.53 5.62 5.62 0 0 1 2.53.57 6.32 6.32 0 0 1 2 1.49 6.83 6.83 0 0 1 1.26 2.09 6.58 6.58 0 0 1 .45 2.38 6.47 6.47 0 0 1-.47 2.44 6.64 6.64 0 0 1-1.3 2.05 6.23 6.23 0 0 1-2 1.42 5.91 5.91 0 0 1-2.49.52zm-3.71-6.48a5.14 5.14 0 0 0 .25 1.6 4.29 4.29 0 0 0 .73 1.37 3.63 3.63 0 0 0 1.17 1 3.63 3.63 0 0 0 3.17 0 3.63 3.63 0 0 0 1.17-1 4.38 4.38 0 0 0 .72-1.38 5.11 5.11 0 0 0 .24-1.56 5 5 0 0 0-.26-1.6 4.43 4.43 0 0 0-.74-1.37 3.53 3.53 0 0 0-1.17-.95 3.65 3.65 0 0 0-3.16 0 3.55 3.55 0 0 0-1.17 1 4.36 4.36 0 0 0-.71 1.37 5.11 5.11 0 0 0-.23 1.52zm11.87 6.39v-12.78h5.65a3.63 3.63 0 0 1 1.63.37 4.23 4.23 0 0 1 1.29 1 4.6 4.6 0 0 1 .85 1.37 4.11 4.11 0 0 1 .31 1.54 4.25 4.25 0 0 1-.62 2.26 3.56 3.56 0 0 1-1.68 1.47l2.92 4.81h-2.79L141.6 162h-2.45v4.28zm2.48-6.46h3.11a1.32 1.32 0 0 0 .64-.16 1.63 1.63 0 0 0 .51-.44 2.21 2.21 0 0 0 .34-.66 2.55 2.55 0 0 0 .13-.81 2.31 2.31 0 0 0-.14-.83 2.18 2.18 0 0 0-.39-.66 1.75 1.75 0 0 0-.56-.43 1.45 1.45 0 0 0-.64-.15h-3zm17.1-2.97a3.13 3.13 0 0 0-.46-.34 5.57 5.57 0 0 0-.81-.42 7 7 0 0 0-1-.35 4.51 4.51 0 0 0-1.13-.14 2.54 2.54 0 0 0-1.53.38 1.25 1.25 0 0 0-.5 1.06 1.09 1.09 0 0 0 .19.66 1.62 1.62 0 0 0 .55.46 4.59 4.59 0 0 0 .91.36l1.27.34q.94.25 1.7.54a4.6 4.6 0 0 1 1.3.72 3 3 0 0 1 .82 1 3.44 3.44 0 0 1 .29 1.49 3.7 3.7 0 0 1-.39 1.75 3.26 3.26 0 0 1-1 1.18 4.53 4.53 0 0 1-1.51.66 7.6 7.6 0 0 1-1.79.21 9.61 9.61 0 0 1-2.84-.43 8.77 8.77 0 0 1-2.52-1.22l1.1-2.14a3.43 3.43 0 0 0 .58.42 8.81 8.81 0 0 0 1 .52 7.68 7.68 0 0 0 1.28.44 5.76 5.76 0 0 0 1.44.18q2.05 0 2.05-1.31a1.08 1.08 0 0 0-.23-.7 2 2 0 0 0-.67-.5 6.41 6.41 0 0 0-1-.4l-1.37-.4a11.54 11.54 0 0 1-1.59-.55 4.17 4.17 0 0 1-1.12-.7 2.63 2.63 0 0 1-.68-.94 3.25 3.25 0 0 1-.22-1.27 4 4 0 0 1 .36-1.73 3.48 3.48 0 0 1 1-1.26 4.53 4.53 0 0 1 1.48-.76 6.14 6.14 0 0 1 1.82-.26 7.05 7.05 0 0 1 2.48.42 9.26 9.26 0 0 1 2 1zm10.82-3.35h2.2l4.86 12.78h-2.56l-1.19-3.19h-4.46l-1.17 3.19h-2.56zm2.86 7.85l-1.76-5-1.84 5zm8.91-7.81h2.29l1.44 4.23 1.44-4.23h2.3l-2.18 5.81 1.62 4.09 3.62-9.94h2.7l-5.2 12.78h-2.09l-2.21-5.36-2.21 5.36h-2.09l-5.17-12.78h2.66l3.64 9.94 1.58-4.09zm17.08-.04h2.2l4.88 12.78h-2.56l-1.19-3.19h-4.46l-1.17 3.19H191zm2.86 7.85l-1.76-5-1.84 5zm5.6 4.93v-12.78H210a3.63 3.63 0 0 1 1.63.37 4.23 4.23 0 0 1 1.29 1 4.6 4.6 0 0 1 .85 1.37 4.11 4.11 0 0 1 .31 1.54 4.25 4.25 0 0 1-.62 2.26 3.56 3.56 0 0 1-1.68 1.47l2.92 4.81h-2.79l-2.59-4.31h-2.45v4.28zm2.48-6.46H210a1.32 1.32 0 0 0 .64-.16 1.63 1.63 0 0 0 .51-.44 2.21 2.21 0 0 0 .34-.66 2.55 2.55 0 0 0 .13-.81 2.31 2.31 0 0 0-.14-.83 2.18 2.18 0 0 0-.39-.66 1.75 1.75 0 0 0-.56-.43 1.45 1.45 0 0 0-.64-.15h-3zm9.49 6.46v-12.78H221a6.94 6.94 0 0 1 2.75.5 5.51 5.51 0 0 1 3.16 3.39 7.62 7.62 0 0 1 .4 2.47 7.48 7.48 0 0 1-.44 2.64 5.63 5.63 0 0 1-1.27 2 5.73 5.73 0 0 1-2 1.3 7 7 0 0 1-2.6.46zm8.44-6.41a5.47 5.47 0 0 0-.25-1.69 3.8 3.8 0 0 0-.74-1.33 3.3 3.3 0 0 0-1.2-.86 4 4 0 0 0-1.61-.31h-2.16v8.42H221a3.9 3.9 0 0 0 1.63-.32 3.34 3.34 0 0 0 1.19-.89 4 4 0 0 0 .73-1.34 5.41 5.41 0 0 0 .25-1.68zm12.07-3.02a3.13 3.13 0 0 0-.46-.34 5.57 5.57 0 0 0-.81-.42 7 7 0 0 0-1-.35 4.51 4.51 0 0 0-1.13-.14 2.54 2.54 0 0 0-1.53.38 1.25 1.25 0 0 0-.5 1.06 1.09 1.09 0 0 0 .19.66 1.62 1.62 0 0 0 .55.46 4.59 4.59 0 0 0 .91.36l1.27.34q.94.25 1.7.54a4.6 4.6 0 0 1 1.3.72 3 3 0 0 1 .82 1 3.44 3.44 0 0 1 .29 1.49 3.7 3.7 0 0 1-.39 1.75 3.26 3.26 0 0 1-1 1.18 4.53 4.53 0 0 1-1.51.66 7.6 7.6 0 0 1-1.79.21 9.61 9.61 0 0 1-2.84-.43 8.77 8.77 0 0 1-2.52-1.22l1.1-2.14a3.43 3.43 0 0 0 .58.42 8.81 8.81 0 0 0 1 .52 7.68 7.68 0 0 0 1.28.44 5.76 5.76 0 0 0 1.44.18q2.05 0 2.05-1.31a1.08 1.08 0 0 0-.23-.7 2 2 0 0 0-.67-.5 6.41 6.41 0 0 0-1-.4l-1.37-.4a11.54 11.54 0 0 1-1.59-.55 4.17 4.17 0 0 1-1.12-.7 2.63 2.63 0 0 1-.68-.94 3.25 3.25 0 0 1-.22-1.27 4 4 0 0 1 .36-1.73 3.48 3.48 0 0 1 1-1.26 4.53 4.53 0 0 1 1.48-.76 6.14 6.14 0 0 1 1.82-.26 7.05 7.05 0 0 1 2.48.42 9.26 9.26 0 0 1 2 1z"/></g></g></svg>