<svg xmlns="http://www.w3.org/2000/svg" viewBox="0 0 99.97 19.52"><title>dailydot-black</title><g data-name="Layer 1-2"><path d="M4.68 5.11c-2 2.58-2.16 5.35-.52 7 1.18-.46 1.64-3.49.79-5.4L7.54 5.4C5.93 5 4.64 4.52 3.3 4.29A2.49 2.49 0 0 0 .65 5.66c-.15.25-.31.5-.5.8a3.53 3.53 0 0 1 3.24-4.65 18.36 18.36 0 0 1 3.68.77c.63.15 1.23.42 1.85.59a2.72 2.72 0 0 0 2.8-.84c.48 1.6-.19 2.67-2.13 3.46v7.49l2.67-2.09a2.05 2.05 0 0 1 0 .53c-.84 3-3.81 4.55-7.3 3.85a5.23 5.23 0 0 1-4.4-6.14 5.49 5.49 0 0 1 4.12-4.32zm-.14 7.38a6.2 6.2 0 0 0 4.41.75V5.67l-1.14-.18v4a2 2 0 0 1-1.2 2c-.64.31-1.27.66-2.08 1.08zm74.87-8.41c-1 0-2 .06-3 0A2.63 2.63 0 0 1 74 2a1.84 1.84 0 0 1 .69-2c0 1.26.88 1.34 1.74 1.36h4.62c2.62 0 3.77 1.16 3.78 3.75v6.88a1.26 1.26 0 0 1-.65 1.25c-1.14.69-2.23 1.46-3.34 2.19-2.95-1.94-4.22-1.91-7 .12.09-2.35 1.73-3.4 5.59-3.57zm.62.14v7.62a.93.93 0 0 0 .41.62c.45.3.94.53 1.51.85 0-.4.05-.73.05-1.05V5.78C82 4 82 4 80 4.22zM38.39 15.48c-2.44-1.94-4.22-1.9-7 .08.1-2.3 1.61-3.28 5.61-3.56V4.08c-1 0-2 .06-3 0a2.53 2.53 0 0 1-2.48-2.51A3.65 3.65 0 0 1 32.08 0c.26 1.28 1.18 1.36 2.12 1.37h4.73c2.22 0 3.45 1.2 3.49 3.42.05 2.47 0 4.93 0 7.4a1.3 1.3 0 0 1-.47.91c-1.15.83-2.33 1.57-3.56 2.38zM37.6 4.2v7.59a.91.91 0 0 0 .38.62c.47.32 1 .56 1.56.87V4.2zm29.06 3.7l2.21-2.05 1.74 1.39v6.56c-.08 2.8-1.66 4.52-4.11 5.62-2.5-1.96-4.5-1.92-6.86.1a2.9 2.9 0 0 1 1.56-2.79c1.85-1.21 4-1 6.76.68v-3.52A16.54 16.54 0 0 0 66.08 15a1.37 1.37 0 0 1-2.08-.21 9 9 0 0 0-.95-.74c.66-1.84.27-3.71.29-5.55 0-.72-.64-.79-1.3-.54l2.24-2.12 1.76 1.4v5.41c0 .33.43.65.67 1 .4-.32 1.1-.6 1.14-1a26.19 26.19 0 0 0 0-4.11c.04-.68-.46-.9-1.19-.64zM15.59 1.77v5.74l.19.13 1.49-2.05c1.09.78 1.86 1.27 2.55 1.87a1.51 1.51 0 0 1 .34 1v4c0 1 .37 1.18 1.33.87l-2.29 2.13-1.68-1.37a49.25 49.25 0 0 0-.06-4.93c0-.43-.86-.79-1.33-1.18a3.84 3.84 0 0 0-.53 1.18 20.94 20.94 0 0 0 0 3.08 7.43 7.43 0 0 0 .49 1.58l-1.6 1.54-1.64-1.19c.16-3.68.15-7.07 0-10.68zm28.1 11.98V9.54a1.5 1.5 0 0 1 1-1.66 33.49 33.49 0 0 0 3.05-1.68 1 1 0 0 1 1.29 0c.66.53 1.39 1 1.92 1.36v5.36c0 .31.46.59.77 1L50 15.5c-.09 0-.18 0-.22-.06a1.83 1.83 0 0 0-2.88-.23 1.28 1.28 0 0 1-1.13 0c-.77-.5-1.52-1.08-2.08-1.46zm4.51.43V9.79c0-1.63-.16-1.85-1.83-2.47a40.92 40.92 0 0 1 0 4.29c-.18 1.39.69 1.95 1.83 2.57zm45.24-6.67v4.55a1.15 1.15 0 0 1-.67 1.22c-1.12.59-2.17 1.28-3.29 1.86a1.31 1.31 0 0 1-1.07 0c-.82-.47-1.58-1.06-2.17-1.46V9.16A1.13 1.13 0 0 1 86.95 8c1.15-.59 2.26-1.28 3.42-1.85a1.34 1.34 0 0 1 1.08 0c.72.41 1.4.94 1.99 1.36zm-4.52-.3v4.44c0 1.36.41 1.88 1.85 2.32a36.33 36.33 0 0 1 0-3.9 2.4 2.4 0 0 0-1.85-2.86zm6.27 6.55V7.43l-1.39-.14 1.44-1.66c-.53-2.11 1.76-2 2.88-2.91L97.95 6l2 .1c0 1.38-1 1.29-2 1.23v5c0 .28.39.58.66.8a7 7 0 0 0 .94.58.53.53 0 0 1 0 .13c-1.49 1.71-1.49 1.71-3.4.49z"/><path d="M59.12 1.85a2.27 2.27 0 0 1 .25.12A2.9 2.9 0 0 1 61 5a66.4 66.4 0 0 0-.07 7.38c0 1.05.25 1.23 1.42.85L60 15.5l-1.72-1.37V4.6c0-.82-.57-.91-1.3-.72zm-30.4 7.07l-3.1 1.72a1.45 1.45 0 0 0 0 2.58c.38.23.76.45 1.15.67l1.19-1 .15.16c-.82.73-1.62 1.47-2.47 2.16a.8.8 0 0 1-.71 0c-1-.52-1.89-1.08-2.71-1.55v-4.7A1.15 1.15 0 0 1 23 7.71c1.33-.62 2.62-1.29 4-2zm-2.37 1l-1.27-2.54-.16.08v3.26zm30.98 3.43l-2.27 2.15c-.59-.47-1.15-.9-1.68-1.37a.71.71 0 0 1-.21-.5c0-1.66.14-3.32.12-5 0-.37-.45-.74-.77-1.23l1.72-1.66L56 7.19c0 2-.05 3.84 0 5.67.07.86.71.68 1.33.49zm18.38-6.11c.12-2 1.62-2.17 2.86-2.58 0 1.44-.05 2.85 0 4.26a2.37 2.37 0 0 1-1.53 2.51c-.6.27-1.18.59-1.6.8l.43-2.88-.31-.24-1.26.89a5 5 0 0 1-.3-1.59c.07-.9.81-1.18 1.71-1.17zM36.15 4.7v2.93c0 3.23-.13 3.42-3.12 4.55l.51-2.85-.34-.23-1.33.9c-.09-.52-.43-1.21-.22-1.64A3.91 3.91 0 0 1 33.21 7c.42-1.43.94-1.86 2.94-2.3zm16.64-.86l1.59-1.66 1.54 1.25-1.64 1.64z"/></g></svg>