<svg xmlns="http://www.w3.org/2000/svg" viewBox="0 0 486.53 95.03"><title>dailydot-black</title><g data-name="Layer 1"><path d="M22.75 24.85C13.1 37.41 12.22 50.91 20.22 58.7c5.73-2.23 8-17 3.84-26.26l12.63-6.16c-7.81-2.1-14.13-4.28-20.62-5.41-5.57-1-10 1.75-12.92 6.66-.72 1.22-1.49 2.41-2.41 3.89C-2.54 20.15 5.42 8.47 16.48 8.8c6 .18 12 2.29 17.91 3.73 3.06.74 6 2.05 9 2.87 5.26 1.41 9.78-.19 13.61-4.11 2.35 7.78-.94 13-10.36 16.83v36.44l13-10.17a10 10 0 0 1 0 2.6C55.53 71.5 41.08 79.12 24.11 75.75c-15-3-23.35-14.6-21.41-29.87 1.19-9.43 9.83-18.7 20.05-21.03zm-.7 35.94c7.29 4.32 14.12 4.83 21.47 3.66V27.62L38 26.73c0 6.69-.07 13 0 19.23a9.68 9.68 0 0 1-5.83 9.57c-3.1 1.53-6.17 3.19-10.11 5.26zm364.46-40.94c-4.92 0-9.72.28-14.48-.07A12.78 12.78 0 0 1 360 9.55c-.84-3.85-.11-6 3.36-9.55-.07 6.11 4.3 6.51 8.45 6.64 7.49.22 15 .06 22.49.11 12.74.09 18.36 5.64 18.41 18.25 0 11.16-.07 22.33.06 33.49 0 2.75-.63 4.56-3.14 6.08-5.55 3.36-10.87 7.09-16.25 10.65-14.35-9.42-20.52-9.3-34.13.58.44-11.42 8.41-16.56 27.22-17.4zm3 .67c0 12.5 0 24.79.09 37.08a4.51 4.51 0 0 0 2 3c2.17 1.46 4.56 2.6 7.37 4.14.1-1.93.25-3.53.26-5.13V28.13c.04-8.66.04-8.66-9.7-7.6zm-202.64 54.8c-11.87-9.43-20.54-9.26-33.87.38.27-11.14 7.7-15.91 27.3-17.38V19.86c-5 0-9.81.3-14.56-.07-7.11-.56-12.17-5.73-12.07-12.24 0-2.46 1.17-4.9 2.48-7.53 1.28 6.23 5.76 6.63 10.31 6.68 7.66.09 15.33 0 23 .06 10.8.15 16.77 5.82 17 16.65.26 12 .15 24 0 36a6.31 6.31 0 0 1-2.28 4.42c-5.58 3.95-11.36 7.58-17.31 11.49zM183 20.44c0 12.7 0 24.83.08 36.94a4.42 4.42 0 0 0 1.87 3c2.29 1.54 4.81 2.73 7.59 4.25V20.44zm141.46 17.99l10.74-10 8.48 6.78v13.24c0 6.16.06 12.33-.11 18.49-.38 13.62-8.06 22-20 27.36-12.3-9.31-22-9.13-33.31.72-.67-5.13 2-9.92 7.58-13.57 9-5.87 19.43-4.94 32.89 3.33V67.59c-3.47 1.94-6.54 3.24-9.11 5.19-3.76 2.86-6.81 2.4-10-.78a43.55 43.55 0 0 0-4.62-3.61c3.2-8.95 1.33-18.07 1.41-27 0-3.51-3.13-3.84-6.32-2.65L313 28.42l8.56 6.82c0 9.17-.17 17.76.15 26.33.06 1.62 2.11 3.16 3.24 4.74 1.94-1.54 5.37-2.94 5.54-4.66a127.45 127.45 0 0 0 .15-20c-.22-3.37-2.64-4.46-6.18-3.22zM75.89 8.63v27.94l.91.64 7.24-10c5.3 3.81 9.07 6.2 12.41 9.08 1.12 1 1.58 3.17 1.64 4.84.22 6.48.09 13 .22 19.46.09 4.73 1.79 5.73 6.46 4.24L93.6 75.19l-8.18-6.68c0-8.54.48-16.32-.31-24-.22-2.11-4.2-3.83-6.46-5.73-.91 1.92-2.45 3.78-2.6 5.76a101.92 101.92 0 0 0 0 15c.18 2.47 1.46 4.85 2.39 7.71l-7.77 7.49-8-5.81c.76-17.9.74-34.43 0-52zm136.75 58.3c0-7.7.24-14.12-.09-20.51-.2-4 1-6.37 4.71-8.1a163 163 0 0 0 14.86-8.19c2.27-1.35 4-1.63 6.26.17 3.22 2.59 6.75 4.81 9.34 6.62 0 9.2-.17 17.65.16 26.08.06 1.49 2.26 2.89 3.75 4.66l-8.25 7.78c-.45-.12-.88-.1-1.06-.3-4.32-4.89-8.79-5.38-14-1.13-1.1.89-4 .59-5.5-.24-3.92-2.19-7.47-4.98-10.18-6.84zM234.59 69V47.66c0-7.94-.76-9-8.91-12 0 7 .57 14-.16 20.89S229.06 66 234.59 69zm220.2-32.45c0 8-.11 15.07.06 22.15.07 2.79-.66 4.56-3.27 5.93-5.43 2.86-10.58 6.24-16 9.05a6.36 6.36 0 0 1-5.22 0c-4-2.3-7.7-5.15-10.57-7.13 0-7.9.15-15-.07-22-.09-2.93.92-4.5 3.47-5.81 5.61-2.88 11-6.21 16.63-9a6.51 6.51 0 0 1 5.25.18c3.55 2.02 6.83 4.61 9.72 6.63zm-22-1.47V56.7c0 6.63 2 9.15 9 11.29 0-6.38-.54-12.76.14-19 .73-7.06-1.75-11.45-9.14-13.91zm30.49 31.87V36.16l-6.76-.69 7-8.08c-2.6-10.29 8.58-9.5 14-14.17l-.8 16.16 9.86.5c-.05 6.73-4.79 6.26-9.66 6 0 8.46-.15 16.42.15 24.35.05 1.36 1.91 2.82 3.2 3.9a33.86 33.86 0 0 0 4.56 2.8 2.58 2.58 0 0 1-.24.62c-7.24 8.32-7.24 8.32-16.54 2.39-1.74-1.09-3.43-2.14-4.77-2.99z"/><path d="M287.76 9c.64.31.95.42 1.21.6 5.36 3.52 8.73 7.17 7.89 14.93-1.28 11.84-.37 23.93-.32 35.91 0 5.13 1.21 6 6.92 4.13l-11.67 10.86-8.36-6.66c0-15.95.1-31.16-.07-46.36 0-4-2.79-4.44-6.32-3.51zM139.77 43.41c-5.23 2.9-10.18 5.6-15.1 8.36-5.21 2.93-5.32 9.42-.22 12.56 1.83 1.13 3.72 2.18 5.6 3.28l5.8-4.71.71.79c-4 3.53-7.88 7.14-12 10.5a3.89 3.89 0 0 1-3.46 0c-4.68-2.51-9.22-5.26-13.19-7.56 0-8 .16-15.42-.08-22.86-.1-3.15 1-4.77 3.82-6.06 6.45-3 12.76-6.3 19.39-9.62zm-11.52 4.89l-6.19-12.37-.78.39v15.85zM279.05 65L268 75.48c-2.86-2.3-5.59-4.39-8.19-6.65a3.46 3.46 0 0 1-1-2.41c.18-8.09.7-16.18.57-24.26 0-1.82-2.19-3.61-3.77-6l8.39-8.08 8.64 6.92c0 9.78-.26 18.71.11 27.61.17 4.18 3.25 3.29 6.3 2.39zm89.46-29.77c.59-9.64 7.88-10.57 13.9-12.58 0 7-.25 13.87.08 20.72.29 6-2.16 9.82-7.46 12.23-2.93 1.33-5.76 2.86-7.8 3.89l2.09-14-1.52-1.16-6.16 4.31c-.5-2.23-1.87-5.07-1.58-7.73.46-4.35 4.06-5.72 8.45-5.68zM175.92 22.86v14.3c0 15.73-.64 16.64-15.18 22.15l2.5-13.86-1.64-1.16-6.51 4.28c-.43-2.53-2.08-5.89-1.08-8 1.33-2.8 4.73-4.61 7.63-6.42 2.03-7.03 4.57-9.15 14.28-11.29zm81.02-4.15l7.75-8.09 7.51 6.08-8 8z"/></g></svg>