<svg xmlns="http://www.w3.org/2000/svg" viewBox="0 0 104.95 67.93"><defs><style>.cls-1{fill:#ef5035}</style></defs><title>docufest-laurel-red</title><g id="Layer_2" data-name="Layer 2"><g id="Layer_1-2" data-name="Layer 1"><g id="Layer_2-2" data-name="Layer 2"><g id="Layer_1-2-2" data-name="Layer 1-2"><path class="cls-1" d="M80.76 4.5a4.29 4.29 0 0 1-.88-4.39 3.11 3.11 0 0 1 2.61 3.22c-.13 1.91.94 2.52 2.37 3h.26c-.51-2.59-.48-2.87.39-4.22A3.37 3.37 0 0 1 87.39 6C87 7.61 87.72 8.41 89 9.06c.16.09.31.22.65.45a4.87 4.87 0 0 1 .78-4.38c1.81.89 2 2.24 1 5.92.23.25.5.52.74.82a4.93 4.93 0 0 0 1 1.08c.33-1.63.58-3.11 2.1-4.16.92 1.37 1.36 2.91.54 4.21-1.1 1.72-.48 2.94.52 4.24l.18.15A4.81 4.81 0 0 1 99 13.48a3.61 3.61 0 0 1 .33 3.47 6.28 6.28 0 0 1-1.17 2 1.31 1.31 0 0 0-.27 1.56c.27.61.52 1.22.89 2.08a4.7 4.7 0 0 1 3-3.74 3.35 3.35 0 0 1-.9 4.51c-1.5 1.18-1.47 2.36-.77 4a5.37 5.37 0 0 1 3.81-2.77 3.47 3.47 0 0 1-.88 3.59 5.33 5.33 0 0 1-1.57 1.24 1.54 1.54 0 0 0-1 2.08 9.07 9.07 0 0 1 .18 1 5.51 5.51 0 0 1 4.2-1.94 4.13 4.13 0 0 1 0 1.06 4.57 4.57 0 0 1-3.15 3.29c-1 .3-1.46.77-1.41 1.8a7.82 7.82 0 0 1-.23 1.39 5 5 0 0 1 4.74-1.56 3.37 3.37 0 0 1-1.7 2.9 8.66 8.66 0 0 1-2.11.88c-1.69.48-1.7.45-1.89 2.29 2.94-.82 3.07-.83 4.83-.14a4.92 4.92 0 0 1-2.59 2.53 3.63 3.63 0 0 1-1.67.37c-1.77-.24-2.5.73-2.88 2.24 2.32-.74 3.12-.69 5.05.4a4.24 4.24 0 0 1-3.36 2.29 7.23 7.23 0 0 1-2 0c-1.61-.16-1.78-.08-2.56 1.63a6.31 6.31 0 0 1 4.92 1.31c-2.19 2.5-4.66 1.87-7.23.89l-1.67 1.55a21.48 21.48 0 0 1 2.72.63A3.64 3.64 0 0 1 94.81 58c-1.7 1.45-3.52 1.35-5.41.62a5.66 5.66 0 0 1-.65-.3c-1.42-.77-1.42-.77-2.86.49A7.24 7.24 0 0 1 90.27 62a4.58 4.58 0 0 1-3.86.55 5.93 5.93 0 0 1-2.14-1.14c-1.07-1.08-2.06-1-3.28-.13a6.43 6.43 0 0 1 3.81 3.59c-2.18 1.27-4.24.44-7-2.78a22.73 22.73 0 0 0-12 5.88l-1-1a8.8 8.8 0 0 1 3.69-2.89 56.33 56.33 0 0 1 6.81-2.7 2.1 2.1 0 0 0 1.77-2A5.06 5.06 0 0 1 79.72 55a5.55 5.55 0 0 1 .77-.28c.94 1.49.65 3.08-.87 5.44 1.92-.37 2-.4 1.92-2.25a5.35 5.35 0 0 1 2-4.83 2.61 2.61 0 0 1 .48-.3.75.75 0 0 1 .28 0c1 1.68 1 3-.13 5.55.35-.21.58-.33.81-.48 1.21-.77 1.23-.78.85-2.16a5.13 5.13 0 0 1 .68-4.57A11.84 11.84 0 0 1 87.64 50a5.55 5.55 0 0 1 1 4.9c1.4-.37 1.63-.74 1.1-2-.74-1.82-1-3.61.14-5.37.13-.2.3-.36.56-.68a5.59 5.59 0 0 1 1.84 4.65c1.43-.86 1.54-1.22.73-2.45a5.07 5.07 0 0 1-.74-5.16 7.33 7.33 0 0 1 .5-.78A5.93 5.93 0 0 1 95.24 48l1.29-2.17c-1.8-1.83-3.47-3.64-2.23-6.61a5.31 5.31 0 0 1 3.27 4.32l.3-.82c.57-1.51.57-1.51-.7-2.6-1.11-1-2.12-2-2.13-3.59a12.12 12.12 0 0 1 .14-1.36c1.86.43 2.64 1.12 3.92 3.32.07-.33.14-.58.2-.86.33-1.48.33-1.49-1.05-2.18a4.86 4.86 0 0 1-3-3.8 1.63 1.63 0 0 1 0-.43 2 2 0 0 1 .22-.42 5.68 5.68 0 0 1 4.27 2.71v-.83c0-1.73 0-1.72-1.61-2.31a4.52 4.52 0 0 1-3.43-3.88 4.64 4.64 0 0 1 4.7 2.17c-.08-.6-.11-.88-.15-1.17s-.11-.65-.18-1a1.1 1.1 0 0 0-1.06-1 12.19 12.19 0 0 1-2-.4 3.53 3.53 0 0 1-2.52-2.66c1.17-.7 1.86-.63 4.5.52-.15-.53-.27-1-.41-1.41a1.17 1.17 0 0 0-1.31-.88 11.6 11.6 0 0 1-1.58 0 4.35 4.35 0 0 1-3.5-2.33 4.48 4.48 0 0 1 5.17.5l-1.71-3c-2.29.86-4.42 1.23-6.18-1.09a4.55 4.55 0 0 1 5-.51l-2.05-2.38c-3.22 1.48-4.7 1.45-6.27-.13a5.42 5.42 0 0 1 4.31-1.52l-2-1.69c-1.89 1.22-3.73 2.65-6 1 1-1.55 2-2 4.29-2.05-.36-.25-.61-.45-.9-.62-1.66-1-1.66-1-3.14.33a3.56 3.56 0 0 1-4.31.65 4.3 4.3 0 0 1 4-2.57l-.65-.76zm-56.49-.01l-.65.76a4.38 4.38 0 0 1 4.07 2.63 3.21 3.21 0 0 1-2.88.19 5.38 5.38 0 0 1-1.24-.71C23 7 22.4 6.1 21.91 6.16A6.84 6.84 0 0 0 19.4 7.4a4.7 4.7 0 0 1 4.15 1.91c-1.24 1.48-2.38 1.36-6-.71l-2 1.57a5.75 5.75 0 0 1 4.32 1.57c-1.37 1.59-3.18 1.63-6.24.13l-2.09 2.39a4.49 4.49 0 0 1 4.9.43c-1 1.92-2.63 2.26-6 1.21l-1.78 2.94a4.46 4.46 0 0 1 5.16-.51 4.28 4.28 0 0 1-3.3 2.32 6.71 6.71 0 0 1-.86 0c-2.07 0-2.15.08-2.52 2.33 1.39-.82 2.78-1.37 4.48-.73A3.55 3.55 0 0 1 9.19 25a6.39 6.39 0 0 1-1.82.39 1.39 1.39 0 0 0-1.46 1.44c-.06.47-.16.94-.3 1.69a5.22 5.22 0 0 1 4.66-2.15 3.82 3.82 0 0 1-2 3.35 4.14 4.14 0 0 1-.91.43c-2.15.82-2.15.82-2 3.27a20.41 20.41 0 0 1 1.88-1.85 4 4 0 0 1 2.52-.8 4.23 4.23 0 0 1-1.37 3.55 9.92 9.92 0 0 1-1.68 1.1c-1.22.65-1.25.65-1 2 .07.33.15.65.22 1a14.65 14.65 0 0 1 1.52-2 16.77 16.77 0 0 1 2.22-1.52 3.67 3.67 0 0 1-.48 3.85 9 9 0 0 1-1.53 1.52c-1.07.91-1.08.89-.62 2.14.11.3.24.6.42 1.08a5.28 5.28 0 0 1 3.09-4.22c1.39 2.29.45 4-2 6.57l1.2 2.11a6.32 6.32 0 0 1 2.36-4.82 3.76 3.76 0 0 1 .89 3.76 6.45 6.45 0 0 1-.91 1.94c-.81 1.31-.82 1.41.26 2.57.13.13.28.25.58.52a5.34 5.34 0 0 1 1.63-5.2 4.84 4.84 0 0 1 1.31 3.92 11.82 11.82 0 0 1-.57 2.08c-.52 1.43-.5 1.5 1.09 2.29a5.58 5.58 0 0 1 .89-4.9 4.57 4.57 0 0 1 2 5.18c-.4 1.88-.4 1.88 1.67 3.09a5.24 5.24 0 0 1-.24-5.77 5.16 5.16 0 0 1 2.71 3.75 12 12 0 0 1 0 1.44c0 1.87 0 1.87 2.06 2.51-1.24-1.75-1.91-3.49-1.15-5.63a5 5 0 0 1 3.36 3 1.75 1.75 0 0 1 .2.69c-.06 2.13 1.19 2.86 3.08 3.32a21.64 21.64 0 0 1 7.51 3.52c.61.44 1.16 1 1.88 1.58l-1 1.11a22.64 22.64 0 0 0-12.08-5.84c-3 3.24-4.78 4-7.07 2.77a6.4 6.4 0 0 1 3.72-3.52c-1.44-1.11-1.56-1.09-3 0-1.63 1.18-3.35 1.9-5.37 1.07a7.3 7.3 0 0 1-.71-.4A6.36 6.36 0 0 1 19 58.89c-1.13-1.34-1.31-1.35-2.68-.62-2 1.09-4.07 1.34-6.05-.16.74-1.47 2.58-2.34 4.92-2.47a12.35 12.35 0 0 1-1.22-1 1.16 1.16 0 0 0-1.41-.27A10.3 10.3 0 0 1 10 55c-1.58.09-2.39-.33-3.74-1.7A5.7 5.7 0 0 1 11 52c-.5-1.58-.95-1.88-2.29-1.7a5.67 5.67 0 0 1-4.52-.95A14.27 14.27 0 0 1 3 48.13a4.79 4.79 0 0 1 5.33-.26c-.26-.58-.45-.94-.59-1.31A1.57 1.57 0 0 0 6 45.47a5 5 0 0 1-4.62-2.38 3.85 3.85 0 0 1-.28-.69c1.68-.84 3.22-.36 4.75.28-.06-1.86-.07-1.87-1.79-2.38-1.41-.4-2.79-.85-3.48-2.3-.2-.42-.33-.87-.54-1.45A5.05 5.05 0 0 1 4.9 38c-.12-.82-.22-1.47-.3-2.12s-.74-.81-1.26-1A4.71 4.71 0 0 1 .29 32 8.2 8.2 0 0 1 0 30.7c1.67-.24 2.72.21 4.24 1.76.09-.4.14-.75.24-1.08a1.48 1.48 0 0 0-.91-2A4.61 4.61 0 0 1 1 26.28a10.07 10.07 0 0 1-.1-1.67c1.78.21 2.61.78 4 2.82A15.5 15.5 0 0 0 5.41 25c0-.33-.39-.72-.69-1a4.76 4.76 0 0 1-1.94-3.09 14.88 14.88 0 0 1 .12-2.11c2 .68 2.61 1.38 3.39 3.63a9.17 9.17 0 0 1 .49-1.11 2.25 2.25 0 0 0-.29-3 4.19 4.19 0 0 1-.47-5 5 5 0 0 1 2.5 4.28l1.37-2.12c.4-.62 0-1.11-.3-1.59a4.65 4.65 0 0 1-.25-4.29 3.85 3.85 0 0 1 .47-.67c1.31.9 1.69 1.66 1.92 4.14a24.37 24.37 0 0 0 1.73-1.79c.15-.19.07-.61 0-.91-.13-.71-.38-1.39-.46-2.1a3.33 3.33 0 0 1 1.51-3.2c1.14 1.24 1.31 2.66.79 4.57A25.75 25.75 0 0 0 17.39 8a1.5 1.5 0 0 0 .33-1c0-.57-.13-1.14-.13-1.71 0-1.6.43-2.29 2-3.27 1 1.34.75 2.77.19 4.43.62-.27 1-.49 1.46-.64a1.71 1.71 0 0 0 1.25-2A3.79 3.79 0 0 1 25 0c1 1.76.27 3.15-.72 4.51z"/><path class="cls-1" d="M17.22 39v-9.75h3.63a5.38 5.38 0 0 1 2.11.39 4.24 4.24 0 0 1 2.43 2.58 5.68 5.68 0 0 1 .31 1.88 5.6 5.6 0 0 1-.33 2 4.32 4.32 0 0 1-1 1.53 4.4 4.4 0 0 1-1.53 1 5.46 5.46 0 0 1-2 .35zm6.2-4.9a3.79 3.79 0 0 0-.17-1.17 2.63 2.63 0 0 0-.5-.91 2.19 2.19 0 0 0-.81-.59 2.73 2.73 0 0 0-1.08-.21h-1.39V37h1.38a2.61 2.61 0 0 0 1.1-.22 2.22 2.22 0 0 0 .8-.61 2.77 2.77 0 0 0 .49-.91 3.74 3.74 0 0 0 .17-1.15zm7.89 4.97a4.53 4.53 0 0 1-2-.42 4.86 4.86 0 0 1-1.54-1.1 5.08 5.08 0 0 1-1-1.58 5 5 0 0 1-.35-1.84 5 5 0 0 1 2.91-4.52 4.66 4.66 0 0 1 2-.4 4.53 4.53 0 0 1 2 .42 4.82 4.82 0 0 1 1.52 1.12 5.07 5.07 0 0 1 1 1.59 5 5 0 0 1 .34 1.81 4.86 4.86 0 0 1-.4 1.85 4.93 4.93 0 0 1-2.54 2.66 4.59 4.59 0 0 1-1.94.41zm-2.54-4.94a3.64 3.64 0 0 0 .16 1.09 2.91 2.91 0 0 0 .49.94 2.39 2.39 0 0 0 .8.65 2.36 2.36 0 0 0 1.1.25 2.32 2.32 0 0 0 1.12-.26 2.43 2.43 0 0 0 .8-.68 3 3 0 0 0 .47-.95 3.75 3.75 0 0 0 .16-1.08 3.64 3.64 0 0 0-.16-1.09 2.76 2.76 0 0 0-.49-.93 2.45 2.45 0 0 0-.8-.65 2.38 2.38 0 0 0-1.09-.24 2.33 2.33 0 0 0-1.12.25 2.5 2.5 0 0 0-.8.65 2.81 2.81 0 0 0-.48.94 3.74 3.74 0 0 0-.16 1.11zM36.9 34a4.91 4.91 0 0 1 .33-1.75 4.77 4.77 0 0 1 1-1.56 4.9 4.9 0 0 1 1.53-1.11 4.78 4.78 0 0 1 2.06-.42 4.63 4.63 0 0 1 2.38.59 3.81 3.81 0 0 1 1.5 1.53l-1.73 1.21a2 2 0 0 0-.42-.65 2.29 2.29 0 0 0-1.17-.63 3.21 3.21 0 0 0-.62-.06 2.32 2.32 0 0 0-1.12.26 2.47 2.47 0 0 0-.8.67 2.79 2.79 0 0 0-.47.93 3.77 3.77 0 0 0-.15 1.05 3.48 3.48 0 0 0 .18 1.11 3 3 0 0 0 .51.95 2.48 2.48 0 0 0 .81.65 2.31 2.31 0 0 0 1.06.24 2.73 2.73 0 0 0 .62-.08 2.52 2.52 0 0 0 .62-.23 2.2 2.2 0 0 0 .54-.41 1.93 1.93 0 0 0 .4-.62l1.84 1.08a2.86 2.86 0 0 1-.65 1 4 4 0 0 1-1 .71 5.46 5.46 0 0 1-2.43.59 4.36 4.36 0 0 1-1.94-.43 4.9 4.9 0 0 1-1.52-1.15 5.22 5.22 0 0 1-1-1.63A5.06 5.06 0 0 1 36.9 34zm14.18 3.07a1.85 1.85 0 0 0 1-.24 1.91 1.91 0 0 0 .65-.65 2.74 2.74 0 0 0 .35-.91 5.36 5.36 0 0 0 .1-1v-5h2.25v5a6.79 6.79 0 0 1-.25 1.89 4.36 4.36 0 0 1-.78 1.53 3.66 3.66 0 0 1-1.35 1 4.59 4.59 0 0 1-1.94.38 4.53 4.53 0 0 1-2-.4 3.69 3.69 0 0 1-1.34-1.06 4.38 4.38 0 0 1-.77-1.55 6.93 6.93 0 0 1-.24-1.84v-5H49v5a5 5 0 0 0 .11 1.07 2.84 2.84 0 0 0 .36.9 1.76 1.76 0 0 0 1.6.87zM57.14 39v-9.75h6.61v2h-4.36v2.1H63v1.83h-3.61V39zm14.65-2v2h-6.86v-9.75h6.72v2H67.2v1.85H71v1.83h-3.8V37zm7.01-4.9a1.37 1.37 0 0 0-.29-.21 5.45 5.45 0 0 0-.62-.33 6 6 0 0 0-.81-.29 3.23 3.23 0 0 0-.88-.12q-1.2.01-1.2.85a.65.65 0 0 0 .13.41 1.15 1.15 0 0 0 .39.29 3.52 3.52 0 0 0 .65.24l.89.25a11.72 11.72 0 0 1 1.26.42 3.39 3.39 0 0 1 1 .56 2.29 2.29 0 0 1 .6.82 2.83 2.83 0 0 1 .21 1.15 2.89 2.89 0 0 1-.31 1.39 2.61 2.61 0 0 1-.82.92 3.44 3.44 0 0 1-1.17.51 5.81 5.81 0 0 1-1.36.16 7.57 7.57 0 0 1-1.1-.08 7.92 7.92 0 0 1-1.1-.24 8.7 8.7 0 0 1-1-.38 5.76 5.76 0 0 1-.92-.51l1-2a1.92 1.92 0 0 0 .36.26 5.33 5.33 0 0 0 .75.39 7.59 7.59 0 0 0 1 .34 4.17 4.17 0 0 0 1.11.15q1.19 0 1.19-.73a.61.61 0 0 0-.18-.45 1.68 1.68 0 0 0-.49-.33 5.37 5.37 0 0 0-.75-.27L75.29 35a8.12 8.12 0 0 1-1.17-.44 3.08 3.08 0 0 1-.82-.56 2 2 0 0 1-.48-.73 2.67 2.67 0 0 1-.16-1A3.06 3.06 0 0 1 73 31a2.94 2.94 0 0 1 .78-1 3.41 3.41 0 0 1 1.16-.6 4.55 4.55 0 0 1 1.38-.21 5.22 5.22 0 0 1 1 .09 7.58 7.58 0 0 1 .95.25 6.79 6.79 0 0 1 .84.33q.39.19.72.39zm9.94-.88h-3V39h-2.21v-7.78h-3v-2h8.19zm-66.37-9.03a.68.68 0 0 1-.29.58 1 1 0 0 1-.31.15 1.35 1.35 0 0 1-.38.05h-1.45V20h1.61a.59.59 0 0 1 .28.07.71.71 0 0 1 .22.18.8.8 0 0 1 .14.24.83.83 0 0 1 0 .28.82.82 0 0 1-.11.41.67.67 0 0 1-.33.29.77.77 0 0 1 .41.27.79.79 0 0 1 .21.45zm-1.84-1.74v.76h.78a.35.35 0 0 0 .25-.1.38.38 0 0 0 .1-.28.39.39 0 0 0-.09-.27.33.33 0 0 0-.24-.1zm1.25 1.63a.45.45 0 0 0 0-.15.44.44 0 0 0-.08-.13.35.35 0 0 0-.11-.09.33.33 0 0 0-.14 0h-.9v.8h.87a.38.38 0 0 0 .15 0 .36.36 0 0 0 .12-.08.39.39 0 0 0 .08-.12.4.4 0 0 0 0-.15zm3.14.39V23h-2.09v-3h2.05v.51h-1.47v.73h1.27v.48h-1.27v.78zm2.18-1.71l-.1-.08-.19-.1-.24-.08a1.07 1.07 0 0 0-.27 0 .6.6 0 0 0-.36.09.29.29 0 0 0-.12.25.26.26 0 0 0 0 .15.38.38 0 0 0 .13.11l.22.08.3.08.4.13a1.09 1.09 0 0 1 .31.17.7.7 0 0 1 .19.24.81.81 0 0 1 .07.35.88.88 0 0 1-.09.41.77.77 0 0 1-.24.28 1.07 1.07 0 0 1-.36.15 1.79 1.79 0 0 1-.42 0 2.27 2.27 0 0 1-.67-.1 2.07 2.07 0 0 1-.59-.29l.26-.51.14.1.24.12.3.1a1.35 1.35 0 0 0 .33 0q.48 0 .48-.31a.25.25 0 0 0-.06-.17.47.47 0 0 0-.16-.12l-.24-.09-.33-.09a2.73 2.73 0 0 1-.38-.13 1 1 0 0 1-.26-.17.62.62 0 0 1-.16-.22.76.76 0 0 1-.05-.3.94.94 0 0 1 .08-.41.83.83 0 0 1 .24-.3 1.07 1.07 0 0 1 .35-.18 1.45 1.45 0 0 1 .43-.06 1.67 1.67 0 0 1 .58.1 2.18 2.18 0 0 1 .47.24zm3.05-.28h-1V23h-.55v-2.5h-1V20h2.51zM31.42 23v-3h1.09a1.63 1.63 0 0 1 .65.12 1.31 1.31 0 0 1 .74.8 1.8 1.8 0 0 1 .09.58 1.77 1.77 0 0 1-.1.62 1.33 1.33 0 0 1-.3.48 1.35 1.35 0 0 1-.47.31 1.66 1.66 0 0 1-.61.11zm2-1.51a1.29 1.29 0 0 0-.06-.4.89.89 0 0 0-.17-.33.77.77 0 0 0-.28-.2 1 1 0 0 0-.38-.07H32v2h.51a.91.91 0 0 0 .39-.08.78.78 0 0 0 .28-.21.93.93 0 0 0 .17-.33 1.27 1.27 0 0 0 .06-.4zM34.46 23v-3h1.33a.86.86 0 0 1 .39.09 1 1 0 0 1 .3.23 1.08 1.08 0 0 1 .2.33 1 1 0 0 1 .07.36 1 1 0 0 1-.15.53.84.84 0 0 1-.4.36l.7 1.1h-.65l-.61-1h-.58v1zm.54-1.54h.73a.33.33 0 0 0 .15 0 .38.38 0 0 0 .12-.1.51.51 0 0 0 .08-.15.6.6 0 0 0 0-.19.54.54 0 0 0 0-.2.51.51 0 0 0-.09-.15.41.41 0 0 0-.13-.1.33.33 0 0 0-.15 0H35zM38.09 20h.52l1.15 3h-.6l-.28-.75h-1.06l-.27.75h-.6zm.68 1.85l-.41-1.19-.43 1.19zM42.55 23v-2l-.78 1.49h-.33L40.67 21v2h-.58v-3h.63l.89 1.71.89-1.71h.62v3zm2.07-3h.52l1.15 3h-.6l-.28-.75h-1.06l-.27.75h-.6zm.68 1.85l-.41-1.19-.43 1.19zm3.27-1.37h-1V23H47v-2.5h-1V20h2.51zm.37 2.52v-3h.58v3zM50 21.45a1.56 1.56 0 0 1 .1-.55 1.46 1.46 0 0 1 .76-.83 1.44 1.44 0 0 1 .63-.13 1.37 1.37 0 0 1 .72.18 1.17 1.17 0 0 1 .45.48l-.45.31a.76.76 0 0 0-.14-.22.72.72 0 0 0-.18-.14.82.82 0 0 0-.2-.08h-.21a.79.79 0 0 0-.39.09.84.84 0 0 0-.27.23 1 1 0 0 0-.16.33 1.22 1.22 0 0 0-.06.36 1.17 1.17 0 0 0 .07.39 1 1 0 0 0 .18.33.9.9 0 0 0 .28.23.77.77 0 0 0 .36.08h.21a.81.81 0 0 0 .21-.08.8.8 0 0 0 .19-.14.65.65 0 0 0 .1-.29l.48.28a.9.9 0 0 1-.21.3 1.31 1.31 0 0 1-.3.22 1.53 1.53 0 0 1-.36.14 1.57 1.57 0 0 1-.37 0 1.28 1.28 0 0 1-.59-.14 1.54 1.54 0 0 1-.46-.36 1.63 1.63 0 0 1-.3-.5 1.55 1.55 0 0 1-.09-.49zM54.09 23v-3h1.09a1.63 1.63 0 0 1 .65.12 1.31 1.31 0 0 1 .74.8 1.8 1.8 0 0 1 .09.58 1.77 1.77 0 0 1-.1.62 1.33 1.33 0 0 1-.3.48 1.35 1.35 0 0 1-.47.31 1.66 1.66 0 0 1-.61.11zm2-1.51a1.29 1.29 0 0 0-.06-.4.89.89 0 0 0-.17-.33.77.77 0 0 0-.28-.2 1 1 0 0 0-.38-.07h-.51v2h.5a.91.91 0 0 0 .39-.08.78.78 0 0 0 .27-.19.93.93 0 0 0 .17-.33 1.27 1.27 0 0 0 .06-.42zM58.41 23a1.37 1.37 0 0 1-.6-.13 1.47 1.47 0 0 1-.46-.36 1.59 1.59 0 0 1-.4-1.05 1.51 1.51 0 0 1 .11-.58 1.6 1.6 0 0 1 .31-.49 1.48 1.48 0 0 1 .47-.33 1.39 1.39 0 0 1 .59-.12 1.32 1.32 0 0 1 .6.13 1.49 1.49 0 0 1 .46.35 1.61 1.61 0 0 1 .3.49 1.55 1.55 0 0 1 .11.56 1.53 1.53 0 0 1-.11.57 1.56 1.56 0 0 1-.31.48 1.47 1.47 0 0 1-.47.33 1.39 1.39 0 0 1-.6.15zm-.88-1.53a1.2 1.2 0 0 0 .06.38 1 1 0 0 0 .17.33.82.82 0 0 0 1.3 0 1 1 0 0 0 .17-.33 1.2 1.2 0 0 0 .06-.37 1.17 1.17 0 0 0-.06-.38 1 1 0 0 0-.17-.33.83.83 0 0 0-.29-.22.86.86 0 0 0-.74 0 .84.84 0 0 0-.27.23 1 1 0 0 0-.17.33 1.2 1.2 0 0 0-.05.37zm2.62-.02a1.56 1.56 0 0 1 .1-.55 1.46 1.46 0 0 1 .76-.83 1.44 1.44 0 0 1 .63-.13 1.37 1.37 0 0 1 .72.18 1.17 1.17 0 0 1 .45.48l-.44.31a.76.76 0 0 0-.14-.22.72.72 0 0 0-.18-.14.82.82 0 0 0-.2-.08h-.21a.79.79 0 0 0-.39.09.84.84 0 0 0-.27.23 1 1 0 0 0-.16.33 1.22 1.22 0 0 0-.06.36 1.17 1.17 0 0 0 .07.39 1 1 0 0 0 .18.33.9.9 0 0 0 .28.23.77.77 0 0 0 .36.08h.21a.81.81 0 0 0 .21-.08.8.8 0 0 0 .19-.14.65.65 0 0 0 .14-.21l.48.28a.9.9 0 0 1-.21.3 1.31 1.31 0 0 1-.3.22A1.53 1.53 0 0 1 62 23a1.57 1.57 0 0 1-.37 0 1.28 1.28 0 0 1-.59-.14 1.54 1.54 0 0 1-.47-.35 1.63 1.63 0 0 1-.3-.5 1.55 1.55 0 0 1-.12-.56zm4.37 1.04a.67.67 0 0 0 .35-.08.69.69 0 0 0 .23-.22.91.91 0 0 0 .12-.33 1.81 1.81 0 0 0 0-.36V20h.58v1.54a2.2 2.2 0 0 1-.08.58 1.34 1.34 0 0 1-.23.48 1.12 1.12 0 0 1-.41.33 1.57 1.57 0 0 1-1.21 0 1.14 1.14 0 0 1-.41-.33 1.31 1.31 0 0 1-.23-.48 2.24 2.24 0 0 1-.07-.56V20h.58v1.54a1.83 1.83 0 0 0 0 .37.91.91 0 0 0 .12.33.67.67 0 0 0 .23.22.65.65 0 0 0 .43.03zm4.37.51v-2l-.78 1.49h-.33L67 21v2h-.58v-3h.63l.89 1.71.9-1.71h.62v3zm3.3-.53V23H70.1v-3h2.06v.51h-1.47v.73H72v.48h-1.31v.78zm1.05-1.42V23h-.58v-3h.45l1.57 2v-2h.58v3h-.48zm4.91-.57h-1V23h-.58v-2.5h-1V20h2.51zm.93-.48h.52l1.15 3h-.6l-.28-.75h-1.06l-.27.75h-.6zm.68 1.85l-.41-1.19-.43 1.19zM81.07 23v-3h1.33a.86.86 0 0 1 .39.09 1 1 0 0 1 .3.23 1.08 1.08 0 0 1 .2.33 1 1 0 0 1 .07.36 1 1 0 0 1-.15.53.84.84 0 0 1-.4.36l.7 1.1h-.65l-.61-1h-.58v1zm.58-1.52h.73a.33.33 0 0 0 .15 0 .38.38 0 0 0 .12-.1.51.51 0 0 0 .08-.15.6.6 0 0 0 0-.19.54.54 0 0 0 0-.2.51.51 0 0 0-.09-.15.41.41 0 0 0-.13-.1.33.33 0 0 0-.15 0h-.71zM84.14 20l.75 1.45.76-1.45h.63l-1.09 2v1h-.59v-1.08l-1.09-2zM26.67 45.51h.56l1.23 3.25h-.65l-.3-.81h-1.13l-.3.81h-.65zm.73 2l-.45-1.28-.47 1.28zm3.52-1.45h-1v2.69h-.63v-2.69h-1v-.55h2.7zm.41 2.69v-3.24H32v2.69h1.66v.55zm3.59-3.24h.56l1.23 3.25h-.65l-.3-.81h-1.15l-.3.81h-.65zm.73 2l-.45-1.28-.47 1.28zm2.05-.83v2.08h-.63v-3.25h.48l1.69 2.13v-2.12h.63v3.24h-.51zm5.3-.62h-1v2.69h-.63v-2.69h-1v-.55H43zm1-.55h.56l1.23 3.25h-.65l-.3-.81h-1.15l-.3.81h-.65zm.73 2l-.45-1.28-.48 1.27zm2.36 1.24v-3.24h2.18v.55h-1.55v.84H49v.51h-1.28v1.35zm2.62 0v-3.24h.63v3.25zm1.29 0v-3.24h.63v2.69h1.66v.55zm5.34 0v-2.14l-.84 1.6h-.33l-.84-1.6v2.15h-.63v-3.25h.68l1 1.85 1-1.85H57v3.25zm2.4 0v-3.24h2.18v.55h-1.55v.84h1.29v.51h-1.29v1.35zm4.88-.55v.55h-2.25v-3.24h2.21v.55H62v.78h1.37v.51H62v.85zM66 46.35l-.12-.09-.21-.11-.26-.09a1.15 1.15 0 0 0-.29 0 .65.65 0 0 0-.39.09.33.33 0 0 0-.13.27.28.28 0 0 0 0 .17.41.41 0 0 0 .14.12l.23.09.33.09.43.14a1.17 1.17 0 0 1 .33.18.75.75 0 0 1 .21.26.88.88 0 0 1 .07.38.94.94 0 0 1-.1.44.83.83 0 0 1-.26.3 1.15 1.15 0 0 1-.39.17 1.93 1.93 0 0 1-.45.05 2.44 2.44 0 0 1-.72-.11 2.23 2.23 0 0 1-.65-.33l.28-.55.15.11.25.13a2 2 0 0 0 .33.11 1.46 1.46 0 0 0 .37 0q.52 0 .52-.33a.27.27 0 0 0-.06-.18.5.5 0 0 0-.17-.13l-.26-.1-.35-.1a2.94 2.94 0 0 1-.4-.14 1.06 1.06 0 0 1-.28-.18.67.67 0 0 1-.17-.24.83.83 0 0 1-.06-.33A1 1 0 0 1 64 46a.88.88 0 0 1 .25-.33 1.15 1.15 0 0 1 .38-.2 1.56 1.56 0 0 1 .46-.07 1.8 1.8 0 0 1 .63.11 2.35 2.35 0 0 1 .5.25zm3.25-.29h-1v2.69h-.63v-2.69h-1v-.55h2.7zm.4 2.69v-3.24h.63v3.25zm1.64-3.24l.88 2.49.83-2.49h.65l-1.27 3.25h-.48l-1.28-3.25zm3.4 0h.56l1.23 3.25h-.65l-.3-.81H74.4l-.3.81h-.65zm.73 2L75 46.22l-.47 1.28zm1.42 1.24v-3.24h.63v2.69h1.66v.55z"/></g></g></g></g></svg>