<svg xmlns="http://www.w3.org/2000/svg" viewBox="0 0 320 90"><title>fox7-black</title><g data-name="Layer 1"><path d="M0 90V0h320v90zM302 7.36h-72.91c0 4.37.19 8.2-.05 12-.26 4.1-.13 8.48-1.57 12.2-6.19 16-12.9 31.78-19.4 47.65a34.92 34.92 0 0 0-1 3.37l.77.3 31.91-52.1-8.88-1.2.13-1.64h33.9l-32.6 55c9 0 16.89.1 24.82-.11a5 5 0 0 0 3.33-2.37c13.79-24.14 27.49-48.3 41.55-73.1zM69 45c-.11 17.2 13.73 31.47 30.71 31.67 16.74.2 31-14.15 31.08-31.33S117 13.79 100.08 13.72 69.13 27.71 69 45zm81.11 16.35c2.79 4.75 5.12 8.9 7.64 12.94.73 1.16 1.94 2.79 3 2.84 6 .27 12.07.13 19 .13-5.56-9.6-10.14-18.46-15.67-26.69-3.42-5.09-3.07-8.89.11-13.78 4.84-7.47 9-15.41 13.72-23.74-6.9 0-13.42-1.3-18.92.49-3.27 1.07-4.94 7-7.35 10.76-.35.54-.77 1-1.42 1.91-2.13-3.68-4.06-7.15-6.14-10.52-.65-1.06-1.68-2.62-2.59-2.66-6.17-.23-12.35-.12-19.3-.12 3.39 5.91 6.2 10.79 9 15.67 2.89 5 8.05 10.12 8 15.15 0 5.25-5 10.49-7.94 15.69-3.2 5.73-6.48 11.42-10.16 17.9 6.19 0 11.33.25 16.42-.14a7.57 7.57 0 0 0 5-2.91c2.76-3.93 4.91-8.22 7.62-12.95zm-102 15.84V56.47h17.51V38.72H48.5v-8.21h21.43l-1.24-17.45H30v64.1zm246.42-48.84c-7 7.85-7.05 8.68-2.44 16.18q11.09 18 22.2 36.07a20.55 20.55 0 0 0 1.83 2.22l.58-.51zm-87.24 1.25v40.2h.42L216 30.74zM316 70.86V28.72c-2.22.89-4 1.2-5.19 2.21s-2.52 2.86-2.29 4c2.22 11.77 4.79 23.43 7.48 35.93z"/><path d="M105.1 45.26v12c0 3.34-1.55 5.55-5 5.63S95 60.77 95 57.46c-.06-8.32-.1-16.65 0-25 0-3.22 1.7-5.56 5.18-5.44s4.88 2.49 4.92 5.73c.05 4.16 0 8.32 0 12.49z"/></g></svg>