<svg xmlns="http://www.w3.org/2000/svg" viewBox="0 0 259.73 89.68"><defs><style>.cls-1{fill:#fff}</style></defs><title>inc-white</title><g id="Layer_2" data-name="Layer 2"><path class="cls-1" d="M102.43 33.79c.42-.45.85-.89 1.25-1.36a29.41 29.41 0 0 1 20.22-10.85 44.59 44.59 0 0 1 15.79.95 22.55 22.55 0 0 1 9.6 4.89 18.36 18.36 0 0 1 5.94 11.14 31.58 31.58 0 0 1 .4 4.87v25.31h7.56c-.34-.95-.71-1.88-1-2.84a34.77 34.77 0 0 1 .8-23.23 28.74 28.74 0 0 1 8.78-11.82 41.71 41.71 0 0 1 17.37-8.21 61.2 61.2 0 0 1 21.75-1.14 37.84 37.84 0 0 1 15.92 5.54 26.42 26.42 0 0 1 11.29 14.71c.66 2.12 1 4.34 1.47 6.52a7.09 7.09 0 0 1 .08.79l-25.8 2.84c-.12-1.26-.2-2.45-.34-3.64a19.22 19.22 0 0 0-1.41-5.6 8.47 8.47 0 0 0-6.8-5.37 14 14 0 0 0-6.86.6 9.32 9.32 0 0 0-5.72 5.89 22.37 22.37 0 0 0-1.31 6.93 56.15 56.15 0 0 0 .46 13 20.34 20.34 0 0 0 1.36 4.34 8.46 8.46 0 0 0 5.52 4.95 13.43 13.43 0 0 0 10.68-.86 9.1 9.1 0 0 0 4.71-7.34c.06-.49.09-1 .14-1.51h25.87c-.35 1.69-.59 3.32-1 4.9a26.74 26.74 0 0 1-7.28 12.47 29.09 29.09 0 0 1-10.52 6.31 52.24 52.24 0 0 1-16.45 2.71 58.7 58.7 0 0 1-20-2.74A37.72 37.72 0 0 1 168.74 77a32.74 32.74 0 0 1-5.28-7.63V88h-46.8V68.78h8.83V48.86a8.74 8.74 0 0 0-1.65-5.57 8.93 8.93 0 0 0-6.47-3.29 12.63 12.63 0 0 0-9.68 2.6 11.2 11.2 0 0 0-4.36 8.83c-.1 5.67 0 11.34 0 17v.26h9V88H64.5V68.8h8.61V39.92h-8.6v-19.2h37.74v13zM11.4 20.67H0V0h61.22v20.54H49.81v48.23h11.41V88H0V68.81h11.4zm248.33 56.74a10.92 10.92 0 1 1-10.84-10.91 10.95 10.95 0 0 1 10.84 10.91z" id="Layer_1-2" data-name="Layer 1"/></g></svg>