<svg xmlns="http://www.w3.org/2000/svg" viewBox="0 0 177.5 61.29"><title>inc-black_1</title><path d="M70 23.09c.29-.31.58-.61.85-.93a20.1 20.1 0 0 1 13.82-7.41 30.48 30.48 0 0 1 10.79.65 15.41 15.41 0 0 1 6.54 3.34 12.55 12.55 0 0 1 4.06 7.61 21.58 21.58 0 0 1 .27 3.33V47h5.17c-.23-.65-.49-1.28-.68-1.94a23.76 23.76 0 0 1 .54-15.87 19.64 19.64 0 0 1 6-8.08 28.51 28.51 0 0 1 11.87-5.61 41.82 41.82 0 0 1 14.87-.78 25.86 25.86 0 0 1 10.9 3.77 18.06 18.06 0 0 1 7.71 10.05c.45 1.45.68 3 1 4.45a4.84 4.84 0 0 1 .05.54l-17.64 1.94c-.08-.86-.14-1.68-.23-2.49a13.13 13.13 0 0 0-1-3.83 5.79 5.79 0 0 0-4.65-3.67 9.59 9.59 0 0 0-4.69.41 6.37 6.37 0 0 0-3.91 4 15.29 15.29 0 0 0-.89 4.74 38.37 38.37 0 0 0 .32 8.91 13.9 13.9 0 0 0 .93 3 5.78 5.78 0 0 0 3.77 3.34 9.18 9.18 0 0 0 7.3-.59 6.22 6.22 0 0 0 3.22-5c0-.33.06-.67.1-1h17.68c-.24 1.16-.4 2.27-.7 3.35a18.28 18.28 0 0 1-5 8.52 19.88 19.88 0 0 1-7.19 4.31 35.7 35.7 0 0 1-11.18 1.8 40.12 40.12 0 0 1-13.67-1.87 25.78 25.78 0 0 1-11-6.75 22.38 22.38 0 0 1-3.61-5.21v12.7h-32V47h6V33.4a6 6 0 0 0-1.13-3.81 6.11 6.11 0 0 0-4.43-2.23 8.63 8.63 0 0 0-6.62 1.78 7.65 7.65 0 0 0-3 6c-.07 3.87 0 7.75 0 11.62v.18h6.16v13.19H44.08V47H50V27.28h-5.91V14.16h25.79V23zM7.79 14.13H0V0h41.84v14H34v33h7.8v13.13H0V47h7.79zM177.5 52.9a7.46 7.46 0 1 1-7.41-7.46 7.48 7.48 0 0 1 7.41 7.46z" data-name="Layer 1"/></svg>