<svg xmlns="http://www.w3.org/2000/svg" viewBox="0 0 322.76 132.44"><defs><style>.cls-1{fill:#fff}</style></defs><title>LAtimes-white_1</title><g id="Layer_2" data-name="Layer 2"><g id="Layer_1-2" data-name="Layer 1"><path class="cls-1" d="M169.69 100.19l7.43-6.19 10.38 6.67a37.91 37.91 0 0 0-.53 4.22c-.07 4.56 0 9.11 0 13.67 0 3.86 0 3.86 3.44 6.13l1.64-1.2.45.47-7.4 6.78-7.15-5.6c.2-1.82.51-3.49.54-5.17.07-4.4 0-8.79.06-13.19a3 3 0 0 0-1.64-3.12c-1.53-.85-2.94-1.93-4.44-2.84s-2.68-.54-2.7 1.31c-.07 6.63-.15 13.27.08 19.9 0 1.19 1.58 2.32 2.54 3.62l-5.65 5-6-4.68a42.27 42.27 0 0 0 .55-4.53c.07-5 .11-9.92 0-14.87a4.53 4.53 0 0 0-1.53-2.85 32.39 32.39 0 0 0-4.37-2.93c-1.65-1-3.08-.42-3.11 1.5-.08 6.55-.16 13.12.08 19.66 0 1.19 1.59 2.32 2.54 3.61l-5.67 5-5.93-4.56c.2-1.72.49-3.17.51-4.62.06-5.36-.09-10.72.07-16.07.07-2.31-.4-4.07-2.77-5.15l-1.77 1-.36-.45 7.59-6.86 6.4 5.91 7-5.87zm53.73-49.43c.33 5.58-3.78 11.15-9.71 13-3.2 1-6.6 1.44-9.64 0a19.22 19.22 0 0 0-17.31-.23 8.35 8.35 0 0 1 4.32-6.81 15.89 15.89 0 0 1 13.81-1.61 87.67 87.67 0 0 0 9.9 2.72 9.15 9.15 0 0 0 4.88-.67c1.19-.48 2-1.78 2.91-2.59-2.43-.21-4.86.11-6.75-.75s-3.11-2.9-4.95-4.74c-1.17.9-2.79 2.27-4.53 3.44a2.73 2.73 0 0 1-2.21.39c-2-.89-3.78-2.06-5.69-3.08s-3.83-2-5.23-2.68c.11-7.92.34-15.54-.16-23.14l15.66-8.27 11.94 7.68c-.17 1.89-.45 3.72-.46 5.56-.06 6.16 0 12.31 0 18.47.02 2.86.68 3.47 3.22 3.31zm-12.35-2.4c.23-.48.48-.75.48-1V28.18a1.73 1.73 0 0 0-.47-1.25c-2.95-2.09-5.94-4.11-9.14-6.29v21.19a2.38 2.38 0 0 0 .81 1.76c2.68 1.62 5.4 3.11 8.31 4.78zm-95.7 74.91c1.53-1.34 3.36-2.46 4.5-4.07 1-1.46 1.29-3.45 2.45-5.21a24.72 24.72 0 0 1-.23 4 16.48 16.48 0 0 1-5.18 8.72c-7.49 6.89-20.91 7.7-28.91 1.63-6.5-4.93-9.08-11.55-8-19.6s5.83-13.49 13.27-16.51a85.55 85.55 0 0 1 8.49-2.46C96 88.71 90.6 87.11 85 88.77a12.88 12.88 0 0 0-4.27 2.53 3 3 0 0 0-.86 4.06 3.65 3.65 0 0 1 .14 1.43l-.75.22a7.27 7.27 0 0 1-.72-2c-.32-8.45 6.13-15.19 14.46-14.53 5.86.47 11.65 1.85 17.49 2.74a43.8 43.8 0 0 0 5.72.44c2.75.05 5.1-.65 5.62-4a8 8 0 0 1-4.64 11.52c-2.09.68-2.59 1.61-2.57 3.69.12 9.34.05 18.68.05 28zm-1.22-30.85c-3.16-.6-6-1.17-8.92-1.68a5.19 5.19 0 0 0-1.88 0C92.5 92.9 85.66 105.27 89.6 115.6c3.16 8.3 13.38 12.43 22.5 9.17a2.75 2.75 0 0 0 2.11-3.13c-.1-8.54 0-17.09 0-25.63-.05-1.26-.05-2.52-.05-3.6zm20.37-88.94L137.73 1c-1.29 2.67-.5 5 .32 7.35 4 11.55 8 23.12 12.05 34.65.54 1.51 1.77 2.77 2.69 4.17l2.42-1.59.48.51c-1.08 1-2.13 2.08-3.24 3.07-1.6 1.42-3.13 3.72-4.9 3.93-1.6.19-3.47-1.92-5.21-3-.74-.47-1.45-1-1.52-1.62a28.15 28.15 0 0 0-.59-5c-1.82-6.06-1.89-6-8.24-6-3 0-6.08.07-9.12 0-1.41 0-2.21.32-2.58 1.77s-1 3-1.56 4.59l7.59 1.41 1.58-2 .54.33L123 53.62c-5.3-2.74-10.49-3.33-15.68-.2.26-3.77 4-8 8.33-8.93a3.66 3.66 0 0 0 3-2.85C122 32 125.41 22.35 129 12.8c1-2.64 0-4.37-1.61-6-2-1.91-6.64-1.52-8.34.61-1.09 1.37-1.73 2.9-.32 4.55a3.2 3.2 0 0 1 .55 1.44c0 .11-.61.5-.69.44a3.7 3.7 0 0 1-1.25-1.26c-1.66-4 .72-9.35 5-11.2a11.4 11.4 0 0 1 12.18 2.1zm-4.46 8.46l-7.27 20.36h13.9zM13.87 1.38l-3.65 6.71.61.44L21.13 0a11 11 0 0 0 2.17 2.27c2 1.1 4 2.48 6.12 2.81 3.56.56 4.42-.69 3.52-4l.61-.31c.33.65.93 1.29 1 2a8.83 8.83 0 0 1-7.33 8.81c-1.17.21-2.38.23-3.88.37V42l12.16 2.82 1.5-2.13.59.36-5.73 10.6c-10.5-5.49-20.93-4-31.38-.37L0 52.82a8.34 8.34 0 0 0 1.56-.93 17.94 17.94 0 0 0 5.59-17.44 52.21 52.21 0 0 0-2.89-9.11C.18 15 3.81 5.64 13.87 1.38zm.18 5.76c-3.81 1.36-4.23 4.48-3 8.15s2.48 7.42 3.91 11.05c2.51 6.36 1.51 11.88-3.55 16.58-.64.6-1.22 1.27-1.84 1.89S8.33 46 8.2 46.12l14.4-4.45V12.89a2.28 2.28 0 0 0-1.1-1.47c-2.4-1.42-4.8-2.77-7.44-4.28z"/><path class="cls-1" d="M163.61 53.48l-5.79-4.57c.13-3.41.31-6.45.35-9.5.06-4-.14-8 .07-12 .13-2.43-.51-4.2-2.89-5.39l-1.83 1-.39-.44 7.79-7.07 6.62 6.08c1.71-1.44 3.8-3.3 6-5a2.44 2.44 0 0 1 2.16-.33c3.33 2 6.55 4.24 9.61 6.26a31 31 0 0 0-.58 4c-.07 4.8.17 9.6-.1 14.39-.17 3 .65 5.09 3.62 6.26l1.91-1.15.37.47-7.77 7-7.3-5.8a36.58 36.58 0 0 0 .62-4.48c.07-4.88.11-9.76 0-14.63a4.5 4.5 0 0 0-1.53-2.84 36.12 36.12 0 0 0-4.57-3.07c-1.61-1-3.16-.42-3.18 1.4-.1 6.87-.15 13.75.07 20.62 0 1.1 1.6 2.16 2.65 3.48zm-97.07-9.23a869.71 869.71 0 0 1-14.33 8.51 2.36 2.36 0 0 1-2 0c-3.84-2.44-7.61-5-11-7.25a144.19 144.19 0 0 0 .11-21.44c4.55-2.53 9.54-5.34 14.57-8.07a2 2 0 0 1 1.69.09c3.9 2.49 7.76 5.05 11.14 7.28a168.56 168.56 0 0 0-.18 20.88zm-9.15 4c.08-.13.24-.25.24-.37V28.23a2 2 0 0 0-.58-1.44c-2.88-2.05-5.81-4-9-6.17v20.41a2.44 2.44 0 0 0 .92 1.72c2.82 1.89 5.63 3.68 8.42 5.51zM95 14.92c1.72.41 1.92.75 1.65 2.44-1 6.1-8.88 9.08-13.71 5.16-.56-.45-1.06-1-2-1.86 0 3-.14 5.53.1 8.07.06.61 1.34 1.14 2.12 1.62s1.56.77 2.42 1.19l2.26-2.06c1.44.78 2.89 1.58 4.35 2.36s3 1.54 4.25 2.2v10.21l-15.29 9c-5.72-3.6-8.76-3.95-11.35-1.18a1.55 1.55 0 0 0 .07.46c.27.58.57 1.15.86 1.73-.28.12-.76.39-.79.33-.44-.61-1.24-1.37-1.12-1.89a13.19 13.19 0 0 1 1.84-5 101.67 101.67 0 0 1 7.23-8 11.77 11.77 0 0 1 2.21-1.47l-.4-.83-7.82-3.59v-9.9c2.36-1.14 5.12-2.37 7.78-3.78s5.11-2.95 7.47-4.33a28.45 28.45 0 0 0 5 2.45c2.82.75 3.87-.42 2.87-3.33zm-7.55 33.69c0-3.7.07-6.71 0-9.72 0-1.42-4.13-3.48-5.07-2.55-3 3-5.91 6-8.85 9.09 5.15-1.94 9.55-1.05 13.92 3.18zm210.4-24.51l15.38-8.16a28.4 28.4 0 0 0 5.23 2.36c2.61.62 3.46-.58 2.58-3.09 1.5-.21 2 .3 1.61 2.1a8.2 8.2 0 0 1-5.5 6.43 8.2 8.2 0 0 1-8.54-1.47 7.23 7.23 0 0 1-1.14-1.72l-.68.44c0 2.44-.13 4.9.09 7.32.06.67 1.11 1.36 1.83 1.84a24.85 24.85 0 0 0 3 1.45c1.35-2.73 3.06-1.8 5-.58s4.06 2.18 5.69 3v10.25l-15.39 9c-2.26-1.94-5.11-3.51-8.61-2.83a14.94 14.94 0 0 0-3.09 1.43c.54.65.9.91 1 1.24a5.38 5.38 0 0 1 .07 1.38c-.45-.21-1.26-.39-1.28-.62-.09-1.31-.39-2.84.15-3.9a22.41 22.41 0 0 1 3.89-5.4c2.17-2.22 4.64-4.15 7-6.2l-.48-1-7.81-3.67zm15.53 24.5c0-3.67.05-6.61 0-9.55-.05-2.16-2.23-1.93-3.44-2.74a1.91 1.91 0 0 0-1.81.26c-2.92 2.9-5.75 5.89-8.6 8.86 5.07-1.9 9.55-1.12 13.85 3.17zm-68.73 73.09l-14.92 8.71c-5.36-3.47-8.28-3.82-11-1.21a1.2 1.2 0 0 0 0 .44c.25.6.52 1.19.79 1.78-.29.08-.77.3-.82.22-.39-.56-1.08-1.28-1-1.75.49-1.8.9-3.8 2-5.22 2.19-2.83 4.82-5.32 7.27-8l1.44-1.58-7.76-3.59v-9.33l15.21-8.05a14.88 14.88 0 0 0 3.48 2.09 7.15 7.15 0 0 0 3.85-.19c.31-.09.16-1.73.25-3.06 1.46.47 1.53 1.47 1.33 2.67-1 5.94-8.52 8.77-13.34 5-.56-.44-1.05-1-2-1.81 0 2.86-.12 5.35.09 7.8 0 .57 1.2 1.09 1.92 1.53s1.58.77 2.52 1.21l2.26-2 8.38 4.47zm-22.81.64l.66.9c4.91-2.38 9.25-1.26 13.37 2.59v-9c0-2.26-2.12-2.08-3.39-2.78a2.51 2.51 0 0 0-2.14.57c-2.89 2.54-5.68 5.15-8.5 7.72zm4.81-98.19l16.15-8.26 8.09 11.39c-4.48 2.81-8.83 5.79-13.43 8.35-3 1.67-1.41 4.19-1.82 6.34-.33 1.71 1.16 1.83 2.16 2.36s2 1 3 1.54c3.92 2.06 4.37 2 7-1.72.18-.26.28-.58.48-.83a11.63 11.63 0 0 1 1.19-1.31s.68.42.65.48a4.86 4.86 0 0 1-.86 1.59c-2.81 2.84-5.64 5.68-8.54 8.42a2.3 2.3 0 0 1-2 .55c-4.16-2-8.26-4.15-12.11-6.11zm16.55 7l-7.41-10.44v15zm19.54-22.62a30.75 30.75 0 0 0-.62 4.11c0 9.43.1 18.85-.1 28.28-.06 3 .58 5.13 3.72 6.23l1.74-1.14.43.49-7.75 7-7.16-5.63c.19-2.06.49-3.9.5-5.74.05-9.19-.06-18.37.08-27.56 0-2.44-.56-4.18-2.92-5.34l-1.28.76 6.48-7.18zM270 46.73c1.09-2.07 1.21-20.17.21-22.5l16.36-8.36 8.08 11.39c-4.35 2.73-8.54 5.69-13 8.06-3.19 1.68-2 4.26-2.26 6.61-.24 2 1.57 1.92 2.62 2.58.88.55 1.85.95 2.77 1.43 3.77 2 3.78 2 6.45-1.43.44-.56.63-1.31 1.1-1.83.3-.34.88-.42 1.34-.62 0 .48.19 1.16-.05 1.4-3.14 3.19-6.31 6.35-9.56 9.43-.32.3-1.32.19-1.85-.06-4.05-1.95-8.03-3.99-12.21-6.1zm9.43-10.88l7.57-4.68-7.56-10.52zm-85.35 88.48v-22.12l15.69-8 7.83 11.06c-4.44 2.77-8.68 5.61-13.11 8.11-2.77 1.56-1.27 3.93-1.68 5.93-.33 1.65 1 1.93 2 2.46 2.07 1 4.12 2.11 6.5 3.34l5-5.8.57.35c-.18.5-.23 1.14-.57 1.49-2.92 3-5.86 5.89-8.87 8.75a2 2 0 0 1-1.8.22c-3.9-1.88-7.8-3.9-11.56-5.79zm8.83-10.78l7.22-4.53L202.92 99zM124 100.16l-1.67 1.05-.4-.46 7.52-6.84 6.38 5.6a27.18 27.18 0 0 0-.65 3.91c-.07 5 .16 10.09-.1 15.11-.15 3 .67 4.92 3.63 6l1.59-1.08.44.47-7.46 6.8-7-5.54c.21-1.82.52-3.36.54-4.9.07-5 0-10.08 0-15.12 0-3.05 0-3.05-2.82-5zm14.41-12.5c-3 4.47-6.74 4.75-11.86.4l-1.68.92-.43-.52 6.93-6.19zm-40.04 34.69c4-2.08 4.87-4.62 3-9-1.07-2.49-2.5-4.82-3.54-7.32-1.37-3.29-1.5-6.61 1.19-9.38a11 11 0 0 1 10.53-3.13 6.33 6.33 0 0 1 1.79 1.06l-.26.55a4.94 4.94 0 0 1-1.2-.22c-2.94-1.35-5.92.32-5.77 3.53a15.33 15.33 0 0 0 1.64 5.38c.82 1.8 2.18 3.36 3 5.15 2.26 4.87.71 9.5-4.08 11.93a47.1 47.1 0 0 1-6.13 2.15z"/></g></g></svg>