<svg xmlns="http://www.w3.org/2000/svg" viewBox="0 0 99.93 41"><title>latimes-black</title><g data-name="Layer 1-2"><path d="M52.54 31l2.3-1.92 3.21 2.07a11.74 11.74 0 0 0-.16 1.31v4.23c0 1.2 0 1.2 1.07 1.9l.51-.37.14.15-2.29 2.1-2.21-1.73c.06-.56.16-1.08.17-1.6v-4.08a.93.93 0 0 0-.51-1c-.47-.26-.91-.6-1.37-.88s-.83-.17-.84.41v6.16c0 .37.49.72.79 1.12l-1.75 1.55L49.77 39a13.09 13.09 0 0 0 .17-1.4V33a1.4 1.4 0 0 0-.47-.88 10 10 0 0 0-1.35-.91c-.51-.31-1-.13-1 .46v6.09c0 .37.49.72.79 1.12l-1.71 1.54L44.37 39c.06-.53.15-1 .16-1.43v-5a1.45 1.45 0 0 0-.84-1.57l-.55.31-.14-.13 2.35-2.12 2 1.83 2.17-1.82zm16.63-15.28a4.17 4.17 0 0 1-3 4 4.07 4.07 0 0 1-3 0 6 6 0 0 0-5.36-.07 2.59 2.59 0 0 1 1.34-2.11 4.92 4.92 0 0 1 4.28-.5 27.14 27.14 0 0 0 3.07.84 2.83 2.83 0 0 0 1.5-.18c.37-.15.62-.55.9-.8a6.77 6.77 0 0 1-2.09-.23c-.59-.27-1-.9-1.53-1.47-.36.28-.86.7-1.4 1.07a.85.85 0 0 1-.68.12c-.62-.28-1.17-.64-1.76-1s-1.19-.62-1.62-.83c0-2.45.11-4.81 0-7.16l4.85-2.56 3.7 2.38c-.05.59-.14 1.15-.14 1.72v5.72c-.05.92.15 1.1.94 1.06zM65.35 15c.07-.15.15-.23.15-.31V8.72a.54.54 0 0 0-.15-.39c-.91-.65-1.84-1.27-2.83-1.95V13a.74.74 0 0 0 .25.54c.83.5 1.67 1 2.57 1.48zM35.72 38.16a8.25 8.25 0 0 0 1.39-1.26c.31-.45.4-1.07.76-1.61a7.65 7.65 0 0 1-.07 1.24 5.1 5.1 0 0 1-1.6 2.7 7.42 7.42 0 0 1-9 .5 6.12 6.12 0 0 1-2.48-6.07 6.18 6.18 0 0 1 4.11-5.11 26.49 26.49 0 0 1 2.63-.76c-1.78-.33-3.46-.82-5.19-.31a4 4 0 0 0-1.32.78.93.93 0 0 0-.27 1.26 1.13 1.13 0 0 1 0 .44l-.23.07a2.25 2.25 0 0 1-.22-.62 4.18 4.18 0 0 1 4.48-4.5c1.81.15 3.61.57 5.41.85a13.56 13.56 0 0 0 1.88.14c.85 0 1.58-.2 1.74-1.24a2.48 2.48 0 0 1-1.44 3.57 1 1 0 0 0-.8 1.14v8.67zm-.38-9.55c-1-.19-1.86-.36-2.76-.52a1.61 1.61 0 0 0-.58 0 5.91 5.91 0 0 0-4.26 7.7 5.45 5.45 0 0 0 7 2.84.85.85 0 0 0 .65-1v-9.05zm6.31-27.53l1-.77a2.75 2.75 0 0 0 .1 2.28q1.86 5.36 3.73 10.73a6.73 6.73 0 0 0 .83 1.29l.75-.49.15.16c-.33.31-.66.64-1 1-.5.44-1 1.15-1.52 1.22s-1.07-.59-1.61-.93c-.23-.15-.45-.31-.47-.5a8.72 8.72 0 0 0-.18-1.55c-.56-1.88-.59-1.86-2.55-1.86h-2.82c-.44 0-.68.1-.8.55s-.31.93-.48 1.42l2.35.44.49-.62.17.1-1.71 3.05a4.66 4.66 0 0 0-4.85-.06 3.41 3.41 0 0 1 2.58-2.76 1.13 1.13 0 0 0 .93-.88c1-3 2.09-6 3.2-8.93a1.59 1.59 0 0 0-.5-1.86 2 2 0 0 0-2.58.19 1 1 0 0 0-.1 1.41 1 1 0 0 1 .17.45s-.19.15-.21.14a1.15 1.15 0 0 1-.39-.39A2.83 2.83 0 0 1 37.88.43a3.53 3.53 0 0 1 3.77.65zM40.27 3.7L38 10h4.3zM4.29.43L3.16 2.5l.19.14L6.54 0a3.41 3.41 0 0 0 .67.7 6.28 6.28 0 0 0 1.89.87c1.1.17 1.37-.21 1.09-1.24l.19-.1a2 2 0 0 1 .31.62 2.73 2.73 0 0 1-2.26 2.74c-.36.07-.74.07-1.2.11V13l3.76.87.46-.66.18.11-1.77 3.29c-3.25-1.7-6.48-1.24-9.72-.11L0 16.35a2.58 2.58 0 0 0 .48-.29 5.55 5.55 0 0 0 1.73-5.4 16.16 16.16 0 0 0-.89-2.82C.06 4.64 1.18 1.75 4.29.43zm.06 1.78C3.17 2.63 3 3.6 3.42 4.73S4.19 7 4.63 8.15a4.28 4.28 0 0 1-1.1 5.13c-.2.19-.38.39-.57.59l-.42.41L7 12.9V4a.71.71 0 0 0-.34-.46c-.74-.44-1.49-.86-2.3-1.33z"/><path d="M50.65 16.56l-1.79-1.41c0-1.06.1-2 .11-2.94V8.49a1.54 1.54 0 0 0-.89-1.67l-.57.31-.1-.13 2.41-2.2 2 1.88c.53-.45 1.18-1 1.86-1.55A.76.76 0 0 1 54.4 5c1 .62 2 1.31 3 1.94a9.6 9.6 0 0 0-.18 1.24c0 1.49.05 3 0 4.46a1.7 1.7 0 0 0 1.12 1.94l.59-.36.11.15-2.41 2.17-2.26-1.8a11.32 11.32 0 0 0 .19-1.39V8.82A1.39 1.39 0 0 0 54 8a11.18 11.18 0 0 0-1.41-1c-.5-.31-1-.13-1 .43v6.38c0 .34.5.67.82 1.08zM20.6 13.7c-1.41.85-2.92 1.76-4.44 2.63a.73.73 0 0 1-.62 0c-1.19-.76-2.36-1.55-3.41-2.24a44.64 44.64 0 0 0 0-6.64c1.41-.78 3-1.65 4.51-2.5a.62.62 0 0 1 .52 0c1.21.77 2.4 1.56 3.45 2.25a52.19 52.19 0 0 0-.01 6.5zm-2.83 1.24s.07-.08.07-.11V8.74a.62.62 0 0 0-.18-.45c-.89-.63-1.8-1.24-2.79-1.91v6.32a.76.76 0 0 0 .28.53c.87.59 1.74 1.14 2.61 1.71zM29.41 4.62c.53.13.59.23.51.76A2.69 2.69 0 0 1 25.68 7c-.17-.14-.33-.31-.62-.58v2.5c0 .19.41.35.66.5s.48.24.75.37l.7-.64 1.35.73 1.32.68v3.14l-4.73 2.79c-1.77-1.11-2.71-1.22-3.51-.37a.48.48 0 0 0 0 .14c.08.18.18.36.27.54-.09 0-.24.12-.24.1-.14-.19-.38-.42-.35-.59a4.08 4.08 0 0 1 .57-1.55 31.48 31.48 0 0 1 2.24-2.48 3.64 3.64 0 0 1 .68-.46l-.12-.26-2.42-1.11V7.4c.77-.4 1.61-.73 2.43-1.17s1.58-.91 2.34-1.34a8.81 8.81 0 0 0 1.55.76c.85.23 1.17-.13.86-1.03zM27.07 15v-3c0-.44-1.28-1.08-1.57-.79-.93.93-1.83 1.86-2.74 2.81a3.76 3.76 0 0 1 4.31.98zm65.15-7.54L97 4.94a8.79 8.79 0 0 0 1.62.73c.81.19 1.07-.18.8-1 .46-.07.62.09.5.65a2.54 2.54 0 0 1-1.7 2 2.54 2.54 0 0 1-2.64-.46 2.24 2.24 0 0 1-.35-.53L95 6.5v2.27c0 .21.34.42.57.57a7.69 7.69 0 0 0 .93.45c.42-.85.95-.56 1.55-.18s1.26.67 1.76.93v3.17l-4.76 2.79a3.11 3.11 0 0 0-2.67-.88 4.63 4.63 0 0 0-1 .44c.17.2.28.28.31.38a1.67 1.67 0 0 1 0 .43c-.14-.07-.39-.12-.4-.19a2.49 2.49 0 0 1 0-1.21 6.94 6.94 0 0 1 1.2-1.67c.67-.69 1.44-1.28 2.17-1.92l-.15-.31-2.42-1.14zM97 15v-3c0-.67-.69-.6-1.07-.85a.59.59 0 0 0-.56.08c-.9.9-1.78 1.82-2.66 2.74A3.71 3.71 0 0 1 97 15zM75.74 37.68l-4.62 2.7c-1.66-1.07-2.56-1.18-3.41-.37a.37.37 0 0 0 0 .14c.08.19.16.37.24.55-.09 0-.24.09-.25.07s-.33-.4-.31-.54A4.61 4.61 0 0 1 68 38.6c.68-.88 1.49-1.65 2.25-2.48l.45-.49-2.4-1.11v-2.89l4.7-2.49a4.61 4.61 0 0 0 1.08.65 2.21 2.21 0 0 0 1.19-.06c.1 0 0-.54.08-.95.45.15.47.46.41.83a2.61 2.61 0 0 1-4.13 1.55c-.17-.14-.33-.31-.62-.56v2.41c0 .18.37.34.59.47a8.45 8.45 0 0 0 .78.37l.7-.62 2.59 1.38zm-7.06.2l.2.28A3.42 3.42 0 0 1 73 39v-2.83c0-.7-.66-.64-1-.86a.78.78 0 0 0-.66.18c-.92.78-1.78 1.59-2.66 2.38zm1.49-30.41l5-2.56 2.5 3.53c-1.39.87-2.73 1.79-4.16 2.59-.93.52-.44 1.3-.56 2s.36.57.67.73l.93.48c1.21.64 1.35.62 2.17-.53.06-.08.09-.18.15-.26a3.6 3.6 0 0 1 .37-.41s.21.13.2.15a1.5 1.5 0 0 1-.27.49c-.87.88-1.75 1.76-2.64 2.61a.71.71 0 0 1-.62.17c-1.29-.62-2.56-1.28-3.75-1.89zm5.13 2.17L73 6.41v4.64zm6.04-7a9.52 9.52 0 0 0-.19 1.27v8.76c0 .93.18 1.59 1.15 1.93l.54-.35.13.15-2.4 2.17-2.22-1.74c.06-.64.15-1.21.15-1.78V4.52a1.58 1.58 0 0 0-.9-1.65l-.4.24 2-2.22zm2.25 11.83a25.09 25.09 0 0 0 .07-7l5.07-2.59 2.5 3.53c-1.35.85-2.64 1.76-4 2.5-1 .52-.62 1.32-.7 2s.49.59.81.8.57.29.86.44c1.17.62 1.17.62 2-.44.14-.17.2-.41.34-.57s.27-.13.41-.19c0 .15.06.36 0 .43-1 1-2 2-3 2.92-.1.09-.41.06-.57 0-1.26-.55-2.49-1.18-3.79-1.83zm2.92-3.37l2.34-1.45-2.33-3.26zM60.09 38.49v-6.85l4.86-2.48 2.42 3.42c-1.37.86-2.69 1.74-4.06 2.51-.86.48-.39 1.22-.52 1.84s.31.6.62.76c.64.31 1.28.65 2 1L67 36.94l.18.11a1.3 1.3 0 0 1-.18.46c-.9.93-1.81 1.82-2.75 2.71a.62.62 0 0 1-.56.07c-1.23-.59-2.44-1.21-3.6-1.8zm2.73-3.34l2.24-1.4-2.23-3.1zM38.39 31l-.52.33-.12-.14 2.33-2.12 2 1.73a8.41 8.41 0 0 0-.2 1.21v4.68A1.6 1.6 0 0 0 43 38.55l.49-.33.14.15-2.31 2.11-2.22-1.72c.07-.56.16-1 .17-1.52v-4.68c-.01-.95-.01-.95-.88-1.56zm4.46-3.86c-.93 1.38-2.09 1.47-3.67.12l-.52.28-.13-.16 2.15-1.92zM30.46 37.88c1.24-.64 1.51-1.43.93-2.79-.33-.77-.77-1.49-1.1-2.27a2.49 2.49 0 0 1 .37-2.9 3.41 3.41 0 0 1 3.26-1 2 2 0 0 1 .55.33l-.08.17a1.53 1.53 0 0 1-.37-.07 1.18 1.18 0 0 0-1.79 1.09 4.75 4.75 0 0 0 .51 1.67c.25.56.67 1 .93 1.59a2.63 2.63 0 0 1-1.26 3.69 14.58 14.58 0 0 1-1.9.67z"/></g></svg>