<svg xmlns="http://www.w3.org/2000/svg" viewBox="0 0 325.26 69.35"><title>lemonde-black</title><g data-name="Layer 1"><path d="M161.81 58.59c1.41 1.42 1.18 2.25-.31 3.05-2.28 1.23-4.41 2.72-6.7 3.92-1.24.65-3.06 1.67-3.94 1.21-2.19-1.14-4.84-2.21-5.28-5.24a24.63 24.63 0 0 1-.29-3.46V30.46c0-5.48.28-10.8 5.82-14.38C147.49 14 144.32 12 141 10.3c-1.86-1-5.66 2.28-5.66 4.71v35.12a81.46 81.46 0 0 1-.12 9.37 6.35 6.35 0 0 1-2.37 4.05c-2.4 1.66-5.17 2.76-8.17 4.28-.06-1.24-.13-2.17-.13-3.11 0-14.74-.21-29.49.11-44.23.11-4.91-1.3-8.26-5.69-10.33-3.71.87-5 3.14-4.8 7.12.32 7.85.06 15.72 0 23.58a9.11 9.11 0 0 1-4.8 8.39c-2.4 1.38-4.68 3-7.06 4.38a5.38 5.38 0 0 1-1.84.32c.11-.6 0-1.4.38-1.77 2.19-2.25 2.54-5.07 2.56-8q.07-13.54 0-27.08c0-4.31-1.2-5.21-5.45-4.48-1.76.3-3.56 1-5.27.76s-4.18-.75-5.07-2-.41-3.66.3-5.19c1-2.22 2.8-4.1 4.32-6.21l2.16 1.28a8.16 8.16 0 0 0-1 1.57c-.39 1.1-.65 2.25-1 3.39 1.23.05 2.55.41 3.68.09 2.31-.65 4.49-1.75 6.77-2.52 5.76-2 8.62-.64 11.83 5.5 2.9-1.73 5.86-3.37 8.67-5.22 1.4-.92 2.33-.69 3.54.25 2.52 2 5.08 5.08 7.77 5.24s5.44-2.69 7.95-4.52c2.31-1.69 4.33-2.09 6.66-.19a24.26 24.26 0 0 0 3.23 1.89c5 2.92 5 2.92 10.56.56l1.47 1.79a7.58 7.58 0 0 1-1.35 1c-5.59 2.45-7.42 6.82-7.28 12.73.25 10.45.07 20.91.07 31.36a23 23 0 0 0 .1 2.68c.36 3.06 1.84 3.83 4.5 2.38zM285.28 56l3.13-1.35c1.17 1.05 1.23 1.81-.22 2.64-5.5 3.15-10.94 6.41-16.46 9.51a3.08 3.08 0 0 1-2.58 0 98.55 98.55 0 0 1-9.51-6 5.39 5.39 0 0 1-1.84-3.74c-.18-6.69-.09-13.4-.09-20.1v-2.92l-3.45 1.45c-1-2 .42-2.58 1.62-3.27 6-3.49 12-7.06 18.12-10.39 2-1.1 2.26-2.51 1.84-4.4A10.56 10.56 0 0 0 269 9.81c-.78-.32-2 .61-3.09.83s-2.42.35-3.64.51l-.26-1c3.91-2.27 7.8-4.56 11.74-6.78a2 2 0 0 1 1.5 0 14.68 14.68 0 0 1 10 14.39V52.6c.03 1.05.03 2.02.03 3.4zm-9.41-31.5c-2.62 1.57-4.7 2.92-6.88 4.09a3.35 3.35 0 0 0-1.9 3.41c.09 6.07 0 12.14 0 18.22a10.14 10.14 0 0 0 8.75 9.66zm-47.73 3.79c-3 .8-3.87 2.63-3.78 5.71.23 8.39 0 16.8.13 25.19.05 3.19-.9 5.29-4.13 6.21a51.57 51.57 0 0 0-5.53 2.32V64.4c0-9.92-.09-19.84.06-29.75 0-2.74-.54-4.89-3.13-6.54l-3.64 2-1.62-1.7 11.44-7c1.55 1.62 3.16 3.14 4.56 4.84 1 1.16 1.72 1.18 2.92.44a86.79 86.79 0 0 1 7.68-4.35c.8-.39 2 .06 3 .15.15 0 .28.21.42.32 8 6.28 6.75 3 6.84 13.75.06 6.7 0 13.4 0 20.1a6.37 6.37 0 0 0 .79 3.28c1.64 2.5 3.4.53 5.18-.22 1 1.16 1.14 2-.43 2.8-1.75.89-3.36 2.06-5.11 2.94-1.53.77-2.73 2.58-5 1.12C236.28 65 234 63.51 234 59.9c.12-7.06 0-14.12-.05-21.17.05-6.66-.01-6.73-5.81-10.44zm-28.23 27.53l3-1.06.69.32c-.32.71-.44 1.75-1 2.08q-8.34 5.08-16.84 9.91a3 3 0 0 1-2.4-.26c-3.35-1.86-6.61-3.9-9.94-5.8-1.71-1-2.17-2.43-2.16-4.26V35.86c0-.86-.08-1.72-.14-2.84l-3.3 1.52-.61-.45c.48-.84.76-2 1.49-2.45q8.23-5 16.63-9.73a2.91 2.91 0 0 1 2.41.15c3.49 2 7 3.94 10.29 6.25a5.31 5.31 0 0 1 1.77 3.76c.17 6.87.08 13.75.09 20.62.02.96.02 1.91.02 3.13zm-10.11 4.56c.34-.49.51-.63.51-.77 0-8 .09-16 0-24.06a3.13 3.13 0 0 0-1.1-2.27c-2.55-1.69-5.24-3.18-7.86-4.74-.3.47-.48.62-.48.76-.07 7.93-.16 15.86-.15 23.79a3.18 3.18 0 0 0 1 2.34c2.65 1.77 5.4 3.33 8.08 4.95zM72.27 34.76c-5.38 3.24-10.52 6.49-15.74 9.56-1.55.91-2.49 1.94-2.16 3.81a1.34 1.34 0 0 1 0 .53c-1.45 6 2.15 9 6.73 11.39a3.13 3.13 0 0 0 2.4 0c2-.91 3.93-2 6-3.15l1.28 2.47c-4.44 2.58-8.73 5.14-13.1 7.54a3.1 3.1 0 0 1-2.58-.14c-2.7-1.57-5.26-3.36-7.9-5a4.67 4.67 0 0 1-2.38-4.42c.09-7.14 0-14.28 0-21.42v-2.92l-3.37 1.45-.63-.31c.42-.82.63-2 1.31-2.39 5.49-3.34 11-6.56 16.63-9.72a2.16 2.16 0 0 1 2 .18c3.91 4.05 7.63 8.24 11.51 12.54zm-17.61 7l8-5-8-9.19zm270.6-7.01c-4.85 3-9.37 6-14.15 8.51-3 1.59-4.46 3.5-3.88 6.89.31 1.81-.23 4.2.76 5.36 1.74 2 4.32 3.39 6.64 4.88.41.26 1.36-.07 1.95-.36 1.92-.95 3.79-2 5.92-3.15l1.18 2.48c-4.6 2.67-9 5.3-13.56 7.8a2.66 2.66 0 0 1-2.11-.4 76.34 76.34 0 0 1-8.26-5.45 5.94 5.94 0 0 1-1.81-4c-.18-7.14-.08-14.3-.09-21.45 0-.86-.08-1.71-.14-2.87l-3.58 1.66-.65-.47c.56-.85.93-2 1.72-2.49q8-4.87 16.19-9.45a2.64 2.64 0 0 1 2.44.11c3.82 3.96 7.5 8.09 11.43 12.4zm-9.7 2l-7.43-8.64-.6.36v13.3zM49.34 10.45l-12.15 7.64c-.88-1.77-.28-2.72 1.08-3.64 2.45-1.66 2.59-2.61.8-5s-3.82-4-7-3.57c-3.6.54-5.88 3-6.08 6.23a105.35 105.35 0 0 0 .57 15.12c.35 4.34 1.23 8.65 1.58 13a10 10 0 0 1-4.66 9.38c-1.83 1.28-3.59 2.66-5.43 3.92a1.71 1.71 0 0 1-1.37.11c-.21-.08-.4-.84-.26-1.13 2.91-5.75 1-11.52.15-17.3a104.4 104.4 0 0 1-1.69-13.51c-.2-9.43 8-17.81 17.47-18.42 6.27-.41 11.91.85 16.17 5.91a13.72 13.72 0 0 1 .82 1.26zM36.82 60l2-1c.27.4.74.79.69 1.09a2.65 2.65 0 0 1-.77 1.66c-2.87 2-5.81 3.8-8.88 5.78-5-7-11.88-6.3-18.82-4.29a70.79 70.79 0 0 0-8.59 3.65c-.76.33-1.48.76-2.42 1.24.37-3.48 8-9.39 15.14-11.92 7.7-2.69 15.05-2.51 21.65 3.79z"/><path d="M117.23 59.94l-12.67 7.53c-3.33-5.76-8.42-6.14-13.82-4.59-3.74 1.07-7.24 2.82-11.1 4.36 0-.22-.26-1.1 0-1.38 6.42-6.17 13.68-10.64 23-10.16a12.77 12.77 0 0 1 6.51 2c2.4 1.72 4.29 2.13 6.67-.26zm189.52 9.22c-.4 0-.9.16-1.19 0a103.53 103.53 0 0 1-9.08-6.16 6.16 6.16 0 0 1-1.9-4.18c-.2-7-.11-13.91-.08-20.87 0-.45.32-.89 1.05-1.3 0 .82.12 1.64.12 2.46 0 5.89.09 11.77 0 17.66a7 7 0 0 0 3.73 6.84c2.63 1.53 5.12 3.29 7.66 5zM150 68.55a7.44 7.44 0 0 1-7.38-4.7 15 15 0 0 1-.7-4.46c-.06-9.65-.09-19.3 0-29a29.81 29.81 0 0 1 1.19-7.23c0 11 .13 21.93-.06 32.89-.05 5.34.73 9.95 6.95 12.5zm76.74-36.92c2.33-1 5 1.19 5 3.7 0 7.05.17 14.11 0 21.15-.15 5.29.73 9.79 6.59 12-2.17.67-5.44-.89-6.48-3.13a11.72 11.72 0 0 1-1-4.62q-.16-10.17 0-20.35c-.05-3.56.35-7.12-4.11-8.75zm28.8 6.23c0 6 .14 11.95-.05 17.92-.12 3.53 1 6 4.18 7.65 2.85 1.53 5.5 3.43 8.24 5.17l-.29.63a5.18 5.18 0 0 1-1.53-.38c-3.19-2-6.43-3.89-9.45-6.1a5.27 5.27 0 0 1-2-3.51c-.21-6.87-.13-13.75-.13-20.63 0-.28.23-.56.36-.84zM53.65 69.35a9.45 9.45 0 0 1-1.77-.69 59.06 59.06 0 0 1-7.31-4.94c-1.35-1.18-2.74-3.13-2.82-4.79C41.44 52 41.6 45 41.62 38c0-.45.29-.91 1-1.35.07.7.2 1.41.2 2.11 0 5.63.21 11.27-.06 16.89-.19 3.95 1.05 6.67 4.58 8.55 2.36 1.26 4.5 2.93 6.75 4.42zM210.77 30.9c2-.08 1.94 1.31 1.93 2.69v35.55h-1c-.05-.9-.15-1.79-.15-2.69V35.7a34.54 34.54 0 0 0-.78-4.8zm-195.54 20c-1.15-7.61-2.36-15.21-3.41-22.83-.52-3.8-.7-7.64 1.28-11.23-1.28 7.67 1 15 2 22.42a75.11 75.11 0 0 1 .42 9.07 11.08 11.08 0 0 1-.67 2.73zm84.91-36.54c.39.75 1.12 1.51 1.13 2.26q.1 14.61 0 29.21a16.47 16.47 0 0 1-.81 3.54l-.72-.09V14.7zm21.23 54.73V20.97c0-3.16.15-6.22-3.77-7.47 1.63-1.09 4.17.47 4.63 2.47a6.07 6.07 0 0 1 .07 1.33v50a17.05 17.05 0 0 1-.17 1.72zm47.68-32.34v19.16a7.5 7.5 0 0 0 4.24 7.4c3.1 1.66 6 3.59 9.06 5.4l-.28.59a6.15 6.15 0 0 1-1.6-.41 99.76 99.76 0 0 1-9.63-5.75 6.87 6.87 0 0 1-2.65-4.54c-.29-6.94-.13-13.9-.11-20.85a4.38 4.38 0 0 1 .22-1zm99.03-24.7c3.68.38 6.75 4.78 5.36 7.34zM27.06 69.31c-.92-.82-1.8-1.7-2.79-2.43-1.19-.87-2.48-1.6-3.71-2.38 3.07-.24 5.21 1 7.13 4zM87.31 15c-3.22-.44-4.31-2.24-3.25-6.11zm59.24 2.19l-7-4.13.5-.88 7.1 4zM32.91 8c2.52-.13 3.79 1.41 4.88 3.14.18.29-.13.89-.22 1.34-.37-.13-.87-.15-1.1-.41-1.18-1.26-2.28-2.59-3.56-4.07z"/><path d="M96.79 64.43a5.78 5.78 0 0 1 5.19 3c.19.34 0 .9 0 1.36-.42-.15-1-.17-1.23-.47-1-1.55-2-3.18-2.92-4.77zm176.34-7.95v-28h.58v28zm-85.69.3a17.07 17.07 0 0 1-.31-2.35c0-5 0-10 .16-15 .11-2.58-.38-4.54-3-5.54-.51-.2-.89-.74-1.54-1.3 3.75.33 5.52 2.14 5.52 5.33v16.3c0 .83-.08 1.65-.12 2.48z"/></g></svg>