<svg xmlns="http://www.w3.org/2000/svg" viewBox="0 0 104.72 67.78"><defs><style>.cls-1{fill:#ef5035}</style></defs><title>maui-laurel-red</title><g id="Layer_2" data-name="Layer 2"><g id="Layer_1-2" data-name="Layer 1"><g id="Layer_2-2" data-name="Layer 2"><g id="Layer_1-2-2" data-name="Layer 1-2"><path class="cls-1" d="M80.58 4.49a4.28 4.28 0 0 1-.87-4.38 3.1 3.1 0 0 1 2.61 3.22c-.13 1.9.94 2.51 2.36 3h.26c-.51-2.58-.48-2.87.38-4.22A3.36 3.36 0 0 1 87.2 6c-.37 1.61.33 2.4 1.56 3.05.16.09.31.22.65.45a4.86 4.86 0 0 1 .78-4.38c1.8.89 2 2.23 1 5.91.23.25.5.52.74.81a4.92 4.92 0 0 0 1 1.08c.33-1.63.58-3.1 2.09-4.15.92 1.37 1.36 2.9.54 4.2-1.09 1.72-.48 2.93.52 4.24l.18.15a4.8 4.8 0 0 1 2.52-3.91 3.61 3.61 0 0 1 .33 3.46 6.27 6.27 0 0 1-1.16 2 1.3 1.3 0 0 0-.27 1.55c.27.61.52 1.22.89 2.07a4.69 4.69 0 0 1 3-3.73 3.34 3.34 0 0 1-.9 4.5c-1.49 1.18-1.47 2.36-.77 4a5.35 5.35 0 0 1 3.8-2.76 3.46 3.46 0 0 1-.88 3.58 5.32 5.32 0 0 1-1.56 1.24 1.53 1.53 0 0 0-.95 2.08 9.05 9.05 0 0 1 .18 1 5.5 5.5 0 0 1 4.19-1.94 4.12 4.12 0 0 1 0 1.06 4.56 4.56 0 0 1-3.15 3.28c-1 .3-1.45.77-1.4 1.8A7.8 7.8 0 0 1 99.9 38a5 5 0 0 1 4.73-1.56 3.36 3.36 0 0 1-1.69 2.9 8.64 8.64 0 0 1-2.11.88c-1.69.48-1.7.45-1.88 2.28 2.93-.82 3.07-.83 4.82-.14a4.91 4.91 0 0 1-2.65 2.61 3.62 3.62 0 0 1-1.66.37c-1.77-.23-2.49.73-2.87 2.23 2.32-.74 3.12-.69 5 .4a4.23 4.23 0 0 1-3.35 2.28 7.21 7.21 0 0 1-2 0c-1.61-.16-1.77-.08-2.55 1.63a6.29 6.29 0 0 1 4.91 1.3C96.44 55.65 94 55 91.41 54l-1.66 1.55a21.43 21.43 0 0 1 2.71.63 3.64 3.64 0 0 1 2.15 1.68c-1.7 1.45-3.51 1.35-5.4.62a5.65 5.65 0 0 1-.65-.3c-1.41-.77-1.41-.77-2.85.49a7.22 7.22 0 0 1 4.36 3.12 4.57 4.57 0 0 1-3.85.54 5.92 5.92 0 0 1-2.14-1.14c-1.07-1.08-2.05-1-3.28-.13a6.42 6.42 0 0 1 3.8 3.58c-2.17 1.27-4.24.44-7-2.77a22.68 22.68 0 0 0-12 5.86l-1-1a8.78 8.78 0 0 1 3.68-2.88A56.21 56.21 0 0 1 75 61.22a2.1 2.1 0 0 0 1.77-2 5 5 0 0 1 2.76-4.27 5.54 5.54 0 0 1 .77-.28c.94 1.48.65 3.07-.86 5.42 1.92-.36 2-.4 1.92-2.24a5.33 5.33 0 0 1 2-4.82 2.61 2.61 0 0 1 .48-.3.75.75 0 0 1 .28 0c1 1.68 1 3-.13 5.54.35-.21.58-.33.81-.48C86 57 86 57 85.66 55.6a5.12 5.12 0 0 1 .68-4.6 11.81 11.81 0 0 1 1.11-1.19 5.54 5.54 0 0 1 1 4.89c1.4-.36 1.63-.74 1.1-2-.74-1.81-1-3.6.14-5.36.13-.2.3-.36.56-.68a5.58 5.58 0 0 1 1.84 4.64c1.42-.86 1.54-1.22.73-2.44a5.05 5.05 0 0 1-.74-5.14 7.31 7.31 0 0 1 .5-.78A5.92 5.92 0 0 1 95 47.85l1.28-2.17c-1.8-1.82-3.46-3.63-2.23-6.6a5.3 5.3 0 0 1 3.26 4.31l.3-.81c.57-1.51.57-1.5-.7-2.59-1.11-1-2.11-2-2.12-3.58a12.09 12.09 0 0 1 .21-1.35c1.85.43 2.63 1.11 3.91 3.31.07-.33.14-.58.2-.85.33-1.47.33-1.49-1-2.17a4.85 4.85 0 0 1-3-3.79 1.63 1.63 0 0 1 0-.43 2 2 0 0 1 .22-.42 5.67 5.67 0 0 1 4.26 2.7v-.82c0-1.73 0-1.72-1.61-2.3a4.51 4.51 0 0 1-3.42-3.87 4.63 4.63 0 0 1 4.69 2.17c-.08-.6-.11-.88-.15-1.16s-.11-.65-.18-1a1.09 1.09 0 0 0-1.06-1 12.17 12.17 0 0 1-2-.4 3.52 3.52 0 0 1-2.52-2.65c1.17-.7 1.85-.63 4.49.52-.15-.53-.27-1-.41-1.41a1.17 1.17 0 0 0-1.3-.88 11.57 11.57 0 0 1-1.58 0 4.34 4.34 0 0 1-3.54-2.3 4.47 4.47 0 0 1 5.16.5l-1.71-3c-2.28.86-4.41 1.22-6.16-1.09a4.54 4.54 0 0 1 5-.51l-2-2.38c-3.21 1.47-4.69 1.45-6.26-.13a5.41 5.41 0 0 1 4.3-1.52l-2-1.69c-1.89 1.22-3.72 2.65-6 1 1-1.55 2-2 4.28-2-.36-.25-.61-.45-.9-.62-1.65-1-1.66-1-3.13.33a3.55 3.55 0 0 1-4.3.65 4.29 4.29 0 0 1 4-2.56l-.65-.76zm-56.36-.01l-.65.76a4.37 4.37 0 0 1 4.06 2.62 3.2 3.2 0 0 1-2.87.19 5.37 5.37 0 0 1-1.24-.71c-.57-.4-1.16-1.26-1.66-1.2a6.83 6.83 0 0 0-2.5 1.23 4.69 4.69 0 0 1 4.14 1.92c-1.24 1.47-2.38 1.35-6-.71l-2 1.57a5.74 5.74 0 0 1 4.31 1.57c-1.37 1.58-3.17 1.63-6.23.13l-2.08 2.38a4.48 4.48 0 0 1 4.89.43c-1 1.92-2.63 2.26-6 1.21L8.64 18.8a4.45 4.45 0 0 1 5.15-.5 4.27 4.27 0 0 1-3.29 2.32 6.7 6.7 0 0 1-.86 0c-2.06 0-2.14.08-2.52 2.33 1.39-.81 2.78-1.37 4.47-.73A3.54 3.54 0 0 1 9.17 25a6.37 6.37 0 0 1-1.82.39 1.39 1.39 0 0 0-1.46 1.43c-.06.47-.16.94-.3 1.69a5.21 5.21 0 0 1 4.65-2.14 3.81 3.81 0 0 1-2 3.35 4.13 4.13 0 0 1-.91.43c-2.15.82-2.15.82-2 3.26a20.36 20.36 0 0 1 1.88-1.84 4 4 0 0 1 2.51-.79 4.22 4.22 0 0 1-1.37 3.54 9.9 9.9 0 0 1-1.67 1.1c-1.22.65-1.25.65-1 2 .07.33.15.65.22 1a14.62 14.62 0 0 1 1.51-2 16.73 16.73 0 0 1 2.22-1.52 3.67 3.67 0 0 1-.48 3.84 9 9 0 0 1-1.52 1.51c-1.07.91-1.08.89-.62 2.13.11.3.23.6.42 1.08a5.27 5.27 0 0 1 3.08-4.21c1.39 2.28.45 3.95-2 6.55l1.2 2.11A6.31 6.31 0 0 1 12.09 43a3.75 3.75 0 0 1 .91 3.78 6.43 6.43 0 0 1-1 1.94c-.81 1.3-.82 1.41.26 2.56.13.13.28.25.58.52a5.33 5.33 0 0 1 1.63-5.19 4.83 4.83 0 0 1 1.3 3.91 11.79 11.79 0 0 1-.57 2.08c-.51 1.43-.5 1.5 1.09 2.28a5.57 5.57 0 0 1 .94-4.88 4.56 4.56 0 0 1 2 5.17c-.4 1.87-.4 1.87 1.67 3.09a5.23 5.23 0 0 1-.24-5.76 5.15 5.15 0 0 1 2.7 3.75 12 12 0 0 1 0 1.44c0 1.87 0 1.87 2.06 2.51-1.23-1.75-1.91-3.49-1.15-5.62a5 5 0 0 1 3.36 3 1.75 1.75 0 0 1 .2.69c-.06 2.12 1.19 2.85 3.08 3.32a21.59 21.59 0 0 1 7.49 3.51c.61.44 1.16 1 1.88 1.58l-1.06 1.13a22.59 22.59 0 0 0-12.05-5.83c-3 3.23-4.77 4-7.05 2.76a6.38 6.38 0 0 1 3.71-3.51c-1.44-1.1-1.56-1.09-3 0-1.63 1.18-3.34 1.9-5.36 1.07a7.29 7.29 0 0 1-.71-.4 6.34 6.34 0 0 1 4.2-3c-1.13-1.33-1.3-1.35-2.68-.62-2 1.08-4.06 1.34-6-.16.74-1.47 2.57-2.33 4.91-2.46a12.32 12.32 0 0 1-1.22-1 1.16 1.16 0 0 0-1.4-.27 10.28 10.28 0 0 1-2.64.56c-1.58.09-2.39-.33-3.73-1.7A5.69 5.69 0 0 1 11 51.9c-.5-1.57-.94-1.87-2.28-1.7a5.66 5.66 0 0 1-4.51-.94A14.24 14.24 0 0 1 3 48a4.78 4.78 0 0 1 5.32-.26c-.26-.58-.45-.94-.59-1.3A1.57 1.57 0 0 0 6 45.37 5 5 0 0 1 1.37 43a3.84 3.84 0 0 1-.28-.69c1.68-.83 3.21-.36 4.74.28-.06-1.86-.07-1.86-1.79-2.37-1.39-.41-2.78-.86-3.47-2.31C.38 37.49.25 37 0 36.46a5 5 0 0 1 4.85 1.45c-.12-.81-.22-1.46-.3-2.12s-.74-.81-1.26-1a4.7 4.7 0 0 1-3-2.79A8.18 8.18 0 0 1 0 30.63c1.66-.23 2.72.21 4.24 1.75.09-.4.14-.75.24-1.08a1.47 1.47 0 0 0-.91-2A4.6 4.6 0 0 1 1 26.22a10 10 0 0 1-.1-1.67c1.78.21 2.61.78 4 2.81a15.46 15.46 0 0 0 .48-2.44c0-.33-.39-.72-.68-1a4.75 4.75 0 0 1-1.93-3.08 14.85 14.85 0 0 1 .12-2.1c2 .68 2.61 1.38 3.39 3.62a9.15 9.15 0 0 1 .49-1.11 2.25 2.25 0 0 0-.29-3A4.18 4.18 0 0 1 6 13.37a5 5 0 0 1 2.5 4.19l1.37-2.11c.4-.62 0-1.1-.3-1.59a4.64 4.64 0 0 1-.24-4.28 3.84 3.84 0 0 1 .47-.67c1.3.9 1.68 1.66 1.92 4.13a24.32 24.32 0 0 0 1.73-1.79c.15-.19.07-.61 0-.91-.13-.7-.38-1.39-.46-2.1a3.32 3.32 0 0 1 1.5-3.19c1.14 1.24 1.3 2.66.79 4.56A25.7 25.7 0 0 0 17.35 8a1.5 1.5 0 0 0 .33-1c0-.57-.13-1.14-.13-1.71 0-1.6.43-2.28 2-3.26 1 1.34.75 2.76.19 4.42.62-.27 1-.49 1.45-.64a1.71 1.71 0 0 0 1.25-2A3.78 3.78 0 0 1 24.91 0c1 1.76.27 3.15-.72 4.5z"/><path class="cls-1" d="M41.38 40.63v-7.2l-2.61 5.24h-1.49l-2.61-5.24v7.2h-2.8v-12h3L38 34.88l3.13-6.28h3v12zm8.34-12.03h2.51l4.39 12h-2.86l-.93-2.69h-3.74l-.92 2.69h-2.85zm2.65 7.4L51 31.77 49.52 36zm10.07 2.25a2.28 2.28 0 0 0 1.2-.3 2.36 2.36 0 0 0 .8-.79 3.38 3.38 0 0 0 .43-1.16 6.57 6.57 0 0 0 .13-1.3v-6.1h2.77v6.15a8.39 8.39 0 0 1-.33 2.34 5.39 5.39 0 0 1-1 1.9 4.52 4.52 0 0 1-1.66 1.28 5.67 5.67 0 0 1-2.4.47 5.6 5.6 0 0 1-2.46-.49 4.56 4.56 0 0 1-1.65-1.3 5.41 5.41 0 0 1-.91-1.95 8.57 8.57 0 0 1-.3-2.28V28.6h2.78v6.15a6.22 6.22 0 0 0 .16 1.32 3.51 3.51 0 0 0 .44 1.12 2.18 2.18 0 0 0 2 1.07zm7.49 2.38v-12h2.77v12zM25.61 23.12a.94.94 0 0 1-.39.8 1.36 1.36 0 0 1-.43.21 1.86 1.86 0 0 1-.52.07h-2V20h2.23a.82.82 0 0 1 .39.09 1 1 0 0 1 .3.24 1.11 1.11 0 0 1 .19.33 1.15 1.15 0 0 1 .07.38 1.13 1.13 0 0 1-.15.57.93.93 0 0 1-.45.4 1.07 1.07 0 0 1 .58.39 1.09 1.09 0 0 1 .18.72zm-2.54-2.41v1h1.08a.48.48 0 0 0 .35-.14.52.52 0 0 0 .14-.39.53.53 0 0 0-.13-.38.43.43 0 0 0-.33-.14zM24.8 23a.61.61 0 0 0 0-.22.6.6 0 0 0-.1-.18.48.48 0 0 0-.15-.12.43.43 0 0 0-.19 0h-1.29v1.1h1.2a.53.53 0 0 0 .21 0 .5.5 0 0 0 .17-.11.56.56 0 0 0 .15-.47zm4.34.48v.71h-2.9V20h2.84v.71H27v1h1.75v.65H27v1.08zm3.02-2.37L32 21l-.26-.14-.33-.11a1.47 1.47 0 0 0-.37 0 .83.83 0 0 0-.5.12.41.41 0 0 0-.16.35.36.36 0 0 0 .06.22.53.53 0 0 0 .18.15 1.5 1.5 0 0 0 .3.12l.41.11a5.59 5.59 0 0 1 .55.18 1.5 1.5 0 0 1 .42.23 1 1 0 0 1 .27.33 1.12 1.12 0 0 1 .09.49 1.21 1.21 0 0 1-.13.57 1.06 1.06 0 0 1-.33.38 1.48 1.48 0 0 1-.49.22 2.48 2.48 0 0 1-.58.07 3.13 3.13 0 0 1-1-.13 2.86 2.86 0 0 1-.82-.4l.36-.7a1.12 1.12 0 0 0 .19.14l.33.17a2.5 2.5 0 0 0 .42.14 1.88 1.88 0 0 0 .47.06q.67 0 .67-.43a.35.35 0 0 0-.07-.23.65.65 0 0 0-.22-.16 2.09 2.09 0 0 0-.33-.13l-.45-.13a3.76 3.76 0 0 1-.52-.18 1.36 1.36 0 0 1-.36-.23.86.86 0 0 1-.22-.31 1.06 1.06 0 0 1-.07-.41 1.3 1.3 0 0 1 .08-.57 1.13 1.13 0 0 1 .33-.41 1.48 1.48 0 0 1 .48-.25A2 2 0 0 1 31 20a2.3 2.3 0 0 1 .81.14 3 3 0 0 1 .65.33zm4.2-.38H35v3.45h-.8v-3.45h-1.29V20h3.47zm1.76 3.46V20h1.51a2.26 2.26 0 0 1 .9.16 1.8 1.8 0 0 1 1 1.1 2.48 2.48 0 0 1 .13.8 2.44 2.44 0 0 1-.14.86 1.83 1.83 0 0 1-.41.65 1.87 1.87 0 0 1-.65.42 2.28 2.28 0 0 1-.85.15zm2.75-2.09a1.78 1.78 0 0 0-.08-.55 1.24 1.24 0 0 0-.24-.43 1.08 1.08 0 0 0-.39-.28 1.3 1.3 0 0 0-.52-.1h-.7v2.74h.7a1.27 1.27 0 0 0 .53-.1 1.09 1.09 0 0 0 .39-.29 1.3 1.3 0 0 0 .24-.44 1.76 1.76 0 0 0 .08-.55zm3.23 2.12a1.89 1.89 0 0 1-.83-.18 2 2 0 0 1-.65-.48 2.2 2.2 0 0 1-.56-1.46 2.09 2.09 0 0 1 .16-.8 2.2 2.2 0 0 1 .43-.67 2 2 0 0 1 .65-.47 1.92 1.92 0 0 1 .8-.16 1.83 1.83 0 0 1 .82.19 2.06 2.06 0 0 1 .65.49 2.23 2.23 0 0 1 .41.68 2.14 2.14 0 0 1 .15.78 2.11 2.11 0 0 1-.15.79 2.16 2.16 0 0 1-.42.67 2 2 0 0 1-.65.46 1.93 1.93 0 0 1-.81.16zm-1.21-2.11a1.67 1.67 0 0 0 .08.52 1.4 1.4 0 0 0 .24.45 1.12 1.12 0 0 0 1.8 0 1.43 1.43 0 0 0 .23-.45 1.66 1.66 0 0 0 .08-.51 1.63 1.63 0 0 0-.08-.52 1.44 1.44 0 0 0-.24-.45 1.15 1.15 0 0 0-.38-.31 1.19 1.19 0 0 0-1 0 1.16 1.16 0 0 0-.38.33 1.42 1.42 0 0 0-.23.45 1.66 1.66 0 0 0-.12.49zm3.61-.03a2.16 2.16 0 0 1 .14-.75 2 2 0 0 1 1-1.14 2 2 0 0 1 .87-.18 1.89 1.89 0 0 1 1 .25 1.63 1.63 0 0 1 .63.65l-.62.43a1.06 1.06 0 0 0-.2-.3 1 1 0 0 0-.25-.19 1.14 1.14 0 0 0-.28-.1 1.34 1.34 0 0 0-.29 0 1.09 1.09 0 0 0-.53.12 1.17 1.17 0 0 0-.37.33 1.41 1.41 0 0 0-.22.45 1.69 1.69 0 0 0-.07.5 1.63 1.63 0 0 0 .09.53 1.42 1.42 0 0 0 .25.45 1.24 1.24 0 0 0 .39.33 1.06 1.06 0 0 0 .5.12 1.3 1.3 0 0 0 .29 0 1.09 1.09 0 0 0 .54-.31.91.91 0 0 0 .19-.29l.65.38a1.25 1.25 0 0 1-.28.41 1.83 1.83 0 0 1-.42.3 2.13 2.13 0 0 1-.5.19 2.17 2.17 0 0 1-.51.07 1.78 1.78 0 0 1-.81-.19 2.12 2.12 0 0 1-.65-.49 2.28 2.28 0 0 1-.42-.69 2.14 2.14 0 0 1-.12-.88zm6.03 1.42a.93.93 0 0 0 .48-.12.94.94 0 0 0 .33-.31 1.26 1.26 0 0 0 .17-.43 2.5 2.5 0 0 0 0-.5V20h.8v2.12a3 3 0 0 1-.1.8 1.84 1.84 0 0 1-.33.65 1.54 1.54 0 0 1-.57.45 1.92 1.92 0 0 1-.83.16 1.89 1.89 0 0 1-.85-.17 1.58 1.58 0 0 1-.57-.46 1.82 1.82 0 0 1-.33-.65 3.11 3.11 0 0 1-.1-.78V20h.81v2.12a2.51 2.51 0 0 0 0 .51 1.26 1.26 0 0 0 .17.43.88.88 0 0 0 .79.42zm6.04.69v-2.76l-1.07 2.05h-.44L56 21.43v2.76h-.81V20H56l1.23 2.37L58.51 20h.86v4.16zm4.57-.71v.71h-2.89V20h2.84v.71h-2v1h1.75v.65h-1.79v1.08zm1.44-1.96v2.67h-.81V20h.63l2.17 2.73V20h.81v4.16h-.65zm6.77-.79H70v3.45h-.8v-3.45h-1.32V20h3.47zm1.3-.73h.72l1.56 4.16h-.83l-.39-1h-1.45l-.38 1H71zm.93 2.56L73 21l-.6 1.63zm1.83 1.63V20h1.84a1.18 1.18 0 0 1 .53.12 1.38 1.38 0 0 1 .42.33 1.5 1.5 0 0 1 .28.45 1.34 1.34 0 0 1 .1.5 1.38 1.38 0 0 1-.2.74 1.16 1.16 0 0 1-.55.48l1 1.57h-.91L77 22.8h-.8v1.39zm.81-2.1h1a.43.43 0 0 0 .21-.05.53.53 0 0 0 .17-.14.72.72 0 0 0 .11-.22.83.83 0 0 0 0-.26.75.75 0 0 0 0-.27.71.71 0 0 0-.13-.22.57.57 0 0 0-.18-.14.47.47 0 0 0-.21 0h-1zM79.64 20l1 2 1-2h.87L81 22.71v1.45h-.8v-1.44L78.76 20zM29.58 49.42V44.8h3.11v.79h-2.22v1.19h1.84v.73h-1.84v1.92zm3.74 0V44.8h.89v4.63zm1.87 0V44.8h.9v3.84h2.36v.79zm7.57 0v-3.06l-1.19 2.28h-.49l-1.19-2.28v3.06H39V44.8h1l1.37 2.63 1.38-2.63h.94v4.63zm3.42 0V44.8h3.11v.79h-2.21v1.19h1.84v.73h-1.84v1.92zm6.96-.79v.79h-3.22V44.8h3.15v.79h-2.25v1.11h2v.73h-2v1.21zM56.5 46l-.17-.12a2 2 0 0 0-.29-.15 2.56 2.56 0 0 0-.37-.13 1.63 1.63 0 0 0-.41-.05.92.92 0 0 0-.55.14.45.45 0 0 0-.18.38.39.39 0 0 0 .07.24.59.59 0 0 0 .2.17 1.65 1.65 0 0 0 .33.13l.46.12.62.2a1.67 1.67 0 0 1 .47.26 1.07 1.07 0 0 1 .3.37 1.24 1.24 0 0 1 .1.54 1.34 1.34 0 0 1-.14.65 1.18 1.18 0 0 1-.38.43 1.65 1.65 0 0 1-.55.24 2.75 2.75 0 0 1-.65.07 3.48 3.48 0 0 1-1-.16 3.18 3.18 0 0 1-.91-.44l.4-.78a1.25 1.25 0 0 0 .21.15l.36.19a2.82 2.82 0 0 0 .46.16 2.09 2.09 0 0 0 .52.07q.74 0 .74-.48A.39.39 0 0 0 56 48a.72.72 0 0 0-.24-.18 2.31 2.31 0 0 0-.38-.14l-.5-.14a4.24 4.24 0 0 1-.58-.2 1.52 1.52 0 0 1-.41-.25 1 1 0 0 1-.24-.33 1.18 1.18 0 0 1-.08-.46 1.44 1.44 0 0 1 .13-.63 1.26 1.26 0 0 1 .36-.46 1.63 1.63 0 0 1 .54-.28 2.22 2.22 0 0 1 .65-.09 2.55 2.55 0 0 1 .9.15 3.36 3.36 0 0 1 .72.36zm4.66-.41h-1.47v3.84h-.89v-3.84h-1.49v-.79h3.85zm.58 3.83V44.8h.9v4.63zm2.34-4.62l1.25 3.5 1.24-3.5h.94l-1.8 4.63H65l-1.87-4.63zm4.85 0h.79l1.76 4.63h-.93l-.43-1.15H68.5l-.42 1.15h-.93zm1 2.84l-.65-1.82-.65 1.82zM72 49.42V44.8h.9v3.84h2.36v.79z"/></g></g></g></g></svg>