<svg xmlns="http://www.w3.org/2000/svg" viewBox="0 0 405.74 226.27"><title>maverick-black</title><path d="M142.21 218.77c-1-2.44-1.86-4.53-2.69-6.63q-4.29-10.86-8.56-21.73c-2.33-5.91-4.64-11.82-7-17.71-.21-.51-.8-1.19-1.25-1.22-1.92-.14-3.86-.06-6-.06l22.19 54.7c1.92 0 3.75.08 5.57 0a2 2 0 0 0 1.33-1.12l14-34c1.55-3.78 3.12-7.55 4.66-11.34 1.07-2.65 2.09-5.32 3.23-8.22-1.87 0-3.48.09-5.07 0a1.79 1.79 0 0 0-2.05 1.39c-2 5.09-4.08 10.14-6.1 15.22q-5.37 13.55-10.7 27.13c-.49 1.07-.97 2.18-1.56 3.59zm71.46-41.57v-5.65h-36.85V226h37.81v-5.85h-31.37v-19h27.11v-5.64h-27.13V177.2zM200.83 63.16L150 0v131.1h29.07v-31.03a5.46 5.46 0 0 1 1.33-3.75c4.3-5.27 8.54-10.6 12.8-15.9 2.49-3.1 5-6.19 7.6-9.41.47.49.91.9 1.28 1.36C208.74 80.67 215.4 89 222 97.3a5 5 0 0 1 1 2.83c.07 9.66 0 19.33 0 29v2h29V.48l-.4-.24zm-26.56 63.14h-17.92l17.91-22.3zm5-36.23v-46l18.5 23zm43.63.5l-6.79-8.39c-3.58-4.43-7.15-8.88-10.76-13.29-1.49-1.82-1.48-1.75 0-3.53C210 59.6 214.58 53.8 219.23 48c1.14-1.42 2.3-2.81 3.65-4.45zm5 35.76v-21.8l17.52 21.8zm39.57 70.87a21.71 21.71 0 0 0 .88-11.46 15.26 15.26 0 0 0-8.62-11.74 23.33 23.33 0 0 0-10-2.55c-7.38-.09-14.77-.07-22.15-.09-.32 0-.64 0-1 .08V226h6.06v-17.14c.61 0 1-.07 1.38-.07 5.27-.07 10.54-.17 15.81-.18a2 2 0 0 1 1.34.86c3.41 5.11 6.76 10.27 10.16 15.38.34.51.91 1.17 1.42 1.2 2.08.14 4.17.06 6.62.06l-12.85-18.63c5.9-2.37 9.08-5.33 10.95-10.28zm-8.71 2.24a12.45 12.45 0 0 1-8.16 3.25c-5.81.26-11.65.12-17.47.13a2.14 2.14 0 0 1-.54-.18c0-.42-.08-.85-.08-1.28v-22.47c0-1.3.33-1.74 1.67-1.7 5.54.16 11.09.13 16.63.34s10.29 3.77 11.39 8.76.44 9.49-3.44 13.15zM55 226v-54.59h-6.88a1.75 1.75 0 0 0-1.15.91q-7 13.83-13.93 27.69c-1.79 3.56-3.58 7.11-5.45 10.81-1.21-2.29-2.33-4.32-3.37-6.39Q16.18 188.4 8.1 172.32c-.18-.35-.55-.85-.84-.85-2.42-.07-4.84 0-7.26 0V226h5.78v-44.73a1.43 1.43 0 0 1 .74.74l9.57 19.13c3 6 6.05 11.93 8.94 18 .82 1.71 2.11.93 3.24 1.13s1.55-.5 2-1.37q1.72-3.69 3.55-7.33 6.44-12.83 12.92-25.64c.78-1.54 1.59-3.05 2.38-4.58l.4.12V226zm291.11-42.26l3.59-4.44a29 29 0 0 0-40.91.73 27.15 27.15 0 0 0 1.62 39.07c12.34 11 30.37 8.33 39.37-1.27l-3.72-3.94c-11 9.56-25.27 8.09-33.45-1.61a21.58 21.58 0 0 1 1.21-28.64c7.54-7.64 21.18-10.04 32.29.1zm-63.19-12.22V226H289v-54.48zm99.47 23.7l21.67-23.8h-6.94a2.32 2.32 0 0 0-1.36.8q-9.56 10.29-19.08 20.62-4.49 4.87-9 9.75l-.48-.17v-30.89h-6.06V226h6.11v-12.89a3.74 3.74 0 0 1 .8-2.22c2.92-3.34 5.93-6.59 8.91-9.86a7.64 7.64 0 0 1 .94-.74c1.78 2.27 3.5 4.44 5.19 6.62 4.65 6 9.28 12 14 18a2.81 2.81 0 0 0 1.65 1.15c2.19.13 4.4.05 7 .05l-11.67-15.45zm-284.93-18.8c-.74-1.65-1.14-3.92-2.43-4.74s-3.54-.24-5.37-.27h-.16c-.41.27-1 .45-1.18.82q-4.34 9.49-8.59 19-5.56 12.41-11.1 24.82c-1.46 3.26-2.93 6.52-4.5 10 2 0 3.8-.06 5.55 0a1.55 1.55 0 0 0 1.71-1.05c1.66-3.91 3.4-7.8 5.06-11.71a1.56 1.56 0 0 1 1.66-1.19q13.66.06 27.31 0a1.54 1.54 0 0 1 1.68 1.16c1.64 3.92 3.37 7.81 5.12 11.68.21.47.77 1.1 1.19 1.12 2 .12 3.95.05 6.1.05-.22-.68-.33-1.15-.53-1.59-2.09-4.63-4.23-9.24-6.3-13.87q-7.63-17.11-15.22-34.23zm-17.91 29.92l12.18-28 12.36 28z" data-name="Layer 1"/></svg>