<svg xmlns="http://www.w3.org/2000/svg" viewBox="0 0 100.23 30.51"><title>meganmeier-black</title><g data-name="Layer 1-2"><path d="M88.16 2.91c.83-.74 1.61-2 3.12-2.4.48-.22 1 0 1.58-.34s1.65.06 2.34.33c1.2.46 2.55.86 3.17 2.26.26.58.89 1 1.15 1.57a7.07 7.07 0 0 1 .68 2.38 5.88 5.88 0 0 1-.2 2.4 17 17 0 0 1-3 5.72c-.59.7-1.16 1.42-1.84 2.28-.15.64.4 1.28.77 1.84a15 15 0 0 1 2.4 6.11 2.61 2.61 0 0 0 .34.63 8.74 8.74 0 0 0-5.31 1.2 10 10 0 0 1-.08-2.06 4.52 4.52 0 0 0-.3-2.08c-.32-.59-.21-1.39-.91-1.87-1.14.59-1.55 1.83-2.2 2.78A16.53 16.53 0 0 0 88.52 27c-.43 1.13-.34 2.35-1 3.51-1.08-2.18-3.13-2.63-5-3.4.65-1.14 1.36-2.2 1.88-3.35a16.16 16.16 0 0 1 1.6-2.32c.66-.93 1.49-1.71 2.21-2.58.37-.46.63-1 1-1.49a7 7 0 0 1 .51-.62 38.64 38.64 0 0 1-2.05-4.21A13.89 13.89 0 0 1 87 7.78a12.24 12.24 0 0 1 1.16-4.87zm4.69 10.95a20.14 20.14 0 0 0 3.3-5.24v-2.3a2.15 2.15 0 0 0-.87-1.84 5.4 5.4 0 0 0-1.53-.87 2.29 2.29 0 0 0-2.65 1.75 14.07 14.07 0 0 0 .63 5.4c.33.98.7 1.97 1.11 3.1zM1 5c.37-.37.67-1 1.55-.71-.3 1.67.69 3 1 4.57a15.76 15.76 0 0 0 .69 2C5.5 8.06 7.41 5.77 9 3.12l1.14.49V7.5c0 1.26.21 2.53.3 3.8s-.23 2.47.46 3.76l-.74.34.16.15h-.66c-.05-.07-.16-.15-.16-.23.13-3.16-.56-6.3-.33-9.47v-.9a31.8 31.8 0 0 0-4.9 7.82l-.87-.27-1.26-5.24c-.56 1.08 0 2.14-.47 3.16s-.1 2.08-.33 3.15A16.6 16.6 0 0 0 1.3 17l-.83.71-.47-.44c.19-.86-.31-1.89.32-2.85.09-.15 0-.41 0-.62.09-.64-.14-1.28.28-1.94.31-.51-.06-1.25.31-1.91.24-.44 0-1.13.06-1.7a3.56 3.56 0 0 1 .2-1.33C1.4 6.45 1.12 5.77 1 5zm51.78.24c.56-.56.8-1.24 1.72-1 0 2 .89 3.81 1.55 5.7a6.86 6.86 0 0 1 .18.94c.49-1 .89-1.84 1.39-2.68a14 14 0 0 1 1.71-2.56c.73-.74.75-1.93 1.83-2.47l.94.38V5c.1 2.89.19 5.78.33 8.67a7.18 7.18 0 0 0 .38 1.42l-1.34.65v-2.85c-.12-2.56-.28-5.13-.41-7.81a34 34 0 0 0-4.81 7.7l-.86-.32-1.16-4.77H54a7 7 0 0 0-.08 1 7.12 7.12 0 0 1-.3 2.39c-.21.71.13 1.48-.28 2.25-.26.49 0 1.23-.06 1.86 0 .32-.22.63-.21.94a2.7 2.7 0 0 0 .31.83l-.92.81c-.12-.14-.42-.33-.4-.5.06-.8-.28-1.65.24-2.41a.64.64 0 0 0 .05-.29c.11-1.27.19-2.54.32-3.8.06-.59.19-1.17.31-1.76s-.09-1.15.25-1.79a1.62 1.62 0 0 0-.45-1.98zM18.47 16.12a1.41 1.41 0 0 1-1-1.09s.13-.08.13-.16c0-1.39.79-2.5 1.36-3.68a9.88 9.88 0 0 1 2.19-3c1.14-1.06 1.94-1.08 3.13-.06.12.1.22.22.36.36 0 2.33.11 4.69 0 7a10.86 10.86 0 0 1-3.71 7.72 2.93 2.93 0 0 1-2.43.5l-.5-.46a5.28 5.28 0 0 1 .15-.71 5.43 5.43 0 0 1 .34-.67l.65.62H20c.11-.11.21-.28.34-.33 1.66-.76 2.21-2.27 2.66-3.77a17 17 0 0 0 .64-6.17 5.74 5.74 0 0 0-.43-1.37c-1.21 2.08-2.29 4.33-4.74 5.27zm0-1c2.58-1.5 3.3-3.95 4.68-6.28l-1.67.39a13.53 13.53 0 0 0-3 5.88zm13.25-8.73l-.39.79c1.07 1.64 1.31 3.66 2.06 5.49a4.49 4.49 0 0 1-.05 2.41 2.37 2.37 0 0 1-1.21-1.41 26 26 0 0 1-1-3.79c-.53.3-.63.85-.86 1.28a36.33 36.33 0 0 1-2.09 3.57c-.45.67-1.36.69-1.47 1.72l-1.09-.94-.28-1a9.58 9.58 0 0 1 .53-2.16c.94-1.87 1.81-3.81 3.52-5.16a3.93 3.93 0 0 1 1-.65 5 5 0 0 1 1.33-.15zm-1.53 1.67c-1 .93-2.06 1.69-2.57 3s-1.39 2.34-1 3.89a14.63 14.63 0 0 0 3.58-6.93zM34 16.27c.12-2.63-.28-5.11.45-7.7l1-.37c-.11 1.48-.66 2.78-.43 4.48.74-2.44 1.75-4.29 4.14-5a3.39 3.39 0 0 1 2.85 2.78 5.75 5.75 0 0 1 .17.86v2.73l-.44.85H41c.11-.83-.2-1.67.23-2.29-.11-.61-.23-1.17-.23-1.71a1.8 1.8 0 0 0-.89-1.63 1.91 1.91 0 0 0-2.33.21 4.72 4.72 0 0 0-1.49 2.69c-.34 1.11-.83 2.18-1.25 3.26a1.21 1.21 0 0 1-1.04.84zm-20.38-1.16l.41.41 1.51-.36-.87 1.3-1 .41a3.89 3.89 0 0 1-.42-.23c-.45-.32-.53-.81-.73-1.27s-.34-.8.05-1.22c.11-.12 0-.4 0-.6a4.94 4.94 0 0 1 0-.94 2.94 2.94 0 0 1 .44-.73c-.32-.05-.5-.09-.69-.1s-.41 0-.66 0v-.89l1.73-.51c.65-1 1-2.45 2.19-3.33h.9C18 8.43 18 8.43 18 10.08c-1 1-2.47.55-3.68 1.16a6.07 6.07 0 0 0-.7 3.87zm50.91-3.16l-1 .58-.56-.76c.24-.23.43-.56.67-.61.43-.1 1 .1 1.29-.48a5.54 5.54 0 0 1 1.08-3h1.67l2 1.29v1.11L66 11.4c-.11 2.1 0 2.5 1.21 3.61l1.49-.68.11.78-1.61 1.17L65.4 15zm11.59-4.26h1.45l1.9 1.73a1.46 1.46 0 0 1-1.39 1.06 13.94 13.94 0 0 0-2.4.71c-.39.1-.66.66-1 1 0 .95-.19 1.88.49 2.75 1.38 0 2-1.5 3.24-1.84v.78a12.89 12.89 0 0 1-1.55 1.51 9.16 9.16 0 0 1-1.77.77l-1.34-1c-.09-.65.19-1.26-.31-1.68.48-2.09.9-4.19 2.68-5.79zm4.5 8.15h-.81V8.55l.89.45v3c.66-1.61 2.11-2.41 3.3-3.43.69.13 1.29-.67 2.18-.08a1.94 1.94 0 0 1-.56.33c-1.94.36-2.83 1.88-3.73 3.4a7.47 7.47 0 0 0-.9 2.47 8.5 8.5 0 0 1-.37 1.15zm-8.8-.07l-.45.45-.76-1.09c.08-2.25-.24-4.83.45-7.48l.76.36z"/><path d="M84.47 21.83h-.81L82 20v1.83h-.9v-3.05l.74-.09 1.7 1.88v-1.8c.95 0 1 0 1 .56-.07.79-.07 1.58-.07 2.5zm-39.01-3.1h1l1.48 1.76v-1.74h.91v3.17a2.56 2.56 0 0 1-.65-.32c-.56-.54-1.08-1.11-1.78-1.85V22l-.92-.44zm6.61-.04c1.06.09 2.09-.21 3.08.45l.44 1.58-1.46 1.11h-2.06zm2.42 2.18l.05-1c-.44-.68-1-.53-1.5-.44v1.94zm-21.16.97l-1.24-1.15.41-1.51a3.25 3.25 0 0 1 2.32-.46L36 19.8v.88a2.5 2.5 0 0 1-2.67 1.16zm1.77-1.48l-.42-1c-.61 0-1.16-.17-1.53.49v1l1 .47zm41.43 1.5c-1.31 0-1.31 0-2.52-1.16l.38-1.56a3 3 0 0 1 3.13 0l.43 1.51zm-.53-.62l.92-.46c0-.51.17-1-.44-1.42h-.83c-.81.35-.56.92-.56 1.41zm-15.79-2.5l1.53 3c-.59.37-.93-.06-1.32-.47h-1.37l-.21.59h-.91c.28-1 1-1.71 1.08-2.66.06-.46.59-.58 1.2-.46zm-18.52-.01h.53v2.38l-.74.71a2.36 2.36 0 0 1-2.34-.77v-2.3H40v1.85l.6.73 1.08-.91zm-12.31 1.55l-1.58.46-.06 1.06h-.82v-3h2.43c-.26.87-1.06.42-1.52.64v.5l1.59.12zm37.73-1.52v.53h-1.18v2.51H65v-2.41h-1.23l-.1-.63zm3.75 3.07H70v-3.09h.83z"/></g></svg>