<svg xmlns="http://www.w3.org/2000/svg" viewBox="0 0 237.28 75.84"><title>mogul-black</title><path d="M62.61.28v56.27h-17.2V35.92L31.47 47 17.84 36v20.58H0V0l31.57 25.77zm85.29 50.29c-9.1 5.37-18.78 4.16-24.86-2.78-6.63-7.56-6.79-21.31-.34-29.21 6-7.38 15.36-8.67 24.71-3.41 2.3-2.74 6.94-3.28 17.65-1.74-.52 15.25-.12 30.75-1.88 46-1.43 12.44-12.62 18.39-26.32 15.83V62.14c10.67-2.14 11.94-3.43 11.04-11.57zm1.15-17C149.1 29 146.73 26.1 143 26c-3.62-.05-6.36 3.13-6.23 7.45.12 3.87 1.65 6.83 5.92 7.22 3.69.38 6.31-2.67 6.31-7.12zm22-20.44h16.51v23.58c0 3.08-.12 6.52 4.12 6.59s4.78-3.16 4.74-6.63c-.08-7.77 0-15.54 0-23.56h16.23v43.46h-15.49L196 54.48c-2.8 1.06-5.34 2.41-8 3-8.5 1.77-16.17-2.91-16.76-11.29-.77-10.9-.19-21.87-.19-33.06zm-57.27 21.54c0 13.84-9 23.12-22.62 23.11-13.37 0-22.48-9.14-22.58-22.64-.1-14 8.76-23.21 22.37-23.29s22.79 8.99 22.83 22.82zm-16.91.59c0-4.5-1.1-7.84-5.65-7.83s-5.62 3.37-5.67 7.22c-.06 4.93 2.08 7.66 5.93 7.42 4.72-.3 5.27-3.74 5.39-6.81zm140.41 21.3h-16.63V1.24h16.63z" data-name="Layer 1"/></svg>