<svg xmlns="http://www.w3.org/2000/svg" viewBox="0 0 515.3 114.25"><title>mtvnews-black</title><g data-name="Layer 1"><path d="M0 .25C20.32.19 40.64.08 61 .19c1.7 0 3.65 1.25 5 2.45 6.9 6 13.65 12.17 19.38 17.36 5.34-4.76 12-10.49 18.39-16.54C106.08 1.22 108.2 0 111.53 0c18.16.17 36.32.08 54.48.08h5.1v16.15c0 10.5 1.73 21.38-.52 31.38s-8.46 19-13 28.41a24.32 24.32 0 0 1-2.41 3.4l-1.42-.13c-.52-2.1-1.19-4.17-1.53-6.3-.79-4.93-1.28-9.9-2.18-14.81-.8-4.36-3.36-6.77-8.12-6.08-4.29.63-7.13 3.78-6.74 8.42a41 41 0 0 0 2.28 10.18c3.48 9.71 7.25 19.32 10.88 29 1.44 3.83 3.89 6 8.26 5.83s6-3.09 7.11-6.54a177.84 177.84 0 0 1 7.11-19.48v34.34h-39.54c-.27-2.58-.73-5.16-.79-7.75-.38-16.8-.52-33.61-1.1-50.4-.12-3.33 1.17-4.72 3.71-6.12 4.51-2.48 9-5.09 13.27-7.93 2.33-1.54 4.87-3.47 2.68-6.92a6.71 6.71 0 0 0-9.27-1.82c-2.74 1.87-5.16 4.2-7.9 6-3.4 2.28-6.68 4.34-11.43 3.09-3.41-.9-6.35.8-6.84 5.28a7.41 7.41 0 0 1-3.08 5c-7.19 4.12-14.57 7.93-22 11.6-3.15 1.56-5.61 3.21-4.3 7.16a6.11 6.11 0 0 0 9 3.49c4.48-2.5 8.44-5.91 12.84-8.58 2.71-1.65 5.8-2.66 8.71-4 .75 3.25 2.17 6.52 2.13 9.76-.2 13.94-.83 27.87-1.31 42.07h-10.12V82.12L85.34 98.85l-20.07-16.7v32.1H0zM401.16 48c-6.28 14.26-12.76 28.63-18.89 43.14-1.42 3.35-3.22 4.41-6.68 4.23-5.13-.28-10.28-.07-15.79-.07l-9.1-72.8h20l4.64 49a9 9 0 0 0 1-1.43c6.32-14.83 12.68-29.65 18.89-44.53 1.06-2.53 2.46-3.52 5.24-3.36 4.47.24 9 .07 14.06.07L417.2 72c6.9-15 13.95-30 20.61-45.13 1.6-3.64 3.51-5 7.44-4.69 4.76.37 9.58.09 15 .09-.88 2-1.48 3.48-2.18 4.92-10.5 21.34-21.08 42.64-31.44 64-1.53 3.17-3.32 4.35-6.79 4.15-5.11-.3-10.25-.08-16-.08zm-146.8 26.36l6.57-51.86H281l-11.82 72.77c-6.93 0-13.56.17-20.17-.15-1.24-.06-2.95-1.88-3.48-3.26-6-15.67-11.77-31.42-17.64-47.14a5.69 5.69 0 0 0-.88-1.17L220.52 95h-20l11.61-72.79c7 0 13.64-.2 20.26.17 1.32.07 3.11 2.06 3.69 3.55 6 15.5 11.71 31.09 17.53 46.65.2.58.46 1.11.75 1.78zM515.3 28.68L507 42.2c-3.9-2-7.38-4.21-11.19-5.5-3.17-1.08-7-1.08-8.64 2.76-1.59 3.63.92 5.94 3.65 7.82s5.82 3.87 8.74 5.79C510 60 513.42 67.29 511 78.36c-2.3 10.75-9.75 16.17-20 18.31a38.12 38.12 0 0 1-35-11.36l9.28-13.58c4.22 2.56 8.16 5.23 12.36 7.37a9.79 9.79 0 0 0 6.29.94c2.3-.58 5.41-2 6.07-3.84s-.53-5.32-2.11-6.86c-2.93-2.86-6.68-4.9-10.17-7.16-10.39-6.74-13.82-14.91-10.75-25.86 2.78-9.92 11.74-16.64 22.74-17 9.67-.41 18.29 2.11 25.59 9.36zm-215.99-6.21h42.57c-.7 4.84-1.16 9.47-2.18 14-.26 1.16-2.3 2.65-3.58 2.71-6.14.28-12.3.13-19 .13l-2.23 11h22.5l-2.69 16.93h-22.21l-2 11h22.19L330.15 95h-42.38zm-113.5 28.36v62.91h-10c-.1-1.55-.3-3.28-.3-5 0-10.31.76-20.7-.23-30.92-1.06-10.63 4.33-18 10.53-26.99zm-10.06-9.76V.65c.7.19 1.14.27 1.56.42 7.25 2.58 10.27 7.58 8.73 15.22a10.21 10.21 0 0 0 0 2c-.04 12.55-.35 13.28-10.29 22.78z"/><path d="M77.65 113.93h-7.57V92.74c8.32 3.78 9.97 8.26 7.57 21.19zM91.84 9.76l-5.59 5.88L70.76 1.52l.53-.77zM91.89 99l8.42-7c1.37 7 .94 7.38-8.42 7z"/></g></svg>