<svg xmlns="http://www.w3.org/2000/svg" viewBox="0 0 106.61 69"><defs><style>.cls-1{fill:#ef5035}</style></defs><title>nyintl-laurel-red</title><g id="Layer_2" data-name="Layer 2"><g id="Layer_1-2" data-name="Layer 1"><g id="Layer_2-2" data-name="Layer 2"><g id="Layer_1-2-2" data-name="Layer 1-2"><path class="cls-1" d="M82 4.57a4.36 4.36 0 0 1-.86-4.46 3.16 3.16 0 0 1 2.66 3.27c-.13 1.94 1 2.56 2.4 3.05h.27c-.52-2.63-.49-2.92.39-4.29a3.42 3.42 0 0 1 1.92 4c-.37 1.64.33 2.44 1.59 3.11.17.09.31.22.66.46a5 5 0 0 1 .8-4.45c1.83.91 2.05 2.28 1 6 .24.26.51.53.75.83a5 5 0 0 0 1 1.1c.33-1.66.59-3.16 2.13-4.22.94 1.4 1.39 3 .55 4.27-1.11 1.75-.48 3 .53 4.31l.19.16a4.89 4.89 0 0 1 2.57-4 3.67 3.67 0 0 1 .33 3.52 6.38 6.38 0 0 1-1.18 2 1.33 1.33 0 0 0-.27 1.58c.27.62.53 1.24.9 2.11a4.77 4.77 0 0 1 3.09-3.8 3.4 3.4 0 0 1-.92 4.58c-1.52 1.2-1.49 2.4-.78 4.06a5.45 5.45 0 0 1 3.87-2.81 3.53 3.53 0 0 1-.9 3.65 5.42 5.42 0 0 1-1.59 1.26 1.56 1.56 0 0 0-1 2.12 9.22 9.22 0 0 1 .18 1 5.6 5.6 0 0 1 4.26-2 4.19 4.19 0 0 1 0 1.08 4.64 4.64 0 0 1-3.2 3.34c-1 .31-1.48.78-1.43 1.83a7.94 7.94 0 0 1-.24 1.42 5.13 5.13 0 0 1 4.81-1.59 3.42 3.42 0 0 1-1.69 2.94 8.79 8.79 0 0 1-2.15.9c-1.72.49-1.73.45-1.92 2.32 3-.84 3.12-.84 4.91-.15a5 5 0 0 1-2.7 2.65 3.69 3.69 0 0 1-1.69.37c-1.8-.24-2.54.75-2.92 2.28 2.36-.76 3.17-.7 5.13.4a4.3 4.3 0 0 1-3.45 2.36 7.34 7.34 0 0 1-2 0c-1.64-.16-1.8-.08-2.6 1.66a6.41 6.41 0 0 1 5 1.33c-2.22 2.54-4.73 1.9-7.34.91l-1.69 1.58a21.82 21.82 0 0 1 2.76.64 3.7 3.7 0 0 1 2.19 1.71c-1.73 1.48-3.57 1.37-5.49.63a5.75 5.75 0 0 1-.66-.31c-1.44-.78-1.44-.78-2.91.49a7.35 7.35 0 0 1 4.44 3.18 4.65 4.65 0 0 1-3.92.55 6 6 0 0 1-2.18-1.16c-1.08-1.1-2.09-1-3.34-.13a6.53 6.53 0 0 1 3.87 3.65c-2.21 1.28-4.31.44-7.13-2.86a23.09 23.09 0 0 0-12.23 6l-1.05-1a8.94 8.94 0 0 1 3.75-2.94 57.22 57.22 0 0 1 6.92-2.74 2.13 2.13 0 0 0 1.8-2.07A5.14 5.14 0 0 1 81 55.92a5.64 5.64 0 0 1 .79-.29c1 1.51.66 3.12-.88 5.52 2-.37 2.06-.41 2-2.28a5.43 5.43 0 0 1 2-4.91 2.65 2.65 0 0 1 .49-.3.76.76 0 0 1 .29 0c1.06 1.71 1 3-.13 5.64.35-.21.59-.33.82-.49 1.23-.79 1.25-.79.86-2.19a5.21 5.21 0 0 1 .65-4.62A12 12 0 0 1 89 50.75a5.64 5.64 0 0 1 1.06 5c1.43-.37 1.66-.75 1.12-2-.75-1.84-1-3.66.14-5.45.13-.2.3-.37.57-.69a5.68 5.68 0 0 1 1.87 4.72c1.45-.87 1.57-1.24.75-2.49-1.08-1.64-1.6-3.34-.75-5.24a7.45 7.45 0 0 1 .51-.79 6 6 0 0 1 2.45 5l1.31-2.21c-1.83-1.86-3.53-3.7-2.27-6.72a5.39 5.39 0 0 1 3.32 4.39l.3-.83c.58-1.53.58-1.53-.71-2.64-1.13-1-2.15-2-2.16-3.65a12.31 12.31 0 0 1 .14-1.38c1.89.44 2.68 1.13 4 3.37.07-.33.14-.59.2-.87.33-1.5.33-1.51-1.07-2.21a4.94 4.94 0 0 1-3-3.86 1.66 1.66 0 0 1 0-.43 2.08 2.08 0 0 1 .23-.43 5.77 5.77 0 0 1 4.32 2.66v-.84c0-1.76 0-1.75-1.64-2.34a4.59 4.59 0 0 1-3.48-3.94 4.71 4.71 0 0 1 4.79 2.21c-.08-.61-.11-.9-.16-1.18s-.11-.66-.18-1a1.11 1.11 0 0 0-1.08-1 12.38 12.38 0 0 1-2-.41A3.58 3.58 0 0 1 95 22.81c1.19-.71 1.89-.64 4.57.53-.16-.54-.27-1-.42-1.44a1.19 1.19 0 0 0-1.33-.9 11.78 11.78 0 0 1-1.61 0 4.42 4.42 0 0 1-3.56-2.36 4.55 4.55 0 0 1 5.25.5l-1.74-3c-2.32.88-4.49 1.25-6.28-1.11A4.62 4.62 0 0 1 95 14.5l-2.09-2.42c-3.27 1.5-4.77 1.48-6.37-.14a5.51 5.51 0 0 1 4.38-1.55l-2.03-1.71c-1.92 1.24-3.78 2.7-6.12 1 1.06-1.58 2.08-2.07 4.36-2.09-.36-.25-.62-.46-.91-.63-1.68-1-1.68-1-3.19.33a3.62 3.62 0 0 1-4.38.71 4.37 4.37 0 0 1 4.11-2.61l-.66-.78zm-57.34-.01l-.66.78A4.45 4.45 0 0 1 28.13 8a3.26 3.26 0 0 1-2.93.2 5.47 5.47 0 0 1-1.26-.72c-.58-.41-1.18-1.28-1.69-1.22a7 7 0 0 0-2.55 1.26 4.78 4.78 0 0 1 4.22 1.94c-1.26 1.5-2.42 1.38-6.06-.72l-2.08 1.6a5.84 5.84 0 0 1 4.38 1.6c-1.39 1.61-3.23 1.66-6.34.13L11.7 14.5a4.56 4.56 0 0 1 5 .43c-1 2-2.67 2.3-6.13 1.23l-1.76 3a4.53 4.53 0 0 1 5.19-.53A4.35 4.35 0 0 1 10.69 21a6.82 6.82 0 0 1-.88 0c-2.1 0-2.18.08-2.56 2.37 1.42-.83 2.83-1.4 4.55-.74a3.6 3.6 0 0 1-2.47 2.8 6.49 6.49 0 0 1-1.85.4A1.42 1.42 0 0 0 6 27.3c-.06.48-.17 1-.31 1.72a5.31 5.31 0 0 1 4.74-2.18 3.88 3.88 0 0 1-2 3.41 4.21 4.21 0 0 1-.93.43c-2.19.84-2.19.83-2 3.32a20.73 20.73 0 0 1 1.91-1.88 4.05 4.05 0 0 1 2.56-.81 4.3 4.3 0 0 1-1.4 3.6A10.08 10.08 0 0 1 6.84 36c-1.24.66-1.27.66-1 2 .07.33.15.66.23 1a14.88 14.88 0 0 1 1.54-2 17 17 0 0 1 2.26-1.55 3.73 3.73 0 0 1-.48 3.91 9.12 9.12 0 0 1-1.55 1.54c-1.09.93-1.1.91-.63 2.17.12.31.24.61.43 1.09a5.36 5.36 0 0 1 3.13-4.29c1.42 2.32.46 4-2.07 6.67l1.22 2.15a6.42 6.42 0 0 1 2.39-4.89 3.82 3.82 0 0 1 .88 3.85 6.55 6.55 0 0 1-.93 2c-.82 1.33-.84 1.44.26 2.61.13.14.28.25.59.53a5.43 5.43 0 0 1 1.66-5.28 4.91 4.91 0 0 1 1.33 4 12 12 0 0 1-.58 2.11C15 55 15 55.07 16.63 55.87a5.67 5.67 0 0 1 .91-5 4.64 4.64 0 0 1 2.07 5.26c-.4 1.91-.4 1.91 1.7 3.14a5.32 5.32 0 0 1-.24-5.86 5.25 5.25 0 0 1 2.75 3.81 12.22 12.22 0 0 1 0 1.46c0 1.9 0 1.9 2.09 2.55-1.26-1.78-1.94-3.55-1.17-5.72a5.11 5.11 0 0 1 3.42 3 1.78 1.78 0 0 1 .2.7c-.06 2.16 1.21 2.9 3.13 3.38a22 22 0 0 1 7.63 3.58c.62.45 1.18 1 1.91 1.61L40 69a23 23 0 0 0-12.29-6c-3 3.29-4.86 4-7.18 2.81a6.5 6.5 0 0 1 3.78-3.57c-1.47-1.12-1.59-1.11-3.06 0-1.66 1.2-3.4 1.93-5.46 1.09a7.42 7.42 0 0 1-.72-.41 6.46 6.46 0 0 1 4.28-3.1c-1.15-1.36-1.33-1.37-2.73-.63-2.07 1.1-4.13 1.36-6.15-.16.76-1.5 2.62-2.37 5-2.5a12.55 12.55 0 0 1-1.24-1 1.18 1.18 0 0 0-1.43-.28 10.46 10.46 0 0 1-2.69.57c-1.61.1-2.43-.33-3.8-1.73a5.79 5.79 0 0 1 4.9-1.27c-.5-1.6-1-1.91-2.32-1.73a5.76 5.76 0 0 1-4.59-1 14.5 14.5 0 0 1-1.22-1.25 4.86 4.86 0 0 1 5.42-.27c-.27-.59-.46-1-.6-1.33a1.59 1.59 0 0 0-1.81-1.11 5.1 5.1 0 0 1-4.69-2.36 3.91 3.91 0 0 1-.29-.7c1.71-.85 3.27-.37 4.82.29-.06-1.89-.07-1.9-1.82-2.41-1.42-.42-2.83-.87-3.53-2.35-.2-.42-.33-.88-.55-1.47A5.13 5.13 0 0 1 5 38.59c-.12-.83-.22-1.49-.31-2.16s-.75-.82-1.28-1A4.78 4.78 0 0 1 .3 32.56a8.33 8.33 0 0 1-.3-1.37c1.69-.24 2.77.21 4.31 1.78.09-.41.15-.76.25-1.1a1.5 1.5 0 0 0-.93-2A4.68 4.68 0 0 1 1 26.7 10.23 10.23 0 0 1 .93 25c1.81.21 2.65.8 4.08 2.87a15.74 15.74 0 0 0 .48-2.49c0-.33-.39-.73-.7-1a4.83 4.83 0 0 1-2-3.14A15.12 15.12 0 0 1 3 19.1c2 .69 2.65 1.4 3.45 3.69a9.31 9.31 0 0 1 .49-1.13 2.29 2.29 0 0 0-.3-3 4.25 4.25 0 0 1-.48-5 5.1 5.1 0 0 1 2.53 4.26l1.31-2.2c.41-.63 0-1.12-.31-1.62a4.72 4.72 0 0 1-.25-4.36 3.91 3.91 0 0 1 .56-.67c1.33.92 1.71 1.68 2 4.21a24.76 24.76 0 0 0 1.76-1.82c.15-.19.07-.62 0-.93-.13-.72-.39-1.42-.46-2.14a3.38 3.38 0 0 1 1.53-3.25c1.16 1.26 1.33 2.71.81 4.64a26.16 26.16 0 0 0 2.12-1.62 1.53 1.53 0 0 0 .33-1c0-.58-.13-1.16-.13-1.74 0-1.63.44-2.32 2-3.32 1 1.36.77 2.81.2 4.5.63-.28 1-.49 1.48-.65a1.74 1.74 0 0 0 1.27-2 3.85 3.85 0 0 1 2.53-4c1 1.79.28 3.2-.73 4.58zm11.68 24.12v4h-1.63v-7.03H36l3.29 4.15v-4.15h1.63v7.06h-1.34zm7.02-3.03l1.52 3.24 1.55-3.24h1.78l-2.51 4.64v2.41h-1.62v-2.41l-2.48-4.65zm7.48 7.07v-7.07h1.63v7.06zm4.62-4.04v4h-1.63v-7.03h1.27l3.29 4.15v-4.15H60v7.06h-1.29zm11.3-1.6h-2.15v5.64H63v-5.64h-2.18v-1.43h5.94zm.79 5.64v-7.07h1.63v5.64h3.42v1.43z"/><path class="cls-1" d="M19 43.33v-7.07h1.63v7.06zm4.59-4.04v4H22v-7.03h1.27l3.3 4.15v-4.15h1.63v7.06h-1.37zm5.93 4.04v-7.07h2.65a3.9 3.9 0 0 1 1.53.28 3.08 3.08 0 0 1 1.76 1.87 4.12 4.12 0 0 1 .23 1.37 4.06 4.06 0 0 1-.25 1.46 3.13 3.13 0 0 1-.71 1.11 3.19 3.19 0 0 1-1.11.72 4 4 0 0 1-1.45.26zM34 39.79a2.76 2.76 0 0 0-.12-.85 1.92 1.92 0 0 0-.36-.66 1.59 1.59 0 0 0-.59-.43 2 2 0 0 0-.79-.15h-1v4.2h1a1.9 1.9 0 0 0 .8-.16 1.61 1.61 0 0 0 .58-.44 2 2 0 0 0 .36-.66 2.72 2.72 0 0 0 .12-.85zm7.6 2.11v1.43h-5v-7.07h4.9v1.44h-3.24v1.37H41v1.33h-2.74v1.5zm1 1.43v-7.07h3a2.07 2.07 0 0 1 .93.21 2.39 2.39 0 0 1 .73.55 2.62 2.62 0 0 1 .49.78 2.28 2.28 0 0 1 .17.87 2.48 2.48 0 0 1-.17.9 2.56 2.56 0 0 1-.46.77 2.15 2.15 0 0 1-.71.54 2.12 2.12 0 0 1-.93.2h-1.41v2.28zm1.63-3.7h1.33a.63.63 0 0 0 .5-.25 1.1 1.1 0 0 0 .21-.73 1.26 1.26 0 0 0-.07-.43.88.88 0 0 0-.18-.3.66.66 0 0 0-.25-.17.76.76 0 0 0-.28-.06h-1.27zm9.53 2.27v1.43h-5v-7.07h4.88v1.44h-3.23v1.37h2.79v1.33h-2.79v1.5zm2.62-2.61v4h-1.63v-7.03H56l3.29 4.15v-4.15H61v7.06h-1.38zm5.93 4.04v-7.07H65a3.9 3.9 0 0 1 1.53.28 3.08 3.08 0 0 1 1.77 1.87 4.13 4.13 0 0 1 .22 1.37 4.06 4.06 0 0 1-.25 1.46 3.13 3.13 0 0 1-.71 1.11 3.19 3.19 0 0 1-1.11.72 4 4 0 0 1-1.45.26zm4.5-3.54a2.75 2.75 0 0 0-.12-.85 1.91 1.91 0 0 0-.36-.66 1.58 1.58 0 0 0-.59-.43 2 2 0 0 0-.79-.15H64v4.2h1a1.9 1.9 0 0 0 .8-.16 1.61 1.61 0 0 0 .58-.44 2 2 0 0 0 .36-.66 2.71 2.71 0 0 0 .06-.85zm7.59 2.11v1.43h-5v-7.07h4.87v1.44H71v1.37h2.79v1.33H71v1.5zm2.6-2.61v4h-1.61v-7.03h1.27L80 40.41v-4.15h1.63v7.06h-1.37zm11.33-1.59h-2.15v5.64h-1.63V37.7h-2.16v-1.44h5.94zM23.95 17.09h.85L26.68 22h-1l-.46-1.23h-1.71L23.05 22h-1zm1.11 3l-.68-1.94-.71 1.94zm4.04 1.13a1.1 1.1 0 0 0 .57-.14 1.12 1.12 0 0 0 .37-.36 1.5 1.5 0 0 0 .2-.51 3 3 0 0 0 .06-.6v-2.52h1v2.52a3.6 3.6 0 0 1-.12.95 2.19 2.19 0 0 1-.38.78 1.83 1.83 0 0 1-.66.53 2.27 2.27 0 0 1-1 .2 2.25 2.25 0 0 1-1-.21 1.87 1.87 0 0 1-.66-.54 2.17 2.17 0 0 1-.37-.78 3.7 3.7 0 0 1-.11-.94v-2.52h1v2.52a3 3 0 0 0 0 .62 1.49 1.49 0 0 0 .2.51 1.1 1.1 0 0 0 .36.35 1.09 1.09 0 0 0 .54.14zm3.13.78v-4.91H34a2.68 2.68 0 0 1 1.06.2 2.14 2.14 0 0 1 1.22 1.33 3 3 0 0 1 .17.95 2.9 2.9 0 0 1-.17 1 2.19 2.19 0 0 1-.49.77 2.22 2.22 0 0 1-.77.5 2.72 2.72 0 0 1-1 .18zm3.26-2.47a2.11 2.11 0 0 0-.1-.66 1.47 1.47 0 0 0-.29-.51 1.27 1.27 0 0 0-.46-.33 1.57 1.57 0 0 0-.62-.12h-.84v3.26H34a1.51 1.51 0 0 0 .63-.13 1.29 1.29 0 0 0 .46-.33 1.54 1.54 0 0 0 .28-.52 2.09 2.09 0 0 0 .12-.63zM37.22 22v-4.91h1V22zm5.43-.81V22h-3.44v-4.91h3.37v.84h-2.41v1.19h2.08v.77h-2.08v1.29zm1.71-2.33V22h-1v-4.91h.75l2.58 3.25v-3.25h1V22h-.79zm4.06.67a2.56 2.56 0 0 1 .16-.9 2.4 2.4 0 0 1 1.24-1.35 2.37 2.37 0 0 1 1-.22 2.25 2.25 0 0 1 1.18.3 1.91 1.91 0 0 1 .74.78l-.74.51a1.27 1.27 0 0 0-.24-.35 1.19 1.19 0 0 0-.3-.23 1.35 1.35 0 0 0-.33-.12 1.6 1.6 0 0 0-.33 0 1.3 1.3 0 0 0-.63.15 1.39 1.39 0 0 0-.47.38 1.66 1.66 0 0 0-.27.53 2 2 0 0 0-.1.59 1.92 1.92 0 0 0 .11.63 1.66 1.66 0 0 0 .3.53 1.48 1.48 0 0 0 .46.37 1.26 1.26 0 0 0 .59.14 1.55 1.55 0 0 0 .33 0 1.3 1.3 0 0 0 .66-.36 1.07 1.07 0 0 0 .22-.33l.79.45a1.49 1.49 0 0 1-.33.49 2.16 2.16 0 0 1-.49.36 2.52 2.52 0 0 1-.59.22 2.58 2.58 0 0 1-.61.08 2.11 2.11 0 0 1-1-.22 2.52 2.52 0 0 1-.76-.6 2.7 2.7 0 0 1-.49-.82 2.54 2.54 0 0 1-.1-1.01zm8.5 1.66V22h-3.43v-4.91h3.37v.84h-2.41v1.19h2.08v.77h-2.08v1.29zm3.62-4.1h.85L63.27 22h-1l-.46-1.23h-1.73L59.63 22h-1zm1.11 3L61 18.18l-.71 1.94zm3.44-2.99H66l.56 1.64.56-1.64H68l-.84 2.25.63 1.58 1.4-3.84h1l-2 4.95h-.79L66.54 20l-.87 2h-.81l-2-4.95h1l1.41 3.84.61-1.58zm6.61-.01h.85L74.43 22h-1L73 20.8h-1.75l-.46 1.2h-1zm1.11 3l-.68-1.94-.71 1.94zM75 22v-4.91h2.19a1.41 1.41 0 0 1 .63.14 1.64 1.64 0 0 1 .5.37 1.78 1.78 0 0 1 .33.53 1.6 1.6 0 0 1 .12.6 1.66 1.66 0 0 1-.24.88 1.38 1.38 0 0 1-.66.57L79 22h-1.11l-1-1.66H76V22zm1-2.5h1.2a.51.51 0 0 0 .25-.06.63.63 0 0 0 .2-.17.86.86 0 0 0 .13-.26 1 1 0 0 0 0-.32.89.89 0 0 0-.06-.33.84.84 0 0 0-.15-.26.68.68 0 0 0-.22-.17.56.56 0 0 0-.25-.06H76zm3.6 2.5v-4.91h1.8a2.68 2.68 0 0 1 1.06.2 2.14 2.14 0 0 1 1.22 1.33 3 3 0 0 1 .15 1 2.9 2.9 0 0 1-.17 1 2.19 2.19 0 0 1-.49.78 2.22 2.22 0 0 1-.77.5 2.72 2.72 0 0 1-1 .18zm3.27-2.47a2.11 2.11 0 0 0-.1-.66 1.47 1.47 0 0 0-.29-.51A1.27 1.27 0 0 0 82 18a1.57 1.57 0 0 0-.62-.12h-.84v3.26h.84a1.51 1.51 0 0 0 .63-.13 1.29 1.29 0 0 0 .46-.33 1.54 1.54 0 0 0 .28-.52 2.09 2.09 0 0 0 .12-.6zM29 52.55V47.6h3.32v.84h-2.4v1.27h2v.78h-2v2zm4 0V47.6h1v4.95zm2 0V47.6h1v4.1h2.52v.84zm8.05 0v-3.28l-1.26 2.44h-.52L40 49.27v3.27h-1V47.6h1l1.46 2.81L43 47.6h1v4.95zm3.67 0V47.6H50v.84h-2.33v1.27h2v.78h-2v2zm7.43-.85v.84h-3.44V47.6h3.37v.84h-2.41v1.19h2.08v.77h-2.08v1.29zm3.59-2.8l-.18-.13a2.16 2.16 0 0 0-.32-.16 2.73 2.73 0 0 0-.4-.14 1.75 1.75 0 0 0-.44-.06 1 1 0 0 0-.59.15.48.48 0 0 0-.2.41.42.42 0 0 0 .07.26.63.63 0 0 0 .21.18 1.79 1.79 0 0 0 .35.14l.49.13q.36.1.66.21a1.78 1.78 0 0 1 .5.28 1.15 1.15 0 0 1 .33.4 1.33 1.33 0 0 1 .11.57 1.43 1.43 0 0 1-.15.66 1.26 1.26 0 0 1-.4.46 1.75 1.75 0 0 1-.58.26 2.93 2.93 0 0 1-.69.08 3.72 3.72 0 0 1-1.1-.17 3.39 3.39 0 0 1-1-.47l.42-.83a1.33 1.33 0 0 0 .23.16 3.4 3.4 0 0 0 .39.2 3 3 0 0 0 .49.17 2.23 2.23 0 0 0 .56.07q.8 0 .79-.51a.42.42 0 0 0-.09-.27.77.77 0 0 0-.26-.2 2.48 2.48 0 0 0-.4-.15l-.54-.15a4.52 4.52 0 0 1-.62-.21A1.62 1.62 0 0 1 55 50a1 1 0 0 1-.26-.36 1.25 1.25 0 0 1-.09-.49 1.54 1.54 0 0 1 .14-.66 1.35 1.35 0 0 1 .39-.49 1.75 1.75 0 0 1 .57-.3 2.38 2.38 0 0 1 .7-.1 2.73 2.73 0 0 1 1 .16 3.59 3.59 0 0 1 .77.39zm4.99-.46h-1.58v4.1h-1v-4.1h-1.54v-.84h4.12zm.62 4.11V47.6h1v4.95zm2.49-4.95l1.33 3.74 1.33-3.74h1l-1.93 4.95h-.81l-1.95-4.95zm5.16 0h.85l1.88 4.95h-1l-.45-1.23h-1.7l-.45 1.23h-1zm1.11 3l-.68-1.94-.71 1.94zm2.18 1.95V47.6h1v4.1h2.52v.84z"/></g></g></g></g></svg>