<svg xmlns="http://www.w3.org/2000/svg" viewBox="0 0 100.07 18.66"><title>pelvicpain-black</title><path d="M59.14 13.79H18.9c-.48.06-.63-.15-.63-.63s.19-.61.65-.61h80.35c.35 0 .81-.17.8.5s0 .73-.76.73zM0 4.4c.35 0 .6-.05.84-.05h14.63c1.21 0 1.21 0 .64 1l-4.25 7.39c-1 1.72-2 3.43-3 5.15a4.24 4.24 0 0 1-.59.66 4.39 4.39 0 0 1-.63-.7C6.53 15.94 5.44 14 4.33 12c-.94-1.66-1.88-3.31-2.83-5C1.1 6.36.66 5.68.24 5A4.87 4.87 0 0 1 0 4.4zm8.21 13.75h.15a2.85 2.85 0 0 0 .21-.52c.11-.55.2-1.1.3-1.65.3-1.54.63-3.08.9-4.64a2.79 2.79 0 0 1 .92-1.73c1.68-1.47 3.34-3 5-4.47a4.2 4.2 0 0 0 .35-.4l-.08-.13c-.39.14-.77.3-1.17.43-1.72.54-3.43 1.11-5.16 1.6a4.39 4.39 0 0 1-2.08.24C6 6.54 4.45 5.93 2.9 5.42c-.73-.24-1.45-.48-2.18-.71l-.09.16c.3.26.6.51.9.77q2.34 2.12 4.64 4.25a1.52 1.52 0 0 1 .45.65c.2.74.36 1.5.51 2.26.27 1.4.51 2.8.77 4.2.1.38.21.76.31 1.15zM96 10.87h-1.3V4.46h1.51l2.2 3.84h.14V4.46h1.17a46.54 46.54 0 0 0 .11 6.38h-1.48a31.58 31.58 0 0 0-2.23-4.11h-.14zM30.3 8h-1.6c-.34 0-.47.16-.48.48-.09 1.32-.09 1.34 1.22 1.34h2.06v1.06h-4.56V4.41h3.68c.85 0 1 .22.69 1h-2.43c-.62 0-.65.11-.68.92 0 .53.21.69.69.65h.7a4.9 4.9 0 0 0 .73-.11zm43.07 2.87h-1.45V4.36c1.23.07 2.46.07 3.68.23a1.72 1.72 0 0 1 1.24 2 1.88 1.88 0 0 1-1.64 1.68 12.88 12.88 0 0 1-1.39 0c-.38 0-.59.11-.56.53s0 .7 0 1a8.12 8.12 0 0 0 .12 1.07zm.78-3.61a4.43 4.43 0 0 0 .85-.15.8.8 0 0 0 .59-.88.74.74 0 0 0-.71-.7 7.53 7.53 0 0 0-1.21 0 .51.51 0 0 0-.37.23 1 1 0 0 0 .86 1.56zm9.28 3.58a1.11 1.11 0 0 0-.34-1.47 3.73 3.73 0 0 0-1.85-.08c-.31 0-.48 1-.36 1.56h-1.45l1.94-5.54c.1-.28.06-.76.22-.83a2.65 2.65 0 0 1 1.14-.07.48.48 0 0 1 .36.26c.58 1.79 1.14 3.58 1.72 5.37a6.29 6.29 0 0 0 .39.79zm-2-2.58h.95c.41 0 .52-.17.39-.54l-.53-1.43h-.17zm-61.68 2.61h-1.29V4.34c1.26.08 2.53.08 3.77.26.77.11 1.21 1.08 1.08 2.06a1.8 1.8 0 0 1-1.66 1.58 12.13 12.13 0 0 1-1.39 0c-.36 0-.53.11-.52.5.02.68.01 1.36.01 2.13zm.95-3.63a4.41 4.41 0 0 0 .75-.08.84.84 0 0 0 .47-1.39 2.46 2.46 0 0 0-2-.21.46.46 0 0 0-.15.17 1 1 0 0 0 .91 1.51zm26.24-2.8h1.49c-.32.85-.64 1.66-.93 2.48C47.12 8 46.76 9 46.42 10a3 3 0 0 0 0 .82h-1.57c-.19-.69-.33-1.34-.55-2-.42-1.21-.87-2.42-1.31-3.63-.1-.27-.22-.52-.35-.82h1.48c.44 1.38.87 2.71 1.3 4 0 .08.16.19.19.17a.43.43 0 0 0 .22-.22c.38-1.13.75-2.26 1.11-3.39a2.18 2.18 0 0 0 0-.49zm15.99.82L62 6.41a1.59 1.59 0 0 0-1.69-1 1.93 1.93 0 0 0-1.38 1.54 3.06 3.06 0 0 0 .24 2.14 1.5 1.5 0 0 0 1.48.83 1.33 1.33 0 0 0 1.33-1l1 1.07a3.25 3.25 0 0 1-4.11.47c-1.21-.86-1.6-3.47-.62-4.92a2.32 2.32 0 0 1 2.28-1.19A18.24 18.24 0 0 1 63 5zm-27.28-.81h1.28v4.82c0 .41.15.6.58.6h2.55v1h-4.41zm18.02 6.41h-1.35v-6.4h1.34c-.02 2.13-.04 4.22.01 6.4zm36.57 0h-1.38V4.45h1.37zM21.05 16a1.78 1.78 0 0 1-.55 0c-.81-.34-1.24-.24-1.68.5.28.1.53.21.79.27a5.65 5.65 0 0 1 1.17.25 1 1 0 0 1 .51.72 1 1 0 0 1-.52.79 2.77 2.77 0 0 1-2.35-.13c-.09 0-.11-.24-.17-.37.17 0 .38-.08.51 0a1.78 1.78 0 0 0 1.55.19c.15-.06.35-.24.36-.37a.53.53 0 0 0-.31-.41 5.49 5.49 0 0 0-1.07-.18c-.68-.06-1-.3-1-.79s.3-.88.94-1a2.57 2.57 0 0 1 1.83.3zm12.3 2.63a1.59 1.59 0 0 1-1.8-1.58 1.69 1.69 0 0 1 1.82-1.67A1.64 1.64 0 0 1 35.18 17c-.01 1-.65 1.63-1.83 1.63zm0-2.9A1.41 1.41 0 0 0 32.08 17a1.29 1.29 0 0 0 1.29 1.28A1.27 1.27 0 0 0 34.68 17a1.4 1.4 0 0 0-1.29-1.27zm37.4 1.34a10.51 10.51 0 0 1 0-1.21c0-.15.21-.38.34-.39a19.1 19.1 0 0 1 2 0c.1 0 .2.12.3.18-.11.07-.22.19-.33.2h-1.21c-.4 0-.6.18-.5.54 0 .16.31.29.51.37a7.4 7.4 0 0 0 .83.26 5.14 5.14 0 0 1-.83.19c-.33 0-.55.08-.54.48s.19.51.54.5.85 0 1.27 0c.14 0 .26.14.39.22-.12.07-.24.21-.35.21h-2a.53.53 0 0 1-.35-.37 8.88 8.88 0 0 1-.07-1.18zM48.9 18a2.42 2.42 0 0 1-2.66.37 1.54 1.54 0 0 1-.66-1.81 1.44 1.44 0 0 1 1.32-1.16 7.39 7.39 0 0 1 1.26.05.8.8 0 0 1 .45.22c.08.08.07.26.09.4-.12 0-.26.06-.36 0-.47-.2-.88-.54-1.45-.24a1.23 1.23 0 0 0-.79 1.62 1.41 1.41 0 0 0 1.6.73c.24-.06.44-.24.67-.32a2.2 2.2 0 0 1 .53-.05zM94.6 2.66a3.31 3.31 0 0 0-1.12-.46c-.37 0-.71.29-1.19.51.29-.87.5-1.58.76-2.28a.65.65 0 0 1 .45-.37.6.6 0 0 1 .5.34c.29.7.54 1.42.8 2.14zm-24.67 0a3.3 3.3 0 0 0-1.11-.45c-.34 0-.68.3-1 .46l-.1-.12c.24-.74.48-1.49.76-2.22.14-.35.61-.41.74-.11.33.76.59 1.55.88 2.33zM63.86 1.5c.33-.5-.14-1.12.59-1.5 0 .43.07.78.08 1.12a9 9 0 0 1 0 1.1c0 .14-.12.37-.22.39a.51.51 0 0 1-.43-.2c-.26-.39-.48-.81-.73-1.21H63l-.19 1.43c-.14 0-.24-.07-.24-.08a20.81 20.81 0 0 1 0-2.29c0-.33.34-.33.53 0s.47.74.76 1.24zM42 1.21v1.07c0 .12-.13.24-.2.36-.09-.12-.25-.24-.26-.37V.48a.54.54 0 0 1 .29-.38c.08 0 .3.08.37.19a8.81 8.81 0 0 0 1 1.24 9.19 9.19 0 0 1 0-1 1.58 1.58 0 0 1 .2-.45c.09.15.24.29.24.44v1.74a.67.67 0 0 1-.15.38.81.81 0 0 1-.48-.2 9.33 9.33 0 0 1-.54-.88 4.77 4.77 0 0 0-.3-.38zm46.72.22l.19-1.34h.18a1.37 1.37 0 0 1 .17.41v1.74c0 .14-.15.27-.24.41a1.39 1.39 0 0 1-.4-.26c-.28-.39-.52-.8-.77-1.21h-.19a8.52 8.52 0 0 1 0 1c0 .15-.17.28-.27.42a1.28 1.28 0 0 1-.19-.43V.49c0-.16.15-.31.23-.47a1.55 1.55 0 0 1 .45.3c.26.35.47.73.69 1.1zM57.17 2.61V.19a4.83 4.83 0 0 1 1.33-.1 1 1 0 0 1 .56.69 5.71 5.71 0 0 1 0 1.4 1.58 1.58 0 0 1-.17.44c-.09-.14-.26-.27-.27-.42a.52.52 0 0 0-.48-.56h-.1c-.39 0-.48.21-.51.54a2 2 0 0 1-.13.45zm1-1.27l.46-.54a2 2 0 0 0-.53-.31c-.26-.06-.56 0-.48.36 0 .16.27.28.51.49zm-4.53.1a3.34 3.34 0 0 0-.76.08 1.81 1.81 0 0 0-.48.38 1.66 1.66 0 0 0 .46.31c.22.06.46 0 .69 0s.18.15.27.24c-.08.06-.17.17-.26.17a7.59 7.59 0 0 1-1.27 0 .56.56 0 0 1-.36-.39 11.88 11.88 0 0 1 0-1.73.59.59 0 0 1 .35-.45 6.29 6.29 0 0 1 1.27 0c.09 0 .17.16.26.24-.09.06-.17.15-.26.16s-.43 0-.63 0a2.08 2.08 0 0 0-.48.26 2.39 2.39 0 0 0 .48.31 4.73 4.73 0 0 0 .73.13zM82.8 2.69c-.83 0-1.27-.46-1.27-1.35A1.19 1.19 0 0 1 82.78 0 1.23 1.23 0 0 1 84 1.35c0 .91-.35 1.34-1.2 1.34zm0-.43a.8.8 0 0 0 .78-.83v-.06c0-.58-.32-.93-.81-.91a.83.83 0 0 0-.74.92c-.03.56.29.89.75.88zM30.73.49h-1c-.12 0-.23.14-.34.22.1.11.19.3.31.33a6.37 6.37 0 0 0 .9.12v.26c-.24 0-.48.07-.73.08s-.52 0-.51.38.29.34.53.35a4.63 4.63 0 0 1 .63 0c.1 0 .18.15.27.24-.08.06-.17.17-.26.17a10.89 10.89 0 0 1-1.33 0 .45.45 0 0 1-.31-.3v-2a.4.4 0 0 1 .11-.2 2.21 2.21 0 0 1 1.71.17zM23.82 0a1.26 1.26 0 0 1 .18.47c0 .36.15.52.53.51s.54-.1.55-.48c0-.15.15-.29.24-.43h.21v2.37c0 .07-.13.19-.17.18a.39.39 0 0 1-.24-.19 1 1 0 0 1 0-.4c0-.38-.12-.58-.54-.58S24 1.63 24 2a1.35 1.35 0 0 1 0 .45.27.27 0 0 1-.21.15c-.07 0-.19-.1-.19-.15V.08zm75.93 15.56a6 6 0 0 1-.51.78 2.17 2.17 0 0 0-.68 1.82c.06.41-.16.51-.62.35.45-1.3-.69-2-1.24-2.95.37-.18.53-.1.75.2.94 1.31.81 1.21 1.55 0 .2-.32.37-.37.75-.2zm-13.11.13a4.33 4.33 0 0 1-.66.13.57.57 0 0 0-.63.66v2.09h-.51v-2c0-.65-.11-.75-.79-.74a1.41 1.41 0 0 1-.45-.16c.15-.07.3-.2.45-.21h2.14a2.59 2.59 0 0 1 .42.07zM72.59.31c.59-.46 1.17-.22 1.69-.26.12 0 .26.15.41.32-.84 0-.77.48-.75 1a5.82 5.82 0 0 1 0 .92c0 .13-.16.24-.24.37-.08-.13-.22-.24-.24-.38a6.52 6.52 0 0 1 0-.87c-.04-.8-.04-.8-.87-1.1zM48.78.44C48 .37 48 .83 48 1.32a7.43 7.43 0 0 1 0 1c0 .1-.14.19-.22.28-.09-.09-.26-.18-.27-.29V.98c0-.44 0-.58-.45-.57a.36.36 0 0 1-.24-.18s.09-.21.14-.21c.57 0 1.14 0 1.71.06.02.05.05.18.11.36zm-29.51 2.2a2.87 2.87 0 0 1-.14-.48 6.47 6.47 0 0 1 0-.71c0-.83 0-.83-.73-1.09.24-.45 1.5-.49 1.94-.07v.1c-.66 0-.73.46-.69 1a12.25 12.25 0 0 1-.05 1.23zM59.5 18.49v-2.71c0-.11.17-.31.22-.3s.35.15.35.24v2.61c0 .11-.28.21-.43.32zM98.37.13v1.36c0 .45.18.78.73.71a.54.54 0 0 1 .29 0c.09 0 .21.14.21.21a.3.3 0 0 1-.2.22 8.51 8.51 0 0 1-1.21 0c-.1 0-.24-.2-.24-.31V.47c0-.14.14-.27.21-.4zM78.26 1.39v1c0 .09-.15.17-.24.26-.08-.09-.22-.18-.22-.27v-2c0-.09.15-.18.23-.27.08.09.21.18.22.29.03.3.01.6.01.99zM38 .07c.08.09.23.19.24.28v2c0 .09-.15.18-.24.24s-.18-.11-.18-.17V.09z" data-name="Layer 1-2"/></svg>