<svg xmlns="http://www.w3.org/2000/svg" viewBox="0 0 218.12 68.6"><title>plannedparenthood-black</title><path d="M93.53 65.9h2.3v2.41h-2.3zm48.58-7.28h-1.18v2.28h-1.27V62h1.27v4.81a1.5 1.5 0 0 0 1.62 1.75 6.39 6.39 0 0 0 1.32-.1v-1.18a4 4 0 0 1-.81.1.77.77 0 0 1-1-.81V62h1.76v-1.1h-1.76v-2.28zm-40.18-24.36a13.39 13.39 0 0 0-1.58-.09c-2.22 0-3.41.76-4 1.61v-1.16h-3.73V50.1h3.77V39.37c0-1.13 1.67-1.73 3.56-1.73a9.88 9.88 0 0 1 2 .21v-3.59zM83.29 50.53c-4.9 0-6.54-1.12-6.54-5.17 0-4.38 2.46-5.07 6.08-5.07a18.38 18.38 0 0 1 3.83.42c0-2.71-.64-3.37-3.86-3.37a14.55 14.55 0 0 0-4.68.76l-.7-3.1a25.63 25.63 0 0 1 6.17-.82c4.59 0 6.69 1.4 6.69 6v9.12a21.61 21.61 0 0 1-6.99 1.23zm.27-2.89a9.86 9.86 0 0 0 3.1-.52v-3.86a15.4 15.4 0 0 0-3.07-.26c-2.13 0-2.89.24-2.89 2.22s.58 2.42 2.86 2.42zm-3.45 14.57v-1.48h-2v7.58h2.09V65c0-1.47.68-2.33 2.1-2.33a3.61 3.61 0 0 1 1.15.23v-2.3a3.45 3.45 0 0 0-.76-.07c-1.23 0-1.82.47-2.58 1.68zm-3.41 4.57a4.32 4.32 0 0 0 .24 1.53h-2.09a4 4 0 0 1-.14-.81 4 4 0 0 1-3 1.09c-1.66 0-2.82-.69-2.82-2.46s1.36-2.24 2.63-2.33l2.22-.18c.64-.06.85-.18.85-.79s-.43-.91-1.64-.91a1.34 1.34 0 0 0-1.61 1V63h-2c.25-2.33 2.05-2.6 3.76-2.6 3 0 3.63 1.16 3.63 2.57v3.76zm-2-2.16a3 3 0 0 1-1.23.33l-1.21.13a1 1 0 0 0-1.1 1 1.12 1.12 0 0 0 1.16 1.08h.16a2 2 0 0 0 2.22-1.75v-.77zm65 2.76a2 2 0 0 0 .41-.06v1a5 5 0 0 1-.92.08.94.94 0 0 1-1.06-1 3.2 3.2 0 0 1-2.62 1.2c-2 0-2.5-1.27-2.5-2.23 0-1.36.67-2.05 2.64-2.31l1.34-.17c.66-.08 1.07-.23 1.07-.89 0-1-.82-1.22-1.77-1.22s-1.87.33-1.9 1.47h-1.1c.15-1.85 1.21-2.57 3.05-2.57 1.26 0 2.83.38 2.83 2.11v4a.51.51 0 0 0 .42.58h.11zm-1.7-2.95a1.64 1.64 0 0 1-1.15.44l-1.33.2c-.92.14-1.4.44-1.4 1.22a1.26 1.26 0 0 0 1.34 1.18h.09a2.24 2.24 0 0 0 2.44-2v-1zm-12.21-30.26a22.6 22.6 0 0 0-7.33 1.34V50.1h3.77V37.94a10.59 10.59 0 0 1 2.77-.37c2.67 0 3.32.86 3.32 4.29v8.24h3.77v-8.63c0-5.57-1.95-7.3-6.3-7.3zm3.87 26.48a2.79 2.79 0 0 0-2.49 1.35 2.29 2.29 0 0 0-2.09-1.37 2.61 2.61 0 0 0-2.41 1.37v-1.1h-1.17v7.41h1.17V64a2 2 0 0 1 1.78-2.2h.22c.76 0 1.48.41 1.48 1.77v4.71h1.17v-4.45a1.87 1.87 0 0 1 1.73-2h.27c.76 0 1.48.41 1.48 1.77v4.71h1.2v-5.05a2.35 2.35 0 0 0-2.06-2.6h-.28zm-21.87 5.6l-5.39-8H101v10.1h1.25v-8l5.39 8H109V58.21h-1.2v8zm7.66-16.57a19.51 19.51 0 0 1-5.41.85c-4.47 0-7.51-1.89-7.51-8.24s2.71-8.12 7.21-8.12c4.9 0 7 1.67 6.75 9.18h-10c0 3.32 1.31 4 4 4a19 19 0 0 0 4.35-.64zm-8.94-9.21H113c-.12-2.74-.91-3.31-3.07-3.31-2.35 0-3.17.75-3.41 3.3zm10.72 24.13c0 2.14-1.17 4-3.57 4s-3.57-1.82-3.57-4 1.17-4 3.57-4 3.57 1.87 3.57 4zm-1.25 0c0-1.34-.62-2.77-2.33-2.77s-2.33 1.43-2.33 2.77.62 2.77 2.33 2.77S116 65.95 116 64.6zm-23.84.4v.23H86a1.93 1.93 0 0 0 2 1.82 1.74 1.74 0 0 0 1.73-1H92c-.6 1.8-2.05 2.55-4 2.55-2.51 0-4.2-1.22-4.2-4.07s1.68-4.07 4.2-4.07c2.81-.02 4.14 1.64 4.14 4.54zM90 63.68A1.87 1.87 0 0 0 88 62a2 2 0 0 0-2 1.68h4zm51.1-13.16a13.73 13.73 0 0 0 4.26-.7l-.67-3a8.59 8.59 0 0 1-2.64.42c-1.82 0-2.34-.79-2.34-2.7v-6.63h5.14v-3.29h-5.14v-4.17l-3.8 1.55v2.62h-2.58v3.28h2.58v7c0 4.6 1.7 5.63 5.17 5.63zm-9.66-36.39c0-6.21 2.71-8.12 7.21-8.12 4.9 0 7 1.67 6.75 9.19h-10c0 3.31 1.31 4 4 4a18.81 18.81 0 0 0 4.35-.64l.61 3a19.57 19.57 0 0 1-5.41.85c-4.5 0-7.53-1.91-7.53-8.27zm4-1.83h6.51c-.17-2.72-.95-3.3-3.12-3.3-2.37 0-3.19.76-3.43 3.31zm-16-2.52a10.5 10.5 0 0 1 2.77-.36c2.67 0 3.31.85 3.31 4.29V22h3.77v-8.68c0-5.57-1.94-7.3-6.29-7.3a22.59 22.59 0 0 0-7.33 1.34V22h3.77V9.79zM62.55 22h-4V.76h11c4.47 0 5.9 3.13 5.9 7.27 0 3.65-1.73 6.93-5.81 6.93h-7.09v7zm0-10.34h5.9c1.67 0 2.62-1.22 2.62-3.62 0-2.59-.88-3.83-2.52-3.83h-6zm40.92-1.83a10.52 10.52 0 0 1 2.77-.36c2.67 0 3.31.85 3.31 4.29V22h3.77v-8.68c0-5.57-1.95-7.3-6.3-7.3a22.56 22.56 0 0 0-7.33 1.34V22h3.77V9.83zM62.55 50.1h-4V28.91h11c4.47 0 5.9 3.13 5.9 7.27 0 3.65-1.73 6.93-5.81 6.93h-7.09v7zm0-10.34h5.9c1.67 0 2.62-1.22 2.62-3.62 0-2.58-.88-3.83-2.52-3.83h-6zM44.62.76H24.35A24.35 24.35 0 0 0 0 25.11V68.3h7V25.11A17.41 17.41 0 0 1 24.35 7.72h13.31V22H26.87a15.66 15.66 0 0 0-15.66 15.6v30.7h7V37.6a8.71 8.71 0 0 1 8.7-8.7h17.71v18.36a8.71 8.71 0 0 1-8.7 8.7H23l-3 7h16a15.65 15.65 0 0 0 15.58-15.7V22h-7V.76zm18.74 65.91c-2.18 0-2.64-2-2.64-3.41s.46-3.41 2.64-3.41A2.35 2.35 0 0 1 65.78 62h2.48c-.34-3.48-2.94-4.1-5-4.1-3.08 0-5 1.58-5 5.33s1.92 5.33 5 5.33c2.69 0 4.72-1.22 5-4.16h-2.5a2.35 2.35 0 0 1-2.4 2.27zm19-45.41a5.5 5.5 0 0 1-1.18-3.65V0h-3.82v17.76A6.92 6.92 0 0 0 79 22.69zM90 12.13a18.15 18.15 0 0 1 3.83.43c0-2.71-.64-3.38-3.86-3.38a14.5 14.5 0 0 0-4.68.76l-.7-3.1A25.73 25.73 0 0 1 90.68 6c4.59 0 6.69 1.4 6.69 6v9.12a21.53 21.53 0 0 1-7 1.22c-4.9 0-6.54-1.12-6.54-5.17 0-4.34 2.47-5 6.08-5zm.76 2.71c-2.13 0-2.89.24-2.89 2.22s.58 2.43 2.86 2.43a9.89 9.89 0 0 0 3.1-.52v-3.86a15.42 15.42 0 0 0-3.11-.27zm55.74 43.78h-1.18v2.28H144V62h1.27v4.81a1.5 1.5 0 0 0 1.62 1.75 6.39 6.39 0 0 0 1.32-.1v-1.18a4 4 0 0 1-.81.1.77.77 0 0 1-1-.81V62h1.76v-1.1h-1.76v-2.28zm44.69 0H190v2.28h-1.3V62h1.3v4.81a1.5 1.5 0 0 0 1.62 1.75 6.4 6.4 0 0 0 1.32-.1v-1.18a4 4 0 0 1-.81.1.77.77 0 0 1-1-.81V62h1.76v-1.1h-1.76v-2.28zm-2.55 8.76a2 2 0 0 0 .41-.06v1a5 5 0 0 1-.92.08.94.94 0 0 1-1.06-1 3.2 3.2 0 0 1-2.62 1.2c-2 0-2.5-1.27-2.5-2.23 0-1.36.67-2.05 2.64-2.31l1.34-.17c.66-.08 1.07-.23 1.07-.89 0-1-.82-1.22-1.77-1.22s-1.87.33-1.9 1.47h-1.11c.15-1.85 1.21-2.57 3.05-2.57 1.26 0 2.83.38 2.83 2.11v4a.51.51 0 0 0 .42.58h.12zM187 64.43a1.64 1.64 0 0 1-1.15.44l-1.33.2c-.92.14-1.4.44-1.4 1.22a1.26 1.26 0 0 0 1.34 1.18h.09a2.24 2.24 0 0 0 2.44-2v-1zm-8.67-3.79a2.61 2.61 0 0 0-2.44 1.36v-3.88h-1.17v10.19h1.17V64a2 2 0 0 1 1.78-2.2h.22a1.57 1.57 0 0 1 1.82 1.71v4.77h1.17v-5a2.35 2.35 0 0 0-2.58-2.62zM171 66.56l-1.56-5.66h-1.29l-1.53 5.66-1.7-5.66h-1.3l2.38 7.41h1.25l1.54-5.66 1.54 5.66h1.28L174 60.9h-1.24zm23.12 1.75h1.46v-1.64h-1.46zm21.61-37l.78 1.28h-.75l-.76-1.25h-.27v1.25h-.7v-3.17h1.22a1 1 0 0 1 1.21 1 .84.84 0 0 1-.76.86zm.1-.92c0-.34-.33-.38-.58-.38h-.45v.77h.52c.31 0 .53-.08.53-.42zm2.29.61a2.86 2.86 0 1 1-2.86-2.86 2.86 2.86 0 0 1 2.86 2.86zm-.84 0a2 2 0 1 0-2 2 2 2 0 0 0 2-2zm-55.21 11.3c0-6.32 2.46-8.12 7.36-8.12s7.42 1.8 7.42 8.12-2.43 8.24-7.42 8.24-7.35-1.9-7.35-8.25zm3.93 0c0 4.29.82 5.14 3.47 5.14s3.53-.85 3.53-5.14-.82-5.14-3.53-5.14-3.47.75-3.47 5.19zm39.46-14.2h3.77v21.3a20.94 20.94 0 0 1-6.75 1.13c-5.11 0-7.45-1.82-7.45-8.18s2.58-8.18 6.72-8.18a7.3 7.3 0 0 1 3.71.88v-6.9zm0 10.7c0-.91-1.34-1.49-3-1.49-2.65 0-3.5 1.06-3.5 4.93 0 4.23.88 5 3.56 5a9.9 9.9 0 0 0 3-.46v-8zm-12.1 3.44c0 6.35-2.43 8.24-7.42 8.24s-7.36-1.89-7.36-8.24 2.46-8.12 7.36-8.12 7.39 1.83 7.39 8.12zm-3.89.06c0-4.44-.82-5.14-3.53-5.14s-3.46.7-3.46 5.14.82 5.14 3.46 5.14 3.49-.85 3.49-5.14zm-31.73 19.96V60.9h-1.17v7.41h1.17v-3.76c0-1.61.81-2.43 2-2.43a2.78 2.78 0 0 1 .83.14v-1.53a1.94 1.94 0 0 0-.67-.08 2.37 2.37 0 0 0-2.16 1.61zm2.56-12.16v-8.91c0-5.78-2-7-5.6-7a10.05 10.05 0 0 0-4.26 1.06v-7.1h-3.77v22h3.77V38.94c0-.91 1.43-1.37 3-1.37 2.43 0 3.1 1.37 3.1 3.92v8.61h3.76zm-4.69 14.74V65h-5.66a2.35 2.35 0 0 0 2.27 2.35 2 2 0 0 0 2-1.32h1.25a3.35 3.35 0 0 1-3.17 2.5c-2.4 0-3.57-1.82-3.57-4s1.17-4 3.57-4c1.59.11 3.31 1.24 3.31 4.31zm-1.25-.92a2.16 2.16 0 0 0-2.15-2.09 2.26 2.26 0 0 0-2.21 2.1h4.36zM157.57 0h3.77v21.26a21 21 0 0 1-6.75 1.12c-5.11 0-7.45-1.82-7.45-8.18s2.58-8.2 6.71-8.2a7.29 7.29 0 0 1 3.71.88V0zm0 10.71c0-.91-1.34-1.49-3-1.49-2.65 0-3.5 1.06-3.5 4.93 0 4.22.88 5 3.56 5a9.88 9.88 0 0 0 3-.46v-8z" data-name="Layer 1"/></svg>