<svg xmlns="http://www.w3.org/2000/svg" viewBox="0 0 105.54 68.31"><defs><style>.cls-1{fill:#ef5035}</style></defs><title>rhodeisland-laurel-red</title><g id="Layer_2" data-name="Layer 2"><g id="Layer_1-2" data-name="Layer 1"><g id="Layer_2-2" data-name="Layer 2"><g id="Layer_1-2-2" data-name="Layer 1-2"><path class="cls-1" d="M81.21 4.52a4.32 4.32 0 0 1-.88-4.41A3.12 3.12 0 0 1 83 3.35c-.13 1.92.94 2.53 2.38 3h.26c-.51-2.6-.49-2.89.39-4.25a3.39 3.39 0 0 1 1.9 4c-.37 1.62.33 2.42 1.57 3.08.16.09.31.22.66.45a4.9 4.9 0 0 1 .79-4.41c1.82.9 2 2.25 1 6 .23.26.51.53.74.82a5 5 0 0 0 1 1.09c.33-1.64.58-3.13 2.11-4.18.93 1.38 1.37 2.92.54 4.23-1.1 1.73-.48 3 .53 4.27l.18.15a4.84 4.84 0 0 1 2.54-3.94 3.63 3.63 0 0 1 .28 3.34 6.31 6.31 0 0 1-1.17 2 1.31 1.31 0 0 0-.27 1.57c.27.61.53 1.22.89 2.09a4.72 4.72 0 0 1 3.06-3.76 3.37 3.37 0 0 1-.91 4.54c-1.5 1.19-1.48 2.38-.77 4a5.4 5.4 0 0 1 3.83-2.78 3.49 3.49 0 0 1-.89 3.61 5.36 5.36 0 0 1-1.58 1.25 1.54 1.54 0 0 0-1 2.09 9.12 9.12 0 0 1 .18 1 5.55 5.55 0 0 1 4.22-2 4.15 4.15 0 0 1 0 1.07 4.6 4.6 0 0 1-3.17 3.31c-1 .31-1.46.77-1.42 1.81a7.86 7.86 0 0 1-.23 1.4 5.08 5.08 0 0 1 4.76-1.57 3.39 3.39 0 0 1-1.71 2.92 8.7 8.7 0 0 1-2.12.89c-1.7.48-1.71.45-1.9 2.3 3-.83 3.09-.83 4.86-.14a5 5 0 0 1-2.67 2.63 3.65 3.65 0 0 1-1.68.37c-1.78-.24-2.51.74-2.89 2.25 2.33-.75 3.14-.7 5.08.4A4.26 4.26 0 0 1 99 50.61a7.27 7.27 0 0 1-2 0c-1.62-.16-1.79-.08-2.57 1.64a6.34 6.34 0 0 1 4.95 1.31c-2.2 2.52-4.68 1.88-7.27.9L90.45 56a21.6 21.6 0 0 1 2.73.64 3.67 3.67 0 0 1 2.16 1.69c-1.71 1.46-3.54 1.36-5.44.62a5.69 5.69 0 0 1-.66-.31c-1.43-.77-1.43-.77-2.88.49a7.28 7.28 0 0 1 4.4 3.15 4.6 4.6 0 0 1-3.88.55 6 6 0 0 1-2.15-1.15c-1.07-1.09-2.07-1-3.3-.13a6.47 6.47 0 0 1 3.83 3.61c-2.19 1.28-4.27.44-7.08-2.79a22.86 22.86 0 0 0-12.1 5.91l-1-1a8.85 8.85 0 0 1 3.71-2.91 56.65 56.65 0 0 1 6.81-2.67 2.11 2.11 0 0 0 1.78-2 5.08 5.08 0 0 1 2.78-4.3 5.58 5.58 0 0 1 .78-.28c.94 1.49.66 3.09-.87 5.47 1.93-.37 2-.41 1.93-2.26a5.38 5.38 0 0 1 2-4.86 2.63 2.63 0 0 1 .49-.3.75.75 0 0 1 .28 0c1 1.69 1 3-.13 5.58.35-.21.59-.33.81-.48 1.22-.78 1.23-.78.85-2.17a5.16 5.16 0 0 1 .68-4.6 11.9 11.9 0 0 1 1.12-1.2 5.58 5.58 0 0 1 1.05 4.93c1.41-.37 1.64-.75 1.11-2-.74-1.83-1-3.63.14-5.4.13-.2.3-.36.56-.68a5.62 5.62 0 0 1 1.86 4.67c1.43-.86 1.55-1.23.74-2.46-1.07-1.62-1.59-3.3-.74-5.18a7.37 7.37 0 0 1 .51-.78 6 6 0 0 1 2.42 4.93L97.07 46c-1.81-1.84-3.49-3.66-2.24-6.65a5.34 5.34 0 0 1 3.28 4.35l.3-.82c.57-1.52.57-1.51-.71-2.61-1.12-1-2.13-2-2.14-3.61a12.19 12.19 0 0 1 .14-1.36c1.87.44 2.65 1.12 3.94 3.34.07-.33.14-.59.2-.86.33-1.48.33-1.5-1.06-2.19a4.89 4.89 0 0 1-3-3.82 1.64 1.64 0 0 1 0-.43 2.06 2.06 0 0 1 .22-.43 5.72 5.72 0 0 1 4.29 2.72v-.83c0-1.74 0-1.73-1.62-2.32a4.54 4.54 0 0 1-3.44-3.9A4.67 4.67 0 0 1 100 28.8c-.08-.6-.11-.89-.15-1.17s-.11-.66-.18-1a1.1 1.1 0 0 0-1.07-1 12.26 12.26 0 0 1-2-.4 3.55 3.55 0 0 1-2.54-2.67c1.18-.7 1.87-.63 4.53.53-.15-.53-.27-1-.41-1.42a1.18 1.18 0 0 0-1.31-.89 11.66 11.66 0 0 1-1.59 0 4.38 4.38 0 0 1-3.52-2.34A4.5 4.5 0 0 1 97 19l-1.72-3c-2.3.87-4.45 1.23-6.21-1.1a4.58 4.58 0 0 1 5-.52L92 12c-3.23 1.48-4.72 1.46-6.31-.13A5.45 5.45 0 0 1 90 10.29l-2-1.7c-1.9 1.23-3.75 2.67-6.06 1C83 8 84 7.55 86.26 7.53c-.36-.25-.62-.46-.9-.62-1.66-1-1.67-1-3.16.33a3.58 3.58 0 0 1-4.34.66 4.32 4.32 0 0 1 4.06-2.58l-.66-.77zm-56.8 0l-.66.77a4.4 4.4 0 0 1 4.09 2.64 3.22 3.22 0 0 1-2.9.19 5.41 5.41 0 0 1-1.25-.71C23.12 7 22.53 6.14 22 6.2a6.88 6.88 0 0 0-2.52 1.24 4.73 4.73 0 0 1 4.18 1.92c-1.25 1.48-2.4 1.36-6-.72l-2.06 1.58a5.78 5.78 0 0 1 4.4 1.59c-1.38 1.6-3.19 1.64-6.27.13l-2.1 2.4a4.51 4.51 0 0 1 4.93.43c-1 1.93-2.65 2.28-6.07 1.22l-1.75 3a4.48 4.48 0 0 1 5.19-.51 4.3 4.3 0 0 1-3.32 2.34 6.75 6.75 0 0 1-.87 0c-2.08 0-2.16.08-2.53 2.34 1.4-.82 2.8-1.38 4.51-.73a3.57 3.57 0 0 1-2.45 2.77 6.42 6.42 0 0 1-1.83.39A1.4 1.4 0 0 0 5.94 27c-.06.47-.16.94-.31 1.7a5.25 5.25 0 0 1 4.69-2.16 3.84 3.84 0 0 1-2 3.37 4.17 4.17 0 0 1-.92.43c-2.16.83-2.16.82-2 3.28a20.52 20.52 0 0 1 1.89-1.86A4 4 0 0 1 9.84 31a4.26 4.26 0 0 1-1.38 3.57 10 10 0 0 1-1.69 1.11c-1.23.66-1.26.66-1 2 .07.33.15.66.22 1a14.73 14.73 0 0 1 1.53-2 16.86 16.86 0 0 1 2.23-1.53 3.69 3.69 0 0 1-.48 3.87 9 9 0 0 1-1.54 1.53c-1.08.92-1.09.9-.62 2.15.11.31.24.6.42 1.08a5.31 5.31 0 0 1 3.1-4.25c1.4 2.3.46 4-2 6.61l1.21 2.12a6.36 6.36 0 0 1 2.37-4.84 3.78 3.78 0 0 1 .87 3.81 6.48 6.48 0 0 1-.92 1.95c-.81 1.31-.83 1.42.26 2.58.13.13.28.25.59.52A5.37 5.37 0 0 1 14.63 47a4.87 4.87 0 0 1 1.31 3.94 11.88 11.88 0 0 1-.57 2.06c-.52 1.44-.51 1.51 1.1 2.3a5.61 5.61 0 0 1 .9-4.93 4.6 4.6 0 0 1 2 5.21c-.4 1.89-.4 1.89 1.68 3.11a5.27 5.27 0 0 1-.24-5.8 5.19 5.19 0 0 1 2.72 3.78 12.1 12.1 0 0 1 0 1.45c0 1.88 0 1.88 2.07 2.52-1.24-1.76-1.92-3.51-1.16-5.66a5.06 5.06 0 0 1 3.38 3 1.76 1.76 0 0 1 .2.69c-.06 2.14 1.2 2.87 3.1 3.34a21.76 21.76 0 0 1 7.55 3.54c.62.45 1.17 1 1.89 1.59l-1.07 1.14a22.77 22.77 0 0 0-12.15-5.87c-3 3.26-4.81 4-7.11 2.78a6.43 6.43 0 0 1 3.74-3.54c-1.45-1.11-1.57-1.1-3 0-1.64 1.19-3.37 1.91-5.4 1.08a7.34 7.34 0 0 1-.72-.4 6.39 6.39 0 0 1 4.24-3.07c-1.14-1.34-1.31-1.36-2.7-.62-2 1.09-4.09 1.35-6.08-.16C11.12 57 13 56.09 15.32 56a12.42 12.42 0 0 1-1.22-1 1.17 1.17 0 0 0-1.42-.27 10.36 10.36 0 0 1-2.66.56c-1.59.1-2.41-.33-3.76-1.71a5.73 5.73 0 0 1 4.84-1.28c-.5-1.59-1-1.89-2.3-1.71a5.71 5.71 0 0 1-4.54-1 14.35 14.35 0 0 1-1.21-1.19 4.82 4.82 0 0 1 5.36-.26c-.27-.59-.46-.95-.59-1.31A1.58 1.58 0 0 0 6 45.73a5.05 5.05 0 0 1-4.65-2.39 3.87 3.87 0 0 1-.28-.69c1.69-.84 3.23-.36 4.77.29C5.81 41 5.81 41 4.07 40.53c-1.41-.41-2.8-.86-3.49-2.33-.2-.42-.33-.87-.54-1.46a5.08 5.08 0 0 1 4.89 1.46c-.12-.82-.22-1.47-.3-2.13s-.75-.81-1.27-1a4.73 4.73 0 0 1-3.07-2.84A8.25 8.25 0 0 1 0 30.87c1.68-.24 2.74.21 4.27 1.77.09-.41.14-.76.24-1.09a1.49 1.49 0 0 0-.92-2A4.64 4.64 0 0 1 1 26.43a10.13 10.13 0 0 1-.1-1.68c1.79.21 2.63.79 4 2.84a15.58 15.58 0 0 0 .48-2.46c0-.33-.39-.73-.69-1A4.78 4.78 0 0 1 2.8 21a15 15 0 0 1 .12-2.12c2 .68 2.63 1.39 3.41 3.65a9.22 9.22 0 0 1 .49-1.12 2.26 2.26 0 0 0-.29-3 4.21 4.21 0 0 1-.48-5 5.05 5.05 0 0 1 2.51 4.22l1.38-2.13c.41-.63 0-1.11-.31-1.6a4.68 4.68 0 0 1-.25-4.31A3.87 3.87 0 0 1 9.86 9c1.31.91 1.7 1.67 1.93 4.17a24.51 24.51 0 0 0 1.74-1.8c.15-.19.07-.62 0-.92-.13-.71-.38-1.4-.46-2.11a3.35 3.35 0 0 1 1.51-3.22c1.15 1.25 1.31 2.68.8 4.6a25.9 25.9 0 0 0 2.09-1.6 1.51 1.51 0 0 0 .33-1c0-.57-.13-1.15-.13-1.72 0-1.61.44-2.3 2-3.28 1 1.35.76 2.78.19 4.46.63-.28 1-.49 1.46-.64a1.72 1.72 0 0 0 1.26-2A3.81 3.81 0 0 1 25.1 0c1 1.77.27 3.17-.72 4.53z"/><path class="cls-1" d="M27.35 32.61V21.89h4.82a3.11 3.11 0 0 1 1.4.33 3.71 3.71 0 0 1 1.11.83 3.88 3.88 0 0 1 .73 1.16 3.46 3.46 0 0 1 .27 1.31 3.75 3.75 0 0 1-.47 1.83 3.28 3.28 0 0 1-1.28 1.28l2.36 4h-2.8l-2-3.47h-1.66v3.46zM29.83 27h2.27a.93.93 0 0 0 .76-.42 1.7 1.7 0 0 0 .33-1.06 1.5 1.5 0 0 0-.36-1.06 1.06 1.06 0 0 0-.78-.39h-2.2zm16.87-5.11v10.72h-2.47v-4.38H40v4.38h-2.52V21.89H40V26h4.27v-4.11zm6.75 10.81a5 5 0 0 1-2.17-.47A5.36 5.36 0 0 1 49.6 31a5.58 5.58 0 0 1-1.08-1.74 5.49 5.49 0 0 1-.38-2 5.35 5.35 0 0 1 .4-2 5.41 5.41 0 0 1 2.82-2.92 5.13 5.13 0 0 1 2.14-.45 5 5 0 0 1 2.18.47 5.31 5.31 0 0 1 1.68 1.24 5.58 5.58 0 0 1 1.07 1.73 5.52 5.52 0 0 1 .38 2 5.35 5.35 0 0 1-.4 2 5.43 5.43 0 0 1-2.8 2.93 5.06 5.06 0 0 1-2.16.44zm-2.79-5.44a4 4 0 0 0 .18 1.2 3.21 3.21 0 0 0 .54 1 2.58 2.58 0 0 0 2.09 1 2.56 2.56 0 0 0 1.24-.29 2.69 2.69 0 0 0 .88-.75 3.28 3.28 0 0 0 .52-1 4.12 4.12 0 0 0 .17-1.18A4 4 0 0 0 56.1 26a3 3 0 0 0-.55-1 2.71 2.71 0 0 0-.88-.73 2.63 2.63 0 0 0-1.2-.26 2.57 2.57 0 0 0-1.23.28 2.74 2.74 0 0 0-.88.73 3.1 3.1 0 0 0-.53 1 4.12 4.12 0 0 0-.17 1.19zm9.57 5.35V21.89h4a5.91 5.91 0 0 1 2.33.43 4.68 4.68 0 0 1 2.68 2.85 6.26 6.26 0 0 1 .33 2.08 6.16 6.16 0 0 1-.38 2.21 4.76 4.76 0 0 1-1.08 1.69 4.85 4.85 0 0 1-1.69 1.09 6 6 0 0 1-2.2.38zm6.83-5.37a4.17 4.17 0 0 0-.18-1.24 2.91 2.91 0 0 0-.55-1 2.41 2.41 0 0 0-.89-.66 3 3 0 0 0-1.19-.23h-1.54v6.38h1.53a2.88 2.88 0 0 0 1.21-.24 2.44 2.44 0 0 0 .88-.66 3.07 3.07 0 0 0 .55-1 4.12 4.12 0 0 0 .18-1.35zm11.53 3.2v2.17H71V21.89h7.4v2.17h-4.89v2.08h4.23v2h-4.21v2.28zM26.2 47.06V36.33h2.48v10.73zm10.97-7.58a1.51 1.51 0 0 0-.33-.23 6 6 0 0 0-.68-.35 6.59 6.59 0 0 0-.89-.33 3.56 3.56 0 0 0-1-.13q-1.31 0-1.31.89a.71.71 0 0 0 .14.45 1.26 1.26 0 0 0 .42.33 3.88 3.88 0 0 0 .7.27l1 .27a12.89 12.89 0 0 1 1.39.46 3.72 3.72 0 0 1 1.05.62 2.51 2.51 0 0 1 .66.9 3.12 3.12 0 0 1 .23 1.27 3.18 3.18 0 0 1-.33 1.53 2.87 2.87 0 0 1-.9 1 3.79 3.79 0 0 1-1.28.56 6.39 6.39 0 0 1-1.49.17 8.33 8.33 0 0 1-1.21-.09 8.72 8.72 0 0 1-1.21-.26A9.6 9.6 0 0 1 31 46.4a6.36 6.36 0 0 1-1-.56l1.09-2.16a2.12 2.12 0 0 0 .39.29 5.86 5.86 0 0 0 .82.42 8.35 8.35 0 0 0 1.1.38 4.6 4.6 0 0 0 1.22.17q1.31 0 1.31-.8a.68.68 0 0 0-.2-.5 1.86 1.86 0 0 0-.55-.35 5.91 5.91 0 0 0-.82-.3l-1-.3a8.93 8.93 0 0 1-1.36-.5 3.39 3.39 0 0 1-.9-.61 2.22 2.22 0 0 1-.53-.8 3 3 0 0 1-.17-1.06 3.37 3.37 0 0 1 .33-1.49 3.23 3.23 0 0 1 .86-1.1 3.75 3.75 0 0 1 1.26-.66 5 5 0 0 1 1.52-.23 5.77 5.77 0 0 1 1.1.11 8.34 8.34 0 0 1 1 .27 7.51 7.51 0 0 1 .93.38q.43.21.79.42zM40 47.06V36.33h2.48v8.54h5.19V47zm11.77-10.73H54l3.91 10.72h-2.53l-.83-2.41h-3.33L50.41 47h-2.54zM54.14 43l-1.25-3.79L51.6 43zm7.31-2.08v6.13H59V36.33h1.93l5 6.3v-6.3h2.48v10.73h-2zm8.99 6.14V36.33h4a5.91 5.91 0 0 1 2.32.43 4.68 4.68 0 0 1 2.68 2.85 6.26 6.26 0 0 1 .33 2.08 6.16 6.16 0 0 1-.38 2.21 4.76 4.76 0 0 1-1.08 1.69 4.85 4.85 0 0 1-1.69 1.09 6 6 0 0 1-2.2.38zm6.83-5.37a4.17 4.17 0 0 0-.19-1.29 2.91 2.91 0 0 0-.55-1 2.41 2.41 0 0 0-.89-.66 3 3 0 0 0-1.19-.23h-1.53v6.37h1.53a2.88 2.88 0 0 0 1.21-.24 2.44 2.44 0 0 0 .88-.66 3.07 3.07 0 0 0 .55-1 4.12 4.12 0 0 0 .18-1.29zM25 17.74a1.06 1.06 0 0 1-.44.89 1.52 1.52 0 0 1-.48.23 2.08 2.08 0 0 1-.58.08h-2.23v-4.66h2.5a.92.92 0 0 1 .44.11 1.1 1.1 0 0 1 .33.27 1.25 1.25 0 0 1 .21.38 1.27 1.27 0 0 1-.1 1.07 1 1 0 0 1-.5.44 1.2 1.2 0 0 1 .63.42 1.22 1.22 0 0 1 .22.77zm-2.85-2.69v1.18h1.21a.54.54 0 0 0 .39-.15.58.58 0 0 0 .16-.43.6.6 0 0 0-.15-.43.48.48 0 0 0-.36-.16zm1.94 2.52a.68.68 0 0 0 0-.24.66.66 0 0 0-.11-.2.54.54 0 0 0-.17-.13.48.48 0 0 0-.22 0h-1.41v1.23h1.35a.59.59 0 0 0 .23 0 .56.56 0 0 0 .19-.13.62.62 0 0 0 .16-.53zm4.91.58v.79h-3.26v-4.66h3.18v.79h-2.28v1.13h2v.74h-2v1.21zm3.36-2.65l-.17-.12a2 2 0 0 0-.3-.15 2.58 2.58 0 0 0-.38-.13 1.64 1.64 0 0 0-.41-.05.93.93 0 0 0-.56.14.46.46 0 0 0-.18.39.4.4 0 0 0 .07.24.59.59 0 0 0 .2.17 1.67 1.67 0 0 0 .33.13l.46.12.62.2a1.68 1.68 0 0 1 .47.26 1.08 1.08 0 0 1 .32.37 1.25 1.25 0 0 1 .11.54 1.35 1.35 0 0 1-.14.66 1.19 1.19 0 0 1-.38.43 1.66 1.66 0 0 1-.55.24 2.77 2.77 0 0 1-.66.08 3.51 3.51 0 0 1-1-.16 3.2 3.2 0 0 1-.93-.47l.4-.78a1.26 1.26 0 0 0 .21.15l.36.19a2.84 2.84 0 0 0 .47.16 2.11 2.11 0 0 0 .53.07q.75 0 .75-.48a.39.39 0 0 0-.09-.26.73.73 0 0 0-.24-.18 2.33 2.33 0 0 0-.38-.14l-.5-.14a4.27 4.27 0 0 1-.58-.2 1.53 1.53 0 0 1-.41-.26 1 1 0 0 1-.25-.33 1.19 1.19 0 0 1-.08-.46 1.45 1.45 0 0 1 .12-.62 1.27 1.27 0 0 1 .36-.46 1.64 1.64 0 0 1 .54-.28 2.24 2.24 0 0 1 .66-.1 2.57 2.57 0 0 1 .91.15 3.39 3.39 0 0 1 .74.35zm4.7-.42h-1.49v3.87h-.9v-3.87h-1.49v-.79h3.88zM39 18.95v-4.67h3.13v.79h-2.19v1.2h1.85V17h-1.85v1.93zm7-.8v.79h-3.2v-4.66H46v.79h-2.3v1.13h2v.74h-2v1.21zm2.08-3.87h.8l1.77 4.66h-.93l-.43-1.16h-1.65l-.43 1.16h-.91zm1 2.86l-.66-1.83-.66 1.83zm5.1-2.06H52.7v3.87h-.9v-3.87h-1.49v-.79h3.87zm2.56 3.1a1 1 0 0 0 .54-.13 1.06 1.06 0 0 0 .35-.33 1.41 1.41 0 0 0 .19-.48 2.79 2.79 0 0 0 .06-.56v-2.4h.89v2.38a3.39 3.39 0 0 1-.11.9 2.07 2.07 0 0 1-.36.74 1.73 1.73 0 0 1-.63.5 2.14 2.14 0 0 1-.93.18 2.12 2.12 0 0 1-.95-.19 1.77 1.77 0 0 1-.63-.51 2 2 0 0 1-.35-.74 3.47 3.47 0 0 1-.11-.87v-2.39h.91v2.38a2.83 2.83 0 0 0 .06.57 1.41 1.41 0 0 0 .19.48 1 1 0 0 0 .88.47zm2.95.77v-4.67h2.06a1.31 1.31 0 0 1 .59.13 1.54 1.54 0 0 1 .47.35 1.68 1.68 0 0 1 .31.5 1.5 1.5 0 0 1 .11.56 1.55 1.55 0 0 1-.23.82 1.31 1.31 0 0 1-.63.54l1.06 1.75h-1l-.94-1.55h-.89V19zm.91-2.36h1.13a.48.48 0 0 0 .23-.06.6.6 0 0 0 .19-.16.81.81 0 0 0 .12-.24.93.93 0 0 0 0-.3.84.84 0 0 0-.05-.3.79.79 0 0 0-.14-.24.64.64 0 0 0-.2-.16.53.53 0 0 0-.23-.06h-1.1zm6.71 1.56v.79h-3.25v-4.66h3.18v.79H65v1.13h2v.74h-2v1.21zm2.27.8v-4.67h3.13v.79h-2.22v1.2h1.85V17h-1.85v1.93zm3.77 0v-4.67h.91v4.66zm1.88 0v-4.67h.91v3.87h2.38v.79zm7.64 0v-3.09l-1.2 2.3h-.49L80 15.86v3.09h-.91v-4.67h1l1.38 2.65 1.39-2.65h1v4.66zM29.81 54.08v-4.66h3.13v.79h-2.23v1.2h1.85v.74h-1.85v1.93zm3.77 0v-4.66h.9v4.66zm1.88 0v-4.66h.91v3.87h2.38v.79zm7.63 0V51l-1.2 2.3h-.49L40.2 51v3.09h-.91v-4.67h1l1.38 2.65L43 49.42h1v4.66zm3.46 0v-4.66h3.13v.79h-2.23v1.2h1.85v.74h-1.85v1.93zm7-.8v.79h-3.23v-4.65h3.18v.79h-2.28v1.12h2v.74h-2v1.21zm3.39-2.64l-.17-.12a2 2 0 0 0-.3-.15 2.58 2.58 0 0 0-.38-.13 1.64 1.64 0 0 0-.41-.05.93.93 0 0 0-.56.14.46.46 0 0 0-.18.39.4.4 0 0 0 .07.24.59.59 0 0 0 .2.17 1.67 1.67 0 0 0 .33.13l.46.12.62.2a1.68 1.68 0 0 1 .47.26 1.08 1.08 0 0 1 .3.38 1.25 1.25 0 0 1 .11.54 1.35 1.35 0 0 1-.14.66 1.19 1.19 0 0 1-.38.43 1.66 1.66 0 0 1-.55.24 2.77 2.77 0 0 1-.66.08 3.51 3.51 0 0 1-1-.16 3.2 3.2 0 0 1-.92-.45l.4-.78a1.26 1.26 0 0 0 .21.15l.36.19a2.84 2.84 0 0 0 .47.16 2.11 2.11 0 0 0 .53.07q.75 0 .75-.48a.39.39 0 0 0-.09-.26.73.73 0 0 0-.24-.18 2.33 2.33 0 0 0-.38-.14l-.5-.14a4.27 4.27 0 0 1-.58-.2 1.53 1.53 0 0 1-.41-.26 1 1 0 0 1-.25-.33 1.19 1.19 0 0 1-.08-.46 1.45 1.45 0 0 1 .13-.63 1.27 1.27 0 0 1 .36-.46 1.64 1.64 0 0 1 .54-.28 2.24 2.24 0 0 1 .66-.1 2.57 2.57 0 0 1 .91.15 3.39 3.39 0 0 1 .72.36zm4.7-.43h-1.49v3.87h-.9v-3.87h-1.49v-.79h3.88zm.58 3.87v-4.66h.91v4.66zm2.36-4.66l1.26 3.53 1.25-3.53h1l-1.82 4.66h-.76l-1.83-4.66zm4.88 0h.8L72 54.08h-.93l-.43-1.16H69l-.43 1.16h-.93zm1 2.86l-.66-1.83-.66 1.83zm2.1 1.8v-4.66h.91v3.87h2.38v.79z"/></g></g></g></g></svg>