<svg xmlns="http://www.w3.org/2000/svg" viewBox="0 0 105.06 68"><defs><style>.cls-1{fill:#ef5035}</style></defs><title>riff-laurel-red</title><g id="Layer_2" data-name="Layer 2"><g id="Layer_1-2" data-name="Layer 1"><g id="Layer_2-2" data-name="Layer 2"><g id="Layer_1-2-2" data-name="Layer 1-2"><path class="cls-1" d="M80.85 4.5A4.3 4.3 0 0 1 80 .11a3.11 3.11 0 0 1 2.61 3.23c-.13 1.91.94 2.52 2.37 3h.26c-.51-2.59-.48-2.88.39-4.23A3.37 3.37 0 0 1 87.49 6c-.37 1.61.33 2.41 1.57 3.06.16.09.31.22.65.45a4.88 4.88 0 0 1 .78-4.39c1.81.89 2 2.24 1 5.93.23.25.5.52.74.82a4.94 4.94 0 0 0 1 1.09c.33-1.63.58-3.11 2.1-4.16.93 1.38 1.37 2.91.54 4.21-1.1 1.73-.48 2.94.52 4.25l.18.15a4.82 4.82 0 0 1 2.53-3.92 3.62 3.62 0 0 1 .32 3.51 6.29 6.29 0 0 1-1.17 2 1.31 1.31 0 0 0-.25 1.49c.27.61.52 1.22.89 2.08a4.7 4.7 0 0 1 3-3.75 3.35 3.35 0 0 1-.91 4.52c-1.5 1.18-1.47 2.37-.77 4a5.37 5.37 0 0 1 3.81-2.77 3.48 3.48 0 0 1-.89 3.6 5.34 5.34 0 0 1-1.57 1.24 1.54 1.54 0 0 0-1 2.09 9.08 9.08 0 0 1 .18 1 5.52 5.52 0 0 1 4.2-1.94 4.13 4.13 0 0 1 0 1.06 4.58 4.58 0 0 1-3.16 3.29c-1 .3-1.46.77-1.41 1.8a7.83 7.83 0 0 1-.23 1.4 5.05 5.05 0 0 1 4.86-1.57 3.37 3.37 0 0 1-1.7 2.91 8.67 8.67 0 0 1-2.11.89c-1.69.48-1.7.45-1.89 2.29 2.94-.82 3.08-.83 4.84-.14a4.93 4.93 0 0 1-2.66 2.61 3.64 3.64 0 0 1-1.67.37c-1.77-.24-2.5.74-2.88 2.24C99.22 47 100 47 102 48.1a4.24 4.24 0 0 1-3.36 2.29 7.23 7.23 0 0 1-2 0C95 50.23 94.8 50.31 94 52a6.31 6.31 0 0 1 4.93 1.31c-2.19 2.5-4.66 1.88-7.23.89L90 55.77a21.5 21.5 0 0 1 2.72.63 3.65 3.65 0 0 1 2.15 1.69c-1.7 1.45-3.52 1.35-5.41.62a5.67 5.67 0 0 1-.65-.3c-1.42-.77-1.42-.77-2.86.49a7.25 7.25 0 0 1 4.41 3.1 4.58 4.58 0 0 1-3.86.55 5.94 5.94 0 0 1-2.14-1.14c-1.07-1.09-2.06-1-3.29-.13a6.44 6.44 0 0 1 3.81 3.6c-2.18 1.27-4.25.44-7-2.78a22.75 22.75 0 0 0-12 5.88l-1-1a8.81 8.81 0 0 1 3.69-2.89 56.39 56.39 0 0 1 6.82-2.7 2.1 2.1 0 0 0 1.77-2 5.06 5.06 0 0 1 2.77-4.28 5.56 5.56 0 0 1 .77-.28c.94 1.49.65 3.08-.87 5.44 1.93-.37 2-.41 1.92-2.25a5.35 5.35 0 0 1 2-4.83 2.61 2.61 0 0 1 .48-.3.75.75 0 0 1 .28 0c1 1.69 1 3-.13 5.56.35-.21.59-.33.81-.48 1.22-.77 1.23-.78.85-2.16a5.14 5.14 0 0 1 .68-4.58A11.85 11.85 0 0 1 87.74 50a5.56 5.56 0 0 1 1 4.9c1.41-.37 1.63-.74 1.1-2-.74-1.82-1-3.61.14-5.37.13-.2.3-.36.56-.68a5.6 5.6 0 0 1 1.85 4.65c1.43-.86 1.55-1.23.74-2.45a5.07 5.07 0 0 1-.74-5.16 7.34 7.34 0 0 1 .5-.78A5.93 5.93 0 0 1 95.34 48l1.29-2.18c-1.8-1.83-3.47-3.64-2.23-6.62a5.31 5.31 0 0 1 3.27 4.33l.3-.82c.57-1.51.57-1.51-.7-2.6-1.11-1-2.12-2-2.13-3.6a12.13 12.13 0 0 1 .14-1.36c1.86.43 2.64 1.12 3.92 3.32.07-.33.14-.59.2-.86.33-1.48.33-1.49-1.05-2.18a4.86 4.86 0 0 1-3-3.8 1.63 1.63 0 0 1 0-.43 2 2 0 0 1 .22-.42 5.69 5.69 0 0 1 4.27 2.71v-.83c0-1.74 0-1.73-1.61-2.31a4.52 4.52 0 0 1-3.43-3.88 4.64 4.64 0 0 1 4.7 2.17c-.08-.6-.11-.89-.15-1.17s-.11-.65-.18-1a1.1 1.1 0 0 0-1.06-1 12.2 12.2 0 0 1-2-.4 3.53 3.53 0 0 1-2.53-2.66c1.17-.7 1.86-.63 4.51.52-.15-.53-.27-1-.41-1.42a1.17 1.17 0 0 0-1.31-.88 11.61 11.61 0 0 1-1.59 0 4.36 4.36 0 0 1-3.5-2.33 4.48 4.48 0 0 1 5.18.5l-1.71-3c-2.29.86-4.43 1.23-6.18-1.09a4.56 4.56 0 0 1 5-.51l-2.06-2.39c-3.22 1.48-4.7 1.45-6.28-.13a5.43 5.43 0 0 1 4.32-1.53l-2-1.7c-1.89 1.23-3.73 2.66-6 1 1-1.56 2-2 4.3-2.06-.36-.25-.61-.45-.9-.62-1.66-1-1.66-1-3.14.33a3.56 3.56 0 0 1-4.32.65 4.3 4.3 0 0 1 4-2.57l-.65-.76zm-56.55 0l-.65.76a4.38 4.38 0 0 1 4.08 2.63 3.21 3.21 0 0 1-2.88.19 5.39 5.39 0 0 1-1.25-.71c-.6-.37-1.17-1.26-1.67-1.2a6.85 6.85 0 0 0-2.51 1.24 4.71 4.71 0 0 1 4.16 1.91c-1.25 1.48-2.39 1.36-6-.71l-2 1.58a5.76 5.76 0 0 1 4.32 1.57c-1.37 1.59-3.18 1.63-6.25.13l-2.09 2.39a4.49 4.49 0 0 1 4.9.43c-1 1.93-2.63 2.27-6 1.22l-1.79 2.93a4.46 4.46 0 0 1 5.16-.51 4.28 4.28 0 0 1-3.3 2.33 6.72 6.72 0 0 1-.86 0c-2.07 0-2.15.08-2.52 2.33 1.4-.82 2.78-1.38 4.49-.73a3.55 3.55 0 0 1-2.44 2.79 6.39 6.39 0 0 1-1.82.39 1.39 1.39 0 0 0-1.47 1.44c-.06.47-.16.94-.3 1.69a5.23 5.23 0 0 1 4.67-2.15 3.82 3.82 0 0 1-2 3.36 4.15 4.15 0 0 1-.91.43c-2.15.82-2.15.82-2 3.27a20.43 20.43 0 0 1 1.88-1.85 4 4 0 0 1 2.52-.8 4.24 4.24 0 0 1-1.35 3.55 9.93 9.93 0 0 1-1.68 1.1c-1.22.65-1.25.65-1 2 .07.33.15.65.22 1a14.66 14.66 0 0 1 1.52-2 16.79 16.79 0 0 1 2.24-1.6 3.68 3.68 0 0 1-.48 3.86 9 9 0 0 1-1.53 1.52c-1.07.91-1.09.9-.62 2.14.11.3.24.6.42 1.08a5.29 5.29 0 0 1 3.09-4.23c1.4 2.29.45 4-2 6.58L9.77 48a6.33 6.33 0 0 1 2.36-4.82 3.76 3.76 0 0 1 .87 3.76 6.45 6.45 0 0 1-.91 1.94c-.81 1.31-.82 1.42.26 2.57.13.13.28.25.59.52a5.35 5.35 0 0 1 1.63-5.2 4.84 4.84 0 0 1 1.31 3.92 11.83 11.83 0 0 1-.57 2.08c-.52 1.43-.5 1.5 1.09 2.29a5.59 5.59 0 0 1 .89-4.9 4.57 4.57 0 0 1 2 5.18c-.4 1.88-.4 1.88 1.67 3.1a5.25 5.25 0 0 1-.24-5.78 5.17 5.17 0 0 1 2.71 3.76 12 12 0 0 1 0 1.44c0 1.87 0 1.87 2.06 2.51-1.24-1.76-1.91-3.5-1.15-5.64a5 5 0 0 1 3.37 3 1.75 1.75 0 0 1 .2.69c-.06 2.13 1.19 2.86 3.09 3.33a21.66 21.66 0 0 1 7.52 3.52c.61.44 1.16 1 1.89 1.58l-1 1.15a22.66 22.66 0 0 0-12.09-5.85c-3 3.24-4.79 4-7.08 2.77A6.4 6.4 0 0 1 24 61.38c-1.44-1.11-1.56-1.09-3 0-1.63 1.18-3.35 1.91-5.38 1.07a7.31 7.31 0 0 1-.71-.4A6.36 6.36 0 0 1 19.07 59c-1.13-1.34-1.31-1.35-2.69-.62-2 1.09-4.07 1.34-6.06-.16.75-1.47 2.58-2.34 4.93-2.47a12.36 12.36 0 0 1-1.22-1 1.16 1.16 0 0 0-1.41-.27A10.31 10.31 0 0 1 10 55c-1.58.09-2.4-.33-3.75-1.71a5.7 5.7 0 0 1 4.83-1.25c-.5-1.58-.95-1.88-2.29-1.7a5.68 5.68 0 0 1-4.52-.95A14.29 14.29 0 0 1 3 48.18a4.79 4.79 0 0 1 5.34-.26c-.26-.59-.45-.94-.59-1.31A1.57 1.57 0 0 0 6 45.52a5 5 0 0 1-4.63-2.38 3.85 3.85 0 0 1-.28-.69c1.68-.84 3.22-.36 4.75.28-.06-1.87-.07-1.87-1.79-2.38-1.39-.41-2.78-.86-3.47-2.35-.2-.42-.33-.87-.54-1.45A5.06 5.06 0 0 1 4.9 38c-.12-.82-.22-1.47-.3-2.12s-.74-.81-1.26-1a4.71 4.71 0 0 1-3-2.84A8.21 8.21 0 0 1 0 30.73c1.67-.24 2.73.21 4.25 1.76.09-.41.14-.75.24-1.09a1.48 1.48 0 0 0-.92-2A4.62 4.62 0 0 1 1 26.31a10.08 10.08 0 0 1-.1-1.68c1.78.21 2.61.78 4 2.82A15.51 15.51 0 0 0 5.42 25c0-.33-.39-.72-.69-1a4.76 4.76 0 0 1-1.94-3.09 14.9 14.9 0 0 1 .12-2.11c2 .68 2.61 1.38 3.4 3.63a9.18 9.18 0 0 1 .49-1.11 2.25 2.25 0 0 0-.29-3 4.19 4.19 0 0 1-.47-5 5 5 0 0 1 2.5 4.2l1.36-2.03c.41-.62 0-1.11-.3-1.59a4.65 4.65 0 0 1-.25-4.29 3.85 3.85 0 0 1 .47-.67c1.31.9 1.69 1.66 1.92 4.15a24.4 24.4 0 0 0 1.74-1.79c.15-.19.07-.61 0-.92-.13-.71-.38-1.4-.46-2.1a3.33 3.33 0 0 1 1.51-3.2c1.14 1.24 1.31 2.67.79 4.58a25.78 25.78 0 0 0 2.09-1.6 1.5 1.5 0 0 0 .33-1c0-.57-.13-1.14-.13-1.72 0-1.6.43-2.29 2-3.27 1 1.34.76 2.77.19 4.44.62-.27 1-.49 1.46-.64a1.71 1.71 0 0 0 1.26-2A3.8 3.8 0 0 1 25 0c1 1.76.27 3.16-.72 4.51z"/><path class="cls-1" d="M16.58 30.78v-6.5h1.5v6.5zm4.25-3.71v3.72h-1.5v-6.5h1.17l3 3.81v-3.81H25v6.5h-1.18zm10.4-1.47h-2v5.18h-1.48V25.6h-2v-1.3h5.47zm5.3 3.87v1.31H32v-6.49h4.49v1.31h-3v1.26H36v1.22h-2.54v1.38zm.91 1.31v-6.5h2.94a1.89 1.89 0 0 1 .85.19 2.25 2.25 0 0 1 .67.5 2.36 2.36 0 0 1 .44.71 2.1 2.1 0 0 1 .14.78 2.26 2.26 0 0 1-.28 1.11 2 2 0 0 1-.78.78l1.43 2.42h-1.69l-1.25-2.1h-1v2.1zm1.5-3.41h1.37a.56.56 0 0 0 .46-.25 1 1 0 0 0 .19-.65.91.91 0 0 0-.22-.65.65.65 0 0 0-.48-.24h-1.32zm6.13-.3v3.72h-1.5v-6.5h1.17l3 3.81v-3.81h1.5v6.5h-1.18zm7.23-2.78h1.35L56 30.78h-1.52L54 29.33h-2l-.49 1.45h-1.58zm1.44 4L53 26l-.78 2.29zM61 25.6h-2v5.18h-1.5V25.6h-2v-1.3H61zm.69 5.18v-6.5h1.5v6.5zm5.6.06a3 3 0 0 1-1.29-.29 3.25 3.25 0 0 1-1-.75 3.4 3.4 0 0 1-.65-1.06 3.33 3.33 0 0 1-.23-1.23 3.34 3.34 0 0 1 1.95-3 3.11 3.11 0 0 1 1.31-.27 3 3 0 0 1 1.31.28 3.21 3.21 0 0 1 1 .75 3.39 3.39 0 0 1 .65 1.06 3.35 3.35 0 0 1 .23 1.21 3.25 3.25 0 0 1-.24 1.24 3.29 3.29 0 0 1-1.7 1.77 3.06 3.06 0 0 1-1.34.29zm-1.69-3.29a2.42 2.42 0 0 0 .11.73 1.94 1.94 0 0 0 .33.63 1.6 1.6 0 0 0 .54.44 1.58 1.58 0 0 0 .73.16 1.55 1.55 0 0 0 .75-.17 1.63 1.63 0 0 0 .53-.45 2 2 0 0 0 .33-.63 2.5 2.5 0 0 0 .1-.72 2.45 2.45 0 0 0-.11-.73 1.85 1.85 0 0 0-.33-.62 1.63 1.63 0 0 0-.54-.43 1.59 1.59 0 0 0-.73-.16 1.56 1.56 0 0 0-.75.17 1.67 1.67 0 0 0-.54.44 1.88 1.88 0 0 0-.33.63 2.49 2.49 0 0 0-.1.7zm7.29-.48v3.72h-1.5v-6.5h1.17l3 3.81v-3.81h1.5v6.5h-1.17zm7.22-2.78h1.35l2.37 6.5H82.3l-.5-1.45h-2l-.49 1.45h-1.57zm1.44 4L80.79 26 80 28.29zm2.92 2.49v-6.5H86v5.18h3.15v1.31zm-61.04 1.35v6.5h-1.5V36h-2.59v2.66h-1.5v-6.5h1.5v2.51h2.59v-2.55zm4.03 5.22a1.24 1.24 0 0 0 .65-.16 1.27 1.27 0 0 0 .43-.42 1.82 1.82 0 0 0 .23-.61 3.54 3.54 0 0 0 .07-.7v-3.33h1.5v3.32a4.54 4.54 0 0 1-.17 1.26 2.91 2.91 0 0 1-.52 1 2.44 2.44 0 0 1-.89.69 3.06 3.06 0 0 1-1.31.25 3 3 0 0 1-1.33-.26 2.46 2.46 0 0 1-.89-.71 2.94 2.94 0 0 1-.5-1 4.62 4.62 0 0 1-.16-1.23v-3.32h1.5v3.32a3.34 3.34 0 0 0 .07.71 1.89 1.89 0 0 0 .24.6 1.18 1.18 0 0 0 1.08.59zm9.17 1.28v-3.89l-1.41 2.84h-.8L33 34.74v3.89h-1.49v-6.5h1.63l1.68 3.4 1.69-3.4h1.63v6.5zm4.52-6.5h1.35l2.37 6.5h-1.55l-.5-1.45h-2l-.49 1.45h-1.56zm1.44 4l-.76-2.29-.83 2.3zM47 34.91v3.72h-1.5v-6.5h1.17l3 3.81v-3.81h1.5v6.5H50zm5.46 3.72v-6.5H54v6.5zm7.68-5.18h-2v5.18h-1.5v-5.18h-2v-1.31h5.45zM62 32.13h1.35l2.37 6.5H64.2l-.5-1.45h-2l-.49 1.45h-1.57zm1.44 4l-.76-2.29-.78 2.29zm2.94 2.5v-6.5h2.94a1.89 1.89 0 0 1 .85.19 2.26 2.26 0 0 1 .67.5 2.36 2.36 0 0 1 .44.71 2.1 2.1 0 0 1 .16.8 2.29 2.29 0 0 1-.07.58 2.26 2.26 0 0 1-.21.53 2 2 0 0 1-.78.78l1.43 2.42h-1.69l-1.25-2.1h-1v2.1zm1.5-3.41h1.37a.57.57 0 0 0 .46-.25 1 1 0 0 0 .19-.65.91.91 0 0 0-.22-.65.65.65 0 0 0-.48-.24h-1.32zm4.63 3.41v-6.5H74v6.5zm4.49-6.5h1.35l2.36 6.5H79.2l-.5-1.45h-2l-.49 1.45h-1.56zm1.44 4l-.76-2.29-.78 2.29zm4.45-1.22v3.72h-1.5v-6.5h1.17l3 3.81v-3.81h1.5v6.5h-1.18zM38.11 40h1.35l2.38 6.5H40.3l-.5-1.5h-2l-.51 1.45h-1.56zm1.44 4l-.76-2.29L38 44zm4.52-4h1.38l.65 2.08.66-2.08h1.39l-1.09 3 .65 1.75L49.36 40H51l-2.61 6.5h-1.27l-1-2.54-1 2.54H43.8L41.21 40h1.63l1.63 4.78.66-1.78zm8.71 0h1.35l2.37 6.5H55l-.54-1.5h-2l-.49 1.45h-1.56zm1.44 4l-.76-2.29-.78 2.29zm2.92 2.47V40h2.94a1.88 1.88 0 0 1 .85.19 2.26 2.26 0 0 1 .67.5 2.36 2.36 0 0 1 .44.71 2.1 2.1 0 0 1 .16.8 2.27 2.27 0 0 1-.28 1.11 2 2 0 0 1-.78.78l1.43 2.42h-1.69l-1.25-2.1h-1v2.1zm1.5-3.41H60a.57.57 0 0 0 .45-.26 1 1 0 0 0 .19-.65.91.91 0 0 0-.22-.65.65.65 0 0 0-.48-.24h-1.3zm4.63 3.41V40h2.43a3.6 3.6 0 0 1 1.41.25A2.84 2.84 0 0 1 68.74 42a3.79 3.79 0 0 1 .21 1.26 3.73 3.73 0 0 1-.23 1.34 2.88 2.88 0 0 1-.65 1 2.94 2.94 0 0 1-1 .65 3.64 3.64 0 0 1-1.33.23zm4.14-3.27a2.51 2.51 0 0 0-.11-.78 1.75 1.75 0 0 0-.33-.61 1.45 1.45 0 0 0-.54-.39 1.82 1.82 0 0 0-.72-.14h-.93v3.86h.92a1.74 1.74 0 0 0 .73-.15 1.48 1.48 0 0 0 .54-.41 1.85 1.85 0 0 0 .33-.61 2.48 2.48 0 0 0 .12-.76zm-33.79-24a1.86 1.86 0 0 1-1.36.59 2.15 2.15 0 0 1-.9-.19 2.29 2.29 0 0 1-.74-.53 2.53 2.53 0 0 1-.49-.79 2.63 2.63 0 0 1-.18-1 2.47 2.47 0 0 1 .68-1.72 2.4 2.4 0 0 1 .75-.55 2.26 2.26 0 0 1 .94-.2 2.29 2.29 0 0 1 1.18.29 1.87 1.87 0 0 1 .74.77l-.71.52a1.31 1.31 0 0 0-.52-.56 1.43 1.43 0 0 0-.72-.18 1.24 1.24 0 0 0-.57.13 1.31 1.31 0 0 0-.44.36 1.69 1.69 0 0 0-.28.52 1.94 1.94 0 0 0-.1.62 1.85 1.85 0 0 0 .1.72 1.63 1.63 0 0 0 .3.52 1.42 1.42 0 0 0 .46.35 1.31 1.31 0 0 0 .58.11 1.66 1.66 0 0 0 1.28-.65V18h-1v-.72h1.77v2.51h-.78zm1.59.55v-4.87h2.15A1.39 1.39 0 0 1 38 15a1.61 1.61 0 0 1 .49.37 1.76 1.76 0 0 1 .33.52 1.58 1.58 0 0 1 .12.59 1.63 1.63 0 0 1-.24.86 1.36 1.36 0 0 1-.65.56l1.11 1.83h-1.08l-1-1.63h-.93v1.63zm.95-2.46h1.19a.5.5 0 0 0 .25-.06.62.62 0 0 0 .2-.17.84.84 0 0 0 .13-.25 1 1 0 0 0 0-.31.88.88 0 0 0-.06-.33.82.82 0 0 0-.15-.25.67.67 0 0 0-.21-.16.55.55 0 0 0-.25-.06h-1.1zm4.93-2.41h.84l1.85 4.87h-1l-.45-1.22h-1.7l-.44 1.22h-1zm1.08 3L41.51 16l-.7 1.92zm3.09-1.25v3.12h-.95v-4.87h.74l2.54 3.2v-3.19h.95v4.87h-.77zm4.29 3.12v-4.87h1.77a2.64 2.64 0 0 1 1 .19 2.1 2.1 0 0 1 1.21 1.31 2.91 2.91 0 0 1 .15.94 2.85 2.85 0 0 1-.17 1 2.15 2.15 0 0 1-.48.77 2.18 2.18 0 0 1-.76.49 2.68 2.68 0 0 1-1 .18zm3.22-2.44a2.08 2.08 0 0 0-.09-.65 1.44 1.44 0 0 0-.28-.51 1.26 1.26 0 0 0-.46-.33 1.54 1.54 0 0 0-.61-.12h-.83v3.21h.82a1.48 1.48 0 0 0 .62-.12 1.27 1.27 0 0 0 .45-.33 1.52 1.52 0 0 0 .28-.51 2.06 2.06 0 0 0 .1-.64zm3.35 2.44v-4.87h2.07a1.39 1.39 0 0 1 .62.14 1.61 1.61 0 0 1 .49.37 1.75 1.75 0 0 1 .33.52 1.57 1.57 0 0 1 .12.59 1.69 1.69 0 0 1-.11.6 1.67 1.67 0 0 1-.31.52 1.52 1.52 0 0 1-.48.35 1.39 1.39 0 0 1-.62.14h-1.17v1.63zm.95-2.46h1.1a.54.54 0 0 0 .43-.21.88.88 0 0 0 .18-.58 1 1 0 0 0-.06-.33.81.81 0 0 0-.14-.25.57.57 0 0 0-.21-.15.61.61 0 0 0-.25-.05h-1.06zm3.32 2.46v-4.87h2.15a1.39 1.39 0 0 1 .62.14 1.61 1.61 0 0 1 .49.37 1.76 1.76 0 0 1 .33.52 1.58 1.58 0 0 1 .12.59 1.63 1.63 0 0 1-.24.86 1.36 1.36 0 0 1-.65.56l1.11 1.83h-1.06l-1-1.63h-.93v1.63zm.95-2.46h1.19a.5.5 0 0 0 .25-.06.62.62 0 0 0 .2-.17.84.84 0 0 0 .13-.25 1 1 0 0 0 0-.31.88.88 0 0 0-.06-.33.82.82 0 0 0-.15-.25.67.67 0 0 0-.21-.16.55.55 0 0 0-.25-.06h-1.1zM65 19.75v-4.87h.95v4.87zm1.62-.75l2.75-3.33h-2.69v-.83h3.77v.71l-2.66 3.33h2.68v.83h-3.85zm7.99-.08v.83h-3.39v-4.87h3.32v.83h-2.37v1.17h2.05v.76h-2.05v1.27zM45.67 55.71v-4.88h2.15a1.39 1.39 0 0 1 .62.14 1.61 1.61 0 0 1 .49.37 1.76 1.76 0 0 1 .33.52 1.58 1.58 0 0 1 .12.59 1.63 1.63 0 0 1-.24.86 1.36 1.36 0 0 1-.65.56l1.11 1.83h-1.06l-1-1.63h-.95v1.63zm.95-2.46h1.18a.5.5 0 0 0 .25-.06.62.62 0 0 0 .2-.17.84.84 0 0 0 .13-.25 1 1 0 0 0 0-.31.88.88 0 0 0-.06-.33.82.82 0 0 0-.15-.25.67.67 0 0 0-.21-.16.55.55 0 0 0-.25-.06h-1.1zm3.61 2.46v-4.88h.95v4.87zm1.96 0v-4.88h3.27v.83h-2.33v1.26h1.94v.77h-1.94v2zm3.94 0v-4.88h3.27v.83h-2.33v1.26H59v.77h-1.93v2z"/></g></g></g></g></svg>