<svg xmlns="http://www.w3.org/2000/svg" viewBox="0 0 321.41 208"><defs><style>.cls-1{fill:#ef5035}</style></defs><title>riff-laurel-red_1</title><g id="Layer_2" data-name="Layer 2"><g id="Layer_1-2" data-name="Layer 1"><path class="cls-1" d="M247.34 13.81c-3-4.06-4.73-8.35-2.69-13.45 4.93 1.3 8.31 4.74 8 9.87-.4 5.84 2.87 7.71 7.25 9.21.22.08.53-.09.8-.15-1.56-7.93-1.48-8.8 1.18-12.94 4.9 2.63 7 7 5.78 12.07-1.13 4.93 1 7.36 4.79 9.37.5.27.94.66 2 1.38-1-5.13-.83-9.63 2.4-13.43 5.53 2.73 6.19 6.86 3 18.14.71.78 1.54 1.6 2.26 2.5a15.1 15.1 0 0 0 3.08 3.32c1-5 1.78-9.52 6.42-12.73 2.83 4.21 4.18 8.9 1.65 12.88-3.36 5.28-1.46 9 1.6 13a4.91 4.91 0 0 0 .56.47c.68-5.19 2.84-9.34 7.74-12 2.42 3.53 2.25 7.13 1 10.62a19.23 19.23 0 0 1-3.57 6 4 4 0 0 0-.82 4.77c.82 1.86 1.6 3.73 2.72 6.36 1.25-6 4.37-9.52 9.33-11.46 2.53 5.06 2.08 10-2.77 13.82-4.58 3.61-4.5 7.24-2.35 12.23 2.88-4.29 6.18-7.79 11.66-8.48 1.39 4.36.07 7.93-2.71 11a16.33 16.33 0 0 1-4.8 3.8c-2.93 1.41-3.84 3.36-2.91 6.38a27.79 27.79 0 0 1 .54 3.08 16.89 16.89 0 0 1 12.85-5.94 12.64 12.64 0 0 1 0 3.25 14 14 0 0 1-9.66 10.07c-3.08.93-4.46 2.35-4.31 5.51a23.94 23.94 0 0 1-.71 4.27c4.3-4.47 9-5.59 14.51-4.79a10.31 10.31 0 0 1-5.2 8.89 26.51 26.51 0 0 1-6.47 2.71c-5.18 1.47-5.21 1.37-5.78 7 9-2.52 9.41-2.54 14.8-.44a15.07 15.07 0 0 1-8.13 8c-1.62.64-3.48 1.34-5.11 1.13-5.43-.72-7.65 2.25-8.81 6.86 7.11-2.28 9.57-2.12 15.47 1.22-2.06 4.42-5.94 6.15-10.29 7a22.13 22.13 0 0 1-6.16 0c-4.93-.48-5.44-.24-7.83 5a19.32 19.32 0 0 1 15.07 4c-6.7 7.66-14.26 5.74-22.13 2.73l-5.11 4.75a65.79 65.79 0 0 1 8.32 1.94c2.56.94 5.07 2.28 6.59 5.16-5.21 4.45-10.77 4.13-16.56 1.89a17.34 17.34 0 0 1-2-.93c-4.34-2.35-4.34-2.36-8.76 1.49 5.35 1.7 10.06 4.13 13.39 9.58-3.94 2-7.69 3.23-11.81 1.67-2.32-.88-4.9-1.81-6.56-3.5-3.27-3.32-6.3-3.09-10.06-.39 5.38 2.23 9.53 5.59 11.66 11-6.67 3.89-13 1.35-21.55-8.5-13.69 2.54-26.22 7.78-36.86 18l-3.17-3c3.06-4.35 7.1-6.9 11.3-8.85a172.52 172.52 0 0 1 20.85-8.27c3.56-1.12 5.13-2.76 5.43-6.23.51-5.82 3.22-10.31 8.46-13.1a17 17 0 0 1 2.37-.86c2.87 4.55 2 9.42-2.65 16.65 5.89-1.12 6.21-1.24 5.88-6.88-.35-6 1.39-11 6.17-14.79a8 8 0 0 1 1.48-.91 2.29 2.29 0 0 1 .86-.05c3.19 5.16 3.15 9.08-.4 17 1.07-.63 1.79-1 2.48-1.47 3.72-2.37 3.76-2.39 2.59-6.61a15.72 15.72 0 0 1 2.07-14.01 36.25 36.25 0 0 1 3.42-3.65 17 17 0 0 1 3.2 15c4.3-1.12 5-2.27 3.37-6.17-2.26-5.56-3.06-11.05.43-16.44.39-.6.91-1.11 1.71-2.08 4.42 3.89 5.77 8.72 5.65 14.23 4.37-2.63 4.73-3.75 2.25-7.5-3.26-4.93-4.83-10.06-2.26-15.79a22.45 22.45 0 0 1 1.54-2.38c4.46 3.83 7.41 8 7.38 15l3.94-6.66c-5.51-5.6-10.63-11.15-6.83-20.25 5.61 2.57 8.91 6.59 10 13.24.47-1.29.69-1.9.91-2.5 1.75-4.62 1.75-4.61-2.15-7.95-3.41-2.93-6.48-6.09-6.51-11a37.11 37.11 0 0 1 .43-4.15c5.69 1.33 8.08 3.42 12 10.16.22-1 .43-1.79.6-2.62 1-4.52 1-4.56-3.22-6.67-4.89-2.45-8.33-6-9.08-11.64a5 5 0 0 1 0-1.31 6.26 6.26 0 0 1 .68-1.3 17.41 17.41 0 0 1 13.07 8.29v-2.53c0-5.31 0-5.28-4.94-7.06-5.41-1.93-9.57-5-10.49-11.88 5.83-.45 10.5.91 14.39 6.65-.24-1.84-.33-2.71-.47-3.57-.16-1-.33-2-.54-3a3.36 3.36 0 0 0-3.25-3 37.34 37.34 0 0 1-6-1.23c-4-1.12-6.45-3.8-7.73-8.14 3.58-2.14 5.69-1.92 13.79 1.6-.47-1.62-.82-3-1.26-4.33a3.58 3.58 0 0 0-4-2.7 35.52 35.52 0 0 1-4.85 0c-4.75-.35-8.05-2.86-10.72-7.13 5.5-2.85 10.34-2.44 15.84 1.52l-5.24-9.08c-7 2.64-13.54 3.76-18.92-3.34 5.08-3.38 9.86-4.41 15.37-1.57l-6.29-7.3c-9.85 4.52-14.39 4.45-19.21-.41a16.6 16.6 0 0 1 13.21-4.67l-6.2-5.19c-5.79 3.75-11.41 8.13-18.45 3.07 3.19-4.76 6.26-6.23 13.15-6.29-1.09-.76-1.88-1.39-2.75-1.9-5.07-3-5.08-2.95-9.62 1-4.27 3.69-8.38 4.39-13.21 2 2.41-5.06 6.41-7.6 12.38-7.87l-2-2.34zm-173-.02l-2 2.33c5.94.31 9.94 2.83 12.47 8.05a9.82 9.82 0 0 1-8.82.59 16.48 16.48 0 0 1-3.81-2.17c-1.76-1.24-3.56-3.87-5.09-3.69-2.7.31-5.21 2.28-7.68 3.79 6.43.31 8.37 1.17 12.72 5.85-3.81 4.52-7.3 4.15-18.27-2.18l-6.26 4.82c5.27 0 9.59 1.25 13.22 4.81-4.2 4.86-9.73 5-19.11.4l-6.39 7.32c5.46-2.76 10.27-1.88 15 1.31-3.1 5.89-8.06 6.93-18.48 3.72l-5.32 9c5.49-3.94 10.35-4.43 15.8-1.55-2.38 4.17-5.62 6.52-10.1 7.12a20.56 20.56 0 0 1-2.64.07c-6.33 0-6.58.25-7.72 7.14 4.27-2.5 8.52-4.21 13.73-2.23a10.86 10.86 0 0 1-7.45 8.45 19.56 19.56 0 0 1-5.58 1.2c-2.94.16-4.16 1.69-4.47 4.4-.17 1.44-.5 2.87-.93 5.18a16 16 0 0 1 14.28-6.58c.11 5-2.65 7.86-6.07 10.27a12.69 12.69 0 0 1-2.79 1.31c-6.59 2.52-6.59 2.51-6.09 10a62.5 62.5 0 0 1 5.76-5.66 12.22 12.22 0 0 1 7.71-2.44c0 4.47-.94 8.14-4.21 10.86a30.39 30.39 0 0 1-5.14 3.38c-3.74 2-3.83 2-3 6 .2 1 .45 2 .68 3 1.55-2.12 2.82-4.44 4.65-6.19s4.22-2.93 6.8-4.66c2 4.84.9 8.49-1.46 11.8a27.5 27.5 0 0 1-4.68 4.65c-3.28 2.79-3.32 2.74-1.9 6.55.35.93.72 1.84 1.29 3.3a16.17 16.17 0 0 1 9.45-12.93c4.27 7 1.39 12.11-6.24 20.12l3.68 6.47c.2-6.53 2.9-10.88 7.22-14.75 3.58 3.54 3.51 7.6 2.66 11.61a19.74 19.74 0 0 1-2.79 5.93c-2.48 4-2.52 4.33.79 7.87.39.41.85.76 1.79 1.59-1.38-6.44.55-11.26 5-15.92 3 3.82 4.76 7.52 4 12a36.19 36.19 0 0 1-1.75 6.37c-1.58 4.39-1.54 4.59 3.35 7a17.1 17.1 0 0 1 2.73-15c5.55 3.45 7.68 9.11 6.24 15.86-1.22 5.75-1.22 5.75 5.12 9.47-3.71-6.1-4.11-11.64-.73-17.67 4.46 2.92 7.67 6.26 8.29 11.5a36.85 36.85 0 0 1 .11 4.41c0 5.73 0 5.73 6.31 7.69-3.79-5.37-5.85-10.7-3.52-17.25a15.4 15.4 0 0 1 10.3 9.15 5.36 5.36 0 0 1 .6 2.11c-.17 6.52 3.64 8.75 9.44 10.18a66.27 66.27 0 0 1 23 10.78c1.88 1.36 3.56 3 5.77 4.84l-3.25 3.46a69.34 69.34 0 0 0-37-17.89c-9.07 9.92-14.65 12.17-21.65 8.48a19.59 19.59 0 0 1 11.39-10.77c-4.42-3.39-4.78-3.35-9.22-.12-5 3.61-10.26 5.83-16.46 3.28a22.37 22.37 0 0 1-2.18-1.23c2.85-5.37 7.55-7.78 12.9-9.35-3.47-4.09-4-4.14-8.22-1.89-6.24 3.33-12.46 4.11-18.53-.48 2.28-4.51 7.89-7.16 15.07-7.55a37.83 37.83 0 0 1-3.73-3c-1.32-1.35-2.51-1.44-4.31-.83a31.55 31.55 0 0 1-8.11 1.71c-4.84.29-7.33-1-11.46-5.22a17.45 17.45 0 0 1 14.77-3.82c-1.52-4.83-2.9-5.75-7-5.21-4.94.66-9.74.36-13.84-2.9a43.72 43.72 0 0 1-3.68-3.78c5.4-3.42 10.38-4 16.33-.8-.81-1.79-1.39-2.89-1.81-4-.94-2.61-2.75-3.46-5.46-3.34A15.39 15.39 0 0 1 4.21 132a11.79 11.79 0 0 1-.86-2.11c5.15-2.56 9.85-1.11 14.54.87-.18-5.71-.21-5.72-5.48-7.28-4.28-1.26-8.52-2.63-10.64-7.1-.61-1.28-1-2.66-1.65-4.44C6 111 10.75 112 15 116.39c-.36-2.5-.67-4.49-.92-6.5-.28-2.33-2.27-2.48-3.87-3a14.42 14.42 0 0 1-9.32-8.7A25.12 25.12 0 0 1 0 94.06c5.11-.72 8.34.63 13 5.38.27-1.24.44-2.3.74-3.32.86-2.86-.12-4.64-2.8-6a14.12 14.12 0 0 1-7.83-9.6 30.84 30.84 0 0 1-.3-5.13c5.45.63 8 2.4 12.3 8.64.61-2.86 1.37-5.17 1.46-7.5 0-1-1.19-2.21-2.1-3-2.91-2.6-5.58-5.36-5.93-9.46a45.58 45.58 0 0 1 .36-6.45c6 2.08 8 4.23 10.39 11.12a28.08 28.08 0 0 1 1.49-3.4c2-3.28 1.7-6-.89-9.07-3.65-4.33-4.39-9.36-1.45-15.19 4.55 3.09 7.29 6.72 7.64 12.84l4.2-6.49c1.24-1.91-.11-3.39-.93-4.87a14.24 14.24 0 0 1-.75-13.14 11.78 11.78 0 0 1 1.44-2.05c4 2.76 5.17 5.08 5.88 12.69a74.64 74.64 0 0 0 5.31-5.48c.46-.58.21-1.88 0-2.8-.4-2.16-1.17-4.27-1.4-6.44-.42-4 .91-6.77 4.61-9.8 3.5 3.8 4 8.16 2.43 14a78.87 78.87 0 0 0 6.38-4.88 4.6 4.6 0 0 0 1-3c0-1.74-.4-3.5-.4-5.25 0-4.9 1.33-7 6.09-10 3 4.1 2.31 8.47.59 13.57 1.91-.84 3.16-1.49 4.46-1.95 2.88-1 4-2.85 3.84-6-.28-5.49 2.16-9.54 7.62-12 3 5.39.83 9.66-2.2 13.81z"/><path class="cls-1" d="M50.74 94.21V74.33h4.59v19.88zm12.99-11.37v11.37h-4.59V74.33h3.58L72 86V74.33h4.59v19.88h-3.7zm31.81-4.48h-6v15.85H84.9V78.36h-6.08v-4h16.72zm16.21 11.82v4h-14V74.33h13.75v4h-9.13v3.86h7.84v3.72h-7.84v4.23zm2.8 4.03V74.33h9a5.77 5.77 0 0 1 2.59.59 6.88 6.88 0 0 1 2.06 1.54 7.23 7.23 0 0 1 1.36 2.16A6.43 6.43 0 0 1 130 81a6.9 6.9 0 0 1-.87 3.39 6.07 6.07 0 0 1-2.38 2.38l4.37 7.39h-5.18l-3.81-6.41h-3v6.41zm4.59-10.42h4.2a1.72 1.72 0 0 0 1.4-.77 3.16 3.16 0 0 0 .59-2 2.78 2.78 0 0 0-.67-2 2 2 0 0 0-1.46-.73h-4.06zm18.76-.95v11.37h-4.59V74.33h3.58L146.16 86V74.33h4.59v19.88h-3.7zm22.1-8.51h4.14l7.25 19.88h-4.7l-1.54-4.45h-6.19l-1.51 4.45h-4.7zm4.4 12.26l-2.32-7-2.38 7zm22.11-8.23h-6v15.85h-4.59V78.36h-6.08v-4h16.72zm2.24 15.85V74.33h4.59v19.88zm17.11.17a9.24 9.24 0 0 1-4-.87 9.93 9.93 0 0 1-3.11-2.28 10.41 10.41 0 0 1-2-3.23 10.2 10.2 0 0 1-.71-3.75 9.92 9.92 0 0 1 .74-3.78A10 10 0 0 1 202 75a9.51 9.51 0 0 1 4-.83 9.25 9.25 0 0 1 4 .87 9.83 9.83 0 0 1 3.11 2.3 10.37 10.37 0 0 1 2 3.25 10.24 10.24 0 0 1 .7 3.7 9.93 9.93 0 0 1-.74 3.78 10.06 10.06 0 0 1-5.19 5.43 9.37 9.37 0 0 1-4.02.88zm-5.18-10.08a7.41 7.41 0 0 0 .34 2.23 5.93 5.93 0 0 0 1 1.92 4.89 4.89 0 0 0 1.64 1.34 4.83 4.83 0 0 0 2.24.5 4.74 4.74 0 0 0 2.3-.53 5 5 0 0 0 1.62-1.39 6.06 6.06 0 0 0 1-1.93 7.66 7.66 0 0 0 .32-2.2 7.48 7.48 0 0 0-.34-2.23 5.65 5.65 0 0 0-1-1.9 5 5 0 0 0-1.64-1.32 4.87 4.87 0 0 0-2.23-.49 4.77 4.77 0 0 0-2.28.52 5.11 5.11 0 0 0-1.65 1.36 5.75 5.75 0 0 0-1 1.92 7.63 7.63 0 0 0-.32 2.2zM223 82.84v11.37h-4.59V74.33H222L231.28 86V74.33h4.59v19.88h-3.7zm22.09-8.51h4.14l7.25 19.88h-4.7l-1.54-4.45h-6.19l-1.51 4.45h-4.7zm4.4 12.26l-2.32-7-2.38 7zm8.95 7.62V74.33H263v15.85h9.63v4zM71.67 98.33v19.88h-4.59v-8.15h-7.92v8.15h-4.6V98.33h4.59V106h7.92v-7.7zM84 114.29a3.78 3.78 0 0 0 2-.49 3.9 3.9 0 0 0 1.32-1.3 5.58 5.58 0 0 0 .71-1.86 10.84 10.84 0 0 0 .21-2.14V98.33h4.59v10.16a13.88 13.88 0 0 1-.52 3.86 8.91 8.91 0 0 1-1.6 3.14 7.47 7.47 0 0 1-2.71 2.12 9.36 9.36 0 0 1-4 .77 9.26 9.26 0 0 1-4.06-.81 7.53 7.53 0 0 1-2.73-2.17 9 9 0 0 1-1.54-3.15 14.14 14.14 0 0 1-.49-3.75V98.33h4.59v10.16a10.23 10.23 0 0 0 .22 2.18 5.77 5.77 0 0 0 .73 1.85 3.6 3.6 0 0 0 3.28 1.77zm28.08 3.92v-11.9l-4.32 8.69h-2.46l-4.3-8.69v11.9h-4.61V98.33h5l5.15 10.39 5.18-10.39h5v19.88zm13.8-19.88H130l7.25 19.88h-4.71l-1.54-4.45h-6.19l-1.51 4.45h-4.7zm4.4 12.26l-2.32-7-2.38 7zm13.55-3.75v11.37h-4.59V98.33h3.58l9.27 11.67V98.33h4.59v19.88H153zm16.66 11.37V98.33h4.59v19.88zM184 102.36h-6v15.85h-4.59v-15.85h-6.08v-4H184zm5.72-4.03h4.14l7.25 19.88h-4.7l-1.54-4.45h-6.19l-1.51 4.45h-4.7zm4.4 12.26l-2.32-7-2.38 7zm8.95 7.62V98.33h9a5.77 5.77 0 0 1 2.59.59 6.91 6.91 0 0 1 2.06 1.54 7.23 7.23 0 0 1 1.36 2.16 6.43 6.43 0 0 1 .49 2.44 7 7 0 0 1-.22 1.78 6.9 6.9 0 0 1-.64 1.61 6.09 6.09 0 0 1-2.38 2.38l4.37 7.39h-5.18l-3.81-6.41h-3v6.41zm4.59-10.42h4.2a1.73 1.73 0 0 0 1.4-.77 3.17 3.17 0 0 0 .59-2 2.78 2.78 0 0 0-.67-2 2 2 0 0 0-1.46-.73h-4.06zm14.17 10.42V98.33h4.59v19.88zm13.81-19.88h4.14l7.22 19.88h-4.7l-1.54-4.45h-6.16l-1.51 4.45h-4.7zm4.4 12.26l-2.32-7-2.38 7zm13.54-3.75v11.37H249V98.33h3.58l9.26 11.67V98.33h4.59v19.88h-3.7zm-137 15.49h4.14l7.28 19.88h-4.71l-1.54-4.45h-6.19l-1.56 4.45h-4.7zm4.4 12.26l-2.32-7-2.38 7zm13.86-12.23h4.23l2 6.36 2-6.36h4.26L144 131.6l2 5.35 5-14.62h5l-8 19.88h-3.84l-3.16-7.78-3.14 7.78H134l-7.92-19.88h5l5 14.62 2-5.35zm26.63-.03h4.14l7.25 19.88h-4.7l-1.54-4.45h-6.19l-1.51 4.45h-4.7zm4.4 12.26l-2.32-7-2.38 7zm8.95 7.62v-19.88h9a5.76 5.76 0 0 1 2.59.59 6.9 6.9 0 0 1 2.06 1.54 7.21 7.21 0 0 1 1.36 2.16 6.43 6.43 0 0 1 .49 2.44 6.93 6.93 0 0 1-.87 3.39 6.08 6.08 0 0 1-2.38 2.38l4.37 7.39h-5.18l-3.81-6.41h-3v6.41zm4.59-10.42h4.2A1.73 1.73 0 0 0 185 131a3.16 3.16 0 0 0 .59-2 2.78 2.78 0 0 0-.67-2 2 2 0 0 0-1.46-.73h-4.06zm14.17 10.42v-19.88H201a11 11 0 0 1 4.31.78 8.68 8.68 0 0 1 5 5.28 11.61 11.61 0 0 1 .63 3.85 11.42 11.42 0 0 1-.7 4.1 8.81 8.81 0 0 1-2 3.14 9 9 0 0 1-3.14 2 11.14 11.14 0 0 1-4.07.71zm12.66-10a7.69 7.69 0 0 0-.35-2.39 5.36 5.36 0 0 0-1-1.86 4.45 4.45 0 0 0-1.65-1.2 5.57 5.57 0 0 0-2.21-.42h-2.83v11.82h2.8a5.33 5.33 0 0 0 2.24-.45 4.52 4.52 0 0 0 1.64-1.25 5.65 5.65 0 0 0 1-1.88 7.59 7.59 0 0 0 .36-2.34zM102.86 58.78a5.7 5.7 0 0 1-4.16 1.79 6.58 6.58 0 0 1-2.76-.57 7 7 0 0 1-2.25-1.62 7.73 7.73 0 0 1-1.51-2.43 8.06 8.06 0 0 1-.56-3 7.57 7.57 0 0 1 2.09-5.26A7.33 7.33 0 0 1 96 46a6.9 6.9 0 0 1 2.88-.6 7 7 0 0 1 3.6.88 5.71 5.71 0 0 1 2.26 2.37l-2.16 1.6a4 4 0 0 0-1.58-1.7 4.36 4.36 0 0 0-2.21-.55 3.78 3.78 0 0 0-1.73.4 4 4 0 0 0-1.34 1.09 5.16 5.16 0 0 0-.86 1.6 5.94 5.94 0 0 0-.3 1.91 5.65 5.65 0 0 0 .34 2 5 5 0 0 0 .92 1.59 4.33 4.33 0 0 0 1.4 1.06A4 4 0 0 0 99 58a5.08 5.08 0 0 0 3.91-2v-1h-3v-2.21h5.4v7.67h-2.39zm4.87 1.68V45.55h6.59a4.24 4.24 0 0 1 1.9.43 4.93 4.93 0 0 1 1.5 1.13 5.37 5.37 0 0 1 1 1.6 4.82 4.82 0 0 1 .36 1.8 5 5 0 0 1-.72 2.64 4.16 4.16 0 0 1-2 1.71l3.4 5.61h-3.26l-3-5h-2.86v5zm2.9-7.54h3.63a1.53 1.53 0 0 0 .75-.19 1.9 1.9 0 0 0 .6-.51 2.58 2.58 0 0 0 .4-.77 3 3 0 0 0 .15-.95 2.69 2.69 0 0 0-.17-1 2.52 2.52 0 0 0-.45-.77 2.05 2.05 0 0 0-.65-.5 1.69 1.69 0 0 0-.75-.18h-3.51zm15.08-7.37h2.56l5.67 14.91h-3l-1.39-3.72h-5.21L123 60.46h-3zm3.29 9.16l-2-5.86-2.14 5.86zm9.48-3.81v9.56h-2.9V45.55h2.25l7.77 9.79v-9.77h2.9v14.89h-2.35zm13.12 9.56V45.55h5.4a8.09 8.09 0 0 1 3.2.59 6.44 6.44 0 0 1 3.69 4 8.89 8.89 0 0 1 .46 2.89 8.73 8.73 0 0 1-.51 3.08 6.59 6.59 0 0 1-1.48 2.35 6.68 6.68 0 0 1-2.32 1.51 8.2 8.2 0 0 1-3 .54zm9.85-7.46a6.37 6.37 0 0 0-.29-2 4.42 4.42 0 0 0-.86-1.55 3.84 3.84 0 0 0-1.4-1 4.72 4.72 0 0 0-1.88-.36h-2.52v9.83h2.5a4.54 4.54 0 0 0 1.9-.38 3.89 3.89 0 0 0 1.39-1 4.64 4.64 0 0 0 .85-1.56 6.29 6.29 0 0 0 .31-1.98zm10.23 7.46V45.55H178a4.24 4.24 0 0 1 1.9.43 4.92 4.92 0 0 1 1.5 1.13 5.36 5.36 0 0 1 1 1.6 4.8 4.8 0 0 1 .36 1.8 5.18 5.18 0 0 1-.34 1.84 5.11 5.11 0 0 1-.95 1.59A4.64 4.64 0 0 1 180 55a4.25 4.25 0 0 1-1.89.42h-3.53v5zm2.9-7.54h3.36a1.66 1.66 0 0 0 1.33-.65 2.69 2.69 0 0 0 .54-1.76 2.9 2.9 0 0 0-.17-1 2.49 2.49 0 0 0-.44-.77 1.75 1.75 0 0 0-.64-.47 1.88 1.88 0 0 0-.75-.16h-3.23zm10.18 7.54V45.55h6.59a4.24 4.24 0 0 1 1.9.43 4.93 4.93 0 0 1 1.5 1.13 5.37 5.37 0 0 1 1 1.6 4.82 4.82 0 0 1 .36 1.8 5 5 0 0 1-.72 2.64 4.16 4.16 0 0 1-2 1.71l3.4 5.61h-3.26l-3-5h-2.86v5zm2.9-7.54h3.63a1.53 1.53 0 0 0 .75-.19 1.9 1.9 0 0 0 .6-.51 2.58 2.58 0 0 0 .4-.77 3 3 0 0 0 .15-.95 2.69 2.69 0 0 0-.17-1 2.52 2.52 0 0 0-.45-.77 2.05 2.05 0 0 0-.65-.5 1.69 1.69 0 0 0-.75-.18h-3.51zm11.07 7.54V45.55h2.9v14.91zm5.08-2.18l8.42-10.19H204v-2.54h11.53v2.18l-8.15 10.19h8.21v2.54h-11.78zm24.44-.36v2.54H217.9V45.55h10.16v2.54h-7.26v3.59h6.28V54h-6.28v3.88zm-88.54 112.54v-14.91h6.59a4.24 4.24 0 0 1 1.9.43 4.93 4.93 0 0 1 1.5 1.13 5.37 5.37 0 0 1 1 1.6 4.82 4.82 0 0 1 .36 1.8 5 5 0 0 1-.72 2.64 4.16 4.16 0 0 1-2 1.71l3.4 5.61h-3.24l-3-5h-2.9v5zm2.9-7.54h3.63a1.53 1.53 0 0 0 .75-.19 1.9 1.9 0 0 0 .6-.51 2.58 2.58 0 0 0 .4-.77 3 3 0 0 0 .15-.95 2.69 2.69 0 0 0-.17-1 2.52 2.52 0 0 0-.45-.77 2.05 2.05 0 0 0-.65-.5 1.69 1.69 0 0 0-.75-.18h-3.52zm11.06 7.54v-14.91h2.9v14.91zm6.01 0v-14.91h10v2.54h-7.12v3.84h5.92v2.35h-5.92v6.17zm12.05 0v-14.91h10v2.54h-7.12v3.84h5.92v2.35h-5.92v6.17z"/></g></g></svg>