<svg xmlns="http://www.w3.org/2000/svg" viewBox="0 0 72.63 55"><title>settlementhome-black</title><g data-name="Layer 1-2"><path d="M21.06 0c.2 1.78 0 4 .1 5.92h30.68V0h8.11c.34 1.88-.47 4 0 6a9.7 9.7 0 0 0 1.58 2.29c2.76 3.73 5.38 7.3 8.11 10.93a29.08 29.08 0 0 1 3 4.41h-3.55c0 6.63.07 14 0 20.08H60c-.17-1.35-.3-2.69-.44-4.07.27-.17.84 0 1.24-.1-.37-2-.61-4-1-6.09-.5-2.83-1.48-5.52-.61-8.28 1.45 2.09 2.59 4.51 3.87 6.8a4.75 4.75 0 0 0 1.41-.1c-1.65-4-3.09-8.24-5.38-11.64a9.5 9.5 0 0 0-2.89-.34c-.1-2 1.78-2 3.16-1.41 0-2.42-.87-5.18-2.39-6.43a3.92 3.92 0 0 0-2.66-.71c-3 .34-4.1 4.1-4.51 7.13 1.41-.5 3.4-.67 3.26 1.41a6 6 0 0 0-2.89.44 6.3 6.3 0 0 0-1.41 2.19c-1.14 2.29-2.32 5.35-3.26 7.5-1.68-3.16-2.76-6.93-4.74-9.79a24.85 24.85 0 0 0-2.89-.44c-.54-1.11.74-1.21 1.31-1.85a3.72 3.72 0 0 0-.61-5.11c-3-2.12-8.38 1.51-5.11 5.11.44.47.67.44 1.31 1v.81a9.9 9.9 0 0 0-3 .54c-2 2.76-3.09 6.36-4.57 9.62-1-1.28-1.41-3.16-2.29-5.11-.34-.74-.77-1.58-1.24-2.46-.34-.67-.91-1.92-1.51-2.19-.84-.4-1.75-.07-2.72-.34-.37-1.14.74-1.18 1.24-1.68a4.32 4.32 0 0 0 .87-1.58 3.9 3.9 0 0 1 1.14.17c-.1-3.46-2.72-6.56-6.26-5.21-2 .74-2.86 2.69-3.36 5.11.34.27.94-.27 1.24-.1a2.47 2.47 0 0 0 .71 1.31c.5.61 1.58.74 1.41 2a19.38 19.38 0 0 0-3 .44c-2.25 3.4-3.63 7.64-5.38 11.54.24.27.84.17 1.31.17 1.41-2.19 2.56-4.68 4-6.86 1 4-1.11 7.84-1.58 11.71a6.84 6.84 0 0 0 1.51.1c-.17 2.35-.4 4.61-.71 6.8H3.53V23.65H0a35.77 35.77 0 0 1 3.09-4.51L13 5.82V0h8.06z"/><path d="M22.47 25.23A63.52 63.52 0 0 1 26.34 32a11.36 11.36 0 0 0 1.51 0c1-1.58 1.92-3.53 2.89-5.28.3-.5.64-1.18 1.14-1.41 1.18 6-.57 12.28-.87 18.43h-7.77c-.24-2.25-.44-4.51-.71-6.69.3-.17.94 0 1.41-.1-.36-3.95-2.58-7.65-1.47-11.72zm18.33 0a74.82 74.82 0 0 1 4 6.8h1.41c1.48-2.15 2.42-4.78 4.07-6.8.84 4.94-1.14 9.52-1.58 14.26.2.24.94-.07 1.14.17-.17 1.35-.24 2.76-.44 4.07h-7.79c-.23-6.16-2.25-12.58-.81-18.5zm-4.5 6.53c1 3.83 1.51 8.07 2.39 12H34c.72-4.07 1.42-8.1 2.3-12zM19 37c.37 2.29.87 4.47 1.24 6.8h-4.56c.27-2.39.87-4.41 1.14-6.8zm37.21 2.63q.45 2 .81 4.14h-4.68c.27-1.38.5-2.79.81-4.14zM5 46.22h-.19a2.55 2.55 0 0 0-.3-.61c-.13-.2-.27-.34-.4-.34a.67.67 0 0 1-.24 0H3.5v3.46a.43.43 0 0 0 0 .2.24.24 0 0 0 .2.07s.13 0 .24.07a.84.84 0 0 0 .27 0v.24H1.75v-.24a1 1 0 0 0 .27 0h.24a.34.34 0 0 0 .17-.13.43.43 0 0 0 0-.2v-3.5h-.34a.5.5 0 0 0-.24 0c-.13 0-.24.13-.4.34a1.71 1.71 0 0 0-.3.61H.91v-1.25H5zm4.32 3.16H7.43v-.24h.13a.2.2 0 0 0 .13 0l.1-.1v-1.68a.67.67 0 0 0-.13-.47.41.41 0 0 0-.34-.17.57.57 0 0 0-.24 0l-.2.1c-.07 0-.1.1-.13.13l-.1.1v1.68a.25.25 0 0 0 0 .17l.1.1h.26v.24H5.18V49h.3a.46.46 0 0 0 .13-.1v-3.59a.43.43 0 0 0 0-.2.34.34 0 0 0-.13-.17s-.1 0-.17-.07a.43.43 0 0 0-.2 0v-.24l1.55-.07v2.15l.2-.2a1.42 1.42 0 0 1 .24-.17 1.32 1.32 0 0 1 .3-.13 1.68 1.68 0 0 1 .4-.07 1 1 0 0 1 .77.3 1.13 1.13 0 0 1 .27.77v1.51a.25.25 0 0 0 0 .17A.46.46 0 0 0 9 49h.3v.3zm3.68-.77a1.32 1.32 0 0 1-.27.34 2.35 2.35 0 0 1-.34.27 1.68 1.68 0 0 1-.44.17 2.24 2.24 0 0 1-1.31-.07 1.64 1.64 0 0 1-.54-.34 1.46 1.46 0 0 1-.34-.54 2 2 0 0 1-.1-.64 1.9 1.9 0 0 1 .1-.61 1.35 1.35 0 0 1 .34-.5 2.17 2.17 0 0 1 .54-.37 1.66 1.66 0 0 1 .71-.13 2 2 0 0 1 .71.1 1.14 1.14 0 0 1 .47.3 1.41 1.41 0 0 1 .27.4 1.31 1.31 0 0 1 .07.5v.2h-2.11a1.61 1.61 0 0 0 .24 1 .89.89 0 0 0 .77.34 1 1 0 0 0 .54-.17 1.16 1.16 0 0 0 .4-.4zm-1.18-1.18a1.26 1.26 0 0 0 0-.37c0-.1 0-.24-.07-.34a.54.54 0 0 0-.13-.24.49.49 0 0 0-.24-.07.36.36 0 0 0-.37.24 1.89 1.89 0 0 0-.17.77zm4.93 2.05a2.87 2.87 0 0 1-.77-.1 2.53 2.53 0 0 1-.61-.24l-.2.2h-.27v-1.61h.27a3.07 3.07 0 0 0 .24.47 1.51 1.51 0 0 0 .34.44 1.39 1.39 0 0 0 .44.34 1 1 0 0 0 .54.13.91.91 0 0 0 .64-.2.73.73 0 0 0 .24-.54.59.59 0 0 0-.2-.44 1.68 1.68 0 0 0-.61-.3c-.17-.07-.34-.1-.47-.17a1.9 1.9 0 0 0-.4-.13 1.77 1.77 0 0 1-.67-.5 1.44 1.44 0 0 1-.2-.74 1.35 1.35 0 0 1 .1-.5 1 1 0 0 1 .34-.44 1.61 1.61 0 0 1 .54-.3 2.24 2.24 0 0 1 .71-.1 2.56 2.56 0 0 1 .71.1 3.92 3.92 0 0 1 .5.2l.2-.2h.27v1.51h-.27a3.39 3.39 0 0 0-.24-.5 5 5 0 0 0-.27-.44 2.73 2.73 0 0 0-.34-.3 1.07 1.07 0 0 0-.47-.1.71.71 0 0 0-.54.2.61.61 0 0 0-.2.47.54.54 0 0 0 .2.44 2.19 2.19 0 0 0 .57.3l.47.17a3.13 3.13 0 0 0 .44.13 1.28 1.28 0 0 1 .4 2.25 1.87 1.87 0 0 1-.57.3 1.49 1.49 0 0 1-.86.2zm5.62-.87a1.32 1.32 0 0 1-.27.34 2.35 2.35 0 0 1-.34.27 1.68 1.68 0 0 1-.44.17 2.24 2.24 0 0 1-1.32-.08 1.64 1.64 0 0 1-.54-.34 1.46 1.46 0 0 1-.34-.54 2 2 0 0 1-.1-.64 1.9 1.9 0 0 1 .1-.61 1.35 1.35 0 0 1 .34-.5 2.17 2.17 0 0 1 .54-.37 1.66 1.66 0 0 1 .71-.13 2 2 0 0 1 .71.1 1.14 1.14 0 0 1 .47.3 1.41 1.41 0 0 1 .27.4 1.31 1.31 0 0 1 .07.5v.2h-2.05a1.61 1.61 0 0 0 .24 1 .89.89 0 0 0 .77.34 1 1 0 0 0 .54-.17 1.16 1.16 0 0 0 .4-.4zm-1.18-1.18a1.26 1.26 0 0 0 0-.37c0-.1 0-.24-.07-.34a.54.54 0 0 0-.13-.24.49.49 0 0 0-.24-.07.36.36 0 0 0-.37.24 1.89 1.89 0 0 0-.17.77zM25 49.21c-.13.07-.27.1-.44.17a2.67 2.67 0 0 1-.57.07.85.85 0 0 1-.71-.24.87.87 0 0 1-.24-.67v-1.92h-.57v-.34H23v-.94h1v.94h.87v.34H24v1.72a1 1 0 0 0 .1.5.43.43 0 0 0 .37.17h.44v.24zm2.55 0c-.13.07-.27.1-.44.17a2.67 2.67 0 0 1-.57.07.85.85 0 0 1-.71-.24.87.87 0 0 1-.24-.67v-1.92H25v-.34h.57v-.94h1v.94h.87v.34h-.87v1.72a1 1 0 0 0 .1.5.43.43 0 0 0 .37.17h.44v.24zm2.12.17h-2v-.24h.3a.46.46 0 0 0 .13-.1v-3.69a.57.57 0 0 0 0-.24.34.34 0 0 0-.13-.17.29.29 0 0 0-.2-.07.67.67 0 0 0-.24 0v-.24l1.58-.07v4.17a.43.43 0 0 0 0 .2s.07.1.13.1a.2.2 0 0 0 .13 0h.17zm3.63-.77a1.32 1.32 0 0 1-.27.34 2.35 2.35 0 0 1-.34.27 1.68 1.68 0 0 1-.44.17 2.24 2.24 0 0 1-1.31-.07 1.64 1.64 0 0 1-.54-.34 1.46 1.46 0 0 1-.34-.54 2 2 0 0 1-.1-.64 1.9 1.9 0 0 1 .1-.61 1.35 1.35 0 0 1 .34-.5 2.17 2.17 0 0 1 .54-.37 1.66 1.66 0 0 1 .71-.13 2 2 0 0 1 .71.1 1.14 1.14 0 0 1 .47.3 1.41 1.41 0 0 1 .27.4 1.31 1.31 0 0 1 .07.5v.2H31a1.61 1.61 0 0 0 .24 1 .89.89 0 0 0 .77.34 1 1 0 0 0 .54-.17 1.16 1.16 0 0 0 .4-.4zm-1.18-1.18a1.26 1.26 0 0 0 0-.37c0-.1 0-.24-.07-.34a.54.54 0 0 0-.13-.24.49.49 0 0 0-.24-.07.36.36 0 0 0-.37.24 1.89 1.89 0 0 0-.17.77zm7.71 1.95H38v-.24h.13a.2.2 0 0 0 .13 0l.1-.1a1.19 1.19 0 0 0 0-.2v-1.48a.89.89 0 0 0-.1-.47.41.41 0 0 0-.34-.17.5.5 0 0 0-.24 0l-.2.1c-.07 0-.1.1-.13.13l-.1.1v1.68a.25.25 0 0 0 0 .17s0 .07.1.1a.12.12 0 0 0 .1 0h.13v.24h-1.72V49H36a.2.2 0 0 0 .13 0l.1-.1a1.19 1.19 0 0 0 0-.2v-1.37a.89.89 0 0 0-.1-.47.41.41 0 0 0-.34-.17.5.5 0 0 0-.24 0l-.2.1c-.07 0-.1.1-.13.13l-.1.1v1.68a.25.25 0 0 0 0 .17s.07.1.1.1a.12.12 0 0 0 .1 0h.13v.24h-1.81v-.24h.3a.46.46 0 0 0 .13-.1v-1.94a.48.48 0 0 0-.07-.2.26.26 0 0 0-.13-.13s-.1 0-.13-.07-.13 0-.2 0v-.24l1.48-.07v.44a1.14 1.14 0 0 0 .2-.2 1 1 0 0 1 .24-.17 1.32 1.32 0 0 1 .3-.13 1.64 1.64 0 0 1 .4 0 1.16 1.16 0 0 1 .61.17.79.79 0 0 1 .34.4 1.46 1.46 0 0 1 .24-.2c.1-.07.17-.13.24-.17a.63.63 0 0 1 .3-.13 1.68 1.68 0 0 1 .4-.07 1 1 0 0 1 .74.27 1.13 1.13 0 0 1 .27.77v1.51a.43.43 0 0 0 0 .2.46.46 0 0 0 .13.1h.3v.34zm3.63-.77a1.32 1.32 0 0 1-.27.34 2.35 2.35 0 0 1-.34.27 1.68 1.68 0 0 1-.44.17 2.24 2.24 0 0 1-1.31-.07 1.64 1.64 0 0 1-.54-.34 1.46 1.46 0 0 1-.34-.54 2 2 0 0 1-.1-.64 1.9 1.9 0 0 1 .1-.61 1.35 1.35 0 0 1 .34-.5 2.17 2.17 0 0 1 .54-.37 1.66 1.66 0 0 1 .71-.13 2 2 0 0 1 .71.1 1.14 1.14 0 0 1 .47.3 1.41 1.41 0 0 1 .27.4 1.31 1.31 0 0 1 .07.5v.2h-2.12a1.61 1.61 0 0 0 .24 1 .89.89 0 0 0 .77.34 1 1 0 0 0 .54-.17 1.16 1.16 0 0 0 .4-.4zm-1.18-1.18a1.26 1.26 0 0 0 0-.37c0-.1 0-.24-.07-.34a.54.54 0 0 0-.13-.24.49.49 0 0 0-.24-.07.36.36 0 0 0-.37.24 1.89 1.89 0 0 0-.17.77zm5.59 1.95H46v-.24h.13a.2.2 0 0 0 .13 0l.1-.1v-1.68a.89.89 0 0 0-.1-.47.41.41 0 0 0-.34-.17.57.57 0 0 0-.24 0l-.2.1c-.07 0-.1.1-.13.13l-.1.1v1.68a.25.25 0 0 0 0 .17s.07.1.1.1h.26v.24H43.8V49a.3.3 0 0 0 .17 0h.13a.46.46 0 0 0 .13-.1v-1.97a.43.43 0 0 0 0-.2.59.59 0 0 0-.13-.17s-.1 0-.13-.07-.13 0-.2 0v-.24l1.48-.07v.44a1.14 1.14 0 0 0 .2-.2 1 1 0 0 1 .24-.17 1.32 1.32 0 0 1 .3-.13 1.68 1.68 0 0 1 .4-.07 1 1 0 0 1 .77.3 1.13 1.13 0 0 1 .27.77v1.51a.25.25 0 0 0 0 .17.46.46 0 0 0 .13.1h.3v.4zm2.62-.17c-.13.07-.27.1-.44.17a2.67 2.67 0 0 1-.57.07.85.85 0 0 1-.71-.24.87.87 0 0 1-.24-.67v-1.92H48v-.34h.57v-.94h1v.94h.87v.34h-.87v1.72a1 1 0 0 0 .1.5.43.43 0 0 0 .33.16h.44v.24zm7.27.17h-2.39v-.24a.67.67 0 0 0 .24 0 .59.59 0 0 1 .2 0 .34.34 0 0 0 .17-.13.36.36 0 0 0 0-.2v-1.58h-1.85v1.48a.43.43 0 0 0 0 .2.24.24 0 0 0 .17.13l.2.07a.67.67 0 0 0 .24 0v.24h-2.36v-.24a.67.67 0 0 0 .24 0h.24a.34.34 0 0 0 .17-.13.43.43 0 0 0 0-.2v-3.17a.25.25 0 0 0 0-.17.36.36 0 0 0-.17-.13.49.49 0 0 0-.24-.07.59.59 0 0 0-.2 0V45h2.38v.24a.67.67 0 0 0-.24 0h-.2a.34.34 0 0 0-.17.13.43.43 0 0 0 0 .2v1.31H56v-1.23a.25.25 0 0 0 0-.17.36.36 0 0 0-.17-.13c-.07 0-.13 0-.2-.07a.59.59 0 0 0-.2 0V45h2.39v.24a.67.67 0 0 0-.24 0 .62.62 0 0 0-.24.07.34.34 0 0 0-.17.13.43.43 0 0 0 0 .2v3.13a.43.43 0 0 0 0 .2.24.24 0 0 0 .17.13s.13 0 .2.07a.57.57 0 0 0 .24 0v.13zm3.6-2.76a1 1 0 0 1 .34.5 2 2 0 0 1 .13.64 1.37 1.37 0 0 1-.13.64 1.81 1.81 0 0 1-.34.54 2.08 2.08 0 0 1-.57.37 2.87 2.87 0 0 1-.77.13 2.39 2.39 0 0 1-.71-.1 1.43 1.43 0 0 1-.57-.34 1.41 1.41 0 0 1-.37-.5 1.75 1.75 0 0 1 0-1.35 1.41 1.41 0 0 1 .37-.5 1.61 1.61 0 0 1 .57-.34 2.65 2.65 0 0 1 .77-.13 1.87 1.87 0 0 1 .77.13 2 2 0 0 1 .51.31zm-.81 2.19a4.37 4.37 0 0 0 .1-.44 3.08 3.08 0 0 0 0-.57 3 3 0 0 0-.13-.94.67.67 0 0 0-.2-.3.59.59 0 0 0-.71 0 .61.61 0 0 0-.2.3l-.1.4v.5a2.9 2.9 0 0 0 0 .57 1 1 0 0 0 .1.44.49.49 0 0 0 .2.3.61.61 0 0 0 .67 0 .43.43 0 0 0 .27-.26zm7.87.57h-1.85v-.24h.13a.2.2 0 0 0 .13 0l.1-.1a1.19 1.19 0 0 0 0-.2v-1.48a.89.89 0 0 0-.1-.47.37.37 0 0 0-.34-.17.5.5 0 0 0-.24 0l-.2.1c-.07 0-.1.1-.13.13l-.1.1v1.68a.25.25 0 0 0 0 .17s0 .07.1.1a.12.12 0 0 0 .1 0h.13v.24h-1.7V49h.26l.1-.1v-1.57a.89.89 0 0 0-.1-.47.37.37 0 0 0-.34-.17.5.5 0 0 0-.24 0l-.2.1c-.07 0-.1.1-.13.13l-.1.1v1.68a.25.25 0 0 0 0 .17s.07.1.1.1a.12.12 0 0 0 .1 0h.13v.24h-1.8v-.24h.3a.46.46 0 0 0 .13-.1v-1.94a.48.48 0 0 0-.07-.2.26.26 0 0 0-.13-.13s-.1 0-.13-.07-.13 0-.2 0v-.24l1.48-.07v.44a1.14 1.14 0 0 0 .2-.2 1 1 0 0 1 .24-.17 1.32 1.32 0 0 1 .3-.13 1.64 1.64 0 0 1 .4 0 1.16 1.16 0 0 1 .61.17.79.79 0 0 1 .34.4 1.46 1.46 0 0 1 .24-.2c.1-.07.17-.13.24-.17a.63.63 0 0 1 .3-.13 1.68 1.68 0 0 1 .4-.07 1 1 0 0 1 .74.27 1.08 1.08 0 0 1 .27.77v1.51a.43.43 0 0 0 0 .2.46.46 0 0 0 .13.1h.3v.34zm3.67-.77a1.32 1.32 0 0 1-.27.34 2.35 2.35 0 0 1-.34.27 1.68 1.68 0 0 1-.44.17 2.24 2.24 0 0 1-1.31-.07 1.64 1.64 0 0 1-.53-.32 1.46 1.46 0 0 1-.34-.54 2 2 0 0 1-.1-.64 1.9 1.9 0 0 1 .1-.61 1.35 1.35 0 0 1 .34-.5 2.17 2.17 0 0 1 .54-.37 1.66 1.66 0 0 1 .71-.13 2 2 0 0 1 .71.1 1.14 1.14 0 0 1 .47.3 1.41 1.41 0 0 1 .27.4 1.31 1.31 0 0 1 .07.5v.2h-2.14a1.61 1.61 0 0 0 .24 1 .89.89 0 0 0 .77.34 1 1 0 0 0 .54-.17 1.16 1.16 0 0 0 .4-.4zm-1.21-1.18a1.26 1.26 0 0 0 0-.37c0-.1 0-.24-.07-.34a.54.54 0 0 0-.13-.24.28.28 0 0 0-.24-.07.36.36 0 0 0-.37.24 1.89 1.89 0 0 0-.17.77zm-51.81 3.13a.3.3 0 0 1 0 .17c0 .07 0 .1-.07.17l-.13.13a.5.5 0 0 1-.24 0 .56.56 0 0 1-.4-.17 1.74 1.74 0 0 1-.3-.57.62.62 0 0 0-.2.27 3.06 3.06 0 0 0-.07.94v.24h.87v.34h-.84v2.15a.48.48 0 0 0 .07.2c0 .07.1.07.13.1h.4v.24h-2.14v-.24h.3a.46.46 0 0 0 .13-.1v-2.32H16v-.34h.64a2 2 0 0 1 .1-.64 1.87 1.87 0 0 1 .3-.57 1.49 1.49 0 0 1 .5-.4 1.71 1.71 0 0 1 .74-.13 1 1 0 0 1 .61.13.48.48 0 0 1 .18.4zm2.76 1.58a1 1 0 0 1 .34.5 2 2 0 0 1 .13.64 1.37 1.37 0 0 1-.13.64 1.81 1.81 0 0 1-.34.54 2.08 2.08 0 0 1-.57.37 2.87 2.87 0 0 1-.77.13 2.39 2.39 0 0 1-.71-.1 1.43 1.43 0 0 1-.57-.34 1.41 1.41 0 0 1-.37-.5 1.75 1.75 0 0 1 0-1.35 1.1 1.1 0 0 1 .37-.5 1.61 1.61 0 0 1 .57-.34 2.65 2.65 0 0 1 .77-.13 1.87 1.87 0 0 1 .77.13 1 1 0 0 1 .51.31zM21 54.29a4.37 4.37 0 0 0 .1-.44 3.08 3.08 0 0 0 0-.57 3 3 0 0 0-.13-.94.67.67 0 0 0-.2-.3.57.57 0 0 0-.34-.1.5.5 0 0 0-.37.13.61.61 0 0 0-.2.3l-.1.4v.5a2.9 2.9 0 0 0 0 .57 1 1 0 0 0 .1.44.49.49 0 0 0 .2.3.61.61 0 0 0 .67 0 .43.43 0 0 0 .27-.29zm4.8-1.95a.53.53 0 0 1-.13.4.45.45 0 0 1-.4.17.61.61 0 0 1-.37-.1.41.41 0 0 1-.17-.34v-.27a.54.54 0 0 0-.3.1.91.91 0 0 0-.27.24v1.72a.25.25 0 0 0 0 .17s.07.1.1.1l.24.07a.66.66 0 0 0 .24 0v.24h-2.03v-.24a.3.3 0 0 0 .17 0h.13a.46.46 0 0 0 .13-.1v-2.06a.48.48 0 0 0-.07-.2.26.26 0 0 0-.13-.13s-.1 0-.13-.07-.13 0-.2 0v-.24l1.48-.07v.44a1.77 1.77 0 0 1 .47-.4 1 1 0 0 1 .5-.13.73.73 0 0 1 .47.17.67.67 0 0 1 .27.53zM30 55a2.57 2.57 0 0 1-.91-.17 2.14 2.14 0 0 1-.74-.47 1.87 1.87 0 0 1-.47-.74 2.23 2.23 0 0 1-.17-.94 2.76 2.76 0 0 1 .17-.94 3.07 3.07 0 0 1 .5-.77 2.57 2.57 0 0 1 .77-.5 2.92 2.92 0 0 1 .94-.17 2.17 2.17 0 0 1 .67.1 3.92 3.92 0 0 1 .5.2l.2-.17h.27v1.61h-.27a2.66 2.66 0 0 0-.57-1.08 1 1 0 0 0-.81-.34.94.94 0 0 0-.87.5 2.89 2.89 0 0 0-.3 1.45 3.75 3.75 0 0 0 .1.91 2 2 0 0 0 .27.61 1 1 0 0 0 .44.34 1.4 1.4 0 0 0 .54.1 1.24 1.24 0 0 0 .77-.24 2.1 2.1 0 0 0 .61-.71l.27.17-.3.5a1.43 1.43 0 0 1-.4.37 2.69 2.69 0 0 1-.54.27A2.24 2.24 0 0 1 30 55zm6.3-.13h-1.89v-.24h.13a.2.2 0 0 0 .13 0l.1-.1v-1.68a.67.67 0 0 0-.13-.47.41.41 0 0 0-.34-.17.57.57 0 0 0-.24 0l-.2.1c-.07 0-.1.1-.13.13l-.1.1v1.68a.25.25 0 0 0 0 .17l.1.1h.26v.24h-1.83v-.13h.3a.46.46 0 0 0 .13-.1v-3.7a.43.43 0 0 0 0-.2.34.34 0 0 0-.13-.17s-.1 0-.17-.07a.43.43 0 0 0-.2 0v-.24l1.55-.12v2.15l.2-.2a1.42 1.42 0 0 1 .24-.17 1.32 1.32 0 0 1 .3-.13 1.68 1.68 0 0 1 .4-.07 1 1 0 0 1 .77.3 1.13 1.13 0 0 1 .27.77v1.51a.25.25 0 0 0 0 .17.46.46 0 0 0 .13.1h.3v.3zm2.25 0h-2v-.24h.3a.46.46 0 0 0 .13-.1v-2.05a.43.43 0 0 0 0-.2.26.26 0 0 0-.13-.13s-.1 0-.17-.07a.43.43 0 0 0-.2 0v-.28l1.52-.06v2.49a.43.43 0 0 0 0 .2c0 .07.07.1.13.1a.2.2 0 0 0 .13 0h.17v.24zm-.47-4.27a.56.56 0 0 1-.17.4.65.65 0 0 1-.91 0 .45.45 0 0 1-.17-.4.56.56 0 0 1 .17-.4.65.65 0 0 1 .87 0 .56.56 0 0 1 .17.4zm2.66 4.27h-2v-.24h.39a.46.46 0 0 0 .13-.1v-3.7a.57.57 0 0 0 0-.24.34.34 0 0 0-.13-.17.29.29 0 0 0-.2-.07.67.67 0 0 0-.24 0v-.24l1.54-.11v4.17a.43.43 0 0 0 0 .2s.07.1.13.1a.2.2 0 0 0 .13 0h.17v.27zm4.34-.07l-1.55.1v-.3a2.1 2.1 0 0 1-.4.3 1.41 1.41 0 0 1-.54.13 1.38 1.38 0 0 1-1-.47 1.76 1.76 0 0 1-.4-1.21 1.66 1.66 0 0 1 .47-1.14 1.41 1.41 0 0 1 1.11-.47 2 2 0 0 1 .47.07 1.2 1.2 0 0 1 .37.13v-1a.43.43 0 0 0 0-.2.34.34 0 0 0-.13-.17l-.24-.1a.93.93 0 0 0-.3 0v-.3l1.53-.17v4.1a.43.43 0 0 0 0 .2.26.26 0 0 0 .13.13h.4zm-1.61-.57v-1.75a.57.57 0 0 0-.07-.17c0-.07-.07-.1-.1-.17a.74.74 0 0 0-.17-.1.5.5 0 0 0-.24 0 .57.57 0 0 0-.5.34 2.81 2.81 0 0 0-.17 1.48 1.2 1.2 0 0 0 .13.37.91.91 0 0 0 .24.27.57.57 0 0 0 .34.1.67.67 0 0 0 .3-.07c.1-.17.16-.2.23-.3zm4.9-1.89a.53.53 0 0 1-.13.4.45.45 0 0 1-.4.17.61.61 0 0 1-.37-.1.41.41 0 0 1-.17-.34v-.27a.54.54 0 0 0-.3.1.91.91 0 0 0-.27.24v1.72a.25.25 0 0 0 0 .17s.07.1.1.1l.24.07a.66.66 0 0 0 .24 0v.24h-2.03v-.24a.3.3 0 0 0 .17 0h.13a.46.46 0 0 0 .13-.1v-2.06a.48.48 0 0 0-.07-.2.26.26 0 0 0-.13-.13s-.1 0-.13-.07-.13 0-.2 0v-.24l1.48-.07v.44a1.77 1.77 0 0 1 .47-.4 1 1 0 0 1 .5-.13.73.73 0 0 1 .47.17.82.82 0 0 1 .27.53zm3.57 1.75a1.32 1.32 0 0 1-.27.34 2.35 2.35 0 0 1-.34.27 1.68 1.68 0 0 1-.44.17 2.24 2.24 0 0 1-1.31-.07 1.64 1.64 0 0 1-.54-.34 1.46 1.46 0 0 1-.34-.54 2 2 0 0 1-.1-.64 1.9 1.9 0 0 1 .1-.61 1.35 1.35 0 0 1 .34-.5 2.17 2.17 0 0 1 .54-.37 1.66 1.66 0 0 1 .71-.13 2 2 0 0 1 .71.1 1.14 1.14 0 0 1 .47.3 1.41 1.41 0 0 1 .27.4 1.31 1.31 0 0 1 .07.5v.2h-2.12a1.61 1.61 0 0 0 .24 1 .89.89 0 0 0 .77.34 1 1 0 0 0 .54-.17 1.16 1.16 0 0 0 .4-.4zm-1.18-1.18a1.26 1.26 0 0 0 0-.37c0-.1 0-.24-.07-.34a.54.54 0 0 0-.13-.24.49.49 0 0 0-.24-.07.36.36 0 0 0-.37.24 1.89 1.89 0 0 0-.17.77zm5.62 1.96H54.5v-.24h.13a.2.2 0 0 0 .13 0l.1-.1v-1.68a.89.89 0 0 0-.1-.47.41.41 0 0 0-.34-.17.57.57 0 0 0-.24 0l-.2.1c-.07 0-.1.1-.13.13l-.1.1v1.68a.25.25 0 0 0 0 .17s.07.1.1.1h.26v.24h-1.8v-.13a.3.3 0 0 0 .17 0h.13a.46.46 0 0 0 .13-.1v-2.09a.43.43 0 0 0 0-.2.59.59 0 0 0-.13-.17s-.1 0-.13-.07-.13 0-.2 0v-.27l1.48-.07v.44a1.14 1.14 0 0 0 .2-.2 1 1 0 0 1 .24-.17 1.32 1.32 0 0 1 .3-.13 1.68 1.68 0 0 1 .4-.07 1 1 0 0 1 .77.3 1.13 1.13 0 0 1 .27.77v1.51a.25.25 0 0 0 0 .17.46.46 0 0 0 .13.1h.3v.4z"/></g></svg>