<svg xmlns="http://www.w3.org/2000/svg" viewBox="0 0 321.41 208"><defs><style>.cls-1{fill:#ef5035}</style></defs><title>spiritquest-laurel-red_1</title><g id="Layer_2" data-name="Layer 2"><g id="Layer_1-2" data-name="Layer 1"><path class="cls-1" d="M247.34 13.81c-3-4.06-4.73-8.35-2.69-13.45 4.93 1.3 8.31 4.74 8 9.87-.4 5.84 2.87 7.71 7.25 9.21.22.08.53-.09.8-.15-1.56-7.93-1.48-8.8 1.18-12.94 4.9 2.63 7 7 5.78 12.07-1.13 4.93 1 7.36 4.79 9.37.5.27.94.66 2 1.38-1-5.13-.83-9.63 2.4-13.43 5.53 2.73 6.19 6.86 3 18.14.71.78 1.54 1.6 2.26 2.5a15.1 15.1 0 0 0 3.08 3.32c1-5 1.78-9.52 6.42-12.73 2.83 4.21 4.18 8.9 1.65 12.88-3.36 5.28-1.46 9 1.6 13a4.91 4.91 0 0 0 .56.47c.68-5.19 2.84-9.34 7.74-12 2.42 3.53 2.25 7.13 1 10.62a19.23 19.23 0 0 1-3.57 6 4 4 0 0 0-.82 4.77c.82 1.86 1.6 3.73 2.72 6.36 1.25-6 4.37-9.52 9.33-11.46 2.53 5.06 2.08 10-2.77 13.82-4.58 3.61-4.5 7.24-2.35 12.23 2.88-4.29 6.18-7.79 11.66-8.48 1.39 4.36.07 7.93-2.71 11a16.33 16.33 0 0 1-4.8 3.8c-2.93 1.41-3.84 3.36-2.91 6.38a27.79 27.79 0 0 1 .54 3.08 16.89 16.89 0 0 1 12.85-5.94 12.64 12.64 0 0 1 0 3.25 14 14 0 0 1-9.66 10.07c-3.08.93-4.46 2.35-4.31 5.51a23.94 23.94 0 0 1-.71 4.27c4.3-4.47 9-5.59 14.51-4.79a10.31 10.31 0 0 1-5.2 8.89 26.51 26.51 0 0 1-6.47 2.71c-5.18 1.47-5.21 1.37-5.78 7 9-2.52 9.41-2.54 14.8-.44a15.07 15.07 0 0 1-8.13 8c-1.62.64-3.48 1.34-5.11 1.13-5.43-.72-7.65 2.25-8.81 6.86 7.11-2.28 9.57-2.12 15.47 1.22-2.06 4.42-5.94 6.15-10.29 7a22.13 22.13 0 0 1-6.16 0c-4.93-.48-5.44-.24-7.83 5a19.32 19.32 0 0 1 15.07 4c-6.7 7.66-14.26 5.74-22.13 2.73l-5.11 4.75a65.79 65.79 0 0 1 8.32 1.94c2.56.94 5.07 2.28 6.59 5.16-5.21 4.45-10.77 4.13-16.56 1.89a17.34 17.34 0 0 1-2-.93c-4.34-2.35-4.34-2.36-8.76 1.49 5.35 1.7 10.06 4.13 13.39 9.58-3.94 2-7.69 3.23-11.81 1.67-2.32-.88-4.9-1.81-6.56-3.5-3.27-3.32-6.3-3.09-10.06-.39 5.38 2.23 9.53 5.59 11.66 11-6.67 3.89-13 1.35-21.55-8.5-13.69 2.54-26.22 7.78-36.86 18l-3.17-3c3.06-4.35 7.1-6.9 11.3-8.85a172.52 172.52 0 0 1 20.85-8.27c3.56-1.12 5.13-2.76 5.43-6.23.51-5.82 3.22-10.31 8.46-13.1a17 17 0 0 1 2.37-.86c2.87 4.55 2 9.42-2.65 16.65 5.89-1.12 6.21-1.24 5.88-6.88-.35-6 1.39-11 6.17-14.79a8 8 0 0 1 1.48-.91 2.29 2.29 0 0 1 .86-.05c3.19 5.16 3.15 9.08-.4 17 1.07-.63 1.79-1 2.48-1.47 3.72-2.37 3.76-2.39 2.59-6.61a15.72 15.72 0 0 1 2.07-14.01 36.25 36.25 0 0 1 3.42-3.65 17 17 0 0 1 3.2 15c4.3-1.12 5-2.27 3.37-6.17-2.26-5.56-3.06-11.05.43-16.44.39-.6.91-1.11 1.71-2.08 4.42 3.89 5.77 8.72 5.65 14.23 4.37-2.63 4.73-3.75 2.25-7.5-3.26-4.93-4.83-10.06-2.26-15.79a22.45 22.45 0 0 1 1.54-2.38c4.46 3.83 7.41 8 7.38 15l3.94-6.66c-5.51-5.6-10.63-11.15-6.83-20.25 5.61 2.57 8.91 6.59 10 13.24.47-1.29.69-1.9.91-2.5 1.75-4.62 1.75-4.61-2.15-7.95-3.41-2.93-6.48-6.09-6.51-11a37.11 37.11 0 0 1 .43-4.15c5.69 1.33 8.08 3.42 12 10.16.22-1 .43-1.79.6-2.62 1-4.52 1-4.56-3.22-6.67-4.89-2.45-8.33-6-9.08-11.64a5 5 0 0 1 0-1.31 6.26 6.26 0 0 1 .68-1.3 17.41 17.41 0 0 1 13.07 8.29v-2.53c0-5.31 0-5.28-4.94-7.06-5.41-1.93-9.57-5-10.49-11.88 5.83-.45 10.5.91 14.39 6.65-.24-1.84-.33-2.71-.47-3.57-.16-1-.33-2-.54-3a3.36 3.36 0 0 0-3.25-3 37.34 37.34 0 0 1-6-1.23c-4-1.12-6.45-3.8-7.73-8.14 3.58-2.14 5.69-1.92 13.79 1.6-.47-1.62-.82-3-1.26-4.33a3.58 3.58 0 0 0-4-2.7 35.52 35.52 0 0 1-4.85 0c-4.75-.35-8.05-2.86-10.72-7.13 5.5-2.85 10.34-2.44 15.84 1.52l-5.24-9.08c-7 2.64-13.54 3.76-18.92-3.34 5.08-3.38 9.86-4.41 15.37-1.57l-6.29-7.3c-9.85 4.52-14.39 4.45-19.21-.41a16.6 16.6 0 0 1 13.21-4.67l-6.2-5.19c-5.79 3.75-11.41 8.13-18.45 3.07 3.19-4.76 6.26-6.23 13.15-6.29-1.09-.76-1.88-1.39-2.75-1.9-5.07-3-5.08-2.95-9.62 1-4.27 3.69-8.38 4.39-13.21 2 2.41-5.06 6.41-7.6 12.38-7.87l-2-2.34zm-173-.02l-2 2.33c5.94.31 9.94 2.83 12.47 8.05a9.82 9.82 0 0 1-8.82.59 16.48 16.48 0 0 1-3.81-2.17c-1.76-1.24-3.56-3.87-5.09-3.69-2.7.31-5.21 2.28-7.68 3.79 6.43.31 8.37 1.17 12.72 5.85-3.81 4.52-7.3 4.15-18.27-2.18l-6.26 4.82c5.27 0 9.59 1.25 13.22 4.81-4.2 4.86-9.73 5-19.11.4l-6.39 7.32c5.46-2.76 10.27-1.88 15 1.31-3.1 5.89-8.06 6.93-18.48 3.72l-5.32 9c5.49-3.94 10.35-4.43 15.8-1.55-2.38 4.17-5.62 6.52-10.1 7.12a20.56 20.56 0 0 1-2.64.07c-6.33 0-6.58.25-7.72 7.14 4.27-2.5 8.52-4.21 13.73-2.23a10.86 10.86 0 0 1-7.45 8.45 19.56 19.56 0 0 1-5.58 1.2c-2.94.16-4.16 1.69-4.47 4.4-.17 1.44-.5 2.87-.93 5.18a16 16 0 0 1 14.28-6.58c.11 5-2.65 7.86-6.07 10.27a12.69 12.69 0 0 1-2.79 1.31c-6.59 2.52-6.59 2.51-6.09 10a62.5 62.5 0 0 1 5.76-5.66 12.22 12.22 0 0 1 7.71-2.44c0 4.47-.94 8.14-4.21 10.86a30.39 30.39 0 0 1-5.14 3.38c-3.74 2-3.83 2-3 6 .2 1 .45 2 .68 3 1.55-2.12 2.82-4.44 4.65-6.19s4.22-2.93 6.8-4.66c2 4.84.9 8.49-1.46 11.8a27.5 27.5 0 0 1-4.68 4.65c-3.28 2.79-3.32 2.74-1.9 6.55.35.93.72 1.84 1.29 3.3a16.17 16.17 0 0 1 9.45-12.93c4.27 7 1.39 12.11-6.24 20.12l3.68 6.47c.2-6.53 2.9-10.88 7.22-14.75 3.58 3.54 3.51 7.6 2.66 11.61a19.74 19.74 0 0 1-2.79 5.93c-2.48 4-2.52 4.33.79 7.87.39.41.85.76 1.79 1.59-1.38-6.44.55-11.26 5-15.92 3 3.82 4.76 7.52 4 12a36.19 36.19 0 0 1-1.75 6.37c-1.58 4.39-1.54 4.59 3.35 7a17.1 17.1 0 0 1 2.73-15c5.55 3.45 7.68 9.11 6.24 15.86-1.22 5.75-1.22 5.75 5.12 9.47-3.71-6.1-4.11-11.64-.73-17.67 4.46 2.92 7.67 6.26 8.29 11.5a36.85 36.85 0 0 1 .11 4.41c0 5.73 0 5.73 6.31 7.69-3.79-5.37-5.85-10.7-3.52-17.25a15.4 15.4 0 0 1 10.3 9.15 5.36 5.36 0 0 1 .6 2.11c-.17 6.52 3.64 8.75 9.44 10.18a66.27 66.27 0 0 1 23 10.78c1.88 1.36 3.56 3 5.77 4.84l-3.25 3.46a69.34 69.34 0 0 0-37-17.89c-9.07 9.92-14.65 12.17-21.65 8.48a19.59 19.59 0 0 1 11.39-10.77c-4.42-3.39-4.78-3.35-9.22-.12-5 3.61-10.26 5.83-16.46 3.28a22.37 22.37 0 0 1-2.18-1.23c2.85-5.37 7.55-7.78 12.9-9.35-3.47-4.09-4-4.14-8.22-1.89-6.24 3.33-12.46 4.11-18.53-.48 2.28-4.51 7.89-7.16 15.07-7.55a37.83 37.83 0 0 1-3.73-3c-1.32-1.35-2.51-1.44-4.31-.83a31.55 31.55 0 0 1-8.11 1.71c-4.84.29-7.33-1-11.46-5.22a17.45 17.45 0 0 1 14.77-3.82c-1.52-4.83-2.9-5.75-7-5.21-4.94.66-9.74.36-13.84-2.9a43.72 43.72 0 0 1-3.68-3.78c5.4-3.42 10.38-4 16.33-.8-.81-1.79-1.39-2.89-1.81-4-.94-2.61-2.75-3.46-5.46-3.34A15.39 15.39 0 0 1 4.21 132a11.79 11.79 0 0 1-.86-2.11c5.15-2.56 9.85-1.11 14.54.87-.18-5.71-.21-5.72-5.48-7.28-4.28-1.26-8.52-2.63-10.64-7.1-.61-1.28-1-2.66-1.65-4.44C6 111 10.75 112 15 116.39c-.36-2.5-.67-4.49-.92-6.5-.28-2.33-2.27-2.48-3.87-3a14.42 14.42 0 0 1-9.32-8.7A25.12 25.12 0 0 1 0 94.06c5.11-.72 8.34.63 13 5.38.27-1.24.44-2.3.74-3.32.86-2.86-.12-4.64-2.8-6a14.12 14.12 0 0 1-7.83-9.6 30.84 30.84 0 0 1-.3-5.13c5.45.63 8 2.4 12.3 8.64.61-2.86 1.37-5.17 1.46-7.5 0-1-1.19-2.21-2.1-3-2.91-2.6-5.58-5.36-5.93-9.46a45.58 45.58 0 0 1 .36-6.45c6 2.08 8 4.23 10.39 11.12a28.08 28.08 0 0 1 1.49-3.4c2-3.28 1.7-6-.89-9.07-3.65-4.33-4.39-9.36-1.45-15.19 4.55 3.09 7.29 6.72 7.64 12.84l4.2-6.49c1.24-1.91-.11-3.39-.93-4.87a14.24 14.24 0 0 1-.75-13.14 11.78 11.78 0 0 1 1.44-2.05c4 2.76 5.17 5.08 5.88 12.69a74.64 74.64 0 0 0 5.31-5.48c.46-.58.21-1.88 0-2.8-.4-2.16-1.17-4.27-1.4-6.44-.42-4 .91-6.77 4.61-9.8 3.5 3.8 4 8.16 2.43 14a78.87 78.87 0 0 0 6.38-4.88 4.6 4.6 0 0 0 1-3c0-1.74-.4-3.5-.4-5.25 0-4.9 1.33-7 6.09-10 3 4.1 2.31 8.47.59 13.57 1.91-.84 3.16-1.49 4.46-1.95 2.88-1 4-2.85 3.84-6-.28-5.49 2.16-9.54 7.62-12 3 5.39.83 9.66-2.2 13.81z"/><path class="cls-1" d="M111.9 76.26a4.59 4.59 0 0 0-1-.69 18.11 18.11 0 0 0-2.07-1.06 20.12 20.12 0 0 0-2.71-1 10.84 10.84 0 0 0-2.94-.41q-4 0-4 2.71a2.15 2.15 0 0 0 .44 1.38 3.84 3.84 0 0 0 1.29 1A11.85 11.85 0 0 0 103 79l3 .83a39.22 39.22 0 0 1 4.23 1.4 11.36 11.36 0 0 1 3.2 1.89 7.64 7.64 0 0 1 2 2.74 9.5 9.5 0 0 1 .71 3.86 9.67 9.67 0 0 1-1 4.67 8.72 8.72 0 0 1-2.74 3.08 11.55 11.55 0 0 1-3.91 1.7 19.48 19.48 0 0 1-4.55.53 25.4 25.4 0 0 1-3.68-.28 26.5 26.5 0 0 1-3.68-.8 29.23 29.23 0 0 1-3.47-1.27A19.38 19.38 0 0 1 90 95.67l3.31-6.58a6.42 6.42 0 0 0 1.2.87A17.82 17.82 0 0 0 97 91.25a25.41 25.41 0 0 0 3.33 1.15 14 14 0 0 0 3.73.51q4 0 4-2.44a2.06 2.06 0 0 0-.6-1.52 5.65 5.65 0 0 0-1.66-1.08 18 18 0 0 0-2.51-.9l-3.15-.92a27.23 27.23 0 0 1-3.91-1.5 10.32 10.32 0 0 1-2.74-1.86 6.77 6.77 0 0 1-1.61-2.44 9 9 0 0 1-.49-3.25 10.26 10.26 0 0 1 1-4.55 9.84 9.84 0 0 1 2.61-3.3 11.42 11.42 0 0 1 3.84-2 15.26 15.26 0 0 1 4.62-.69 17.59 17.59 0 0 1 3.36.32 25.45 25.45 0 0 1 3.17.83 22.8 22.8 0 0 1 2.83 1.15q1.31.65 2.42 1.29zm8.7 23.09V66.69h13.94a9.58 9.58 0 0 1 4.3 1 11 11 0 0 1 3.36 2.53 12.11 12.11 0 0 1 2.21 3.54 10.53 10.53 0 0 1 .8 4 11.46 11.46 0 0 1-.76 4.14 11.82 11.82 0 0 1-2.12 3.54A10 10 0 0 1 139 87.9a9.82 9.82 0 0 1-4.28.92h-6.62v10.53zm7.54-17.11h6.16a2.91 2.91 0 0 0 2.3-1.15 5.09 5.09 0 0 0 1-3.36 5.87 5.87 0 0 0-.3-2 4.09 4.09 0 0 0-.81-1.38 3.1 3.1 0 0 0-1.15-.81 3.52 3.52 0 0 0-1.29-.25h-5.89zm21.11 17.11V66.69h7.54v32.66zm13.8 0V66.69h14.72a9.48 9.48 0 0 1 4.25 1 11.33 11.33 0 0 1 3.38 2.53 11.84 11.84 0 0 1 2.23 3.54 10.53 10.53 0 0 1 .81 4 11.39 11.39 0 0 1-1.44 5.53 10 10 0 0 1-3.91 3.91l7.18 12.14h-8.51l-6.26-10.53h-4.9v10.54zm7.54-17.11h6.9A2.84 2.84 0 0 0 179.8 81a5.2 5.2 0 0 0 1-3.24 4.56 4.56 0 0 0-1.1-3.22 3.24 3.24 0 0 0-2.39-1.2h-6.71zm23.28 17.11V66.69h7.54v32.66zm38.69-26.04h-9.94v26h-7.54v-26h-10v-6.62h27.46zm-122.41 68.2a17.17 17.17 0 0 1-3.75 1.49 15.77 15.77 0 0 1-4.21.55 15.39 15.39 0 0 1-6.62-1.4 16 16 0 0 1-5.11-3.73 17.07 17.07 0 0 1-3.29-5.31A16.73 16.73 0 0 1 86 127a16.3 16.3 0 0 1 1.22-6.21 16.83 16.83 0 0 1 3.4-5.29 16.42 16.42 0 0 1 5.17-3.66 15.63 15.63 0 0 1 6.53-1.36 15 15 0 0 1 6.62 1.45 16.45 16.45 0 0 1 5.11 3.79 17 17 0 0 1 3.27 5.34 16.82 16.82 0 0 1 1.15 6.07 16.54 16.54 0 0 1-4.23 11.09l4.69 5.15h-7.08zm-7.91-4.65a8 8 0 0 0 3.22-.6l-5.24-5.8h7.08l2 2.25a10.86 10.86 0 0 0 1.1-2.76 12.36 12.36 0 0 0-.18-6.65 9.28 9.28 0 0 0-1.66-3.13 8.5 8.5 0 0 0-2.66-2.17 8.59 8.59 0 0 0-7.41 0 8.26 8.26 0 0 0-2.67 2.25 9.68 9.68 0 0 0-1.61 3.17 12.53 12.53 0 0 0-.53 3.61 12.18 12.18 0 0 0 .55 3.66 9.48 9.48 0 0 0 1.63 3.13 8.16 8.16 0 0 0 2.7 2.18 7.94 7.94 0 0 0 3.68.86zm34.59.05a6.21 6.21 0 0 0 3.27-.81 6.41 6.41 0 0 0 2.16-2.14 9.14 9.14 0 0 0 1.17-3.06 17.87 17.87 0 0 0 .35-3.52v-16.7h7.54v16.7a22.8 22.8 0 0 1-.85 6.35 14.64 14.64 0 0 1-2.62 5.15 12.28 12.28 0 0 1-4.51 3.47 15.39 15.39 0 0 1-6.51 1.26 15.21 15.21 0 0 1-6.67-1.33 12.35 12.35 0 0 1-4.49-3.56 14.69 14.69 0 0 1-2.53-5.17 23.25 23.25 0 0 1-.8-6.16v-16.7h7.54v16.7a16.89 16.89 0 0 0 .37 3.59 9.5 9.5 0 0 0 1.2 3 5.91 5.91 0 0 0 5.38 2.9zm43.29-.18v6.62h-23v-32.66h22.54v6.62h-15v6.35h12.88v6.12h-12.83v6.95zm23.51-16.47a4.59 4.59 0 0 0-1-.69 18.11 18.11 0 0 0-2.07-1.06 20.12 20.12 0 0 0-2.71-1 10.84 10.84 0 0 0-2.94-.41q-4 0-4 2.71a2.15 2.15 0 0 0 .44 1.38 3.84 3.84 0 0 0 1.29 1 11.85 11.85 0 0 0 2.14.81l3 .83a39.22 39.22 0 0 1 4.23 1.4 11.36 11.36 0 0 1 3.2 1.89 7.64 7.64 0 0 1 2 2.74 9.5 9.5 0 0 1 .71 3.86 9.67 9.67 0 0 1-1 4.67 8.72 8.72 0 0 1-2.74 3.08 11.55 11.55 0 0 1-3.91 1.7 19.48 19.48 0 0 1-4.55.53 25.4 25.4 0 0 1-3.68-.28 26.5 26.5 0 0 1-3.68-.8 29.23 29.23 0 0 1-3.47-1.27 19.38 19.38 0 0 1-3.11-1.7l3.31-6.58a6.42 6.42 0 0 0 1.2.87 17.82 17.82 0 0 0 2.51 1.29 25.41 25.41 0 0 0 3.33 1.15 14 14 0 0 0 3.73.51q4 0 4-2.44a2.06 2.06 0 0 0-.6-1.52 5.65 5.65 0 0 0-1.66-1.08 18 18 0 0 0-2.6-.85l-3.15-.92a27.23 27.23 0 0 1-3.91-1.5 10.32 10.32 0 0 1-2.74-1.86 6.77 6.77 0 0 1-1.61-2.44 9 9 0 0 1-.53-3.22 10.26 10.26 0 0 1 1-4.55 9.84 9.84 0 0 1 2.62-3.34 11.42 11.42 0 0 1 3.84-2 15.26 15.26 0 0 1 4.62-.69 17.59 17.59 0 0 1 3.36.32 25.45 25.45 0 0 1 3.17.83 22.8 22.8 0 0 1 2.83 1.15q1.31.65 2.42 1.29zm33.37-2.95h-10v26h-7.5v-26h-10v-6.62H237zM69.57 54.07a3.22 3.22 0 0 1-1.35 2.72 4.63 4.63 0 0 1-1.46.7 6.34 6.34 0 0 1-1.77.24h-6.86v-14.2h7.6a2.8 2.8 0 0 1 1.34.32 3.34 3.34 0 0 1 1 .83 3.82 3.82 0 0 1 .65 1.16 3.88 3.88 0 0 1-.29 3.26 3.17 3.17 0 0 1-1.52 1.35 3.65 3.65 0 0 1 1.93 1.29 3.73 3.73 0 0 1 .73 2.33zm-8.68-8.18v3.58h3.68a1.64 1.64 0 0 0 1.19-.47 1.76 1.76 0 0 0 .49-1.32 1.82 1.82 0 0 0-.45-1.3 1.46 1.46 0 0 0-1.11-.48zm5.9 7.66a2.08 2.08 0 0 0-.13-.73 2 2 0 0 0-.35-.61 1.64 1.64 0 0 0-.52-.41 1.46 1.46 0 0 0-.66-.15h-4.24v3.74H65a1.8 1.8 0 0 0 .71-.14 1.7 1.7 0 0 0 .57-.39 1.9 1.9 0 0 0 .52-1.31zm14.8 1.76v2.42h-9.86v-14.2h9.68v2.42h-6.92v3.42h6v2.24h-6v3.7zm10.32-8.06a3.41 3.41 0 0 0-.51-.38 6.18 6.18 0 0 0-.9-.47 7.86 7.86 0 0 0-1.15-.4 5 5 0 0 0-1.26-.16 2.82 2.82 0 0 0-1.7.42 1.39 1.39 0 0 0-.56 1.18 1.21 1.21 0 0 0 .21.73 1.81 1.81 0 0 0 .61.51 5.08 5.08 0 0 0 1 .4q.61.18 1.41.38 1 .28 1.89.6a5.12 5.12 0 0 1 1.44.8 3.29 3.29 0 0 1 .92 1.14 3.82 3.82 0 0 1 .32 1.65 4.12 4.12 0 0 1-.43 2 3.62 3.62 0 0 1-1.2 1.28 5.05 5.05 0 0 1-1.68.73 8.45 8.45 0 0 1-2 .23 10.69 10.69 0 0 1-3.16-.48A9.75 9.75 0 0 1 82.41 56l1.22-2.38a3.84 3.84 0 0 0 .65.47 10 10 0 0 0 1.11.58 8.65 8.65 0 0 0 1.42.49 6.42 6.42 0 0 0 1.6.2q2.28 0 2.28-1.46a1.2 1.2 0 0 0-.26-.78 2.22 2.22 0 0 0-.74-.56 7.1 7.1 0 0 0-1.16-.44L87 51.73a13 13 0 0 1-1.77-.61 4.66 4.66 0 0 1-1.23-.78 2.93 2.93 0 0 1-.75-1 3.61 3.61 0 0 1-.25-1.45 4.41 4.41 0 0 1 .4-1.92 3.88 3.88 0 0 1 1.11-1.4 5 5 0 0 1 1.65-.85 6.82 6.82 0 0 1 2-.29 7.84 7.84 0 0 1 2.76.47 10.32 10.32 0 0 1 2.21 1.1zm14.32-1.3h-4.54v11.78H99V45.95h-4.59v-2.42h11.82zm6 11.78v-14.2h5.16a7.72 7.72 0 0 1 3.05.56 6.13 6.13 0 0 1 3.56 3.77 8.47 8.47 0 0 1 .44 2.75 8.32 8.32 0 0 1-.49 2.93 6.26 6.26 0 0 1-1.41 2.24 6.36 6.36 0 0 1-2.21 1.44 7.81 7.81 0 0 1-2.89.51zm9.38-7.12a6 6 0 0 0-.28-1.88 4.2 4.2 0 0 0-.82-1.48 3.65 3.65 0 0 0-1.33-1 4.49 4.49 0 0 0-1.79-.34H115v9.36h2.4a4.33 4.33 0 0 0 1.81-.36 3.7 3.7 0 0 0 1.32-1 4.4 4.4 0 0 0 .81-1.49 6 6 0 0 0 .27-1.81zm11 7.22a6.45 6.45 0 0 1-2.83-.61 7 7 0 0 1-2.18-1.62 7.51 7.51 0 0 1-1.91-5 7.13 7.13 0 0 1 .53-2.72 7.49 7.49 0 0 1 1.46-2.3 7 7 0 0 1 2.21-1.58 6.56 6.56 0 0 1 2.78-.59 6.24 6.24 0 0 1 2.81.63 7 7 0 0 1 2.17 1.65A7.63 7.63 0 0 1 139 48a7.31 7.31 0 0 1 .5 2.64 7.18 7.18 0 0 1-.52 2.71 7.36 7.36 0 0 1-1.44 2.28 6.93 6.93 0 0 1-2.2 1.58 6.56 6.56 0 0 1-2.73.62zm-4.12-7.2a5.69 5.69 0 0 0 .28 1.78 4.75 4.75 0 0 0 .81 1.52 4 4 0 0 0 1.3 1.06 4 4 0 0 0 3.52 0 4 4 0 0 0 1.3-1.09 4.85 4.85 0 0 0 .8-1.53 5.66 5.66 0 0 0 .27-1.73 5.53 5.53 0 0 0-.29-1.78 4.91 4.91 0 0 0-.82-1.52 3.93 3.93 0 0 0-1.3-1.05 4.05 4.05 0 0 0-3.51 0 3.94 3.94 0 0 0-1.3 1.08 4.83 4.83 0 0 0-.79 1.52 5.66 5.66 0 0 0-.27 1.74zm12.32-.1a7.35 7.35 0 0 1 .47-2.57 6.89 6.89 0 0 1 3.57-3.89 6.79 6.79 0 0 1 3-.62 6.45 6.45 0 0 1 3.39.86 5.49 5.49 0 0 1 2.13 2.24L151.21 48a3.62 3.62 0 0 0-.68-1 3.42 3.42 0 0 0-.86-.65 3.86 3.86 0 0 0-1-.35 4.55 4.55 0 0 0-1-.11 3.72 3.72 0 0 0-1.81.42 4 4 0 0 0-1.28 1.09 4.83 4.83 0 0 0-.77 1.52 5.77 5.77 0 0 0-.26 1.69 5.51 5.51 0 0 0 .3 1.81 4.82 4.82 0 0 0 .85 1.53 4.24 4.24 0 0 0 1.38 1.05 3.61 3.61 0 0 0 1.69.4 4.44 4.44 0 0 0 1-.12 3.73 3.73 0 0 0 1.86-1.05 3.09 3.09 0 0 0 .64-1l2.26 1.3a4.27 4.27 0 0 1-1 1.41 6.24 6.24 0 0 1-1.42 1 7.24 7.24 0 0 1-1.69.64 7.4 7.4 0 0 1-1.76.22 6 6 0 0 1-2.78-.64 7.23 7.23 0 0 1-2.17-1.67 7.75 7.75 0 0 1-1.42-2.34 7.31 7.31 0 0 1-.48-2.62zm20.58 4.86A3.16 3.16 0 0 0 163 55a3.22 3.22 0 0 0 1.08-1 4.29 4.29 0 0 0 .58-1.47 8.5 8.5 0 0 0 .17-1.71v-7.29h2.74v7.24a10.34 10.34 0 0 1-.35 2.74 6.29 6.29 0 0 1-1.1 2.24 5.27 5.27 0 0 1-1.93 1.52 6.53 6.53 0 0 1-2.82.56 6.45 6.45 0 0 1-2.89-.59 5.39 5.39 0 0 1-1.93-1.56 6.23 6.23 0 0 1-1.07-2.25 10.58 10.58 0 0 1-.33-2.66v-7.24h2.76v7.24a8.61 8.61 0 0 0 .17 1.73 4.29 4.29 0 0 0 .62 1.5 3 3 0 0 0 2.69 1.42zM182 57.73v-9.4l-3.66 7h-1.5l-3.66-7v9.4h-2.76v-14.2h3l4.2 8.08 4.24-8.08h2.94v14.2zm15.55-2.42v2.42h-9.86v-14.2h9.68v2.42h-6.92v3.42h6v2.24h-6v3.7zm4.92-6.68v9.1h-2.76v-14.2h2.14l7.4 9.32v-9.3H212v14.18h-2.24zm23.12-2.68H221v11.78h-2.74V45.95h-4.54v-2.42h11.82zm4.41-2.42h2.44l5.4 14.2H235l-1.32-3.54h-5l-1.3 3.54h-2.84zm3.18 8.72l-2-5.58-2 5.58zm6.21 5.48v-14.2h6.28a4 4 0 0 1 1.81.41 4.69 4.69 0 0 1 1.43 1.06 5.11 5.11 0 0 1 .94 1.52 4.57 4.57 0 0 1 .34 1.71 4.72 4.72 0 0 1-.69 2.51 4 4 0 0 1-1.87 1.63l3.24 5.34h-3.1l-2.9-4.71h-2.72v4.76zm2.76-7.18h3.46a1.46 1.46 0 0 0 .71-.18 1.82 1.82 0 0 0 .57-.49 2.47 2.47 0 0 0 .38-.73 2.84 2.84 0 0 0 .14-.9 2.57 2.57 0 0 0-.16-.92 2.4 2.4 0 0 0-.43-.73 1.94 1.94 0 0 0-.62-.48 1.61 1.61 0 0 0-.71-.17h-3.34zm11.68-7.02l3.5 6.84 3.56-6.84h3l-5.16 9.24v5H256v-5l-5.14-9.2zM90.78 167.73v-14.2h9.54v2.42h-6.78v3.66h5.64v2.24h-5.64v5.88zm11.48 0v-14.2H105v14.2zm5.74 0v-14.2h2.76v11.78H118v2.42zm23.24 0v-9.4l-3.66 7h-1.5l-3.66-7v9.4h-2.76v-14.2h3l4.2 8.08 4.24-8.08h2.9v14.2zm10.52 0v-14.2h9.54v2.42h-6.78v3.66h5.64v2.24h-5.64v5.88zm21.34-2.42v2.42h-9.86v-14.2h9.68v2.42H156v3.42h6v2.24h-6v3.7zm10.32-8.06a3.41 3.41 0 0 0-.51-.38 6.18 6.18 0 0 0-.9-.47 7.86 7.86 0 0 0-1.15-.39 5 5 0 0 0-1.26-.16 2.82 2.82 0 0 0-1.7.42 1.39 1.39 0 0 0-.56 1.18 1.21 1.21 0 0 0 .21.73 1.81 1.81 0 0 0 .61.51 5.08 5.08 0 0 0 1 .4q.61.18 1.41.38 1 .28 1.89.6a5.12 5.12 0 0 1 1.44.8 3.29 3.29 0 0 1 .91 1.15 3.82 3.82 0 0 1 .32 1.65 4.12 4.12 0 0 1-.43 2 3.62 3.62 0 0 1-1.16 1.31 5.05 5.05 0 0 1-1.68.73 8.45 8.45 0 0 1-2 .23 10.69 10.69 0 0 1-3.16-.48 9.75 9.75 0 0 1-2.8-1.36l1.22-2.38a3.84 3.84 0 0 0 .65.47 10 10 0 0 0 1.11.58 8.65 8.65 0 0 0 1.42.49 6.42 6.42 0 0 0 1.6.2q2.28 0 2.28-1.46a1.2 1.2 0 0 0-.26-.78 2.22 2.22 0 0 0-.74-.56 7.1 7.1 0 0 0-1.16-.44l-1.52-.44a13 13 0 0 1-1.77-.61 4.66 4.66 0 0 1-1.25-.78 2.93 2.93 0 0 1-.75-1 3.61 3.61 0 0 1-.25-1.41 4.41 4.41 0 0 1 .4-1.92 3.88 3.88 0 0 1 1.11-1.4 5 5 0 0 1 1.65-.85 6.82 6.82 0 0 1 2-.29 7.84 7.84 0 0 1 2.76.47 10.32 10.32 0 0 1 2.2 1.11zm14.32-1.3h-4.54v11.78h-2.74v-11.78h-4.54v-2.42h11.82zm1.76 11.78v-14.2h2.76v14.2zm7.18-14.2l3.84 10.74 3.8-10.74h2.9l-5.54 14.2h-2.32l-5.58-14.2zm14.88 0H214l5.4 14.2h-2.84l-1.32-3.54h-5l-1.3 3.54h-2.84zm3.18 8.72l-2-5.58-2 5.58zm6.26 5.48v-14.2h2.76v11.78H231v2.42z"/></g></g></svg>