<svg xmlns="http://www.w3.org/2000/svg" viewBox="0 0 105.06 68"><defs><style>.cls-1{fill:#ef5035}</style></defs><title>sunvalley-laurel-red</title><g id="Layer_2" data-name="Layer 2"><g id="Layer_1-2" data-name="Layer 1"><g id="Layer_2-2" data-name="Layer 2"><g id="Layer_1-2-2" data-name="Layer 1-2"><path class="cls-1" d="M80.85 4.5A4.3 4.3 0 0 1 80 .11a3.11 3.11 0 0 1 2.61 3.23c-.13 1.91.94 2.52 2.37 3h.26c-.51-2.59-.48-2.88.39-4.23A3.37 3.37 0 0 1 87.49 6c-.37 1.61.33 2.41 1.57 3.06.16.09.31.22.65.45a4.88 4.88 0 0 1 .78-4.39c1.81.89 2 2.24 1 5.93.23.25.5.52.74.82a4.94 4.94 0 0 0 1 1.09c.33-1.63.58-3.11 2.1-4.16.93 1.38 1.37 2.91.54 4.21-1.1 1.73-.48 2.94.52 4.25l.18.15a4.82 4.82 0 0 1 2.53-3.92 3.62 3.62 0 0 1 .32 3.51 6.29 6.29 0 0 1-1.17 2 1.31 1.31 0 0 0-.25 1.49c.27.61.52 1.22.89 2.08a4.7 4.7 0 0 1 3-3.75 3.35 3.35 0 0 1-.91 4.52c-1.5 1.18-1.47 2.37-.77 4a5.37 5.37 0 0 1 3.81-2.77 3.48 3.48 0 0 1-.89 3.6 5.34 5.34 0 0 1-1.57 1.24 1.54 1.54 0 0 0-1 2.09 9.08 9.08 0 0 1 .18 1 5.52 5.52 0 0 1 4.2-1.94 4.13 4.13 0 0 1 0 1.06 4.58 4.58 0 0 1-3.16 3.29c-1 .3-1.46.77-1.41 1.8a7.83 7.83 0 0 1-.23 1.4 5.05 5.05 0 0 1 4.86-1.57 3.37 3.37 0 0 1-1.7 2.91 8.67 8.67 0 0 1-2.11.89c-1.69.48-1.7.45-1.89 2.29 2.94-.82 3.08-.83 4.84-.14a4.93 4.93 0 0 1-2.66 2.61 3.64 3.64 0 0 1-1.67.37c-1.77-.24-2.5.74-2.88 2.24C99.22 47 100 47 102 48.1a4.24 4.24 0 0 1-3.36 2.29 7.23 7.23 0 0 1-2 0C95 50.23 94.8 50.31 94 52a6.31 6.31 0 0 1 4.93 1.31c-2.19 2.5-4.66 1.88-7.23.89L90 55.77a21.5 21.5 0 0 1 2.72.63 3.65 3.65 0 0 1 2.15 1.69c-1.7 1.45-3.52 1.35-5.41.62a5.67 5.67 0 0 1-.65-.3c-1.42-.77-1.42-.77-2.86.49a7.25 7.25 0 0 1 4.41 3.1 4.58 4.58 0 0 1-3.86.55 5.94 5.94 0 0 1-2.14-1.14c-1.07-1.09-2.06-1-3.29-.13a6.44 6.44 0 0 1 3.81 3.6c-2.18 1.27-4.25.44-7-2.78a22.75 22.75 0 0 0-12 5.88l-1-1a8.81 8.81 0 0 1 3.69-2.89 56.39 56.39 0 0 1 6.82-2.7 2.1 2.1 0 0 0 1.77-2 5.06 5.06 0 0 1 2.77-4.28 5.56 5.56 0 0 1 .77-.28c.94 1.49.65 3.08-.87 5.44 1.93-.37 2-.41 1.92-2.25a5.35 5.35 0 0 1 2-4.83 2.61 2.61 0 0 1 .48-.3.75.75 0 0 1 .28 0c1 1.69 1 3-.13 5.56.35-.21.59-.33.81-.48 1.22-.77 1.23-.78.85-2.16a5.14 5.14 0 0 1 .68-4.58A11.85 11.85 0 0 1 87.74 50a5.56 5.56 0 0 1 1 4.9c1.41-.37 1.63-.74 1.1-2-.74-1.82-1-3.61.14-5.37.13-.2.3-.36.56-.68a5.6 5.6 0 0 1 1.85 4.65c1.43-.86 1.55-1.23.74-2.45a5.07 5.07 0 0 1-.74-5.16 7.34 7.34 0 0 1 .5-.78A5.93 5.93 0 0 1 95.34 48l1.29-2.18c-1.8-1.83-3.47-3.64-2.23-6.62a5.31 5.31 0 0 1 3.27 4.33l.3-.82c.57-1.51.57-1.51-.7-2.6-1.11-1-2.12-2-2.13-3.6a12.13 12.13 0 0 1 .14-1.36c1.86.43 2.64 1.12 3.92 3.32.07-.33.14-.59.2-.86.33-1.48.33-1.49-1.05-2.18a4.86 4.86 0 0 1-3-3.8 1.63 1.63 0 0 1 0-.43 2 2 0 0 1 .22-.42 5.69 5.69 0 0 1 4.27 2.71v-.83c0-1.74 0-1.73-1.61-2.31a4.52 4.52 0 0 1-3.43-3.88 4.64 4.64 0 0 1 4.7 2.17c-.08-.6-.11-.89-.15-1.17s-.11-.65-.18-1a1.1 1.1 0 0 0-1.06-1 12.2 12.2 0 0 1-2-.4 3.53 3.53 0 0 1-2.53-2.66c1.17-.7 1.86-.63 4.51.52-.15-.53-.27-1-.41-1.42a1.17 1.17 0 0 0-1.31-.88 11.61 11.61 0 0 1-1.59 0 4.36 4.36 0 0 1-3.5-2.33 4.48 4.48 0 0 1 5.18.5l-1.71-3c-2.29.86-4.43 1.23-6.18-1.09a4.56 4.56 0 0 1 5-.51l-2.06-2.39c-3.22 1.48-4.7 1.45-6.28-.13a5.43 5.43 0 0 1 4.32-1.53l-2-1.7c-1.89 1.23-3.73 2.66-6 1 1-1.56 2-2 4.3-2.06-.36-.25-.61-.45-.9-.62-1.66-1-1.66-1-3.14.33a3.56 3.56 0 0 1-4.32.65 4.3 4.3 0 0 1 4-2.57l-.65-.76zm-56.55 0l-.65.76a4.38 4.38 0 0 1 4.08 2.63 3.21 3.21 0 0 1-2.88.19 5.39 5.39 0 0 1-1.25-.71c-.6-.37-1.17-1.26-1.67-1.2a6.85 6.85 0 0 0-2.51 1.24 4.71 4.71 0 0 1 4.16 1.91c-1.25 1.48-2.39 1.36-6-.71l-2 1.58a5.76 5.76 0 0 1 4.32 1.57c-1.37 1.59-3.18 1.63-6.25.13l-2.09 2.39a4.49 4.49 0 0 1 4.9.43c-1 1.93-2.63 2.27-6 1.22l-1.79 2.93a4.46 4.46 0 0 1 5.16-.51 4.28 4.28 0 0 1-3.3 2.33 6.72 6.72 0 0 1-.86 0c-2.07 0-2.15.08-2.52 2.33 1.4-.82 2.78-1.38 4.49-.73a3.55 3.55 0 0 1-2.44 2.79 6.39 6.39 0 0 1-1.82.39 1.39 1.39 0 0 0-1.47 1.44c-.06.47-.16.94-.3 1.69a5.23 5.23 0 0 1 4.67-2.15 3.82 3.82 0 0 1-2 3.36 4.15 4.15 0 0 1-.91.43c-2.15.82-2.15.82-2 3.27a20.43 20.43 0 0 1 1.88-1.85 4 4 0 0 1 2.52-.8 4.24 4.24 0 0 1-1.35 3.55 9.93 9.93 0 0 1-1.68 1.1c-1.22.65-1.25.65-1 2 .07.33.15.65.22 1a14.66 14.66 0 0 1 1.52-2 16.79 16.79 0 0 1 2.24-1.6 3.68 3.68 0 0 1-.48 3.86 9 9 0 0 1-1.53 1.52c-1.07.91-1.09.9-.62 2.14.11.3.24.6.42 1.08a5.29 5.29 0 0 1 3.09-4.23c1.4 2.29.45 4-2 6.58L9.77 48a6.33 6.33 0 0 1 2.36-4.82 3.76 3.76 0 0 1 .87 3.76 6.45 6.45 0 0 1-.91 1.94c-.81 1.31-.82 1.42.26 2.57.13.13.28.25.59.52a5.35 5.35 0 0 1 1.63-5.2 4.84 4.84 0 0 1 1.31 3.92 11.83 11.83 0 0 1-.57 2.08c-.52 1.43-.5 1.5 1.09 2.29a5.59 5.59 0 0 1 .89-4.9 4.57 4.57 0 0 1 2 5.18c-.4 1.88-.4 1.88 1.67 3.1a5.25 5.25 0 0 1-.24-5.78 5.17 5.17 0 0 1 2.71 3.76 12 12 0 0 1 0 1.44c0 1.87 0 1.87 2.06 2.51-1.24-1.76-1.91-3.5-1.15-5.64a5 5 0 0 1 3.37 3 1.75 1.75 0 0 1 .2.69c-.06 2.13 1.19 2.86 3.09 3.33a21.66 21.66 0 0 1 7.52 3.52c.61.44 1.16 1 1.89 1.58l-1 1.15a22.66 22.66 0 0 0-12.09-5.85c-3 3.24-4.79 4-7.08 2.77A6.4 6.4 0 0 1 24 61.38c-1.44-1.11-1.56-1.09-3 0-1.63 1.18-3.35 1.91-5.38 1.07a7.31 7.31 0 0 1-.71-.4A6.36 6.36 0 0 1 19.07 59c-1.13-1.34-1.31-1.35-2.69-.62-2 1.09-4.07 1.34-6.06-.16.75-1.47 2.58-2.34 4.93-2.47a12.36 12.36 0 0 1-1.22-1 1.16 1.16 0 0 0-1.41-.27A10.31 10.31 0 0 1 10 55c-1.58.09-2.4-.33-3.75-1.71a5.7 5.7 0 0 1 4.83-1.25c-.5-1.58-.95-1.88-2.29-1.7a5.68 5.68 0 0 1-4.52-.95A14.29 14.29 0 0 1 3 48.18a4.79 4.79 0 0 1 5.34-.26c-.26-.59-.45-.94-.59-1.31A1.57 1.57 0 0 0 6 45.52a5 5 0 0 1-4.63-2.38 3.85 3.85 0 0 1-.28-.69c1.68-.84 3.22-.36 4.75.28-.06-1.87-.07-1.87-1.79-2.38-1.39-.41-2.78-.86-3.47-2.35-.2-.42-.33-.87-.54-1.45A5.06 5.06 0 0 1 4.9 38c-.12-.82-.22-1.47-.3-2.12s-.74-.81-1.26-1a4.71 4.71 0 0 1-3-2.84A8.21 8.21 0 0 1 0 30.73c1.67-.24 2.73.21 4.25 1.76.09-.41.14-.75.24-1.09a1.48 1.48 0 0 0-.92-2A4.62 4.62 0 0 1 1 26.31a10.08 10.08 0 0 1-.1-1.68c1.78.21 2.61.78 4 2.82A15.51 15.51 0 0 0 5.42 25c0-.33-.39-.72-.69-1a4.76 4.76 0 0 1-1.94-3.09 14.9 14.9 0 0 1 .12-2.11c2 .68 2.61 1.38 3.4 3.63a9.18 9.18 0 0 1 .49-1.11 2.25 2.25 0 0 0-.29-3 4.19 4.19 0 0 1-.47-5 5 5 0 0 1 2.5 4.2l1.36-2.03c.41-.62 0-1.11-.3-1.59a4.65 4.65 0 0 1-.25-4.29 3.85 3.85 0 0 1 .47-.67c1.31.9 1.69 1.66 1.92 4.15a24.4 24.4 0 0 0 1.74-1.79c.15-.19.07-.61 0-.92-.13-.71-.38-1.4-.46-2.1a3.33 3.33 0 0 1 1.51-3.2c1.14 1.24 1.31 2.67.79 4.58a25.78 25.78 0 0 0 2.09-1.6 1.5 1.5 0 0 0 .33-1c0-.57-.13-1.14-.13-1.72 0-1.6.43-2.29 2-3.27 1 1.34.76 2.77.19 4.44.62-.27 1-.49 1.46-.64a1.71 1.71 0 0 0 1.26-2A3.8 3.8 0 0 1 25 0c1 1.76.27 3.16-.72 4.51zm19.64 20.42a1.5 1.5 0 0 0-.33-.23 6 6 0 0 0-.68-.35 6.56 6.56 0 0 0-.89-.33 3.54 3.54 0 0 0-1-.13q-1.31 0-1.31.89a.7.7 0 0 0 .14.45 1.26 1.26 0 0 0 .42.33 3.86 3.86 0 0 0 .7.26l1 .27a12.84 12.84 0 0 1 1.38.46 3.71 3.71 0 0 1 1 .62 2.49 2.49 0 0 1 .65.9 3.11 3.11 0 0 1 .23 1.26 3.16 3.16 0 0 1-.25 1.52 2.85 2.85 0 0 1-.9 1 3.78 3.78 0 0 1-1.28.56 6.36 6.36 0 0 1-1.49.17 8.3 8.3 0 0 1-1.2-.09 8.68 8.68 0 0 1-1.2-.26 9.55 9.55 0 0 1-1.13-.42 6.33 6.33 0 0 1-1-.56l1.08-2.15a2.11 2.11 0 0 0 .39.28 5.83 5.83 0 0 0 .82.42 8.31 8.31 0 0 0 1.09.38 4.58 4.58 0 0 0 1.22.17q1.31 0 1.31-.8a.67.67 0 0 0-.22-.47 1.85 1.85 0 0 0-.54-.35 5.88 5.88 0 0 0-.82-.29l-1-.3a8.89 8.89 0 0 1-1.28-.49 3.37 3.37 0 0 1-.9-.61 2.21 2.21 0 0 1-.53-.8 2.94 2.94 0 0 1-.17-1.05 3.35 3.35 0 0 1 .33-1.49 3.22 3.22 0 0 1 .86-1.09 3.73 3.73 0 0 1 1.22-.6 5 5 0 0 1 1.51-.23 5.75 5.75 0 0 1 1.1.1 8.3 8.3 0 0 1 1 .27 7.48 7.48 0 0 1 .93.38q.43.21.79.42zm7.43 5.44a2 2 0 0 0 1.07-.26 2.1 2.1 0 0 0 .7-.69 3 3 0 0 0 .38-1 5.84 5.84 0 0 0 .11-1.15v-5.47h2.46v5.46a7.45 7.45 0 0 1-.28 2.08A4.79 4.79 0 0 1 55 31a4 4 0 0 1-1.47 1.13 5 5 0 0 1-2.13.41 5 5 0 0 1-2.18-.43 4 4 0 0 1-1.5-1.11 4.8 4.8 0 0 1-.83-1.69 7.6 7.6 0 0 1-.26-2v-5.52h2.47v5.46a5.52 5.52 0 0 0 .12 1.17 3.11 3.11 0 0 0 .39 1 1.93 1.93 0 0 0 1.76.95zm9.1-4v6.11H58V21.79h1.93l5 6.27v-6.27h2.46v10.67h-2z"/><path class="cls-1" d="M27.36 36.17l2.51 7.58 2.49-7.58H35l-4.09 10.68h-2.08l-4.09-10.68zm10.56 0h2.23L44 46.85h-2.49l-.81-2.4h-3.33l-.81 2.39H34zm2.36 6.59L39 39l-1.28 3.78zm4.83 4.09V36.17h2.46v8.5h5.17v2.16zm8.79 0V36.17h2.46v8.5h5.17v2.16zm16.3-2.17v2.16h-7.52V36.17H70v2.16h-4.9v2.08h4.21v2h-4.15v2.27zm3.15-8.51l2.29 4.9 2.36-4.9h2.69l-3.8 7v3.64h-2.48v-3.63l-3.74-7zM25.8 17.64a1 1 0 0 1-.4.8 1.36 1.36 0 0 1-.43.21 1.86 1.86 0 0 1-.52.07h-2v-4.19h2.24a.83.83 0 0 1 .4.09 1 1 0 0 1 .3.25 1.12 1.12 0 0 1 .19.33 1.15 1.15 0 0 1 .07.39 1.14 1.14 0 0 1-.15.57.93.93 0 0 1-.45.4 1.08 1.08 0 0 1 .57.38 1.1 1.1 0 0 1 .18.7zm-2.55-2.41v1.05h1.08a.48.48 0 0 0 .35-.14.52.52 0 0 0 .14-.39.54.54 0 0 0-.13-.38.43.43 0 0 0-.33-.14zM25 17.49a.61.61 0 0 0 0-.22.6.6 0 0 0-.1-.19.48.48 0 0 0-.15-.12.43.43 0 0 0-.19 0h-1.31V18h1.21a.53.53 0 0 0 .21 0 .5.5 0 0 0 .17-.11.56.56 0 0 0 .15-.39zm4.34.51v.71h-2.9v-4.18h2.85v.71h-2v1H29v.65h-1.75V18zm3.02-2.37l-.15-.11-.26-.14-.33-.11a1.47 1.47 0 0 0-.37 0 .83.83 0 0 0-.5.12.41.41 0 0 0-.16.35.36.36 0 0 0 .06.22.53.53 0 0 0 .18.15 1.5 1.5 0 0 0 .3.12l.42.11a5.61 5.61 0 0 1 .56.18 1.5 1.5 0 0 1 .42.24 1 1 0 0 1 .27.33 1.12 1.12 0 0 1 .09.49 1.21 1.21 0 0 1-.13.57 1.07 1.07 0 0 1-.33.39 1.48 1.48 0 0 1-.49.22 2.48 2.48 0 0 1-.59.07 3.14 3.14 0 0 1-1-.13 2.87 2.87 0 0 1-.82-.4l.36-.7a1.12 1.12 0 0 0 .19.14l.33.17a2.51 2.51 0 0 0 .42.14 1.88 1.88 0 0 0 .47.06q.7-.11.7-.51a.35.35 0 0 0-.08-.23.65.65 0 0 0-.22-.16 2.1 2.1 0 0 0-.33-.13l-.43-.08a3.77 3.77 0 0 1-.54-.19 1.36 1.36 0 0 1-.37-.23.86.86 0 0 1-.22-.31 1.06 1.06 0 0 1-.07-.42 1.31 1.31 0 0 1 .12-.57 1.14 1.14 0 0 1 .33-.41 1.48 1.48 0 0 1 .48-.25 2 2 0 0 1 .59-.08 2.3 2.3 0 0 1 .81.14 3 3 0 0 1 .65.33zm4.23-.39h-1.34v3.46h-.81v-3.46H33.1v-.71h3.48zm4.25.39l-.15-.11-.26-.14-.33-.11a1.47 1.47 0 0 0-.37 0 .83.83 0 0 0-.5.13.41.41 0 0 0-.16.35.36.36 0 0 0 .06.22.53.53 0 0 0 .18.15 1.5 1.5 0 0 0 .3.12l.42.11a5.61 5.61 0 0 1 .56.18 1.5 1.5 0 0 1 .42.24 1 1 0 0 1 .27.33 1.12 1.12 0 0 1 .09.49 1.21 1.21 0 0 1-.13.57 1.07 1.07 0 0 1-.33.39 1.48 1.48 0 0 1-.49.22 2.48 2.48 0 0 1-.59.07 3.14 3.14 0 0 1-.93-.14 2.87 2.87 0 0 1-.82-.4l.36-.7a1.12 1.12 0 0 0 .19.14l.33.17a2.51 2.51 0 0 0 .42.14 1.88 1.88 0 0 0 .47.06q.67 0 .67-.43a.35.35 0 0 0-.08-.23.65.65 0 0 0-.22-.16 2.1 2.1 0 0 0-.33-.13l-.45-.16a3.77 3.77 0 0 1-.52-.18 1.36 1.36 0 0 1-.37-.23.86.86 0 0 1-.22-.31 1.06 1.06 0 0 1-.07-.42 1.31 1.31 0 0 1 .12-.57 1.14 1.14 0 0 1 .33-.41 1.48 1.48 0 0 1 .48-.25 2 2 0 0 1 .59-.08 2.3 2.3 0 0 1 .81.14 3 3 0 0 1 .65.33zM42 18.71v-4.18h1.77a1.19 1.19 0 0 1 .53.12 1.38 1.38 0 0 1 .42.33 1.5 1.5 0 0 1 .28.45 1.34 1.34 0 0 1 .1.5 1.45 1.45 0 0 1-.09.52 1.43 1.43 0 0 1-.26.44 1.31 1.31 0 0 1-.41.33 1.19 1.19 0 0 1-.53.12h-1v1.4zm.81-2.11h.94a.46.46 0 0 0 .37-.18.76.76 0 0 0 .15-.49.81.81 0 0 0 0-.28.7.7 0 0 0-.12-.22.49.49 0 0 0-.18-.13.52.52 0 0 0-.21 0h-.91zm2.81 2.11v-4.18h.81v4.18zm1.68 0v-4.18h1.85a1.19 1.19 0 0 1 .53.12 1.38 1.38 0 0 1 .42.33 1.5 1.5 0 0 1 .28.45 1.34 1.34 0 0 1 .1.5 1.39 1.39 0 0 1-.2.74 1.16 1.16 0 0 1-.55.48l1 1.57h-.91l-.86-1.41h-.8v1.4zm.81-2.11h1a.43.43 0 0 0 .21-.05.53.53 0 0 0 .17-.14.72.72 0 0 0 .11-.22.83.83 0 0 0 0-.26.76.76 0 0 0 0-.27.71.71 0 0 0-.13-.22.57.57 0 0 0-.18-.14.47.47 0 0 0-.21 0h-1zm3.11 2.11v-4.18H52v4.18zM56 15.24h-1.31v3.46h-.81v-3.46h-1.34v-.71H56zM58.31 18a.93.93 0 0 0 .48-.12 1 1 0 0 0 .33-.31 1.27 1.27 0 0 0 .17-.43 2.51 2.51 0 0 0 0-.5v-2.11h.81v2.13a3 3 0 0 1-.1.81 1.85 1.85 0 0 1-.33.65 1.55 1.55 0 0 1-.57.45 1.92 1.92 0 0 1-.83.16 1.9 1.9 0 0 1-.85-.17 1.58 1.58 0 0 1-.57-.46 1.83 1.83 0 0 1-.33-.65 3.12 3.12 0 0 1-.1-.78v-2.14h.81v2.13a2.52 2.52 0 0 0 0 .51 1.26 1.26 0 0 0 .17.43.89.89 0 0 0 .79.42zM62 14.53h.72l1.59 4.18h-.84l-.39-1h-1.49l-.38 1h-.84zm.93 2.57l-.58-1.63-.6 1.63zm1.79 1.61v-4.18h.81V18h2.13v.71zm4.7 0v-4.18h2.81v.71h-2v1.09h1.67V17h-1.66v1.73zm3.38 0v-4.18h.81v4.18zm1.68 0v-4.18h.81V18h2.13v.71zm6.84 0v-2.77L80.25 18h-.44l-1.08-2.06v2.77h-.81v-4.18h.85L80 16.91l1.25-2.38h.87v4.18zM31.93 53.68v-4.17h2.81v.71h-2v1.09h1.66V52h-1.65v1.73zm3.37 0v-4.17h.81v4.18zm1.7 0v-4.17h.81V53h2.13v.71zm6.84 0v-2.76L42.76 53h-.44l-1.08-2.06v2.77h-.81v-4.2h.87l1.24 2.38 1.25-2.38h.87v4.18zm3.09 0v-4.17h2.81v.71h-2v1.09h1.66V52h-1.66v1.73zm6.28-.68v.71h-2.9v-4.2h2.85v.71h-2v1h1.76v.65h-1.8V53zm3.04-2.4l-.15-.11-.26-.14-.33-.11a1.47 1.47 0 0 0-.37 0 .83.83 0 0 0-.5.12.41.41 0 0 0-.16.35.36.36 0 0 0 .06.22.53.53 0 0 0 .18.15 1.5 1.5 0 0 0 .3.12l.42.11a5.61 5.61 0 0 1 .56.18 1.5 1.5 0 0 1 .42.24 1 1 0 0 1 .27.33 1.12 1.12 0 0 1 .09.49 1.21 1.21 0 0 1-.13.57 1.07 1.07 0 0 1-.33.39 1.48 1.48 0 0 1-.49.22 2.48 2.48 0 0 1-.59.07 3.14 3.14 0 0 1-1-.13 2.87 2.87 0 0 1-.82-.4l.36-.7a1.12 1.12 0 0 0 .19.14l.33.17a2.51 2.51 0 0 0 .42.14 1.88 1.88 0 0 0 .47.06q.67 0 .67-.43a.35.35 0 0 0-.08-.23.65.65 0 0 0-.22-.16 2.1 2.1 0 0 0-.33-.13l-.45-.13a3.77 3.77 0 0 1-.52-.18 1.36 1.36 0 0 1-.37-.23.86.86 0 0 1-.22-.31 1.06 1.06 0 0 1-.07-.42 1.31 1.31 0 0 1 .12-.57 1.14 1.14 0 0 1 .33-.41 1.48 1.48 0 0 1 .48-.25 2 2 0 0 1 .59-.08 2.3 2.3 0 0 1 .81.14 3 3 0 0 1 .65.33zm4.22-.38h-1.34v3.46h-.81v-3.46H57v-.71h3.48zm.53 3.46v-4.17h.8v4.18zm2.08-4.17l1.13 3.16 1.12-3.16h.85l-1.63 4.18h-.68l-1.63-4.18zm4.38 0h.72l1.59 4.18h-.84l-.39-1h-1.45l-.38 1h-.84zm.93 2.57l-.58-1.63-.6 1.63zm1.84 1.6v-4.17H71V53h2.13v.71z"/></g></g></g></g></svg>