<svg xmlns="http://www.w3.org/2000/svg" viewBox="0 0 377.27 66.48"><title>TEDx-black</title><path d="M129 0l10.27 27.47H133l-2.08-6.12h-10.31l-2.15 6.12h-6.08L122.76 0zm.35 16.85l-3.51-10.08h-.08l-3.58 10.08zm26.31 10.62V24.7h-.12a6.14 6.14 0 0 1-2.69 2.5 8 8 0 0 1-3.39.77 9.55 9.55 0 0 1-3.6-.58 5.19 5.19 0 0 1-2.21-1.63 6.39 6.39 0 0 1-1.13-2.58 16 16 0 0 1-.33-3.37V7.58h5.46v11.23a7 7 0 0 0 .77 3.67 3 3 0 0 0 2.73 1.21 3.79 3.79 0 0 0 3.23-1.33 7.38 7.38 0 0 0 1-4.37V7.58h5.46v19.89zm15.1-4.94a3.18 3.18 0 0 0 .94 1 4 4 0 0 0 1.33.6 6.24 6.24 0 0 0 1.56.19 5.81 5.81 0 0 0 1.21-.13 4.12 4.12 0 0 0 1.2-.39 2.62 2.62 0 0 0 .87-.77 2 2 0 0 0 .35-1.21q0-1.23-1.64-1.85a32.76 32.76 0 0 0-4.58-1.23q-1.19-.27-2.33-.63a7.94 7.94 0 0 1-2-1 4.67 4.67 0 0 1-1.42-1.5 4.24 4.24 0 0 1-.54-2.21 6 6 0 0 1 .75-3.15 5.53 5.53 0 0 1 2-1.94 8.68 8.68 0 0 1 2.77-1 17.08 17.08 0 0 1 3.09-.31 15.77 15.77 0 0 1 3.14.31 8.32 8.32 0 0 1 2.71 1 6.23 6.23 0 0 1 2 1.94 6.53 6.53 0 0 1 .94 3.06h-5.19a2.39 2.39 0 0 0-1.19-2.14 5.46 5.46 0 0 0-2.54-.56 9.41 9.41 0 0 0-1 .06 3.34 3.34 0 0 0-1 .25 2 2 0 0 0-.75.56 1.47 1.47 0 0 0-.31 1 1.5 1.5 0 0 0 .54 1.19 4.15 4.15 0 0 0 1.4.75 17.62 17.62 0 0 0 2 .52l2.27.5a23.18 23.18 0 0 1 2.33.65 7.66 7.66 0 0 1 2 1 4.93 4.93 0 0 1 1.42 1.58 4.63 4.63 0 0 1 .54 2.33 6 6 0 0 1-2.85 5.42 8.44 8.44 0 0 1-2.9 1.14 17 17 0 0 1-3.33.33 16.47 16.47 0 0 1-3.39-.35 8.94 8.94 0 0 1-2.94-1.15 6.59 6.59 0 0 1-2.12-2.14 6.68 6.68 0 0 1-.9-3.33h5.19a3 3 0 0 0 .37 1.61zM198.9 7.58v3.66h-4v9.85a2.67 2.67 0 0 0 .46 1.85 2.67 2.67 0 0 0 1.85.46h.89a7.47 7.47 0 0 0 .81-.12v4.23a13 13 0 0 1-1.54.15h-1.65a15.91 15.91 0 0 1-2.4-.17 5.65 5.65 0 0 1-2-.67 3.56 3.56 0 0 1-1.37-1.42 5.08 5.08 0 0 1-.5-2.42V11.23h-3.31V7.58h3.31v-6h5.46v6zm3.93-3.08V0h5.46v4.5zm5.46 3.08v19.89h-5.46V7.58zm10.66 0v2.77h.12a6.27 6.27 0 0 1 2.69-2.52 7.79 7.79 0 0 1 3.38-.83 9.28 9.28 0 0 1 3.6.6 5.34 5.34 0 0 1 2.21 1.65 6.41 6.41 0 0 1 1.13 2.58 16.05 16.05 0 0 1 .33 3.37v12.27h-5.46V16.24a7 7 0 0 0-.77-3.67 3 3 0 0 0-2.73-1.21 3.78 3.78 0 0 0-3.23 1.33 7.38 7.38 0 0 0-1 4.37v10.41h-5.46V7.58zm39.51 19.89l-4.66-18.7h-.08l-4.58 18.7H243L235.76 0h6l4.35 18.7h.08L251 0h5.66l4.69 18.93h.08L265.92 0h5.92l-7.39 27.47zm14.66-14.25a9.09 9.09 0 0 1 5.31-5.42 11.35 11.35 0 0 1 4.23-.8 11.51 11.51 0 0 1 4.25.75 9.06 9.06 0 0 1 5.33 5.42 12.22 12.22 0 0 1 .73 4.33 12.06 12.06 0 0 1-.73 4.31 9.35 9.35 0 0 1-2.08 3.29 9 9 0 0 1-3.25 2.1 11.79 11.79 0 0 1-4.25.73 11.64 11.64 0 0 1-4.23-.73 9.08 9.08 0 0 1-3.23-2.1 9.34 9.34 0 0 1-2.08-3.29 12.05 12.05 0 0 1-.73-4.31 12.21 12.21 0 0 1 .73-4.28zm5 6.66a6.19 6.19 0 0 0 .79 2 4.19 4.19 0 0 0 1.48 1.44 4.52 4.52 0 0 0 2.31.54 4.63 4.63 0 0 0 2.33-.54 4.15 4.15 0 0 0 1.5-1.44 6.21 6.21 0 0 0 .79-2 11.65 11.65 0 0 0 .23-2.33 12 12 0 0 0-.23-2.35 6 6 0 0 0-.79-2 4.38 4.38 0 0 0-1.5-1.44 4.51 4.51 0 0 0-2.33-.56 4.2 4.2 0 0 0-3.79 2 6 6 0 0 0-.79 2 12 12 0 0 0-.23 2.35 11.65 11.65 0 0 0 .19 2.32zM303 7.58v2.69a7.78 7.78 0 0 1 2.6-2.39 7 7 0 0 1 3.53-.88 8 8 0 0 1 3.44.73 4.84 4.84 0 0 1 2.37 2.58 8.47 8.47 0 0 1 2.4-2.31 6.39 6.39 0 0 1 3.6-1 10.64 10.64 0 0 1 2.92.38 5.9 5.9 0 0 1 2.31 1.23 5.65 5.65 0 0 1 1.5 2.21 9 9 0 0 1 .54 3.29v13.36h-5.46V16.2q0-1-.08-1.89a4 4 0 0 0-.42-1.54 2.57 2.57 0 0 0-1-1 3.69 3.69 0 0 0-1.83-.38 3.5 3.5 0 0 0-1.87.44 3.2 3.2 0 0 0-1.12 1.15 4.63 4.63 0 0 0-.54 1.62 12.38 12.38 0 0 0-.13 1.83v11.04h-5.46V14.56a4.91 4.91 0 0 0-.33-1.6 2.46 2.46 0 0 0-1-1.17 3.63 3.63 0 0 0-2-.44 4.08 4.08 0 0 0-1 .17 3.38 3.38 0 0 0-1.23.65 3.81 3.81 0 0 0-1 1.39 5.61 5.61 0 0 0-.42 2.37v11.54h-5.46V7.58zm36.52 15.12a5.6 5.6 0 0 0 6.39.37 3.43 3.43 0 0 0 1.46-1.75h4.81a9.13 9.13 0 0 1-3.54 5.12 10.42 10.42 0 0 1-5.77 1.56 11.36 11.36 0 0 1-4.23-.75 8.78 8.78 0 0 1-3.19-2.14 9.61 9.61 0 0 1-2-3.31 12.11 12.11 0 0 1-.71-4.23 11.61 11.61 0 0 1 .73-4.16 9.62 9.62 0 0 1 5.29-5.54 10.3 10.3 0 0 1 4.11-.87 9.46 9.46 0 0 1 4.42 1 8.83 8.83 0 0 1 3.1 2.64 10.83 10.83 0 0 1 1.75 3.77 14 14 0 0 1 .38 4.42h-14.35a5.52 5.52 0 0 0 1.35 3.87zm6.17-10.47a3.84 3.84 0 0 0-3-1.08 4.76 4.76 0 0 0-2.17.44 4.14 4.14 0 0 0-1.38 1.1 4 4 0 0 0-.73 1.39 6.22 6.22 0 0 0-.25 1.31h8.89a6.32 6.32 0 0 0-1.35-3.16zm16.41-4.65v2.77h.12a6.26 6.26 0 0 1 2.69-2.52A7.79 7.79 0 0 1 368.3 7a9.28 9.28 0 0 1 3.6.6 5.34 5.34 0 0 1 2.21 1.65 6.39 6.39 0 0 1 1.13 2.58 16.05 16.05 0 0 1 .33 3.37v12.27h-5.46V16.24a7 7 0 0 0-.77-3.67 3 3 0 0 0-2.73-1.21 3.78 3.78 0 0 0-3.23 1.33 7.38 7.38 0 0 0-1 4.37v10.41h-5.46V7.58zM113 52.32c.78 0 2.46-.08 3.68-.08 3.34 0 4.42 1.52 4.42 3.46a3.28 3.28 0 0 1-2.73 3.3c2 .24 3.26 1.4 3.26 3.36 0 2.8-2.14 4-5 4-1.2 0-2.84 0-3.66-.08zm1.1 1v5.32h2.72c1.74 0 3.18-1 3.18-2.74s-1.06-2.64-3.36-2.64c-.87.02-1.99.06-2.55.08zm0 6.3v5.6c.56 0 1.72.08 2.6.08 2.4 0 3.84-1 3.84-3 0-1.72-1.36-2.68-3.78-2.68zM129 66.3v-14h3.36c3.82 0 4.9 1.9 4.9 4a4 4 0 0 1-3.26 3.9l4.9 6.1h-1.36l-4.66-5.88h-2.72v5.88zm1.1-13v6h2.42c1.78 0 3.58-1.22 3.58-3.08 0-1.7-1-3-3.8-3zm19.21-1.12h.9l6.1 14.12h-1.18l-2-4.76h-6.72l-2 4.76h-1.12zm-2.5 8.32h5.82l-2.9-6.8zM166 66.42h-.78l-6-14.12h1.18l5.26 12.44 5.12-12.44h1.12zm12-14.12h7.74v1h-6.64v5.34h6v1h-6v5.54h6.9v1h-8zm31.27 3.32c0-2 1.5-3.5 4.1-3.5a5.16 5.16 0 0 1 3.76 1.42l-.6.82a4.22 4.22 0 0 0-3.12-1.2c-1.84 0-3 1-3 2.46 0 3.92 7.24 2.32 7.24 7.18 0 2.24-2 3.68-4.46 3.68-1.66 0-3.6-.76-4.3-2l.66-.76a4.71 4.71 0 0 0 3.62 1.74c1.72 0 3.32-.9 3.32-2.62.02-3.98-7.22-2.54-7.22-7.22zm13.38-3.32h11.46v1h-5.18v13h-1.1v-13h-5.18zm20.35-.12h.9L250 66.3h-1.18l-2-4.76h-6.72l-2 4.76h-1.12zm-2.5 8.32h5.82l-2.9-6.8zm15.87 5.8v-14h3.36c3.82 0 4.9 1.9 4.9 4a4 4 0 0 1-3.32 3.9l4.9 6.1h-1.36l-4.66-5.88h-2.72v5.88zm1.1-13v6h2.42c1.78 0 3.58-1.22 3.58-3.08 0-1.7-1-3-3.8-3zm12.26-1h11.46v1H276v13h-1.1v-13h-5.18zm16.8 3.32c0-2 1.5-3.5 4.1-3.5a5.16 5.16 0 0 1 3.76 1.42l-.6.82a4.22 4.22 0 0 0-3.12-1.2c-1.84 0-3 1-3 2.46 0 3.92 7.24 2.32 7.24 7.18 0 2.24-2 3.68-4.46 3.68-1.66 0-3.6-.76-4.3-2l.66-.76a4.71 4.71 0 0 0 3.62 1.74c1.72 0 3.32-.9 3.32-2.62.02-3.98-7.22-2.54-7.22-7.22zm42.04 4.06h-8.74v6.62h-1.1v-14h1.1v6.34h8.74V52.3h1.1v14h-1.1zm9.24-7.38h7.74v1h-6.64v5.34h6v1h-6v5.54h6.84v1h-7.94zm15.19 14v-14h3.36c3.82 0 4.9 1.9 4.9 4a4 4 0 0 1-3.32 3.9l4.9 6.1h-1.36l-4.66-5.88h-2.72v5.88zm1.1-13v6h2.42c1.78 0 3.58-1.22 3.58-3.08 0-1.7-1-3-3.8-3zm15.23-1h7.74v1h-6.64v5.34h6v1h-6v5.54h6.84v1h-7.94zM56.71 27.93V.17h15.64c7.83 0 12.59 3.36 14.15 10.1a16.19 16.19 0 0 1-.56 9.47c-1.62 4.33-5.15 6.83-10.13 7.74a31.93 31.93 0 0 1-5.27.46c-4.24.06-8.47 0-12.71 0zm9.77-7.15c1.62 0 3.14.09 4.65 0 3-.22 5.06-1.65 5.64-4.28a12.33 12.33 0 0 0 .06-4.7 5.23 5.23 0 0 0-3.78-4c-2.12-.73-4.33-.54-6.56-.52zM29.67.18h25v7.06h-15.8v3.43h15.77v6.63H38.89v3.5h15.78v7.07h-25zM0 .17h27v7.08h-8.73v20.63h-9.6V7.29H0zM87.84.11h6.69a1.28 1.28 0 0 1 .86.48c.8 1.14 1.54 2.31 2.39 3.6.83-1.19 1.63-2.33 2.36-3.49a1.22 1.22 0 0 1 1.21-.6h6.48L105 3.69c-1.09 1.38-2.17 2.76-3.31 4.11a.87.87 0 0 0 0 1.32c2 2.42 3.87 4.86 5.8 7.3.17.22.33.45.59.81h-6.94c-.23 0-.52-.29-.67-.5-.89-1.22-1.75-2.46-2.69-3.8-.91 1.32-1.74 2.56-2.62 3.77a1.32 1.32 0 0 1-.84.54h-6.75c.22-.32.36-.55.53-.76C90 14 92 11.55 94 9.11a.87.87 0 0 0 0-1.31c-2-2.32-3.81-4.67-5.68-7-.14-.18-.25-.37-.48-.69zM12.31 37.93V36.6h6.29v1.33zm0 2.67v-1.34h6.29v1.34zm11.07-6.3v-1.45h1.77v1.45zm1.77 1v6.44h-1.77V35.3zm3.08 0v.9a2 2 0 0 1 .87-.82 2.53 2.53 0 0 1 1.1-.26 3 3 0 0 1 1.17.19 1.73 1.73 0 0 1 .72.54 2.07 2.07 0 0 1 .37.83 5.19 5.19 0 0 1 .11 1.09v4h-1.75v-3.66a2.26 2.26 0 0 0-.25-1.19 1 1 0 0 0-.88-.39 1.23 1.23 0 0 0-1 .43 2.39 2.39 0 0 0-.32 1.42v3.38h-1.82V35.3zm10.28 5.62a1.82 1.82 0 0 1-.82.75 2.7 2.7 0 0 1-1.14.23 2.77 2.77 0 0 1-1.27-.28 2.56 2.56 0 0 1-.9-.76 3.42 3.42 0 0 1-.54-1.1 4.62 4.62 0 0 1-.18-1.3 4.34 4.34 0 0 1 .18-1.25 3.24 3.24 0 0 1 .54-1.07 2.68 2.68 0 0 1 .89-.74 2.65 2.65 0 0 1 1.25-.28 2.53 2.53 0 0 1 1.09.24 1.9 1.9 0 0 1 .82.72v-3.23h1.77v8.9h-1.66v-.82zm-.07-3.18a1.87 1.87 0 0 0-.26-.65 1.44 1.44 0 0 0-.47-.46 1.36 1.36 0 0 0-.72-.17 1.43 1.43 0 0 0-.74.17 1.38 1.38 0 0 0-.48.46 2 2 0 0 0-.26.65 3.54 3.54 0 0 0-.08.77 3.27 3.27 0 0 0 .09.75 2 2 0 0 0 .28.67 1.54 1.54 0 0 0 .49.47 1.31 1.31 0 0 0 .7.18 1.4 1.4 0 0 0 .73-.17 1.33 1.33 0 0 0 .47-.47 2.1 2.1 0 0 0 .25-.67 4 4 0 0 0 .07-.77 3.83 3.83 0 0 0-.07-.76zm5.01 2.46a1.81 1.81 0 0 0 2.07.12 1.11 1.11 0 0 0 .47-.57h1.56a3 3 0 0 1-1.15 1.66 3.38 3.38 0 0 1-1.87.5 3.68 3.68 0 0 1-1.37-.24 2.84 2.84 0 0 1-1-.69 3.11 3.11 0 0 1-.65-1.07 3.93 3.93 0 0 1-.23-1.37 3.76 3.76 0 0 1 .24-1.35 3.12 3.12 0 0 1 1.71-1.8 3.34 3.34 0 0 1 1.34-.26 3.06 3.06 0 0 1 1.43.32 2.87 2.87 0 0 1 1 .85 3.52 3.52 0 0 1 .57 1.22 4.55 4.55 0 0 1 .09 1.48H43a1.79 1.79 0 0 0 .45 1.2zm2-3.39a1.24 1.24 0 0 0-1-.35 1.54 1.54 0 0 0-.7.14 1.33 1.33 0 0 0-.45.36 1.29 1.29 0 0 0-.24.45 2 2 0 0 0-.08.42h2.88a2.05 2.05 0 0 0-.41-1.02zm4.94-1.51v.82a2 2 0 0 1 .82-.76 2.52 2.52 0 0 1 1.1-.24 2.79 2.79 0 0 1 1.31.29 2.7 2.7 0 0 1 .91.76 3.21 3.21 0 0 1 .54 1.1 4.91 4.91 0 0 1 .17 1.32 4.43 4.43 0 0 1-.17 1.25 3.16 3.16 0 0 1-.53 1.06 2.63 2.63 0 0 1-.89.74 2.68 2.68 0 0 1-1.24.27 2.51 2.51 0 0 1-1.1-.24 2.09 2.09 0 0 1-.83-.72V44h-1.77v-8.7zm2.3 5.11a1.43 1.43 0 0 0 .47-.46 1.88 1.88 0 0 0 .26-.65 3.87 3.87 0 0 0 .07-.76 3.57 3.57 0 0 0-.08-.76 2 2 0 0 0-.27-.67 1.51 1.51 0 0 0-.48-.47 1.34 1.34 0 0 0-.72-.18 1.37 1.37 0 0 0-.73.18 1.46 1.46 0 0 0-.47.47 1.94 1.94 0 0 0-.26.66 3.93 3.93 0 0 0-.07.77 3.57 3.57 0 0 0 .08.76 2 2 0 0 0 .26.65 1.51 1.51 0 0 0 1.93.46zm5.53-.21a1.81 1.81 0 0 0 2.07.12 1.11 1.11 0 0 0 .47-.57h1.56a3 3 0 0 1-1.15 1.66 3.38 3.38 0 0 1-1.87.5 3.68 3.68 0 0 1-1.37-.24 2.84 2.84 0 0 1-1-.69 3.11 3.11 0 0 1-.65-1.07 3.93 3.93 0 0 1-.28-1.38 3.76 3.76 0 0 1 .24-1.35A3.12 3.12 0 0 1 58 35.39a3.34 3.34 0 0 1 1.34-.26 3.06 3.06 0 0 1 1.43.32 2.87 2.87 0 0 1 1 .85 3.52 3.52 0 0 1 .57 1.22 4.55 4.55 0 0 1 .09 1.48h-4.65a1.79 1.79 0 0 0 .44 1.2zm2-3.39a1.24 1.24 0 0 0-1-.35 1.54 1.54 0 0 0-.7.14 1.33 1.33 0 0 0-.45.36 1.29 1.29 0 0 0-.24.45 2 2 0 0 0-.08.42h2.88a2.05 2.05 0 0 0-.41-1.02zm4.94-1.51v.9a2 2 0 0 1 .87-.82 2.53 2.53 0 0 1 1.1-.26 3 3 0 0 1 1.17.19 1.73 1.73 0 0 1 .72.54 2.07 2.07 0 0 1 .37.83 5.19 5.19 0 0 1 .11 1.09v4h-1.75v-3.66a2.26 2.26 0 0 0-.25-1.19 1 1 0 0 0-.88-.39 1.23 1.23 0 0 0-1 .43 2.39 2.39 0 0 0-.32 1.42v3.38h-1.82V35.3zm10.28 5.62a1.82 1.82 0 0 1-.82.75 2.7 2.7 0 0 1-1.14.23 2.77 2.77 0 0 1-1.27-.28 2.56 2.56 0 0 1-.9-.76 3.42 3.42 0 0 1-.54-1.1 4.62 4.62 0 0 1-.18-1.3 4.34 4.34 0 0 1 .18-1.25 3.24 3.24 0 0 1 .54-1.07 2.68 2.68 0 0 1 .89-.74 2.65 2.65 0 0 1 1.25-.28 2.53 2.53 0 0 1 1.09.24 1.9 1.9 0 0 1 .82.72v-3.23h1.77v8.9h-1.66v-.82zm-.07-3.18a1.87 1.87 0 0 0-.26-.65 1.44 1.44 0 0 0-.47-.46 1.36 1.36 0 0 0-.72-.17 1.43 1.43 0 0 0-.74.17 1.38 1.38 0 0 0-.48.46 2 2 0 0 0-.26.65 3.54 3.54 0 0 0-.08.77 3.27 3.27 0 0 0 .09.75 2 2 0 0 0 .28.67 1.54 1.54 0 0 0 .49.47 1.31 1.31 0 0 0 .7.18 1.4 1.4 0 0 0 .73-.17 1.33 1.33 0 0 0 .47-.47 2.1 2.1 0 0 0 .25-.67 4 4 0 0 0 .07-.77 3.83 3.83 0 0 0-.07-.76zm5.01 2.46a1.81 1.81 0 0 0 2.07.12 1.11 1.11 0 0 0 .47-.57h1.56a3 3 0 0 1-1.15 1.66 3.38 3.38 0 0 1-1.87.5 3.68 3.68 0 0 1-1.37-.24 2.84 2.84 0 0 1-1-.69 3.11 3.11 0 0 1-.65-1.07 3.93 3.93 0 0 1-.23-1.37 3.76 3.76 0 0 1 .24-1.35 3.12 3.12 0 0 1 1.71-1.8 3.34 3.34 0 0 1 1.34-.26 3.06 3.06 0 0 1 1.43.32 2.87 2.87 0 0 1 1 .85 3.52 3.52 0 0 1 .57 1.22 4.55 4.55 0 0 1 .09 1.48h-4.65a1.79 1.79 0 0 0 .44 1.2zm2-3.39a1.24 1.24 0 0 0-1-.35 1.54 1.54 0 0 0-.7.14 1.33 1.33 0 0 0-.45.36 1.29 1.29 0 0 0-.24.45 2 2 0 0 0-.08.42h2.88a2.05 2.05 0 0 0-.41-1.02zm4.94-1.51v.9a2 2 0 0 1 .87-.82 2.53 2.53 0 0 1 1.1-.26 3 3 0 0 1 1.17.19 1.73 1.73 0 0 1 .72.54 2.07 2.07 0 0 1 .37.83 5.19 5.19 0 0 1 .11 1.09v4h-1.75v-3.66a2.26 2.26 0 0 0-.25-1.19 1 1 0 0 0-.88-.39 1.23 1.23 0 0 0-1 .43 2.39 2.39 0 0 0-.32 1.42v3.38h-1.82V35.3zm9.25 0v1.18h-1.3v3.19a.6.6 0 0 0 .75.75h.55v1.37a4.22 4.22 0 0 1-.5.05h-.54a5.2 5.2 0 0 1-.78-.06 1.87 1.87 0 0 1-.65-.22 1.16 1.16 0 0 1-.44-.46 1.65 1.65 0 0 1-.16-.79v-3.8h-1.07V35.3h1.07v-1.93h1.77v1.93zm2.66-2.45v8.9h-1.77v-8.9zM103 43.66a2.57 2.57 0 0 1-1.42.34h-1.12v-1.52h.51a3.6 3.6 0 0 0 .52 0 .69.69 0 0 0 .52-.28.88.88 0 0 0 .17-.52 1.06 1.06 0 0 0-.08-.4l-2.26-6h1.88l1.46 4.41 1.41-4.41h1.83l-2.69 7.24a2.18 2.18 0 0 1-.73 1.14zm7.6-6.53a2.94 2.94 0 0 1 1.72-1.76 3.68 3.68 0 0 1 1.37-.24 3.73 3.73 0 0 1 1.38.24 2.93 2.93 0 0 1 1.73 1.76 4 4 0 0 1 .24 1.4 3.9 3.9 0 0 1-.24 1.4 3 3 0 0 1-.67 1.07 2.94 2.94 0 0 1-1.05.68 3.81 3.81 0 0 1-1.38.24 3.76 3.76 0 0 1-1.37-.24 3 3 0 0 1-1-.68 3 3 0 0 1-.67-1.07 3.89 3.89 0 0 1-.24-1.4 4 4 0 0 1 .18-1.4zm1.61 2.16a2 2 0 0 0 .26.66 1.36 1.36 0 0 0 .48.47 1.47 1.47 0 0 0 .75.17 1.5 1.5 0 0 0 .75-.17 1.35 1.35 0 0 0 .49-.47 2 2 0 0 0 .26-.66 3.77 3.77 0 0 0 .07-.75 3.87 3.87 0 0 0-.07-.76 1.94 1.94 0 0 0-.26-.66 1.43 1.43 0 0 0-.49-.47 1.46 1.46 0 0 0-.75-.18 1.36 1.36 0 0 0-1.23.65 1.93 1.93 0 0 0-.26.66 3.87 3.87 0 0 0-.07.76 3.77 3.77 0 0 0 .07.74zm7.65-3.99v1.2a2.15 2.15 0 0 1 .34-.55 2.18 2.18 0 0 1 .49-.44 2.38 2.38 0 0 1 .59-.28 2.11 2.11 0 0 1 .65-.1 1.38 1.38 0 0 1 .39.06v1.65h-.64a1.89 1.89 0 0 0-.82.16 1.43 1.43 0 0 0-.54.44 1.78 1.78 0 0 0-.32.56 3.54 3.54 0 0 0-.09.81v2.9h-1.77V35.3zm8.91 6.92a2.18 2.18 0 0 1-.46.93 2.72 2.72 0 0 1-1 .73 4.36 4.36 0 0 1-1.77.3 4.17 4.17 0 0 1-1-.12 3.07 3.07 0 0 1-.9-.37A2.21 2.21 0 0 1 123 43a1.86 1.86 0 0 1-.31-.94h1.76a1 1 0 0 0 .49.69 1.75 1.75 0 0 0 .84.19 1.29 1.29 0 0 0 1.09-.45 1.77 1.77 0 0 0 .33-1.13v-.85a1.75 1.75 0 0 1-.82.75 2.64 2.64 0 0 1-1.12.24 2.82 2.82 0 0 1-1.26-.2 2.37 2.37 0 0 1-.86-.7 2.9 2.9 0 0 1-.49-1 4.9 4.9 0 0 1-.16-1.25 4 4 0 0 1 .18-1.2 3.15 3.15 0 0 1 .53-1 2.56 2.56 0 0 1 .87-.7 2.6 2.6 0 0 1 1.19-.26 2.49 2.49 0 0 1 1.12.24 1.93 1.93 0 0 1 .8.8v-.93h1.68v6a4.34 4.34 0 0 1-.09.92zm-2.42-2.14a1.38 1.38 0 0 0 .47-.4 1.77 1.77 0 0 0 .28-.57 2.35 2.35 0 0 0 .09-.67 3.62 3.62 0 0 0-.08-.75 1.88 1.88 0 0 0-.25-.63 1.29 1.29 0 0 0-.46-.44 1.45 1.45 0 0 0-.72-.16 1.3 1.3 0 0 0-.64.15 1.35 1.35 0 0 0-.45.41 1.72 1.72 0 0 0-.26.59 2.9 2.9 0 0 0-.08.69 3.5 3.5 0 0 0 .07.69 1.87 1.87 0 0 0 .24.62 1.4 1.4 0 0 0 .44.45 1.25 1.25 0 0 0 .69.17 1.41 1.41 0 0 0 .65-.16zm3.87-2.8a2.06 2.06 0 0 1 .31-1 2.12 2.12 0 0 1 .7-.66 3 3 0 0 1 1-.36 5.45 5.45 0 0 1 1.07-.11 7.26 7.26 0 0 1 1 .07 3 3 0 0 1 .91.27 1.8 1.8 0 0 1 .67.55 1.55 1.55 0 0 1 .26.94v3.35a6.74 6.74 0 0 0 0 .83 1.5 1.5 0 0 0 .17.6h-1.81a2.56 2.56 0 0 1-.12-.62 2.32 2.32 0 0 1-1 .61 4 4 0 0 1-1.17.17 3.19 3.19 0 0 1-.86-.11 2 2 0 0 1-.7-.35 1.63 1.63 0 0 1-.47-.6A2 2 0 0 1 130 40a1.87 1.87 0 0 1 .19-.9 1.62 1.62 0 0 1 .5-.57 2.22 2.22 0 0 1 .7-.32 7.64 7.64 0 0 1 .79-.17l.79-.1a4.54 4.54 0 0 0 .69-.11 1.2 1.2 0 0 0 .47-.22.48.48 0 0 0 .16-.42.93.93 0 0 0-.09-.46.68.68 0 0 0-.25-.26 1 1 0 0 0-.36-.12 2.86 2.86 0 0 0-.44 0 1.34 1.34 0 0 0-.82.22 1 1 0 0 0-.35.75zm4.09 1.31a.79.79 0 0 1-.28.16l-.36.09-.41.06-.42.06-.39.1a1.16 1.16 0 0 0-.34.17.79.79 0 0 0-.23.27.86.86 0 0 0-.09.41.84.84 0 0 0 .09.4.67.67 0 0 0 .24.25 1 1 0 0 0 .35.13 2.19 2.19 0 0 0 .41 0 1.56 1.56 0 0 0 .81-.17 1.16 1.16 0 0 0 .42-.42 1.34 1.34 0 0 0 .17-.49 3.44 3.44 0 0 0 0-.4zm4.82-3.29v.9a2 2 0 0 1 .87-.82 2.53 2.53 0 0 1 1.1-.26 3 3 0 0 1 1.17.19 1.73 1.73 0 0 1 .72.54 2.07 2.07 0 0 1 .37.83 5.19 5.19 0 0 1 .11 1.09v4h-1.77v-3.66a2.26 2.26 0 0 0-.25-1.19 1 1 0 0 0-.88-.39 1.23 1.23 0 0 0-1 .43 2.39 2.39 0 0 0-.32 1.42v3.38h-1.77V35.3zm5.76-1v-1.45h1.77v1.45zm1.77 1v6.44h-1.77V35.3zm4.34 1.34h-3.1V35.3h5.43v1.33L150 40.41h3.59v1.33h-5.92v-1.33zm5.41 3.56a1.81 1.81 0 0 0 2.07.12 1.11 1.11 0 0 0 .47-.57h1.56a3 3 0 0 1-1.15 1.66 3.38 3.38 0 0 1-1.87.5 3.68 3.68 0 0 1-1.37-.24 2.84 2.84 0 0 1-1-.69 3.11 3.11 0 0 1-.65-1.07 3.93 3.93 0 0 1-.23-1.37 3.76 3.76 0 0 1 .24-1.35 3.12 3.12 0 0 1 1.71-1.8 3.34 3.34 0 0 1 1.34-.26 3.06 3.06 0 0 1 1.43.32 2.87 2.87 0 0 1 1 .85 3.52 3.52 0 0 1 .57 1.22 4.55 4.55 0 0 1 .12 1.43H156a1.79 1.79 0 0 0 .41 1.25zm2-3.39a1.24 1.24 0 0 0-1-.35 1.54 1.54 0 0 0-.7.14 1.33 1.33 0 0 0-.45.36 1.29 1.29 0 0 0-.24.45 2 2 0 0 0-.08.42h2.88a2.05 2.05 0 0 0-.41-1.02zm7.84 4.11a1.82 1.82 0 0 1-.82.75 2.7 2.7 0 0 1-1.14.23 2.77 2.77 0 0 1-1.27-.28 2.56 2.56 0 0 1-.9-.76 3.42 3.42 0 0 1-.54-1.1 4.62 4.62 0 0 1-.18-1.3 4.34 4.34 0 0 1 .18-1.25 3.24 3.24 0 0 1 .54-1.07 2.68 2.68 0 0 1 .89-.74 2.65 2.65 0 0 1 1.25-.28 2.53 2.53 0 0 1 1.09.24 1.9 1.9 0 0 1 .82.72v-3.23H168v8.9h-1.68v-.82zm-.07-3.18a1.87 1.87 0 0 0-.26-.65 1.44 1.44 0 0 0-.47-.46 1.36 1.36 0 0 0-.72-.17 1.43 1.43 0 0 0-.74.17 1.38 1.38 0 0 0-.48.46 2 2 0 0 0-.26.65 3.54 3.54 0 0 0-.08.77 3.27 3.27 0 0 0 .09.75 2 2 0 0 0 .28.67 1.54 1.54 0 0 0 .49.47 1.31 1.31 0 0 0 .7.18 1.4 1.4 0 0 0 .73-.17 1.33 1.33 0 0 0 .47-.47 2.1 2.1 0 0 0 .25-.67 4 4 0 0 0 .07-.77 3.83 3.83 0 0 0-.08-.76zm6.06-3.25v-1.64h7.29v1.65h-2.67v7.25h-2v-7.26zm14.97-1.64v1.65h-4.7v1.9h4.31v1.52h-4.31v2.18h4.8v1.64h-6.76v-8.9zm5.26 0a4.59 4.59 0 0 1 1.6.27 3.49 3.49 0 0 1 1.28.82 3.8 3.8 0 0 1 .85 1.37 5.54 5.54 0 0 1 .31 1.93 6.17 6.17 0 0 1-.25 1.79 4 4 0 0 1-.75 1.42 3.54 3.54 0 0 1-1.26.94 4.26 4.26 0 0 1-1.78.34h-3.84v-8.9zm-.14 7.25a2.53 2.53 0 0 0 .82-.14 1.83 1.83 0 0 0 .71-.46 2.3 2.3 0 0 0 .5-.83 3.65 3.65 0 0 0 .19-1.25 5.21 5.21 0 0 0-.13-1.21 2.43 2.43 0 0 0-.43-.93 1.91 1.91 0 0 0-.79-.59 3.17 3.17 0 0 0-1.21-.21h-1.4v5.62zm10.67.1a1.81 1.81 0 0 0 2.07.12 1.11 1.11 0 0 0 .47-.57h1.56a3 3 0 0 1-1.1 1.66 3.38 3.38 0 0 1-1.87.5 3.68 3.68 0 0 1-1.37-.24 2.84 2.84 0 0 1-1-.69 3.11 3.11 0 0 1-.65-1.07 3.93 3.93 0 0 1-.23-1.37 3.76 3.76 0 0 1 .24-1.35 3.12 3.12 0 0 1 1.71-1.8 3.34 3.34 0 0 1 1.34-.26 3.06 3.06 0 0 1 1.43.32 2.87 2.87 0 0 1 1 .85 3.52 3.52 0 0 1 .57 1.22 4.55 4.55 0 0 1 .12 1.43h-4.69a1.79 1.79 0 0 0 .4 1.25zm2-3.39a1.24 1.24 0 0 0-1-.35 1.54 1.54 0 0 0-.7.14 1.33 1.33 0 0 0-.45.36 1.29 1.29 0 0 0-.24.45 2 2 0 0 0-.08.42h2.88a2.05 2.05 0 0 0-.41-1.02zm4.9 4.93l-2.21-6.44h1.86l1.36 4.4 1.36-4.4H214l-2.18 6.44zm6.78-1.54a1.81 1.81 0 0 0 2.07.12 1.11 1.11 0 0 0 .47-.57h1.56a3 3 0 0 1-1.15 1.66 3.38 3.38 0 0 1-1.87.5 3.68 3.68 0 0 1-1.37-.24 2.84 2.84 0 0 1-1-.69 3.11 3.11 0 0 1-.65-1.07 3.93 3.93 0 0 1-.23-1.37 3.76 3.76 0 0 1 .24-1.35 3.12 3.12 0 0 1 1.71-1.8 3.34 3.34 0 0 1 1.34-.26 3.06 3.06 0 0 1 1.43.32 2.87 2.87 0 0 1 1 .85 3.52 3.52 0 0 1 .57 1.22 4.55 4.55 0 0 1 .12 1.43h-4.65a1.79 1.79 0 0 0 .41 1.25zm2-3.39a1.24 1.24 0 0 0-1-.35 1.54 1.54 0 0 0-.7.14 1.33 1.33 0 0 0-.45.36 1.29 1.29 0 0 0-.24.45 2 2 0 0 0-.08.42h2.88a2.05 2.05 0 0 0-.41-1.02zm4.94-1.51v.9a2 2 0 0 1 .87-.82 2.53 2.53 0 0 1 1.1-.26 3 3 0 0 1 1.17.19 1.73 1.73 0 0 1 .72.54 2.07 2.07 0 0 1 .37.83 5.19 5.19 0 0 1 .11 1.09v4h-1.77v-3.66a2.26 2.26 0 0 0-.25-1.19 1 1 0 0 0-.88-.39 1.23 1.23 0 0 0-1 .43 2.39 2.39 0 0 0-.32 1.42v3.38h-1.77V35.3zm9.25 0v1.18h-1.3v3.19a.6.6 0 0 0 .75.75h.55v1.37a4.22 4.22 0 0 1-.5.05h-.54a5.2 5.2 0 0 1-.78-.06 1.87 1.87 0 0 1-.65-.22 1.16 1.16 0 0 1-.44-.46 1.65 1.65 0 0 1-.16-.79v-3.8h-1.07V35.3h1.07v-1.93h1.77v1.93zM.92 35.28h2.17a.41.41 0 0 1 .28.18c.26.43.5.87.77 1.36.27-.46.53-.89.76-1.32a.38.38 0 0 1 .39-.23h2.1l-.92 1.35c-.35.52-.7 1-1.07 1.55a.36.36 0 0 0 0 .5c.63.91 1.25 1.83 1.88 2.75l.19.31H5.22c-.08 0-.17-.11-.22-.19-.29-.46-.57-.93-.87-1.43-.29.5-.56 1-.85 1.42a.43.43 0 0 1-.27.2H.82c.07-.12.12-.21.17-.29.63-.93 1.26-1.86 1.9-2.78a.36.36 0 0 0 0-.49c-.61-.87-1.21-1.76-1.82-2.64z" data-name="Layer 1"/></svg>