<svg xmlns="http://www.w3.org/2000/svg" viewBox="0 0 100.21 72.36"><title>washingtonpost-black</title><g data-name="Layer 1-2"><path d="M11.49 26.33L14.71 23c.92 1 1.79 1.87 2.66 2.8a.74.74 0 0 1 .15.46v9a.67.67 0 0 1-.16.45q-2.53 2.29-5.08 4.63l-.14.06-3.56-3.05-2.75 3.1c-.8-.69-1.53-1.42-2.37-2a3 3 0 0 1-1.42-3.07 26.61 26.61 0 0 0 0-3.17A1.45 1.45 0 0 0 .21 33a2.42 2.42 0 0 1 1.87-3.46v-3.03a3.9 3.9 0 0 0-.69-2.77 1.83 1.83 0 0 1-.07-1.92 5.79 5.79 0 0 1 3.84-2.76l-.5.4a2 2 0 0 0-.24 3.21 3.14 3.14 0 0 1 1 2.46v1.12L8.44 23zm-5.06-.82a2.32 2.32 0 0 0-1.07 2c.08 2.63 0 5.25 0 7.88 0 .18 0 .43.11.53.78.64 1.53 1.29 2.41 2.08.2-.41.49-.73.49-1.05v-9a.82.82 0 0 0-.16-.51c-.56-.7-1.21-1.3-1.78-1.93zm6.24 0a2.09 2.09 0 0 0-1 1.76c.06 2.69 0 5.4 0 8.09a.79.79 0 0 0 .13.52c.75.69 1.53 1.36 2.36 2.08a3 3 0 0 0 0-.33V27.47A.82.82 0 0 0 14 27c-.44-.49-.91-1-1.38-1.46zm-.08 14.25c-1-.9-2-1.76-3-2.58a1.12 1.12 0 0 1-.45-1v-8.61A.92.92 0 0 0 9 27c-.67-.7-1.38-1.37-2.11-2.08l-.37.43c.6.59 1.15 1.16 1.74 1.68a1 1 0 0 1 .35.85v8.71a.84.84 0 0 0 .15.56c1.11 1 2.24 2 3.41 3zm1.9-1.86l.2.07a2.4 2.4 0 0 0 .31-.78v-10a.67.67 0 0 0-.11-.43c-.56-.6-1.14-1.18-1.74-1.79l-.45.51c.47.44.9.86 1.36 1.25a1.19 1.19 0 0 1 .42 1v10.19zm-12.19-6v4.3a1.66 1.66 0 0 0 .7 1.52c1 .75 1.88 1.59 2.85 2.41l.34-.45c-1-.9-2-1.75-3-2.64a1 1 0 0 1-.3-.65v-3.66c0-1.39-.19-1.53-1.59-1.27a1 1 0 0 0-.46.2 1.8 1.8 0 0 0-.29.4zm.3-11.33a2.39 2.39 0 0 0-.7 3.58 2.78 2.78 0 0 1 .38 1.29v3.76c0 .15.16.3.25.45.09-.14.26-.29.26-.43v-3.45a3.42 3.42 0 0 0-.65-2.27 1.46 1.46 0 0 1-.26-1.42c.26-.54.51-1.08.72-1.52zm31.64 37.31a1.77 1.77 0 0 0-2 1c-.83-1.37.2-3.14 2-3.42a16.54 16.54 0 0 0 0-2.69c-.07-.41-.62-.74-1-1.11l-.6.52-.13-.18 2.61-2.76c.8.73 1.57 1.43 2.32 2.15.1.09.1.32.11.48v1.85a1 1 0 0 0 .62-1v-2.44h.17v2.49l.15.06 3.39-3.58c1 .88 1.89 1.72 2.8 2.57a.64.64 0 0 1 .11.42v10.62a.75.75 0 0 1-.19.54c-1.39 1.07-2.8 2.12-4.2 3.17h-.06l-1.77-1.25-.14.12v5.08l-1.1-.95-3.06 2.77v-7a5.84 5.84 0 0 0-2.85 1.57 4.19 4.19 0 0 1 .84-2.56A12.58 12.58 0 0 1 33.88 63c.13-.11.33-.24.34-.37.03-1.58.02-3.15.02-4.75zm7.19 6a1.36 1.36 0 0 0 .06-.22V53.42a.61.61 0 0 0-.15-.41c-.46-.43-.94-.84-1.46-1.29-.39.41-.73.81-1.12 1.17a1.23 1.23 0 0 0-.4 1v8.67a4.74 4.74 0 0 1 3.08 1.34zm-3.3-10.22a1.17 1.17 0 0 0-.59 1.05v14.28a1 1 0 0 0 .59 1zm-3.66 18.16a.87.87 0 0 0 .54-.88V58.32c0-.42.32-1-.22-1.24a2.84 2.84 0 0 0-1.37 0 1.09 1.09 0 0 0-1 1.07 2.21 2.21 0 0 1 2-.47zm7.26-6.69l.21.09a2.27 2.27 0 0 0 .31-.76V53.17a.76.76 0 0 0-.11-.48c-.54-.54-1.11-1.05-1.69-1.59l-.4.45c.43.39.82.77 1.24 1.12a1.08 1.08 0 0 1 .43.93v11.57zm-8.42-13.61a9.46 9.46 0 0 0 .73.67 1 1 0 0 1 .43 1v2c0 .13.15.24.22.37.1-.12.27-.24.27-.37v-2.46a.67.67 0 0 0-.12-.43c-.37-.38-.77-.72-1.19-1.12zM38.41 65l2 1.3.43-.34a3.18 3.18 0 0 0-2.41-1.45zm-6.26 1a17.67 17.67 0 0 1 1.7-.71c.41-.13.47-.31.32-.7a3 3 0 0 0-2 1.4zM39.5 3.61c-2.24-.46-3.42.22-4.21 2.35a12 12 0 0 1 0-1.37 5.05 5.05 0 0 1 1.52-3.24A3.89 3.89 0 0 1 41.38.9c.65.31 1.3.63 2 .9a3.17 3.17 0 0 0 4-1 3.44 3.44 0 0 1-2.46 3.74c-.3.09-.41.21-.41.52v8.87a2 2 0 0 0 0 .22 6.48 6.48 0 0 0 2.77-3.09c0 .25 0 .51-.1.76a7.8 7.8 0 0 1-2.34 4.48 6 6 0 0 1-9.64-2.6A7.32 7.32 0 0 1 37.72 5zm3 1c-.85-.3-1.61-.59-2.38-.82a.63.63 0 0 0-.52.15 7.22 7.22 0 0 0-2.08 3.56 6.54 6.54 0 0 0 1.23 6 .75.75 0 0 0 .57.26.59.59 0 0 0 .48-.67V6.81a3.77 3.77 0 0 0 0-.41l-.67.28-.13-.14zM39.38 14a4.91 4.91 0 0 0 4.44.56.65.65 0 0 0 .52-.73V4.71h-1.62v7a.65.65 0 0 1-.4.67c-1 .51-1.94 1-3 1.59zm-2.3-8L37 5.91c-.09.12-.17.25-.27.36a7.26 7.26 0 0 0-.93 8.19 5.79 5.79 0 0 0 10 .56 1.13 1.13 0 0 0 .09-.24 1.78 1.78 0 0 0-.53.43 5.67 5.67 0 0 1-3.68 1.87 5.93 5.93 0 0 1-6-4.86A7.08 7.08 0 0 1 37.08 6zM47 2.18l-.12.09a3.41 3.41 0 0 1-3.14 1.6A11.72 11.72 0 0 1 40.43 3a8.35 8.35 0 0 0-2.15-.39 2.5 2.5 0 0 0-2.22 1.49 3.79 3.79 0 0 1 3.58-.67 15.85 15.85 0 0 1 1.71.57 6.3 6.3 0 0 0 2.91.5A3.07 3.07 0 0 0 47 2.18zm-7 11.17c.41 0 .52-.24.52-.6v-6.7c-.4 0-.49.22-.49.59v5.88c-.03.27-.03.54-.03.83zm.67 9.37v6.81L43 27.36l2.26 2 .49-.38c-.67.91-.29 1.92-.32 2.87-.05 2.06-.09 4.13 0 6.19A4.79 4.79 0 0 1 42.07 43c-.35.14-.72.22-1.08.34a1.38 1.38 0 0 1-.29 0c.28-.22.5-.37.7-.54a3.31 3.31 0 0 0 1.21-2.63v-8.81a1 1 0 0 0-.41-.93c-.36-.28-.68-.62-1-.94a1.05 1.05 0 0 0-.51 1v5.57a2.13 2.13 0 0 0 .81 2.1l-2.12 2.27-2.46-2.24c.06-.09.07-.15.11-.17a2.28 2.28 0 0 0 .87-2.24v-9.54a1.18 1.18 0 0 1 .34-.92c.76-.81 1.54-1.65 2.43-2.6zm-2.48 15.56a4.87 4.87 0 0 0 .42-1.28V25.31a1.06 1.06 0 0 0-.52 1.05v9.54c0 .85 0 1.65-.78 2.18 0 0 0 .06-.06.13l2.07 1.92.47-.37zm4.54 3.19a2 2 0 0 0 .63-1.54v-9.18a.73.73 0 0 0-.14-.47c-.47-.48-1-.93-1.48-1.42l-.45.41c.43.41.78.76 1.16 1.08a1 1 0 0 1 .39.9v7.37c0 .95-.07 1.9-.1 2.85zm6.67-23.72L47 15.54a1 1 0 0 1 .12-.22 2.45 2.45 0 0 0 .82-2.32V3.35a1.19 1.19 0 0 1 .28-.7C49 1.82 49.8 1 50.72 0v6.79h.13L53 4.59l2.32 2.11.48-.38c-.66.93-.28 2-.31 2.93-.06 2.06-.09 4.13 0 6.19.11 2.64-1.53 4.05-3.39 4.82a3.72 3.72 0 0 1-1.27.28 10.75 10.75 0 0 0 .86-.7 3.69 3.69 0 0 0 1-2.79v-8.3a1.15 1.15 0 0 0-.45-1c-.35-.27-.66-.6-1-.92a1 1 0 0 0-.51.92v6.24a1.27 1.27 0 0 0 .55 1.23 1.5 1.5 0 0 1 .25.3zm-.72-15.19a1.16 1.16 0 0 0-.59 1.12v9.63a2.32 2.32 0 0 1-.75 2.1v.13l2.05 1.89.42-.45-1.6-1.45a3.72 3.72 0 0 0 .47-1.18V2.54zm4 16.27a2.59 2.59 0 0 0 .7-2V8.07a.72.72 0 0 0-.14-.47c-.49-.49-1-1-1.55-1.46l-.37.45c.37.34.69.67 1 1a1.17 1.17 0 0 1 .45 1v7.94c0 .75-.08 1.49-.12 2.27zm15.68 26.33c-1.56-2.08-3.34-1.36-5.18-.61l3.53-4.11-2.52-2-.51.42-.13-.06c.74-.57.48-1.34.49-2v-5.21a1.18 1.18 0 0 1 .57-1.14c1.47-1 2.91-2.07 4.39-3.12l2.74 2.14.49-.38.08.1c-.52.46-.42 1.08-.42 1.67v7.43a2.94 2.94 0 0 0 .5 1.85 1.34 1.34 0 0 1 0 1.6 3.08 3.08 0 0 1-.58.72c-1.13.85-2.27 1.75-3.45 2.7zm.26-6.8a2.81 2.81 0 0 0 .41-.94v-6.27c0-.15 0-.35-.09-.43-.64-.55-1.31-1.07-2.09-1.7v6.23c0 1.91 0 1.91 1.55 3zm.39-.22L64.81 43c1.88-.87 3.66-1.1 5.29.39 1.1-.83 1.12-1.75.11-2.52l-.34-.24a1.57 1.57 0 0 1-.78-1.37c0-.35 0-.68-.07-1.14zm2.09 4h.18c0-.2.16-.45.1-.6a2.62 2.62 0 0 0-.65-1.05 2.26 2.26 0 0 1-.92-2v-6.91a1.93 1.93 0 0 0-1-2 6.1 6.1 0 0 1-1-.79c-.29-.25-.5-.19-.72.13.59.46 1.14.93 1.72 1.34a.92.92 0 0 1 .42.86v7.58a2.05 2.05 0 0 0 1 2 1.42 1.42 0 0 1 .86 1.48zm-3.87-2.35c-.72-.55-1.39-1.07-2.08-1.57a.79.79 0 0 1-.37-.73V30.6a.65.65 0 0 0-.54.7v6.54a.71.71 0 0 0 .18.49c.77.65 1.57 1.27 2.39 1.93zm1.58 4.69a2.86 2.86 0 0 0-4.12-.69 3 3 0 0 1 3.68 1zM91 27.26c.81.91 1.9 1.44 2.48 2.52l2.33-2.49 2.35 2.11.64-.48v.22c-.58.4-.55 1-.54 1.61v5.57a1.36 1.36 0 0 0 .56 1.28 6.4 6.4 0 0 1 .65.59l.62-.53.13.13-2.46 2.67c-.74-.67-1.45-1.29-2.13-1.94a.77.77 0 0 1-.15-.51v-6.65a1 1 0 0 0-.42-.93c-.33-.26-.63-.58-.93-.86a1.45 1.45 0 0 0-.76 1.43v5.62a1.3 1.3 0 0 0 .53 1.24 2 2 0 0 1 .3.34l-2.14 2.27-2.34-2.21v-.12a2.39 2.39 0 0 0 .85-2.27c-.05-1.53 0-3.06 0-4.59a1.14 1.14 0 0 0-.45-1c-.28-.22-.54-.47-.81-.73l-.52.45-.13-.12zm-1.6 2.07c.34.31.64.62 1 .9a1 1 0 0 1 .37.84v4.69c0 .9.2 1.86-.86 2.41l2.14 2 .39-.45-1.57-1.47a3.24 3.24 0 0 0 .42-1v-6.6a.73.73 0 0 0-.12-.47c-.43-.43-.9-.84-1.37-1.27zm4.78 0c.36.34.67.67 1 1a1.12 1.12 0 0 1 .42 1v6.54a.87.87 0 0 0 .14.57c.61.59 1.26 1.15 1.93 1.74l.39-.46c-.53-.47-1-.92-1.51-1.32a1 1 0 0 1-.4-.88v-6.59a.91.91 0 0 0-.13-.57c-.46-.48-1-.91-1.48-1.38zm-31.41 8.86l.58-.55.14.13L61 40.46c-.74-.67-1.46-1.3-2.15-2a.9.9 0 0 1-.13-.57V31.5a1.27 1.27 0 0 0-.52-1.2 8.6 8.6 0 0 1-.85-.78 1.49 1.49 0 0 0-.75 1.34v5.67a1.37 1.37 0 0 0 .56 1.28 2.3 2.3 0 0 1 .29.31L55.3 40.4 53 38.22c0-.09 0-.13.06-.15a2.31 2.31 0 0 0 .81-2.23V31.3a1.23 1.23 0 0 0-.51-1.14 8.71 8.71 0 0 1-.73-.67l-.53.46-.1-.12 2.37-2.58c.78.9 1.86 1.42 2.48 2.51l2.33-2.46 2.35 2.1.6-.45v.16c-.6.45-.55 1.08-.55 1.72v5.57a1.29 1.29 0 0 0 .53 1.19 8.11 8.11 0 0 1 .66.6zm-5.32-8.88a11.63 11.63 0 0 0 1 .93 1.24 1.24 0 0 1 .5 1.15v6.45a.88.88 0 0 0 .14.57c.62.59 1.27 1.15 1.92 1.73l.39-.45c-.51-.45-1-.9-1.48-1.31a1.05 1.05 0 0 1-.42-.92v-6.5a1 1 0 0 0-.14-.62c-.45-.48-1-.91-1.51-1.41zm-3.3 8.93a3.2 3.2 0 0 0 .43-1v-6.65a.65.65 0 0 0-.12-.42c-.43-.43-.9-.84-1.37-1.27l-.36.43c.33.31.62.61.94.86a1 1 0 0 1 .38.9v4.8c0 .86.14 1.74-.86 2.26l2.14 2 .38-.47zM28 38.19l.47-.37.1.11-2.33 2.52-2.43-2.23-2.18 2.23-2.69-2.35-.5.37c.61-1.23.27-2.42.32-3.58s0-2.41 0-3.61a.8.8 0 0 1 .38-.76c1.42-1 2.83-2 4.23-3a.45.45 0 0 1 .63 0c.8.65 1.62 1.27 2.43 1.89L27 29c-.69.9-.31 1.89-.35 2.82-.06 1.49 0 3 0 4.48a1.12 1.12 0 0 0 .43 1c.28.27.58.58.92.89zm-6.32-9.09a1.14 1.14 0 0 0-.08.25v7c0 .12 0 .28.07.34.58.53 1.17 1 1.85 1.64a3 3 0 0 0 .25-.75v-6.5c0-.15 0-.35-.11-.43-.66-.51-1.29-1.01-1.98-1.55zm4.9 10.6c-.58-.53-1.15-1-1.67-1.57a1.29 1.29 0 0 1-.34-.79c0-1.75-.1-3.51 0-5.26a2.57 2.57 0 0 0-1.34-2.81 2.34 2.34 0 0 1-.56-.45c-.32-.33-.58-.26-.83.12.55.43 1.07.88 1.63 1.27A1.14 1.14 0 0 1 24 31.3v6.39a.76.76 0 0 0 .1.48c.67.67 1.38 1.32 2.1 2zm-7-9.11c-.42.12-.56.31-.56.69v6.19a.72.72 0 0 0 .11.47c.8.74 1.63 1.46 2.48 2.22l.37-.42a16.15 16.15 0 0 0-1.46-1.29 2.21 2.21 0 0 1-1-2.13c.07-1.89.01-3.78.01-5.73zM80.17 38l-.43.35c.42-.58.24-1.22.24-1.83v-5.57a.84.84 0 0 1 .3-.58c1.28-.95 2.6-1.86 3.88-2.81a.57.57 0 0 1 .83 0c.87.72 1.77 1.4 2.67 2.11l.53-.45.06.12a2 2 0 0 0-.46 1.7v5.72a1 1 0 0 1-.33.67c-1.24 1-2.51 1.86-3.76 2.8a.39.39 0 0 1-.56 0c-.98-.72-1.97-1.46-2.97-2.23zm4.76.42a.87.87 0 0 0 .07-.18V31.1a.47.47 0 0 0-.1-.33c-.65-.54-1.32-1.06-2-1.6-.06.11-.09.14-.09.17v7.26a.51.51 0 0 0 .19.4c.6.45 1.24.92 1.92 1.43zm-4.17-8c-.38.15-.58.29-.57.67v6.34a.81.81 0 0 0 .28.55c.9.7 1.81 1.37 2.7 2.07.29.22.43.14.6-.14-.9-.72-1.81-1.4-2.67-2.13a1.08 1.08 0 0 1-.34-.72v-6.6zm4.45 8.4l.24.07a2.3 2.3 0 0 0 .31-.76v-7.32a.9.9 0 0 0-.28-.6c-.58-.51-1.21-1-1.79-1.46-.33-.28-.56-.24-.8.15.64.51 1.26 1 1.9 1.5a1 1 0 0 1 .45.9v7.5zM54.35 55.47c-.71.69-.43 1.52-.45 2.28v5.15a.93.93 0 0 1-.41.86q-1.82 1.31-3.6 2.66a.51.51 0 0 1-.72 0c-.95-.74-1.91-1.45-2.88-2.17l-.45.34c.5-.76.22-1.59.24-2.38v-4.9a.9.9 0 0 1 .45-.84q1.95-1.34 3.85-2.76a.42.42 0 0 1 .6 0c.72.58 1.48 1.12 2.18 1.72.4.34.73.63 1.19.04zm-5.46-.15v7.48a.41.41 0 0 0 .08.28l2.1 1.62v-7.42A.46.46 0 0 0 51 57zm0-.25c.67.53 1.31 1.05 2 1.54a.91.91 0 0 1 .4.82V65a.7.7 0 0 0 .57-.75v-7.32a.84.84 0 0 0-.27-.55c-.58-.51-1.21-1-1.79-1.47-.35-.23-.59-.25-.87.16zm-2.09 1.51c-.39.15-.57.33-.56.7v6.33a.8.8 0 0 0 .27.55c.9.7 1.81 1.37 2.7 2.06.25.19.42.16.59-.14-.8-.68-1.68-1.38-2.57-2.08a.91.91 0 0 1-.41-.81v-6.61zm7.08 9.85l1.71-2.51 1.76-2.54H55.1v-4.42a.85.85 0 0 1 .28-.59c1.23-.9 2.49-1.79 3.74-2.65a.5.5 0 0 1 .45-.06 3 3 0 0 0 3.32.1l-3 4.44h2.67v5.2a.78.78 0 0 1-.26.54q-1.75 1.27-3.54 2.49a.55.55 0 0 1-.51 0 2.89 2.89 0 0 0-4.1 0l-.16.09zm5.81-1.53v-4.4a7.08 7.08 0 0 1-.8 0 .9.9 0 0 0-1 .52 14.48 14.48 0 0 1-.89 1.27l-1.64 2.4c1.5-.84 2.9-1.09 4.33.21zm-1.78-9.58v3.14c0 .19.11.56.17.56.34 0 .82 0 1-.18.8-1 1.52-2.14 2.29-3.25-1.86.55-1.86.55-3.46-.27zm-2.07 5.23V56.3a.74.74 0 0 0-.56.8v4.1h1.85c.41 0 .57-.19.67-.6zm4.07 4.7c.41-.13.56-.33.55-.7v-4.48a2.18 2.18 0 0 0 0-.33c-1.59-.14-1.7-.11-1.84.55h1.34zm-2-10.4a2.4 2.4 0 0 0 3.37.44l.23-.2c-1.74.31-1.94.28-3.08-.59zm-2.59 10.63a2.92 2.92 0 0 1 2.76.59c.35.32.53.22.77-.06a2.63 2.63 0 0 0-3.53-.53z"/><path d="M36.93 27.43L33.82 32h2.67v5.21a.67.67 0 0 1-.18.49c-1.29.94-2.6 1.85-3.91 2.78a3.18 3.18 0 0 0-4.56-.21l3.46-5.06h-2.24a23.49 23.49 0 0 0 0-3 2.57 2.57 0 0 1 1.51-2.93 29.7 29.7 0 0 0 2.54-1.75.54.54 0 0 1 .47-.06 2.65 2.65 0 0 0 3.09.07zm-3.27 6.86a10.15 10.15 0 0 0-1.14 0 .77.77 0 0 0-.49.27c-.85 1.21-1.68 2.43-2.52 3.65a3.09 3.09 0 0 0-.17.39c1.51-1 2.91-1.18 4.32.06zm-1.76-1.38c.42-.07.92 0 1.08-.2.82-1 1.54-2.16 2.3-3.25A2.94 2.94 0 0 1 31.9 29zm2 6.15c.41-.17.58-.37.58-.77V33.4c-.69.33-1.49-.31-2 .66a8.35 8.35 0 0 0 .86 0c.47-.05.62.11.61.6v4.41zm-4.61-4.12h1.85c.41 0 .56-.19.66-.62h-2v-4.19l-.15-.06c-.13.21-.36.41-.37.63-.03 1.38-.02 2.77-.02 4.24zm6.22-6.09l-.64.13a2.3 2.3 0 0 1-2.13-.43c-.39-.34-.6-.2-.85.12a2.41 2.41 0 0 0 3.61.19zm-2.65 11a2.6 2.6 0 0 0-3.51-.57 3.1 3.1 0 0 1 3 .88zm29.89 15.61c.35-.52.61-.9.88-1.28a.34.34 0 0 1 .25-.14c.49.06.55-.22.49-.6a2.09 2.09 0 0 1 .76-2c.67-.62 1.28-1.34 2-2.12V54h2.12c-.43.95-.83 1.75-2.09 1.4v7.4a.77.77 0 0 0 .35.73c.38.26.73.56 1.12.86l.6-.52.12.12-2.45 2.67-2.39-1.89-.48.39c.66-.9.3-1.9.32-2.84v-6.86zM67.22 66c-.62-.5-1.17-1-1.74-1.39a.86.86 0 0 1-.37-.78v-8.34h-.56v8.81a.52.52 0 0 0 .14.36c.7.57 1.42 1.12 2.15 1.71zm-2.14-11.86v-2.22a1.87 1.87 0 0 0-.49 1.91c0 .11.26.17.49.3zm12.08-24.95v7.41a.82.82 0 0 0 .39.77c.37.25.71.53 1.09.82l.6-.52.11.11-2.46 2.67-2.4-1.89L74 39a.62.62 0 0 1-.06-.12 1.73 1.73 0 0 0 .41-1.46V29.3H72.9a1.8 1.8 0 0 1 1.45-1.49 10.54 10.54 0 0 1 0-1.25 1.46 1.46 0 0 1 .3-.77 28.27 28.27 0 0 1 2.5-2.5v4.1c0 .35.08.5.46.47s1.05 0 1.66 0c-.49.83-.84 1.71-2.11 1.33zm0 10.55c-.58-.47-1.14-.92-1.71-1.36a.91.91 0 0 1-.39-.82v-8.29h-.56v8.84a.45.45 0 0 0 .11.31c.71.58 1.44 1.15 2.18 1.73zm-2.14-12v-2.09c-.86.6-.39 1.4-.52 2.12zm-12.87-12.2L63.61 14l.16.16-3.36 3.58L57 15l-.47.38-.07-.11a2 2 0 0 0 .4-1.57V8.55a.8.8 0 0 1 .21-.55c1.47-1.1 3-2.17 4.46-3.25l.25-.14 2.51 4-.38.39L60 11.9a1.37 1.37 0 0 0 0 1.87zm-2.53-3.67l2.29-1.68-2.21-3.57h-.09zm1.06 5.21c-.88-.73-1.74-1.47-2.63-2.17a1.1 1.1 0 0 1-.47-1V7.93c-.42.15-.58.35-.58.74v5.77a.83.83 0 0 0 .27.57c.9.76 1.84 1.49 2.75 2.24.26.22.45.21.63-.16zm-.93-10.75l2.3 3.73.45-.32L60.17 6zm-7.83 31.89l.57-.52.12.12-2.43 2.62-2.26-2-.51.37c.7-.79.34-1.71.36-2.56V31.4a1.5 1.5 0 0 0-.59-1.4c-.18-.13-.34-.29-.53-.45l-.46.34-.1-.11 2.35-2.5 2 1.82.5-.4.13.06c-.8.69-.47 1.59-.48 2.4v5.26a1.08 1.08 0 0 0 .43 1 11.26 11.26 0 0 1 .9.8zm-1.4 1.51c-.54-.51-1.05-1-1.6-1.48a1 1 0 0 1-.37-.84v-6.75a.9.9 0 0 0-.14-.57c-.37-.4-.79-.75-1.22-1.14l-.39.42a6 6 0 0 0 .58.54 1.5 1.5 0 0 1 .62 1.41v6.39c0 .18 0 .43.11.53.67.64 1.34 1.25 2.06 1.89zm-3.26-14.61l2-2.08 2.14 2-2 2.08zm2.49 1.29l-1.84-1.69-.35.38 1.84 1.72z"/></g></svg>