<svg xmlns="http://www.w3.org/2000/svg" viewBox="0 0 447.38 323.07"><title>washingtonpost-black</title><g data-name="Layer 1"><path d="M51.29 117.54l14.4-15c4.11 4.3 8 8.37 11.89 12.52a3.29 3.29 0 0 1 .66 2.07q.06 20 0 40.07a3 3 0 0 1-.73 2q-11.28 10.51-22.66 20.9a2.87 2.87 0 0 1-.62.27l-15.9-13.63-12.26 13.84c-3.59-3.07-6.85-6.34-10.59-8.94-5-3.43-7.06-7.6-6.32-13.7.56-4.61.11-9.34.11-14.14-3.64-.7-6.63-.24-8.33 3.63-2.72-7.57.6-13.7 8.33-15.43v-5.83c0-2.61-.12-5.23 0-7.83.25-4.47-.19-8.61-3.09-12.38-2-2.57-1.55-5.67-.31-8.57C8.15 92.14 16.57 85.93 23 85.08c-1 .79-1.62 1.27-2.23 1.77-4.12 3.38-6.34 9.36-1.07 14.33a14 14 0 0 1 4.31 11v5l13.69-14.29zm-22.57-3.64c-2.91 2.5-4.91 4.68-4.79 8.78.35 11.72.12 23.45.15 35.18 0 .8 0 1.91.51 2.35 3.31 3 6.75 5.91 10.61 9.24.9-1.85 2.19-3.27 2.2-4.71.16-13.41.1-26.83.06-40.24a3.64 3.64 0 0 0-.73-2.29c-2.57-2.81-5.28-5.5-8.01-8.31zm27.84 0c-2.69 2.26-4.48 4.21-4.4 7.86.28 12 .09 24.09.13 36.13a3.52 3.52 0 0 0 .58 2.33c3.35 3.09 6.82 6.05 10.53 9.29a13.36 13.36 0 0 0 .22-1.49q0-22.67-.06-45.34a3.68 3.68 0 0 0-.85-2.23c-1.98-2.21-4.07-4.33-6.15-6.53zm-.34 63.62c-4.61-4-9-7.84-13.44-11.54a5 5 0 0 1-2-4.28c.08-12.81 0-25.62 0-38.43a4.1 4.1 0 0 0-.56-2.58c-3-3.13-6.17-6.12-9.41-9.3l-1.66 1.93c2.69 2.63 5.14 5.16 7.76 7.52a4.58 4.58 0 0 1 1.58 3.8q-.07 19.44 0 38.89a3.73 3.73 0 0 0 .67 2.5c4.94 4.45 10 8.78 15.23 13.35zm8.47-8.3l.89.33c.48-1.16 1.36-2.32 1.37-3.49.09-15 .06-29.91 0-44.87a3 3 0 0 0-.49-1.91c-2.48-2.68-5.07-5.27-7.75-8l-2 2.26c2.11 1.95 4 3.86 6.07 5.56a5.32 5.32 0 0 1 1.86 4.64v43.49c-.03.67.02 1.34.05 2.01zm-54.43-26.86c0 6.8.14 13-.06 19.21-.09 2.91.6 5 3 6.85 4.35 3.35 8.41 7.09 12.73 10.78l1.54-2c-4.6-4-9.08-7.82-13.45-11.78a4.47 4.47 0 0 1-1.32-2.89c-.13-5.44 0-10.89-.06-16.34 0-6.19-.83-6.85-7.08-5.66a4.59 4.59 0 0 0-2.07.9 8.05 8.05 0 0 0-1.29 1.8zm1.35-50.57c-6 4.31-7 9.71-3.13 16a12.41 12.41 0 0 1 1.71 5.78c.22 5.59 0 11.2.13 16.79 0 .67.73 1.33 1.13 2 .41-.64 1.16-1.28 1.17-1.93.1-5.14-.11-10.28.11-15.41a15.25 15.25 0 0 0-2.88-10.15 6.51 6.51 0 0 1-1.15-6.36c.86-2.34 1.97-4.58 2.91-6.72zm141.27 166.62c-4.37-.81-7.2.87-9.15 4.32-3.69-6.11.91-14 9.12-15.27 0-4 .45-8.08-.2-12-.31-1.83-2.77-3.29-4.27-4.94l-2.7 2.34-.53-.52L156.79 220c3.56 3.26 7 6.37 10.38 9.59.44.42.45 1.41.47 2.14.05 2.65 0 5.3 0 8.26 1.9-1.2 2.87-2.34 2.77-4.41-.16-3.63 0-7.26 0-10.9h.74v11.1l.67.28 15.14-16c4.3 3.92 8.44 7.67 12.51 11.49a2.85 2.85 0 0 1 .49 1.88v47.22a3.36 3.36 0 0 1-.86 2.39c-6.2 4.78-12.48 9.45-18.75 14.14-.17.13-.41.16-.28.11l-7.9-5.56-.62.54v22.67l-4.89-4.24L153 323.07v-31.22c-5.14.88-8.79 3.66-12.71 7 .22-4.5 1.22-8.37 3.75-11.43 2-2.41 4.82-4.12 7.24-6.18.57-.49 1.49-1.09 1.5-1.64.13-7.01.1-14.06.1-21.19zM185 285.29a6.09 6.09 0 0 0 .26-1v-45.78a2.74 2.74 0 0 0-.66-1.83c-2.06-1.93-4.21-3.75-6.5-5.75-1.72 1.82-3.25 3.62-5 5.21a5.47 5.47 0 0 0-1.8 4.45c.07 12.12 0 24.23.06 36.35v2.36c5.19.63 9.83 2.02 13.64 5.99zm-14.76-45.73a5.22 5.22 0 0 0-2.64 4.7q.12 31.87 0 63.74a4.23 4.23 0 0 0 2.63 4.25zm-16.34 81.08a3.88 3.88 0 0 0 2.41-3.92c-.05-18.78 0-37.57-.11-56.35 0-1.86 1.42-4.54-1-5.53-1.75-.73-4.09-.27-6.12 0-2.61.37-3.9 1.92-4.36 4.76 2.68-2.6 5.78-2.57 9.14-2.09zm32.43-29.87l.94.4c.48-1.13 1.39-2.26 1.39-3.39.09-16.8.07-33.59 0-50.39a3.39 3.39 0 0 0-.47-2.16c-2.41-2.42-4.95-4.7-7.53-7.12l-1.77 2c1.92 1.73 3.68 3.42 5.55 5a4.84 4.84 0 0 1 1.9 4.13c-.08 15.72 0 31.44 0 47.17q-.01 2.19-.01 4.36zM148.7 230a42.24 42.24 0 0 0 3.28 3 4.56 4.56 0 0 1 1.94 4.29c-.15 2.89-.06 5.81.06 8.71 0 .56.65 1.09 1 1.64.43-.55 1.2-1.09 1.22-1.65.11-3.66.09-7.33 0-11a3 3 0 0 0-.53-1.91c-1.64-1.68-3.42-3.23-5.31-5zm22.77 60.23l8.84 5.79 1.93-1.54c-2.75-3.68-6-6.12-10.77-6.46zm-27.93 4.25a78.88 78.88 0 0 1 7.57-3.18c1.82-.56 2.11-1.39 1.45-3.11a13.49 13.49 0 0 0-9.01 6.27zm32.84-278.36c-10-2.07-15.29 1-18.8 10.48a53.63 53.63 0 0 1 0-6.11c.64-5.56 2.63-10.58 6.8-14.47 5.39-5 12.79-5.7 20.37-2 2.9 1.4 5.8 2.83 8.79 4 7.49 2.93 13 1.54 18-4.39 1.15 7.13-3.61 14.48-11 16.68-1.34.4-1.84.92-1.84 2.33v39.6a8.7 8.7 0 0 0 .16 1c6-3 9.39-8.08 12.37-13.79-.14 1.13-.22 2.27-.43 3.38-1.43 7.75-4.62 14.64-10.45 20-14.05 13-37 6.9-43.21-11.67-5.26-15.75-1.43-28.47 11.27-38.89 2.59-2.02 5.17-3.95 7.97-6.15zm13.43 4.56c-3.81-1.36-7.19-2.63-10.61-3.68a2.82 2.82 0 0 0-2.34.65c-4.46 4.47-7.94 9.57-9.32 15.83-2.15 9.74-1.26 18.93 5.5 26.84a3.33 3.33 0 0 0 2.56 1.14c1.36-.27 2.18-1.2 2.16-3-.12-9.35-.06-18.7-.07-28.06 0-.56-.11-1.13-.19-1.82l-3 1.23-.31-.62zm-14 41.87c4.76 3.89 13 4.8 19.83 2.49a2.92 2.92 0 0 0 2.33-3.27c-.09-12.73 0-25.46-.05-38.2 0-.8-.11-1.6-.18-2.51h-7v31.37a2.91 2.91 0 0 1-1.78 3c-4.37 2.29-8.65 4.67-13.18 7.12zm-10.24-35.69l-.5-.48c-.4.53-.76 1.1-1.21 1.59-10.18 11.06-9.32 25.87-4.13 36.55 7.46 15.36 32.07 21.17 44.65 2.49a5.06 5.06 0 0 0 .41-1.06 7.94 7.94 0 0 0-2.36 1.94c-4.66 4.38-9.68 8.13-16.41 8.37-13.16.47-24.25-8.49-27-21.72-2.1-10.21-.13-19.54 6.55-27.68zm44.31-17.14a2.22 2.22 0 0 0-.52.41c-3.28 5.15-8.09 7.18-14 7.14-5.29 0-9.93-2.36-14.83-3.81a37.28 37.28 0 0 0-9.61-1.72A11.18 11.18 0 0 0 161 18.3c4.93-4.13 10.37-4.39 16-3a70.75 70.75 0 0 1 7.62 2.56c4.2 1.59 8.45 2.69 13 2.22 6.8-.67 12.07-6.38 12.26-10.36zm-31.31 49.89c1.82-.22 2.34-1.08 2.33-2.67-.06-9.52 0-19 0-28.56 0-.43-.07-.86-.12-1.36-1.77.18-2.21 1-2.19 2.63.07 8.75 0 17.5 0 26.25-.02 1.21-.02 2.42-.02 3.71zm3 41.83v30.39l10.49-9.68 10.1 9.13 2.18-1.7c-3 4.05-1.29 8.59-1.41 12.82-.24 9.2-.42 18.43 0 27.62.56 12-6.82 18.44-15.08 21.76-1.56.63-3.2 1-4.81 1.53a6.15 6.15 0 0 1-1.29 0c1.26-1 2.24-1.63 3.14-2.4a14.77 14.77 0 0 0 5.38-11.74v-39.14a4.61 4.61 0 0 0-1.83-4.14c-1.62-1.25-3.05-2.75-4.6-4.18a4.71 4.71 0 0 0-2.29 4.49c.09 8.29 0 16.58 0 24.87 0 5.29 0 5.29 3.63 9.37l-9.47 10.14-11-10c.25-.4.31-.66.48-.77 3.7-2.42 3.93-6 3.88-10-.18-14.2 0-28.4-.1-42.59a5.25 5.25 0 0 1 1.53-4.09c3.66-3.68 7.1-7.46 11.07-11.69zm-11.08 69.49c.8-2.34 1.86-4 1.88-5.75.14-16.35.11-32.71.11-49.06 0-1-.13-2-.2-3.1-2 1.22-2.35 2.77-2.34 4.69.07 14.2 0 28.41.09 42.61 0 3.78.14 7.36-3.47 9.74-.11.07-.12.27-.26.58l9.24 8.56 2.11-1.66zm20.26 14.25a8.75 8.75 0 0 0 2.82-6.86c.08-13.66.05-27.31 0-41a3.24 3.24 0 0 0-.63-2.09c-2.08-2.13-4.29-4.13-6.63-6.34l-2 1.85c1.93 1.81 3.48 3.4 5.19 4.8a4.57 4.57 0 0 1 1.76 4c-.07 11 0 21.94-.06 32.92-.05 4.23-.31 8.49-.46 12.72zm29.81-105.94l-10.78-9.86c.24-.45.32-.8.53-1 3.48-2.59 3.78-6.15 3.72-10.17-.19-14.35-.11-28.71 0-43.07a5.31 5.31 0 0 1 1.25-3.14c3.46-3.88 7.07-7.62 11.15-12v30.32l.57.18 9.54-10L247 29.91l2.15-1.68c-2.93 4.16-1.25 8.76-1.37 13.07-.25 9.21-.39 18.44 0 27.64.51 11.8-6.83 18.1-15.12 21.52a16.6 16.6 0 0 1-5.68 1.25 48 48 0 0 0 3.83-3.12c3.45-3.42 4.4-7.77 4.39-12.45V39.05a5.15 5.15 0 0 0-2-4.58c-1.56-1.22-2.94-2.68-4.49-4.11a4.41 4.41 0 0 0-2.29 4.12q.14 13.93 0 27.87c0 2.34.42 4.19 2.47 5.49a6.71 6.71 0 0 1 1.11 1.32zm-3.22-67.79a5.17 5.17 0 0 0-2.65 5c.08 14.35 0 28.7.1 43 0 3.68-.2 7-3.37 9.39-.09.07-.08.27-.17.59l9.17 8.46 1.86-2-7.13-6.47c.86-2 2.11-3.64 2.12-5.25.14-15.73.07-31.46.06-47.19.01-1.71.02-3.44.02-5.52zm18 72.63c2.41-2.37 3.13-5.41 3.13-8.72V36.23a3.21 3.21 0 0 0-.62-2.09c-2.19-2.21-4.51-4.29-6.9-6.52l-1.64 2c1.63 1.53 3.07 3 4.67 4.33a5.23 5.23 0 0 1 2 4.56c-.09 11.82 0 23.63-.07 35.45-.02 3.34-.35 6.67-.54 10.13zm69.85 117.53c-6.95-9.29-14.89-6.08-23.13-2.72l15.77-18.33-11.24-9-2.29 1.88-.59-.29c3.32-2.54 2.14-6 2.19-9.12q.17-11.63 0-23.26a5.26 5.26 0 0 1 2.53-5.09c6.58-4.49 13-9.23 19.59-13.95l12.24 9.56 2.17-1.68.36.43c-2.3 2.07-1.87 4.81-1.87 7.45v33.16c0 3 .37 5.73 2.22 8.26a6 6 0 0 1 .07 7.13 13.74 13.74 0 0 1-2.59 3.2c-5.04 4.11-10.14 8.14-15.43 12.37zm1.18-30.36c.66-1.45 1.81-2.81 1.83-4.19.16-9.34.09-18.69.06-28 0-.65 0-1.58-.42-1.92-2.87-2.44-5.84-4.76-9.34-7.57v27.81c0 8.51 0 8.51 6.94 13.49.07 0 .15.02.93.38zm1.76-1l-18.77 21.73c8.38-3.88 16.33-4.9 23.6 1.73 4.93-3.69 5-7.81.47-11.23-.49-.37-1-.73-1.51-1.05a7 7 0 0 1-3.47-6.12c-.05-1.55-.18-3.04-.31-5.1zm9.34 18h.81c.17-.91.73-2 .43-2.68-.73-1.69-1.53-3.62-2.91-4.69a10.1 10.1 0 0 1-4.12-8.74c.08-10.29-.17-20.58.1-30.86.11-4-.61-7.09-4.38-9.11a27.24 27.24 0 0 1-4.54-3.52c-1.3-1.11-2.23-.87-3.21.6 2.62 2.07 5.07 4.16 7.69 6a4.11 4.11 0 0 1 1.87 3.84c-.06 11.29 0 22.57 0 33.86 0 3.74 1.09 6.67 4.45 8.71 2.34 1.43 4.34 3.34 3.82 6.59zm-17.29-10.49c-3.21-2.44-6.2-4.79-9.28-7a3.54 3.54 0 0 1-1.64-3.24c.07-9.42 0-18.85 0-28.27 0-.79-.07-1.59-.11-2.49-1.73.58-2.4 1.48-2.39 3.13.06 9.73 0 19.46 0 29.19a3.18 3.18 0 0 0 .81 2.2c3.45 2.9 7 5.67 10.68 8.6zm7.05 20.94c-5.13-6.32-12-7.5-18.41-3.09 6.51-2.14 12.16-1.16 16.44 4.63zm99.14-77c3.62 4.08 8.48 6.43 11.09 11.24l10.41-11.1 10.47 9.41 2.85-2.15c-.06.59 0 .9-.12 1-2.61 1.79-2.44 4.45-2.41 7.17.07 8.29.1 16.58 0 24.87 0 2.41.42 4.31 2.5 5.73a28.56 28.56 0 0 1 2.9 2.64l2.76-2.38.57.58-11 11.92c-3.3-3-6.46-5.77-9.5-8.68a3.43 3.43 0 0 1-.65-2.26c0-9.9-.08-19.8 0-29.7a4.66 4.66 0 0 0-1.86-4.13c-1.49-1.18-2.81-2.57-4.17-3.85a6.48 6.48 0 0 0-3.36 6.33c.2 8.36.15 16.73 0 25.09 0 2.33.34 4.19 2.36 5.54a8.8 8.8 0 0 1 1.35 1.51l-9.57 10.14-10.45-9.86c0-.27 0-.48.1-.54 3.5-2.55 3.94-6.1 3.8-10.14-.24-6.82-.15-13.66 0-20.49a5.1 5.1 0 0 0-2-4.53c-1.25-1-2.39-2.12-3.62-3.24l-2.3 2-.56-.52zm-7.13 9.23c1.52 1.4 2.86 2.78 4.35 4a4.26 4.26 0 0 1 1.66 3.76c-.09 7 0 14-.05 20.94 0 4 .89 8.29-3.82 10.74l9.57 9 1.74-2-7-6.57c.79-1.78 1.87-3.11 1.89-4.45.15-9.81.09-19.63.06-29.45a3.28 3.28 0 0 0-.54-2.11c-1.92-1.94-4-3.74-6.12-5.69zm21.33.1c1.6 1.51 3 3 4.62 4.32a5 5 0 0 1 1.89 4.35c-.09 9.73-.06 19.46 0 29.2a3.89 3.89 0 0 0 .61 2.53c2.74 2.64 5.63 5.12 8.6 7.77l1.73-2.06c-2.36-2.09-4.46-4.11-6.74-5.91a4.43 4.43 0 0 1-1.78-3.92q.08-14.71 0-29.43a4.05 4.05 0 0 0-.57-2.56c-2.07-2.13-4.33-4.06-6.63-6.17zm-140.3 39.49l2.58-2.45.63.58-11 12c-3.3-3-6.52-5.81-9.58-8.78a4 4 0 0 1-.59-2.56c0-9.52-.08-19 0-28.55 0-2.23-.36-4-2.3-5.34a38.38 38.38 0 0 1-3.79-3.48c-2.12 1.52-3.4 3.16-3.34 6 .2 8.44.15 16.88 0 25.32 0 2.44.47 4.32 2.51 5.72a10.26 10.26 0 0 1 1.31 1.38l-9.62 10.2-10.49-9.91c.14-.39.15-.59.25-.66 3.49-2.49 3.74-6 3.61-9.94-.22-6.75-.15-13.51 0-20.26a5.48 5.48 0 0 0-2.28-5.11 38.91 38.91 0 0 1-3.28-3l-2.37 2.05-.55-.56 10.56-11.53c3.48 4 8.3 6.34 11.06 11.2L264 121.85l10.49 9.39 2.66-2c.1.43.21.66.16.7-2.69 2-2.46 4.8-2.44 7.66.07 8.29.1 16.58 0 24.86 0 2.27.48 4 2.35 5.31a36.22 36.22 0 0 1 3.05 2.75zm-23.74-39.65A51.91 51.91 0 0 0 261 135c1.84 1.33 2.24 3 2.22 5.14-.08 9.59 0 19.19 0 28.78a3.91 3.91 0 0 0 .63 2.54c2.75 2.64 5.65 5.12 8.59 7.74l1.75-2c-2.28-2-4.38-4-6.63-5.87a4.71 4.71 0 0 1-1.88-4.11c.09-9.67.06-19.34 0-29a4.43 4.43 0 0 0-.64-2.78c-2-2.14-4.32-4.07-6.73-6.28zm-14.73 39.87c.78-1.75 1.88-3.08 1.9-4.43.14-9.9.08-19.8 0-29.7a2.89 2.89 0 0 0-.53-1.88c-1.94-1.92-4-3.73-6.12-5.67l-1.59 1.94c1.49 1.39 2.75 2.74 4.2 3.85a4.33 4.33 0 0 1 1.7 4c-.09 7.14-.07 14.27 0 21.41 0 3.82.62 7.79-3.83 10.11l9.57 9 1.7-2.1zm-116.86-.24l2.11-1.65.46.47-10.42 11.26-10.86-9.95-9.74 9.95-11.93-10.46-2.22 1.66c2.74-5.5 1.19-10.82 1.45-16 .26-5.36.11-10.74 0-16.11a3.56 3.56 0 0 1 1.69-3.41c6.36-4.42 12.63-9 18.89-13.52a2 2 0 0 1 3 .08c3.56 2.89 7.22 5.65 10.85 8.46l2.18-1.7c-3.08 4-1.39 8.45-1.55 12.6-.25 6.66 0 13.35-.11 20a5 5 0 0 0 1.94 4.36c1.49 1.21 2.81 2.6 4.26 3.96zm-28.16-40.58a5.11 5.11 0 0 0-.34 1.13v31.31c0 .52 0 1.23.33 1.51 2.57 2.36 5.21 4.64 8.28 7.34.51-1.48 1.11-2.41 1.12-3.35.07-9.67.05-19.34 0-29 0-.65-.07-1.56-.48-1.9-2.85-2.38-5.82-4.64-8.91-7.04zm21.88 47.33c-2.58-2.38-5.14-4.57-7.46-7a5.74 5.74 0 0 1-1.52-3.51c-.13-7.83-.44-15.68.06-23.47.35-5.59-.8-9.84-6-12.54a10.45 10.45 0 0 1-2.49-2c-1.45-1.49-2.58-1.16-3.69.55 2.44 1.92 4.77 3.92 7.28 5.65a5.07 5.07 0 0 1 2.32 4.8c-.11 9.51-.07 19 0 28.55a3.39 3.39 0 0 0 .44 2.15c3 3 6.15 5.89 9.37 8.94zm-31.45-40.66c-1.87.54-2.52 1.4-2.5 3.06.07 9.21 0 18.43.06 27.64a3.22 3.22 0 0 0 .5 2.12c3.59 3.32 7.28 6.54 11.07 9.91l1.66-1.87a72.1 72.1 0 0 0-6.52-5.76c-3.43-2.39-4.55-5.35-4.38-9.52.35-8.43.11-16.87.11-25.58zm270.71 33.13l-1.92 1.57c1.86-2.58 1.06-5.46 1.08-8.18.06-8.28 0-16.57.06-24.85a3.73 3.73 0 0 1 1.34-2.58c5.73-4.24 11.59-8.31 17.32-12.55 1.42-1 2.33-1.11 3.72.05 3.88 3.22 7.91 6.26 11.92 9.4l2.36-2a3.07 3.07 0 0 1 .28.52c-2.36 2.09-2.07 4.86-2.05 7.6 0 8.51.07 17 0 25.54a4.35 4.35 0 0 1-1.46 3c-5.53 4.25-11.21 8.31-16.78 12.51a1.76 1.76 0 0 1-2.57 0c-4.38-3.36-8.81-6.65-13.3-10.03zm21.24 1.86a3.9 3.9 0 0 0 .31-.79v-31.95a2.11 2.11 0 0 0-.44-1.46c-2.91-2.41-5.89-4.74-8.9-7.13-.26.48-.39.61-.39.74v32.41a2.26 2.26 0 0 0 .64 1.59c2.85 2.2 5.74 4.32 8.78 6.59zm-18.64-35.92c-1.69.66-2.57 1.31-2.56 3 .07 9.43 0 18.87.09 28.3a3.6 3.6 0 0 0 1.23 2.45c4 3.14 8.07 6.1 12.06 9.22 1.28 1 1.94.61 2.7-.64-4-3.2-8.07-6.26-11.92-9.52a4.83 4.83 0 0 1-1.54-3.22c-.12-9-.06-17.95-.05-26.92-.02-.77-.02-1.59-.02-2.67zm19.87 37.51l1.06.33c.48-1.13 1.36-2.25 1.37-3.38q.14-16.33 0-32.66a4 4 0 0 0-1.24-2.66c-2.59-2.27-5.4-4.3-8-6.53-1.47-1.25-2.49-1.08-3.57.65 2.85 2.26 5.62 4.55 8.49 6.7a4.5 4.5 0 0 1 2 4c-.09 9.66 0 19.32-.06 29q-.05 2.28-.05 4.54zm-137.71 74.49c-3.17 3.09-1.93 6.79-2 10.16-.13 7.67-.08 15.34 0 23a4.13 4.13 0 0 1-1.85 3.84q-8.13 5.83-16.09 11.89a2.29 2.29 0 0 1-3.36 0c-4.22-3.3-8.54-6.47-12.84-9.71l-2 1.53c2.24-3.4 1-7.11 1.09-10.61.17-7.28.1-14.57 0-21.86a4 4 0 0 1 2-3.75q8.69-6 17.21-12.31a1.89 1.89 0 0 1 2.77.06c3.23 2.59 6.59 5 9.75 7.69 1.77 1.41 3.25 2.71 5.32.07zM218.3 247v33.39a1.82 1.82 0 0 0 .36 1.27c3 2.34 6 4.62 9.37 7.24v-33.15a2.06 2.06 0 0 0-.49-1.44c-2.89-2.31-5.83-4.63-9.24-7.31zm.14-1.11c3 2.36 5.83 4.69 8.77 6.89a4.07 4.07 0 0 1 1.79 3.67c-.08 10-.05 20-.06 29.93v4c1.91-.66 2.56-1.64 2.55-3.36 0-10.9 0-21.8-.06-32.69a3.75 3.75 0 0 0-1.22-2.47c-2.6-2.26-5.4-4.31-8-6.55-1.43-1.2-2.52-1.25-3.77.58zm-9.35 6.75c-1.76.68-2.53 1.46-2.52 3.14.06 9.43 0 18.85.09 28.28a3.58 3.58 0 0 0 1.21 2.45c4 3.13 8.06 6.1 12.06 9.2 1.13.87 1.86.7 2.65-.64-3.89-3.07-7.75-6.19-11.69-9.2a4.06 4.06 0 0 1-1.83-3.63c.08-9 0-17.93 0-26.9.02-.81.02-1.62.02-2.71zm31.47 43.96c2.55-3.74 5.08-7.48 7.64-11.21s5-7.27 7.85-11.36H246v-8c0-3.92-.07-7.83.07-11.74a3.79 3.79 0 0 1 1.26-2.62c5.51-4 11.1-8 16.71-11.85a2.25 2.25 0 0 1 2-.28c4.81 3.54 9.61 2.79 14.83.43l-13.61 19.83h11.92v9.42c0 4.61.06 9.21-.05 13.82a3.47 3.47 0 0 1-1.15 2.43q-7.82 5.69-15.82 11.11a2.44 2.44 0 0 1-2.26 0c-6.48-5.09-11.76-5.16-18.31-.11a6.14 6.14 0 0 1-.72.42zm25.94-6.84v-19.63a31.63 31.63 0 0 1-3.56 0 4 4 0 0 0-4.46 2.3 64.64 64.64 0 0 1-3.89 5.69q-3.67 5.34-7.31 10.7c6.57-3.77 12.85-4.87 19.22.94zM258.56 247v14c0 .87.51 2.49.76 2.48 1.5 0 3.68.11 4.38-.79 3.59-4.63 6.79-9.55 10.24-14.53-8.25 2.49-8.25 2.49-15.38-1.16zm-9.22 23.36v-19c-1.88.74-2.57 1.79-2.49 3.59.14 2.91 0 5.83 0 8.74v9.36c3 0 5.62-.07 8.28 0 1.82.07 2.56-.84 3-2.68zm18.19 21c1.81-.6 2.48-1.47 2.46-3.13-.08-6.66 0-13.33 0-20a9.71 9.71 0 0 0-.22-1.47c-7.1-.63-7.61-.49-8.21 2.45h6zm-9.15-46.45a10.73 10.73 0 0 0 16.06 1.06c-7.77 1.39-8.68 1.23-13.75-2.65zM247 292.37c4.88-1.07 9-.38 12.33 2.65 1.56 1.41 2.38 1 3.42-.29-3.61-5.09-11.29-5.54-15.75-2.36z"/><path d="M164.87 122.47L151 142.68h11.92v23.26a3 3 0 0 1-.79 2.17c-5.76 4.18-11.6 8.25-17.47 12.39-6.55-6-13.19-6.4-20.34-.93L139.75 157h-10c0-4.62.45-9-.11-13.3-.81-6.16 1.2-10.17 6.73-13.1 4-2.13 7.55-5.24 11.36-7.82a2.4 2.4 0 0 1 2.12-.25c4.56 3.35 9.14 2.87 13.8.3a10 10 0 0 1 1.22-.36zm-14.62 30.64a45.33 45.33 0 0 0-5.11.06 3.42 3.42 0 0 0-2.17 1.22c-3.81 5.39-7.52 10.85-11.24 16.29a13.78 13.78 0 0 0-.78 1.73c6.75-4.59 13-5.29 19.3.29zm-7.82-6.17c1.87-.31 4.1 0 4.8-.91 3.64-4.68 6.89-9.65 10.28-14.53-5.35 2.26-10.32 2.36-15.08-1.81zm8.8 27.44c1.85-.77 2.61-1.63 2.57-3.42-.12-6.13 0-12.27 0-18.4v-3.45c-3.07 1.46-6.66-1.38-9.05 2.94a37.28 37.28 0 0 0 3.83 0c2.08-.24 2.79.5 2.73 2.66-.15 5.59-.05 11.19-.05 16.79-.04.87-.04 1.76-.04 2.88zM130.65 156c2.94 0 5.61-.09 8.26 0 1.84.08 2.5-.86 2.93-2.76H133v-18.71l-.67-.29c-.57.93-1.62 1.85-1.65 2.8-.1 6.19-.03 12.4-.03 18.96zm27.75-27.18l-2.84.57c-3.44.72-6.78.52-9.49-1.91-1.72-1.54-2.69-.91-3.79.52 4.55 5.06 11.04 5.47 16.12.83zm-11.82 49c-3.92-4.89-11.15-6.06-15.69-2.56 5.35-1.13 9.84.11 13.61 3.93zm133.56 69.79c1.58-2.32 2.71-4 3.91-5.7a1.52 1.52 0 0 1 1.1-.63c2.18.26 2.47-1 2.2-2.66-.6-3.65.72-6.4 3.41-8.89 3-2.79 5.71-6 9-9.46v20.88h9.46c-1.91 4.22-3.69 7.81-9.31 6.23v33a3.43 3.43 0 0 0 1.55 3.28c1.71 1.16 3.28 2.51 5 3.86l2.69-2.31.53.52-11 11.89-10.68-8.43-2.13 1.72c2.93-4 1.34-8.47 1.44-12.66.22-9.2.07-18.41.07-27.62v-3zm20 46.89c-2.75-2.22-5.21-4.29-7.78-6.22a3.86 3.86 0 0 1-1.66-3.48c.06-11.42 0-22.84 0-34.27v-2.94l-2.49.16v39.34a2.3 2.3 0 0 0 .64 1.61c3.13 2.56 6.33 5 9.62 7.63zm-9.58-52.8v-9.89c-2.09 1.47-3.19 5.67-2.19 8.53.16.51 1.14.74 2.18 1.35zm53.95-111.36v16.24c0 5.61.05 11.21 0 16.81a3.66 3.66 0 0 0 1.72 3.45c1.64 1.12 3.19 2.38 4.88 3.66l2.66-2.33.51.5-11 11.91-10.73-8.44-2.16 1.86c-.15-.3-.3-.53-.27-.55 2-1.81 1.86-4.14 1.85-6.54-.06-11.13 0-22.27 0-33.4v-2.85h-6.49c.44-3.21 3.37-6.33 6.49-6.65a47.07 47.07 0 0 1 .06-5.57 6.52 6.52 0 0 1 1.34-3.42 126.22 126.22 0 0 1 11.16-11.18v5.38c0 4.3.06 8.6 0 12.9 0 1.56.37 2.22 2.05 2.12 2.34-.13 4.7 0 7.42 0-2.25 3.84-3.82 7.76-9.49 6.1zm.14 47.1c-2.61-2.08-5.08-4.12-7.63-6.05a4.08 4.08 0 0 1-1.75-3.67c.08-11.42 0-22.84 0-34.25v-2.76h-2.49v39.47a2 2 0 0 0 .5 1.4c3.18 2.59 6.42 5.12 9.73 7.74zM335.11 124v-9.47c-3.82 2.68-1.74 6.25-2.33 9.47zm-57.62-54.62l6.51-6.79.72.71-15 16-15.31-12.17-2.09 1.71a3.63 3.63 0 0 1-.32-.47c2-2 1.81-4.49 1.79-7q-.06-11.52 0-23a3.59 3.59 0 0 1 1-2.56c6.58-4.91 13.25-9.7 19.9-14.52a12 12 0 0 1 1.11-.62l11.21 18c-.59.51-1.11 1-1.69 1.47q-8.79 6.51-17.59 13c-2.25 1.66-2.39 6.63-.21 8.37 3.23 2.58 6.48 5.13 9.97 7.87zM266.18 53l10.24-7.52-9.86-15.92-.38.2zm4.74 23.27C267 73 263.17 69.7 259.19 66.6a4.89 4.89 0 0 1-2.08-4.44c.11-8.12 0-16.25 0-24.37v-2.4c-1.88.66-2.59 1.58-2.57 3.32.07 8.58 0 17.17.08 25.75a3.71 3.71 0 0 0 1.21 2.54c4 3.41 8.2 6.66 12.27 10 1.18 1 1.99.95 2.82-.72zm-4.13-48l10.27 16.64 2-1.43-10.4-16.84zm-35 142.37l2.56-2.31.52.52L224 180.56l-10.07-9-2.26 1.63c3.13-3.51 1.51-7.65 1.62-11.43.21-7.21-.07-14.43.13-21.64a6.68 6.68 0 0 0-2.77-6.08c-.79-.6-1.51-1.29-2.35-2l-2.07 1.51-.43-.47 10.48-11.16 9.08 8.13 2.24-1.78.57.29c-3.58 3.1-2.08 7.09-2.16 10.73-.18 7.82 0 15.65-.09 23.48a4.82 4.82 0 0 0 1.94 4.35c1.37 1 2.58 2.29 3.93 3.52zm-6.25 6.75c-2.43-2.27-4.71-4.53-7.16-6.62a4.39 4.39 0 0 1-1.66-3.75c.07-10 .05-20.09 0-30.13a4 4 0 0 0-.64-2.53c-1.66-1.78-3.53-3.35-5.44-5.1l-1.76 1.89a26.65 26.65 0 0 0 2.6 2.42c2.21 1.57 2.85 3.58 2.8 6.28-.17 9.51-.08 19 0 28.52 0 .8 0 1.9.49 2.36 3 2.87 6 5.6 9.18 8.45zM211 112.15l8.74-9.3 9.54 8.71-8.84 9.29zm11.12 5.77l-8.2-7.53-1.58 1.71 8.2 7.68z"/></g></svg>