<svg xmlns="http://www.w3.org/2000/svg" viewBox="0 0 105.36 106"><defs><style>.cls-1{fill:#ef5035}</style></defs><title>webby-red</title><g id="Layer_2" data-name="Layer 2"><g id="Layer_1-2" data-name="Layer 1"><g id="Layer_2-2" data-name="Layer 2"><g id="Layer_1-2-2" data-name="Layer 1-2"><path class="cls-1" d="M53 106c-15.31-.27-28.11-5.7-38.47-16.61a52.27 52.27 0 0 1-13.39-25.6A50 50 0 0 1 .08 50.4a52.39 52.39 0 0 1 17.4-36.77A51.43 51.43 0 0 1 41 1.32 50.25 50.25 0 0 1 49.19.13 52 52 0 0 1 84.73 11 53 53 0 0 1 105 46.66a50.62 50.62 0 0 1 .32 8.82 53 53 0 0 1-37.85 48.36 45.69 45.69 0 0 1-9.64 1.84c-1.73.14-3.44.23-4.83.32zm51-54.77a50.47 50.47 0 0 0-1.74-11.56A51.45 51.45 0 0 0 55.53 1.51 50.52 50.52 0 0 0 37.4 3.75 51.62 51.62 0 0 0 50 104.48a50.45 50.45 0 0 0 19.8-2.88C90.43 94.2 104 74.94 104 51.23z"/><path class="cls-1" d="M102.52 53a50.41 50.41 0 0 1-33.3 47.5 49.57 49.57 0 0 1-18.76 2.87A50.4 50.4 0 1 1 100.26 38a50.67 50.67 0 0 1 2.26 15zm-12.63 0a37.47 37.47 0 1 0-37.45 37.64A37.62 37.62 0 0 0 89.89 53zm-45.6 44h-.11L44 94.19l-.78-.19-1.28 2.44h-.1l-.14-2.74-.94-.21.29 4.65.83.17L43.1 96h.13l.19 2.6.83.18 2.17-4.11-.93-.2zM16.08 81.79l4.34-1.65-.57-.78-2.54 1-.06-.09L19 78.11l-.51-.64-2.54 1-.07-.09 1.71-2.12-.59-.84-2.85 3.7.51.67 2.5-.9.06.09-1.61 2.13zM77.3 92.31l-1.09-1.88-1.16-2-.78.48 1.15 2-.1.08-2.51-1.27-.74.44 1.13 2 1.11 1.9.77-.48-1.2-2.11.12-.07 2.63 1.3zm-52.2-1.8l1.52 1a2.18 2.18 0 0 0 .33.18 1.17 1.17 0 0 0 1.76-.78 3.1 3.1 0 0 0-.07-.86c1.11-.33 1.47-1.27.69-2a16.63 16.63 0 0 0-1.71-1.26zm-3.95-3.2c.65.51 1.24 1 1.88 1.44a1 1 0 0 0 1.23 0 1.09 1.09 0 0 0 .51-1.14 2.22 2.22 0 0 0-.06-.34 1.15 1.15 0 0 0 1.22-.9 1.41 1.41 0 0 0-.64-1.39c-.39-.34-.78-.67-1.21-1zm33.32 10.58l.32-.29a1.49 1.49 0 0 0 .36-1.6 1.22 1.22 0 0 0-1.15-.9c-.67-.06-1.35 0-2 0v4.48l1-.05v-1.44h.51l.86 1.43 1-.08zm17.63-4.06a2.83 2.83 0 0 0-1-2 1.93 1.93 0 0 0-3.14 1 2.6 2.6 0 0 0 .74 2.47 1.81 1.81 0 0 0 2.17.47 1.93 1.93 0 0 0 1.23-1.94zM82.86 86l.45-.34 1.52.46.76-.72-1.74-.56v-.35a1.47 1.47 0 0 0-.85-1.54 1.33 1.33 0 0 0-1.61.31c-.43.39-.83.81-1.27 1.25l3 3.2.67-.63zM56.94 99.25a17 17 0 0 0 1.77-.25 2 2 0 0 0 1.44-2.54A2 2 0 0 0 58 94.64a14.62 14.62 0 0 0-1.68.2zM76.8 88a2.78 2.78 0 0 0 1.14 2 1.91 1.91 0 0 0 2.33.09 1.93 1.93 0 0 0 .73-2.17 2.81 2.81 0 0 0-1.17-1.58 1.82 1.82 0 0 0-2-.11 1.86 1.86 0 0 0-1 1.73zm-13.89 5.7l1.29 4.27.88-.28-.48-1.72 1.33-.41.55 1.71.88-.27-1.28-4.25-.88.25.48 1.72-1.33.38-.54-1.67zm25.79-15l.94-1.41-.64-.47-1 1.38-.73-.51 1.08-1.6-.69-.48L86 78l3.65 2.54 1.66-2.41-.7-.47-1.13 1.6zm-4 2.41l1.22-1.48-.65-.54-1.85 2.19 3.38 2.9 1.87-2.23-.67-.52-1.25 1.47-.75-.61L87.11 81l-.63-.54-1.11 1.28zm-62.18 2.53l.58-.54-2-2.09-3.21 3 2 2.15.59-.6-1.3-1.41.7-.75L21 84.77l.58-.64-1.15-1.25.65-.61zm25.87 11.25l-1.94 4.31.9.09.47-.92 1.44.13.29 1 .94.11-1.21-4.62zM38 92.4l-3 3.68.87.29.66-.77 1.39.51v1l.85.3v-4.73zM8.48 54.5l1.84-1.84L8.52 51l-1.84 1.7zm85.94-1.8l1.83 1.78L98 52.72l-1.79-1.8zM30.81 89c-.15 1.62.34 3.24-.92 4.56l.86.51a5.41 5.41 0 0 0 .37-.63 2.91 2.91 0 0 1 1.34-1.53c.56-.31 1.08-.7 1.67-1.1l-.89-.51-1.56 1.07v-1.91z"/><path class="cls-1" d="M56.13 44.13a4 4 0 0 0-.83-.31c-1.65-.23-3.31-.45-5-.62-1.33-.14-2.67-.2-4-.29a7.28 7.28 0 0 1-.9-.13l.12-1.32c1.15-.09 2.22-.15 3.27-.27q3.21-.35 6.41-.75a2.71 2.71 0 0 0 1-.41c-1.26-.89-2.76-.8-4.26-1.12l.91-1.14a15.78 15.78 0 0 1 5.28 1.16l.16.09c.4.25.8.51.8 1a1 1 0 0 1-.82 1c-1.11.37-2.23.67-3.35 1a.46.46 0 0 0-.26.13c.35.09.7.16 1 .27.78.24 1.55.48 2.32.75a2.82 2.82 0 0 1 .75.41.74.74 0 0 1 .09 1.27 4.12 4.12 0 0 1-1.33.79c-.84.29-1.72.48-2.66.73.64.15 1.24.25 1.81.44a12.07 12.07 0 0 1 2 .76c.86.45.86 1.08 0 1.62a8.87 8.87 0 0 1-3 1.11 4.79 4.79 0 0 0-1.1.33c.65.15 1.3.26 1.94.45a21.69 21.69 0 0 1 2.13.72 4 4 0 0 1 .8.56 1.27 1.27 0 0 1-.9 1.16c-1 .39-2 .7-3.07 1-.19.07-.4.1-.73.18.91.17 1.7.28 2.47.48a7.1 7.1 0 0 1 1.63.61c.82.45.89 1.22.12 1.74a9.94 9.94 0 0 1-2.08 1 15.86 15.86 0 0 1-1.78.45c.83.19 1.52.31 2.17.51a10.84 10.84 0 0 1 1.47.54 1.52 1.52 0 0 1 1 1.82L57.2 63.2v.14l2.61-.34v.51L57 65l2.76-.4a21.6 21.6 0 0 1 0 2.88 1.62 1.62 0 0 1-.9 1 10.54 10.54 0 0 1-2.35.84 19.27 19.27 0 0 1-9.19-.17 10.27 10.27 0 0 1-2-.87 1.28 1.28 0 0 1-.69-1.3V64.7L47 65l-2.42-1.27V63l2.22.26v-.12l-2.22-1.1a1.48 1.48 0 0 1 .77-1.95 1.44 1.44 0 0 1 .2-1.66c.79-.08 1.66-.13 2.54-.24q3.26-.42 6.52-.89a8.53 8.53 0 0 0 1.38-.45v-.24a4.56 4.56 0 0 0-.89-.3c-1.1-.11-2.2-.26-3.34-.31-1.88-.12-3.76-.17-5.64-.25-.66 0-.93-.21-.93-.66s.3-.74.93-.8c1.56-.15 3.12-.25 4.68-.43s2.81-.4 4.21-.64a5.92 5.92 0 0 0 1.07-.4v-.23a6 6 0 0 0-1.08-.37c-1.47-.2-2.94-.38-4.42-.51-1.7-.16-3.42-.25-5.07-.37a.77.77 0 0 1-.32-1c.12-.35.42-.41.75-.44 2.23-.19 4.46-.37 6.68-.59.93-.1 1.86-.29 2.77-.47a4.23 4.23 0 0 0 .75-.29c-.17-.44-.51-.46-.8-.51-1.68-.18-3.37-.36-5.07-.51-1.37-.12-2.75-.18-4.13-.27l-.49-.06a.63.63 0 0 1-.56-.7.67.67 0 0 1 .61-.73c.87-.08 1.75-.1 2.63-.2q3.42-.41 6.83-.88a4.37 4.37 0 0 0 .94-.36zm13.18 25.81l.33-.3L78 77.8l-.3.33zm.69-.76l.29-.34L79 76.66l-.25.38zM38.6 33.36l-.35.28-6.81-9.51.33-.3zM28.9 79.8l-.36-.27 7.77-8.74.38.25zM69.26 36l-.26-.35 8.11-8.39.32.3zm-.71 34.68l.33-.3 8 8.55-.3.33zm4.77 11.23l-.38.24-6.79-9.49.33-.3zm.26-57.68l.34.29-7 9.38-.37-.26zM68.29 21l.4.2-5.27 10.45-.4-.2zM81 74.28l-.29.34-9.33-7 .27-.36zM70.69 37.53l-.3-.33 8.89-7.7.27.36zm-46.91-5.77l.28-.36 9.34 7-.25.37zm9 7.56l-.25.37-9.64-6.59.22-.39zm15.85-21.93h.44l1.16 11.66-.43.13zm12.86 13.39l-.38-.2 4.3-10.85c.46.06.37.29.26.54l-1.16 2.91-2.79 7a4.27 4.27 0 0 1-.23.6zM35.6 70.06l.33.29-8.11 8.4-.33-.29zm32.18 1.3l.34-.29L75.78 80l-.36.26zM64 19.14l.42.13-3.9 11.12-.41-.19zM24.71 30.56l.27-.35 9 7.42-.27.36zM70 36.75l-.3-.33 8.56-8.08.27.36zm-33.79-1.41l-.34.29-8-8.59.35-.27zm.79-.68l-.33.29L29 26l.34-.29zM22.82 72.79l-.22-.39 9.74-6.4.26.36zm20.56 2.41l.37.21-4.31 10.81c-.39 0-.41-.18-.3-.46.28-.67.54-1.35.81-2l3.15-7.95c.09-.21.19-.4.28-.61zm27.33-6.81l.3-.33 9 7.42-.26.36zm-35.47 15.9l-.39-.21 5.72-10.24.39.22zM81.88 73l-.24.38L72 66.76l.25-.37zM23.7 74.08l-.26-.37 9.45-6.84.3.33zm2.99 3.55l-.33-.3 8.5-8 .33.3zm4.61-13.47l.17.42-10.25 5.52-.22-.37zm45.06-11.64L88 52.37v.44L76.29 53zM25.65 76.51l-.31-.32 8.83-7.66.3.33zm-8.12-30.58l.11-.43L29 47.88v.46zM33.51 67.7l.31.32-9.17 7.26-.31-.28zm33.34-47.41l.4.2-4.78 10.65-.42-.14zM30.23 25l.36-.26L37.78 34l-.33.3zm44.54.18l.36.27-7.37 9.07-.38-.24zM76 26.21l.34.29-7.84 8.81-.3-.33zm-40.53 9.91l-.32.31-8.43-8.27.34-.29zm44.79-5.38l.28.35-9.16 7.24-.3-.33zm-7.7 9.33l-.25-.37L82 33.29l.3.34zm-12.5 35.69l3.62 11.1c-.29.21-.43.14-.51-.15-.22-.72-.47-1.43-.7-2.14l-2.82-8.67zM31.67 41.08l-.22.39-10.18-5.73.19-.41zm-.49.92l-.23.39-10.36-5.28.13-.44zm34.09 31.24l.36-.26L72 82.81l-.39.22zM45.3 75.93l.43.1-3.36 11.21h-.45zm13.34.22l.44-.09 3.16 11.27-.42.16zm-21.5-4.69l.35.28-7.38 9.08-.35-.28zm49.37-8.28l-.11.43-11.2-3.4.1-.44zM22 71.51l-.22-.39 10-6 .28.35zm22.34 4.06l.4.19-3.84 11-.43-.11zM62.5 18.7l.44.1L59.58 30h-.45zm10.8 45.87l10.21 5.76-.22.39L73.15 65zm-53.48 2.75l-.16-.42 10.7-4.61.22.39zM74 63.11l.23-.39 10.65 4.82-.23.42zM42.41 74.78l.4.21L38 85.67l-.42-.14zM68 85.14l-.41.17-5.05-10.57.4-.2zM38.18 20.17l.42-.17 4.56 10.77-.4.21zM74.55 81l-.34.28L67 72l.33-.3zm1.39-32.26l-.13-.39 11.48-2.2c.19.44-.07.47-.32.51l-4.43.85-6 1.18zM30.31 43.9l-.19.41L19.31 40l.14-.43zm43.3-2.03l-.23-.39L83.68 36l.23.39zm-.54-.87l-.21-.4 10-6 .25.37zm-40.86-.83l-.24.38-9.89-6.17.2-.4zm1.68 43.33l-.38-.23 6.14-10 .41.19zm.84-46.68l-.28.34-8.7-7.83L26 29zm36 46.81l-.37.25-6-10.1.37-.24zM32.74 23.2l.36-.27 6.38 9.81-.33.3zM71 22.49l.38.23-6.13 10-.41-.19zm-37-.14l.39-.22 5.94 10.05-.35.28zm30.3 9.8l-.39-.22 5.7-10.22.4.2zM38.8 72.72l.36.26-6.56 9.69-.36-.26zm24.68 1.58l.38-.23 5.49 10.32-.35.28zm-4.25 13.78l-.43.09-2.18-11.55h.45zM38 72.09l.35.28-7 9.39-.35-.27zM19.86 38.55l.22-.39L30.69 43l-.17.41zm65.14.2l.19.41-10.64 4.61-.24-.38zm-11 4.06l-.16-.42 10.5-5.07.19.4zm-55.28-1.38l.18-.43 11 3.86-.11.44zM81.17 32l.24.38-9.48 6.86-.29-.34zM17.86 44.39L18 44l11.25 2.88v.45zm57.88 3.39l-.1-.43 4.52-1.06 6.39-1.52c.24-.06.51-.2.58.31zM41.3 31.71l-.39.21-5.5-10.34.37-.25zm46.46 17.55l.09.43-11.61 1.17c-.11-.51.22-.47.47-.51L80.2 50zM36.75 20.88l.39-.22 5.07 10.57-.39.21zm39.53 31.05v-.44l11.64-.65v.45zm-32.16-21.5l-.42.16-4.11-11 .41-.17zm-27.2 24.82c-.1-.58.28-.47.51-.48 1.52-.1 3-.18 4.56-.26l6.26-.34h.27l.09.41zm59.22.83v-.45L87.73 57v.45zM59.93 18l-2.39 11.48c-.51 0-.4-.28-.34-.54l.8-4.05 1.36-6.49c.08-.2.05-.53.57-.4zm25.98 47.07l-11-3.88.11-.44 11 3.87zM51.73 17.21h.51v11.7h-.33zM41.08 19l.44-.08L45.13 30l-.4.2zm25.51 66.79l-.4.19-4.6-10.8L62 75zM46.15 29.78c-.46.2-.48-.07-.54-.29l-1.32-4.64-1.62-5.78c-.07-.24-.2-.51.29-.59zm19.03 56.59l-.42.15-4.13-11 .37-.12zM46.74 29.64l-2.66-11.42.36-.13a.82.82 0 0 1 .11.18L47 29c.1.24.28.56-.26.64zm25.92-6.09l-6.59 9.73-.36-.28 6.55-9.68zM46.38 76.2l.42.15-2.88 11.4-.42-.15zm11.25.24l.43-.11c.34 1.46.66 2.88 1 4.3l1.52 6.59c.05.22.24.51-.29.69zm-5.15.56H53v11.7l-.33.05zm22.4-32.27l-.19-.41 10.92-4.16.18.41zm-56.6-1.83l.13-.43 11.16 3.39-.1.44zm12.55 20.35l.2.4-10.5 5.07-.21-.4zM28.62 51v.45l-11.7-.85.05-.44zm55.61 18l-.2.4-10.41-5.31.15-.42zm1.28-2.86l-.19.41-10.83-4.37.15-.42zm-66.24-.24l-.18-.41L30 61.37l.24.39zm9.35-10.68v.45l-11.54 1.14-.1-.44zm20.8 21.63h.39a2 2 0 0 1 0 .36l-.51 4.41q-.37 3-.73 6.09a2.87 2.87 0 0 1-.11.61c0 .09-.18.13-.27.2l-.19-.08zM54 28.91l.86-11.58c.46-.13.43.14.41.37l-.16 2.37-.6 8.11a2.29 2.29 0 0 1-.07.56c0 .11-.18.19-.27.28zM18.28 62.94l-.19-.41 11.24-3.19.18.41zm54.27 2.94l.23-.38 9.93 6.19-.21.39zM58.59 29.76l-.43-.12L61 18.26l.42.13zm16.9 29.38l.12-.38h.31l10.48 2.69c.24.06.59 0 .41.56zm-58.25-.79v-.45l11.49-1.66v.44zm59-3.29v-.45l11.6.87v.44zm-59.37-1.33v-.47l11.62-.15v.44zM53.52 77H54l.65 11.7h-.44zM17.24 47.45l.11-.4L28.9 49c-.11.59-.47.37-.7.33-1.52-.23-3-.51-4.51-.73l-6.09-1zm68.94-5.79l.07.45-4.71 1.57-5.89 1.94c-.23.08-.51.25-.57-.27zM50 88.69l-.43-.09.83-11.6.45-.07zm6.16-.14c-.55.12-.47-.23-.51-.45-.11-.89-.18-1.79-.27-2.68Q55 81.73 54.65 78a6.26 6.26 0 0 1-.05-.87c0-.12.13-.23.2-.34h.18zM17.1 48.94v-.41l11.6 1.39c.06.51-.23.42-.47.4l-2.18-.26-8.39-1a4.9 4.9 0 0 1-.56-.12zm59 .91v-.45l11.49-1.66v.44zm10.62-6.3l-11.2 3.17-.17-.34a1.15 1.15 0 0 1 .23-.14l10.54-3c.25-.05.52-.19.6.31zM57.93 17.6l.43.13-1.87 11.51H56zm-1.01-.26c-.08.78-.13 1.39-.21 2q-.55 4.63-1.11 9.26c0 .24 0 .6-.51.51.06-.55.1-1.11.17-1.66q.55-4.66 1.11-9.32a1.63 1.63 0 0 1 .1-.51c.07-.08.22-.12.45-.28zm19.32 36.24l11.7.38c.11.45-.16.42-.38.42-.92 0-1.84 0-2.76-.07l-7.89-.26c-.25-.05-.61.12-.67-.47zM76 56.71l2.8.44 8.2 1.36c.23 0 .55 0 .43.46a2.47 2.47 0 0 1-.41 0l-10.61-1.75c-.19-.03-.52 0-.41-.51zm-47.1.6l.15.4-11.49 2.19c0-.45 0-.45.39-.51l4.36-.84 6-1.15c.18-.03.35-.05.59-.09zm58.36 2.84l-.07.44L75.8 58.2a.58.58 0 0 1 0-.19 1.45 1.45 0 0 1 .1-.25zm-58.17-1.82l.15.38-.4.14-5.35 1.26-5.17 1.21c-.24.06-.51.19-.57-.32zm.71 2.42l-11.08 3.66-.15-.41 1.2-.41 9.39-3.1c.25-.07.52-.28.64.26zm17.51 15.7l.43.09c-.19.93-.36 1.82-.55 2.71l-1.73 8.25c-.05.24 0 .58-.54.45zM51.3 29h-.44l-.66-11.75h.44zm2.43-11.75v.42q-.17 5.42-.35 10.83c0 .2.13.56-.37.51a2.64 2.64 0 0 1-.05-.41q.16-5.35.33-10.71c.03-.27-.14-.68.44-.64zM36.59 85l-.39-.21 5.26-10.47.4.19zm9-67.12c.43-.14.44.13.51.35l1.52 8.05q.28 1.52.56 3c-.46.24-.46-.1-.51-.31-.19-.92-.35-1.84-.51-2.76q-.78-3.88-1.52-7.81a4.06 4.06 0 0 0-.05-.52zM51.45 77h.43l-.37 11.71c-.41 0-.42 0-.42-.33q0-1.28.06-2.57l.24-7.7c.01-.38.04-.73.06-1.11zM46.9 88.36l-.42-.14.9-5.65c.28-1.78.57-3.55.87-5.32 0-.21-.07-.61.51-.51zm.23-70.75h.44l1.65 11.58-.43.1zM28.46 52.5l-11.54-.37c-.15-.44.1-.43.33-.42h2l8.15.29a6.67 6.67 0 0 1 .87.06c.11 0 .2.15.31.23zm28.79 35.94c-.17-1.15-.33-2.22-.51-3.29-.37-2.54-.74-5.07-1.08-7.61 0-.26-.29-.65.32-.84l1.66 11.62zm-30.92 1.9l.58-.85a4.82 4.82 0 0 1 .81.63.64.64 0 0 1 .07.6.62.62 0 0 1-.57.15 4.9 4.9 0 0 1-.89-.53zm2.07-.86l-1-.62.51-.83.95.78zm-5.98-2.24l.65-.78.93.88c-.24.7-.47.79-1 .43a6 6 0 0 1-.58-.53zm1.16-1.36l.64-.74a3.87 3.87 0 0 1 .62.58.56.56 0 0 1 0 .54.67.67 0 0 1-.58.12 3.23 3.23 0 0 1-.68-.5zm29.36 11.27v-1.21c.45 0 .93-.21 1.22.26a.8.8 0 0 1 0 .7c-.28.44-.76.32-1.22.25zm15.95-3.83a1 1 0 0 1 .59-1.08.83.83 0 0 1 1.06.29 4.29 4.29 0 0 1 .59 1.34.86.86 0 0 1-.51 1 .91.91 0 0 1-1.09-.22 2 2 0 0 1-.64-1.33zm13.4-9.64c1 .51.93.84 0 1.67-.14-.13-.29-.26-.44-.4s-.27-.31-.46-.51zm-24.9 11.91c1.16-.24 1.67.11 1.82 1.16s-.31 1.39-1.45 1.49zm22.8-7.06a.94.94 0 0 1-1.31.94A1.89 1.89 0 0 1 77.74 88a.78.78 0 0 1 .4-.91 1.33 1.33 0 0 1 .94-.06 1.89 1.89 0 0 1 1.11 1.5zM49 97.57h-.87l.46-1.15h.12zM37.92 94v1.18l-.84-.29.75-1zm-.03-41.63a11.9 11.9 0 0 1 .33-1.37 1.8 1.8 0 0 1 3.36 0 3.49 3.49 0 0 1 0 2.78 1.73 1.73 0 0 1-1.68 1.12 1.66 1.66 0 0 1-1.63-1.08 10.45 10.45 0 0 1-.38-1.45zm2.8 0a5.58 5.58 0 0 0-.28-1 .76.76 0 0 0-.54-.36.65.65 0 0 0-.51.34 2.4 2.4 0 0 0 0 2.11.72.72 0 0 0 .54.36.75.75 0 0 0 .51-.4 5.35 5.35 0 0 0 .28-1zM34 51.45l-.67-.74a2 2 0 0 1 1.67-.88 1.47 1.47 0 0 1 1.46.79 1.52 1.52 0 0 1-.17 1.65 6.16 6.16 0 0 1-.61.66l-.79.78h1.7v1h-3.16a1.17 1.17 0 0 1 .36-1.35 13 13 0 0 0 1.3-1.27c.37-.4.43-.74.22-1s-.58-.19-1 .11zm30.21-1.19l1.95-.37a27.29 27.29 0 0 1 .09 4.82h-1.13v-3.52l-.74.07zM71.09 53a1.41 1.41 0 0 0-1-1 2 2 0 0 0-.72-.16 1.7 1.7 0 0 0-.73.15 2.54 2.54 0 0 1 .21-.75.65.65 0 0 1 .51-.34.76.76 0 0 1 .54.36l1-.7a1.73 1.73 0 0 0-1.47-.77A1.75 1.75 0 0 0 67.76 51a3.16 3.16 0 0 0-.19 1.18 5.07 5.07 0 0 0 .23 1.59 1.59 1.59 0 0 0 .92.93 1.87 1.87 0 0 0 .71.15 1.85 1.85 0 0 0 .74-.16 1.44 1.44 0 0 0 .94-1 2.46 2.46 0 0 0-.02-.69zm-1.69.88c-.26 0-.63-.28-.63-.54s.46-.51.65-.51.72.3.72.51-.46.54-.73.54z"/></g></g></g></g></svg>