<svg xmlns="http://www.w3.org/2000/svg" viewBox="0 0 207.74 209"><defs><style>.cls-1{fill:#ef5035}</style></defs><title>webby-red_2</title><g id="Layer_2" data-name="Layer 2"><g id="Layer_1-2" data-name="Layer 1"><path class="cls-1" d="M104.42 209c-30.18-.54-55.42-11.24-75.85-32.76a103.07 103.07 0 0 1-26.31-50.47 98.58 98.58 0 0 1-2.1-26.4c1.69-28.75 13.09-53 34.32-72.51A101.4 101.4 0 0 1 80.76 2.6 99.08 99.08 0 0 1 97 .24a102.46 102.46 0 0 1 70.08 21.39A104.41 104.41 0 0 1 207 92a99.82 99.82 0 0 1 .63 17.4A104.53 104.53 0 0 1 133 204.75a90.08 90.08 0 0 1-19 3.63c-3.37.26-6.74.44-9.58.62zM205 101a99.52 99.52 0 0 0-3.44-22.79c-11.1-41.8-48.12-72.87-92.06-75.24a99.61 99.61 0 0 0-35.74 4.41A101.68 101.68 0 0 0 5.2 126.4c9.8 44.2 47.66 77.32 93.43 79.6a99.48 99.48 0 0 0 39-5.67C178.31 185.73 205 147.75 205 101z"/><path class="cls-1" d="M202.16 104.43a99.39 99.39 0 0 1-65.65 93.66 97.74 97.74 0 0 1-37 5.66c-43.76-1.59-81.69-32.48-92.17-75.87A98.95 98.95 0 0 1 111.54 5.42c39.77 3.19 74.09 30.67 86.15 69.42a99.9 99.9 0 0 1 4.47 29.59zm-24.91 0a74.18 74.18 0 0 0-73.82-74.31c-40.74-.09-73.93 33.26-73.94 74.28s33.16 74.36 73.92 74.31 73.83-33.29 73.84-74.24zm-89.92 86.66h-.22l-.33-5.38-1.56-.34-2.53 4.81-.19-.09-.27-5.34-1.86-.41.58 9.16 1.63.33 2.42-4.56.25.09.38 5.12 1.64.36 4.28-8.11-1.84-.39zm-55.61-29.83l8.56-3.26-1.13-1.53-5 2-.12-.17 3.35-4.3-1-1.26-5 1.89-.13-.18 3.38-4.18-1.16-1.56-5.61 7.29 1 1.33 4.92-1.78.11.17-3.18 4.2zM152.43 182l-2.14-3.7-2.29-3.89-1.53.94 2.27 4-.19.15-4.95-2.5-1.45.86 2.23 3.85 2.19 3.75 1.52-.94-2.37-4.16.16-.15 5.19 2.57zm-102.92-3.55l3 2a4.29 4.29 0 0 0 .65.35c1.62.72 3.14.09 3.47-1.53a6.11 6.11 0 0 0-.13-1.69c2.18-.65 2.9-2.5 1.36-4a32.79 32.79 0 0 0-3.37-2.49zm-7.78-6.3c1.29 1 2.45 2 3.7 2.83a2 2 0 0 0 2.43-.09 2.15 2.15 0 0 0 1-2.24c0-.19-.06-.39-.11-.67a2.26 2.26 0 0 0 2.4-1.78 2.78 2.78 0 0 0-1.27-2.75c-.76-.67-1.54-1.32-2.38-2zM107.42 193c.27-.24.46-.4.63-.57a2.93 2.93 0 0 0 .7-3.08 2.4 2.4 0 0 0-2.23-1.85c-1.32-.11-2.66 0-3.94 0v8.84l1.88-.1v-2.84h1l1.69 2.81 2-.15zm34.76-8a5.58 5.58 0 0 0-1.9-4 3.81 3.81 0 0 0-6.19 2 5.13 5.13 0 0 0 1.46 4.87 3.57 3.57 0 0 0 4.28.92 3.8 3.8 0 0 0 2.35-3.79zm21.2-15.46l.89-.68 3 .91 1.49-1.42-3.43-1.11v-.69a2.89 2.89 0 0 0-1.74-3 2.62 2.62 0 0 0-3.17.62c-.84.77-1.63 1.6-2.5 2.46l6 6.3 1.33-1.25zm-51.1 26.16a33.55 33.55 0 0 0 3.49-.56c2.21-.59 3.26-2.53 2.84-5a3.92 3.92 0 0 0-4.18-3.53c-1.05 0-2.1.24-3.32.39zm39.17-22.25a5.48 5.48 0 0 0 2.23 4.09 3.76 3.76 0 0 0 4.59.17 3.8 3.8 0 0 0 1.48-4.36 5.55 5.55 0 0 0-2.3-3.11 3.58 3.58 0 0 0-4-.22 3.67 3.67 0 0 0-2 3.41zm-27.38 11.23l2.54 8.42 1.73-.56-.95-3.39 2.62-.8 1.08 3.37 1.74-.53-2.52-8.38-1.75.5.95 3.4-2.63.75-1.07-3.29zm50.85-29.53l1.85-2.78-1.35-.9-2 2.72-1.44-1 2.12-3.15-1.36-.94-3.21 4.66 7.19 5L180 154l-1.38-.93-2.22 3.16zm-7.92 4.76l2.4-2.91-1.28-1.07-3.64 4.31 6.67 5.71 3.69-4.39-1.3-1-2.48 2.9-1.4-1.21 2.1-2.59-1.25-1.06-2.18 2.53zm-122.58 5l1.15-1.06-3.94-4.13-6.32 6 4 4.24 1.17-1.18-2.57-2.78 1.39-1.47 2.19 2.6 1.15-1.27-2.27-2.47 1.28-1.2zm51 22.18l-3.83 8.49 1.77.18.93-1.82 2.84.26.58 1.89 1.86.21-2.39-9.1zm-20.49-4.91L69 189.43l1.72.58 1.31-1.51 2.75 1v2l1.68.59v-9.36zm-58.2-74.72l3.63-3.62-3.56-3.37-3.61 3.43zm169.46-3.56l3.6 3.5 3.55-3.45-3.52-3.54zM60.75 175.51c-.29 3.2.68 6.39-1.81 9l1.69 1a10.66 10.66 0 0 0 .72-1.25 5.74 5.74 0 0 1 2.65-3.01c1.1-.62 2.12-1.39 3.29-2.17l-1.76-1-3.08 2.11v-3.8z"/><path class="cls-1" d="M110.69 87a7.83 7.83 0 0 0-1.64-.61c-3.26-.45-6.53-.89-9.8-1.23-2.62-.27-5.26-.39-7.89-.58-.53 0-1-.14-1.78-.25l.23-2.61c2.27-.18 4.37-.3 6.45-.53q6.33-.69 12.64-1.48a5.34 5.34 0 0 0 2-.8c-2.49-1.76-5.45-1.58-8.39-2.21l1.8-2.24c3.56.33 7.1.75 10.41 2.28a2.91 2.91 0 0 1 .32.18c.78.49 1.57 1 1.58 2.05a2.07 2.07 0 0 1-1.62 1.96c-2.18.73-4.4 1.32-6.6 2a.91.91 0 0 0-.51.26c.69.18 1.38.32 2.06.53 1.53.47 3.06.95 4.57 1.48a5.56 5.56 0 0 1 1.48.8c1 .76 1.11 1.69.17 2.51a8.12 8.12 0 0 1-2.63 1.55c-1.66.58-3.4.94-5.24 1.43 1.26.3 2.44.5 3.57.86a23.8 23.8 0 0 1 3.9 1.5c1.69.89 1.7 2.12.09 3.2a17.49 17.49 0 0 1-6 2.18 9.45 9.45 0 0 0-2.16.66c1.28.29 2.57.52 3.82.88a42.76 42.76 0 0 1 4.2 1.42 7.94 7.94 0 0 1 1.58 1.1 2.5 2.5 0 0 1-1.77 2.28c-2 .76-4 1.39-6.06 2.05-.38.13-.78.2-1.44.36 1.8.34 3.36.56 4.87.95a14 14 0 0 1 3.22 1.21c1.61.88 1.76 2.4.24 3.44a19.59 19.59 0 0 1-4.1 1.93 31.27 31.27 0 0 1-3.5.88c1.63.37 3 .62 4.28 1a21.38 21.38 0 0 1 2.89 1.06 3 3 0 0 1 2 3.59l-5.14 2.57.06.27 5.09-.76.06 1-5.51 2.94v.14l5.44-.78a42.58 42.58 0 0 1-.08 5.67c-.1.71-1 1.53-1.77 1.89a20.78 20.78 0 0 1-4.63 1.65 38 38 0 0 1-18.12-.33 20.25 20.25 0 0 1-3.94-1.71 2.52 2.52 0 0 1-1.37-2.56c.07-1.47 0-2.94 0-4.5l4.75.68v-.14l-4.77-2.5v-1.27l4.38.52.07-.23-4.37-2.17c-.46-1.69-.13-3 1.52-3.84a2.83 2.83 0 0 1 .39-3.28c1.55-.15 3.27-.26 5-.48 4.29-.55 8.57-1.13 12.85-1.76a16.81 16.81 0 0 0 2.73-.89v-.48a9 9 0 0 0-1.75-.59c-2.25-.29-4.5-.58-6.76-.72-3.7-.23-7.41-.34-11.12-.5-1.31-.06-1.83-.42-1.84-1.31s.6-1.46 1.83-1.57c3.08-.29 6.16-.49 9.23-.85 2.78-.33 5.54-.79 8.3-1.26a11.68 11.68 0 0 0 2.1-.78v-.45a11.76 11.76 0 0 0-2.12-.7c-2.9-.39-5.8-.75-8.71-1-3.36-.31-6.74-.5-10-.73a1.51 1.51 0 0 1-.64-1.93c.24-.69.82-.81 1.48-.87 4.39-.37 8.79-.72 13.18-1.16 1.84-.19 3.66-.58 5.47-.93a8.35 8.35 0 0 0 1.47-.58c-.33-.87-1-.9-1.58-1-3.32-.36-6.64-.7-10-1-2.71-.23-5.43-.36-8.14-.54a9.51 9.51 0 0 1-.97-.12 1.25 1.25 0 0 1-1.1-1.41 1.33 1.33 0 0 1 1.24-1.44c1.72-.15 3.46-.19 5.18-.4q6.74-.8 13.47-1.73a8.62 8.62 0 0 0 1.86-.71zm25.99 50.9l.65-.6 16.41 16.1-.59.66zm1.32-1.5l.57-.68 17.15 15.43-.49.74zM76.12 65.77l-.69.55L62 47.57l.66-.59zM57 157.33l-.7-.54 15.32-17.23.74.49zm79.58-86.41l-.61-.64 16-16.55.64.6zm-1.4 68.43l.65-.59 15.72 16.85-.59.66zm9.4 22.16l-.75.47-13.38-18.72.65-.6zm.51-113.74l.68.57L132 66.83l-.72-.51zm-10.42-6.45l.78.4-10.39 20.67-.79-.39zm25.02 105.14l-.57.68-18.39-13.85.54-.7zM139.39 74l-.59-.66 17.52-15.18.53.7zm-92.5-11.38l.55-.7 18.41 13.87-.5.73zm17.75 14.9l-.5.72-19-13 .44-.77zm31.25-43.24h.87l2.29 23-.85.26zm25.37 26.4l-.74-.4 8.48-21.4c.9.12.72.57.52 1.07-.77 1.91-1.53 3.82-2.29 5.73l-5.51 13.87c-.09.33-.25.66-.46 1.13zM70.2 138.13l.66.58-16 16.56-.66-.58zm63.46 2.57l.67-.57 15.09 17.63-.71.52zm-7.54-102.97l.83.26-7.61 21.92-.8-.37zM48.74 60.25l.54-.69L67.09 74.2l-.54.7zM138 72.45l-.59-.65 16.87-15.93.53.71zm-66.6-2.77l-.68.57-15.79-16.93.69-.54zm1.49-1.35l-.66.58L57.15 51.3l.68-.57zM45 143.52l-.44-.77 19.21-12.64.52.71zm40.55 4.75l.72.42-8.5 21.31c-.77 0-.81-.36-.59-.9.55-1.33 1.07-2.67 1.6-4L85 149.43c.17-.38.36-.74.55-1.16zm53.88-13.42l.59-.66 17.78 14.63-.52.71zM69.5 166.2l-.77-.42L80 145.58l.76.44zm91.95-22.31l-.48.74-19-13 .49-.73zm-114.71 2.18l-.51-.72 18.64-13.49.59.66zm5.89 7l-.65-.59 16.76-15.83.66.59zm9.1-26.56l.34.82-20.22 10.89-.48-.74zm88.84-22.96l22.87-.3v.87l-23 .31zm-99.98 47.3l-.61-.64 17.42-15.1.59.66zm-16.02-60.3l.22-.85 22.38 4.71v.9zm31.52 42.94l.61.64-18.08 14.31-.61-.64zM131.82 40l.78.4-9.42 21-.82-.32zm-72.21 9.34l.71-.52L74.51 67l-.66.59zm87.83.3l.7.54-14.54 17.88-.75-.47zm2.4 2.03l.67.57-15.45 17.37-.59-.66zm-79.9 19.55l-.63.61-16.62-16.3.67-.58zm88.32-10.62l.55.69-18.06 14.28-.6-.65zM143.09 79l-.5-.73 19.2-12.63.59.67zm-24.65 70.38l7.14 21.89c-.57.42-.84.27-1-.3-.44-1.41-.92-2.82-1.38-4.22l-5.58-17.1zM62.45 81l-.44.76-20.07-11.29.38-.8zm-.96 1.8l-.45.76-20.43-10.39.25-.86zm67.22 61.6l.71-.51L142 163.28l-.76.44zm-39.38 5.31l.85.19-6.62 22.1-.89-.08zm26.3.43l.86-.17 6.23 22.23-.82.32zm-42.39-9.24l.69.55-14.56 17.91-.69-.55zm97.34-16.33l-.21.85-22.08-6.71.2-.86zM43.36 141l-.43-.77 19.71-11.83.56.69zm44.07 8l.79.38-7.57 21.78-.85-.22zm35.82-112.14l.86.2-6.63 22.06-.89-.07zm21.29 90.45l20.14 11.36-.43.76-20-11.3zm-105.46 5.43l-.31-.82 21.1-9.09.43.77zM146 124.43l.45-.76 21 9.51-.45.82zm-62.36 23.01l.78.41L75 168.92l-.83-.28zm50.49 20.42l-.81.34-10-20.83.78-.39zM75.29 39.77l.82-.31 9 21.24-.78.41zM147 159.65l-.67.56L132.08 142l.65-.59zm2.75-63.55l-.25-.76L172.14 91c.37.86-.14.93-.64 1l-8.73 1.67L150.89 96c-.36.05-.73.06-1.14.1zm-89.97-9.54l-.38.8-21.31-8.59.27-.84zm85.38-4l-.45-.76L165 70.88l.45.76zm-1.07-1.82l-.41-.78 19.76-11.81.5.73zM63.52 79.2l-.47.74-19.51-12.17.39-.79zm3.31 85.43l-.75-.46 12.1-19.62.8.38zm1.65-92.03l-.56.68-17.16-15.44.59-.66zm71 92.29l-.73.49L127 145.47l.73-.48zM64.57 45.73l.7-.53 12.58 19.34-.66.59zm75.43-1.4l.75.45-12.09 19.62-.8-.38zm-72.93-.26l.76-.44 11.72 19.82-.69.56zm59.73 19.32l-.76-.44 11.23-20.15.79.39zm-50.28 79.98l.71.52L64.28 163l-.7-.52zm48.65 3.12l.75-.46 10.83 20.34-.69.56zm-8.38 27.17l-.85.18-4.29-22.78h.89zm-41.94-31.52l.69.56-13.79 18.51-.7-.53zM39.16 76l.43-.77 20.93 9.5-.33.81zm128.54.39l.37.8-21.07 9.1-.48-.75zM146 84.41l-.32-.83 20.7-10 .38.79zM36.93 81.69l.35-.81 21.66 7.62-.21.86zM160.06 63l.48.74-18.69 13.53-.57-.67zM35.23 87.52l.3-.83 22.19 5.68-.06.89zm114.12 6.69l-.2-.85 8.91-2.09 12.59-3c.47-.11 1-.39 1.14.62zm-67.9-31.7l-.77.42-10.86-20.38.73-.49zm91.61 34.61l.17.85-22.9 2.31c-.22-1 .44-.93.92-1 2.29-.24 4.59-.47 6.89-.7zM72.47 41.17l.76-.44 10 20.85-.77.42zm77.94 61.22l-.07-.87 22.95-1.29.08.88zM87 60l-.82.31-8.1-21.63.81-.34zm-53.63 48.93c-.19-1.15.56-.92 1-.94 3-.19 6-.35 9-.51l12.34-.67a5.27 5.27 0 0 1 .54 0l.17.8zm116.76 1.64v-.88l22.87 2.75v.88zm-31.96-75.05l-4.7 22.61c-1 0-.78-.55-.68-1.06q.82-4 1.65-8 1.34-6.4 2.68-12.79c.1-.41.03-1.05 1.05-.76zm51.24 92.78l-21.73-7.65.21-.86 21.69 7.63zM102 33.92l1 .07v23.07l-.65.09zm-21 3.59l.87-.15L89 59.23l-.79.39zm50.31 131.64l-.79.37-9.07-21.3.8-.34zM91 58.71c-.91.39-.94-.14-1.06-.57L87.33 49q-1.59-5.7-3.19-11.4c-.14-.48-.4-1 .57-1.16zm37.52 111.58l-.82.3-8.15-21.66.83-.27zM92.17 58.43l-5.25-22.51.71-.25a1.62 1.62 0 0 1 .22.36q2.47 10.58 4.93 21.16c.1.45.45 1.09-.61 1.24zm51.1-12l-13 19.18-.7-.53L142.48 46zM91.46 150.24l.83.29L86.61 173l-.82-.29zm22.18.47l.85-.22c.67 2.87 1.31 5.67 2 8.47 1 4.33 2 8.65 3 13 .1.44.47 1-.57 1.37zm-10.15 1.06l1 .08v23.06l-.65.1zm44.17-63.58l-.38-.8 21.53-8.2.35.81zm-111.6-3.61l.25-.84 22 6.69-.19.86zm24.73 40.13l.4.78-20.71 10-.41-.78zm-4.35-24.1l-.07.88-23-1.73.1-.86zM166.09 136l-.39.79-20.52-10.43.3-.83zm2.53-5.6l-.38.8-21.35-8.6.3-.83zM38 129.93l-.36-.8L59.08 121l.48.76zm18.45-21.06v.88L33.68 112l-.19-.86zm41.01 42.66h.77a4 4 0 0 1 0 .71l-1 8.7q-.72 6-1.43 12a5.65 5.65 0 0 1-.22 1.21c-.06.17-.36.26-.54.39l-.29-.16zM106.44 57l1.7-22.83c.9-.25.84.27.81.72q-.15 2.34-.32 4.68-.59 8-1.19 16a4.51 4.51 0 0 1-.13 1.1c-.08.22-.35.38-.54.56zm-70.38 67.09l-.37-.8L57.86 117l.35.81zm107 5.8l.46-.75 19.57 12.21-.42.77zm-27.53-71.21l-.84-.24L120.37 36l.83.26zm33.33 57.92l.24-.74a3.52 3.52 0 0 1 .61 0l20.67 5.31c.47.12 1.16.07.81 1.1zM34 115.05v-.89l22.66-3.28.08.87zm116.34-6.49v-.88l22.88 1.72v.87zm-117.07-2.63V105l22.91-.3.06.87zm72.26 45.86h.87l1.28 23.07-.87.07zM34 93.56l.22-.78L57 96.53c-.22 1.16-.92.73-1.39.65-3-.45-5.93-1-8.89-1.44l-12-2a5.73 5.73 0 0 1-.72-.18zm135.94-11.43l.13.88-9.29 3.09-11.61 3.82c-.45.15-1 .49-1.12-.54zm-71.39 92.74l-.85-.17 1.69-22.89.88-.14zm12.2-.27c-1.08.23-.92-.46-1-.88-.21-1.76-.36-3.52-.54-5.28q-.73-7.3-1.45-14.61a12.34 12.34 0 0 1-.1-1.72c0-.23.26-.45.4-.67l.36.09zM33.72 96.5l.07-.81 22.8 2.74c.11 1-.46.83-.92.78-1.43-.16-2.86-.34-4.29-.51l-16.54-2c-.33-.02-.65-.11-1.12-.2zm116.34 1.78v-.89l22.66-3.28.08.87zM171 85.87l-22.08 6.26-.33-.68a2.27 2.27 0 0 1 .46-.27l20.79-5.88c.48-.14 1-.42 1.16.57zM114.24 34.7l.84.25-3.68 22.7h-.88zm-1.99-.51c-.16 1.54-.26 2.75-.41 4q-1.08 9.13-2.18 18.25c-.06.47.09 1.18-1 1 .11-1.09.2-2.18.33-3.27q1.09-9.19 2.19-18.37a3.21 3.21 0 0 1 .19-1c.12-.23.41-.31.88-.61zm38.08 71.46l23.07.74c.21.89-.31.83-.75.82-1.81 0-3.62-.07-5.44-.13q-7.78-.24-15.56-.51c-.48-.01-1.2.23-1.32-.92zm-.42 6.16c1.89.3 3.71.57 5.53.87l16.2 2.68c.46.08 1.08 0 .84.91a4.87 4.87 0 0 1-.8 0l-21-3.45c-.39-.07-1.04 0-.77-1.01zM57 113l.29.78-22.65 4.32c-.06-.88-.06-.88.76-1l8.6-1.65 11.88-2.26c.3-.08.63-.11 1.12-.19zm115.06 5.6l-.13.86-22.47-4.72a1.14 1.14 0 0 1-.07-.37 2.86 2.86 0 0 1 .2-.5zM57.36 115l.3.75a8.21 8.21 0 0 1-.79.28l-10.55 2.49-10.2 2.39c-.48.11-1 .37-1.13-.63zm1.4 4.77L36.93 127l-.3-.81 2.37-.8 18.52-6.11c.48-.16 1.01-.56 1.24.49zm34.54 30.96l.84.17c-.37 1.83-.71 3.59-1.08 5.34q-1.7 8.15-3.41 16.29c-.1.48 0 1.14-1.06.88zm7.87-93.63h-.86L99 34h.87zm4.78-23.1v.82q-.34 10.68-.69 21.35c0 .4.25 1.1-.72 1a5.2 5.2 0 0 1-.1-.81q.31-10.55.65-21.11c.05-.51-.29-1.32.86-1.25zM72.16 167.63l-.77-.42 10.38-20.64.79.37zM89.9 35.25c.85-.27.87.25 1 .69l3 15.88q.55 3 1.1 5.91c-.9.47-.91-.2-1-.62-.37-1.81-.69-3.63-1-5.45q-1.53-7.66-3-15.4c0-.31-.05-.63-.1-1.01zm11.56 116.57l.84-.06-.73 23.08c-.8 0-.83 0-.82-.65q0-2.53.11-5.06.23-7.59.48-15.19c.02-.69.08-1.38.12-2.12zm-8.98 22.39l-.83-.28 1.78-11.15c.56-3.5 1.12-7 1.72-10.48.07-.42-.13-1.21 1-1zm.45-139.5l.87-.08 3.26 22.83-.85.19zm-36.8 68.8l-22.75-.73c-.29-.86.19-.84.66-.83 1.32 0 2.63 0 4 .08l16 .51a13.15 13.15 0 0 1 1.72.12c.22 0 .4.3.61.46zm56.77 70.87c-.33-2.26-.65-4.37-1-6.48-.72-5-1.45-10-2.13-15-.07-.52-.57-1.29.63-1.65l3.28 22.92zm-60.98 3.75l1.14-1.67a9.51 9.51 0 0 1 1.6 1.24 1.26 1.26 0 0 1 .13 1.18 1.23 1.23 0 0 1-1.13.3 9.66 9.66 0 0 1-1.74-1.05zm4.08-1.71l-2-1.23 1-1.63 1.87 1.53zM44.22 172l1.29-1.54 1.83 1.73c-.47 1.38-.93 1.56-1.88.85-.39-.26-.75-.6-1.24-1.04zm2.29-2.68l1.26-1.46A7.64 7.64 0 0 1 49 169a1.11 1.11 0 0 1 0 1.06 1.32 1.32 0 0 1-1.14.24 6.37 6.37 0 0 1-1.35-.98zm57.88 22.23v-2.39c.89 0 1.84-.41 2.4.51a1.57 1.57 0 0 1 0 1.38c-.55.87-1.48.63-2.4.5zm31.45-7.55a1.94 1.94 0 0 1 1.17-2.12 1.64 1.64 0 0 1 2.09.58 8.46 8.46 0 0 1 1.17 2.65 1.7 1.7 0 0 1-1 1.93 1.8 1.8 0 0 1-2.15-.43 4 4 0 0 1-1.28-2.61zm26.43-19c1.88 1 1.84 1.65 0 3.29-.28-.26-.58-.51-.86-.79s-.54-.61-.91-1zm-49.11 23.47c2.29-.47 3.3.21 3.59 2.29.25 1.82-.62 2.75-2.85 2.93zm44.96-13.91a1.85 1.85 0 0 1-2.58 1.85 3.73 3.73 0 0 1-2.25-2.9 1.54 1.54 0 0 1 .79-1.79 2.62 2.62 0 0 1 1.85-.12 3.73 3.73 0 0 1 2.19 2.96zm-61.41 17.81l-1.71-.08.9-2.26h.24zm-21.94-7.03v2.33l-1.66-.57 1.47-1.88zm-.05-82.09a23.47 23.47 0 0 1 .65-2.64 3.54 3.54 0 0 1 6.63-.1 6.88 6.88 0 0 1 0 5.49 3.41 3.41 0 0 1-3.31 2.21 3.27 3.27 0 0 1-3.22-2.12 20.6 20.6 0 0 1-.75-2.84zm5.53 0a11 11 0 0 0-.55-2.07 1.49 1.49 0 0 0-1.07-.71 1.29 1.29 0 0 0-1 .68 4.73 4.73 0 0 0 0 4.17 1.42 1.42 0 0 0 1.07.71 1.47 1.47 0 0 0 1-.79 10.54 10.54 0 0 0 .55-2zm-13.16-1.8L65.77 100a3.91 3.91 0 0 1 3.3-1.76 2.9 2.9 0 0 1 2.87 1.55 3 3 0 0 1-.34 3.26 12.15 12.15 0 0 1-1.21 1.31c-.44.45-.89.88-1.55 1.53h3.36v2h-6.28a2.31 2.31 0 0 1 .71-2.67 25.6 25.6 0 0 0 2.57-2.5c.73-.78.85-1.46.43-1.93s-1.14-.37-2 .22zm59.53-2.35l3.84-.72a53.81 53.81 0 0 1 .17 9.5h-2.21v-6.95l-1.46.13zm13.57 5.42a2.78 2.78 0 0 0-1.88-1.92 3.89 3.89 0 0 0-1.41-.32 3.35 3.35 0 0 0-1.44.29 5 5 0 0 1 .42-1.48 1.29 1.29 0 0 1 1-.68 1.49 1.49 0 0 1 1.07.71l1.91-1.39a3.41 3.41 0 0 0-2.9-1.51 3.46 3.46 0 0 0-3.34 2.34 6.24 6.24 0 0 0-.38 2.33 10 10 0 0 0 .46 3.14 3.14 3.14 0 0 0 1.82 1.83 3.69 3.69 0 0 0 1.4.29 3.65 3.65 0 0 0 1.46-.32 2.83 2.83 0 0 0 1.85-1.89 4.85 4.85 0 0 0-.04-1.42zm-3.33 1.74c-.51 0-1.25-.55-1.25-1.07s.9-1 1.28-1 1.41.59 1.41 1c.01.55-.91 1.06-1.44 1.06z"/></g></g></svg>