<svg xmlns="http://www.w3.org/2000/svg" viewBox="0 0 15.25 38.34"><defs><style>.cls-1{fill:#f05136}</style></defs><title>wr-symbol-red</title><g id="Layer_2" data-name="Layer 2"><g id="Layer_1-2" data-name="Layer 1"><g id="Layer_2-2" data-name="Layer 2"><path class="cls-1" d="M15.23.28h-.06a.19.19 0 0 0-.17.05v-.2A.36.36 0 0 0 15 0h-.08c-.06 0-.12.17-.12.17a.5.5 0 0 0 0 .1v.09a.12.12 0 0 1 0 .07V.31a.29.29 0 0 0 0-.05.21.21 0 0 0 0-.1.11.11 0 0 0-.08.06.41.41 0 0 0-.05.16v.29a.77.77 0 0 0 0-.12h-.06a.32.32 0 0 0 0 .11.9.9 0 0 0 0 .21 1.3 1.3 0 0 0-.12.2h-.56l-.1.05-.11.07a.55.55 0 0 1-.21 0l.18-.4c0-.07.08-.14.11-.21a.36.36 0 0 0 0-.14.14.14 0 0 0-.08-.13l-.16.29-.24.34a1.39 1.39 0 0 1-.26.28 1.49 1.49 0 0 0-.27.26.54.54 0 0 0-.07.14.53.53 0 0 0-.1.18l-.06.1v.06c-.11.25-.53 1-.64 1.22s-.14.35-.24.52S11 5.25 11 5.25c-.2.39-.38.77-.63 1.22S9.64 7.63 9.28 8.2A1.33 1.33 0 0 1 9 7.84a.21.21 0 0 1 .08-.27 2.5 2.5 0 0 0 .35-.31.28.28 0 0 0 0-.46.24.24 0 0 1-.08-.15c0-.11 0-.2-.16-.17 0-.21 0-.23-.18-.3S8.9 6.12 8.94 6s0-.23-.15-.25H8.5a.42.42 0 0 1-.32-.14v-.08h-.07l-.07-.11A.67.67 0 0 0 8 5.33a2.31 2.31 0 0 0-.76-.41L7 4.87c-.12-.22-.44-.18-1-.1a1.7 1.7 0 0 0-1.11.82l-1.1-1.83-.22-.43-.1-.14-.05-.09A2.85 2.85 0 0 1 3 2.48c-.06-.2-.26-.32-.28-.54a.31.31 0 0 0-.06-.12.82.82 0 0 0-.51-.19l-.34-.06-.17-.06c-.17 0-.22 0-.31.13l-.26-.1-.55-.22-.2-.14a.21.21 0 0 0-.32.1l.37.26c.06 0 .15.09.16.15s.08.08.13.12l.16.09a2.93 2.93 0 0 0 1.12.49.63.63 0 0 1 .46.42c.14.47.25.58.38 1 0 0 .3.88.48 1.34 0 0 .75 1.23.95 1.68a2.73 2.73 0 0 0-.13.54 5.6 5.6 0 0 0 .32 2.66c.09.41.22.94.33 1.29a.31.31 0 0 0 0 .07c0 .26 0 .51.06.77a1.94 1.94 0 0 1-.11.8 1 1 0 0 1-.27.41.32.32 0 0 1-.34.06.18.18 0 0 1-.13-.21.27.27 0 0 0 0 .29.31.31 0 0 0 .4.06.73.73 0 0 0 .28-.31l.08-.18a.77.77 0 0 1 0 .26 1.43 1.43 0 0 1-.13.43c-.08.18-.17.36-.25.54a.88.88 0 0 0-.08.41.55.55 0 0 0 0 .18 1.54 1.54 0 0 1 0-.18.69.69 0 0 1 .13-.31 3.74 3.74 0 0 1 .4-.46 3.44 3.44 0 0 0 .39-.45.83.83 0 0 0 .15-.38v-.16.35a2.41 2.41 0 0 1-.11.91 1.59 1.59 0 0 1-1.07 1l-.33.1a.86.86 0 0 0-.35.23.34.34 0 0 0 0 .44.1.1 0 0 0 .11.05l-.07-.05a.19.19 0 0 1 0-.24.37.37 0 0 1 .28-.2.61.61 0 0 1 .43.1 2.06 2.06 0 0 1 .51.47h-.19a.35.35 0 0 0-.25.32.59.59 0 0 0 .22.52l.18.12a.78.78 0 0 1-.2-.37.41.41 0 0 1 0-.23.19.19 0 0 1 .16-.13.66.66 0 0 1 .29 0l.54.17a1.54 1.54 0 0 0 .41.06.87.87 0 0 0 .52-.18 1.58 1.58 0 0 0 .61-.5 3.54 3.54 0 0 0 .24-.73l.21-1a4.08 4.08 0 0 1 .18-.62 2 2 0 0 1 .1-.22c.13-.08.89 1.14 1 1.61a4.14 4.14 0 0 1-.09 2.28c-.27.21-.54.43-.79.66h-.06l-.14.12a6.58 6.58 0 0 0-.53.56 7.68 7.68 0 0 0-.83 1.17 29.39 29.39 0 0 1-2 3.57 7.84 7.84 0 0 1-.76.82c-.17.16-.75.48-.81.71 0 0-.15.11.26.24a2.12 2.12 0 0 1 .53.12c.46.28.07.36.17.52.3.47.57.14 1.09.27.11 0 .95.5 1.55.69-.15.69-.33 1.62-.48 2.24a10.76 10.76 0 0 0 .12 2.33c.12.83.23 1.38.3 2.21a2.1 2.1 0 0 1-.4 1.55.64.64 0 0 0 .14 1 2.26 2.26 0 0 1 .68.93 6.17 6.17 0 0 0 .32.57 2.57 2.57 0 0 0 1.35.5c.28 0 .37-.19.24-.42a1.26 1.26 0 0 1-.71-1.18v-.15a3.2 3.2 0 0 1 .76 1.11 6.38 6.38 0 0 0 .36.63 2.64 2.64 0 0 0 1.41.4c.29-.06.37-.21.24-.45a1.31 1.31 0 0 1-.78-1.2 9.69 9.69 0 0 0-.25-1.94 8.37 8.37 0 0 1-.12-3.17 10.91 10.91 0 0 0 .1-1.34 3.35 3.35 0 0 1 .4-1.95 2.48 2.48 0 0 0 .28-.66 6.29 6.29 0 0 1 .69.15c.8.31.31-2.13.71-5.45a19 19 0 0 0-.1-2.36c0-.32 0-.65-.05-1a3 3 0 0 1 .17-1.29 9.19 9.19 0 0 0 .12-4.14 1.75 1.75 0 0 0 .27-1.59 8.86 8.86 0 0 0-1.66-1.79 1.74 1.74 0 0 1 .05-.38 6.17 6.17 0 0 1 .45-1.15 12.15 12.15 0 0 0 .63-1.33c.13-.38.33-.75.46-1.14s.17-.62.26-1v-.29V5v-.17l.07-.29s0-.2.05-.29c.06-.28.11-.56.17-.84 0-.1 0-.2.08-.3s.06-.17.08-.25l.05-.17a.92.92 0 0 1 .22-.16v-.22l.09-.08a2.49 2.49 0 0 1 .4-.23l.18-.1.45-.2a.17.17 0 0 0 .09-.06l.1-.14a.84.84 0 0 1 .17-.23 1 1 0 0 0 .17-.17l.09-.1a.3.3 0 0 0 .07-.11l.12-.17a2.24 2.24 0 0 1 .18-.25l.1-.13s.03-.05.02-.06zM6.74 15.77a1.12 1.12 0 0 1-.24.36 1.1 1.1 0 0 1-.5.33 1 1 0 0 1-.65 0l-.19-.09h.07a1.24 1.24 0 0 0 1-.14 1 1 0 0 0 .38-.46 1.91 1.91 0 0 0 .16-.65v-.49a2.23 2.23 0 0 1 .06.46 1.88 1.88 0 0 1-.09.68zm1 19.13v-.26a7.85 7.85 0 0 1 0-2.87c.11.6.21 1.21.29 1.82a2.24 2.24 0 0 1-.25 1.31z" id="Layer_1-2-2" data-name="Layer 1-2"/></g></g></g></svg>