<svg xmlns="http://www.w3.org/2000/svg" viewBox="0 0 182.22 458.03"><defs><style>.cls-1{fill:#f05136}</style></defs><title>wr-symbol-red</title><g id="Layer_2" data-name="Layer 2"><path class="cls-1" d="M182.08 3.4a1.36 1.36 0 0 0-.67 0 2.3 2.3 0 0 0-2.26.6s-.38.55-.34.09c0 0 .35-2.1.37-2.45a4.27 4.27 0 0 0 .24-1.45.24.24 0 0 0-.12 0s-.14-.1-.17-.13a.9.9 0 0 0-.56 0h-.09c-.75.25-1.39 2-1.39 2a.07.07 0 0 0 0 .09 6 6 0 0 0-.37 1.23 11.17 11.17 0 0 0-.22 1.1 1.38 1.38 0 0 1-.43.8L176 3.69c0-.13 0-.25.06-.38a3.47 3.47 0 0 0 0-.65 2.55 2.55 0 0 0-.27-1.2.65.65 0 0 0-.57-.12 1.34 1.34 0 0 0-1 .66 4.87 4.87 0 0 0-.62 1.88c0 .17-.06.34-.08.51l-.36 1.56c-.11.45-.25.88-.37 1.33l-.21.61c-.11-.19-.06-.39-.13-.57.13-.17.07-.38.07-.57a9.18 9.18 0 0 0 0-1.43.32.32 0 0 0-.08-.21l-.68.27v.05h-.09l-.17.07a1 1 0 0 0-.59.47 3.86 3.86 0 0 0-.44 1.31 10.81 10.81 0 0 0-.05 2.51.47.47 0 0 1-.09.35 15.5 15.5 0 0 0-1.42 2.38c-.08.17-.16.19-.31.1a1.12 1.12 0 0 0-.72-.16 2.7 2.7 0 0 0-.79.2l-.53.24a9.65 9.65 0 0 0-1.18.6 12.63 12.63 0 0 0-1.33.88l-.07.06a6.56 6.56 0 0 1-2.49.58s-.05-.08 0-.1c.72-1.59 1.41-3.19 2.16-4.76.41-.87 1-1.66 1.37-2.54a4.3 4.3 0 0 0 .22-1.67 1.73 1.73 0 0 0-1-1.5c-.74.92-1.5 1.81-2.18 2.76-1 1.33-1.91 2.69-2.81 4.07a16.6 16.6 0 0 1-3.08 3.29 17.81 17.81 0 0 0-3.17 3.14 6.43 6.43 0 0 0-.81 1.64 2.57 2.57 0 0 1-.22.29 6.36 6.36 0 0 0-1.24 2.17 1.81 1.81 0 0 1-.19.38c-.25.39-.45.81-.67 1.21-.08.14-.2.41-.33.68-1.32 3-6.33 11.58-7.68 14.53-.94 2.06-1.73 4.2-2.85 6.16-1.34 2.35-7.83 18-7.83 18-2.35 4.66-4.58 9.25-7.47 14.59-3.67 6.79-8.44 13.86-12.83 20.67l-.25-.23a15.84 15.84 0 0 1-2.63-4.11 2.52 2.52 0 0 1 1-3.24 29.87 29.87 0 0 0 4.14-3.65c1.79-2 1.55-3.61-.34-5.45a2.87 2.87 0 0 1-.92-1.78c0-1.36-.15-2.34-1.86-2 .32-2.5.18-2.73-2.1-3.54-1.38-.49-1.58-.9-1.05-2.24.7-1.8.18-2.73-1.74-2.94-1.15-.13-2.31-.11-3.47-.19A5 5 0 0 1 97.78 67c.12-.42.2-.42.34-.91-.07 0-.38.42-.86.49-.31-.52-.52-.92-.78-1.28a8 8 0 0 0-1.26-1.62 27.58 27.58 0 0 0-9.08-4.92 15.24 15.24 0 0 0-2.14-.59c-1.46-2.6-5.3-2.17-11.66-1.24-5.5.81-10.6 5.22-13.31 9.81-4.5-7-12-19.08-13.75-21.73-1.34-2.67-2.39-4.74-2.63-5.09l-1.17-1.67c.14.19.19.21-.65-1.11-1.6-2.56-3.88-4.54-4.78-7.43-.76-2.45-3.1-3.79-3.3-6.46a3.74 3.74 0 0 0-.69-1.38c-1.68-1.72-3.93-1.91-6.13-2.24-1.36-.21-2.71-.46-4.05-.77-.71-.16-1.36-.54-2.07-.7-2-.44-2.65-.14-3.67 1.57-1-.38-2.08-.74-3.11-1.16-2.29-.92-4.59-1.81-6.83-2.82a23.17 23.17 0 0 1-2.43-1.62C2.3 13.24 1 13.59 0 15.26c1.47 1 3 2 4.42 3.1.72.53 1.84 1.12 1.93 1.79.15 1.15 1 1 1.55 1.41s1.29.69 1.9 1.08c4.13 2.68 8.35 5.09 13.34 5.91a7.48 7.48 0 0 1 5.46 5.06c1.7 5.58 3 6.9 4.55 12.52 0 .06 3.53 10.53 5.78 16 0 0 9 14.69 11.31 20.06a32.65 32.65 0 0 0-1.56 6.45 66.94 66.94 0 0 0 3.82 31.81c1.09 4.86 2.6 11.24 3.91 15.42 0 .29 0 .58.07.87.26 3.07.55 6.13.71 9.21a23.13 23.13 0 0 1-1.32 9.53 11.53 11.53 0 0 1-3.2 4.91 3.81 3.81 0 0 1-4.06.69 2.14 2.14 0 0 1-1.53-2.52c0-.11 0-.22.08-.45a3.2 3.2 0 0 0 .35 3.41 3.71 3.71 0 0 0 4.83.76 8.7 8.7 0 0 0 3.38-3.72c.36-.7.66-1.43 1-2.2a9.16 9.16 0 0 1 .13 3.13 17.07 17.07 0 0 1-1.59 5.1c-1 2.17-2.08 4.32-3 6.51a10.52 10.52 0 0 0-1 4.92 6.58 6.58 0 0 0 .48 2.17 18.45 18.45 0 0 1 0-2.17 8.28 8.28 0 0 1 1.6-3.7 44.65 44.65 0 0 1 4.77-5.47 41.06 41.06 0 0 0 4.61-5.39 9.88 9.88 0 0 0 1.81-4.52c.06-.62.1-1.25.14-1.87a.82.82 0 0 1 .12.36c.13 1.41.3 2.81.37 4.22a28.8 28.8 0 0 1-1.31 10.83 19 19 0 0 1-12.75 12.45c-1.33.44-2.7.76-4 1.25a10.22 10.22 0 0 0-4.16 2.71 4.07 4.07 0 0 0-.43 5.22 1.21 1.21 0 0 0 1.3.61c-.31-.24-.59-.42-.83-.65a2.23 2.23 0 0 1-.51-2.82 4.42 4.42 0 0 1 3.39-2.37 7.28 7.28 0 0 1 5.09 1.23 24.61 24.61 0 0 1 6.13 5.57c.14.16.26.34.37.47a20.51 20.51 0 0 0-2.29.52 4.16 4.16 0 0 0-3 3.88 7 7 0 0 0 2.61 6.23 21.58 21.58 0 0 0 2.11 1.38 4.18 4.18 0 0 0-.35-.54 9.31 9.31 0 0 1-2.42-4.39 4.92 4.92 0 0 1 .2-2.7 2.27 2.27 0 0 1 1.91-1.58 7.91 7.91 0 0 1 3.43.42c2.17.64 4.32 1.36 6.5 2a18.44 18.44 0 0 0 4.9.77 10.43 10.43 0 0 0 6.2-2.14 18.92 18.92 0 0 0 6.26-7.91 42.28 42.28 0 0 0 2.82-8.71c.87-4 1.67-8 2.5-12a48.79 48.79 0 0 1 2.1-7.38 23.35 23.35 0 0 1 1.2-2.67c1.58-1 10.64 13.65 11.36 19.23 1.76 9.22 2.22 18.51-1.11 27.23-3.28 2.55-6.47 5.12-9.5 7.85a1.62 1.62 0 0 1-.69.56l.07.07-.8.74a1.66 1.66 0 0 1-.59.59 78.59 78.59 0 0 0-6.34 6.74l-.07.09a91.81 91.81 0 0 0-9.93 14c-8.17 14-13.72 29.85-23.83 42.67a93.67 93.67 0 0 1-9.06 9.86c-2 1.9-9 5.75-9.64 8.45-.13.49-1.79 1.37 3.14 2.88 2 .63 4.37.29 6.32 1.48 5.47 3.32.86 4.31 2 6.16 3.56 5.61 6.86 1.71 13 3.24 1.37.34 11.31 5.92 18.58 8.25-1.82 8.3-4 19.37-5.71 26.77-1.24 5.26.63 22.65 1.42 27.89 1.49 9.88 2.69 16.48 3.6 26.42.57 6.16-.48 12.15-4.31 17.52-3.24 4.54-2.78 7.84 1.33 11.69s6 6 8.09 11.08a73.8 73.8 0 0 0 3.94 7.4.87.87 0 0 0 .27.3c6.75 4.63 15 5.33 16.16 5.14 3.34-.55 4.39-2.3 2.9-5.07a.85.85 0 0 0-.36-.34c-7-3.66-8.41-9.39-8.52-14.12v-1.8a38.28 38.28 0 0 1 9.13 13.31 76.24 76.24 0 0 0 4.34 7.51.9.9 0 0 0 .29.3c7.15 4.54 15.73 5 16.89 4.73 3.44-.69 4.46-2.53 2.81-5.34a.89.89 0 0 0-.38-.34c-7.38-3.53-9-9.4-9.32-14.3-.45-7.76-1-15.67-3-23.15-3.28-12.63-3-25.16-1.45-37.88a130.42 130.42 0 0 0 1.19-16c0-7.95.86-15.62 5.23-22.44a29.67 29.67 0 0 0 3.37-7.86c4.73.95 8.08 1.63 8.23 1.83 9.52 3.72 3.74-25.43 8.52-65.19 1.12-9.37-1.16-18.74-1.21-28.18 0-3.87-.3-7.72-.63-11.57-.51-6.09.25-9.51 2-15.43 5.07-17.44 3.91-31.74 1.45-49.48 5.37-7.8 4.54-14.57 3.18-18.95-1.1-3.55-9.42-11.46-19.81-21.4a20.84 20.84 0 0 1 .65-4.55 73.8 73.8 0 0 1 5.42-13.79c2.58-5.38 5.6-10.19 7.53-15.85 1.56-4.57 4-9 5.44-13.63 1.09-3.52 2.07-7.41 3.11-11.37v-.13l.5-1.89.38-1.51a.68.68 0 0 0 .13-.25l.43-2 .87-3.48s.38-2.34.61-3.49c.68-3.36 1.29-6.73 2-10.09.24-1.2.55-2.39.9-3.57.29-1 .69-2 1-3 .22-.65.4-1.31.61-2s.41-1.06.64-1.57c.07-.14.15-.27.23-.39.22-.49.45-1 .7-1.46a3.46 3.46 0 0 1 .46-.79 13.59 13.59 0 0 1 1.1-1 29.8 29.8 0 0 1 3.84-2.67 23.72 23.72 0 0 1 2.11-1.25c1.78-.86 3.56-1.7 5.39-2.45a2.62 2.62 0 0 1 .39-.16 2.06 2.06 0 0 0 1.1-.73 11.79 11.79 0 0 0 1.18-1.68 10 10 0 0 1 2.09-2.72 11.6 11.6 0 0 0 2-2.06c.19-.27.41-.52.62-.77a3.59 3.59 0 0 0 .84-1.31 1.07 1.07 0 0 1 .21-.37 15.64 15.64 0 0 0 1.4-2 26.75 26.75 0 0 1 2.18-3c.39-.51.81-1 1.2-1.51.09-.14.17-.28.27-.41s-.01-.13-.13-.17zM80.61 188.52a13.39 13.39 0 0 1-2.87 4.35 13.19 13.19 0 0 1-5.95 4 11.34 11.34 0 0 1-7.72-.42c-.76-.3-1.49-.7-2.24-1.06v-.12l.79.2a14.81 14.81 0 0 0 11.7-1.73 11.7 11.7 0 0 0 4.56-5.46 22.85 22.85 0 0 0 1.91-7.71c.15-2 .13-3.93.18-5.9a.62.62 0 0 1 0-.12 26.6 26.6 0 0 1 .76 5.46 22.43 22.43 0 0 1-1.12 8.51zM93 417.1c-.16-1-.35-2-.59-3.13-2.56-11.52-2.14-22.84-.49-34.27 1.29 7.21 2.5 14.44 3.42 21.71A26.73 26.73 0 0 1 93 417.1z" id="Layer_1-2" data-name="Layer 1"/></g></svg>