<svg xmlns="http://www.w3.org/2000/svg" viewBox="0 0 470.46 87.48"><title>cosmo-black</title><g id="Layer_2" data-name="Layer 2"><g id="Layer_1-2" data-name="Layer 1"><path d="M131.58,24.18V85.55a76.62,76.62,0,0,1-11.11,0V77.3l-.21,0c-.16.23-.33.45-.47.69a18.29,18.29,0,0,1-14.15,9.33,22.48,22.48,0,0,1-8.78-.49,15.81,15.81,0,0,1-10-8,26.84,26.84,0,0,1-3-9.51c-.29-2.14-.4-4.31-.58-6.46,0-.32,0-.64,0-.93a121.38,121.38,0,0,1,13.16-.09c0,.35.08.72.08,1.1a23.12,23.12,0,0,0,.64,6.25,11.8,11.8,0,0,0,1.15,2.81A5.31,5.31,0,0,0,104,74.47c3.09-.55,4.66-2.62,5.4-5.45a11.57,11.57,0,0,0-1.48-9.07,26.43,26.43,0,0,0-5.57-6.33c-2.44-2.14-5-4.21-7.4-6.35a43.13,43.13,0,0,1-7.72-8.51,26.94,26.94,0,0,1-3.28-6.69,2.87,2.87,0,0,0-.52-1,4.82,4.82,0,0,0,0,.6c.09,1.24.22,2.48.27,3.73.24,5.45.29,10.9,0,16.34A89,89,0,0,1,81.55,68a35.11,35.11,0,0,1-4.78,11.68,16.26,16.26,0,0,1-12.15,7.48,19.43,19.43,0,0,1-10.86-1.58A17.28,17.28,0,0,1,46.66,79a36,36,0,0,1-4.39-11.53c-.47-2.18-.8-4.39-1.19-6.58a.66.66,0,0,0-.27-.47c-.07.71-.17,1.43-.22,2.14A50.21,50.21,0,0,1,39,72.61a23.36,23.36,0,0,1-4.23,8.7,15.35,15.35,0,0,1-9.67,5.56,21.8,21.8,0,0,1-8.4-.15,15.55,15.55,0,0,1-9.43-6.31,29.65,29.65,0,0,1-4.41-9.61A71.24,71.24,0,0,1,.64,58.33,152.33,152.33,0,0,1,.11,38.06,81.58,81.58,0,0,1,3,17.66,34,34,0,0,1,7.61,7.58,16.9,16.9,0,0,1,16.49.74,18,18,0,0,1,23.69.16a18,18,0,0,1,6,1.55A15.66,15.66,0,0,1,37,9.1,30.37,30.37,0,0,1,39.77,18a63.09,63.09,0,0,1,.85,9.11.94.94,0,0,0,.23.62,4.14,4.14,0,0,0,.18-.64,65.2,65.2,0,0,1,1.82-9.56,32.66,32.66,0,0,1,4.36-10A16.15,16.15,0,0,1,58.35.33,19.42,19.42,0,0,1,70.62,2a17.45,17.45,0,0,1,6.83,6.64,35,35,0,0,1,3.89,9.74c.3,1.17.53,2.37.8,3.55a1.16,1.16,0,0,0,.26.51,3.46,3.46,0,0,0,.21-1.49,26.78,26.78,0,0,1,2.48-10.26C87.59,5.43,91.53,1.88,97.28.56a20.35,20.35,0,0,1,11.44.56c4.45,1.56,7.38,4.75,9.3,9A28.29,28.29,0,0,1,120,16.15c.08.37.18.74.27,1.11h.21c0-.37,0-.74,0-1.1q0-6.55,0-13.1V1.83h20c1.12,7.2,2.28,14.35,3.33,21.51,1.34,9.12,3.23,20.74,3.59,21.47a2.4,2.4,0,0,0,.24-.53q.59-3.49,1.16-7,1.14-7,2.28-14l2.46-15.15c.34-2.07.68-4.14,1-6.32.36,0,.7-.09,1-.09h17.24c.32,0,.64,0,1.05.07V85.55a111.67,111.67,0,0,1-13.08,0c0-.45-.06-.93-.06-1.42q0-29.35,0-58.71c0-.43-.06-.87-.1-1.5-.48.83-2.39,12-3.69,20.57-1.05,6.87-2.23,13.73-3.36,20.59s-2.26,13.65-3.39,20.43a44.73,44.73,0,0,1-8.28,0q-2.48-15.32-5-30.72c-1.68-10.24-3.31-20.48-5-30.71ZM27.49,32c0-.34-.1-.59-.1-.84,0-1.51-.06-3-.13-4.53a45.08,45.08,0,0,0-1-8.49,11.08,11.08,0,0,0-1.45-3.64,3.57,3.57,0,0,0-6.18.2,12.62,12.62,0,0,0-.71,1.51,26.91,26.91,0,0,0-1.55,7.39C16,27.74,15.69,31.87,15.6,36c-.17,8.7-.22,17.4.36,26.08a63,63,0,0,0,.81,6.53,15.19,15.19,0,0,0,1.13,3.44,3.39,3.39,0,0,0,2.78,2.09c2.59.34,4.08-.45,5.27-2.79a17.62,17.62,0,0,0,1.51-5.27,81.56,81.56,0,0,0,.76-10.4c0-.38,0-.77,0-1.25,4.14,0,8.14.42,12.17.42-.1-4-.27-7.8-.26-11.63s.21-7.65.33-11.58Zm40.3,11.72c0-2.56,0-5.12,0-7.68s-.07-5.18-.14-7.78a59.93,59.93,0,0,0-.81-8.81,14.81,14.81,0,0,0-1.55-4.75,3.56,3.56,0,0,0-6.27,0,15.26,15.26,0,0,0-1.29,3.38,49.43,49.43,0,0,0-1.17,11.33c-.08,8.4-.07,16.81,0,25.21,0,2.53.08,5.06.25,7.57.15,2.09.44,4.17.77,6.24a11.49,11.49,0,0,0,1.41,4.17,3.54,3.54,0,0,0,6.32,0,10.17,10.17,0,0,0,1.17-3,47.72,47.72,0,0,0,1-6.31c.24-3.57.31-7.14.39-10.72C67.84,49.65,67.79,46.69,67.79,43.74ZM107.7,25.6c0-.32-.07-.51-.08-.7-.06-1.28,0-2.56-.2-3.83a30.49,30.49,0,0,0-.82-4.13,5.44,5.44,0,0,0-1.76-2.79,5.24,5.24,0,0,0-7.73,1.24A10,10,0,0,0,95.83,22a13,13,0,0,0,2.64,6.27,41.28,41.28,0,0,0,6.08,6.28c2.77,2.47,5.57,4.89,8.27,7.43a35,35,0,0,1,7.13,9.22,5.13,5.13,0,0,0,.34.49c.28-1,.25-25.31,0-26.1Z"/><path d="M217.56,55.74c-.09.8-.18,1.6-.27,2.41a64.37,64.37,0,0,1-3.14,15A27.27,27.27,0,0,1,209.93,81a15.8,15.8,0,0,1-9.48,5.9,21.08,21.08,0,0,1-10.12-.34,16.15,16.15,0,0,1-8.79-6.46,32.56,32.56,0,0,1-4.72-10.86,73.84,73.84,0,0,1-2-12.42,138.15,138.15,0,0,1-.54-17.61A127.57,127.57,0,0,1,175.42,25a50.46,50.46,0,0,1,3.79-13.7,20.71,20.71,0,0,1,5.65-7.6A16.12,16.12,0,0,1,193.19.23a20.89,20.89,0,0,1,9,.7,16.63,16.63,0,0,1,9.14,7.39,36.37,36.37,0,0,1,4.35,11.13,88.63,88.63,0,0,1,1.77,11.47.9.9,0,0,0,.28.62V1.85c.45,0,.79-.09,1.14-.09,5.61,0,11.23,0,16.84.1a29.55,29.55,0,0,1,10.92,2.22,17.93,17.93,0,0,1,10.42,11.5,36.73,36.73,0,0,1,1.54,9c0,.2,0,.39.07.59a1.63,1.63,0,0,0,.16.25c.11-.58.21-1,.28-1.47a50.43,50.43,0,0,1,3-11.19,24.54,24.54,0,0,1,4.22-7.07A15.71,15.71,0,0,1,274.88.56a20.7,20.7,0,0,1,10.88.37,16.56,16.56,0,0,1,9.14,7.38,35.8,35.8,0,0,1,4.33,11,83.12,83.12,0,0,1,1.83,12.35,159.63,159.63,0,0,1,.31,18.8,87.32,87.32,0,0,1-2.29,18,35.7,35.7,0,0,1-4.14,10.38,16.45,16.45,0,0,1-9.35,7.56,20.23,20.23,0,0,1-12.76-.27,16,16,0,0,1-7.77-6.12,31.43,31.43,0,0,1-4.46-9.91A70.28,70.28,0,0,1,258.53,59a156.55,156.55,0,0,1-.72-20.06c0-.62.06-1.24.09-2-.51.34-.47.81-.57,1.17a22.83,22.83,0,0,1-2.63,6.13A16.15,16.15,0,0,1,244,51.58a27.18,27.18,0,0,1-5.48.5c-1.48,0-3,0-4.43,0H232.8c0,.54-.09,1-.09,1.43q0,15.32,0,30.63v1.47a7.06,7.06,0,0,1-.9.12h-13.2a8.18,8.18,0,0,1-.82-.09c0-10,0-19.93,0-29.89Zm-15.8-12h.14c-.16-6.33-.26-12.66-.51-19a51.51,51.51,0,0,0-.84-6.43,10.08,10.08,0,0,0-1.35-3.67A3.45,3.45,0,0,0,197,13a3.49,3.49,0,0,0-4,1.64,10.69,10.69,0,0,0-1.34,3.47,52.6,52.6,0,0,0-1.15,11.34c-.08,8.4-.07,16.8,0,25.21,0,2.53.08,5.06.25,7.57.15,2.09.44,4.17.77,6.24A11.11,11.11,0,0,0,193,72.77a3.52,3.52,0,0,0,6.16,0,10.2,10.2,0,0,0,1.22-3.09,46.8,46.8,0,0,0,1-6.31c.24-3.53.32-7.08.39-10.62C201.81,49.72,201.76,46.74,201.76,43.75Zm83.54-.06c0-2.72,0-5.45,0-8.17s0-5.52-.18-8.27c-.15-2.58-.44-5.16-.77-7.73a13.77,13.77,0,0,0-1.47-4.67,3.58,3.58,0,0,0-6.43,0,15.68,15.68,0,0,0-1.22,3.31,49.38,49.38,0,0,0-1.16,11.23C274,37.81,274,46.24,274,54.68c0,2.49.07,5,.25,7.48.15,2.12.45,4.24.78,6.34a11.44,11.44,0,0,0,1.38,4.08,3.55,3.55,0,0,0,6.37,0,9.93,9.93,0,0,0,1.13-2.92,49.65,49.65,0,0,0,1-6.41c.24-3.6.31-7.21.38-10.82C285.34,49.53,285.3,46.61,285.3,43.69Zm-52.4-3.91a13.56,13.56,0,0,0,4.29-.16,6.73,6.73,0,0,0,5.35-4.42,17.32,17.32,0,0,0,.84-3.12,31.45,31.45,0,0,0,.17-8.63,14.13,14.13,0,0,0-1.45-5.37,5.84,5.84,0,0,0-3.74-3,16.25,16.25,0,0,0-5.27-.33c-.05,0-.1.07-.19.15Z"/><path d="M458.5,1.95a106.84,106.84,0,0,1,11.79-.07c.18.71.24,82.4,0,83.78-.32,0-.67.08-1,.08H460c-1,0-1.06,0-1.37-1L449,54.66l-6-18.94c-.08-.24-.19-.46-.27-.67a.68.68,0,0,0-.17,0,.12.12,0,0,0-.05.07,2.53,2.53,0,0,0,0,.39q0,25,0,49.94s0,.06,0,.08c-.7.23-24.73.31-26.17.06L414.08,67.2H401.83c-.79,6.1-1.4,12.23-2.17,18.43a6.26,6.26,0,0,1-.84.11H388.08c-.26,0-.51-.05-.91-.1q2.46-17.8,4.91-35.49c1.63-11.82,3.25-23.64,4.88-35.54H384c0,2.18,0,4.31,0,6.43s0,4.33,0,6.5V79.17c0,2.13,0,4.26,0,6.35a131.84,131.84,0,0,1-14.91.06v-71c-2.19-.12-4.28,0-6.37-.06s-4.2,0-6.28,0a99.69,99.69,0,0,1-.12-12.7c.41,0,.86-.09,1.3-.09h39.31c0,.46.11.84.11,1.21,0,2.59,0,5.19,0,7.78,0,.34,0,.69,0,1h.26l1.4-10h21.67c1.06,8.38,2,16.74,3.06,25.09s2,16.8,3,25.21,2,16.71,3.23,25.08a4.22,4.22,0,0,0,.11-.59c0-.36,0-.72,0-1.08q0-36,0-72V1.86c.46,0,.8-.09,1.15-.1h12.41c1.08,0,1.09,0,1.42,1.06l9.48,30.64q1.79,5.78,3.58,11.56a2.2,2.2,0,0,0,.46.84c.16-3.67.14-7.32.14-11s0-7.29,0-10.93v-22ZM408.16,14.52c-.4,1-4.9,39.39-4.74,40.28h3c1,0,2.1,0,3.15,0a14.08,14.08,0,0,0,3.07-.13c-1.42-13.26-2.82-26.42-4.24-39.58A2.71,2.71,0,0,0,408.16,14.52Z"/><path d="M317,72.77h18.84a107.45,107.45,0,0,1,.08,12.83c-.88.21-32.89.2-33.78,0V1.95a139.92,139.92,0,0,1,14.85,0Z"/><path d="M338.62,1.81h14.74c0,.28.11.53.13.78s0,.52,0,.79q0,40.37,0,80.74v1.41a134,134,0,0,1-14.87,0Z"/></g></g></svg>