<svg xmlns="http://www.w3.org/2000/svg" viewBox="0 0 231.18 104.46"><defs><style>.cls-1{fill:#231f20;}</style></defs><title>CS-black</title><g id="Layer_2" data-name="Layer 2"><g id="Layer_1-2" data-name="Layer 1"><path class="cls-1" d="M147.3,45.8a1.5,1.5,0,0,0-2,.83,31.59,31.59,0,0,1-29,19.79l.05-14.55a11.47,11.47,0,0,0,5-1.1c1.11-.54,4.07-2,5-5.17a7.28,7.28,0,0,0-1.1-6.68,11.25,11.25,0,0,0-6-3.8c-.48-.16-1-.31-1.43-.5-2.92-1.18-8.34-3.38-9.2-4.21a4.1,4.1,0,0,1-1.14-4.63c.54-1.78,2.37-2.69,3.47-3.23,4.89-2.43,10.75.34,11.95,1.56a1.5,1.5,0,0,0,2.14-2.1c-1.18-1.2-4.62-3-8.58-3.35L116.59,3A31.58,31.58,0,0,1,145.35,22.8a1.5,1.5,0,1,0,2.78-1.13,34.72,34.72,0,1,0,0,26.08A1.5,1.5,0,0,0,147.3,45.8ZM84.24,34.72A31.75,31.75,0,0,1,113.59,3.1l-.06,15.6a12.08,12.08,0,0,0-3.84,1.15c-1.32.66-4.08,2-5,5a7.1,7.1,0,0,0,1.92,7.66c1.09,1.06,4.14,2.41,10.17,4.85.54.22,1.09.4,1.64.58A8.39,8.39,0,0,1,123,40.82a4.21,4.21,0,0,1,.55,3.91c-.59,1.94-2.53,2.88-3.47,3.33a10.07,10.07,0,0,1-5,.79,14.12,14.12,0,0,1-6.85-1.7,32.93,32.93,0,0,1-3.39-2.26,1.5,1.5,0,0,0-1.79,2.41A35.43,35.43,0,0,0,107,49.85a16.53,16.53,0,0,0,6.46,1.91l-.05,14.56A31.75,31.75,0,0,1,84.24,34.72Z"/><path d="M9.45,93.27a4.29,4.29,0,0,0-2-.49,4.2,4.2,0,0,0-3.7,2.16,4.47,4.47,0,0,0-.56,2.22,4.53,4.53,0,0,0,.56,2.23A4.23,4.23,0,0,0,5.34,101a4.11,4.11,0,0,0,2.16.59,4.51,4.51,0,0,0,1.91-.45,6,6,0,0,0,1.73-1.21l1.86,2a8.42,8.42,0,0,1-2.63,1.84,7.33,7.33,0,0,1-3,.68,7.46,7.46,0,0,1-3.74-1A6.93,6.93,0,0,1,1,100.9a7.26,7.26,0,0,1-1-3.7A7,7,0,0,1,3.67,91,7.74,7.74,0,0,1,7.46,90a7.6,7.6,0,0,1,3,.63A7.57,7.57,0,0,1,13,92.36l-1.84,2.26A5.3,5.3,0,0,0,9.45,93.27Z"/><path d="M17.18,90.24h3.16v14H17.18Z"/><path d="M34.34,104.24l-2.22-4H28.9v4H25.74v-14h6.08a6.38,6.38,0,0,1,4.24,1.27,4.45,4.45,0,0,1,1.5,3.59,5.41,5.41,0,0,1-.67,2.77,4.31,4.31,0,0,1-2,1.75l3,4.62ZM28.9,97.6h2.92a3,3,0,0,0,2-.61,2.23,2.23,0,0,0,.71-1.79,2.15,2.15,0,0,0-.71-1.75,3.1,3.1,0,0,0-2-.59H28.9Z"/><path d="M51,93.27a4.29,4.29,0,0,0-2-.49,4.2,4.2,0,0,0-3.7,2.16,4.47,4.47,0,0,0-.56,2.22,4.53,4.53,0,0,0,.56,2.23,4.23,4.23,0,0,0,1.54,1.6,4.11,4.11,0,0,0,2.16.59,4.51,4.51,0,0,0,1.91-.45,6,6,0,0,0,1.73-1.21l1.86,2a8.42,8.42,0,0,1-2.63,1.84,7.33,7.33,0,0,1-3,.68,7.46,7.46,0,0,1-3.74-1,6.93,6.93,0,0,1-2.64-2.61,7.26,7.26,0,0,1-1-3.7A7,7,0,0,1,45.19,91,7.74,7.74,0,0,1,49,90a7.9,7.9,0,0,1,5.52,2.34l-1.84,2.26A5.3,5.3,0,0,0,51,93.27Z"/><path d="M62.47,100.83a3,3,0,0,0,2.27.87,2.89,2.89,0,0,0,2.2-.86,3.31,3.31,0,0,0,.82-2.38V90.24h3.16v8.22a6.47,6.47,0,0,1-.75,3.19A5.1,5.1,0,0,1,68,103.73a7.05,7.05,0,0,1-3.3.73,7.17,7.17,0,0,1-3.32-.73,5.13,5.13,0,0,1-2.18-2.08,6.4,6.4,0,0,1-.76-3.19V90.24h3.16v8.22A3.25,3.25,0,0,0,62.47,100.83Z"/><path d="M76.06,90.24h3.16v11.24h6v2.76H76.06Z"/><path d="M99.82,104.24l-1.1-2.72H92.24l-1.1,2.72H87.88l6.08-14h3.26l6,14ZM93.28,99H97.7l-2.2-5.44Z"/><path d="M115.56,104.24l-2.22-4h-3.22v4H107v-14H113a6.38,6.38,0,0,1,4.24,1.27,4.45,4.45,0,0,1,1.5,3.59,5.41,5.41,0,0,1-.67,2.77,4.31,4.31,0,0,1-2,1.75l3,4.62Zm-5.44-6.64H113a3,3,0,0,0,2-.61,2.23,2.23,0,0,0,.71-1.79,2.15,2.15,0,0,0-.71-1.75,3.1,3.1,0,0,0-2-.59h-2.92Z"/><path d="M144.63,93.09a7,7,0,0,0-2.07-.39,2.44,2.44,0,0,0-1.3.3,1,1,0,0,0-.48.88,1.23,1.23,0,0,0,.69,1.13,10.63,10.63,0,0,0,2.13.81,18.35,18.35,0,0,1,2.37.84,4.21,4.21,0,0,1,1.59,1.26,3.5,3.5,0,0,1,.66,2.22,3.8,3.8,0,0,1-.71,2.31,4.37,4.37,0,0,1-1.95,1.47,7.5,7.5,0,0,1-2.82.5,9.64,9.64,0,0,1-3.34-.6,9,9,0,0,1-2.84-1.64l1.26-2.58a8.52,8.52,0,0,0,2.44,1.54,6.57,6.57,0,0,0,2.52.58,2.78,2.78,0,0,0,1.53-.36,1.26,1.26,0,0,0,.18-1.93,2.84,2.84,0,0,0-.94-.57q-.57-.22-1.57-.5a17.88,17.88,0,0,1-2.35-.8,4.13,4.13,0,0,1-1.57-1.22,3.37,3.37,0,0,1-.66-2.18,3.7,3.7,0,0,1,.68-2.21,4.32,4.32,0,0,1,1.9-1.46,7.32,7.32,0,0,1,2.84-.51,9.82,9.82,0,0,1,2.84.42,9.62,9.62,0,0,1,2.48,1.12l-1.22,2.62A10.64,10.64,0,0,0,144.63,93.09Z"/><path d="M156.51,100.83a3,3,0,0,0,2.27.87,2.89,2.89,0,0,0,2.2-.86,3.31,3.31,0,0,0,.82-2.38V90.24H165v8.22a6.47,6.47,0,0,1-.75,3.19,5.1,5.1,0,0,1-2.15,2.08,7.05,7.05,0,0,1-3.3.73,7.17,7.17,0,0,1-3.32-.73,5.13,5.13,0,0,1-2.18-2.08,6.4,6.4,0,0,1-.76-3.19V90.24h3.16v8.22A3.25,3.25,0,0,0,156.51,100.83Z"/><path d="M170.1,90.24h3.52l4.36,8.6,4.32-8.6h3.5v14H183V94.78l-4,8h-2l-4-8v9.46H170.1Z"/><path d="M191.2,90.24h3.52l4.36,8.6,4.32-8.6h3.5v14h-2.84V94.78l-4,8h-2l-4-8v9.46H191.2Z"/><path d="M212.3,90.24h3.16v14H212.3Z"/><path d="M219.48,90.24h11.7v2.68H226.9v11.32h-3.16V92.92h-4.26Z"/></g></g></svg>