<svg xmlns="http://www.w3.org/2000/svg" viewBox="0 0 115.43 78.97"><defs><style>.cls-1{fill:#fff;}</style></defs><title>experience-thin-white</title><g id="Layer_2" data-name="Layer 2"><g id="Layer_1-2" data-name="Layer 1"><path class="cls-1" d="M36.53,79a2,2,0,0,1-.54-.09l-.14,0-.14,0a2,2,0,0,1-.54.09H2a2,2,0,0,1-2-2V59c0-.31,0-.62,0-.93a19,19,0,0,1,11.2-16.56l.64-.28-.48-.51a13.2,13.2,0,0,1-3.38-9C8,25,12.74,19.55,18.57,19.55S29.13,25,29.13,31.79a13.25,13.25,0,0,1-3.37,9l-.48.51.64.28a18.77,18.77,0,0,1,6.21,4.52l1,1.09-1.05-12a4.59,4.59,0,0,1,0-.88c0-.23,0-.37,0-.51s0-.3,0-.45L34.56,4.84A5.34,5.34,0,0,1,39.83,0l.48,0a5.32,5.32,0,0,1,4.81,5.74L42.63,34.17,43.56,45l.72-.56a24.23,24.23,0,0,1,5.66-3.26l.7-.29-.54-.53a17.12,17.12,0,0,1-4.88-12.22c0-8.81,6.17-16,13.74-16s13.74,7.17,13.74,16a17.07,17.07,0,0,1-4.88,12.22l-.54.53.71.29a24.36,24.36,0,0,1,11.36,9.53l.48.76.39-.81a18.87,18.87,0,0,1,9.3-9.11l.64-.28-.48-.51a13.2,13.2,0,0,1-3.38-9C86.3,25,91,19.55,96.86,19.55S107.42,25,107.42,31.79a13.25,13.25,0,0,1-3.37,9l-.48.51.64.28A19.11,19.11,0,0,1,115.41,58c0,.37,0,.69,0,1V77a2,2,0,0,1-2,2ZM96.86,21.55c-4.72,0-8.56,4.59-8.56,10.24a11,11,0,0,0,3.29,8.06,2,2,0,0,1,.57,1.81,2,2,0,0,1-1.25,1.48,17,17,0,0,0-9.79,10.53l-.06.18.08.18.06.16c.28.63.54,1.28.76,1.92l.09.28c.23.68.43,1.36.58,2l.06.24c.17.74.3,1.43.4,2.11l0,.17c.11.79.18,1.53.22,2.26,0,.44,0,.88,0,1.31V77h30V59c0-.3,0-.58,0-.88a17,17,0,0,0-10.61-15,2,2,0,0,1-1.24-1.49,2,2,0,0,1,.58-1.79,11,11,0,0,0,3.29-8.06C105.42,26.14,101.58,21.55,96.86,21.55ZM34.08,34.3a2.91,2.91,0,0,0,0,.63l2.5,28.66v.05c0,.34,0,.58,0,.83V77H81.39V64.48q0-.61,0-1.22a23.09,23.09,0,0,0-2.25-8.9,22.84,22.84,0,0,0-12.6-11.6,2,2,0,0,1-1.27-1.5,1.9,1.9,0,0,1,.63-1.81,15,15,0,0,0,4.84-11.3c0-7.71-5.27-14-11.74-14s-11.74,6.27-11.74,14a15,15,0,0,0,4.83,11.3,1.88,1.88,0,0,1,.64,1.8,2,2,0,0,1-1.28,1.51,22.19,22.19,0,0,0-6.59,3.83,2,2,0,0,1-2,.31,2,2,0,0,1-1.21-1.65l-1-11.1s0-.07,0-.13L43.12,5.59a3.31,3.31,0,0,0-3-3.58h-.28a3.33,3.33,0,0,0-3.29,3L34.07,33.45c0,.13,0,.21,0,.29a2.9,2.9,0,0,0,0,.33l0,.12ZM18.57,21.55c-4.72,0-8.56,4.59-8.56,10.24a11,11,0,0,0,3.29,8.06,2,2,0,0,1,.57,1.81,2,2,0,0,1-1.25,1.48A17,17,0,0,0,2,58.14c0,.32,0,.61,0,.91V77H34.55V64.48c0-.27,0-.53,0-.8v-.12l-1-11.86,0-.08a16.89,16.89,0,0,0-9-8.48,2,2,0,0,1-1.24-1.49,2,2,0,0,1,.58-1.79,11,11,0,0,0,3.29-8.06C27.13,26.14,23.29,21.55,18.57,21.55Z"/></g></g></svg>