<svg xmlns="http://www.w3.org/2000/svg" viewBox="0 0 132.43 92.02"><defs><style>.cls-1{fill:#fff;}</style></defs><title>film-side-white</title><g id="Layer_2" data-name="Layer 2"><g id="Layer_1-2" data-name="Layer 1"><path class="cls-1" d="M83.34,34.13a3.25,3.25,0,0,1-.46.17L71.19,37.75A3.15,3.15,0,0,1,68,36.91a3.48,3.48,0,0,1-.76-3.53,3.55,3.55,0,0,1,1.85-2.09,3.34,3.34,0,0,1,.41-.16l11.73-3.66a3.17,3.17,0,0,1,3.08.66,3.42,3.42,0,0,1,1.06,3.23l0,.21A3.61,3.61,0,0,1,83.34,34.13Zm-13.42-1a1.54,1.54,0,0,0-.79.91,1.46,1.46,0,0,0,.3,1.51,1.17,1.17,0,0,0,1.2.31l11.69-3.45.19-.07a1.54,1.54,0,0,0,.84-1.12l0-.22A1.44,1.44,0,0,0,83,29.61a1.17,1.17,0,0,0-1.15-.24L70.08,33Z"/><path class="cls-1" d="M30,66.65a3.18,3.18,0,0,1-2.41.1l-.21-.07A3.81,3.81,0,0,1,25,64.09a3.51,3.51,0,0,1,.6-3.18l7.74-9.46a3.06,3.06,0,0,1,1.08-.84,3.13,3.13,0,0,1,1.93-.22,3.77,3.77,0,0,1,2.76,2.41,3.53,3.53,0,0,1-.47,3.44l-7.54,9.53A3,3,0,0,1,30,66.65Zm5.28-14.23a1.06,1.06,0,0,0-.38.29l-7.74,9.46a1.53,1.53,0,0,0-.23,1.38,1.84,1.84,0,0,0,1.11,1.24l.21.07a1.17,1.17,0,0,0,.9,0,1.06,1.06,0,0,0,.39-.31L37.09,55a1.59,1.59,0,0,0,.17-1.51A1.77,1.77,0,0,0,36,52.34,1.14,1.14,0,0,0,35.29,52.42Z"/><path class="cls-1" d="M41.83,28.46a3.91,3.91,0,0,1-1.46.36,3.53,3.53,0,0,1-3.14-1.48L31.46,18.7a3.1,3.1,0,0,1,.13-3.64l.13-.18a3.69,3.69,0,0,1,1.4-1.13,4,4,0,0,1,1.78-.36,3.51,3.51,0,0,1,2.86,1.53l5.63,8.81a3.05,3.05,0,0,1,.11,3.18A3.65,3.65,0,0,1,41.83,28.46ZM34,15.57a1.66,1.66,0,0,0-.64.51l-.13.18a1.12,1.12,0,0,0-.07,1.33l5.76,8.64a1.58,1.58,0,0,0,1.38.6,2,2,0,0,0,.73-.18,1.59,1.59,0,0,0,.74-.68,1.08,1.08,0,0,0,0-1.14L36.08,16a1.53,1.53,0,0,0-1.24-.62A2,2,0,0,0,34,15.57Z"/><path class="cls-1" d="M61.26,64.29a35.64,35.64,0,0,1-9.18,3.05A5,5,0,0,1,47.79,66a4.15,4.15,0,0,1-1.16-3.66L49.21,50A3.78,3.78,0,0,1,51,47.29l6.77-3.94.3-.16A3.75,3.75,0,0,1,60.74,43l13.68,3.2A4.13,4.13,0,0,1,77.29,49a5.1,5.1,0,0,1-1,4.63C73.49,57.16,67.58,61.35,61.26,64.29ZM58.78,45.08,52,49a1.82,1.82,0,0,0-.84,1.31L48.6,62.71a2.14,2.14,0,0,0,.61,1.89,3,3,0,0,0,2.57.77,33.66,33.66,0,0,0,8.65-2.88c6-2.82,11.67-6.79,14.34-10.11a3.12,3.12,0,0,0,.61-2.79,2.1,2.1,0,0,0-1.47-1.43L60.23,45a1.83,1.83,0,0,0-1.31.05Z"/><path class="cls-1" d="M62.05,27.24a3.94,3.94,0,0,1-3,.1l-1.91-.68a4.82,4.82,0,0,1-3-5.54L56.54,8.69a3.82,3.82,0,0,1,2.17-2.63,5,5,0,0,1,1.4-.41c6.06-.88,17.36,1.44,22,4.51A4,4,0,0,1,84,13.72a4.66,4.66,0,0,1-2.52,3.81ZM59.55,7.87a1.82,1.82,0,0,0-1.05,1.24L56.14,21.54a2.85,2.85,0,0,0,1.71,3.23l1.91.68a1.91,1.91,0,0,0,1.46,0l19.29-9.66A2.66,2.66,0,0,0,82,13.62a2,2,0,0,0-1-1.8c-4.14-2.76-15.09-5-20.57-4.2A3.07,3.07,0,0,0,59.55,7.87Z"/><path class="cls-1" d="M50,44.36c-3.4,1.59-5.91,1.44-7.41,1a6.92,6.92,0,0,1-4.44-3.57c-1.68-3.4,2-8.86,6.36-11.29.33-.19.69-.37,1.07-.54,2.91-1.36,8.5-2.86,11,.11a7.1,7.1,0,0,1,1.84,5.59c-.36,2.46-2.22,4.83-5.55,7A21.79,21.79,0,0,1,50,44.36ZM46.38,31.8c-.33.15-.64.31-.93.48-3.73,2.1-6.59,6.56-5.55,8.67a4.9,4.9,0,0,0,3.17,2.52,8.87,8.87,0,0,0,6-.9,20,20,0,0,0,2.61-1.48c2.83-1.89,4.41-3.79,4.68-5.67a5.1,5.1,0,0,0-1.4-4C53.39,29.48,49,30.59,46.38,31.8Z"/><path class="cls-1" d="M11.68,57.57a3.48,3.48,0,0,1-2.83,0,4.67,4.67,0,0,1-2.68-3.35c-1.3-6.11,2.06-16.51,5-21.28a4.76,4.76,0,0,1,1.94-1.84,3.15,3.15,0,0,1,2.1-.21l14.6,3.49A4.33,4.33,0,0,1,33,39.35l-.42,2.39a3.6,3.6,0,0,1-1.57,2.43L12.13,57.32A3.74,3.74,0,0,1,11.68,57.57ZM14,33A2.71,2.71,0,0,0,12.91,34h0c-3,4.86-5.86,14.77-4.78,19.8a2.68,2.68,0,0,0,1.49,1.92,1.47,1.47,0,0,0,1.21,0l.19-.1L29.94,42.51a1.65,1.65,0,0,0,.71-1.12L31.07,39a2.36,2.36,0,0,0-1.68-2.63L14.8,32.88A1.19,1.19,0,0,0,14,33Z"/><path class="cls-1" d="M130.4,92c-8.58-17.4-37.54-18.59-59.43-8.7-10.87,4.91-22.64,7.21-33.14,6.49-14-.94-24.6-7-29.1-16.52-.28-.6-.86-1.69-1.52-2.94-2.45-4.6-4.65-8.87-5-10.92v-.06l0-.06C-.67,53.08-.72,45.87,2,38.44,6.63,26,18.62,14.19,34.09,7l.87-.4c26-11.74,53.85-7.34,62.12,9.81l0,.06,0,.05c1.36,1.58,3.24,6,5.2,10.79.55,1.35,1,2.49,1.3,3.09,4.17,8.88,2.51,19.93-4.56,30.31l-.47.69.83.09c13.85,1.49,24.07,7.17,28,15.59,1,2.16,4.4,11.12,5,14.41ZM8.84,69.14l.11.22c.72,1.37,1.29,2.42,1.59,3.07C14.72,81.32,24.72,86.92,38,87.81c10.18.7,21.61-1.54,32.18-6.32,20.87-9.43,45.39-8.21,57,2.85l.81-.53c-.9-2.5-1.82-4.82-2.33-5.91-3.86-8.22-14.7-13.71-29-14.68-10.2-.69-21.63,1.55-32.18,6.32q-.91.41-1.84.8L61.12,71,61,71c-19.49,7.7-39.66,6.72-51.38-2.51ZM99.41,28.38C98.84,40,90.72,52.6,77.67,62l.4.89,1.26-.27.89-.19L82,62.07l.44-.08q1.11-.18,2.22-.33l.56-.07,1.65-.19.8-.07L89,61.23l.87,0,1.3-.06.89,0h2.15l1.23,0,.79,0,.16-.22c7.51-10.23,9.48-21.08,5.41-29.75-.3-.64-.75-1.75-1.33-3.14l-.12-.28-1,.17C99.44,28,99.41,28.31,99.41,28.38ZM34.93,8.79c-15,7-26.61,18.34-31,30.34-2.58,7-2.52,13.74.17,19.49C7.62,65.37,14.51,70.4,23.49,72.78c11.29,2.72,25.14,1.21,38-4.14.72-.3,1.43-.6,2.15-.93l.76-.35q1-.47,2-1c13.84-7,25-18.44,29.22-29.84A32,32,0,0,0,96.7,33.1a25.83,25.83,0,0,0,.62-8.55,22,22,0,0,0-1.22-5.36l0-.11c-.21-.57-.44-1.12-.68-1.63C87.69,1.09,61-3,35.78,8.4Z"/></g></g></svg>