<svg xmlns="http://www.w3.org/2000/svg" viewBox="0 0 273.96 62.52"><title>glamour-black</title><g id="Layer_2" data-name="Layer 2"><g id="Layer_1-2" data-name="Layer 1"><path d="M158.65,1V61.53H146.8c.19-17.34-.41-34.69.49-52L147,11.15c-.09.56-.2,1.12-.26,1.69-1,8-2.43,15.88-4.14,23.74-1.76,8.07-3.42,16.17-5.1,24.26-.11.55-.29.76-.87.76-2.11,0-4.23,0-6.34,0-.52,0-.74-.15-.85-.69-2.37-12-4.84-24-7.1-36-.89-4.73-1.33-9.54-2-14.32-.05-.39-.14-.77-.18-.94V61.52h-9.54V1c.29,0,.56,0,.84-.05,5.08,0,10.17,0,15.25,0,.6,0,.88.1,1,.8,1.6,9,3.36,17.93,4.83,26.93.75,4.58,1,9.24,1.46,13.87a2.1,2.1,0,0,0,.17.78c1.08-14.38,5-28.22,7.74-42.31Z"/><path d="M274,61.59h-9.07c-1,0-2.06,0-3.08,0-.63,0-.88-.19-1.05-.79C259.17,55.22,257.56,49.64,256,44c-.52-1.84-1.06-3.67-1.56-5.51-.15-.57-.38-.86-1-.81a18.29,18.29,0,0,1-2.48,0c-.62,0-.79.21-.77.79,0,1.34,0,2.68,0,4q0,9,0,17.91v1.13H239.17c-1.12,0-1.12,0-1.12-1.11q0-19.79,0-39.58c0-6.28,0-12.57,0-18.85,0-.82.16-1.13,1.07-1.12,5.54.05,11.08,0,16.62,0a23.44,23.44,0,0,1,7.36.9C267,3.15,269.33,6.12,271,9.7c1.79,3.88,1.94,8,1.62,12.16A18.88,18.88,0,0,1,270.28,30a12.61,12.61,0,0,1-4.57,4.66c-.79.46-.85.88-.56,1.69q4.28,12.09,8.48,24.2C273.73,60.87,273.82,61.16,274,61.59ZM250.12,19.11c0,2.63,0,5.25,0,7.88,0,.61.17.88.83.85,1,0,1.94,0,2.91,0,3.38-.12,5.41-1.71,6.18-5a16.55,16.55,0,0,0,0-7.63,5.61,5.61,0,0,0-5.39-4.76c-1.22-.13-2.45-.05-3.67-.12-.68,0-.89.22-.88.88C250.13,13.86,250.12,16.48,250.12,19.11Z"/><path d="M160.84,30.74A54,54,0,0,1,162.54,14a22,22,0,0,1,4.37-8.63c3.49-4,8-5.42,13.19-5.29,8.07.2,13.23,4.24,16,12.42A44.45,44.45,0,0,1,198.27,25c.16,4.39.18,8.79,0,13.18a39,39,0,0,1-2.86,13.91c-3.1,7.22-8.67,10.69-16.52,10.44A16.07,16.07,0,0,1,168,58.43a19.28,19.28,0,0,1-4.75-8.11,47.06,47.06,0,0,1-2.4-13.25C160.75,35,160.84,32.85,160.84,30.74Zm24.7,1.7c-.18-4.45-.32-9-.57-13.52a15.18,15.18,0,0,0-1.43-5.86,4.47,4.47,0,0,0-7.65-.3,11.32,11.32,0,0,0-1.57,5c-.25,3.7-.5,7.4-.55,11.11-.07,5.28-.27,10.57.56,15.81a21.19,21.19,0,0,0,1.32,4.75c.74,1.78,2.36,2.39,4.21,2.35a4,4,0,0,0,4-2.64,15,15,0,0,0,.91-3.89C185.13,41,185.31,36.77,185.54,32.44Z"/><path d="M30.69,54.3c-.29.52-.48.83-.63,1.15-2.34,5-6.36,7.18-11.83,7.07C10.65,62.35,5.84,58.42,3,51.65A39.93,39.93,0,0,1,.44,40.53,80.38,80.38,0,0,1,.28,25.39C.76,19.59,1.82,13.91,4.76,8.76c2.82-4.95,7-8,12.73-8.62,9-1,15.34,3.08,18.1,11.67a75.9,75.9,0,0,1,1.66,8c.11.55-.06.72-.62.81-2.95.52-5.88,1.1-8.82,1.65a6.2,6.2,0,0,1-.63,0c-.17-1-.29-2.07-.53-3.08a40.68,40.68,0,0,0-1.38-5,5.28,5.28,0,0,0-5.44-3.5,5.36,5.36,0,0,0-5.34,3.65,21.59,21.59,0,0,0-1.38,7.54c-.16,5.59-.28,11.19-.15,16.78a52.18,52.18,0,0,0,1.17,8.1,7.85,7.85,0,0,0,1.14,2.56c1.19,1.94,3.08,2.49,5.24,2.4a5,5,0,0,0,4.74-3.08,13.48,13.48,0,0,0,.8-2.34,24.06,24.06,0,0,0,.62-6.69H19.19v-10H37.34V61.53H32.17Z"/><path d="M200.82,1h12.37c0,.4,0,.76,0,1.12,0,13.31,0,26.61.06,39.92a22.11,22.11,0,0,0,.69,5.49,5.79,5.79,0,0,0,8.84,3.09,5.14,5.14,0,0,0,2.12-3.5,29.82,29.82,0,0,0,.54-5c0-13.31,0-26.61,0-39.92,0-.37,0-.74,0-1.18H235.9c0,.28.06.56.06.83q0,19.32,0,38.63a40.52,40.52,0,0,1-1.28,11.44,13.68,13.68,0,0,1-12.36,10.34,27.27,27.27,0,0,1-11.76-.9c-4.5-1.51-7.07-4.81-8.36-9.24a41.09,41.09,0,0,1-1.36-11.52q0-19.45,0-38.89C200.78,1.5,200.8,1.27,200.82,1Z"/><path d="M109.38,61.54H97C96.51,59,96,56.49,95.56,54c-.3-1.6-.6-3.19-.88-4.79-.08-.45-.23-.7-.76-.7q-5.44,0-10.88,0c-.51,0-.68.2-.76.68-.67,3.82-1.36,7.63-2.05,11.45-.05.3-.14.6-.22.92H69l2-8.71L81.84,5.42c.29-1.28.59-2.55.87-3.83a.69.69,0,0,1,.81-.65q5.78,0,11.57,0c.57,0,.7.25.81.73q2.88,12.84,5.8,25.68l7.59,33.51C109.32,61.05,109.34,61.25,109.38,61.54ZM88.53,12.93,83.76,38.7h9.35C91.66,30,89,21.54,88.53,12.93Z"/><path d="M39.58,1H51.94V50.49H67.29v11H39.58Z"/></g></g></svg>