<svg xmlns="http://www.w3.org/2000/svg" viewBox="0 0 285.43 349.51"><title>higher-full-logo-black</title><g id="Layer_2" data-name="Layer 2"><g id="Layer_6" data-name="Layer 6"><path d="M0,299.14c-.39,16.43,4.81,32.62,7.19,48.75.32,2.18,4,2.12,4.34,0q2.75-15.19,6.1-30.26l-3.76,1c3.49,3.62,7,7.25,9.72,11.53,2,3.2,2.92,7,5.67,9.7A2.27,2.27,0,0,0,33,337.67c-2.12-7.7-1.93-15.7-2.67-23.6-.64-6.81-1.06-12.88,1.55-19.42,1.08-2.69-3.27-3.86-4.34-1.2-2.76,6.91-2.4,13.38-1.71,20.62.79,8.3.61,16.7,2.83,24.8l3.76-2.19c-3-3-4.27-8-6.83-11.49a99.75,99.75,0,0,0-8.57-9.73,2.27,2.27,0,0,0-3.76,1Q10,331.51,7.21,346.7h4.34c-2.33-15.74-7.42-31.53-7-47.56.07-2.9-4.43-2.9-4.5,0Z"/><path d="M93.38,316.07c.26-6.06-4-17-11.1-17.57-9.79-.79-11.45,12.11-11.27,19.18.18,7.32,2.08,20.65,10.71,23,9,2.48,14.93-8.93,17-15.79A2.28,2.28,0,0,0,96,322.14c-4.1.72-8.32,2.15-12.52,1.79-2.89-.25-2.87,4.26,0,4.5,4.57.39,9.25-1.17,13.71-2l-2.77-2.77c-1.29,4.24-5.32,14.15-11.48,12.65-5.67-1.38-7-12.41-7.32-17-.31-4.26-.22-16.41,5.93-16.22,4.6.14,7.52,9.08,7.36,12.9-.12,2.9,4.38,2.89,4.5,0Z"/><path d="M118.63,331.25a42.27,42.27,0,0,0-1-15.3c-.67-2.46-2.19-5.53-4.86-6.31-4.58-1.33-8.07,4.28-9.15,7.91-1.84,6.17-1.92,15.45,2.3,20.72a5.7,5.7,0,0,0,7.09,1.89c3.73-1.62,4.81-4.6,5.5-8.33.53-2.83-3.81-4-4.34-1.2-.44,2.36-1.16,6.18-4.07,4.78-1.86-.89-2.32-3.36-2.68-5.26a24.5,24.5,0,0,1,.62-11.71c.7-2.06,2.5-5.63,4.46-3.25,1.28,1.55,1.36,6,1.57,7.88a34.27,34.27,0,0,1,0,8.15C113.77,334.12,118.28,334.09,118.63,331.25Z"/><path d="M135.75,298.47c-1.64,14.44,2.54,27.68,6.22,41.47.75,2.8,5.09,1.61,4.34-1.2-3.57-13.39-7.66-26.24-6.06-40.27.33-2.87-4.18-2.85-4.5,0Z"/><path d="M147.8,299.71A76.06,76.06,0,0,0,154.56,338c1.2,2.63,5.08.35,3.89-2.27a71.55,71.55,0,0,1-6.14-36c.24-2.89-4.26-2.87-4.5,0Z"/><path d="M138.8,318.75h11.13c2.9,0,2.9-4.5,0-4.5H138.8c-2.9,0-2.9,4.5,0,4.5Z"/><path d="M159.47,315.67a57.24,57.24,0,0,0,3.09,22.05c.94,2.72,5.29,1.55,4.34-1.2A53.94,53.94,0,0,1,164,315.67c.16-2.89-4.34-2.88-4.5,0Z"/><path d="M178,314.07c-6.57-4.65-8.9,2.26-8.86,7.93,0,5.46,1.91,16.7,8.32,18.56,7.52,2.18,7.5-10.93,7.76-15.07.16-2.48.44-4.88-2.47-5.52s-5.89,1-7.66,3.19,1.35,5.42,3.18,3.18c.5-.61,2.09-2,2.5-1.69s-.34,4.62-.37,5a16,16,0,0,1-.63,4.42c-1.09,2.65-1.58,1.91-3-.22a19.42,19.42,0,0,1-2.8-7.56c-.3-1.8-1.4-10.57,1.74-8.34,2.37,1.68,4.62-2.22,2.27-3.89Z"/><path d="M189.29,314.36a66.59,66.59,0,0,0,3.1,24.07c.88,2.75,5.22,1.57,4.34-1.2a63.12,63.12,0,0,1-2.94-22.88c.16-2.89-4.34-2.89-4.5,0Z"/><path d="M196.74,310.16A70.59,70.59,0,0,0,202,337c1.08,2.64,5.44,1.49,4.34-1.2a67.17,67.17,0,0,1-5.13-25.6c0-2.9-4.51-2.9-4.5,0Z"/><path d="M191.48,323.63c5-.54,10.22,1,14.21-2.91,2.07-2-1.12-5.22-3.18-3.18-2.74,2.7-7.58,1.22-11,1.59-2.85.31-2.88,4.81,0,4.5Z"/><path d="M214.09,316.52A156.23,156.23,0,0,0,213,332.13c0,2.51-.35,6.07,2.46,7.32,5.54,2.46,10.45-6.7,11.08-10.82.43-2.83-3.9-4.05-4.34-1.2a10.49,10.49,0,0,1-2.26,5.42c-.35.42-1.51,2-2.15,1.75s-.28-2.71-.27-3.3c.11-4.95.49-9.87,1.07-14.78.34-2.87-4.17-2.85-4.5,0Z"/><path d="M212.59,318.86c6.75.54,11.74-4,17.47-6.76,2.61-1.26.33-5.14-2.27-3.89-4.94,2.38-9.38,6.61-15.19,6.15-2.89-.23-2.87,4.27,0,4.5Z"/><path d="M211.58,330.9c4.74-.73,9.94-2.36,11.26-7.58.71-2.81-3.63-4-4.34-1.2-.89,3.49-5.13,4-8.12,4.44s-1.64,4.78,1.2,4.34Z"/><path d="M235.67,313.37q.64,10.28,1,20.57c.1,2.89,4.6,2.9,4.5,0q-.36-10.29-1-20.57c-.18-2.88-4.68-2.9-4.5,0Z"/><path d="M232.93,317.45A71.67,71.67,0,0,1,243,314.78c2.13-.38,9.08-2.15,10.7.27,1.4,2.08-15.46,11.6-17.65,13.25-1.7,1.29-1.27,4.14,1.14,4.19,8,.17,16.16.43,24,2.46,6.12,1.59,17.56,5.6,19.78,12.42.89,2.74,5.24,1.57,4.34-1.2C283,339,273.61,334.43,267,332c-9.5-3.44-19.78-3.83-29.77-4l1.14,4.19c5.18-3.91,11.1-6.55,16.32-10.3,2.78-2,4.89-5.19,3.34-8.63-3.69-8.21-20.6-2-26.27-.14-2.73.92-1.56,5.27,1.2,4.34Z"/><path d="M39.58,316.8a156.23,156.23,0,0,0-1.08,15.61c0,2.51-.35,6.07,2.46,7.32C46.49,342.19,51.4,333,52,328.91c.43-2.83-3.9-4.05-4.34-1.2a10.49,10.49,0,0,1-2.26,5.42c-.35.42-1.51,2-2.15,1.75s-.28-2.71-.27-3.3c.11-4.95.49-9.87,1.07-14.78.34-2.87-4.17-2.85-4.5,0Z"/><path d="M38.08,319.14c6.75.54,11.74-4,17.47-6.76,2.61-1.26.33-5.14-2.27-3.89-4.94,2.38-9.38,6.61-15.19,6.15-2.89-.23-2.87,4.27,0,4.5Z"/><path d="M37.07,331.18c4.74-.73,9.94-2.36,11.26-7.58.71-2.81-3.63-4-4.34-1.2-.89,3.49-5.13,4-8.12,4.44s-1.64,4.78,1.2,4.34Z"/><path d="M164.25,30.73,135.74,2.22A7.12,7.12,0,0,0,130.66,0a8.14,8.14,0,0,0-7.25,5,7,7,0,0,0,1.66,7.85L153.58,41.4a7.12,7.12,0,0,0,5.09,2.22h0a8.13,8.13,0,0,0,7.24-5A7,7,0,0,0,164.25,30.73Z"/><path d="M137.4,5a8.14,8.14,0,0,0-7.24-5,7.12,7.12,0,0,0-5.09,2.22L96.56,30.73a7,7,0,0,0-1.66,7.85,8.14,8.14,0,0,0,7.24,5h0a7.12,7.12,0,0,0,5.09-2.22L135.74,12.9A7,7,0,0,0,137.4,5Z"/><path d="M231.62,162.39c-2.4,0-4.82-1.42-4.83-4.6-.09-28.4-11.6-53.54-33.29-72.69-16.11-14.23-37-21.88-60.34-22.13-3.2,0-4.62-2.48-4.61-4.9s1.41-4.71,4.51-4.71c25.86.27,49.13,8.94,67.35,25.06a105.15,105.15,0,0,1,36,79.38,4.36,4.36,0,0,1-1.21,3.22,5,5,0,0,1-3.57,1.37Z"/><path d="M31.83,158.94a3.56,3.56,0,0,1-2.55-.95,2.93,2.93,0,0,1-.75-2.21,103.65,103.65,0,0,1,36.25-77,97.42,97.42,0,0,1,30.89-18A115.75,115.75,0,0,1,122,54.22a66.21,66.21,0,0,1,10.86-.86c3,0,4.9,1.68,4.92,4.7,0,.36-1.4,4.86-4.58,4.9-25,.27-51.44,8.76-69.26,26.39a95.79,95.79,0,0,0-28.5,66.3C35.33,158.85,32.19,158.94,31.83,158.94Z"/><path d="M116.23,256.56c-22.35-5-44.82-18.19-63.29-37.19-16.43-16.91-24.41-37.72-24.4-63.64A3.17,3.17,0,0,1,32,152.5a3.81,3.81,0,0,1,2.46.83,3,3,0,0,1,1,2.39c0,15.94,2.58,26.87,7.9,37.54,4.2,8.42,10.58,18.36,15.67,23.46,17.66,17.71,36.18,30.57,57.34,35.29,2.1.47,4.1,1.08,3.57,3.19S116.23,256.56,116.23,256.56Z"/><path d="M146.3,259.34c-2.78,0-8,.27-8.79-4.64s3.18-6.63,6.65-7.41c20.61-4.6,41.47-12.73,58.82-29.92a94.91,94.91,0,0,0,16.07-22.77c4.94-9.91,7.47-21.94,7.74-36.79.06-3.19,2.51-4.62,4.91-4.62a5,5,0,0,1,3.54,1.36,4.28,4.28,0,0,1,1.15,3.2c-.29,15.52-3,28.63-8.29,40.07A106.53,106.53,0,0,1,211,222.93a123.6,123.6,0,0,1-60.46,35.62c-.76.2-2.35.5-2.79.57C146.88,259.28,146.3,259.34,146.3,259.34Z"/><path d="M130.29,132.46c6.13,0,6.28-4.89,6.29-6.57.32-29.71,1.06-89.14,1.21-118.85,0-7.95-15-8.1-15-.14,0,39.41-.54,79.27.94,119C123.81,128.21,124.14,132.46,130.29,132.46Z"/><path d="M147.26,246.64c-6.29,1.46-10.15,2-10.65-5.16-.42-6,0-12.15,0-18.15V187.82c0-20.64-.1-41.29,0-61.93,0-2.2-.12-7.91-6.25-7.91s-6.59,5.64-6.61,7.91q.36,34.06.46,67.91,0,5.5,0,11V227.1c0,6.35-.63,13.06.55,19.33,2.52,13.45,14.29,14.79,25.77,12.12C158.29,256.76,155,244.84,147.26,246.64Z"/></g></g></svg>