<svg xmlns="http://www.w3.org/2000/svg" viewBox="0 0 434.51 434.51"><defs><style>.cls-1{opacity:0;}.cls-2{fill:#fff;}</style></defs><title>huffpost-white</title><g id="Layer_2" data-name="Layer 2"><g id="Layer_1-2" data-name="Layer 1"><path class="cls-1" d="M0,434.51V0H434.51c0,1.06-.12,2.11-.12,3.17q0,214,0,428.09v3.13H3.17C2.11,434.39,1.06,434.47,0,434.51ZM99.62,159.16v0c7.78,0,15.56,0,23.34,0,2.48,0,3.13.55,3.12,3,0,10.32,0,20.65-.23,31-.08,3.78-1.74,5.39-5.47,6.21a32.1,32.1,0,0,1-3.75.67c-1.48.15-2.17.86-2.07,2.33s1,1.95,2.43,1.9c5.51-.2,11-.39,16.53-.39,4.87,0,9.75.2,14.62.4,1.54.06,2-.76,2.12-2s-.35-2-1.77-2.08c-1.05,0-2.1-.27-3.15-.41-4.69-.61-6.49-2.2-6.88-6.3-.25-2.6-.42-5.22-.42-7.83q-.05-27.37,0-54.73c0-2.89.18-5.79.42-8.68.33-4.08,1.93-5.68,6.08-6.29,1.12-.16,2.24-.33,3.36-.38,1.44-.07,2.07-.8,1.94-2.18s-.6-2-2.14-2q-15.47.1-30.95,0c-1.53,0-2,.65-2.18,1.93-.2,1.87.93,2.18,2.49,2.28,7.06.46,8.78,2.21,8.9,9.28.13,8,.15,16,.17,24,0,3.6-.37,3.94-4,4.07-.64,0-1.27,0-1.91,0H87.54c-3.75,0-7.5,0-11.24-.1-2.58-.09-3.17-.64-3.15-3.21.06-9.12.14-18.24.42-27.35.12-4.06,1.93-5.71,6-6.32,1.12-.16,2.24-.32,3.36-.4,1.46-.11,1.66-1,1.61-2.21s-.53-1.93-1.93-1.93q-15.68,0-31.37-.06c-1.51,0-2.2.6-2.29,2.09s.68,2.15,2.16,2.14a18.37,18.37,0,0,1,3,.2c4.77.75,5.85,1.7,6.56,6.53a59,59,0,0,1,.53,8.44q.07,27.69,0,55.37c0,2.19-.08,4.38-.23,6.57-.3,4.29-1.63,5.8-5.86,6.81a20.74,20.74,0,0,1-2.89.6c-1.63.15-1.94,1.12-1.82,2.5s1.07,1.75,2.37,1.69c4.09-.18,8.19-.41,12.29-.39,6.15,0,12.3.19,18.44.4,1.63.06,2.61-.36,2.71-2.09s-.89-2-2.29-2c-.84,0-1.68-.25-2.52-.31-5.68-.42-7.74-2.39-7.88-8.07-.23-9.54-.31-19.08-.39-28.62,0-3.33.6-3.91,4-3.92C84.63,159.14,92.13,159.16,99.62,159.16Zm75.54,164c1.35-.14,3.39-.27,5.41-.58,14.25-2.23,25.48-9.27,33.26-21.44,6.84-10.7,8.8-22.55,6.84-34.95-2.49-15.78-10.47-27.92-25.18-34.88-9.76-4.62-20.15-5.62-30.81-4.06-28.94,4.24-46.41,31-40.18,59.5C129.59,310,149.84,323.88,175.16,323.18Zm-8.92-176.33h.06c0,5.8-.16,11.6,0,17.39a127,127,0,0,0,1.25,15.6c1.81,11.26,7.49,19.77,18.7,23.59a48.42,48.42,0,0,0,30.4.58c10.27-3.15,17.28-9.89,20.21-20.22A77.13,77.13,0,0,0,239.72,167c.47-8.89,0-17.82.2-26.72.15-6.27.67-12.54,1.23-18.8.32-3.52,1.61-4.75,5.11-5.54a31.47,31.47,0,0,1,4.4-.55c1.56-.12,2.07-1,1.92-2.42s-1-1.54-2.25-1.54q-14,.07-28,0c-1.32,0-2,.36-2.19,1.65s.3,2.21,1.79,2.29c.92,0,1.83.14,2.75.2,4.81.33,6.57,1.72,7.45,6.44a58.08,58.08,0,0,1,1.07,9.24c.25,10.53.46,21.06.39,31.59a81.42,81.42,0,0,1-1.28,13.47c-1.12,6.36-3.58,12.21-8.4,16.77-5.83,5.51-13,6.67-20.66,6.29-10.66-.54-18.28-6.11-22-16.11a52,52,0,0,1-2.92-17.46c-.16-11.81-.09-23.62-.05-35.43,0-2.68.18-5.37.39-8,.35-4.37,1.7-5.84,6-6.6a37.29,37.29,0,0,1,4-.37,1.67,1.67,0,0,0,1.77-2.09c-.15-1.29-.8-1.9-2.26-1.89q-16,.09-32,0a1.82,1.82,0,0,0-2.12,1.8c-.15,1.22.24,2.08,1.65,2.17.78,0,1.55.17,2.32.21,5.88.29,7.79,2.16,8.13,8,0,.42,0,.85,0,1.27Q166.24,135.82,166.24,146.85ZM73.11,270.93q0-16.12,0-32.24c0-.64,0-1.28,0-1.91.23-2.52.91-3.22,3.45-3.3s4.81-.13,7.21,0a18.94,18.94,0,0,1,17.66,14.34,29.71,29.71,0,0,1,.34,13.64,18.41,18.41,0,0,1-11.41,14.24c-2.38,1-5,1.52-7.41,2.46A2.68,2.68,0,0,0,81.52,280c-.1,1.17.83,1.61,2,1.56A48.28,48.28,0,0,0,101,277.75c15.59-6.84,18-24.12,11.36-35.66-4.55-7.89-12.07-11.18-20.59-12.6-11.09-1.85-22.27-1-33.41-.68-2.39.06-4.78.45-7.17.63a2,2,0,0,0-2.07,2.18c-.07,1.44.75,2,2,2.16,1.54.16,3.09.33,4.63.52,3,.37,4.38,1.45,4.86,4.38a48.1,48.1,0,0,1,.54,7.58q.06,28.42,0,56.84c0,2.12-.1,4.24-.22,6.36-.25,4.65-1.64,6.27-6.17,7.21a21.44,21.44,0,0,1-3.13.48c-1.59.09-2.29.79-2.15,2.41s1.17,1.81,2.52,1.77c6.07-.17,12.15-.38,18.22-.39,4.66,0,9.32.21,14,.42,1.55.07,2.25-.57,2.34-2s-.51-2.08-2-2.11c-1.19,0-2.38-.26-3.57-.39-5.11-.57-7.15-2.33-7.5-6.69-.24-3-.4-5.93-.41-8.89C73.08,291.15,73.11,281,73.11,270.93ZM385.32,111.71c-3.82,0-7.2,0-10.58,0q-24.6-.15-49.2-.34c-1.41,0-1.92.62-2,1.84s.21,2.22,1.76,2.31a30.05,30.05,0,0,1,3.35.45c3.27.57,4.75,1.86,5.25,5.18a55.71,55.71,0,0,1,.57,8.22q.07,28.42,0,56.85c0,2.12-.09,4.24-.22,6.36-.29,4.53-1.67,6.09-6.15,7a24.36,24.36,0,0,1-3.77.54c-1.54.06-2.15.73-2.06,2.24s.92,1.95,2.39,1.9c6.71-.19,13.42-.37,20.13-.4,4.38,0,8.76.2,13.13.4,1.48.07,2.06-.56,2.14-1.94s-.27-2.15-1.85-2.16-3.09-.24-4.64-.4c-4.56-.48-6.59-2.12-6.72-6.36-.31-10.17-.33-20.35-.46-30.53a1.61,1.61,0,0,1,.19-1c.61-.63,1.32-1.66,2-1.67,6.22-.11,12.45-.26,18.66,0,5.51.27,6.84,1.69,8.17,7.1.27,1.1.55,2.19.87,3.27.46,1.55,1.82,1.65,2.91,1.27a2.75,2.75,0,0,0,1.37-2.12c.1-8.18,0-16.37.07-24.56,0-1.13,0-2.21-1.47-2.32-1.29-.1-2.59-.24-2.93,1.57s-.82,3.72-1.29,5.56c-.6,2.33-1.93,4-4.51,4.05-6.92.22-13.83.41-20.75.52-2.82,0-3.29-.5-3.29-3.38q0-15.27,0-30.55c0-.56.12-1.12.15-1.69a2.05,2.05,0,0,1,2.41-2.23c6.64.08,13.29-.14,19.92.2,6.9.35,10.42,3.61,12.12,10.37a6.68,6.68,0,0,0,.54,2.23,3.53,3.53,0,0,0,2.11,1.49c1.08.09,1.93-.52,1.86-2-.15-3.18-.14-6.36-.17-9.54C385.3,116.86,385.32,114.26,385.32,111.71Zm-66.12,0c-5.52,0-10.32,0-15.12,0-14.92-.09-29.84-.18-44.75-.34a1.85,1.85,0,0,0-2.17,1.95c-.15,1.51.65,2.07,2.13,2.23,7.2.76,8.7,2.45,8.79,9.68,0,.14,0,.28,0,.42q0,30.76,0,61.53a56.31,56.31,0,0,1-.49,7.17c-.38,2.94-1.81,4.36-4.71,5a41.19,41.19,0,0,1-4.6.7c-1.42.13-2.53.47-2.44,2.19s1.22,2,2.78,2Q270.85,204,283,204c2.9,0,5.8.09,8.69.22,1.52.07,2-.69,2-2s-.31-2-1.75-2-3.09-.26-4.64-.41c-4.76-.45-6.53-2-6.8-6.7-.3-5.14-.34-10.31-.4-15.46-.06-4.95,0-9.9,0-14.85,0-1.42.33-2.64,2-2.62,6.92.08,13.84.18,20.76.37,2.8.08,4.57,1.71,5.41,4.31.56,1.74,1,3.52,1.43,5.31s1.56,2,3,1.86c1.64-.19,1.4-1.39,1.39-2.56q0-12,0-23.92c0-1.12.38-2.36-1.31-2.61s-2.77.09-3.12,1.93-.8,3.58-1.23,5.36c-.56,2.31-1.94,3.81-4.4,3.88-7.34.2-14.68.32-22,.45-1.44,0-2-.87-2-2.2q0-16.55,0-33.1c0-1.61.68-2.48,2.42-2.46,5.72,0,11.45-.05,17.17,0,9.76.16,13.19,3,15.39,12.54,0,.07,0,.18,0,.21.69.53,1.36,1.43,2.1,1.5,1.07.1,1.94-.51,1.93-1.95C319.17,123.26,319.2,117.47,319.2,111.71Zm-.4,122v.16h6.58c3.65,0,3.77.12,3.77,3.84q0,31.82,0,63.64c0,2.89-.17,5.79-.42,8.68-.38,4.45-2.17,6.25-6.62,6.83a44.66,44.66,0,0,1-4.85.42c-1.51,0-2.47.49-2.47,2.16s1.09,2,2.55,1.95c5.08-.18,10.17-.42,15.26-.41,6.36,0,12.72.22,19.07.4,1.47,0,2.53-.2,2.66-1.89s-.72-2.22-2.31-2.22a38,38,0,0,1-4.21-.4c-4.14-.47-5.66-1.71-6.26-5.85a62.87,62.87,0,0,1-.47-8.87q-.05-31.93,0-63.85a7.79,7.79,0,0,1,.19-2.73c.26-.67,1.09-1.61,1.66-1.61,6.71,0,13.49-.33,20.1.56,8.53,1.15,9.17,3.3,10.43,9.75a15.9,15.9,0,0,1,.31,1.87c.11,1.52,1.08,1.84,2.35,1.78s1.91-.78,2-2.17c.51-6.17,1.16-12.34,1.68-18.51a7.55,7.55,0,0,0-.49-2.2c-.9.3-2.15.34-2.63,1a6.23,6.23,0,0,1-5.23,2.7c-1.27,0-2.54.14-3.81.14q-29.59,0-59.19,0c-1.55,0-3.11-.06-4.66-.22-2-.2-3.8-.78-4.59-2.84-.42-1.1-1.14-1.77-2.2-1.33a3.05,3.05,0,0,0-1.58,1.78c-1.63,6.05-3.13,12.14-4.73,18.21-.31,1.17-.11,2.15,1,2.32a4.39,4.39,0,0,0,2.92-.64c.65-.46.83-1.58,1.23-2.41,2.64-5.45,6.58-9.13,13-9.46C312.18,234.05,315.49,233.86,318.8,233.67ZM254,323.24c1.38-.14,3.93-.26,6.42-.71,7.43-1.34,13.81-4.54,18.18-10.95,6.72-9.88,5.35-23.69-3.13-33.08-4.63-5.13-10.64-8.34-16.31-12a95.6,95.6,0,0,1-10.06-7c-4.56-3.9-7.06-8.85-6.35-15.15.79-7,5.62-11.92,12.69-12.54,11.88-1,17.8,2.79,21.57,14,.47,1.4,1.18,1.95,2.63,1.73s2-1.18,1.8-2.56c-.51-4-1.08-8-1.55-11.95-.29-2.51-1.09-4.34-4.12-4.11a7,7,0,0,1-2-.51c-7.42-1.89-14.86-2.53-22.4-.65-14.88,3.71-22.68,17.59-17.52,31.37,2.45,6.53,7.07,11.33,12.75,15.17,5,3.36,10.06,6.57,15,9.91,5.87,3.93,9.59,9.12,10.24,16.44S268.62,315,261.7,317.17c-7.09,2.21-14,1.48-20.16-3-5.21-3.77-8-9.2-10-15.13-.46-1.39-1.1-2-2.58-1.76a1.83,1.83,0,0,0-1.63,2.45c1,5.47,1.87,11,3,16.39a4.77,4.77,0,0,0,2.36,2.67C239,322.07,245.82,323.11,254,323.24Z"/><path class="cls-2" d="M99.62,159.16c-7.5,0-15,0-22.49,0-3.41,0-4,.58-4,3.92.08,9.54.16,19.08.39,28.62.13,5.69,2.2,7.66,7.88,8.07.84.06,1.68.3,2.52.31,1.4,0,2.38.42,2.29,2s-1.08,2.15-2.71,2.09c-6.14-.21-12.29-.38-18.44-.4-4.1,0-8.19.22-12.29.39-1.3.06-2.24-.17-2.37-1.69s.2-2.35,1.82-2.5a20.74,20.74,0,0,0,2.89-.6c4.23-1,5.57-2.52,5.86-6.81.15-2.18.23-4.38.23-6.57q0-27.69,0-55.37a59,59,0,0,0-.53-8.44c-.71-4.83-1.79-5.78-6.56-6.53a18.37,18.37,0,0,0-3-.2c-1.48,0-2.25-.55-2.16-2.14s.77-2.1,2.29-2.09q15.68.08,31.37.06c1.4,0,1.87.66,1.93,1.93s-.15,2.11-1.61,2.21c-1.12.08-2.24.24-3.36.4-4.1.61-5.91,2.25-6,6.32-.28,9.11-.36,18.23-.42,27.35,0,2.57.57,3.12,3.15,3.21,3.74.13,7.49.09,11.24.1h32.67c.64,0,1.27,0,1.91,0,3.64-.13,4-.47,4-4.07,0-8,0-16-.17-24-.12-7.07-1.84-8.82-8.9-9.28-1.56-.1-2.69-.41-2.49-2.28.14-1.28.66-1.94,2.18-1.93q15.47.11,30.95,0c1.54,0,2,.72,2.14,2s-.5,2.11-1.94,2.18c-1.12.05-2.25.22-3.36.38-4.15.61-5.74,2.21-6.08,6.29-.24,2.89-.41,5.79-.42,8.68q-.06,27.37,0,54.73c0,2.61.17,5.23.42,7.83.39,4.1,2.19,5.68,6.88,6.3,1,.14,2.09.36,3.15.41,1.41.06,1.87.85,1.77,2.08s-.58,2.08-2.12,2c-4.87-.2-9.75-.4-14.62-.4-5.51,0-11,.2-16.53.39-1.47.05-2.32-.37-2.43-1.9s.59-2.19,2.07-2.33a32.1,32.1,0,0,0,3.75-.67c3.73-.82,5.39-2.43,5.47-6.21.21-10.32.23-20.64.23-31,0-2.4-.64-2.94-3.12-3-7.78,0-15.56,0-23.34,0Z"/><path class="cls-2" d="M175.16,323.18c-25.32.7-45.58-13.19-50.65-36.41-6.23-28.51,11.23-55.27,40.18-59.5,10.66-1.56,21-.56,30.81,4.06,14.71,7,22.68,19.1,25.18,34.88,2,12.4,0,24.25-6.84,34.95-7.78,12.17-19,19.21-33.26,21.44C178.56,322.91,176.51,323,175.16,323.18Zm-5.67-91.65c-12.08.38-21.94,6.43-27.68,18.69-3.55,7.58-4.42,15.69-4,24a58.48,58.48,0,0,0,7.07,26.32C152,313.31,164.52,320,178.76,318c12.71-1.71,21.15-9.23,25.14-21.16,5.33-15.9,3.95-31.68-3.38-46.68C194.6,238.07,184.56,231.73,169.49,231.53Z"/><path class="cls-2" d="M166.24,146.85q0-11,0-22.06c0-.42,0-.85,0-1.27-.34-5.86-2.25-7.73-8.13-8-.78,0-1.55-.16-2.32-.21-1.41-.08-1.8-.95-1.65-2.17a1.82,1.82,0,0,1,2.12-1.8q16,.08,32,0c1.46,0,2.11.59,2.26,1.89a1.67,1.67,0,0,1-1.77,2.09,37.29,37.29,0,0,0-4,.37c-4.31.75-5.66,2.23-6,6.6-.21,2.67-.38,5.36-.39,8,0,11.81-.1,23.62.05,35.43a52,52,0,0,0,2.92,17.46c3.69,10,11.3,15.57,22,16.11,7.65.39,14.84-.78,20.66-6.29,4.82-4.55,7.28-10.41,8.4-16.77a81.42,81.42,0,0,0,1.28-13.47c.07-10.53-.14-21.06-.39-31.59a58.08,58.08,0,0,0-1.07-9.24c-.88-4.72-2.64-6.11-7.45-6.44-.92-.06-1.83-.15-2.75-.2-1.49-.08-1.94-1-1.79-2.29s.87-1.66,2.19-1.65q14,.11,28,0c1.23,0,2.1.11,2.25,1.54s-.36,2.29-1.92,2.42a31.47,31.47,0,0,0-4.4.55c-3.5.78-4.8,2-5.11,5.54-.56,6.25-1.08,12.52-1.23,18.8-.21,8.91.26,17.84-.2,26.72a77.13,77.13,0,0,1-2.82,16.83C234,194.13,227,200.87,216.69,204a48.42,48.42,0,0,1-30.4-.58c-11.21-3.82-16.89-12.33-18.7-23.59a127,127,0,0,1-1.25-15.6c-.21-5.79,0-11.6,0-17.39Z"/><path class="cls-2" d="M73.11,270.93c0,10.11,0,20.22,0,30.33,0,3,.18,5.93.41,8.89.35,4.36,2.39,6.12,7.5,6.69,1.19.13,2.38.38,3.57.39,1.47,0,2.07.74,2,2.11s-.79,2.08-2.34,2c-4.66-.21-9.32-.43-14-.42-6.08,0-12.15.22-18.22.39-1.35,0-2.38-.11-2.52-1.77s.57-2.33,2.15-2.41a21.44,21.44,0,0,0,3.13-.48c4.53-.94,5.92-2.55,6.17-7.21.12-2.12.21-4.24.22-6.36q0-28.42,0-56.84a48.1,48.1,0,0,0-.54-7.58c-.48-2.93-1.86-4-4.86-4.38-1.54-.19-3.08-.36-4.63-.52-1.3-.14-2.12-.72-2-2.16a2,2,0,0,1,2.07-2.18c2.39-.18,4.78-.57,7.17-.63,11.15-.28,22.32-1.17,33.41.68,8.51,1.42,16,4.71,20.59,12.6,6.66,11.54,4.24,28.82-11.36,35.66a48.28,48.28,0,0,1-17.46,3.85c-1.18.05-2.11-.39-2-1.56A2.68,2.68,0,0,1,83,278.18c2.43-.93,5-1.44,7.41-2.46a18.41,18.41,0,0,0,11.41-14.24,29.71,29.71,0,0,0-.34-13.64A18.94,18.94,0,0,0,83.8,233.51c-2.39-.15-4.81-.1-7.21,0s-3.22.78-3.45,3.3c-.06.63,0,1.27,0,1.91Q73.11,254.81,73.11,270.93Z"/><path class="cls-2" d="M385.32,111.71c0,2.55,0,5.15,0,7.75,0,3.18,0,6.36.17,9.54.07,1.47-.78,2.07-1.86,2a3.53,3.53,0,0,1-2.11-1.49,6.68,6.68,0,0,1-.54-2.23c-1.7-6.76-5.21-10-12.12-10.37-6.63-.34-13.28-.11-19.92-.2a2.05,2.05,0,0,0-2.41,2.23c0,.56-.15,1.12-.15,1.69q0,15.27,0,30.55c0,2.88.48,3.42,3.29,3.38,6.92-.11,13.84-.3,20.75-.52,2.58-.08,3.91-1.72,4.51-4.05.47-1.84.93-3.69,1.29-5.56s1.65-1.66,2.93-1.57c1.49.11,1.47,1.19,1.47,2.32,0,8.19,0,16.37-.07,24.56a2.75,2.75,0,0,1-1.37,2.12c-1.09.38-2.45.28-2.91-1.27-.32-1.08-.6-2.17-.87-3.27-1.33-5.42-2.65-6.84-8.17-7.1-6.21-.3-12.44-.15-18.66,0-.68,0-1.39,1-2,1.67a1.61,1.61,0,0,0-.19,1c.13,10.18.14,20.36.46,30.53.13,4.24,2.17,5.88,6.72,6.36,1.54.16,3.09.39,4.64.4s1.92.83,1.85,2.16-.67,2-2.14,1.94c-4.38-.2-8.76-.42-13.13-.4-6.71,0-13.42.2-20.13.4-1.47,0-2.29-.33-2.39-1.9s.52-2.18,2.06-2.24a24.36,24.36,0,0,0,3.77-.54c4.48-.88,5.86-2.44,6.15-7,.14-2.11.22-4.24.22-6.36q0-28.42,0-56.85a55.71,55.71,0,0,0-.57-8.22c-.51-3.32-2-4.61-5.25-5.18a30.05,30.05,0,0,0-3.35-.45c-1.55-.09-1.86-1-1.76-2.31s.6-1.86,2-1.84q24.6.22,49.2.34C378.12,111.73,381.5,111.71,385.32,111.71Z"/><path class="cls-2" d="M319.2,111.71c0,5.76,0,11.55,0,17.33,0,1.44-.86,2.05-1.93,1.95-.74-.07-1.41-1-2.1-1.5,0,0,0-.14,0-.21-2.21-9.54-5.64-12.38-15.39-12.54-5.72-.09-11.45,0-17.17,0-1.74,0-2.42.85-2.42,2.46q0,16.55,0,33.1c0,1.33.53,2.22,2,2.2,7.34-.13,14.68-.25,22-.45,2.45-.07,3.84-1.57,4.4-3.88.43-1.78.88-3.56,1.23-5.36s1.53-2.18,3.12-1.93,1.31,1.49,1.31,2.61q0,12,0,23.92c0,1.17.24,2.37-1.39,2.56-1.48.17-2.64-.15-3-1.86s-.86-3.57-1.43-5.31c-.84-2.6-2.61-4.23-5.41-4.31-6.92-.19-13.84-.29-20.76-.37-1.7,0-2,1.21-2,2.62,0,5-.05,9.9,0,14.85.06,5.16.11,10.32.4,15.46.27,4.67,2,6.25,6.8,6.7,1.55.14,3.09.37,4.64.41s1.79.79,1.75,2-.51,2.11-2,2c-2.89-.13-5.79-.23-8.69-.22q-12.19,0-24.37.22c-1.56,0-2.68-.22-2.78-2s1-2.06,2.44-2.19a41.19,41.19,0,0,0,4.6-.7c2.9-.6,4.33-2,4.71-5a56.31,56.31,0,0,0,.49-7.17q0-30.76,0-61.53c0-.14,0-.28,0-.42-.09-7.23-1.59-8.93-8.79-9.68-1.48-.16-2.28-.73-2.13-2.23a1.85,1.85,0,0,1,2.17-1.95c14.92.16,29.84.25,44.75.34C308.88,111.73,313.68,111.71,319.2,111.71Z"/><path class="cls-2" d="M318.8,233.67c-3.31.18-6.62.38-9.93.55-6.38.33-10.32,4-13,9.46-.4.82-.58,1.95-1.23,2.41a4.39,4.39,0,0,1-2.92.64c-1.15-.17-1.35-1.14-1-2.32,1.6-6.06,3.09-12.15,4.73-18.21a3.05,3.05,0,0,1,1.58-1.78c1.06-.43,1.78.23,2.2,1.33.79,2.06,2.63,2.64,4.59,2.84,1.54.16,3.1.22,4.66.22q29.59,0,59.19,0c1.27,0,2.54-.13,3.81-.14a6.23,6.23,0,0,0,5.23-2.7c.48-.63,1.73-.66,2.63-1a7.55,7.55,0,0,1,.49,2.2c-.53,6.17-1.17,12.34-1.68,18.51-.12,1.39-.65,2.1-2,2.17s-2.24-.26-2.35-1.78a15.9,15.9,0,0,0-.31-1.87c-1.26-6.45-1.9-8.6-10.43-9.75-6.61-.89-13.39-.51-20.1-.56-.57,0-1.4.93-1.66,1.61a7.79,7.79,0,0,0-.19,2.73q0,31.93,0,63.85a62.87,62.87,0,0,0,.47,8.87c.6,4.14,2.11,5.38,6.26,5.85a38,38,0,0,0,4.21.4c1.58,0,2.43.55,2.31,2.22s-1.19,1.94-2.66,1.89c-6.36-.19-12.72-.39-19.07-.4-5.08,0-10.17.22-15.26.41-1.46.05-2.55-.17-2.55-1.95s1-2.13,2.47-2.16a44.66,44.66,0,0,0,4.85-.42c4.44-.57,6.23-2.37,6.62-6.83.25-2.88.42-5.78.42-8.68q.05-31.82,0-63.64c0-3.73-.12-3.84-3.77-3.84h-6.58Z"/><path class="cls-2" d="M254,323.24c-8.15-.14-15-1.17-21.22-4.44a4.77,4.77,0,0,1-2.36-2.67c-1.17-5.43-2.07-10.92-3-16.39a1.83,1.83,0,0,1,1.63-2.45c1.48-.25,2.13.37,2.58,1.76,1.95,5.94,4.77,11.36,10,15.13,6.18,4.47,13.07,5.2,20.16,3,6.92-2.16,10.78-9.16,10.13-16.52s-4.37-12.51-10.24-16.44c-5-3.34-10.07-6.55-15-9.91-5.68-3.83-10.31-8.64-12.75-15.17-5.16-13.78,2.64-27.66,17.52-31.37,7.53-1.88,15-1.24,22.4.65a7,7,0,0,0,2,.51c3-.23,3.82,1.61,4.12,4.11.47,4,1,8,1.55,11.95.18,1.38-.24,2.33-1.8,2.56s-2.16-.33-2.63-1.73c-3.77-11.26-9.69-15.09-21.57-14-7.07.62-11.9,5.52-12.69,12.54-.71,6.3,1.78,11.26,6.35,15.15a95.6,95.6,0,0,0,10.06,7c5.67,3.7,11.68,6.92,16.31,12,8.48,9.39,9.85,23.2,3.13,33.08-4.36,6.41-10.75,9.61-18.18,10.95C257.9,323,255.35,323.1,254,323.24Z"/><path class="cls-1" d="M169.49,231.53c15.07.2,25.11,6.54,31,18.68,7.33,15,8.71,30.78,3.38,46.68-4,11.92-12.43,19.45-25.14,21.16-14.24,1.91-26.77-4.74-33.93-17.54a58.48,58.48,0,0,1-7.07-26.32c-.38-8.28.5-16.39,4-24C147.56,238,157.41,231.91,169.49,231.53Z"/></g></g></svg>