<svg xmlns="http://www.w3.org/2000/svg" viewBox="0 0 581.36 621.32"><defs><style>.cls-1{fill:#fff;}</style></defs><title>itsonus-white</title><g id="Layer_2" data-name="Layer 2"><g id="Layer_1-2" data-name="Layer 1"><path class="cls-1" d="M298.46,529a11,11,0,0,0-1.37,1.79,142.1,142.1,0,0,1-20,32.91A154.93,154.93,0,0,1,253,587.52a153,153,0,0,1-29.45,18.36A145.66,145.66,0,0,1,209.1,612a147.22,147.22,0,0,1-21.36,6c-5.41,1-10.9,1.58-16.34,2.45-7.79,1.25-15.64.91-23.47.77a113.6,113.6,0,0,1-22.12-2.54c-2.89-.63-5.84-1-8.69-1.7-4.93-1.28-9.91-2.36-14.64-4.35-2.76-1.16-5.67-2-8.41-3.17C89,607.22,84,605,79.13,602.5A146.79,146.79,0,0,1,45.6,578.39a139.67,139.67,0,0,1-25.44-32c-3-5.17-5.73-10.46-8.19-15.88a107.85,107.85,0,0,1-7.31-21.43c-.8-3.66-1.72-7.3-2.59-10.94a6.26,6.26,0,0,1-.11-.71,238.7,238.7,0,0,1-2-28.17Q.16,338.88.06,208.45c0-2.62.44-3.08,3-3.11,1.84,0,3.68,0,5.52,0H141.56c.64,0,1.28,0,1.92,0a2.07,2.07,0,0,1,2.18,2.28c0,1,0,1.92,0,2.88q0,134.27,0,268.54c0,3.37.62,6.26,3.43,8.48,4.78,3.76,12.38,1.53,14.05-4.3a17.43,17.43,0,0,0,.61-4.72q.06-32.64,0-65.27,0-102.23,0-204.46c0-3,.38-3.43,3.47-3.43H305.68a8,8,0,0,1,1.91.12,1.74,1.74,0,0,1,1.53,1.85c0,.32,0,.64,0,1q0,31.68,0,63.35c0,.87-.49,2.13.77,2.47s1.43-1.1,1.87-1.8a140.86,140.86,0,0,1,38.19-39.88,147.37,147.37,0,0,1,22.69-13.09c4.28-2,8.84-3.43,13.25-5.2a120.22,120.22,0,0,1,18.34-5.28A109.76,109.76,0,0,1,416,207c5.56-.63,11.13-1.21,16.71-1.49a109.74,109.74,0,0,1,21,1.24c.4.06.79.14,1.19.16,6.6.27,13,1.95,19.3,3.53a146.4,146.4,0,0,1,16.5,5.39,144.4,144.4,0,0,1,32.61,17.57,140.07,140.07,0,0,1,33.75,34.09,126.93,126.93,0,0,1,13.48,24.39,113.56,113.56,0,0,1,4.17,10.65A146.92,146.92,0,0,1,579,319.39,126.41,126.41,0,0,1,581.27,341c0,.48,0,1,0,1.44-.08,1.1-.57,1.81-1.8,1.75-.56,0-1.12,0-1.68,0H467.41c-.48,0-1,0-1.44,0-2-.08-2.53-.45-2.85-2.49-1.23-7.93-10.87-12.5-17.71-9.86a10.69,10.69,0,0,0-4.76,3c-3,3.61-2.62,7.68.94,10.68a28.77,28.77,0,0,0,8.32,4.46c3.78,1.48,7.68,2.68,11.56,3.9s7.95,2.31,11.9,3.52c2.57.78,5.09,1.7,7.65,2.53,3.24,1.06,6.52,2,9.73,3.15,3.83,1.35,7.64,2.8,11.42,4.3a170.25,170.25,0,0,1,16.6,7.63,131.26,131.26,0,0,1,23.65,15.6A105,105,0,0,1,563.23,414a102.73,102.73,0,0,1,8.49,16,146.06,146.06,0,0,1,4.82,14c.93,3,1.49,6.19,2.11,9.31A150.41,150.41,0,0,1,581,492.93a100.27,100.27,0,0,1-2.71,18c-1.13,4.47-2,9-3.47,13.38a136.43,136.43,0,0,1-8.26,19.56,140.15,140.15,0,0,1-21.77,30.89,138.55,138.55,0,0,1-18,16.27,135.86,135.86,0,0,1-25.61,15.53c-4.11,1.86-8.16,3.91-12.4,5.41a177.53,177.53,0,0,1-24.15,6.65c-13.13,2.66-26.35,3.11-39.63,2.41a131.33,131.33,0,0,1-16.83-2.38c-5.25-1-10.44-2.31-15.63-3.58a50.59,50.59,0,0,1-5.67-1.87c-3.25-1.22-6.5-2.44-9.69-3.81-3.58-1.53-7.17-3.08-10.63-4.88a144.55,144.55,0,0,1-16.85-10.24,147.42,147.42,0,0,1-19.78-16.8,139,139,0,0,1-18-22.51,148,148,0,0,1-9.78-18c-.87-1.87-1.49-3.84-2.28-5.74A17.58,17.58,0,0,0,298.46,529Zm60.27-46.26h43.66c1.12,0,2.24,0,3.36,0,2.42.08,2.66.3,3.15,2.67a11.35,11.35,0,0,0,3.7,6.53c4.49,3.84,9.57,5,15.11,2.66,2.87-1.23,5-3.19,5.42-6.67s-1.22-5.75-3.89-7.57a5.66,5.66,0,0,0-.85-.43c-3.31-1.51-6.53-3.26-10-4.45-5.18-1.81-10.5-3.23-15.77-4.8-2.06-.61-4.14-1.14-6.18-1.81-2.4-.79-4.75-1.73-7.15-2.52-3.54-1.17-7.16-2.11-10.64-3.44-5.48-2.1-10.88-4.44-16.31-6.69a129.91,129.91,0,0,1-23.11-12.69,105.16,105.16,0,0,1-25.71-24c-.9-1.21-1.74-2.46-2.7-3.61-.66-.8-1.53-.56-1.71.45a12.8,12.8,0,0,0-.06,2.15q-.06,30.35-.13,60.69c0,3.35.06,3.5,3.46,3.54h46.3Z"/><path class="cls-1" d="M581.07,0c.09,1.14.22,2,.22,2.84q0,90.11,0,180.21c0,1.36.06,2.72,0,4.08-.07,1.64-.39,1.92-2,2-.64,0-1.28,0-1.92,0H4.07c-4,0-4,0-4-3.93Q.06,94.16.06,3.1c0-.4,0-.8,0-1.2C.13.33.32.13,1.89,0c.64,0,1.28,0,1.92,0H581.07ZM364,132.27a33.81,33.81,0,0,0,13.71-2.13,39.53,39.53,0,0,0,16-10.85,35.67,35.67,0,0,0,7.59-13.37,36.72,36.72,0,0,0,.87-19.39,38,38,0,0,0-30.41-29.29,33.77,33.77,0,0,0-4.24-.73,41,41,0,0,0-24.81,6A37.21,37.21,0,0,0,327,82a38.31,38.31,0,0,0-2.05,15.32,35.64,35.64,0,0,0,2.27,10.23,36.13,36.13,0,0,0,11.55,16.11A37.32,37.32,0,0,0,361,132.26C362,132.3,362.92,132.27,364,132.27Zm66.2-60.9c1.59-.32,2.05.81,2.55,1.59,6.63,10.39,13.2,20.81,19.8,31.21,4.86,7.64,9.71,15.29,14.63,22.89,3.26,5,1.86,4.18,8,4.22,1.86,0,2.25-.42,2.44-2.21a13.71,13.71,0,0,0,0-1.44q0-32.27,0-64.55c0-1,.06-2.08,0-3.12-.11-2-.73-2.57-2.63-2.66-.8,0-1.6,0-2.4,0-1.53.07-2,.45-2.26,1.92a9.38,9.38,0,0,0-.07,1.67q0,24.48,0,49c0,1.84,0,3.68,0,5.52,0,.76.1,1.61-1,2.08-.64-.86-1.31-1.64-1.85-2.5q-12.35-19.43-24.68-38.88c-3.54-5.57-7.09-11.13-10.7-16.64-.53-.81-1.4-1.86-2.21-2a26.24,26.24,0,0,0-5.92.21c-.39,0-.8.92-1,1.48a5.32,5.32,0,0,0-.07,1.67q0,33.59,0,67.19c0,.48,0,1,0,1.44a1.64,1.64,0,0,0,1.77,1.82c1.12,0,2.24.06,3.36,0,1.77-.08,2-.35,2.09-2.17,0-.32,0-.64,0-1q0-27.12,0-54.23C430.05,73.08,430.12,72.23,430.16,71.37ZM252.63,132.29a25.46,25.46,0,0,0,15.14-4c6.85-4.36,10.86-10.34,10.4-18.82a16.23,16.23,0,0,0-1.82-6.85c-2.77-5.2-7.4-8.32-12.76-10.11-4.52-1.51-9.31-2.17-13.94-3.39A63.77,63.77,0,0,1,240.36,86a10,10,0,0,1-4.07-3.48c-3.33-5-1.76-10.67,1.91-14.1a17.92,17.92,0,0,1,10-4.62,26.4,26.4,0,0,1,7.88.18c5.31.83,10.66,4.55,11.92,10.31a5.16,5.16,0,0,0,.56,1.82,2.77,2.77,0,0,0,1.55,1.22,18.19,18.19,0,0,0,4.06,0c1.22-.12,1.77-.8,1.55-2a22.4,22.4,0,0,0-3.16-8.92c-4.45-6.49-11-9.15-18.42-10A26.07,26.07,0,0,0,242.63,58c-7.55,2.6-13.05,7-15,15.09a15.84,15.84,0,0,0,4.71,16.13c3.78,3.57,8.57,5.36,13.73,6.09.47.07,1,.1,1.42.21,2.31.54,4.63,1.06,6.93,1.66,2.92.76,5.9,1.34,8.61,2.79,3.31,1.78,6.17,4,7.36,7.77,1.68,5.39-.89,11-6,14.38-4.32,2.85-9.16,3.51-14.22,3.32a18.07,18.07,0,0,1-9.62-3.27,15,15,0,0,1-6.13-8.23c-1.12-3.73-1.06-3.75-5-3.73-2.67,0-2.83.19-2.63,2.93a17.53,17.53,0,0,0,4.36,9.88c4.95,6,11.31,9.36,19.25,9.32Zm-99.5-34.71h0q0,15.23,0,30.47c0,.48,0,1,0,1.44a1.6,1.6,0,0,0,1.76,1.8c1.2,0,2.4,0,3.6,0,1.71-.08,2.09-.48,2.22-2.16,0-.48,0-1,0-1.44q0-29.75,0-59.5a17.1,17.1,0,0,1,0-1.92c.17-1.51.63-1.94,2.12-2.07.56,0,1.12,0,1.68,0,6.08,0,12.16,0,18.23,0,2.53,0,2.87-.42,2.9-3,0-3.6-.27-3.91-4-3.91-16.39,0-32.79,0-49.18,0-4.28,0-4.39.38-4.32,4.48,0,.24,0,.48,0,.72a1.69,1.69,0,0,0,1.67,1.7c.64,0,1.28,0,1.92,0h18c3.19,0,3.32.14,3.33,3.41,0,.24,0,.48,0,.72Q153.12,83,153.12,97.59ZM110.9,131.28c.09-1.41.22-2.43.22-3.46q0-33.09,0-66.18c0-4.48-.15-4.63-4.58-4.34a6.43,6.43,0,0,0-.72.06,2,2,0,0,0-1.8,1.91c0,.56,0,1.12,0,1.68q0,33.57,0,67.14c0,.48,0,1,0,1.44a1.6,1.6,0,0,0,1.8,1.76Zm97-74.89c-3.66,0-3.68.07-4,3.66a27.46,27.46,0,0,1-1.87,9.08c-1,2.16-1.91,4.33-3,6.45-.91,1.83-.41,3.07,1.55,3.23a3.61,3.61,0,0,0,2.2-.62,10.12,10.12,0,0,0,1.93-2.11,26.83,26.83,0,0,0,4.18-8c1-3.08,2.2-6.18,2.21-9.53,0-1.75-.28-2.08-2-2.19C208.75,56.37,208.35,56.39,208,56.39Z"/><path class="cls-1" d="M364.74,125.43c-10.64,0-18.84-3.58-25.22-11a29.85,29.85,0,0,1-6.79-14.7,32.85,32.85,0,0,1,.47-13.05,28,28,0,0,1,6-11.78,31.25,31.25,0,0,1,25.5-11.33,31.19,31.19,0,0,1,20.34,7.7,30.73,30.73,0,0,1,9.12,13.94,30.36,30.36,0,0,1,.64,16.76A29.58,29.58,0,0,1,384.6,118.2C379.57,122.38,372.08,125.66,364.74,125.43Z"/></g></g></svg>