<svg xmlns="http://www.w3.org/2000/svg" viewBox="0 0 360.67 109.76"><title>meganmeier-black</title><g id="Layer_2" data-name="Layer 2"><g id="Layer_1-2" data-name="Layer 1"><path d="M317.25,10.46c3-2.67,5.81-7.23,11.22-8.63,1.72-.79,3.61,0,5.69-1.24,2.57-1.52,5.93.23,8.41,1.18,4.31,1.65,9.17,3.08,11.41,8.12.93,2.09,3.19,3.58,4.14,5.66a25.43,25.43,0,0,1,2.44,8.57,21.16,21.16,0,0,1-.79,8.66C357,40.88,354,47.66,349.16,53.36c-2.13,2.52-4.16,5.12-6.64,8.19-.55,2.32,1.44,4.6,2.78,6.62a54,54,0,0,1,8.63,22,9.41,9.41,0,0,0,1.22,2.25c-7-.93-13,1.16-19.12,4.31-.63-2.41-.15-4.94-.27-7.42s.23-5.06-1.09-7.5c-1.14-2.11-.77-5-3.26-6.74-4.12,2.13-5.59,6.59-7.91,10s-3.38,8-4.94,12.08-1.23,8.45-3.48,12.65c-3.87-7.83-11.26-9.48-18-12.23,2.34-4.09,4.88-7.93,6.78-12.06,1.46-3.17,3.85-5.58,5.76-8.36C312,73.8,315,71,317.56,67.87c1.33-1.64,2.27-3.59,3.46-5.35a25.29,25.29,0,0,1,1.84-2.23c-2.54-5.09-5.54-9.92-7.39-15.15A50,50,0,0,1,312.94,28C313,22.08,314.55,16.68,317.25,10.46Zm16.87,39.4C339.6,43.8,342.9,37.59,346,31c0-2.6-.09-5.44,0-8.27a7.74,7.74,0,0,0-3.13-6.61A19.45,19.45,0,0,0,337.38,13c-3.66-1.29-9.32,2.49-9.54,6.27a50.63,50.63,0,0,0,2.25,19.45C331.31,42.26,332.65,45.8,334.12,49.86Z"/><path d="M3.66,18C5,16.66,6.06,14.3,9.24,15.44c-1.07,6,2.49,10.92,3.68,16.45A56.71,56.71,0,0,0,15.42,39c4.34-10,11.23-18.25,16.87-27.78L36.38,13c0,4.94-.15,9.47,0,14s.77,9.12,1.08,13.69c.3,4.38-.82,8.88,1.64,13.52l-2.66,1.24L37,56H34.72c-.19-.26-.59-.55-.58-.83.48-11.39-2-22.68-1.17-34.08.05-.72,0-1.45,0-3.23C25.26,26.69,20,35.94,15.33,46L12.21,45,7.68,26.12C5.67,30,7.59,33.82,6,37.51,4.64,40.8,5.65,45,4.81,48.85s-.18,7.89-.18,12.32l-3,2.56L0,62.16c.69-3.11-1.11-6.79,1.14-10.27.34-.53,0-1.49.06-2.23.32-2.31-.49-4.59,1-7,1.1-1.83-.2-4.5,1.13-6.89.88-1.59.06-4.07.2-6.13a12.83,12.83,0,0,1,.73-4.79C5,23.2,4,20.77,3.66,18Z"/><path d="M189.93,18.86c2-2,2.88-4.46,6.18-3.46-.11,7.19,3.22,13.71,5.58,20.51a24.7,24.7,0,0,1,.65,3.38c1.77-3.43,3.2-6.64,5-9.63,1.93-3.17,3.69-6.72,6.16-9.23,2.62-2.67,2.7-6.94,6.6-8.9l3.38,1.37c0,1.87,0,3.53,0,5.19.36,10.41.7,20.82,1.18,31.22.07,1.54.8,3.06,1.38,5.11l-4.83,2.33c0-4,.12-7.11,0-10.25-.43-9.23-1-18.46-1.49-28.11-7.29,8.33-12.42,17.69-17.32,27.7l-3.1-1.16-4.15-17.25-.82,0a25.22,25.22,0,0,0-.29,3.42,25.62,25.62,0,0,1-1.08,8.61c-.76,2.56.45,5.31-1,8.09-.94,1.76-.08,4.44-.22,6.69-.07,1.14-.8,2.27-.77,3.39a9.72,9.72,0,0,0,1.12,3l-3.3,2.9c-.43-.51-1.5-1.2-1.45-1.81.21-2.89-1-5.95.86-8.67a2.3,2.3,0,0,0,.18-1.05c.38-4.56.7-9.13,1.16-13.68.22-2.12.7-4.22,1.11-6.32s-.34-4.15.9-6.44A5.84,5.84,0,0,0,189.93,18.86Z"/><path d="M66.43,58a5.07,5.07,0,0,1-3.71-3.93s.47-.29.48-.56c0-5,2.86-9,4.9-13.25A35.57,35.57,0,0,1,76,29.4c4.09-3.81,7-3.9,11.26-.22.43.37.8.8,1.29,1.29,0,8.38.41,16.88-.1,25.31A39.09,39.09,0,0,1,75.09,83.57c-2.51,2.23-5.65,2.14-8.74,1.79l-1.73-1.69a19,19,0,0,1,.54-2.57,19.53,19.53,0,0,1,1.22-2.42l2.35,2.23h3.39c.41-.41.74-1,1.22-1.19,5.74-2.7,7.79-8.13,9.45-13.53A61,61,0,0,0,85.08,44c-.12-1.69-1-3.33-1.54-4.92C79,46.54,75.25,54.62,66.43,58Zm.06-3.74c9.27-5.41,11.87-14.2,16.83-22.59l-6,1.42A48.68,48.68,0,0,0,66.49,54.27Z"/><path d="M114.12,23l-1.4,2.84c3.84,5.91,4.72,13.17,7.4,19.75.94,2.3.47,5.45-.18,8.67-2.3-1.47-3.58-2.59-4.35-5.07a93.5,93.5,0,0,1-3.52-13.65c-1.92,1.09-2.28,3.05-3.09,4.62A130.76,130.76,0,0,1,101.47,53c-1.61,2.4-4.88,2.47-5.3,6.19l-3.91-3.37-1-3.77c.57-2.45.7-5.39,1.9-7.79,3.39-6.72,6.5-13.72,12.66-18.56a14.13,14.13,0,0,1,3.56-2.34C110.52,22.91,111.89,23.12,114.12,23Zm-5.48,6c-3.44,3.35-7.4,6.09-9.24,10.93-1.7,4.47-5,8.44-3.66,14C102.67,46.69,106.38,38.24,108.63,29Z"/><path d="M122.51,58.56c.43-9.47-1-18.39,1.61-27.72l3.67-1.32c-.39,5.33-2.38,10-1.55,16.14,2.67-8.77,6.3-15.44,14.9-18,5.08,1.43,9.24,3.88,10.25,10a20.69,20.69,0,0,1,.62,3.1c.05,3.4,0,6.8,0,9.81l-1.59,3.07h-3c.39-3-.72-6,.83-8.25-.29-2.3-.65-4.22-.73-6.15-.11-2.53-.95-4.55-3.2-5.86-3-1.74-5.54-1.38-8.4.74-3.29,2.45-4.31,6.13-5.38,9.68-1.22,4-3,7.84-4.49,11.74C125.46,57.06,124.8,57.92,122.51,58.56Z"/><path d="M49,54.39l1.49,1.49,5.44-1.3-3.13,4.68-3.56,1.46a14,14,0,0,1-1.51-.82C46.1,58.76,45.81,57,45.1,55.33s-1.22-2.87.19-4.39c.38-.42.14-1.43.15-2.17a17.78,17.78,0,0,1,.06-3.38,10.59,10.59,0,0,1,1.6-2.62c-1.14-.18-1.81-.32-2.48-.37s-1.46,0-2.38,0V39.19l6.21-1.84c2.34-3.66,3.47-8.81,7.89-12h3.23c5.14,5,5.14,5,5.12,10.91C61,39.8,55.81,38.25,51.46,40.45,49,44.52,48.45,49.3,49,54.39Z"/><path d="M232.21,43l-3.7,2.09-2-2.75c.88-.84,1.53-2,2.4-2.18,1.56-.37,3.42.36,4.64-1.74a19.94,19.94,0,0,1,3.89-10.68h6l7.23,4.65v4l-13.24,4.62c-.4,7.57.08,9,4.35,13l5.35-2.44.38,2.81-5.81,4.22L235.36,54Z"/><path d="M273.94,27.67h5.22L286,33.91a5.24,5.24,0,0,1-5,3.8c-3.14.22-5.73,1.84-8.65,2.56-1.39.35-2.36,2.39-3.46,3.59,0,3.41-.69,6.77,1.75,9.88,4.95,0,7.07-5.39,11.66-6.62v2.8c-1.79,1.79-3.46,3.93-5.59,5.44-1.81,1.28-4.14,1.83-6.37,2.76l-4.82-3.49c-.32-2.34.67-4.53-1.1-6.06C266,41,267.54,33.44,273.94,27.67Z"/><path d="M290.12,57h-2.92V30.76l3.22,1.58v11C292.8,37.53,298,34.66,302.3,31c2.48.46,4.65-2.41,7.84-.3a7,7,0,0,1-2,1.17c-7,1.31-10.17,6.75-13.41,12.24A26.88,26.88,0,0,0,291.49,53,30.6,30.6,0,0,1,290.12,57Z"/><path d="M258.45,56.74l-1.61,1.61-2.74-3.91c.27-8.1-.85-17.39,1.61-26.93l2.73,1.3Z"/><path d="M304,78.57l-2.93.14L295,72v6.57h-3.25v-11l2.67-.32L300.54,74V67.56c3.41-.07,3.43-.07,3.45,2C304,72.41,304,75.24,304,78.57Z"/><path d="M163.58,67.42H167l5.33,6.32V67.48h3.29V78.89a9.21,9.21,0,0,1-2.33-1.16c-2-1.95-3.87-4-6.4-6.66v8l-3.31-1.57Z"/><path d="M187.39,67.26c3.8.32,7.52-.75,11.07,1.61l1.6,5.67-5.27,4h-7.4Zm8.71,7.85.18-3.71c-1.6-2.44-3.56-1.9-5.4-1.59v7Z"/><path d="M119.91,78.59l-4.46-4.14L116.93,69c2.62-2.14,5.59-1.67,8.34-1.66l4.1,3.93v3.17A9,9,0,0,1,119.91,78.59Zm6.38-5.34-1.5-3.65c-2.21.07-4.18-.62-5.51,1.76v3.46l3.7,1.7Z"/><path d="M275.41,78.66c-4.72-.06-4.72-.06-9.06-4.17l1.36-5.6a10.62,10.62,0,0,1,11.26,0l1.54,5.44Zm-2-2.22,3.3-1.64c.13-1.84.62-3.77-1.58-5.1h-3c-2.92,1.25-2,3.31-2,5.09Z"/><path d="M216.67,67.45l5.51,10.8c-2.12,1.34-3.33-.21-4.76-1.7H212.5l-.74,2.13-3.27-.17c1-3.6,3.44-6.15,3.9-9.59C212.58,67.44,214.48,67,216.67,67.45Z"/><path d="M150,67.42h1.9V76l-2.65,2.57c-3.11.33-6.12.13-8.41-2.77V67.51h3.12v6.66l2.15,2.63,3.9-3.26Z"/><path d="M105.69,73,100,74.64l-.21,3.8H96.85c.13.11-.13,0-.13-.13,0-3.53,0-7.06,0-10.79h8.73c-.92,3.12-3.8,1.5-5.48,2.31l-.09,1.79,5.73.44Z"/><path d="M241.52,67.52v1.91h-4.26v9.05h-3.4V69.77h-4.39l-.37-2.25Z"/><path d="M255,78.56h-3V67.43h3Z"/></g></g></svg>