<svg xmlns="http://www.w3.org/2000/svg" viewBox="0 0 237.28 75.84"><defs><style>.cls-1{fill:#fff;}</style></defs><title>mogul-white</title><g id="Layer_2" data-name="Layer 2"><g id="Layer_1-2" data-name="Layer 1"><path class="cls-1" d="M62.61.28V56.55H45.41V35.92L31.47,47l-13.63-11V56.58H0V0L31.57,25.77Z"/><path class="cls-1" d="M147.9,50.57c-9.1,5.37-18.78,4.16-24.86-2.78-6.63-7.56-6.79-21.31-.34-29.21,6-7.38,15.36-8.67,24.71-3.41,2.3-2.74,6.94-3.28,17.65-1.74-.52,15.25-.12,30.75-1.88,46-1.43,12.44-12.62,18.39-26.32,15.83V62.14C147.53,60,148.8,58.71,147.9,50.57Zm1.15-17C149.1,29,146.73,26.1,143,26c-3.62-.05-6.36,3.13-6.23,7.45.12,3.87,1.65,6.83,5.92,7.22C146.38,41.05,149,38,149,33.55Z"/><path class="cls-1" d="M171.05,13.13h16.51c0,8,0,15.81,0,23.58,0,3.08-.12,6.52,4.12,6.59s4.78-3.16,4.74-6.63c-.08-7.77,0-15.54,0-23.56h16.23V56.57H197.16L196,54.48c-2.8,1.06-5.34,2.41-8,3-8.5,1.77-16.17-2.91-16.76-11.29C170.47,35.29,171.05,24.32,171.05,13.13Z"/><path class="cls-1" d="M113.78,34.67c0,13.84-9,23.12-22.62,23.11-13.37,0-22.48-9.14-22.58-22.64-.1-14,8.76-23.21,22.37-23.29S113.74,20.84,113.78,34.67Zm-16.91.59c0-4.5-1.1-7.84-5.65-7.83s-5.62,3.37-5.67,7.22c-.06,4.93,2.08,7.66,5.93,7.42C96.2,41.77,96.75,38.33,96.87,35.26Z"/><path class="cls-1" d="M237.28,56.56H220.65V1.24h16.63Z"/></g></g></svg>