<svg xmlns="http://www.w3.org/2000/svg" viewBox="0 0 331.62 265.29"><defs><style>.cls-1{opacity:0;}.cls-2{fill:#fff;}</style></defs><title>newyorktimes-white-square</title><g id="Layer_2" data-name="Layer 2"><g id="Layer_1-2" data-name="Layer 1"><path class="cls-1" d="M0,0H331.62V265.29H0ZM179.85,152.15c0-.55,0-1,0-1.55q0-18.72,0-37.43c0-4.87-2.92-7.77-7.61-7.74-4.29,0-8.28,4.56-7.75,7.94.31-.62.55-1.19.88-1.71a2.66,2.66,0,0,1,2.61-1.41,2.63,2.63,0,0,1,2.38,1.94,8.64,8.64,0,0,1,.4,2.46c0,3.31,0,6.62,0,9.92,0,.4,0,.81,0,1.06a30.85,30.85,0,0,0-3.88,1.15,6,6,0,0,0-2.65,8.94,4.11,4.11,0,0,0,3.25,2,6.86,6.86,0,0,1-.8-2.34c.1-1.36,1.28-1.73,2.45-1.9,1.37-.21,1.66,0,1.67,1.39,0,5.44,0,10.89,0,16.33a2,2,0,0,1-1.25,2.09c-2.65,1.36-4.66,3.31-4.79,6.54-.23,5.42,3.39,9.36,8.8,9.17a90.81,90.81,0,0,0,10-1.33c2.81-.42,5.6-1,8.42-1.35a2.43,2.43,0,0,1,2.82,1.16,3.26,3.26,0,0,1-.41,3.55c-.32.44-.71.82-1.22,1.41a10.11,10.11,0,0,0,5.43-2.65,7,7,0,0,0-1.15-10.94,8.57,8.57,0,0,0-5.88-1.34c-3.77.47-7.52,1.16-11.29,1.69-2.65.37-5.3.74-8,.86a3.22,3.22,0,0,1-3.38-2.77,3.44,3.44,0,0,1,2-3.79,11.3,11.3,0,0,1,3.73-.92,34.32,34.32,0,0,1,10.41,1.36,54.13,54.13,0,0,0,7,1.48c5,.59,8-2,8.28-7.07,0-.42,0-.84,0-1.25,0-10.93.06-21.86,0-32.78,0-2.1.34-3.73,2.22-4.84a4.05,4.05,0,0,0,.8-.85l-.3-.3-2.94,2.46L194,105.24l-8.66,6.93v-6.36l-.43,0v47.34ZM142.77,46.33c4.74-.76,7.08-2.41,8-5.61.79-2.68.77-5.31-1.41-7.35a8.65,8.65,0,0,0-7.71-2.18c.89.34,1.84.51,2.71.86a2.75,2.75,0,0,1,1.84,2.73A2.57,2.57,0,0,1,143.94,37a5.61,5.61,0,0,1-2.1,0c-1.92-.42-3.82-.93-5.71-1.47-3.1-.88-6.16-1.87-9.27-2.71a10.47,10.47,0,0,0-8.54,1.4,8.49,8.49,0,0,0-3.43,10.11,5.33,5.33,0,0,0,3.57,3.33,3.64,3.64,0,0,1-.4-4.56c.95-1.62,2.5-1.8,4.16-1.66a5.94,5.94,0,0,1,1,.14l19,4.89c0,2.47,0,5.11,0,7.74a2.08,2.08,0,0,1-.9,1.9c-1.22.92-2.37,1.92-3.62,2.94,1.33,1.08,2.47,2.07,3.67,3a2,2,0,0,1,.84,1.8c0,3.52-.06,7,0,10.55a1.61,1.61,0,0,1-1.09,1.72,13.72,13.72,0,0,1-16-2.92,6.28,6.28,0,0,1-.54-.73c3.45-1.73,6.8-3.44,10.19-5.08a1.71,1.71,0,0,0,1.17-1.78c0-5.82,0-11.64,0-17.46,0-.35,0-.71-.07-1.23l-14,6.24a16.59,16.59,0,0,1,6.93-8.25,1.65,1.65,0,0,0-.82,0c-7.93,2.31-16.05,10.4-15.23,21.14.64,8.3,4.64,14.38,12.48,17.61,10.37,4.28,23.42-1.33,25.25-14.4.13-1,.11-1.92.16-2.89-3.39,5.16-5.6,7.7-7.71,8.53,0-.35,0-.67,0-1,0-3.39,0-6.78,0-10.17a2,2,0,0,1,.88-1.79c1.22-.92,2.38-1.91,3.65-2.94-1.34-1.09-2.56-2-3.73-3a2,2,0,0,1-.74-1.19C142.73,52,142.77,49.2,142.77,46.33ZM123.16,191c6.67-1.41,9.59-5.06,8.28-10.18-.89-3.47-5.71-6-9.33-4.95a22.81,22.81,0,0,1,3,1,2.42,2.42,0,0,1,1.49,2.54,2.51,2.51,0,0,1-2.15,2.17,4.8,4.8,0,0,1-1.74.11,25.16,25.16,0,0,1-3.31-.69c-4-1.14-7.93-2.38-11.92-3.5a10.6,10.6,0,0,0-8.79,1.36c-3.83,2.39-5.15,7.81-2.74,11.33a4.88,4.88,0,0,0,3.12,2.19,3.51,3.51,0,0,1-.68-4.56c1-1.69,2.52-1.94,4.23-1.76a19.25,19.25,0,0,1,2.58.54c5.52,1.36,11,2.76,16.56,4.09.71.17.83.5.82,1.12,0,2.43,0,4.86,0,7.28a2.27,2.27,0,0,1-.69,1.45c-1.17,1.06-2.44,2-3.79,3.11,1.32,1.07,2.59,2,3.75,3.09a2.43,2.43,0,0,1,.73,1.56c.06,3.56,0,7.12.06,10.67a1.65,1.65,0,0,1-1.08,1.72,13.9,13.9,0,0,1-16.31-3.19A3.45,3.45,0,0,1,105,217c3.46-1.73,6.81-3.43,10.19-5.07a1.71,1.71,0,0,0,1.16-1.79c0-5.78,0-11.55,0-17.33,0-.39,0-.79-.08-1.35l-13.79,6.13-.29-.32A38.79,38.79,0,0,1,105,193a44.85,44.85,0,0,1,4.21-3.73,20,20,0,0,0-7.55,3.58c-7,5.41-10.06,12.44-8.14,21.19,1.78,8.11,6.91,13.21,15,15.16,11.37,2.74,22.47-6,22.37-17.47a7.2,7.2,0,0,0-.18-1,21.27,21.27,0,0,1-7.58,9c0-4.14,0-8,0-11.83a1.94,1.94,0,0,1,.71-1.2c1.21-1.06,2.48-2,3.79-3.11-1.36-1.11-2.62-2.09-3.82-3.12a1.79,1.79,0,0,1-.68-1.09C123.13,196.62,123.16,193.81,123.16,191ZM78.84,137.08l-.21.06c-.19-.32-.39-.63-.56-.95-4.93-8.94-9.83-17.9-14.8-26.82a12.91,12.91,0,0,0-2.63-3.32,7,7,0,0,0-8.81-.43c-2.65,2-4.08,6.16-3,8.94a18.55,18.55,0,0,1,.72-1.76,2.45,2.45,0,0,1,4-.9A4.75,4.75,0,0,1,55.75,116c-.09,1.67,0,3.35,0,5,0,1.86,0,1.85-1.89,2.12-.37.05-.74.13-1.11.21-5,1.16-6.82,6.44-3.47,10.41a4.93,4.93,0,0,0,2.83,1.64,8.58,8.58,0,0,1-.4-2.88c.26-1.15,1.48-1.37,2.53-1.5,1.29-.17,1.51.06,1.51,1.41s0,2.6,0,3.89c0,2.21,0,4.41,0,6.71l-1.85.17c-5.63.52-9.35,4.61-8.91,9.8.36,4.3,5.18,7.85,9.17,6.69a20.13,20.13,0,0,1-2.06-.85A3.63,3.63,0,0,1,54.41,152a17.3,17.3,0,0,1,3.87,1.89,6.09,6.09,0,0,1,1,1l8.24-9.15-.22-.2L65,147.81a15.18,15.18,0,0,0-8.58-4.65v-27a5.76,5.76,0,0,1,1.14,1.59l19.7,35.87c.38.69.73,1.68,1.67,1.3.38-.15.55-1.23.56-1.89q0-18.34,0-36.67c0-1,.3-1.33,1.25-1.53a8.6,8.6,0,0,0,7.17-8.94,16.59,16.59,0,0,0-.46-2.32c-1.94,4.88-6.41,4.74-10.27,1.32l-8.21,9.38.41.37,2.42-2.6a10.58,10.58,0,0,0,7.08,3Zm59.8-10.32c3.5,1.48,2.78,4.44,2.8,7.14,0,.5,0,1,0,1.51,0,4.44,0,8.87,0,13.31a4.56,4.56,0,0,1-.59,1.48,6.08,6.08,0,0,1-1.35-.6c-1.23-.94-2.37-2-3.61-2.93a2.76,2.76,0,0,1-1.22-2.52c.08-4.1.15-8.21,0-12.3-.09-2.28.25-4.19,2.13-5.63.08-.06.11-.21.2-.39l-6.15-5.43-6.89,6.09a18.37,18.37,0,0,0,1.45,1.3,3.14,3.14,0,0,1,1.29,2.9c-.07,5.52-.05,11.05,0,16.58a1.89,1.89,0,0,1-1.35,2.08c-1.1-.86-2.2-1.83-3.4-2.65a3.06,3.06,0,0,1-1.43-2.92c.09-5.11,0-10.21.06-15.32a6.11,6.11,0,0,0-2.84-5.52c-1.13-.79-2.32-1.52-3.37-2.41-2.22-1.88-2.25-3.8-.22-5.9.13-.14.25-.29.42-.48-2.89-.44-7.47,3.3-7.62,6.75a7.14,7.14,0,0,0,3.07,6.37,6.58,6.58,0,0,1,2.61,5.69q-.08,7.16,0,14.32a2.07,2.07,0,0,1-1.08,2,25.23,25.23,0,0,0-2.05,1.56c.34.16.44.24.48.22.32-.19.64-.39.95-.6,2-1.41,2-1.41,3.76.09l5,4.15,7.41-5.85,7.47,5.89c4.61-2.85,9.15-5.68,13.73-8.45a1.7,1.7,0,0,0,.93-1.7c0-4.9,0-9.8,0-14.69a2.82,2.82,0,0,1,.82-1.77c1.34-1.32,2.81-2.51,4.21-3.76a5,5,0,0,0,.53-.66l-.26-.27-2.58,2.12-6.31-5.2Zm25.15,74c1.31,1.51,2.62,3,3.85,4.51a2.38,2.38,0,0,1,.36,1.39c0,3.64,0,7.28,0,10.93,0,1.73.41,3.59-1.73,4.64l5.66,6.36,6.13-6.14a7.5,7.5,0,0,0-.77-.82,3.77,3.77,0,0,1-1.36-3.28q.09-7.34-.07-14.69a2.68,2.68,0,0,1,1.75-2.92c1.2,1.32,2.48,2.63,3.64,4.05a3.27,3.27,0,0,1,.72,1.87c.06,3.68,0,7.37,0,11.05,0,1.58.28,3.23-1.56,4.21l3.25,3.52,3.1,3.36c3-2.24,8.22-7.35,8.22-8.22l-2.14,1.85c-.72-.78-1.32-1.54-2-2.18a3.49,3.49,0,0,1-1.1-2.9c.06-4.23.14-8.46,0-12.68-.08-2,.34-3.39,2.14-4.31a4.64,4.64,0,0,0,.89-.79l-.29-.36-3.05,2.26L183.66,195l-8.2,6.49-5.78-6.24-7.92,6.16-5.86-6.15-8.41,7.38.35.41,2.61-2.18c1.14,1.28,2.21,2.4,3.18,3.61a2.94,2.94,0,0,1,.62,1.66c.06,3.64,0,7.28,0,10.93,0,1.85.46,3.87-2,4.83l6.29,7.1,6-6.38a10.55,10.55,0,0,0-1.21-1.28,3.41,3.41,0,0,1-1.26-3.06c.07-4.94.08-9.88,0-14.82A2.48,2.48,0,0,1,163.79,200.73ZM171.67,50l-8,6.86V33.57l-10.06,7.78c1.73.65,2,1.91,2,3.41,0,9,0,18.09,0,27.13,0,1.51.43,3.23-.16,4.46s-2.23,1.91-3.39,2.85a6.19,6.19,0,0,0-.62.67l.23.24a3.53,3.53,0,0,0,.81-.49c.9-1,1.59-.73,2.45.15,1.42,1.46,3,2.79,4.52,4.21l9-7.16-.3-.41L166,77.91a4.48,4.48,0,0,1-2.29-4.25c.18-4.6.22-9.22,0-13.81-.12-2.31,1.15-3.24,2.7-4.32,1.1,1.37,2.19,2.64,3.16,4a3.35,3.35,0,0,1,.61,1.81q.07,8.29,0,16.58a52,52,0,0,1-.38,5.25,9,9,0,0,1-3.86,6.63,23.79,23.79,0,0,1-2.89,1.5,1.92,1.92,0,0,0,.37.15c8,1.15,14.55-4.4,14.64-12.51q.12-10,.14-20.09a2.12,2.12,0,0,1,1-2.09,16.69,16.69,0,0,0,1.74-1.4l-.28-.37-2.75,2Zm35.63,97.64c2.51,2.11,5,4.2,7.48,6.31a1.1,1.1,0,0,0,1.51.22q6.3-3.65,12.66-7.18a1.54,1.54,0,0,0,.9-1.58c0-5,0-10,0-15.06a3.45,3.45,0,0,1,1.42-3.21,6,6,0,0,0,.91-1l-.31-.28L229.41,128c-.38-.3-.7-.55-1-.82-2.37-2.05-4.76-4.09-7.1-6.18a1.16,1.16,0,0,0-1.62-.15c-3.88,2.14-7.77,4.27-11.7,6.31a1.63,1.63,0,0,0-1,1.73c0,5.65,0,11.3,0,16.95a2.2,2.2,0,0,1-.95,2,15.49,15.49,0,0,0-1.42,1.32c.3.13.41.21.44.19C205.79,148.84,206.51,148.28,207.3,147.68Zm20.81,83.79a19.42,19.42,0,0,1-1.82-1.43,2,2,0,0,1,.49-3.44,3.28,3.28,0,0,1,3.66.29,29,29,0,0,1,2.28,1.79c3.93-2.38,7.8-4.7,11.63-7.09a1.77,1.77,0,0,0,.66-1.29c.06-3.14,0-6.27,0-9.41a2.09,2.09,0,0,0-.94-1.88c-1.48-1.14-2.91-2.34-4.39-3.54.43-.54.78-1,1.11-1.38a17.45,17.45,0,0,0,3.67-6.92,4.74,4.74,0,0,0-.44-3.66c-.46,2.5-1.48,3.52-3.56,3.67s-3.33-1.28-4.59-2.33c-4,2.36-8,4.63-11.9,7a1.63,1.63,0,0,0-.59,1.2c-.06,2.22,0,4.43,0,6.65a2.24,2.24,0,0,0,.84,1.95c1.41,1.21,2.75,2.51,4.28,3.93a14.81,14.81,0,0,0-1.53,1.32,46.52,46.52,0,0,0-3.68,4.43,6.48,6.48,0,0,0,4.81,10.18Zm29.06-121c2,.59,2.47,2.08,2.67,3.73a14.26,14.26,0,0,1,.1,1.75c0,9.29-.09,18.58.06,27.87,0,2.4-.47,4.18-2.53,5.48a11.47,11.47,0,0,0-1.55,1.41l.3.35,2.43-1.92,5.77,5.4L273,147l-.32-.4-2.25,1.75a12.54,12.54,0,0,0-1.23-1.32,4.26,4.26,0,0,1-1.51-3.73c.07-11.93,0-23.85,0-35.78,0-1.4,0-2.8,0-4.5ZM185.29,77.24l8,7.18,13.89-11L206.8,73l-7.66,6c-1.92-1.79-3.79-3.52-5.64-5.27a2.13,2.13,0,0,1,.23-3.39l8.8-6.46c1-.74,2-1.49,3-2.26l-6.45-11.18L198,51c-4,2.28-8,4.6-12,6.82a1.76,1.76,0,0,0-1.07,1.83c0,5.27,0,10.54,0,15.82a2.08,2.08,0,0,1-1,2,16.5,16.5,0,0,0-1.62,1.37l.28.35ZM206.93,229l13.89-11-.31-.42c-.32.22-.64.43-.94.67-2,1.54-4,3.06-5.92,4.65a1,1,0,0,1-1.66-.08c-1.51-1.51-3.1-2.93-4.65-4.39a2.19,2.19,0,0,1,.17-3.65l10.32-7.57,1.4-1.05-6.39-11.07c-4.63,2.59-9.12,5.08-13.58,7.65a1.89,1.89,0,0,0-.63,1.42c0,4.94-.11,9.87,0,14.81,0,1.67-.31,2.9-1.79,3.75-.31.18-.5.56-.74.84l.27.25,2.56-2ZM83.5,149l.3.37,2.63-1.95,8,7.18,13.9-11-.35-.45-7.68,6c-1.92-1.8-3.78-3.54-5.63-5.29a2.14,2.14,0,0,1,.23-3.39l10.92-8c.29-.21.55-.46.87-.73l-6.35-11c-4.6,2.57-9.06,5-13.48,7.58a1.84,1.84,0,0,0-.71,1.37q-.08,8,0,16.07a2,2,0,0,1-.9,1.9A18.16,18.16,0,0,0,83.5,149Zm160.36,5.52c2.93-2.49,5.9-4.85,8.75-7.35l-.33-.4-2.8,2.21c-.84-.73-1.55-1.44-2.36-2a2.35,2.35,0,0,1-1-2.15c0-5.52,0-11,0-16.57,0-.34,0-.69.08-1.13,3.36,2.82,5.54,3.2,8,1.49s4-5.49,3.19-7.75c-2.1,2.34-4.28,1.74-6.39.09l-5.35,5.25-4.7-5.62-8.49,7.67.33.39,2.45-2c.57.74,1,1.45,1.59,2.05a4.52,4.52,0,0,1,1.15,3.43c-.07,3.68-.21,7.38,0,11,.18,2.76-.47,4.86-2.85,6.35a4,4,0,0,0-.77.89l.31.29,2.46-2.17Zm43-6.39c-4.45-6.71-8.82-13.3-13.16-19.91-.19-.29,0-.82,0-1.49,3,1.91,5.83,3.27,9,1.49,3-1.7,3.88-4.69,4.54-8.12-1.57,1.31-3,2.5-4.79,2.2a27.73,27.73,0,0,1-4.82-1.77c-2.85,4.14-5.84,8.53-8.89,12.88a1.52,1.52,0,0,0,0,2c3.82,6,7.61,12.12,11.41,18.18.16.26.38.49.62.8l9.25-8.12-.35-.4Zm-154,52.62C134,202,135,203.22,136,204.47a2,2,0,0,1,.32,1.16c0,5.15,0,10.3,0,15.44a2.63,2.63,0,0,1-.68,1.48,17.86,17.86,0,0,1-1.73,1.62l.29.35,2.61-2.06,5.58,6.39,8.06-7.23-.34-.4-2.4,2c-.83-1-1.59-1.9-2.43-2.76a2.89,2.89,0,0,1-.85-2.23c0-4.65.07-9.29,0-13.94a3,3,0,0,1,1.35-2.85,12.8,12.8,0,0,0,1.43-1.33l-.31-.34-2.72,2.18-5.85-6.79-8,7,.33.4Zm4.66-7.38,6.15-5.57-5-5.53-6.1,5.62Z"/><path class="cls-2" d="M179.85,152.15l5,1V105.83l.43,0v6.36l8.66-6.93,6.25,5.52,2.94-2.46.3.3a4.05,4.05,0,0,1-.8.85c-1.89,1.1-2.24,2.73-2.22,4.84.1,10.93,0,21.85,0,32.78,0,.42,0,.84,0,1.25-.28,5-3.26,7.67-8.28,7.07a54.13,54.13,0,0,1-7-1.48,34.32,34.32,0,0,0-10.41-1.36,11.3,11.3,0,0,0-3.73.92,3.44,3.44,0,0,0-2,3.79,3.22,3.22,0,0,0,3.38,2.77c2.66-.11,5.32-.49,8-.86,3.77-.52,7.51-1.21,11.29-1.69a8.57,8.57,0,0,1,5.88,1.34,7,7,0,0,1,1.15,10.94,10.11,10.11,0,0,1-5.43,2.65c.51-.58.9-1,1.22-1.41a3.26,3.26,0,0,0,.41-3.55,2.43,2.43,0,0,0-2.82-1.16c-2.81.39-5.61.93-8.42,1.35a90.81,90.81,0,0,1-10,1.33c-5.42.19-9-3.74-8.8-9.17.14-3.23,2.14-5.18,4.79-6.54a2,2,0,0,0,1.25-2.09c-.06-5.44,0-10.89,0-16.33,0-1.34-.3-1.59-1.67-1.39-1.17.18-2.35.54-2.45,1.9a6.86,6.86,0,0,0,.8,2.34,4.11,4.11,0,0,1-3.25-2,6,6,0,0,1,2.65-8.94,30.85,30.85,0,0,1,3.88-1.15c0-.25,0-.65,0-1.06,0-3.31,0-6.62,0-9.92a8.64,8.64,0,0,0-.4-2.46,2.63,2.63,0,0,0-2.38-1.94,2.66,2.66,0,0,0-2.61,1.41c-.33.52-.57,1.09-.88,1.71-.54-3.39,3.45-7.91,7.75-7.94,4.68,0,7.6,2.87,7.61,7.74q0,18.72,0,37.43C179.85,151.11,179.85,151.6,179.85,152.15Zm5.57-8.57c0,3,0,5.93,0,8.9,0,.77.28,1,1,1.06a4.66,4.66,0,0,0,5-4.84c0-4.43,0-8.86,0-13.29a2.74,2.74,0,0,0-2.88-3,2.91,2.91,0,0,0-3.16,3Q185.42,139.51,185.43,143.59Zm2.08-32.16c-1.85.7-2.18,2-2.11,3.65.12,3.25,0,6.52,0,9.78a3,3,0,0,0,4.14,2.93,2.28,2.28,0,0,0,1.9-2.63c0-3.09,0-6.18,0-9.28a2,2,0,0,0-.43-1.33C189.88,113.44,188.65,112.43,187.5,111.42Zm-2,16.14v5.34a4.53,4.53,0,0,1,5.83-.16v-5.15A4.48,4.48,0,0,1,185.53,127.56Z"/><path class="cls-2" d="M142.77,46.33c0,2.86,0,5.66,0,8.46a2,2,0,0,0,.74,1.19c1.16,1,2.39,2,3.73,3-1.27,1-2.43,2-3.65,2.94a2,2,0,0,0-.88,1.79c0,3.39,0,6.78,0,10.17,0,.32,0,.64,0,1,2.11-.83,4.32-3.37,7.71-8.53,0,1,0,1.94-.16,2.89-1.83,13.07-14.88,18.68-25.25,14.4-7.83-3.23-11.84-9.31-12.48-17.61-.82-10.74,7.3-18.83,15.23-21.14a1.65,1.65,0,0,1,.82,0,16.59,16.59,0,0,0-6.93,8.25l14-6.24c0,.52.07.88.07,1.23,0,5.82,0,11.64,0,17.46a1.71,1.71,0,0,1-1.17,1.78C131.34,69,128,70.7,124.53,72.43a6.28,6.28,0,0,0,.54.73,13.72,13.72,0,0,0,16,2.92,1.61,1.61,0,0,0,1.09-1.72c-.06-3.52,0-7,0-10.55a2,2,0,0,0-.84-1.8c-1.2-.9-2.34-1.89-3.67-3,1.25-1,2.4-2,3.62-2.94a2.08,2.08,0,0,0,.9-1.9c-.05-2.63,0-5.26,0-7.74l-19-4.89a5.94,5.94,0,0,0-1-.14c-1.66-.14-3.21,0-4.16,1.66a3.64,3.64,0,0,0,.4,4.56,5.33,5.33,0,0,1-3.57-3.33,8.49,8.49,0,0,1,3.43-10.11,10.47,10.47,0,0,1,8.54-1.4c3.1.85,6.17,1.83,9.27,2.71,1.89.54,3.79,1,5.71,1.47a5.61,5.61,0,0,0,2.1,0,2.57,2.57,0,0,0,2.28-2.19,2.75,2.75,0,0,0-1.84-2.73c-.88-.35-1.82-.52-2.71-.86a8.65,8.65,0,0,1,7.71,2.18c2.19,2,2.2,4.66,1.41,7.35C149.85,43.92,147.5,45.57,142.77,46.33ZM124,72a15.58,15.58,0,0,1,1.56-.71,2.1,2.1,0,0,0,1.56-2.41c-.09-5.35,0-10.7,0-16.05,0-.39,0-.79-.07-1.34-1.85.82-3.58,1.55-5.26,2.37a1.54,1.54,0,0,0-.65,1,38.62,38.62,0,0,0-.9,5C119.91,64.32,121.48,68.24,124,72Z"/><path class="cls-2" d="M123.16,191c0,2.85,0,5.65,0,8.45a1.79,1.79,0,0,0,.68,1.09c1.2,1,2.45,2,3.82,3.12-1.31,1.07-2.58,2.06-3.79,3.11a1.94,1.94,0,0,0-.71,1.2c-.05,3.84,0,7.69,0,11.83a21.27,21.27,0,0,0,7.58-9,7.2,7.2,0,0,1,.18,1c.1,11.51-11,20.21-22.37,17.47-8.09-2-13.22-7-15-15.16-1.92-8.75,1.15-15.79,8.14-21.19a20,20,0,0,1,7.55-3.58A44.85,44.85,0,0,0,105,193a38.79,38.79,0,0,0-2.93,4.32l.29.32,13.79-6.13c0,.56.08,1,.08,1.35,0,5.78,0,11.55,0,17.33a1.71,1.71,0,0,1-1.16,1.79c-3.38,1.64-6.73,3.34-10.19,5.07a3.45,3.45,0,0,0,.27.46,13.9,13.9,0,0,0,16.31,3.19,1.65,1.65,0,0,0,1.08-1.72c-.06-3.56,0-7.12-.06-10.67a2.43,2.43,0,0,0-.73-1.56c-1.16-1.07-2.43-2-3.75-3.09,1.34-1.09,2.61-2,3.79-3.11a2.27,2.27,0,0,0,.69-1.45c.07-2.43,0-4.86,0-7.28,0-.62-.11-.95-.82-1.12-5.53-1.33-11-2.72-16.56-4.09a19.25,19.25,0,0,0-2.58-.54c-1.7-.18-3.28.07-4.23,1.76a3.51,3.51,0,0,0,.68,4.56A4.88,4.88,0,0,1,96,190.17c-2.41-3.52-1.09-8.94,2.74-11.33a10.6,10.6,0,0,1,8.79-1.36c4,1.12,7.94,2.35,11.92,3.5a25.16,25.16,0,0,0,3.31.69,4.8,4.8,0,0,0,1.74-.11,2.51,2.51,0,0,0,2.15-2.17,2.42,2.42,0,0,0-1.49-2.54,22.81,22.81,0,0,0-3-1c3.62-1.09,8.45,1.48,9.33,4.95C132.74,185.9,129.82,189.56,123.16,191Zm-18.66,25.58a14.46,14.46,0,0,1,1.54-.73,2.09,2.09,0,0,0,1.56-2.41c-.1-5.31,0-10.63,0-15.94,0-.43,0-.86,0-1.48-1.91.85-3.6,1.56-5.25,2.36a1.45,1.45,0,0,0-.71.94,43.68,43.68,0,0,0-.88,7.54A17.2,17.2,0,0,0,104.49,216.55Z"/><path class="cls-2" d="M78.84,137.08V115a10.58,10.58,0,0,1-7.08-3l-2.42,2.6-.41-.37,8.21-9.38c3.86,3.42,8.33,3.56,10.27-1.32a16.59,16.59,0,0,1,.46,2.32,8.6,8.6,0,0,1-7.17,8.94c-1,.2-1.26.52-1.25,1.53q.06,18.34,0,36.67c0,.66-.17,1.74-.56,1.89-.94.37-1.29-.62-1.67-1.3L57.52,117.7a5.76,5.76,0,0,0-1.14-1.59v27A15.18,15.18,0,0,1,65,147.81l2.39-2.28.22.2-8.24,9.15a6.09,6.09,0,0,0-1-1A17.3,17.3,0,0,0,54.41,152a3.63,3.63,0,0,0-2.35,6.85,20.13,20.13,0,0,0,2.06.85c-4,1.16-8.81-2.39-9.17-6.69-.44-5.19,3.29-9.28,8.91-9.8l1.85-.17c0-2.3,0-4.5,0-6.71,0-1.3,0-2.6,0-3.89s-.22-1.58-1.51-1.41c-1.05.14-2.27.36-2.53,1.5a8.58,8.58,0,0,0,.4,2.88,4.93,4.93,0,0,1-2.83-1.64c-3.34-4-1.57-9.25,3.47-10.41.37-.08.74-.16,1.11-.21,1.89-.27,1.89-.27,1.89-2.12,0-1.67-.07-3.35,0-5a4.75,4.75,0,0,0-2.21-4.12,2.45,2.45,0,0,0-4,.9,18.55,18.55,0,0,0-.72,1.76c-1.09-2.78.34-7,3-8.94a7,7,0,0,1,8.81.43,12.91,12.91,0,0,1,2.63,3.32c5,8.92,9.88,17.87,14.8,26.82.18.32.37.63.56.95Z"/><path class="cls-2" d="M138.64,126.77l7-6.38,6.31,5.2,2.58-2.12.26.27a5,5,0,0,1-.53.66c-1.4,1.25-2.87,2.45-4.21,3.76a2.82,2.82,0,0,0-.82,1.77c-.06,4.9-.06,9.8,0,14.69a1.7,1.7,0,0,1-.93,1.7c-4.58,2.78-9.12,5.61-13.73,8.45l-7.47-5.89-7.41,5.85-5-4.15c-1.8-1.5-1.8-1.5-3.76-.09-.3.22-.62.42-.95.6,0,0-.14-.06-.48-.22a25.23,25.23,0,0,1,2.05-1.56,2.07,2.07,0,0,0,1.08-2q-.09-7.16,0-14.32a6.58,6.58,0,0,0-2.61-5.69,7.14,7.14,0,0,1-3.07-6.37c.15-3.45,4.73-7.19,7.62-6.75-.16.19-.28.34-.42.48-2,2.1-2,4,.22,5.9,1,.89,2.23,1.62,3.37,2.41a6.11,6.11,0,0,1,2.84,5.52c-.1,5.11,0,10.21-.06,15.32a3.06,3.06,0,0,0,1.43,2.92c1.2.82,2.3,1.79,3.4,2.65a1.89,1.89,0,0,0,1.35-2.08c0-5.53-.06-11.05,0-16.58a3.14,3.14,0,0,0-1.29-2.9,18.37,18.37,0,0,1-1.45-1.3l6.89-6.09,6.15,5.43c-.09.19-.12.33-.2.39-1.88,1.44-2.23,3.35-2.13,5.63.17,4.1.09,8.2,0,12.3a2.76,2.76,0,0,0,1.22,2.52c1.24.93,2.38,2,3.61,2.93a6.08,6.08,0,0,0,1.35.6,4.56,4.56,0,0,0,.59-1.48c0-4.44,0-8.87,0-13.31,0-.5,0-1,0-1.51C141.42,131.2,142.13,128.25,138.64,126.77Z"/><path class="cls-2" d="M163.79,200.73a2.48,2.48,0,0,0-1.65,2.71c.09,4.94.08,9.88,0,14.82a3.41,3.41,0,0,0,1.26,3.06,10.55,10.55,0,0,1,1.21,1.28l-6,6.38-6.29-7.1c2.44-1,2-3,2-4.83,0-3.64,0-7.28,0-10.93a2.94,2.94,0,0,0-.62-1.66c-1-1.21-2-2.33-3.18-3.61l-2.61,2.18-.35-.41,8.41-7.38,5.86,6.15,7.92-6.16,5.78,6.24,8.2-6.49,5.75,6.43,3.05-2.26.29.36a4.64,4.64,0,0,1-.89.79c-1.8.92-2.22,2.35-2.14,4.31.16,4.22.09,8.46,0,12.68a3.49,3.49,0,0,0,1.1,2.9c.71.64,1.31,1.4,2,2.18l2.14-1.85c0,.87-5.19,6-8.22,8.22l-3.1-3.36-3.25-3.52c1.84-1,1.57-2.62,1.56-4.21,0-3.68,0-7.37,0-11.05a3.27,3.27,0,0,0-.72-1.87c-1.16-1.42-2.44-2.74-3.64-4.05a2.68,2.68,0,0,0-1.75,2.92q.16,7.34.07,14.69a3.77,3.77,0,0,0,1.36,3.28,7.5,7.5,0,0,1,.77.82l-6.13,6.14-5.66-6.36c2.14-1,1.72-2.91,1.73-4.64,0-3.64,0-7.28,0-10.93a2.38,2.38,0,0,0-.36-1.39C166.41,203.71,165.09,202.25,163.79,200.73Z"/><path class="cls-2" d="M171.67,50l6.22,6.9,2.75-2,.28.37a16.69,16.69,0,0,1-1.74,1.4,2.12,2.12,0,0,0-1,2.09q0,10-.14,20.09c-.1,8.11-6.62,13.66-14.64,12.51a1.92,1.92,0,0,1-.37-.15,23.79,23.79,0,0,0,2.89-1.5,9,9,0,0,0,3.86-6.63,52,52,0,0,0,.38-5.25q.07-8.29,0-16.58a3.35,3.35,0,0,0-.61-1.81c-1-1.36-2.07-2.63-3.16-4-1.55,1.08-2.82,2-2.7,4.32.24,4.59.2,9.21,0,13.81A4.48,4.48,0,0,0,166,77.91l2.09-1.5.3.41-9,7.16c-1.54-1.42-3.1-2.75-4.52-4.21-.86-.88-1.55-1.11-2.45-.15a3.53,3.53,0,0,1-.81.49l-.23-.24a6.19,6.19,0,0,1,.62-.67c1.17-.94,2.8-1.64,3.39-2.85s.16-3,.16-4.46c0-9,0-18.09,0-27.13,0-1.5-.23-2.76-2-3.41l10.06-7.78V56.91Z"/><path class="cls-2" d="M207.3,147.68c-.79.6-1.51,1.15-2.24,1.7,0,0-.14-.06-.44-.19a15.49,15.49,0,0,1,1.42-1.32,2.2,2.2,0,0,0,.95-2c0-5.65,0-11.3,0-16.95a1.63,1.63,0,0,1,1-1.73c3.93-2,7.82-4.17,11.7-6.31a1.16,1.16,0,0,1,1.62.15c2.33,2.1,4.73,4.13,7.1,6.18.31.27.64.52,1,.82l2.42-2.15.31.28a6,6,0,0,1-.91,1,3.45,3.45,0,0,0-1.42,3.21c.08,5,0,10,0,15.06A1.54,1.54,0,0,1,229,147q-6.36,3.53-12.66,7.18a1.1,1.1,0,0,1-1.51-.22C212.31,151.88,209.81,149.8,207.3,147.68Zm7.87-23a2.62,2.62,0,0,0-.18.54q0,9.09,0,18.17a1.17,1.17,0,0,0,.27.79c2.13,2,4.28,3.92,6.49,5.95a2.36,2.36,0,0,0,.17-.5q0-9,0-18a1.49,1.49,0,0,0-.39-1C219.45,128.67,217.37,126.76,215.16,124.71Z"/><path class="cls-2" d="M228.1,231.47a6.48,6.48,0,0,1-4.81-10.18,46.52,46.52,0,0,1,3.68-4.43,14.81,14.81,0,0,1,1.53-1.32c-1.54-1.42-2.87-2.72-4.28-3.93a2.24,2.24,0,0,1-.84-1.95c.05-2.22,0-4.43,0-6.65a1.63,1.63,0,0,1,.59-1.2c3.91-2.34,7.85-4.61,11.9-7,1.26,1,2.53,2.48,4.59,2.33s3.1-1.17,3.56-3.67a4.74,4.74,0,0,1,.44,3.66,17.45,17.45,0,0,1-3.67,6.92c-.33.43-.68.84-1.11,1.38,1.48,1.2,2.91,2.41,4.39,3.54a2.09,2.09,0,0,1,.94,1.88c-.05,3.14,0,6.27,0,9.41a1.77,1.77,0,0,1-.66,1.29c-3.83,2.39-7.7,4.71-11.63,7.09a29,29,0,0,0-2.28-1.79,3.28,3.28,0,0,0-3.66-.29,2,2,0,0,0-.49,3.44A19.42,19.42,0,0,0,228.1,231.47Zm6.3-20.95c-3.54,3.59-7.56,6.6-10.27,10.85,5.79-4.26,8.16-3.82,13.51,2.66,0-3.56,0-7,0-10.36a1,1,0,0,0-.33-.63C236.39,212.22,235.44,211.42,234.41,210.53Zm-.58-.39c3.17-2.29,7.56-7.13,8.13-8.93-4.26,3.08-6.06,2.74-11.08-2.17,0,2.82,0,5.52,0,8.21a1,1,0,0,0,.35.62C232.07,208.64,232.93,209.36,233.83,210.14Z"/><path class="cls-2" d="M257.16,110.47,267.77,103c0,1.7,0,3.1,0,4.5,0,11.93,0,23.85,0,35.78a4.26,4.26,0,0,0,1.51,3.73,12.54,12.54,0,0,1,1.23,1.32l2.25-1.75.32.4-8.62,7.52-5.77-5.4-2.43,1.92-.3-.35a11.47,11.47,0,0,1,1.55-1.41c2.05-1.29,2.57-3.08,2.53-5.48-.15-9.29-.06-18.58-.06-27.87a14.26,14.26,0,0,0-.1-1.75C259.63,112.55,259.17,111.06,257.16,110.47Z"/><path class="cls-2" d="M185.29,77.24l-2.65,2-.28-.35A16.5,16.5,0,0,1,184,77.46a2.08,2.08,0,0,0,1-2c0-5.27,0-10.54,0-15.82A1.76,1.76,0,0,1,186,57.83c4-2.22,8-4.53,12-6.82l1.1-.65,6.45,11.18c-1,.77-2,1.53-3,2.26l-8.8,6.46a2.13,2.13,0,0,0-.23,3.39c1.85,1.75,3.72,3.48,5.64,5.27l7.66-6,.34.45-13.89,11Zm7.86-22.07-.21.06V70.07l6.26-4.59Z"/><path class="cls-2" d="M206.93,229l-8-7.2-2.56,2-.27-.25c.24-.29.43-.67.74-.84,1.48-.85,1.83-2.08,1.79-3.75-.12-4.93-.06-9.87,0-14.81a1.89,1.89,0,0,1,.63-1.42c4.45-2.57,8.95-5.06,13.58-7.65l6.39,11.07-1.4,1.05-10.32,7.57a2.19,2.19,0,0,0-.17,3.65c1.56,1.46,3.15,2.88,4.65,4.39a1,1,0,0,0,1.66.08c1.94-1.59,3.94-3.11,5.92-4.65.3-.24.63-.45.94-.67l.31.42Zm-.3-29.57v15.2l6.26-4.58Z"/><path class="cls-2" d="M83.5,149a18.16,18.16,0,0,1,1.69-1.41,2,2,0,0,0,.9-1.9q0-8,0-16.07a1.84,1.84,0,0,1,.71-1.37c4.42-2.54,8.89-5,13.48-7.58l6.35,11c-.31.26-.58.51-.87.73l-10.92,8a2.14,2.14,0,0,0-.23,3.39c1.85,1.75,3.71,3.48,5.63,5.29l7.68-6,.35.45-13.9,11-8-7.18-2.63,1.95ZM94.27,125.3l-.19.08v14.88l6.28-4.6Z"/><path class="cls-2" d="M243.86,154.52l-6.62-6-2.46,2.17-.31-.29a4,4,0,0,1,.77-.89c2.38-1.49,3-3.59,2.85-6.35-.24-3.67-.11-7.36,0-11a4.52,4.52,0,0,0-1.15-3.43c-.56-.61-1-1.31-1.59-2.05l-2.45,2-.33-.39,8.49-7.67,4.7,5.62,5.35-5.25c2.11,1.65,4.29,2.25,6.39-.09.82,2.27-.77,6.06-3.19,7.75s-4.62,1.33-8-1.49c0,.44-.08.79-.08,1.13,0,5.52,0,11,0,16.57a2.35,2.35,0,0,0,1,2.15c.8.59,1.52,1.3,2.36,2l2.8-2.21.33.4C249.76,149.67,246.79,152,243.86,154.52Z"/><path class="cls-2" d="M286.82,148.14l2.74-2.27.35.4-9.25,8.12c-.24-.31-.46-.54-.62-.8-3.8-6.06-7.59-12.13-11.41-18.18a1.52,1.52,0,0,1,0-2c3.05-4.35,6-8.74,8.89-12.88a27.73,27.73,0,0,0,4.82,1.77c1.78.31,3.23-.88,4.79-2.2-.67,3.43-1.56,6.42-4.54,8.12-3.14,1.78-6,.42-9-1.49,0,.67-.17,1.2,0,1.49C278,134.84,282.37,141.42,286.82,148.14Z"/><path class="cls-2" d="M132.87,200.76l-2.27,1.79-.33-.4,8-7,5.85,6.79,2.72-2.18.31.34a12.8,12.8,0,0,1-1.43,1.33,3,3,0,0,0-1.35,2.85c.08,4.64.06,9.29,0,13.94a2.89,2.89,0,0,0,.85,2.23c.84.86,1.6,1.8,2.43,2.76l2.4-2,.34.4-8.06,7.23-5.58-6.39-2.61,2.06-.29-.35a17.86,17.86,0,0,0,1.73-1.62,2.63,2.63,0,0,0,.68-1.48c0-5.15,0-10.3,0-15.44a2,2,0,0,0-.32-1.16C135,203.22,134,202,132.87,200.76Z"/><path class="cls-2" d="M137.53,193.38l-5-5.48,6.1-5.62,5,5.53Z"/><path class="cls-1" d="M185.42,143.59q0-4.07,0-8.15a2.91,2.91,0,0,1,3.16-3,2.74,2.74,0,0,1,2.88,3c0,4.43,0,8.86,0,13.29a4.66,4.66,0,0,1-5,4.84c-.73-.05-1-.29-1-1.06C185.45,149.52,185.43,146.55,185.42,143.59Z"/><path class="cls-1" d="M187.5,111.42c1.15,1,2.37,2,3.5,3.13a2,2,0,0,1,.43,1.33c0,3.09,0,6.18,0,9.28a2.28,2.28,0,0,1-1.9,2.63,3,3,0,0,1-4.14-2.93c0-3.26.08-6.52,0-9.78C185.33,113.4,185.65,112.13,187.5,111.42Z"/><path class="cls-1" d="M185.53,127.56a4.48,4.48,0,0,0,5.83,0v5.15a4.53,4.53,0,0,0-5.83.16Z"/><path class="cls-1" d="M124,72c-2.55-3.71-4.13-7.63-3.8-12.12a38.62,38.62,0,0,1,.9-5,1.54,1.54,0,0,1,.65-1c1.68-.82,3.4-1.55,5.26-2.37,0,.55.07.94.07,1.34,0,5.35-.05,10.7,0,16.05a2.1,2.1,0,0,1-1.56,2.41A15.58,15.58,0,0,0,124,72Z"/><path class="cls-1" d="M104.49,216.55a17.2,17.2,0,0,1-3.78-9.72,43.68,43.68,0,0,1,.88-7.54,1.45,1.45,0,0,1,.71-.94c1.65-.79,3.34-1.51,5.25-2.36,0,.61,0,1,0,1.48,0,5.31-.06,10.63,0,15.94a2.09,2.09,0,0,1-1.56,2.41A14.46,14.46,0,0,0,104.49,216.55Z"/><path class="cls-1" d="M215.16,124.71c2.2,2,4.29,4,6.34,5.91a1.49,1.49,0,0,1,.39,1q0,9,0,18a2.36,2.36,0,0,1-.17.5c-2.22-2-4.37-4-6.49-5.95a1.17,1.17,0,0,1-.27-.79q0-9.09,0-18.17A2.62,2.62,0,0,1,215.16,124.71Z"/><path class="cls-1" d="M234.41,210.53c1,.89,2,1.69,2.9,2.52a1,1,0,0,1,.33.63c0,3.4,0,6.8,0,10.36-5.35-6.49-7.73-6.92-13.51-2.66C226.85,217.12,230.87,214.12,234.41,210.53Z"/><path class="cls-1" d="M233.83,210.14c-.9-.77-1.76-1.5-2.59-2.25a1,1,0,0,1-.35-.62c0-2.7,0-5.39,0-8.21,5,4.91,6.83,5.25,11.08,2.17C241.39,203,237,207.85,233.83,210.14Z"/><path class="cls-1" d="M193.15,55.16l6.05,10.31-6.26,4.59V55.22Z"/><path class="cls-1" d="M206.63,199.45l6.26,10.62-6.26,4.58Z"/><path class="cls-1" d="M94.27,125.3l6.09,10.36-6.28,4.6V125.38Z"/></g></g></svg>