<svg xmlns="http://www.w3.org/2000/svg" viewBox="0 0 413.59 77.14"><title>pelvicpain-black</title><g id="Layer_2" data-name="Layer 2"><g id="Layer_1-2" data-name="Layer 1"><path d="M244.41,57H79.81a13.74,13.74,0,0,0-1.68,0c-2,.25-2.59-.63-2.61-2.59s.8-2.53,2.7-2.52q55.67.06,111.33,0,110.37,0,220.74,0c1.44,0,3.36-.7,3.29,2.08s0,3-3.14,3Z"/><path d="M0,18.16c1.45-.09,2.46-.21,3.47-.21q30.24,0,60.47,0c5,0,5,.11,2.63,4.32Q57.79,37.56,49,52.82C44.88,59.92,40.84,67,36.71,74.11a17.54,17.54,0,0,1-2.45,2.71,18.16,18.16,0,0,1-2.6-2.89C27,65.88,22.48,57.77,17.89,49.68,14,42.83,10.13,36,6.2,29.17,4.53,26.28,2.71,23.47,1,20.6A20.14,20.14,0,0,1,0,18.16ZM33.92,75l.63.15A11.79,11.79,0,0,0,35.4,73c.47-2.26.82-4.54,1.26-6.81C37.91,59.83,39.28,53.45,40.4,47a11.54,11.54,0,0,1,3.81-7.15C51.15,33.78,58,27.56,64.84,21.38a17.36,17.36,0,0,0,1.43-1.65l-.35-.52c-1.6.59-3.19,1.25-4.82,1.77-7.1,2.25-14.17,4.59-21.33,6.6-2.76.78-6,1.64-8.58,1C24.69,27,18.4,24.48,12,22.37c-3-1-6-2-9-2.93l-.37.67c1.24,1.06,2.5,2.1,3.7,3.19Q16,32.05,25.52,40.86a6.27,6.27,0,0,1,1.85,2.68c.84,3.07,1.5,6.2,2.11,9.33,1.11,5.78,2.1,11.58,3.2,17.36C33,71.82,33.5,73.38,33.92,75Z"/><path d="M396.65,44.91h-5.38V18.43h6.23l9.11,15.85.56-.15V18.42H412c0,8.78-.74,17.48.47,26.38h-6c-2.21-6.29-6.25-11.35-9.2-17l-.59.15Z"/><path d="M125.25,33.21c-2.35,0-4.47,0-6.6,0-1.4,0-1.94.65-2,2-.39,5.46-.37,5.52,5.05,5.52h8.5V45.1H111.34V18.22h10.22c1.68,0,3.36,0,5,0,3.51-.08,4.14.92,2.87,4.28-3.41,0-6.75,0-10.08,0-2.56,0-2.68.46-2.81,3.81-.08,2.21.86,2.84,2.84,2.68,1-.08,1.92,0,2.88,0s1.86-.27,3-.45Z"/><path d="M303.23,44.9h-6V18c5.08.28,10.18.29,15.19.94,3.38.44,5.49,4.31,5.13,8.12A7.75,7.75,0,0,1,310.76,34,53.23,53.23,0,0,1,305,34c-1.58,0-2.42.46-2.31,2.19.09,1.43,0,2.88,0,4.32S303,43.18,303.23,44.9ZM306.46,30a18.32,18.32,0,0,0,3.48-.62,3.31,3.31,0,0,0,2.44-3.65,3.07,3.07,0,0,0-2.95-2.91,31.13,31.13,0,0,0-5-.19,2.12,2.12,0,0,0-1.52.93A4.19,4.19,0,0,0,306.46,30Z"/><path d="M344.81,44.81c1.07-2.55.39-5.27-1.41-6.06-2.19-1-5.09-.61-7.64-.34-1.28.14-2,4-1.48,6.46h-6c2.68-7.69,5.34-15.28,8-22.89.4-1.15.25-3.13.92-3.42,1.37-.58,3.12-.37,4.7-.28a2,2,0,0,1,1.5,1.07c2.41,7.39,4.71,14.81,7.09,22.2a26,26,0,0,0,1.6,3.25Zm-8.13-10.66c1.74,0,2.83,0,3.92,0,1.7.07,2.15-.71,1.6-2.23L340,26l-.69-.09Z"/><path d="M81.61,44.92H76.31v-27c5.2.32,10.44.35,15.58,1.07,3.19.45,5,4.48,4.48,8.5A7.45,7.45,0,0,1,89.49,34c-1.91.12-3.83.1-5.75,0-1.5,0-2.2.47-2.16,2.06C81.66,38.93,81.61,41.75,81.61,44.92Zm3.91-15a18.24,18.24,0,0,0,3.08-.34c2.82-.79,3.79-3.79,1.95-5.76-1.21-1.29-6.78-1.89-8.2-.86a1.91,1.91,0,0,0-.61.71C80.23,27,82,29.84,85.52,29.9Z"/><path d="M194,18.35h6.14c-1.32,3.52-2.63,6.88-3.85,10.27-1.53,4.27-3.05,8.54-4.44,12.85a12.29,12.29,0,0,0,0,3.38h-6.47c-.78-2.84-1.38-5.55-2.28-8.16-1.72-5-3.6-10-5.43-15-.4-1.1-.91-2.16-1.43-3.39h6.13c1.83,5.71,3.58,11.2,5.37,16.68.1.31.65.77.77.71a1.79,1.79,0,0,0,.9-.9c1.57-4.66,3.12-9.33,4.59-14A9,9,0,0,0,194,18.35Z"/><path d="M260.09,21.73l-4,4.77c-1.81-3.34-4.13-4.7-7-4.25-2.65.41-5,3.17-5.72,6.36a12.64,12.64,0,0,0,1,8.84,6.18,6.18,0,0,0,6.1,3.43,5.5,5.5,0,0,0,5.5-4l4,4.44c-5.71,5-12.42,5.25-17,1.93-5-3.57-6.61-14.35-2.57-20.33,2.28-3.39,5.4-5.48,9.43-4.93,3.52.47,6.91,1.84,10.36,2.82Z"/><path d="M147.35,18.38h5.3c0,6.74,0,13.34,0,19.94,0,1.71.64,2.49,2.41,2.46,3.41-.06,6.81,0,10.55,0V45H147.35Z"/><path d="M221.82,44.89h-5.6V18.44h5.54C221.7,27.24,221.61,35.86,221.82,44.89Z"/><path d="M372.95,44.87h-5.68V18.4h5.68Z"/><path d="M87,66a7.34,7.34,0,0,1-2.27-.2c-3.33-1.42-5.13-1-6.94,2.06,1.14.4,2.18.85,3.26,1.11,1.61.39,3.41.34,4.84,1.05A4.17,4.17,0,0,1,88,73a4.32,4.32,0,0,1-2.13,3.26,11.43,11.43,0,0,1-9.7-.52c-.39-.2-.47-1-.69-1.52.71,0,1.57-.34,2.1-.05,2.07,1.1,4.17,1.65,6.4.77.63-.25,1.45-1,1.49-1.53a2.19,2.19,0,0,0-1.27-1.68A22.71,22.71,0,0,0,79.78,71c-2.8-.26-4.16-1.25-4.27-3.26s1.22-3.63,3.87-4A10.63,10.63,0,0,1,86.95,65Z"/><path d="M137.84,77a6.57,6.57,0,0,1-7.43-6.54c0-4,3.09-6.88,7.51-6.92s7.47,2.73,7.46,6.86S142.7,77,137.84,77ZM138,65c-2.59,0-5.43,2.61-5.43,5.09a5.35,5.35,0,0,0,5.35,5.29,5.23,5.23,0,0,0,5.4-5.19C143.35,67.7,140.67,65.09,138,65Z"/><path d="M292.39,70.53a43.43,43.43,0,0,1,.07-5c.07-.61.88-1.58,1.4-1.61,2.7-.17,5.42-.11,8.14,0,.42,0,.83.49,1.24.75-.45.28-.89.79-1.35.81-1.67.08-3.35,0-5,0-1.38,0-2.48.75-2.08,2.22.18.66,1.3,1.18,2.1,1.53a30.6,30.6,0,0,0,3.44,1.06,21.23,21.23,0,0,1-3.44.78c-1.38.09-2.27.31-2.25,2s.77,2.09,2.22,2.06c1.76,0,3.52-.08,5.26,0,.56,0,1.08.59,1.61.9-.48.3-1,.85-1.44.86-2.79.08-5.59.12-8.38,0a2.2,2.2,0,0,1-1.46-1.52A36.68,36.68,0,0,1,292.39,70.53Z"/><path d="M202.12,74.53c-3.22,2.7-8.09,3.38-11,1.53-2.56-1.61-3.46-4.09-2.72-7.48a5.94,5.94,0,0,1,5.47-4.81,30.54,30.54,0,0,1,5.22.21,3.29,3.29,0,0,1,1.87.91c.34.34.27,1.08.39,1.64-.5,0-1.08.24-1.5.06-1.93-.82-3.63-2.23-6-1-3.07,1.51-4.27,3.69-3.27,6.7.7,2.11,4,3.72,6.6,3,1-.26,1.8-1,2.75-1.33a9.08,9.08,0,0,1,2.21-.21Z"/><path d="M391,11c-1.54-.68-3.07-1.88-4.61-1.9s-2.94,1.2-4.91,2.1c1.18-3.6,2.06-6.55,3.14-9.42A2.69,2.69,0,0,1,386.46.27a2.49,2.49,0,0,1,1.86,1.36c1.21,2.9,2.23,5.88,3.31,8.83Z"/><path d="M289,11c-1.53-.67-3.06-1.84-4.6-1.86-1.39,0-2.8,1.22-4.2,1.9l-.43-.5c1-3.06,2-6.16,3.16-9.17.56-1.43,2.51-1.71,3.06-.45,1.38,3.14,2.44,6.41,3.62,9.63Z"/><path d="M263.94,6.18c1.37-2-.59-4.62,2.43-6.16.13,1.77.28,3.21.33,4.64a37.4,37.4,0,0,1,0,4.55c-.05.59-.5,1.52-.92,1.62A2.12,2.12,0,0,1,264,10C262.92,8.37,262,6.66,261,5l-.62.09L259.58,11c-.59-.2-1-.27-1-.35a86,86,0,0,1-.17-9.45c.1-1.35,1.4-1.36,2.21-.14C261.71,2.66,262.74,4.32,263.94,6.18Z"/><path d="M173.69,5c0,1.48.07,3,0,4.43,0,.51-.53,1-.82,1.49-.38-.5-1.05-1-1.08-1.52-.11-2.47-.11-4.95,0-7.41a2.25,2.25,0,0,1,1.11-1.6c.33-.16,1.23.35,1.54.79a36.43,36.43,0,0,0,4,5.12,38,38,0,0,1,0-4.07,6.53,6.53,0,0,1,.92-1.93c.36.6,1,1.19,1,1.82.12,2.39.09,4.79,0,7.18a2.75,2.75,0,0,1-.64,1.55,3.34,3.34,0,0,1-2-.81,38.55,38.55,0,0,1-2.25-3.63,19.7,19.7,0,0,0-1.22-1.57Z"/><path d="M366.66,5.91l.8-5.53.75-.09A5.66,5.66,0,0,1,368.9,2c.08,2.39.1,4.79,0,7.19,0,.58-.63,1.13-1,1.7-.56-.35-1.29-.58-1.65-1.07-1.14-1.61-2.14-3.31-3.19-5l-.78,0a35.21,35.21,0,0,1-.05,4.22c-.07.62-.72,1.17-1.11,1.74a5.29,5.29,0,0,1-.8-1.76c-.09-2.31-.11-4.64,0-6.95,0-.66.61-1.29.94-1.94a6.42,6.42,0,0,1,1.88,1.22c1.06,1.45,1.93,3,2.87,4.55Z"/><path d="M236.28,10.79c0-3.2,0-6.39,0-9.59,0-.14.11-.41.2-.42,1.84-.2,3.76-.73,5.51-.41.95.18,2.1,1.75,2.3,2.85A23.58,23.58,0,0,1,244.21,9a6.53,6.53,0,0,1-.71,1.81c-.39-.57-1.06-1.12-1.1-1.72A2.16,2.16,0,0,0,240,6.79c-1.62-.06-2,.85-2.1,2.25a8.34,8.34,0,0,1-.52,1.85Zm3.93-5.26,2.11-2.24A8.42,8.42,0,0,0,240.13,2c-1.07-.24-2.3,0-2,1.5C238.23,4.17,239.23,4.64,240.22,5.53Z"/><path d="M221.7,5.93a13.8,13.8,0,0,0-3.13.35,7.48,7.48,0,0,0-2,1.56,6.88,6.88,0,0,0,1.9,1.28c.9.24,1.92,0,2.85.16.41.07.73.63,1.1,1-.35.25-.7.69-1.07.71a31.38,31.38,0,0,1-5.25-.05,2.31,2.31,0,0,1-1.49-1.63,49.12,49.12,0,0,1,0-7.16A2.45,2.45,0,0,1,216.07.29a26,26,0,0,1,5.24-.06c.37,0,.71.66,1.06,1-.36.24-.71.63-1.09.68-.86.11-1.78-.09-2.62.1a8.59,8.59,0,0,0-2,1.07,9.88,9.88,0,0,0,2,1.27,19.55,19.55,0,0,0,3,.52Z"/><path d="M342.22,11.1c-3.43,0-5.23-1.92-5.23-5.6,0-3.42,1.94-5.5,5.12-5.51a5.09,5.09,0,0,1,5.18,5.57C347,9.31,345.73,11.11,342.22,11.1Zm-.08-1.79a3.32,3.32,0,0,0,3.2-3.66C345.28,3.27,344,1.8,342,1.88a3.45,3.45,0,0,0-3.07,3.81C339,8,340.24,9.37,342.14,9.31Z"/><path d="M127,2c-1.38,0-2.76-.08-4.13,0-.49,0-.93.59-1.4.9.43.47.78,1.22,1.29,1.36a26.31,26.31,0,0,0,3.73.5l0,1.06c-1,.12-2,.29-3,.34s-2.13,0-2.12,1.56,1.2,1.39,2.2,1.43a19.13,19.13,0,0,1,2.62.09c.42.08.74.63,1.11,1-.35.25-.69.7-1.06.71a45,45,0,0,1-5.49,0,1.86,1.86,0,0,1-1.29-1.26c-.11-2.7-.06-5.42,0-8.12a1.65,1.65,0,0,1,.47-1c.92-.88,6-.34,7.05.71Z"/><path d="M98.46.19a5.22,5.22,0,0,1,.77,1.75c0,1.5.63,2.14,2.18,2.11s2.23-.4,2.28-2c0-.6.63-1.18,1-1.77l.86.19c0,3.2,0,6.4,0,9.6,0,.27-.54.78-.71.73a1.62,1.62,0,0,1-1-.77,3.91,3.91,0,0,1-.13-1.65C103.73,6.8,103.2,6,101.47,6s-2.29.71-2.2,2.3a5.57,5.57,0,0,1-.19,1.88,1.12,1.12,0,0,1-.87.6c-.28,0-.8-.41-.8-.64-.05-3.27,0-6.54,0-9.81Z"/><path d="M412.26,64.3a24.68,24.68,0,0,1-2.11,3.23c-1.95,2.16-3.25,4.47-2.83,7.52.23,1.71-.67,2.11-2.55,1.44,1.88-5.37-2.84-8.21-5.11-12.19,1.53-.73,2.2-.41,3.09.84,3.89,5.42,3.34,5,6.4,0C410,63.82,410.71,63.6,412.26,64.3Z"/><path d="M358.1,64.84a17.88,17.88,0,0,1-2.71.52,2.35,2.35,0,0,0-2.59,2.71c0,2.78,0,5.56,0,8.64l-2.1.1c0-3,0-5.65,0-8.35s-.44-3.09-3.26-3.07a5.83,5.83,0,0,1-1.87-.68c.61-.3,1.22-.84,1.84-.86,3-.09,5.91-.06,8.86,0a10.71,10.71,0,0,1,1.74.3Z"/><path d="M300,1.27c2.44-1.91,4.85-.89,7-1.08.5,0,1.06.62,1.68,1.34-3.46-.12-3.17,2-3.1,4.07a24.07,24.07,0,0,1-.05,3.82c-.07.54-.68,1-1,1.52-.35-.52-.92-1-1-1.58a26.94,26.94,0,0,1-.06-3.58C303.43,2.53,303.43,2.53,300,1.27Z"/><path d="M201.62,1.79c-3.25-.29-3.19,1.63-3.07,3.67a30.73,30.73,0,0,1-.05,4.3c0,.41-.58.78-.89,1.17-.39-.39-1.09-.76-1.12-1.18-.14-1.82-.12-3.66-.09-5.49,0-1.34-.14-2.39-1.87-2.34a1.5,1.5,0,0,1-1-.74c-.09-.14.36-.88.56-.87,2.36,0,4.72.1,7.07.23C201.25.54,201.35,1.06,201.62,1.79Z"/><path d="M79.66,10.92a11.86,11.86,0,0,1-.59-2A26.72,26.72,0,0,1,79,6c0-3.44,0-3.44-3-4.5C77-.34,82.18-.52,84,1.23c-.06.14-.12.4-.19.4-2.72.15-3,1.92-2.86,4.11a50.63,50.63,0,0,1-.22,5.07Z"/><path d="M245.91,76.42c0-3.74,0-7.48,0-11.21,0-.45.71-1.29.92-1.24.56.14,1.44.64,1.45,1,.12,3.59.14,7.18,0,10.77,0,.46-1.16.88-1.79,1.31Z"/><path d="M406.55.53c0,1.87.13,3.76,0,5.61-.21,2.35.76,3.22,3,2.93a2.25,2.25,0,0,1,1.18.07c.37.17.87.58.86.87a1.23,1.23,0,0,1-.83.89,35.18,35.18,0,0,1-5,0c-.4,0-1-.83-1-1.3-.1-2.54-.1-5.09,0-7.64,0-.56.57-1.11.87-1.66Z"/><path d="M323.45,5.75c0,1.36.07,2.72,0,4.07,0,.39-.62.72-1,1.08-.32-.37-.91-.74-.92-1.12q-.11-4.19,0-8.38c0-.39.62-.76.95-1.13.32.39.88.76.91,1.18C323.52,2.87,323.45,4.32,323.45,5.75Z"/><path d="M157.22.28c.33.39.94.77,1,1.17q.15,4.17,0,8.34c0,.36-.63.75-1,1-.08.05-.73-.45-.74-.7-.05-3.21,0-6.41,0-9.62Z"/></g></g></svg>