<svg xmlns="http://www.w3.org/2000/svg" viewBox="0 0 325.35 134.37"><title>people-black</title><g id="Layer_2" data-name="Layer 2"><g id="Layer_1-2" data-name="Layer 1"><path d="M53.87,0c1.74.26,3.49.46,5.21.81A30.76,30.76,0,0,1,71.93,6.42a25.37,25.37,0,0,1,7.47,9.88,39.17,39.17,0,0,1,3.26,11.95c0,.15.06.31.09.48,1.62-.78,3.17-1.61,4.78-2.29,7.8-3.28,15.68-3.63,23.56-.39A27.39,27.39,0,0,1,124.41,38c.76,1.3,1.37,2.69,2.11,4.17,4.4-9.19,11-15.78,21.27-17.69,9.91-1.85,19,0,26.69,7.45,0-.54.06-.82.06-1.1,0-1.46,0-2.93,0-4.39,0-.65.2-.92.89-.92q15.33,0,30.66,0c.62,0,.9.22.87.86,0,.47,0,1,0,1.64.43-.26.68-.39.91-.55a17.28,17.28,0,0,1,19.43-1.31,25.51,25.51,0,0,1,10.36,10.71c0,.09.11.18.27.42,0-.37.07-.59.07-.81,0-3.47,0-6.94,0-10.41,0-2.83-1.26-4.34-4-4.81a21.17,21.17,0,0,0-3.15-.24c-.69,0-1-.23-1-.94q0-9.51,0-19c0-.67.25-.91.91-.9,2.49,0,5,0,7.48,0h27c1.25,0,1.26,0,1.26,1.27q0,17.44,0,34.89c0,.32,0,.64,0,1.22l1.39-1.82a29,29,0,0,1,20.63-11.64,31.66,31.66,0,0,1,18,3A29.53,29.53,0,0,1,318,37.63a46.56,46.56,0,0,1,6.85,20.05,94.94,94.94,0,0,1,.43,13c0,1.51-.21,3-.3,4.54,0,.5-.25.75-.75.75H289.69c-1.45,0-1.51,0-1.42,1.49.14,2.59.14,5.21,1.26,7.65,0,0,0,.1.06.15.62,1.17,1.26,2.33,2.8,2.41a2.87,2.87,0,0,0,2.86-2.13,20.64,20.64,0,0,0,1.24-4.59c.27-1.86.14-1.88,2-1.88h24.88c1.3,0,1.34.1,1.21,1.41a48.18,48.18,0,0,1-1.73,9.33,30.77,30.77,0,0,1-8.29,13.86,30.32,30.32,0,0,1-16.1,7.74,30.8,30.8,0,0,1-20.17-3.14,28.5,28.5,0,0,1-6-4.34l-.62-.56c0,.41-.06.68-.06,1,0,1.68,0,3.36,0,5,0,.69-.21,1-.93,1q-18.13,0-36.27,0c-.66,0-.93-.23-.91-.9,0-1.29,0-2.58-.07-3.93-3,4.39-7.18,6.33-12.37,6.47s-9.58-1.18-13.39-5.1c.08.59.1.94.17,1.29a7,7,0,0,0,6.88,6c.7,0,.94.27.94,1q0,9.15,0,18.3c0,.94-.5,1-1.18,1H176.17c-1,0-2,0-3,0-.61,0-.89-.19-.89-.84q0-9.27,0-18.54c0-.66.32-.77.89-.85a22.74,22.74,0,0,0,3.88-.77,4.45,4.45,0,0,0,3-3.66,18.71,18.71,0,0,0,.36-3.14c.05-2.44,0-4.88,0-7.32,0-.26,0-.51-.05-.93-.82,1.21-1.52,2.3-2.27,3.34a23.47,23.47,0,0,1-13.37,8.95,38.68,38.68,0,0,1-8.19,1.16,33,33,0,0,1-14.31-2.32,26.73,26.73,0,0,1-12.33-10c-1.12-1.65-2-3.46-3-5.2-.14-.25-.27-.51-.49-.92-.2.45-.33.74-.45,1a29.81,29.81,0,0,1-6.36,9.74,25.54,25.54,0,0,1-13.33,7,32.78,32.78,0,0,1-21.8-2.92A34.56,34.56,0,0,1,75,100.52c-4.72-5.11-6.63-11.39-7.64-18.05a76.07,76.07,0,0,1-.79-12.06c0-1.3.17-2.59.25-3.89,0-.24,0-.48,0-.8a5.48,5.48,0,0,0-.54.29,17.66,17.66,0,0,1-9.86,3.11c-4.47.15-8.94.12-13.41.17-1.16,0-1.17,0-1.17,1.19,0,2.82,0,5.64,0,8.46a18.88,18.88,0,0,0,.3,3.07,4.57,4.57,0,0,0,4.31,4.18,21.14,21.14,0,0,0,2.9.31c.79,0,.95.36.94,1,0,3.36,0,6.72,0,10.08,0,3.93,0,7.86,0,11.79,0,.78-.25,1-1,1q-24.15,0-48.3,0c-.73,0-1-.24-1-1q0-11,0-22c0-.74.24-1,1-1a23.38,23.38,0,0,0,3.54-.43,4.45,4.45,0,0,0,3.72-3.81,12.13,12.13,0,0,0,.24-2.18q0-25.09,0-50.17a9.85,9.85,0,0,0-.19-1.85A4.9,4.9,0,0,0,3.7,23.61,20.75,20.75,0,0,0,1,23.33c-.82,0-1-.42-1-1.13,0-3.93,0-7.86,0-11.79Q0,5.2,0,0ZM177.81,43.33l-.2,0a5.56,5.56,0,0,1-.28-.54,23,23,0,0,0-9.76-11.51c-4.86-2.95-10.09-4.65-15.84-4.14a25.78,25.78,0,0,0-18.55,10.18,36.57,36.57,0,0,0-6.58,14.38c-.07.29-.16.58-.26.94-.12-.14-.18-.17-.19-.22s-.07-.32-.1-.48a38.45,38.45,0,0,0-4-12.06,23.6,23.6,0,0,0-10.46-10.23,25.74,25.74,0,0,0-13.68-2.38A31.39,31.39,0,0,0,83.76,32c-1,.65-2,1.39-3.22,2.21-.12-1.1-.23-2.05-.34-3A47,47,0,0,0,77.54,19.4,22.79,22.79,0,0,0,70.06,9.07,29.16,29.16,0,0,0,52.27,3.28c-16-.07-32,0-48,0-1.13,0-1.15,0-1.15,1.12,0,4.83,0,9.65,0,14.48,0,.88.29,1.24,1.12,1.26a4.09,4.09,0,0,1,.48.05,7.43,7.43,0,0,1,5.81,4.08,11.09,11.09,0,0,1,1.21,5.25q0,25.37,0,50.75a21.62,21.62,0,0,1-.16,2.43c-.5,4.36-3,6.76-7.35,7.14-1,.09-1.1.19-1.1,1.19,0,4.88,0,9.76,0,14.64,0,.84.28,1.05,1.08,1.05q20.94,0,41.88,0c1.08,0,1.09,0,1.09-1.09q0-7.44,0-14.88c0-1.2,0-1.2-1.2-1.23a6.84,6.84,0,0,1-6.92-5.41,15,15,0,0,1-.46-3.61c-.05-4.45,0-8.89,0-13.34,0-1.24,0-1.22,1.29-1.25,5.06-.1,10.13-.13,15.19-.34a21,21,0,0,0,14-5.93c.51-.48,1.07-.92,1.78-1.53,0,.54-.07.83-.09,1.12-.24,2.59-.62,5.17-.69,7.76-.09,3.14,0,6.28.13,9.42a46.68,46.68,0,0,0,1.64,10.74c2.55,9.4,8.46,15.83,17.39,19.51a28.58,28.58,0,0,0,15.26,1.54,22.41,22.41,0,0,0,15.8-9.71,36.17,36.17,0,0,0,5.5-13.88c.06-.3.14-.59.21-.88a1.65,1.65,0,0,1,.43.76,38.51,38.51,0,0,0,7.5,14.74,25.75,25.75,0,0,0,10.74,7.65,30.52,30.52,0,0,0,14,1.48c10.13-1.1,17-6.69,21.36-15.68a43,43,0,0,0,3.32-10.35,3.7,3.7,0,0,1,.18-.51l.16,0v1q0,11.1,0,22.2c0,1.14-.05,2.27-.15,3.41a9.29,9.29,0,0,1-7.4,8.51c-.68.15-.71.5-.71,1,0,4,0,8,0,12,0,1,0,1,1.06,1h34.89c1.06,0,1.11,0,1.11-1.09,0-3.93,0-7.86,0-11.79a1.13,1.13,0,0,0-1-1.3,9.44,9.44,0,0,1-6.37-6.22,18.53,18.53,0,0,1-.79-5.53c-.1-1.65-.13-3.3-.16-5,0-1,0-2,0-3.16.18.2.23.24.25.28a18.16,18.16,0,0,0,9.83,10,13.06,13.06,0,0,0,7.75,1.19c4.66-.83,8-3.55,10.48-7.44A27.63,27.63,0,0,0,236,91.81c.15-.69.31-1.38.46-2.08l.2,0v.86q0,7.44,0,14.88c0,1.16,0,1.16,1.19,1.16h29.28c1.23,0,1.23,0,1.23-1.28q0-7.32,0-14.64V90a.91.91,0,0,1,.32.55c1.71,7.88,6.58,13,13.94,15.9a28.71,28.71,0,0,0,15.1,1.56,27.76,27.76,0,0,0,15.07-7.1c5.09-4.74,7.67-10.72,8.46-17.56.1-.82-.11-1-.91-1q-9.92,0-19.84,0c-.74,0-1,.24-1.18,1a12.62,12.62,0,0,1-2.15,5.22,5.64,5.64,0,0,1-8.12,1.21A8.37,8.37,0,0,1,286.56,86C285.06,82.11,285.2,78,285,74c-.06-1.22.11-1.32,1.36-1.32h34a6.63,6.63,0,0,1,.73,0c.75.08,1-.24,1-1,0-3.06.07-6.12,0-9.17a48.63,48.63,0,0,0-3-15.73,30.62,30.62,0,0,0-8.79-13.16,27,27,0,0,0-21.83-6.21c-7.8,1-13.71,5.2-18.06,11.67a42.74,42.74,0,0,0-6.16,15.72c-.35,1.71-.59,3.45-.87,5.18h-.14V59q0-27.16,0-54.32c0-1.23,0-1.24-1.21-1.24H234.09c-1.11,0-1.13,0-1.13,1.15q0,5.86,0,11.71c0,1.07,0,1,1.07,1.13a7.36,7.36,0,0,1,5.88,3,8.39,8.39,0,0,1,1.34,4.94q0,17,0,33.91c0,.26,0,.51,0,.91a2.42,2.42,0,0,1-.17-.34,5.36,5.36,0,0,1-.11-.56,60.68,60.68,0,0,0-4.81-17.41,29.32,29.32,0,0,0-8.19-11c-3-2.41-6.35-4-10.43-3.73a15.06,15.06,0,0,0-13.29,10.11c-.09.26-.2.51-.3.76l-.22-.06v-.87q0-3.66,0-7.32c0-1.08,0-1.11-1.08-1.11H178.92c-1.1,0-1.11,0-1.12,1.16q0,6.3,0,12.61Z"/><path d="M205.12,67.21c0-4.61,0-9.21,0-13.82a14.48,14.48,0,0,1,1.09-5.55,5.38,5.38,0,0,1,4.59-3.62,5.32,5.32,0,0,1,5.56,3.14,23,23,0,0,1,2.25,8.1A97.48,97.48,0,0,1,219.25,72a43.63,43.63,0,0,1-2,13.2,10.32,10.32,0,0,1-2.41,4.1,5,5,0,0,1-7.84-.79,10.62,10.62,0,0,1-1.69-5.62c-.16-5.22-.19-10.45-.27-15.68Zm3.28.61h0c0,3.74-.11,7.49,0,11.22a46.56,46.56,0,0,0,.94,6.4A1.72,1.72,0,0,0,210.75,87,2.14,2.14,0,0,0,213,86a10.92,10.92,0,0,0,1.17-2.31c1.79-5.19,1.65-10.62,1.77-16a73.42,73.42,0,0,0-.28-7.79,65.9,65.9,0,0,0-1-7.47,10.31,10.31,0,0,0-1.54-3.53,1.84,1.84,0,0,0-3.34.26,4.85,4.85,0,0,0-.62,1.58c-.29,2.19-.64,4.4-.72,6.6C208.31,60.83,208.4,64.32,208.4,67.82Z"/><path d="M146.88,68.08a51.5,51.5,0,0,1,1.46-15.62,16.16,16.16,0,0,1,2.41-5.38,4.68,4.68,0,0,1,7.85-.21,14.38,14.38,0,0,1,2.88,6.73c.54,3.14.93,6.31,1.19,9.49a71.31,71.31,0,0,1,.15,8,49.76,49.76,0,0,1-1.77,13.16,18.68,18.68,0,0,1-1.71,3.93c-2.28,3.88-6.59,4-8.94.16a17.57,17.57,0,0,1-2.17-5.3,75.26,75.26,0,0,1-1.31-9C146.73,72,146.88,70.05,146.88,68.08Zm12.88.16a61.79,61.79,0,0,0-1.34-13.42,13.82,13.82,0,0,0-2.21-5.46,1.61,1.61,0,0,0-2.84-.08,8.73,8.73,0,0,0-1.24,2.18,37.55,37.55,0,0,0-2.25,12.9c-.1,3.7.08,7.42.31,11.12a27.71,27.71,0,0,0,1.75,8.41,12.72,12.72,0,0,0,1.75,3,1.38,1.38,0,0,0,2.15,0,4.88,4.88,0,0,0,1.06-1.42,22.81,22.81,0,0,0,1.22-3.27A55.77,55.77,0,0,0,159.76,68.24Z"/><path d="M108.33,72.69h15.21c1.06,0,1,0,1.12,1.1.28,2.53.64,5,1,7.56.12.92.1,1-.85,1-5.69,0-11.38,0-17.08,0-.82,0-1.18.23-1.36,1.08a12.59,12.59,0,0,1-2.3,5.33,5.66,5.66,0,0,1-8.95,0,14.21,14.21,0,0,1-2.66-7.41c-.26-2.42-.28-4.86-.37-7.3,0-1.32,0-1.32,1.28-1.32Zm0,3.27H96.17c-.91,0-1,.15-.94,1.05.11,1.37.14,2.76.31,4.12.25,2.05.64,4.09,2.14,5.67a2.44,2.44,0,0,0,3.93-.23,11.41,11.41,0,0,0,2-6.41c.08-1.1.05-1.12,1.18-1.12,5,0,10,0,15,0,2.38,0,1.93.42,1.78-2.12,0-.77-.41-1-1.15-1C116.43,76,112.39,76,108.36,76Z"/><path d="M38.72,34.66q0-5.49,0-11c0-1,.06-1.08,1-1.07,1.92,0,3.85,0,5.76.11,3,.15,4.83,2,5.87,4.64A21.14,21.14,0,0,1,52.48,37a25,25,0,0,1-.9,5.18c-.93,3-3.1,4.5-6.28,4.55-1.87,0-3.74,0-5.61,0-.75,0-1-.26-1-1C38.74,42,38.72,38.34,38.72,34.66Zm3.27.09q0,.65,0,1.3,0,3.33,0,6.66c0,.43,0,.86.6.85,1.05,0,2.11,0,3.15-.14A2.85,2.85,0,0,0,48,41.86a6.88,6.88,0,0,0,.69-1.72A23.66,23.66,0,0,0,49,31.27,14.92,14.92,0,0,0,48,27.81a3.25,3.25,0,0,0-3.15-1.92c-.62,0-1.25,0-1.87,0s-1,.28-1,1C42,29.5,42,32.12,42,34.75Z"/><path d="M99.33,60.53c-2.17,0-4.33,0-6.5,0-.65,0-.93-.21-.94-.88-.08-3.9.24-7.74,2-11.31a7,7,0,0,1,2.77-3.21,5.41,5.41,0,0,1,7.5,2,15.58,15.58,0,0,1,1.56,3.55,31.18,31.18,0,0,1,1,9c0,.65-.25.91-.91.91C103.66,60.51,101.5,60.53,99.33,60.53Zm-.16-3.13c1.11,0,2.22,0,3.33,0,.59,0,.88-.22.81-.81-.19-1.58-.3-3.17-.62-4.72a5.67,5.67,0,0,0-1.78-3.13,2.27,2.27,0,0,0-3-.24,5.38,5.38,0,0,0-1.36,1.57,13.92,13.92,0,0,0-1.44,6.58c0,.54.31.75.84.74C97,57.38,98.09,57.39,99.17,57.39Z"/><path d="M292.39,60.53c-2.17,0-4.34,0-6.51,0-.53,0-.9-.11-.9-.75,0-3.7.15-7.39,1.78-10.81a8.21,8.21,0,0,1,1.9-2.69,5.74,5.74,0,0,1,9,1.77,16.7,16.7,0,0,1,2,6.74c.14,1.59.13,3.18.21,4.78,0,.82-.38,1-1.1,1C296.62,60.51,294.5,60.53,292.39,60.53Zm0-3.13c1.11,0,2.22,0,3.33,0,.55,0,.81-.21.77-.77-.05-.73-.08-1.46-.16-2.18a10.89,10.89,0,0,0-1.69-5,2.57,2.57,0,0,0-4.54,0,12.6,12.6,0,0,0-1.86,7.36c0,.51.31.63.74.63Z"/></g></g></svg>