<svg xmlns="http://www.w3.org/2000/svg" viewBox="0 0 239 87.22"><defs><style>.cls-1{fill:#fff;}</style></defs><title>PH-vert</title><g id="Layer_2" data-name="Layer 2"><g id="Layer_1-2" data-name="Layer 1"><path class="cls-1" d="M146.23,0h-4.34c-1.67,0-2.51,1.88-3.51,3.55l-7.72,12.32H117.29c1.21-1.92,2.42-3.88,3.55-5.64,2.42-3.84-.67-10.1-5.55-10.19-6.89-.13-20.58,0-27.56,0-2.8,0-3.72,2.71-2,5.51,3.38,5.76,11.86,19.5,26,42.8,1,1.63,1.92,2.42,2.84,2.42,1.09,0,2.17-1.46,2.84-2.42,4.38-6.18,19.25-30,27.1-42.84C147.61.44,148.19,0,146.23,0ZM92.91,5.91l20.37,0c1.8,0,2.17,1.13.92,3.34-1.5,2.63-9.77,15.49-9.77,15.49Zm34,15.87c-5.34,8.89-12.4,19.79-12.4,19.79s-2.09-3.55-6-9.9c-.75-1.21-.17-1.46.88-3.17.46-.75,2.09-3.38,4.18-6.72Z"/><path class="cls-1" d="M3.81,70.24H16.87a7,7,0,0,1,4,1.05,3.8,3.8,0,0,1,1.54,3.37,5.69,5.69,0,0,1-3.61,5.55,8.88,8.88,0,0,1-3.65.69H5.35L4,86.66H0Zm11.64,7.58a3.84,3.84,0,0,0,1.5-.32A2.66,2.66,0,0,0,18,76.6a2.43,2.43,0,0,0,.41-1.42,1.63,1.63,0,0,0-.69-1.42A3,3,0,0,0,16,73.32h-9L6,77.86h9.41v0Z"/><path class="cls-1" d="M27.49,70.24h13a7.58,7.58,0,0,1,2.76.49,4.45,4.45,0,0,1,2,1.5,4.07,4.07,0,0,1,.77,2.55,5.64,5.64,0,0,1-1.3,3.81,6.85,6.85,0,0,1-3.57,2.11l2.72,6h-4.3L37,80.94H29L27.69,86.7h-4ZM39,77.82a3.73,3.73,0,0,0,1.54-.28,2.61,2.61,0,0,0,1.09-.89A2.47,2.47,0,0,0,42,75.18a1.59,1.59,0,0,0-.36-1.05,2,2,0,0,0-.89-.61,3.77,3.77,0,0,0-1.18-.2H30.77l-1,4.54H39v0Z"/><path class="cls-1" d="M53.88,86.37A9.22,9.22,0,0,1,50,83.94a6.18,6.18,0,0,1-1.5-4.3,8.27,8.27,0,0,1,1.82-5.39,11,11,0,0,1,4.7-3.37,15.74,15.74,0,0,1,6-1.14,13.62,13.62,0,0,1,4.74.85,9.39,9.39,0,0,1,3.81,2.59,6.41,6.41,0,0,1,1.5,4.26,8.39,8.39,0,0,1-1.78,5.39,10.83,10.83,0,0,1-4.58,3.28,16.09,16.09,0,0,1-5.88,1.09A17.8,17.8,0,0,1,53.88,86.37Zm8.88-3a7.19,7.19,0,0,0,3-2.11,5.19,5.19,0,0,0,1.18-3.41A4.2,4.2,0,0,0,66,75.06a5.79,5.79,0,0,0-2.35-1.66,8.57,8.57,0,0,0-3-.53,11,11,0,0,0-3.85.69,6.49,6.49,0,0,0-2.92,2.11,5.65,5.65,0,0,0-1.14,3.53,4.09,4.09,0,0,0,.93,2.72A5.18,5.18,0,0,0,56,83.49,9.58,9.58,0,0,0,59,84,9.22,9.22,0,0,0,62.76,83.33Z"/><path class="cls-1" d="M78.21,86.66l3.08-13.38H73.34l.73-3.08H93.94l-.73,3.08H85.26L82.18,86.66Z"/><path class="cls-1" d="M94.14,86.66,98,70.2H116l-.73,3.08H101.24l-.81,3.61H110L109.3,80H99.69l-.85,3.61h14.72l-.73,3.08Z"/><path class="cls-1" d="M122.89,86.33A8.89,8.89,0,0,1,119,83.82a6.48,6.48,0,0,1-1.54-4.38,7.54,7.54,0,0,1,1.91-5.19,12.05,12.05,0,0,1,4.78-3.37,15.37,15.37,0,0,1,5.8-1.14,14.83,14.83,0,0,1,5.92,1.18,9.81,9.81,0,0,1,4.34,3.69l-4,1.26a7.25,7.25,0,0,0-3-2.23,10.44,10.44,0,0,0-3.93-.73,9.76,9.76,0,0,0-3.65.73,7.27,7.27,0,0,0-3,2.15,5,5,0,0,0-1.14,3.28,4.23,4.23,0,0,0,.93,2.8,5.18,5.18,0,0,0,2.39,1.58,9.87,9.87,0,0,0,3.12.49,11.59,11.59,0,0,0,4.3-.85,12.05,12.05,0,0,0,3.73-2.31l3.12,1.82A15.83,15.83,0,0,1,133.91,86a16.12,16.12,0,0,1-6.12,1.14A15.18,15.18,0,0,1,122.89,86.33Z"/><path class="cls-1" d="M148,86.66l3.08-13.38h-7.95l.73-3.08h19.91L163,73.28h-7.95L152,86.66Z"/><path class="cls-1" d="M164.28,86.66l3.81-16.46h1.46l-1.66,7.18h14.64l1.66-7.18h1.46l-3.81,16.46h-1.46l1.82-7.95H167.56l-1.82,7.95Z"/><path class="cls-1" d="M187.39,86.66,191.2,70.2h15.57l-.32,1.38H192.34L191,77.37h9.65l-.32,1.38h-9.65l-1.46,6.57h14.68l-.28,1.38H187.39Z"/><path class="cls-1" d="M211.63,70.24h12.73a4,4,0,0,1,2.07.57,3.63,3.63,0,0,1,1.38,1.54,4.61,4.61,0,0,1,.49,2.11,4.68,4.68,0,0,1-.89,2.88,6.12,6.12,0,0,1-2.31,1.86A8.84,8.84,0,0,1,222,80l3.53,6.73H224L220.47,80h-9.65l-1.54,6.69h-1.42Zm10.14,8.31a6.55,6.55,0,0,0,2.35-.45A4.59,4.59,0,0,0,226,76.72a3.4,3.4,0,0,0,.73-2.19,3.14,3.14,0,0,0-.45-1.62,2.74,2.74,0,0,0-1.22-1,3.81,3.81,0,0,0-1.66-.32H212.81l-1.58,7Z"/><path class="cls-1" d="M232.11,71.86v-3h-1.18v-.77h3.24v.77H233v3Zm2.92,0V68.09h.81L237.05,70l1.18-1.86H239V71.9h-.77V69.67h-.08l-1.09,1.78-1.14-1.78h-.08V71.9A5.71,5.71,0,0,0,235,71.86Z"/></g></g></svg>