<svg xmlns="http://www.w3.org/2000/svg" viewBox="0 0 291.19 54.23"><defs><style>.cls-1{fill:#fff;}</style></defs><title>PREVENTION-white</title><g id="Layer_2" data-name="Layer 2"><g id="Layer_1-2" data-name="Layer 1"><path class="cls-1" d="M212.8,18.33h6.75c.9,2,1,32.07.11,34.73h-6.75C212,51,211.88,21.12,212.8,18.33Z"/><path class="cls-1" d="M222.3,35.63c0-11,7.31-18.48,18-18.49,10.39,0,18.1,8,18,18.68-.09,10.36-7.87,18.3-18,18.36C229.82,54.24,222.27,46.48,222.3,35.63Zm8-.19a45.69,45.69,0,0,0,1.44,6.16,8.53,8.53,0,0,0,8.55,5.59c4-.12,7-1.86,8.5-5.7a16.4,16.4,0,0,0,.17-11.4,9.2,9.2,0,0,0-8.46-6.2,8.42,8.42,0,0,0-8.5,5.26A49.41,49.41,0,0,0,230.33,35.44Z"/><path class="cls-1" d="M9.1,38.35V53.08H0V1.21C2.53.88,5,.49,7.49.26,12.26-.18,17-.21,21.63,1.37A16,16,0,0,1,33,16.56a32.77,32.77,0,0,1-.24,6.65c-1.39,8-6.8,12-14.27,13.78-2.15.5-4.39.65-6.59,1Zm.4-29.84v21C13.87,30.89,19.77,29,22,25.76c2.56-3.82,2.31-11.23-.5-14.67C18.91,8,13.55,6.75,9.49,8.51Z"/><path class="cls-1" d="M127.06,38.34a7.86,7.86,0,0,0,5.73,8c4.1,1.32,8.15.69,12.16-.46.81-.24,1.61-.53,2.72-.9l2.09,5.79a8.23,8.23,0,0,1-1.84,1.37c-7,2.41-14.15,3.06-21-.42s-9.36-11.12-8.82-17.93a21.52,21.52,0,0,1,2.85-9.23c5.56-9.6,20.43-9.07,26.38-3.22,3.5,3.43,4.42,7.95,4.71,12.63.07,1.16,0,2.33,0,3.76a32.53,32.53,0,0,1-3.25.36c-6.27,0-12.54,0-18.8,0C129,38.09,128,38.26,127.06,38.34Zm17-6.21a6.61,6.61,0,0,0-3.24-6.68,9,9,0,0,0-9.72-.12,7.39,7.39,0,0,0-4,6.8Z"/><path class="cls-1" d="M87.26,38H62.33c-.53,3.91,2.4,7.56,6.48,8.54a21.3,21.3,0,0,0,11.25-.71c.82-.25,1.63-.54,2.78-.92L85,50.69A8.37,8.37,0,0,1,83.18,52c-7.44,2.66-14.9,3.35-22-.91-5-3-7.4-7.71-7.69-13.48-.21-4.14-.09-8.26,2-12C59.15,19,65.95,16,74,17.37c8.2,1.38,12.73,6.76,13.27,15.79C87.33,34.56,87.26,36,87.26,38Zm-8.1-5.91c.88-3.71-2.43-8.06-7.93-8.19-4.81-.11-9.09,3.78-8.76,8.19Z"/><path class="cls-1" d="M154.81,53.06V18.4h7.4l.67,4.73c.88-.92,1.44-1.52,2-2.11a12.36,12.36,0,0,1,13.58-3.14,8.82,8.82,0,0,1,6.39,8.39c.26,8.41.13,16.82.13,25.23a6.8,6.8,0,0,1-.46,1.58h-7.21C177.2,51.94,177,51,177,50c0-6.11,0-12.22,0-18.34,0-2.13-.41-4.12-2.27-5.49-3.13-2.31-9.14-1.07-10.84,2.44a13.24,13.24,0,0,0-1.25,5.24c-.16,5.39,0,10.79-.07,16.19,0,.93-.15,1.85-.25,3.05Z"/><path class="cls-1" d="M268.13,53.15h-6.57c-1-2-1.16-31.85-.22-34.73H268l.82,4.24.71.51a20.09,20.09,0,0,1,1.74-2.4,12.47,12.47,0,0,1,16.29-1.22,9.8,9.8,0,0,1,3.54,7.79c.18,8.1.1,16.2.1,24.3a6.63,6.63,0,0,1-.39,1.42h-7.65C283,52,282.83,51,282.82,50c0-6,0-12.07,0-18.11,0-4.28-1.29-6.17-4.51-6.7-4.35-.71-7.9,1-9.06,4.7a17.48,17.48,0,0,0-.75,4.91c-.1,5,0,10-.05,15C268.42,50.81,268.25,51.81,268.13,53.15Z"/><path class="cls-1" d="M103.88,41.84l7.81-23.47H120L107.64,53.09H98L85.61,18.37h9.26L103,41.81Z"/><path class="cls-1" d="M191.48,25.14l-3.8-.82V18.55l3.81-.77L192,9.39l8.24-3.62V18.08h9.22v6.6h-8.73a24.12,24.12,0,0,0-.42,2.93c0,4.6,0,9.2,0,13.8a10.5,10.5,0,0,0,.23,2.12c.54,2.52,1.58,3.32,4.17,3.22,1.09,0,2.18-.19,3.59-.31L210,51.6c-6.29,5.23-16,2.21-17.78-5.24a20.38,20.38,0,0,1-.5-4.47c-.06-4.6,0-9.2,0-13.8C191.71,27.16,191.57,26.23,191.48,25.14Z"/><path class="cls-1" d="M42.78,53.09H35.64c-.87-2.12-1-32.14-.1-34.69h7.08l.71,4.31.42.34c2.36-4.71,5.73-7.1,11.39-5.21L53.72,25.1c-.91,0-1.61.11-2.3.1-5.66,0-8.33,2.54-8.4,8.25-.06,5.39,0,10.78,0,16.17C43,50.64,42.87,51.65,42.78,53.09Z"/><path class="cls-1" d="M216.21,14.68a4.83,4.83,0,0,1-4.88-4.74,4.93,4.93,0,0,1,9.87-.07A4.63,4.63,0,0,1,216.21,14.68Z"/></g></g></svg>