<svg xmlns="http://www.w3.org/2000/svg" viewBox="0 0 344.75 80.21"><defs><style>.cls-1{fill:#fff;}</style></defs><title>thehollywoodreporter-white</title><g id="Layer_2" data-name="Layer 2"><g id="Layer_1-2" data-name="Layer 1"><path class="cls-1" d="M54.93.91H47.75c.74-.77,21.44-1,23.16-.26A5.28,5.28,0,0,1,69.83.9c-1.72,0-3.44.06-5.16,0-.9,0-1.23.31-1.48,1.13q-6.78,22.3-13.62,44.59L46.7,56h7.92c-.82.74-20.76,1-23.21.29a4,4,0,0,1,1-.3c1.64,0,3.28,0,4.92,0a1.35,1.35,0,0,0,1-.66q4.08-13.1,8.06-26.24a1.65,1.65,0,0,0,0-.45c-.39,0-.78-.06-1.16-.06-6.6,0-13.2,0-19.8,0-.76,0-1.23.11-1.49,1-2.58,8.57-5.21,17.13-7.82,25.69-.06.19-.09.38-.21.85H23c-.66.72-21.07.92-23,.26A4.27,4.27,0,0,1,1,56c1.76,0,3.52,0,5.28,0a1.16,1.16,0,0,0,1.36-1q8.1-26.6,16.25-53.19c.08-.26.11-.54.21-1H16.29C17.11.15,37-.1,39.5.61a4,4,0,0,1-1,.29c-1.64,0-3.28,0-4.92,0a1.35,1.35,0,0,0-1,.67q-4,12.88-7.91,25.78a1.9,1.9,0,0,0,0,.5h21c.67,0,1.18,0,1.43-.85,2.56-8.49,5.17-17,7.76-25.45A5.76,5.76,0,0,0,54.93.91Z"/><path class="cls-1" d="M129.92,75.75c0,.21,0,.27,0,.29,3,4,10.72,4.62,14.32,1.14a17.27,17.27,0,0,0,4.29-7c2-5.94,3.86-11.93,5.77-17.91.59-1.84,1.15-3.7,1.58-5.59-1,1.59-1.9,3.21-3,4.75a16.32,16.32,0,0,1-5.2,5.07,8.2,8.2,0,0,1-12.63-7,21.29,21.29,0,0,1,.91-6.12c2.2-7.51,4.56-15,6.85-22.47.14-.45.26-.9.45-1.58h-6v-.52h14.15c-.57,1.92-1.2,4.05-1.84,6.19-2.36,7.8-4.75,15.59-7.05,23.41a18.54,18.54,0,0,0-.79,4.7c-.07,2.49,1.64,3.7,4.08,3.09a9.62,9.62,0,0,0,4.63-3.07,30.42,30.42,0,0,0,6.42-10.74c2.4-6.81,4.53-13.72,6.74-20.61,1-3.06.94-3.07,4.2-3.07h4.66l-3.4,11.14q-5,16.5-10.1,33c-1.41,4.56-3.42,8.82-6.94,12.15-5,4.76-11,6.08-17.65,4.62a8.88,8.88,0,0,1-4.71-2.73A6.27,6.27,0,0,1,128,71a4.46,4.46,0,0,1,5.64-3.45A4.5,4.5,0,1,1,130.54,76Z"/><path class="cls-1" d="M322.51,47.85c-.28.44-.45.78-.68,1.08-1.62,2.07-3,4.37-4.92,6.14-4.15,3.87-9.73,3.37-13.46-.93A15.57,15.57,0,0,1,300,45.47c-1.28-10.48,5.69-22.41,15.46-26.41a16.43,16.43,0,0,1,7-1.3,6.28,6.28,0,0,1,6.43,5.75,1.86,1.86,0,0,0,.45,1.05L336.65.85h-6.08l0-.52h14.15c-.79,2.6-1.63,5.38-2.48,8.17q-6.17,20.18-12.32,40.36a23.34,23.34,0,0,0-.94,4.68,2.58,2.58,0,0,0,.83,2.14,2.93,2.93,0,0,0,2.52-.24,10.49,10.49,0,0,0,2.82-3c1.54-2.61,2.86-5.35,4.28-8,.19-.37.45-.7.68-1.05l.28.14a1.88,1.88,0,0,1-.08.64C338.59,47.41,337,50.81,335,54a6.91,6.91,0,0,1-6.81,3.66,6,6,0,0,1-5.7-6C322.45,50.46,322.51,49.24,322.51,47.85Zm-16,.73a39,39,0,0,0,1.13,5.58,3.9,3.9,0,0,0,5.74,2.31,11.5,11.5,0,0,0,3.74-2.71A43.52,43.52,0,0,0,322,46.94c3.31-6,4.77-12.59,6.23-19.18a9.4,9.4,0,0,0-.66-6.33,4.58,4.58,0,0,0-6-2.5,10.32,10.32,0,0,0-3.29,1.88A25,25,0,0,0,314.36,25C309.45,32.08,307.13,40,306.52,48.58Z"/><path class="cls-1" d="M182.17,19.38h-6l-.08-.34a2.58,2.58,0,0,1,.8-.29c4.43,0,8.87,0,13.41,0-.07.27-.17.67-.29,1.07-2.86,9.44-5.75,18.88-8.56,28.34a21,21,0,0,0-.86,5c-.1,2.43,1.65,3.8,3.95,3a12.14,12.14,0,0,0,4.1-2.57,29.13,29.13,0,0,0,7.33-12c2.4-6.94,4.5-14,6.73-21a1.19,1.19,0,0,0,.06-.23c.15-1.44,1-1.81,2.35-1.72,1.95.13,3.91,0,6,0-.13.53-.22.94-.34,1.34-2.91,9.43-5.86,18.84-8.73,28.28a19.68,19.68,0,0,0-.81,4.81c-.09,2.11,1.18,3.23,3.31,3.21a9.28,9.28,0,0,0,5-1.76,26.58,26.58,0,0,0,7.23-7.44A39.32,39.32,0,0,0,224,28.57a17.16,17.16,0,0,0-.26-4.59l-.59.78A4.3,4.3,0,0,1,218,26.08,4.23,4.23,0,0,1,219.63,18a4.46,4.46,0,0,1,4.68,3.19,14.88,14.88,0,0,1,.64,7.11,40.59,40.59,0,0,1-11.52,24.48,14.94,14.94,0,0,1-9.27,4.86c-5.23.49-8.88-2.74-9.1-8-.05-1.22,0-2.45,0-3.79-.24.42-.45.79-.64,1.16A26.13,26.13,0,0,1,188,55.43a8.66,8.66,0,0,1-5.19,2.24c-6.17.24-10-4.3-8.71-10.8.72-3.71,2-7.32,3.05-11,1.51-5.05,3.09-10.08,4.63-15.13C181.92,20.41,182,20,182.17,19.38Z"/><path class="cls-1" d="M260.75,33.32c-.72,10.27-5,18.43-14.62,22.86-9.34,4.29-18.4-.82-20.05-11s5.09-22.3,14.72-26.16c12-4.79,19.56,4.17,19.94,13.19C260.77,32.6,260.75,33,260.75,33.32Zm-6.68-6.49a34,34,0,0,0-.72-4.41,5.12,5.12,0,0,0-6.5-3.8,8.44,8.44,0,0,0-3.5,1.68,18.8,18.8,0,0,0-3.58,4.15,50.86,50.86,0,0,0-6.85,20.29,19.14,19.14,0,0,0,.28,8.09c.85,2.9,2.81,4.37,5.81,4a7.6,7.6,0,0,0,3.83-1.44,18.54,18.54,0,0,0,4-4.51C251.32,43.68,253.39,35.69,254.07,26.83Z"/><path class="cls-1" d="M56.76,42c.1-9.92,6.66-19.83,15.42-23.14,11.57-4.38,18.58,4.13,19.41,12C92.74,41.75,85.8,53.22,76,56.68c-10.78,3.79-17.57-3.63-18.85-11.3C56.92,44.28,56.87,43.16,56.76,42Zm6.79,6.16c.13,1.21.17,2.58.44,3.91.83,4.08,4.19,5.9,8.06,4.33a8.87,8.87,0,0,0,3-2,21.55,21.55,0,0,0,3.16-4,50.37,50.37,0,0,0,6.66-21.7,20.77,20.77,0,0,0-.66-6.62c-.64-2.53-2.64-3.71-5.26-3.65a6.21,6.21,0,0,0-4.3,1.58,24.42,24.42,0,0,0-4,4.59C66.28,31.82,64.23,39.73,63.56,48.21Z"/><path class="cls-1" d="M262.9,41.81c.82-9.86,5-17.88,14.35-22.41s18.57.41,20.4,10.64c1.88,10.51-5.36,23-15.43,26.6-10.85,3.87-17.67-3.56-19-11.26C263.08,44.28,263,43.16,262.9,41.81Zm6.81,6.47c.13,1.22.18,2.54.44,3.83.83,4.07,4.19,5.91,8.06,4.33a9.48,9.48,0,0,0,3.14-2.13,21.58,21.58,0,0,0,3.12-4.08,52.27,52.27,0,0,0,6.37-19.47,19.63,19.63,0,0,0-.22-8c-.94-3.41-3.53-5-7-4.08a9.66,9.66,0,0,0-3.71,2,16.65,16.65,0,0,0-3.17,3.88A53,53,0,0,0,269.71,48.29Z"/><path class="cls-1" d="M132.15,43.45a1.68,1.68,0,0,1,0,.54c-1.6,3.8-3.24,7.58-5.9,10.79a6.88,6.88,0,0,1-5.53,2.9c-4.06,0-6.62-2.34-6.65-6.41a20.58,20.58,0,0,1,.85-6c4.29-14.31,8.69-28.59,13-42.88.13-.42.24-.84.43-1.53h-6V.3h14.13c-.17.61-.37,1.37-.6,2.13q-7.09,23.21-14.17,46.42a34.65,34.65,0,0,0-1,4.44,2.19,2.19,0,0,0,.81,2.47,2.26,2.26,0,0,0,2.78-.41,13.52,13.52,0,0,0,2.6-2.94c1.53-2.62,2.86-5.35,4.28-8,.19-.36.44-.7.67-1Z"/><path class="cls-1" d="M107.62.86H101.4c.66-.63,10.54-1,14.43-.77-.69,2.26-1.36,4.5-2,6.74q-6.47,21.2-12.93,42.4a20.53,20.53,0,0,0-.86,4.57c-.13,2,1.42,2.92,3.09,1.83a8.94,8.94,0,0,0,2.76-2.76c1.66-2.77,3.08-5.67,4.61-8.52.2-.36.45-.69.82-1.24.12.43.21.55.18.63a41.84,41.84,0,0,1-6,11,7,7,0,0,1-6.36,2.89,6,6,0,0,1-5.83-5.76A17.63,17.63,0,0,1,94.15,45q6.5-21.25,13-42.5C107.29,2.06,107.42,1.56,107.62.86Z"/><path class="cls-1" d="M317.15,73.51l3.09,6.5c-1.73,0-3.27,0-4.8,0-.27,0-.62-.43-.77-.74-.63-1.38-1.25-2.77-1.78-4.19a1.46,1.46,0,0,0-1.68-1.11c-2.72.12-2-.39-2.82,2,0,.11-.07.23-.1.34-1.27,4.18-1.38,4.24-6,3.57.08-.34.15-.67.24-1,1.56-5.12,3.15-10.23,4.67-15.37a1.33,1.33,0,0,1,1.58-1.14c2.68.07,5.36-.05,8,.06a12.57,12.57,0,0,1,3.84.74A3.66,3.66,0,0,1,323,67.42C322.59,70.79,320.67,72.82,317.15,73.51Zm-7.08-2.92c1.73,0,3.25.07,4.75,0a3.12,3.12,0,0,0,3.06-2.72c.26-1.22-.22-2-1.46-2.08-1.43-.09-2.87-.06-4.31,0a.9.9,0,0,0-.68.48C310.95,67.62,310.54,69,310.06,70.59Z"/><path class="cls-1" d="M260,73.51,263.08,80c-1.72,0-3.26,0-4.8,0-.27,0-.62-.43-.77-.74-.65-1.42-1.28-2.84-1.83-4.3a1.34,1.34,0,0,0-1.49-1c-2.32,0-2.32,0-3,2.27-.28.92-.64,1.82-.83,2.75s-.66,1.13-1.51,1.08c-1.12-.07-2.24,0-3.36,0a1.18,1.18,0,0,1-.3-.12,8.88,8.88,0,0,1,.18-.87c1.58-5.2,3.18-10.39,4.74-15.59.21-.71.5-1,1.31-1,2.8.06,5.6-.06,8.39.06a12.11,12.11,0,0,1,3.83.79,3.55,3.55,0,0,1,2.26,4C265.53,70.68,263.6,72.79,260,73.51Zm-7.08-2.93c1.75,0,3.31.08,4.85,0a3,3,0,0,0,2.88-2.46c.4-1.47-.11-2.28-1.61-2.35-1.32-.06-2.64-.05-4,0a1.13,1.13,0,0,0-.84.57C253.75,67.68,253.36,69.06,252.9,70.58Z"/><path class="cls-1" d="M183.11,80c-1.72,0-3.27,0-4.81,0-.27,0-.61-.44-.75-.75-.65-1.41-1.28-2.84-1.83-4.29a1.33,1.33,0,0,0-1.5-1c-2.31,0-2.31,0-3,2.16-.29,1-.66,1.89-.86,2.86s-.65,1.13-1.5,1.08c-1.11-.07-2.24,0-3.35,0a1.48,1.48,0,0,1-.32-.11c.07-.32.11-.65.21-1,1.57-5.15,3.16-10.3,4.7-15.46.23-.77.53-1.09,1.39-1.07,2.67.07,5.35,0,8,0,.36,0,.72,0,1.08,0,2.81.17,4.74,1.37,5.23,3.25a6.8,6.8,0,0,1-2.92,6.73,26.24,26.24,0,0,1-2.84,1.23ZM173,70.53c1.81,0,3.53.12,5.22,0a2.91,2.91,0,0,0,2.53-2.54c.32-1.35-.18-2.12-1.57-2.19s-2.72-.05-4.08,0a1,1,0,0,0-.78.5C173.8,67.64,173.41,69.06,173,70.53Z"/><path class="cls-1" d="M233.63,80c-.57,0-1.34,0-2.08-.16-4.28-.64-6.34-3.55-5.43-7.78a27.77,27.77,0,0,1,1.21-4,8.55,8.55,0,0,1,6.82-5.71,15.07,15.07,0,0,1,6.77.08c3.24.88,5,3.38,4.37,6.68a26.25,26.25,0,0,1-1.61,5.49c-1.42,3.41-4.28,4.9-7.82,5.27C235.17,80,234.49,80,233.63,80Zm.9-3.71c1.88,0,3.56-.55,4.36-2.36a30,30,0,0,0,1.58-5,2.34,2.34,0,0,0-1.18-2.66,5.21,5.21,0,0,0-7,2,24.4,24.4,0,0,0-1.18,3.38C230.17,74.71,231.37,76.32,234.53,76.31Z"/><path class="cls-1" d="M185.67,79.83,191,62.45h15.33a28.79,28.79,0,0,1-1,3,1.4,1.4,0,0,1-1.08.55c-2.76,0-5.52.07-8.28,0-.9,0-1.3.28-1.47,1.12s-.39,1.37-.65,2.22h8.45c-.35,1.16-.59,2.17-1,3.12a1.19,1.19,0,0,1-.92.46c-2.2,0-4.4.06-6.6,0-.81,0-1.26.18-1.43,1s-.44,1.52-.71,2.43H202c-.35,1.17-.63,2.19-1,3.18a.91.91,0,0,1-.69.46c-4.8,0-9.59,0-14.39,0C185.91,80,185.84,79.91,185.67,79.83Z"/><path class="cls-1" d="M304.12,62.41a27.85,27.85,0,0,1-1,3,1.42,1.42,0,0,1-1.1.54c-2.72,0-5.44.06-8.15,0-.91,0-1.41.2-1.59,1.14-.13.7-.39,1.37-.64,2.21h8.45c-.34,1.11-.56,2.08-.94,3a1.26,1.26,0,0,1-1,.57c-2.2.05-4.4.06-6.59,0-.81,0-1.26.17-1.42,1a24.5,24.5,0,0,1-.73,2.45h10.35c-.35,1.17-.61,2.16-1,3.12a.92.92,0,0,1-.68.5c-4.87,0-9.73,0-14.74,0,.14-.51.23-.89.34-1.25,1.55-5.08,3.11-10.16,4.63-15.25.24-.8.56-1.14,1.47-1.13C294.57,62.44,299.25,62.41,304.12,62.41Z"/><path class="cls-1" d="M204.55,80c.3-1,.54-1.83.8-2.66,1.42-4.66,2.87-9.31,4.25-14a1.13,1.13,0,0,1,1.32-1c2.76.05,5.52-.06,8.27.07a11.87,11.87,0,0,1,3.81.85,3.4,3.4,0,0,1,2.17,3.77c-.62,4.85-2.88,7-7.23,7.3a55,55,0,0,1-5.63.05,1.25,1.25,0,0,0-1.47,1.13c-.3,1.2-.75,2.36-1.06,3.56-.17.64-.44.93-1.14.91C207.32,80,206,80,204.55,80Zm7.66-8.87c1.45,0,2.68,0,3.91,0,2.31-.07,3.41-1,3.84-3.33.24-1.27-.21-2-1.5-2s-2.71-.06-4.07,0a.9.9,0,0,0-.66.5C213.21,67.8,212.75,69.36,212.21,71.15Z"/><path class="cls-1" d="M269.74,80,274,66h-6.16c.34-1.15.62-2.18,1-3.18a.94.94,0,0,1,.74-.4c5.43,0,10.86,0,16.5,0-.36,1.16-.65,2.22-1,3.23-.08.2-.57.34-.87.35-1.4,0-2.8.06-4.19,0-.74,0-1,.25-1.24.94-1.16,3.9-2.43,7.77-3.53,11.69a1.62,1.62,0,0,1-2,1.41C272.11,79.95,271,80,269.74,80Z"/><path class="cls-1" d="M163.94,13.69l1.66-5.54c-1.46,0-2.78,0-4.08,0a1.26,1.26,0,0,0-.84.74c-.54,1.54-1,3.11-1.49,4.71h-3.73c.08-.37.14-.7.24-1,1.16-3.82,2.36-7.63,3.48-11.46a1.18,1.18,0,0,1,1.43-1c.83.06,1.66,0,2.7,0l-1.57,5.25c1.54,0,3,0,4.43,0,.2,0,.44-.5.54-.81.4-1.21.71-2.46,1.17-3.65a1.39,1.39,0,0,1,1-.72,26.78,26.78,0,0,1,2.89,0,7,7,0,0,1-.14.93C170.41,5,169.21,8.87,168,12.77c-.2.69-.49,1-1.24.93S165.06,13.69,163.94,13.69Z"/><path class="cls-1" d="M185.73.29l-.81,2.62c-1.86,0-3.7.11-5.52,0a1.65,1.65,0,0,0-2.08,1.62c0,.31-.13.61-.23,1h5.56A15.72,15.72,0,0,1,182,7.7a1.21,1.21,0,0,1-.91.5,27.94,27.94,0,0,1-3.59,0c-1-.08-1.56.27-1.71,1.29a11.89,11.89,0,0,1-.41,1.41h7.09c-.28.94-.45,1.69-.74,2.4a1,1,0,0,1-.76.37c-3.35,0-6.7,0-10.17,0,.08-.39.12-.69.2-1q1.75-5.79,3.52-11.57c.17-.55.28-1,1.07-1,3.19,0,6.39,0,9.58,0A3.21,3.21,0,0,1,185.73.29Z"/><path class="cls-1" d="M157.42.16c-.49,2.75-.49,2.73-3.08,2.76-2.33,0-1.77-.38-2.48,1.83-.85,2.66-1.66,5.34-2.44,8-.2.67-.48,1-1.23.94-.91-.07-1.83,0-2.9,0l3.27-10.75h-4.48c.26-.87.43-1.59.71-2.27a.93.93,0,0,1,.69-.48C149.42.15,153.37.16,157.42.16Z"/></g></g></svg>