<svg xmlns="http://www.w3.org/2000/svg" viewBox="0 0 369.4 210.04"><defs><style>.cls-1{fill:#fff;}</style></defs><title>TsC-white</title><g id="Layer_2" data-name="Layer 2"><g id="Layer_1-2" data-name="Layer 1"><path class="cls-1" d="M282.1,1.34c4.7,0,9.17,0,13.65,0A2,2,0,0,1,298,3q4.57,17,9.24,34.05a8.84,8.84,0,0,0,.81,2.56c1.58,2.39.89,4.36-.71,6.41-1.46,1.86-2.6,4-4.08,5.82-3.73,4.68-4.36,10.11-4,15.77a33.28,33.28,0,0,1-1.89,14.6c-2.84,7.55-4.75,15.45-7,23.2a3.67,3.67,0,0,0-.3,1.68c.43,1.93,1,3.83,1.52,5.74,1.67-.63,3.61-.92,4.94-2a12.54,12.54,0,0,0,3.16-4.41c1.63-3.37,3-6.86,4.48-10.32a11.93,11.93,0,0,0,.59-2.53c.3-1.7,0-3.74.92-5a84.37,84.37,0,0,1,7.19-8.86,2.45,2.45,0,0,1,2.28-.12c2.14,1.18,4.15,2.6,6.22,3.91.88.56,1.78,1.07,3,1.77.25-3.15.38-6,.73-8.76.32-2.53,1.22-4.77,4-5.64,1.35-.43,2.2-.21,2.42,1.38q2.46,17.09,5,34.16c.63,4.33,1.31,8.65,2,13l1.2.17c.83-1.94,2.06-3.8,2.43-5.83,1.05-5.86,1.71-11.79,2.61-17.68.68-4.43,1.33-8.87,2.31-13.24a21.83,21.83,0,0,0-.71-11.36c-3-9.76-6.22-19.44-9.07-29.24-.85-2.93-.8-6.13-1.12-9.21-1-9.83-2.09-19.66-3-29.49C332.66.22,332.86,0,336.24,0c9.55.09,19.09.35,28.64.5,2,0,2.87.74,2.74,3-.68,11-1.36,22-1.77,33-.53,14.37-.6,28.76-1.21,43.12-.73,17.3.8,34.44,2.94,51.56.7,5.59,1.13,11.22,1.78,16.82.21,1.82-.66,2.45-2.06,1.85a15.57,15.57,0,0,1-5.12-3.13c-7.47-7.78-14.69-15.79-22.15-23.57-4.08-4.25-4-9.61-4.71-14.84-1.59-11.56-3.3-23.11-5-34.66-.07-.48-.46-1.21-.82-1.29a1.87,1.87,0,0,0-1.4.69,7.09,7.09,0,0,0-2.06,5.29c.17,2.91,0,5.83,0,9.25a29.38,29.38,0,0,1-2.85-1.3c-2.23-1.36-4.44-2.77-6.63-4.19-2.61-1.7-4.88-.82-5.84,2.15a8.28,8.28,0,0,1-1.68,2.36c-1.42,1.74-2.79,3.35-3,5.88a24.64,24.64,0,0,1-2,7.21c-1.57,3.81-1.6,3.84,1.16,6.8,4.1,4.42,7.73,9.34,12.2,13.33,3.67,3.26,4.91,7.43,6.82,11.53,2.61,5.61,5.8,10.94,8.75,16.39.3.56.63,1.1,1.16,2-2.41.14-4.51.38-6.6.36-14.38-.11-28.77-.31-43.15-.37-2.68,0-2-1.66-2-3.13.48-10.61,1.15-21.21,1.4-31.82.24-10.37.09-20.76.05-31.14-.06-17.24,0-34.48-.3-51.72-.18-9.88-1.05-19.74-1.6-29.61A7.28,7.28,0,0,1,282.1,1.34Zm33.28,127,.45.35a36.81,36.81,0,0,0-.42,6.47,4,4,0,0,0,2.17,2.93c2.13.49,3.8-.85,5.19-2.55,1.24-1.51.72-2.79,0-4.27-.85-1.85-1.46-3.81-2.24-5.69a6.73,6.73,0,0,0-1.17-2.08q-6-6.32-12-12.55c-1.34-1.38-2.8-2.64-4-3.79-3.14,5.17-6.34,10-9,15.09-.89,1.69-2.16,4.13-.15,6.13,2.24,2.22,4.62,2.06,6.7-.35.91-1,1.65-2.23,2.55-3.29A12.36,12.36,0,0,1,305,123.4l.6.47c-1.12,2.59-2.28,5.16-3.36,7.77-1.17,2.82-.56,3.68,3,5.8,2.24,1.35,3.65,1.12,4.86-1.22a44.66,44.66,0,0,1,2.86-4.52C313.68,130.57,314.55,129.49,315.38,128.38Z"/><path class="cls-1" d="M267.78,208.76h-6.31l-.34-3.32a3.7,3.7,0,0,0-.8.4c-4.31,4.18-9.33,5.24-14.88,3.09-5.8-2.24-8.62-6.9-9.09-12.84a25.76,25.76,0,0,1,.85-8.93c3.32-11.6,17.77-13.14,23.94-5.56v-20h6.62Zm-25.06-15c.7,2.5,1.09,5.67,2.42,8.36,2.74,5.53,10.16,5.88,13.86.91,3.18-4.27,3.53-13.79.64-18.27a8.48,8.48,0,0,0-8.55-4.13,7.69,7.69,0,0,0-6.88,5.79A72.77,72.77,0,0,0,242.72,193.72Z"/><path class="cls-1" d="M157.78,150.25h-6.27l-.26-3.39c-.24,0-.52,0-.63.11-4,4.26-8.81,5.45-14.3,3.74s-8.76-5.87-9.76-11.52a20.19,20.19,0,0,1,2.11-14c4.78-8.33,17.2-8.79,21.86-2.68.13.17.37.24.76.48V103h6.49Zm-6-15.16a53.56,53.56,0,0,0-1-6.42,8.69,8.69,0,0,0-8.69-6.59c-4.19,0-7.06,2.27-8.19,6.71a21.84,21.84,0,0,0,.44,13.26c1.4,3.75,4.33,6,7.64,5.88,4-.14,7-2,8.29-5.78A50.24,50.24,0,0,0,151.75,135.1Z"/><path class="cls-1" d="M162.23,161.48h6.61v20.72c.79-.75,1.4-1.33,2-1.91,3.88-3.6,11.33-4.33,15.83-1.56a7.87,7.87,0,0,1,3.94,6.18c.27,3.23.15,6.5.16,9.76,0,2.37-.07,4.73-.08,7.1s0,4.55,0,6.95h-6.25c0-3.75,0-7.55,0-11.34,0-3.26,0-6.54-.35-9.76-.45-4-2.7-6-6.35-6.16-4.44-.18-8.12,2-8.54,6-.57,5.33-.4,10.74-.48,16.11,0,1.68.16,3.37.26,5.17h-6.74Z"/><path class="cls-1" d="M367.18,208.74h-6.71c0-1.16,0-2.34,0-3.53.1-5,.23-10,.3-14.94a13.85,13.85,0,0,0-.33-2.67c-.79-4.28-2.74-6.09-6.61-6.17-4.37-.09-7.8,2.09-8.24,6.06-.56,5-.49,10.09-.61,15.14,0,2,.16,4,.25,6.12h-6.76c0-.68-.12-1.31-.11-1.94.1-8.9.29-17.8.28-26.71,0-2,.46-2.86,2.57-2.57a29.94,29.94,0,0,0,3.85,0v4.59c.87-.77,1.39-1.2,1.88-1.66a14.49,14.49,0,0,1,15.38-2.19,8.13,8.13,0,0,1,4.79,7.22C367.33,193.2,367.18,200.87,367.18,208.74Z"/><path class="cls-1" d="M25.36,119.1h6.73c0,.93,0,1.86,0,2.79-.11,5.22-.25,10.44-.32,15.66a16.4,16.4,0,0,0,.36,3.15c.69,3.73,2.17,5.51,4.89,5.95,3.47.56,6.8-.78,8.33-3.81a13.43,13.43,0,0,0,1.43-5.6c.1-5.38-.13-10.76-.22-16.15,0-.63.08-1.27.13-2h6.38v31.06H46.92v-4.83c-3,3.74-6.15,5.77-10.38,5.79-6.68,0-10.82-3.43-11.1-10.08C25.12,133.81,25.36,126.56,25.36,119.1Z"/><path class="cls-1" d="M90.34,143.24c.25,2.54-.28,4.67-2.91,5.94-6,2.88-12,3.15-17.91.17-5.67-2.85-8.39-10-7.26-17.38,2-13.19,13.73-15.15,21.89-12.25,5,1.79,8.5,8.17,7.89,13.74-.18,1.63-1.26,1.45-2.29,1.45-6,0-12.09.09-18.13,0-2.18,0-2.91.61-2.65,2.8.53,4.36,2.21,8,6.48,9.61s8.53.76,12.11-2.28a16.22,16.22,0,0,0,2-2.42Zm-5.26-11.5c.12-3.5-.34-6.7-3.19-8.88a7.2,7.2,0,0,0-8.11-.39c-3.52,1.91-4.39,5.38-4.77,9.27Z"/><path class="cls-1" d="M308,193.36c0,5,1,9.18,5.26,11.8s8.54,1.65,16-3.66c.48,2.19.61,4.08-1.47,5.39a18.48,18.48,0,0,1-18.7,1.15c-6-2.88-7.9-8.43-7.78-14.7.24-11.92,8.84-18.53,20.25-15.71,6.16,1.52,10.63,8.24,9.44,14.43-.1.55-1.35,1.23-2.08,1.24-6,.1-11.93.06-17.9.06Zm.38-3h13.54a3.13,3.13,0,0,0,1.21-.05c.45-.2,1.06-.55,1.15-.94,1-4-2.79-9.09-6.94-9.28C312,179.82,308.43,183.69,308.37,190.34Z"/><path class="cls-1" d="M183.63,147.24a12.52,12.52,0,0,1-10.29,4c-4.4-.3-7.35-3-8.08-7.48a7.63,7.63,0,0,1,5.22-8.91c3-1.07,6.18-1.53,9.2-2.5,1.43-.46,3.37-1.17,3.85-2.29.91-2.1.05-4.35-1.67-6-2.89-2.8-8.47-2.39-11,.71-.74.89-1.28,3.1-2.68,1.75-.68-.65.25-3,.53-4.59,0-.24.48-.41.75-.59a15.69,15.69,0,0,1,13.81-2.06c4.29,1.25,6.46,4.15,6.53,8.7.08,5.23-.09,10.46-.09,15.69,0,3.46.36,3.81,3.65,4.2.82,1.66-.46,2.1-1.58,2.55C188.44,151.74,186.2,150.91,183.63,147.24Zm0-13c-3,.84-5.6,1.27-7.92,2.35a7.61,7.61,0,0,0-3.6,3.62,5,5,0,0,0,3.28,6.82c3.52.94,7.71-1.33,8.16-4.74A64.78,64.78,0,0,0,183.64,134.26Z"/><path class="cls-1" d="M226.89,119.15c-7.92,16.75-17,32.69-18.77,51.25h-6.88c.74-1.6,1.48-3,2-4.47,1.72-4.41,3.46-8.82,5-13.3a5.37,5.37,0,0,0-.24-3.47c-3.85-9.36-7.82-18.68-11.75-28-.25-.58-.45-1.18-.81-2.11,2.44,0,4.63-.13,6.78.09.58.06,1.27,1.07,1.54,1.79,2.36,6.09,4.64,12.21,7,18.31.34.9.8,1.76,1.44,3.17a23.56,23.56,0,0,0,1.55-2.75c2.27-5.95,4.6-11.87,6.66-17.89.68-2,1.33-3.18,3.65-2.63A14,14,0,0,0,226.89,119.15Z"/><path class="cls-1" d="M117,126.74c-3.4-4.91-5.8-6.24-9.51-4.91a6.79,6.79,0,0,0-3.44,3.34c-.8,1.76.14,3.6,1.8,4.64a22.61,22.61,0,0,0,4.22,1.86c1.14.43,2.35.68,3.52,1,3.61,1.11,6.33,3,6.57,7.22.27,4.69-1.71,8.42-5.74,10.16a17.19,17.19,0,0,1-14.9-.62,2.21,2.21,0,0,1-1-1.8,40.18,40.18,0,0,1,1.43-4.93c.71,1,1.11,1.53,1.49,2.08a8.7,8.7,0,0,0,10.42,3.12,4.77,4.77,0,0,0,3.15-4.3,4.07,4.07,0,0,0-2.63-4.29c-2.18-.91-4.43-1.66-6.65-2.46-5.3-1.9-7.48-5.1-6.87-10.12.55-4.54,4.2-7.91,9.35-8a43.62,43.62,0,0,1,8.41,1c1.5.26,2.21,1.16,1.5,2.84A32.43,32.43,0,0,0,117,126.74Z"/><path class="cls-1" d="M259.33,126.69a15.76,15.76,0,0,1-1.12-1.45,7,7,0,0,0-8.92-3.36,4.34,4.34,0,0,0-1.47,7.62,16.13,16.13,0,0,0,4.35,2.1c1.21.48,2.51.71,3.75,1.12,4.56,1.51,6.43,3.67,6.69,7.71A9.94,9.94,0,0,1,257,150c-5.08,2.31-10.19,1.89-15.11-.51a2.73,2.73,0,0,1-.88-2.27,28.25,28.25,0,0,1,1.25-4.47c.72,1,1.13,1.53,1.51,2.09a8.68,8.68,0,0,0,10.18,3.2,4.75,4.75,0,0,0,3.34-4.39,4.13,4.13,0,0,0-2.82-4.4c-2.19-.89-4.43-1.64-6.66-2.45-5.08-1.86-7.26-5.15-6.65-10a9.23,9.23,0,0,1,9.14-8,44.55,44.55,0,0,1,8.66,1c1.49.25,2.21,1.17,1.48,2.86A29.47,29.47,0,0,0,259.33,126.69Z"/><path class="cls-1" d="M151.85,185.54c-.2-.43-.37-.87-.59-1.29-1.85-3.53-4.94-4.51-8.65-4.15a9,9,0,0,0-7.93,5.68,18.23,18.23,0,0,0,.09,14.76c2.68,6.1,10.5,7.94,16.54,4.05.66-.42,1.29-.87,2-1.36.44,3.52,0,4.36-2.78,5.4a20.37,20.37,0,0,1-15.07-.21c-6.77-2.72-10.3-10-9-18,1.24-7.64,6.7-12.91,14.45-13.2,3.67-.13,7.39.75,11.06,1.35,1.74.28,2.43,1.37,1.59,3.21a20.12,20.12,0,0,0-.9,3.42Z"/><path class="cls-1" d="M226.69,208.68h-6.53c0-2.91,0-5.74,0-8.58-.05-12.09-.07-24.17-.21-36.26,0-1.91.38-2.72,2.43-2.42a31.3,31.3,0,0,0,4.32,0Z"/><path class="cls-1" d="M4.66,122.86H0V120c.09-.06.22-.22.36-.24,4.29-.41,4.37-.41,4.32-4.74A2.68,2.68,0,0,1,6.74,112a50.26,50.26,0,0,0,4.78-2.15c-.13,2.77-.18,5.18-.38,7.58-.15,1.81.48,2.55,2.35,2.33a39.35,39.35,0,0,1,4.29,0v3a41.28,41.28,0,0,0-4.88.06c-.64.08-1.69.84-1.7,1.32-.21,6.11-.51,12.24-.29,18.34.18,4.94,1.3,5.6,7.55,5.63-.72,1-1,2.06-1.67,2.28-6.81,2.39-12.31-1.27-12.11-7.76.17-5.54.1-11.1.12-16.65C4.8,125,4.72,124.06,4.66,122.86Z"/><path class="cls-1" d="M278.17,208.72V177.79h6.32v4.87c1.59-1.42,3-3.18,4.85-4.2s3.93-1.2,6.37-1.88l-.32,6.9c-1-.17-1.74-.31-2.5-.42-4.21-.62-7.71,1.59-8.06,5.83-.43,5.26-.19,10.58-.23,15.88,0,1.28,0,2.57,0,4Z"/><path class="cls-1" d="M201.14,177.88h6.32v30.8h-6.32Z"/><path class="cls-1" d="M241.71,108.13a20.47,20.47,0,0,1-1.1,2.61c-2.26,3.87-4.55,7.72-6.91,11.52-.34.55-1.18.79-1.79,1.18a5.07,5.07,0,0,1-.3-1.93c1.23-4.56,2.44-9.13,3.94-13.6a4.91,4.91,0,0,1,2.79-2.59c.71-.25,1.93.75,2.81,1.34C241.48,106.88,241.5,107.54,241.71,108.13Z"/></g></g></svg>