<svg xmlns="http://www.w3.org/2000/svg" viewBox="0 0 399.15 93.26"><title>TW-black</title><g id="Layer_2" data-name="Layer 2"><g id="Layer_1-2" data-name="Layer 1"><path d="M76.93,93.26c-3.36-1.3-4.58-4.14-4.66-7.34C72,76.33,75.16,68.17,83.09,62.25a3.18,3.18,0,0,0,1.27-1.84c.28-2.32.32-4.68.49-7.57l-1.38,1.89c-2.43,3.38-5.17,6.4-9.14,8-5.09,2.08-9.49-.06-11-5.35a7,7,0,0,0-.32-.74c-1.36,1.6-2.62,3.15-3.95,4.63-3.82,4.22-8.35,3.55-10.85-1.59A17,17,0,0,1,47,49.39c.84-5.17,2.13-10.27,3.34-15.37.41-1.74,4.85-2.71,5.89-1.3a3.09,3.09,0,0,1,.14,2.2c-1,4.65-2.3,9.26-3.21,13.94-.68,3.46-.82,7,.85,10.3,1.09,2.17,1.64,2.3,3.49.78a25.7,25.7,0,0,0,7.2-9.18A38.58,38.58,0,0,1,77.31,35.34c2.5-1.77,5.56-2.79,8.44-4a2,2,0,0,1,2.87,1.52c.62,3,1.52,6,1.61,9,.15,5.49-.21,11-.35,16.49,0,.58,0,1.17,0,1.8,1.67,0,3.28.34,4.62-.11a4.18,4.18,0,0,0,2.32-2.64,100.43,100.43,0,0,0,1.88-11.24c1.17-11.06,2.21-22.13,3.25-33.2.34-3.62,1.73-4.64,5.34-5.18,2.53-.38,3.52.63,3.23,3.19s-.74,5-1.13,7.53c-.77,4.88-1.56,9.77-2.3,14.41,2.2-.76,4.34-1.84,6.59-2.22,5.3-.88,8.95,2.1,8.92,7.53,0,4.2-.79,8.4-1.18,12.61a31.85,31.85,0,0,0-.18,4.7,4.45,4.45,0,0,0,3.08,4.09,4.36,4.36,0,0,0,5-.82c-3.87-6.57-2-13.46-1-20.3A43.64,43.64,0,0,1,129,34.1c.31-1.23,0-1.78-1.24-2.07a4.13,4.13,0,0,1-3.43-2.69c1.44.16,2.68.23,3.88.44,1.39.24,2.05-.22,2.39-1.64.88-3.7,1.93-7.36,2.9-11,.57-2.15,3.48-3.26,5.19-1.87a2.33,2.33,0,0,1,.44,1.9c-.66,3.44-1.44,6.85-2.15,10.28-.14.69-.18,1.4-.29,2.36a27.37,27.37,0,0,1,3.2-.25c.44,0,.87.45,1.31.69a4.4,4.4,0,0,1-.9,1.18,4.31,4.31,0,0,1-1.85.71c-2.19.2-2.85,1.51-3,3.5-.53,5.41-1.35,10.82,0,16.23a18.1,18.1,0,0,0,5.46,9,2.25,2.25,0,0,0,3.36.07c2.58-2,3.51-4.24,2.75-7.69-2.24-10.23-1.05-20.31,2.35-30.15a15.73,15.73,0,0,1,5.66-7.82c2.27-1.63,4-1.12,4.19,1.61a47.28,47.28,0,0,1-.37,10.79c-1.19,7.2-2.73,14.35-5.69,21.11a9.06,9.06,0,0,0,2.88,10.6,3.17,3.17,0,0,0,4.45-.23c1.56-1.69,3.24-3.6,3.92-5.72,1.75-5.5,3-11.17,4.42-16.78.39-1.52.67-3.07,1.15-4.56a4.36,4.36,0,0,1,5.48-2.61c1.17.43,1,1.32.72,2.26-1.08,3.9-2.27,7.77-3.14,11.72a28.68,28.68,0,0,0-.85,7.89,11.62,11.62,0,0,0,2.13,5.59c1.77,2.53,4.69,2.47,6.86.28s3.19-5.34,4-8.41c1.44-5.68,2.88-11.35,4.4-17,.8-3,3.11-4,6-2.79,1.39.57,1.6,1.58,1.24,2.95q-2.16,8-4.21,16.12c-.62,2.43-1.1,4.89-1.65,7.34l.6.34c1.87-2.7,4.13-5.2,5.54-8.12,4-8.37,7.73-16.9,11.52-25.38a4.94,4.94,0,0,0,.15-1.55h0a5.27,5.27,0,0,0,6.4,1,4.15,4.15,0,0,0,2.65-4.62l.08-.06v4c1.23,1,1.54,2.86.36,4.81-.72,1.2-1.17,2,.28,3.16a2.12,2.12,0,0,1,.08,3.32c-.05-1.05-.1-2.1-.14-2.88-1.37,1.06-2.44,2.39-3.79,2.81-1.75.54-2.77-1-3.47-2.71-.6,1.63-.34,3,.84,3.61a7.9,7.9,0,0,0,4,.6c.9-.08,1.72-1,2.58-1.49,0,.56-.1,1.23.16,1.66a3.52,3.52,0,0,1-.09,4.34,1.47,1.47,0,0,0-.16,2,4.13,4.13,0,0,0-.6,1.25c-.21,2.17-1.51,3.18-3.57,2.49a12.89,12.89,0,0,1-2.58-1.59c-.1,2.25.81,3.31,2.93,3.42,2.93.16,4.43-2.08,3.76-5.63,1.24,1.06.85,2.32.4,3.55a14.49,14.49,0,0,1-.9,1.72c-.24,1.07-.15,2.53-.81,3.11a4.55,4.55,0,0,1-3.44.82c-.74-.15-1.24-1.5-1.75-2.2-.67,1.48-.44,2.67.87,3.42a4.93,4.93,0,0,0,4.8-.47,3.19,3.19,0,0,0,.53-4,4.22,4.22,0,0,1-.19-.69c1.53,1.57,1.57,2.44.19,5.19a3.25,3.25,0,0,1,.78,4.2c-.61,1.36.25,2.67,1.9,3.28a9.82,9.82,0,0,0-.32,1.57,2.18,2.18,0,0,0,2,2.39,5.59,5.59,0,0,0,2-.46l-.13-.52c-2.3.61-3,0-3.55-3,.17-.17.45-.31.49-.5.44-2,.83-4,2.45-5.54.41-.4-.05-1.58.24-2.25.72-1.66,1.17-3.5,1.92-5s1.83-2.59,1.85-4.36a1.48,1.48,0,0,1,.88-1c1.7-.54,2-2.08,2.6-3.4a6,6,0,0,1,.95-1.62c1.32-1.38,1.58-1.25,2.49.49,1.83,3.52,1.51,7.52,2.61,11.21,1,3.34,1.7,6.76,2.83,10.09,1.13-6.13,2.23-12.27,3.41-18.39,1.63-8.44,3.78-16.73,8-24.32,2.88-5.21,6.62-9.58,12.61-11.29a11.7,11.7,0,0,1,4.8-.31A6.19,6.19,0,0,1,274.24,8c0,3.72-2.54,7.69-5.42,8.22a4.37,4.37,0,0,1-2.94-.43,3.79,3.79,0,0,1-1.56-2.55c0-.56,1.16-1.32,1.93-1.76s1.52-.15,2.05.78c.92,1.6,2,1.53,2.89-.15.79-1.52,1.08-3.12,0-4.63-.74-1-3.47-1.47-5.1-.67A7.61,7.61,0,0,0,263.32,9,66.94,66.94,0,0,0,258,17.18a160.34,160.34,0,0,0-14.62,41c-.71,3.38-.64,6.92-.94,10.53-5.24-6.93-6.65-15.23-8.22-23.47l-.62-.1a9.71,9.71,0,0,1-.7,1.88c-1.33,2.13-1.87,4.7-3.72,6.57a3.6,3.6,0,0,0-1,2.12,3.54,3.54,0,0,1-1.7,3c-.67.48-1,1.44-1.5,2.17s-.77,1.45-1.38,1.82c-.84.51-1.27.8-.83,1.92a2.23,2.23,0,0,1-.74,2,3,3,0,0,0-1.84,2.32c-.14.8-1.61,1.38-2.48,2.06-.49-.88-1-1.73-1.46-2.63s-.73-1.78-1.1-2.67a32.37,32.37,0,0,0,5,1c1,.05,2.49-.2,2.23-2-3.13,2.07-5.59.53-7.94-1.92l.78,3c-1.4-1.09-1.37-2.36-.46-3.73-2.19-1.86-2.15-1.85-1.09-4.9.12-.35-.37-1-.72-1.4-1.2-1.31-1.27-2.34-.12-3.78-.55,2.64,0,3.8,1.9,3.88a6.74,6.74,0,0,0,2.63-.43A2.16,2.16,0,0,0,218.43,52a7.34,7.34,0,0,1-1.42,2.3c-1.82,1.39-3.42.42-4.21-2.38,0-.26.08-.63,0-.75-2.17-2-2.31-3.3-.49-5.59-1.58-1.71-1.33-3.57-.17-5.4-2.59-2.38-2.76-4.09-.69-6.52-1.55-2.62-1.56-2.88-.23-5.23l-2-2.45c-2.35,5.9-4.76,11.82-7.06,17.79a38.42,38.42,0,0,1-11,15.3,3.75,3.75,0,0,0-1,2.34c-.56,6.77-1.47,13.46-3.95,19.83A41.61,41.61,0,0,1,184,86.05a9.77,9.77,0,0,1-2,2.54c-2.25,2-4.91,3-7.85,1.83s-4.5-3.79-4.65-7a19.27,19.27,0,0,1,4.94-14,36,36,0,0,1,6.75-6.26c2.53-1.69,3.06-3.74,2.76-6.57-3.21,2.85-5.75,6.92-11,5.22-5.12-1.65-5.81-5.95-6.47-10.93-.44,1.31-.72,2.13-1,3a13.22,13.22,0,0,1-6,7.91c-4.49,2.59-8.06,1.82-11.23-2.49-2.46,2.2-4.52,5.19-8.38,4.92-3.41-.23-6.74-.79-9.46-3.23-1.2.75-2.33,1.56-3.55,2.2-4.44,2.32-8.56,1-10-3.82a43.67,43.67,0,0,1-1.26-10.53c-.13-3.13.28-6.28.38-9.42a12.42,12.42,0,0,0-.25-3.23,3.12,3.12,0,0,0-4.11-2.47,8.12,8.12,0,0,0-6.42,6.65c-.72,4-.95,8-1.47,12a44,44,0,0,1-1.13,6,4.73,4.73,0,0,1-4.76,3.74c-2.71.05-5.41,0-8.22,0-.39,4.67-.7,9-1.12,13.31-.25,2.58-.62,5.16-1,7.72-.7,4.59-2.91,8.12-7.3,10Zm9.37-61a21.55,21.55,0,0,0-3.42,1.55A30.47,30.47,0,0,0,72,46.86a23.67,23.67,0,0,0-1.7,7.88c-.17,3.37,2.72,4.79,5.6,3a7.64,7.64,0,0,0,2.38-1.93,65.38,65.38,0,0,0,5.33-8.56A31.45,31.45,0,0,0,86.29,32.26ZM84.56,64.58l-1-.54a29.62,29.62,0,0,0-3.24,3.77,34.08,34.08,0,0,0-5.19,14.33,10.47,10.47,0,0,0,.48,4.77,4.11,4.11,0,0,0,2.85,2c.68.11,1.76-1,2.32-1.78a7.16,7.16,0,0,0,1.15-3C82.88,77.59,83.71,71.08,84.56,64.58Zm99.08-.47-.76-.26c-3.53,2.84-6.83,5.87-8.84,10.06a17.69,17.69,0,0,0-1.62,9.33c.12,1.4.7,2.68,2.22,3a2.9,2.9,0,0,0,3.18-1.87,9.37,9.37,0,0,0,.78-1.63C180.3,76.51,182,70.31,183.64,64.11ZM152.37,45.35c.26-.78.57-1.54.79-2.33,2.11-7.55,4.11-15.13,4.47-23a10.89,10.89,0,0,0-.35-2.22c-.54.57-1.08,1.13-1.61,1.72a1.48,1.48,0,0,0-.22.49A60.26,60.26,0,0,0,152.37,45.35Zm64.88-24c0,2.87-1.25,4.53-4.08,4.81-2,.21-2.43-1.24-2.89-2.79-.86,1.84-.52,3.25.89,4.21,1.66,1.11,4.52.52,6-1.25A3.56,3.56,0,0,0,217.25,21.35Zm.43,12.27c.07,2.46.14,4.65-2.62,4.93s-3.22-1.85-3.66-4c-1.19,1.79-1.13,3.3.06,4.35a5.25,5.25,0,0,0,6.09-.05C219.06,37.51,219.24,35.75,217.68,33.61Zm9.07,10.73a1.94,1.94,0,0,0-.39,3,6,6,0,0,0,3,1.87,2.6,2.6,0,0,0,3.08-1.68C228.76,47.92,227.66,47.33,226.75,44.34Zm-17-21.92-.64-.21c-1.55,3.78-3.11,7.54-4.61,11.34-.15.39.1.94.17,1.42H205Zm9.06,34.85c.22,1.54-.18,2.43-1.64,2.67-1.78.29-3-.23-3.29-2.45-.8,2-.65,2.77.46,3.52,1.28.87,3.45.83,4.37-.19S220.31,58.77,218.83,57.27ZM229.12,40l-.62-.13a7.22,7.22,0,0,0-.2,2.32,3.46,3.46,0,0,0,3.3,2.65,10.49,10.49,0,0,0,2.44-.34l-.1-.48C230.51,43.77,229.32,42.78,229.12,40Zm-4.35,8.9c-.64,2,0,3.4,1.79,4s3.07.22,3.49-1.21C227.08,52.26,226.07,51.76,224.77,48.87Zm-1.94,5.21-.48,0c.1.9-.13,2.11.37,2.62a5.76,5.76,0,0,0,3.09,1.44c.52.08,1.19-.88,1.8-1.37C224.78,57.63,223.47,56.93,222.83,54.09Zm8.95-18.45c0,1.19.86,1.77,1.95,2a5.92,5.92,0,0,0,1.88-.31Z"/><path d="M399.15,9.07a51.8,51.8,0,0,0-2.39,4.86c-4.29,11.54-7.51,23.34-8.3,35.69a33.73,33.73,0,0,0,.15,5.25,6.8,6.8,0,0,0,.82,2.56c1.58,2.89,4.08,3.4,6.78,1.53a4,4,0,0,1,1.55-.29,5,5,0,0,1-.53,1.35,22.59,22.59,0,0,1-1.86,2c-3.31,3.3-6.73,3.2-9.83-.34a13.7,13.7,0,0,1-3.08-7.42c-.1-.76-.2-1.52-.29-2.16-3,2.66-5.73,5.44-8.81,7.83a21.47,21.47,0,0,1-6.19,3.26c-4.24,1.45-8,0-10.63-3.67-.2-.28-.44-.55-.66-.83-1.44,1.23-2.79,2.43-4.18,3.58-5.4,4.43-12.16,1.2-13.62-4.77a26,26,0,0,1-.48-7.73c.31-4.76.93-9.5,1.48-14.24.23-1.95-.67-3.12-2.64-3.22A6.26,6.26,0,0,0,330.2,37c-1.56,6.67-3.52,13.19-6.91,19.19a11.67,11.67,0,0,1-10.49,6.32c-4.29.09-6.94-2.3-8.87-6.59-.78,1-1.33,1.74-2,2.43a10,10,0,0,1-9.46,2.91,6.85,6.85,0,0,1-5.85-5.47c-1.35-5.4-.64-10.67.93-15.9.34-1.13.66-2.27,1.07-3.68a42.41,42.41,0,0,0-6.12,3.44,5.14,5.14,0,0,0-1.32,3.49,21.92,21.92,0,0,1-9.36,17.59,13.86,13.86,0,0,1-10.27,2.66c-5.65-.74-9.51-5-10-11a23.39,23.39,0,0,1,6.61-18.73,16.47,16.47,0,0,1,12.4-5.1,10.07,10.07,0,0,1,10,8.06c.14.58.26,1.17.46,2,.76-.35,1.46-.62,2.1-1a25.05,25.05,0,0,0,8.18-7.31,3.15,3.15,0,0,1,3.44-1.42c2,.39,2.72,1.71,2.17,3.77-1.09,4.08-2.46,8.11-3.16,12.26a29.23,29.23,0,0,0,.06,9c.5,3.37,3.67,4.59,6.63,2.93a11.2,11.2,0,0,0,2.31-1.41A3.33,3.33,0,0,0,304,53.4c-.28-7.17,2.3-13.62,4.81-20.11A16.19,16.19,0,0,1,310,30.84a3.34,3.34,0,0,1,4.37-1.45c1.76.8,2,1.84,1.34,4.05-1.9,6-3.94,12-5.51,18.17-.51,2,.1,4.29.47,6.41a3.35,3.35,0,0,0,3.18,2.79c1.51.17,2.28-.84,3-2,2.62-4.12,3.63-8.8,4.63-13.46s1.79-9.25,2.63-13.88c.51-2.78,4.24-5.17,6.92-4.26a1.71,1.71,0,0,1,.74,1.35,32.27,32.27,0,0,1-.41,3.67,44,44,0,0,1,4.28-2.23,15.25,15.25,0,0,1,4.81-1.33c4.47-.15,7,3.17,6,7.53s-2.19,8.92-2.94,13.44a19.74,19.74,0,0,0,.16,7c.56,2.81,2.83,4,5.65,3.43a16.46,16.46,0,0,0,3.89-1.41A5,5,0,0,0,356,54.24a28.34,28.34,0,0,1,12.33-21,16,16,0,0,1,10.79-3c1.73.14,3.39,1.06,5.32,1.71.16-.65.36-1.55.59-2.45,1.31-5.27,2.61-10.54,4-15.81,1.27-5,5.17-7,10.15-5.28ZM363.57,50.51c0,.48,0,1,0,1.45.3,3.93,1.86,5.84,5.14,6a7.79,7.79,0,0,0,3.49-.7c4-1.83,6.94-5,9.82-8.16A2.19,2.19,0,0,0,382.5,48c.52-4.13,1.08-8.26,1.45-12.4a2.92,2.92,0,0,0-1.07-2.23,6.8,6.8,0,0,0-6.7-.83C370,34.94,363.7,43.95,363.57,50.51Zm-87.3-8.37c-9.17.76-9.72.35-10.85-8.24-.28.34-.47.55-.63.78a22.91,22.91,0,0,0-1.36,1.92,26.28,26.28,0,0,0-3.68,15.45,22.88,22.88,0,0,0,1.66,6.61c.92,2.29,2.71,3,4.88,1.86a18,18,0,0,0,5.2-4C275,52.39,275.82,47.36,276.26,42.14Zm-.12-1.92c-.16-3.45-.1-6.79-3.09-9.14-1.66-1.3-3.09-.89-3.75,1.09C267.79,36.7,270.81,40.38,276.14,40.22Z"/><path d="M0,25a14.59,14.59,0,0,1,11.62-9.25c3.37-.52,6.87-.23,10.31-.26s7.08,0,10.77,0c-.32-2.8-.62-5.37-.91-7.93-.09-.78-.15-1.57-.29-2.34a2.39,2.39,0,0,1,2.15-3.12c1.3-.26,2.61-.52,3.88-.88s1.8.24,1.94,1.39c.39,3.12.86,6.22,1.11,9.35.12,1.51.56,2,2.09,1.73A44.77,44.77,0,0,0,58.45,7.59c1.74-1.1,3.07-2.86,4.57-4.34.46-.45.86-1,1.31-1.45a3.73,3.73,0,0,1,.45,4.74,17.82,17.82,0,0,1-3.46,3.67c-5.52,4.21-11.49,7.6-18.41,8.94-1.4.27-1.35,1.08-1.36,2.08-.07,6,.15,12.1-.31,18.11a114.82,114.82,0,0,1-2.5,17.34c-1.86,8-7.62,12.83-15,15.81A12.69,12.69,0,0,1,13,72.19c-3.25-1.62-4.89-4.39-4.48-7.37.53-3.88,3-7,6.57-7.5a5.63,5.63,0,0,1,3.74,1.12,3.22,3.22,0,0,1,.69,2.85c-.15.56-1.51.91-2.38,1.1S15.76,62,15.52,61c-.35-1.47-1.42-1.71-2.57-.73a3.67,3.67,0,0,0,.61,6.32,8.29,8.29,0,0,0,8.31,0,17.82,17.82,0,0,0,7.87-8.95A52.26,52.26,0,0,0,33.59,42a104.38,104.38,0,0,0-.16-20.94c-7.34-.89-14.61-2.63-22.09-1.44a4.53,4.53,0,0,0-3.75,4.11,45.2,45.2,0,0,0,0,5.06c.08,2.43-.44,2.83-2.85,2.59S1.17,29.66,0,27.94Z"/><path d="M207.47,8.63c-.05-2.33-2.35-5.11-5-6a5.4,5.4,0,0,1-1-.31,7,7,0,0,1-1-.86c.41-.26.81-.68,1.25-.74,2.18-.29,4.37-.48,6.56-.71H213c1.61,1,2.1,2.61,2.25,4.44.06.7.7,1.35,1.07,2l-.12.15c-.23.13-.63.23-.66.4-.46,2.82-2.69,3.22-4.91,3.61-1.2.21-2.13-.06-2.41-1.46C208.19,8.94,207.74,8.8,207.47,8.63Z"/><path d="M208,16.66c-1.47-1.6-.38-2.8.41-3.68a22.23,22.23,0,0,1-1.88-3c-.11-.26.64-.91,1-1.37-1,2.07-.4,3.39,1.87,3.25a17.12,17.12,0,0,0,5.37-1.28c2-.82,2.23-1.84,1.43-3.94l.12-.15c1.35,1.07,1,2.32.18,3.44-.64.89-.61,1.34.11,2.27.56.72.35,2,.49,3.11l-.46,0L217.76,17l-.08.06-1-.71c-.14.49-.23.84-.34,1.18a4.62,4.62,0,0,1-4,3.22c-1.91.25-2.62-.8-2.87-2.56l-.46.15-.41,2.34h0c-.94-1.25-.25-2.2.61-3.08l-1.31-1c.46.11.93.21,1.39.33,2.71.71,5.82-.24,6.95-2.24a6.54,6.54,0,0,0,.4-2l-.49-.15c-.76,2.36-2.57,2.94-4.77,3.15-1.75.17-2.1-1-2.61-2.21l-.56,0Z"/><path d="M55.42,21.75a2.92,2.92,0,0,1,3,3,2.91,2.91,0,0,1-3,3.13,2.79,2.79,0,0,1-3.1-2.8A3.31,3.31,0,0,1,55.42,21.75Z"/></g></g></svg>