<svg xmlns="http://www.w3.org/2000/svg" viewBox="0 0 163.07 164.06"><defs><style>.cls-1{fill:#ef5035;}</style></defs><title>webby-red</title><g id="Layer_2" data-name="Layer 2"><g id="Layer_1-2" data-name="Layer 1"><path class="cls-1" d="M82,164.06c-23.69-.42-43.5-8.82-59.54-25.71A80.91,80.91,0,0,1,1.77,98.73,77.38,77.38,0,0,1,.13,78C1.45,55.43,10.4,36.39,27.07,21.08A79.6,79.6,0,0,1,63.39,2,77.77,77.77,0,0,1,76.12.19a80.43,80.43,0,0,1,55,16.79,82,82,0,0,1,31.33,55.25,78.35,78.35,0,0,1,.5,13.66,82.05,82.05,0,0,1-58.58,74.83,70.71,70.71,0,0,1-14.9,2.85C86.84,163.78,84.2,163.91,82,164.06Zm78.94-84.81a78.12,78.12,0,0,0-2.7-17.89c-8.71-32.81-37.77-57.2-72.26-59.06A78.19,78.19,0,0,0,57.9,5.79,79.81,79.81,0,0,0,4.08,99.22c7.7,34.69,37.42,60.69,73.34,62.49A78.08,78.08,0,0,0,108,157.26C140,145.79,160.92,116,160.91,79.24Z"/><path class="cls-1" d="M158.69,82a78,78,0,0,1-51.53,73.52,76.72,76.72,0,0,1-29.07,4.44A78.08,78.08,0,0,1,59.9,6.94a77.49,77.49,0,0,1,95.29,51.8A78.42,78.42,0,0,1,158.69,82Zm-19.55,0A58.23,58.23,0,0,0,81.19,23.67c-32-.07-58,26.11-58,58.31s26,58.37,58,58.33A58.23,58.23,0,0,0,139.14,82ZM68.55,150l-.17,0-.26-4.22-1.23-.27-2,3.78-.15-.07-.22-4.2-1.46-.32.45,7.19,1.28.26,1.94-3.55.2.07.3,4,1.29.28,3.36-6.37-1.45-.31ZM24.9,126.58l6.73-2.53-.89-1.2-3.91,1.56-.09-.14,2.61-3.38-.77-1-3.94,1.49-.1-.14L27.18,118l-.91-1.22-4.4,5.69.8,1,3.86-1.4.09.13-2.49,3.3Zm94.75,16.28L118,140l-1.79-3.05-1.2.74,1.78,3.11-.15.12-3.88-1.93-1.13.67,1.75,3,1.72,2.94,1.2-.73-1.86-3.26.12-.12,4.08,2Zm-80.79-2.78,2.33,1.59a3.36,3.36,0,0,0,.51.28,1.81,1.81,0,0,0,2.73-1.2,4.8,4.8,0,0,0-.1-1.33c1.71-.51,2.28-2,1.07-3.11a25.74,25.74,0,0,0-2.65-2Zm-6.11-4.94c1,.78,1.92,1.55,2.9,2.22a1.6,1.6,0,0,0,1.91-.07,1.69,1.69,0,0,0,.75-1.76c0-.15-.05-.3-.09-.53a1.77,1.77,0,0,0,1.89-1.4,2.18,2.18,0,0,0-1-2.16l-1.87-1.6Zm51.57,16.34c.21-.19.36-.31.5-.45a2.3,2.3,0,0,0,.55-2.42,1.88,1.88,0,0,0-1.75-1.45c-1-.08-2.09,0-3.09,0v6.94L82,154v-2.23l.81,0,1.33,2.2,1.58-.12Zm27.28-6.28a4.38,4.38,0,0,0-1.49-3.17,3,3,0,0,0-4.86,1.54,4,4,0,0,0,1.14,3.83,2.81,2.81,0,0,0,3.36.72A3,3,0,0,0,111.6,145.2Zm16.64-12.13.7-.53,2.39.71,1.17-1.11-2.69-.87c0-.23,0-.38,0-.54a2.27,2.27,0,0,0-1.37-2.35,2.06,2.06,0,0,0-2.48.48c-.66.61-1.28,1.25-2,1.93l4.72,4.95,1-1ZM88.13,153.6a26.33,26.33,0,0,0,2.74-.44c1.74-.46,2.56-2,2.23-3.95a3.07,3.07,0,0,0-3.28-2.77c-.83,0-1.65.19-2.6.31Zm30.75-17.46a4.3,4.3,0,0,0,1.75,3.21,3,3,0,0,0,3.6.13,3,3,0,0,0,1.16-3.42,4.36,4.36,0,0,0-1.81-2.44,2.81,2.81,0,0,0-3.12-.17A2.88,2.88,0,0,0,118.88,136.14Zm-21.49,8.81,2,6.61,1.36-.44-.74-2.66,2.06-.63.85,2.64,1.36-.41-2-6.58-1.37.39.74,2.67-2.06.59-.84-2.58Zm39.92-23.18,1.45-2.18-1.06-.71L136.16,121,135,120.2l1.66-2.47-1.07-.73-2.52,3.66,5.65,3.93,2.54-3.69-1.08-.73-1.74,2.48Zm-6.24,3.75,1.91-2.29-1-.84-2.86,3.38,5.23,4.48,2.9-3.45-1-.8-1.95,2.27-1.1-.95,1.65-2-1-.83-1.71,2Zm-96.22,3.89.91-.83-3.09-3.24-5,4.75,3.13,3.33.92-.92-2-2.17,1.09-1.15,1.72,2,.9-1-1.78-1.94,1-.94Zm40,17.41-3,6.66,1.39.14L74,152.2l2.23.21.45,1.48,1.46.16-1.87-7.14ZM58.81,143l-4.62,5.73,1.35.45,1-1.19,2.16.79v1.55l1.32.47v-7.35ZM13.12,84.31,16,81.47l-2.8-2.65-2.83,2.69Zm133-2.8L149,84.26l2.79-2.71L149,78.78ZM47.69,137.77c-.23,2.51.53,5-1.42,7l1.33.76a8.37,8.37,0,0,0,.56-1,4.51,4.51,0,0,1,2.09-2.3c.86-.48,1.66-1.09,2.59-1.7l-1.38-.75L49,141.47v-3Z"/><path class="cls-1" d="M86.88,68.29a6.14,6.14,0,0,0-1.29-.48c-2.56-.35-5.12-.7-7.7-1-2.06-.21-4.13-.3-6.19-.46-.41,0-.82-.11-1.4-.19l.18-2c1.78-.14,3.43-.23,5.06-.41q5-.54,9.92-1.16a4.19,4.19,0,0,0,1.6-.63c-2-1.38-4.28-1.24-6.59-1.74l1.42-1.76a24.36,24.36,0,0,1,8.17,1.79l.25.14c.61.38,1.23.78,1.24,1.61a1.63,1.63,0,0,1-1.29,1.53c-1.71.57-3.45,1-5.18,1.54a.72.72,0,0,0-.4.2c.54.14,1.09.25,1.62.42,1.2.37,2.4.74,3.59,1.16a4.37,4.37,0,0,1,1.17.67,1.14,1.14,0,0,1,.13,2,6.37,6.37,0,0,1-2.06,1.21c-1.31.45-2.67.74-4.12,1.12,1,.23,1.91.39,2.8.68a18.69,18.69,0,0,1,3.06,1.18c1.33.7,1.33,1.67.07,2.51a13.73,13.73,0,0,1-4.71,1.71,7.41,7.41,0,0,0-1.69.52c1,.23,2,.41,3,.69a33.57,33.57,0,0,1,3.3,1.12,6.23,6.23,0,0,1,1.24.87,2,2,0,0,1-1.39,1.79c-1.56.6-3.17,1.09-4.76,1.61-.3.1-.62.16-1.13.29,1.42.27,2.64.44,3.82.74a11,11,0,0,1,2.53,1c1.27.69,1.38,1.88.19,2.7a15.38,15.38,0,0,1-3.22,1.51,24.55,24.55,0,0,1-2.75.69c1.28.29,2.33.49,3.36.78A16.78,16.78,0,0,1,91,93a2.35,2.35,0,0,1,1.6,2.82l-4,2,0,.21,4-.6,0,.8-4.33,2.31v.11l4.27-.61a33.43,33.43,0,0,1-.07,4.45c-.08.56-.8,1.2-1.39,1.49a16.31,16.31,0,0,1-3.63,1.3A29.8,29.8,0,0,1,73.32,107a15.9,15.9,0,0,1-3.09-1.34,2,2,0,0,1-1.07-2c.06-1.15,0-2.31,0-3.53l3.73.53,0-.11-3.74-2v-1l3.44.41.05-.18-3.43-1.7a2.3,2.3,0,0,1,1.19-3,2.22,2.22,0,0,1,.31-2.58c1.22-.11,2.57-.2,3.91-.38,3.37-.43,6.73-.88,10.09-1.39a13.2,13.2,0,0,0,2.14-.69V87.7a7.09,7.09,0,0,0-1.37-.46c-1.76-.22-3.53-.45-5.3-.56-2.91-.18-5.82-.27-8.73-.39-1,0-1.43-.33-1.44-1s.47-1.14,1.44-1.23c2.42-.22,4.84-.38,7.25-.67,2.18-.26,4.35-.62,6.52-1a9.17,9.17,0,0,0,1.65-.61v-.35a9.23,9.23,0,0,0-1.66-.55c-2.27-.3-4.55-.59-6.84-.8-2.64-.24-5.29-.39-7.84-.58A1.18,1.18,0,0,1,70,78c.19-.54.64-.64,1.16-.68,3.45-.29,6.9-.56,10.34-.91,1.44-.15,2.87-.45,4.3-.73A6.55,6.55,0,0,0,87,75.17c-.26-.68-.8-.7-1.24-.75-2.6-.29-5.21-.55-7.82-.77-2.13-.18-4.26-.28-6.39-.43a7.47,7.47,0,0,1-.86-.14A1,1,0,0,1,69.81,72a1,1,0,0,1,1-1.13c1.35-.12,2.72-.15,4.06-.31q5.29-.63,10.58-1.36a6.77,6.77,0,0,0,1.46-.56Z"/><path class="cls-1" d="M107.29,108.25l.51-.47,12.88,12.63-.46.52Z"/><path class="cls-1" d="M108.35,107.07l.45-.53,13.46,12.11-.38.58Z"/><path class="cls-1" d="M59.75,51.62l-.54.43L48.69,37.34l.51-.47Z"/><path class="cls-1" d="M44.77,123.5l-.55-.42,12-13.52.58.38Z"/><path class="cls-1" d="M107.21,55.67l-.48-.5,12.6-13,.51.47Z"/><path class="cls-1" d="M106.11,109.38l.51-.47L119,122.14l-.46.52Z"/><path class="cls-1" d="M113.49,126.78l-.59.37L102.4,112.46l.51-.47Z"/><path class="cls-1" d="M113.89,37.5l.53.45-10.8,14.51-.57-.4Z"/><path class="cls-1" d="M105.71,32.44l.61.31L98.16,49l-.62-.3Z"/><path class="cls-1" d="M125.35,115l-.45.53-14.44-10.87.42-.55Z"/><path class="cls-1" d="M109.42,58l-.46-.51,13.75-11.91.42.55Z"/><path class="cls-1" d="M36.81,49.15l.43-.55L51.69,59.49l-.39.57Z"/><path class="cls-1" d="M50.74,60.85l-.4.57L35.43,51.2l.35-.6Z"/><path class="cls-1" d="M75.27,26.91l.68,0,1.8,18-.67.2Z"/><path class="cls-1" d="M95.19,47.63l-.58-.31,6.69-16.8c.71.1.56.45.41.84-.6,1.5-1.2,3-1.79,4.5L95.58,46.74C95.47,47,95.35,47.26,95.19,47.63Z"/><path class="cls-1" d="M55.11,108.42l.52.46-12.6,13-.52-.45Z"/><path class="cls-1" d="M104.92,110.44l.53-.45,11.85,13.84-.56.41Z"/><path class="cls-1" d="M99,29.62l.65.2-6,17.2L93,46.74Z"/><path class="cls-1" d="M38.26,47.29l.43-.54,14,11.49-.42.55Z"/><path class="cls-1" d="M108.36,56.87l-.46-.51,13.24-12.5.42.56Z"/><path class="cls-1" d="M56,54.7l-.53.45L43.12,41.85l.54-.43Z"/><path class="cls-1" d="M57.22,53.64l-.52.46L44.86,40.27l.53-.45Z"/><path class="cls-1" d="M35.29,112.66l-.35-.6L50,102.14l.41.56Z"/><path class="cls-1" d="M67.16,116.39l.56.33L61,133.47c-.6,0-.64-.28-.46-.7.43-1,.84-2.1,1.25-3.15l4.9-12.32C66.86,117,67,116.72,67.16,116.39Z"/><path class="cls-1" d="M109.45,105.85l.46-.51,14,11.48-.41.56Z"/><path class="cls-1" d="M54.55,130.46l-.6-.33,8.83-15.85.6.34Z"/><path class="cls-1" d="M126.73,113l-.38.58L111.44,103.3l.38-.58Z"/><path class="cls-1" d="M36.69,114.66l-.4-.56L50.93,103.5l.46.52Z"/><path class="cls-1" d="M41.31,120.15l-.51-.47L54,107.27l.52.46Z"/><path class="cls-1" d="M48.46,99.31l.26.64L32.85,108.5l-.38-.58Z"/><path class="cls-1" d="M118.19,81.28l18-.23v.69L118.07,82Z"/><path class="cls-1" d="M39.71,118.41l-.48-.5,13.68-11.85.46.52Z"/><path class="cls-1" d="M27.13,71.08l.18-.67,17.57,3.7v.7Z"/><path class="cls-1" d="M51.88,104.78l.48.5L38.17,116.52l-.48-.51Z"/><path class="cls-1" d="M103.48,31.38l.61.31-7.4,16.5L96,47.95Z"/><path class="cls-1" d="M46.79,38.73l.56-.41L58.49,52.57,58,53Z"/><path class="cls-1" d="M115.73,39l.55.42-11.41,14-.59-.37Z"/><path class="cls-1" d="M117.62,40.56l.52.45L106,54.64l-.46-.52Z"/><path class="cls-1" d="M54.9,55.9l-.5.48-13-12.79.53-.46Z"/><path class="cls-1" d="M124.23,47.57l.43.54L110.49,59.32l-.47-.51Z"/><path class="cls-1" d="M112.32,62l-.39-.57L127,51.52l.46.53Z"/><path class="cls-1" d="M93,117.26l5.61,17.18c-.45.33-.66.21-.8-.24-.35-1.11-.72-2.21-1.08-3.32l-4.38-13.42Z"/><path class="cls-1" d="M49,63.6l-.35.6L32.92,55.32l.3-.63Z"/><path class="cls-1" d="M48.27,65l-.36.6-16-8.15.19-.67Z"/><path class="cls-1" d="M101,113.35l.56-.4,9.89,15.22-.6.34Z"/><path class="cls-1" d="M70.12,117.52l.67.15L65.59,135l-.7-.06Z"/><path class="cls-1" d="M90.77,117.85l.67-.13,4.89,17.45-.64.25Z"/><path class="cls-1" d="M57.49,110.6,58,111,46.61,125.09l-.54-.43Z"/><path class="cls-1" d="M133.9,97.78l-.17.67L116.4,93.18l.15-.67Z"/><path class="cls-1" d="M34,110.65l-.34-.61,15.47-9.25.44.54Z"/><path class="cls-1" d="M68.63,117l.62.3-5.94,17.09-.67-.18Z"/><path class="cls-1" d="M96.75,28.94l.67.16-5.2,17.32-.7-.05Z"/><path class="cls-1" d="M113.46,99.94l15.81,8.92-.34.6-15.74-8.87Z"/><path class="cls-1" d="M30.68,104.2l-.25-.65L47,96.42l.34.61Z"/><path class="cls-1" d="M114.63,97.68l.36-.6,16.44,7.46-.34.6Z"/><path class="cls-1" d="M65.65,115.74l.61.32-7.41,16.53-.65-.22Z"/><path class="cls-1" d="M105.29,131.77l-.63.27-7.84-16.35.62-.31Z"/><path class="cls-1" d="M59.1,31.22l.64-.24,7.1,16.68-.61.32Z"/><path class="cls-1" d="M115.36,125.32l-.53.44L103.67,111.5l.51-.47Z"/><path class="cls-1" d="M117.55,75.44l-.2-.6,17.77-3.39c.29.68-.11.73-.51.81l-6.85,1.31-9.33,1.78C118.16,75.4,117.87,75.41,117.55,75.44Z"/><path class="cls-1" d="M46.92,67.94l-.3.63L29.9,61.83l.21-.66Z"/><path class="cls-1" d="M113.95,64.81l-.35-.59,15.9-8.57.35.6Z"/><path class="cls-1" d="M113.1,63.38l-.32-.61,15.51-9.27.39.57Z"/><path class="cls-1" d="M49.86,62.17l-.37.58L34.18,53.2l.31-.62Z"/><path class="cls-1" d="M52.46,129.23l-.59-.36,9.5-15.4.62.3Z"/><path class="cls-1" d="M53.75,57l-.44.54L39.84,45.4l.46-.52Z"/><path class="cls-1" d="M109.49,129.43l-.57.38-9.24-15.63.58-.38Z"/><path class="cls-1" d="M50.69,35.9l.55-.42,9.87,15.18-.52.47Z"/><path class="cls-1" d="M109.91,34.79l.59.35L101,50.55l-.63-.3Z"/><path class="cls-1" d="M52.65,34.6l.6-.34,9.2,15.56-.54.44Z"/><path class="cls-1" d="M99.53,49.76l-.59-.35,8.81-15.82.62.31Z"/><path class="cls-1" d="M60.07,112.54l.56.41L50.46,128l-.55-.41Z"/><path class="cls-1" d="M98.26,115l.59-.36,8.5,16-.54.44Z"/><path class="cls-1" d="M91.67,136.32l-.67.14-3.37-17.88h.7Z"/><path class="cls-1" d="M58.76,111.57l.54.44L48.47,126.55l-.55-.41Z"/><path class="cls-1" d="M30.74,59.62l.34-.61,16.43,7.46-.26.64Z"/><path class="cls-1" d="M131.64,60l.29.63-16.58,7.14-.37-.59Z"/><path class="cls-1" d="M114.59,66.25l-.25-.65,16.25-7.88.3.62Z"/><path class="cls-1" d="M29,64.13l.28-.63,17,6-.17.67Z"/><path class="cls-1" d="M125.64,49.45,126,50,111.34,60.65l-.45-.53Z"/><path class="cls-1" d="M27.65,68.7l.24-.65L45.3,72.51l0,.7Z"/><path class="cls-1" d="M117.23,73.95l-.16-.67,7-1.64L134,69.31c.37-.09.77-.3.9.49Z"/><path class="cls-1" d="M63.93,49.06l-.61.33-8.52-16,.58-.38Z"/><path class="cls-1" d="M135.85,76.24l.14.67-18,1.81c-.18-.81.35-.73.72-.77l5.41-.55Z"/><path class="cls-1" d="M56.89,32.31l.6-.35,7.84,16.37-.6.33Z"/><path class="cls-1" d="M118.07,80.37,118,79.7l18-1,.06.69Z"/><path class="cls-1" d="M68.32,47.11l-.64.25-6.39-17,.63-.27Z"/><path class="cls-1" d="M26.19,85.51c-.15-.9.44-.72.79-.74,2.35-.15,4.71-.27,7.07-.4l9.68-.53a4.14,4.14,0,0,1,.42,0l.13.63Z"/><path class="cls-1" d="M117.85,86.8V86.1l17.92,2.16V89Z"/><path class="cls-1" d="M92.76,27.88,89.07,45.63c-.79,0-.61-.44-.53-.83q.65-3.13,1.3-6.25,1-5,2.1-10C92,28.15,92,27.66,92.76,27.88Z"/><path class="cls-1" d="M133,100.71l-17.06-6,.16-.67,17,6Z"/><path class="cls-1" d="M80.07,26.63l.77.06V44.79l-.51.07Z"/><path class="cls-1" d="M63.58,29.44l.68-.12L69.87,46.5l-.62.31Z"/><path class="cls-1" d="M103.08,132.77l-.62.29-7.12-16.72.63-.27Z"/><path class="cls-1" d="M71.39,46.09c-.71.31-.74-.11-.83-.45l-2-7.18Q67.3,34,66,29.51c-.11-.38-.31-.76.45-.91Z"/><path class="cls-1" d="M100.88,133.67l-.65.24-6.39-17,.65-.21Z"/><path class="cls-1" d="M72.35,45.86,68.23,28.19l.56-.2a1.28,1.28,0,0,1,.17.29q1.94,8.3,3.87,16.61C72.91,45.24,73.18,45.75,72.35,45.86Z"/><path class="cls-1" d="M112.46,36.45,102.25,51.51l-.55-.41,10.13-15Z"/><path class="cls-1" d="M71.79,117.94l.65.23L68,135.81l-.65-.23Z"/><path class="cls-1" d="M89.2,118.3l.67-.17c.52,2.25,1,4.45,1.54,6.65.79,3.4,1.6,6.79,2.38,10.19.08.35.37.82-.45,1.08Z"/><path class="cls-1" d="M81.23,119.14l.76.06v18.1l-.51.07Z"/><path class="cls-1" d="M115.9,69.22l-.3-.62,16.9-6.43.27.63Z"/><path class="cls-1" d="M28.3,66.39l.2-.66L45.78,71l-.15.68Z"/><path class="cls-1" d="M47.71,97.89l.31.62-16.26,7.88-.32-.61Z"/><path class="cls-1" d="M44.3,79l-.05.69-18-1.36.08-.67Z"/><path class="cls-1" d="M130.37,106.75l-.3.62L114,99.19l.24-.65Z"/><path class="cls-1" d="M132.36,102.35l-.3.63L115.3,96.23l.23-.65Z"/><path class="cls-1" d="M29.81,102l-.28-.63,16.85-6.42.38.59Z"/><path class="cls-1" d="M44.31,85.46v.69L26.44,88l-.15-.67Z"/><path class="cls-1" d="M76.5,118.95h.6a3.18,3.18,0,0,1,0,.56q-.4,3.42-.81,6.83-.56,4.71-1.13,9.43a4.43,4.43,0,0,1-.17,1c0,.14-.28.21-.43.31l-.23-.13Z"/><path class="cls-1" d="M83.55,44.77l1.33-17.92c.71-.19.66.21.63.57q-.12,1.84-.25,3.68-.46,6.29-.94,12.57a3.54,3.54,0,0,1-.1.86c-.06.17-.27.29-.42.44Z"/><path class="cls-1" d="M28.31,97.41,28,96.78l17.4-4.93.28.64Z"/><path class="cls-1" d="M112.3,102l.36-.59L128,111l-.33.61Z"/><path class="cls-1" d="M90.69,46.06,90,45.87l4.46-17.61.65.2Z"/><path class="cls-1" d="M116.85,91.53l.19-.58a2.76,2.76,0,0,1,.48,0l16.22,4.17c.37.09.91.06.63.86Z"/><path class="cls-1" d="M26.7,90.31v-.69L44.48,87l.06.68Z"/><path class="cls-1" d="M118,85.22v-.69l18,1.35v.68Z"/><path class="cls-1" d="M26.11,83.15v-.69l18-.24,0,.68Z"/><path class="cls-1" d="M82.83,119.15h.68l1,18.11-.68.05Z"/><path class="cls-1" d="M26.7,73.44l.17-.61,17.84,2.94c-.17.91-.73.57-1.09.51-2.33-.36-4.65-.75-7-1.13l-9.46-1.56A4.5,4.5,0,0,1,26.7,73.44Z"/><path class="cls-1" d="M133.4,64.47l.1.69-7.29,2.42-9.11,3c-.35.12-.76.38-.88-.42Z"/><path class="cls-1" d="M77.36,137.27l-.67-.13,1.33-18,.69-.11Z"/><path class="cls-1" d="M86.94,137.05c-.85.18-.72-.36-.76-.69-.16-1.38-.28-2.76-.42-4.14q-.57-5.73-1.14-11.47a9.69,9.69,0,0,1-.08-1.35c0-.18.2-.35.31-.52l.29.07Z"/><path class="cls-1" d="M26.47,75.75l.05-.64,17.9,2.15c.08.75-.36.65-.72.61-1.12-.12-2.24-.26-3.37-.4l-13-1.56C27.09,75.89,26.84,75.82,26.47,75.75Z"/><path class="cls-1" d="M117.79,77.15v-.7l17.79-2.57.07.68Z"/><path class="cls-1" d="M134.24,67.41l-17.33,4.91-.26-.54a1.79,1.79,0,0,1,.36-.21L133.33,67C133.69,66.85,134.1,66.63,134.24,67.41Z"/><path class="cls-1" d="M89.67,27.24l.66.2L87.45,45.25h-.69Z"/><path class="cls-1" d="M88.11,26.84C88,28,87.9,29,87.79,29.95q-.85,7.16-1.71,14.32c0,.37.07.93-.75.75.09-.86.16-1.71.26-2.56q.85-7.21,1.72-14.42a2.52,2.52,0,0,1,.15-.76C87.52,27.14,87.74,27.07,88.11,26.84Z"/><path class="cls-1" d="M118,82.93l18.11.58c.16.7-.24.65-.59.64-1.42,0-2.84-.06-4.27-.1q-6.11-.19-12.21-.4C118.66,83.64,118.1,83.83,118,82.93Z"/><path class="cls-1" d="M117.67,87.77l4.34.68,12.72,2.1c.36.06.85,0,.66.72a3.82,3.82,0,0,1-.62,0l-16.45-2.71C118,88.5,117.46,88.56,117.67,87.77Z"/><path class="cls-1" d="M44.73,88.72l.23.62L27.18,92.72c0-.69,0-.69.6-.81l6.75-1.3,9.32-1.78C44.1,88.78,44.36,88.76,44.73,88.72Z"/><path class="cls-1" d="M135.06,93.1l-.1.68-17.64-3.71a.89.89,0,0,1-.06-.29,2.24,2.24,0,0,1,.16-.39Z"/><path class="cls-1" d="M45,90.24l.23.59a6.44,6.44,0,0,1-.62.22l-8.28,2-8,1.87c-.38.09-.78.29-.88-.49Z"/><path class="cls-1" d="M46.13,94,29,99.68,28.75,99l1.86-.63,14.53-4.79C45.51,93.51,45.95,93.19,46.13,94Z"/><path class="cls-1" d="M73.24,118.32l.66.13c-.29,1.43-.56,2.81-.84,4.19q-1.33,6.39-2.68,12.78c-.08.38,0,.89-.84.69Z"/><path class="cls-1" d="M79.41,44.82h-.68l-1-18.11.68,0Z"/><path class="cls-1" d="M83.17,26.65c0,.27,0,.46,0,.64q-.26,8.38-.54,16.76c0,.31.19.86-.56.77a4.08,4.08,0,0,1-.08-.63q.24-8.28.51-16.57C82.53,27.27,82.27,26.64,83.17,26.65Z"/><path class="cls-1" d="M56.64,131.58l-.61-.33,8.15-16.2.62.29Z"/><path class="cls-1" d="M70.57,27.67c.67-.22.69.19.75.54l2.34,12.46q.44,2.32.86,4.64c-.71.37-.71-.16-.78-.49-.29-1.42-.55-2.85-.81-4.28q-1.13-6-2.27-12.08C70.62,28.22,70.61,28,70.57,27.67Z"/><path class="cls-1" d="M79.64,119.17l.66,0-.57,18.12c-.63,0-.65,0-.64-.51q0-2,.09-4,.18-6,.38-11.92C79.57,120.29,79.61,119.75,79.64,119.17Z"/><path class="cls-1" d="M72.59,136.75l-.65-.22c.47-2.95.93-5.85,1.4-8.75.44-2.74.88-5.49,1.35-8.23.06-.33-.1-.95.81-.79Z"/><path class="cls-1" d="M72.95,27.25l.68-.06,2.56,17.92-.67.15Z"/><path class="cls-1" d="M44.06,81.25,26.2,80.68c-.23-.67.15-.66.52-.65,1,0,2.07,0,3.1.06l12.59.4a10.32,10.32,0,0,1,1.35.09c.17,0,.32.24.48.36Z"/><path class="cls-1" d="M88.62,136.88c-.26-1.78-.51-3.43-.75-5.09-.57-3.93-1.14-7.87-1.67-11.81-.06-.41-.45-1,.5-1.3l2.58,18Z"/><path class="cls-1" d="M40.75,139.82l.9-1.31a7.47,7.47,0,0,1,1.26,1,1,1,0,0,1,.1.93,1,1,0,0,1-.89.24A7.59,7.59,0,0,1,40.75,139.82Z"/><path class="cls-1" d="M43.92,138.48l-1.6-1,.88-1.27,1.47,1.2Z"/><path class="cls-1" d="M34.71,135l1-1.21,1.43,1.36c-.37,1.09-.73,1.22-1.48.67C35.38,135.63,35.1,135.36,34.71,135Z"/><path class="cls-1" d="M36.51,132.91l1-1.14a6,6,0,0,1,1,.93.87.87,0,0,1,0,.83,1,1,0,0,1-.9.18A5,5,0,0,1,36.51,132.91Z"/><path class="cls-1" d="M81.95,150.36v-1.88c.7,0,1.44-.32,1.89.4a1.23,1.23,0,0,1,0,1.09C83.39,150.65,82.67,150.46,81.95,150.36Z"/><path class="cls-1" d="M106.63,144.45a1.52,1.52,0,0,1,.92-1.66,1.29,1.29,0,0,1,1.64.45,6.64,6.64,0,0,1,.92,2.08,1.34,1.34,0,0,1-.81,1.51,1.42,1.42,0,0,1-1.69-.34A3.15,3.15,0,0,1,106.63,144.45Z"/><path class="cls-1" d="M127.38,129.51c1.47.76,1.44,1.3,0,2.58-.22-.2-.46-.4-.67-.62s-.42-.48-.72-.82Z"/><path class="cls-1" d="M88.83,147.94c1.8-.37,2.59.17,2.81,1.8.2,1.43-.48,2.16-2.24,2.3Z"/><path class="cls-1" d="M124.12,137a1.45,1.45,0,0,1-2,1.45,2.93,2.93,0,0,1-1.76-2.28,1.21,1.21,0,0,1,.62-1.41,2.05,2.05,0,0,1,1.45-.09A2.92,2.92,0,0,1,124.12,137Z"/><path class="cls-1" d="M75.91,151l-1.36-.07.71-1.77h.19Z"/><path class="cls-1" d="M58.69,145.49v1.83l-1.3-.45,1.16-1.47Z"/><path class="cls-1" d="M58.65,81A18.42,18.42,0,0,1,59.16,79a2.78,2.78,0,0,1,5.2-.08,5.4,5.4,0,0,1,0,4.31,2.67,2.67,0,0,1-2.6,1.73,2.57,2.57,0,0,1-2.53-1.66A16.17,16.17,0,0,1,58.65,81ZM63,81a8.67,8.67,0,0,0-.43-1.63,1.17,1.17,0,0,0-.84-.56,1,1,0,0,0-.75.53,3.71,3.71,0,0,0,0,3.27,1.11,1.11,0,0,0,.84.55,1.15,1.15,0,0,0,.79-.62A8.27,8.27,0,0,0,63,81Z"/><path class="cls-1" d="M52.66,79.64l-1-1.13a3.07,3.07,0,0,1,2.59-1.38,2.27,2.27,0,0,1,2.25,1.22,2.35,2.35,0,0,1-.27,2.56,9.54,9.54,0,0,1-1,1c-.34.35-.7.69-1.22,1.2h2.64v1.54H51.74a1.81,1.81,0,0,1,.56-2.1,20.09,20.09,0,0,0,2-2c.57-.61.66-1.14.34-1.51s-.9-.29-1.53.18Z"/><path class="cls-1" d="M99.39,77.79l3-.57a42.24,42.24,0,0,1,.14,7.46h-1.73V79.23l-1.14.1Z"/><path class="cls-1" d="M110,82a2.18,2.18,0,0,0-1.47-1.51,3.06,3.06,0,0,0-1.11-.25,2.63,2.63,0,0,0-1.13.23,3.91,3.91,0,0,1,.33-1.16,1,1,0,0,1,.75-.53,1.17,1.17,0,0,1,.84.56l1.5-1.09a2.67,2.67,0,0,0-2.28-1.19,2.71,2.71,0,0,0-2.62,1.84,4.89,4.89,0,0,0-.3,1.83,7.85,7.85,0,0,0,.36,2.47,2.47,2.47,0,0,0,1.43,1.44,2.9,2.9,0,0,0,1.1.23,2.87,2.87,0,0,0,1.15-.25A2.22,2.22,0,0,0,110,83.16,3.8,3.8,0,0,0,110,82Zm-2.61,1.36c-.4,0-1-.43-1-.84s.7-.77,1-.77,1.11.47,1.11.77S107.85,83.41,107.43,83.41Z"/></g></g></svg>