<svg xmlns="http://www.w3.org/2000/svg" viewBox="0 0 197.87 197.87"><title>WMATX-black</title><g id="Layer_2" data-name="Layer 2"><g id="Layer_1-2" data-name="Layer 1"><path d="M106.54,129.08l-.33-3.28-.24-2.23-.09-.95c0,1.09-.1,1.47-.19,2.33,0,.38-.14,1.8-.38,4.27l-.19,2.09-.66,5.6h3.09l-.71-5.6C106.73,130.51,106.63,129.75,106.54,129.08Z"/><path d="M102.14,92.07c0-4-.43-4.94-2.23-4.94H99.1V97h.81C101.67,97,102.14,96,102.14,92.07Z"/><path d="M63.41,121.39c-1.8,0-2.09,1.66-2.09,13,0,9.69.33,11.59,2.09,11.59,1,0,1.52-.66,1.8-2.33a87.82,87.82,0,0,0,.33-8.93C65.55,123,65.31,121.39,63.41,121.39Z"/><path d="M85.28,94.35l-.33-3.28-.24-2.23-.09-.95c0,1.09-.1,1.47-.19,2.33,0,.38-.14,1.8-.38,4.27l-.19,2.09-.66,5.6h3.09l-.71-5.6C85.47,95.78,85.38,95,85.28,94.35Z"/><path d="M76.92,78.62c.79,0,1.15-.5,1.36-1.75a66,66,0,0,0,.25-6.73c0-8.81-.18-10-1.61-10s-1.57,1.25-1.57,9.77C75.35,77.19,75.6,78.62,76.92,78.62Z"/><path d="M0,0V197.87H197.87V0ZM134.25,96.49V83.1H139v31.68h-4.75v-14h-4.13v14h-4.75V83.1h4.75V96.49Zm-9-39.06h3.47v3.76l-1.47,4.4-1.65,0,1-4.15h-1.4ZM117,111.17c1.14,0,1.47-.81,1.9-4.13l4.37.57c-.62,5.18-2.61,7.55-6.36,7.55-5.27,0-7.22-4.46-7.22-16.39,0-11.64,2-16.05,7.22-16.05,3.75,0,5.89,2.61,6.36,7.93l-4.37.57c-.29-3.32-.86-4.51-2.14-4.51-1.66,0-2.09,2.33-2.09,12C114.63,108.74,115.06,111.17,117,111.17Zm-5.17-53.74h3l3,10.74c.72,2.54,1.07,3.87,1.61,6.26-.18-3.62-.18-3.79-.29-8.52V57.43h2.9V81.3h-2.9L116,70.74c-.61-2-1.15-4.08-1.54-6l0,.5c.18,4.33.21,5.76.25,8.38v7.7h-2.94Zm-10.38,0h8.13v3H105v6.8h3.29v3H105v7.95h4.87v3h-8.45ZM73.06,59.18a4.66,4.66,0,0,1,8.09.68c.75,1.68,1.22,5.26,1.22,9.49,0,4.73-.54,8.34-1.43,10a4.66,4.66,0,0,1-8.13-.18c-.89-1.61-1.29-4.8-1.29-10S72,60.72,73.06,59.18ZM58.2,57.43l1.11,11.24c.07.54.07.79.25,3.36l.11,1.65a5.3,5.3,0,0,0,0,.61c.07-1.75.25-4.22.39-5.55l1.22-11.31h3l1.5,11.35c.18,1.65.32,3.58.5,5.76v-.79l0-1.54c0-.68.14-3.11.18-3.44l.89-11.35h3L67.69,81.3H64.93L63.28,68.88c-.18-1.4-.32-3.08-.5-5.08-.07,1.5-.29,4.08-.39,5L60.89,81.3H58l-3-23.88Zm10.53,89.42a6.18,6.18,0,0,1-10.78-.24c-1.19-2.14-1.71-6.36-1.71-13.25s.66-11.16,2-13.2a6.18,6.18,0,0,1,10.73.9c1,2.23,1.62,7,1.62,12.59C70.63,139.91,69.92,144.71,68.73,146.84Zm2.87-55-.33,2.71-.57,4.37c-.19,1.28-.38,2.56-.57,3.89l-1.85,12H64.72l-1.95-12.25c-1-6.74-1.09-7-1.52-11.26l0,1,0,2.61.09,4.18c0,1.61,0,3.13,0,3.61v12.11h-3.7V83.1h5.13l2.66,16.62c.14.86.57,4.32.71,6.32l.19,2.09,0,.57a75.48,75.48,0,0,1,1-9L70.13,83.1H75.4v31.68H71.56v-12c0-2.19,0-5.61.09-10.16l0-1.38ZM87.77,149.5H83.93l-4.23-14c-.81-2.61-1.52-5.41-2-8l0,.66c.24,5.75.29,7.65.33,11.11V149.5H74.14V117.82h4l4,14.25c.95,3.37,1.42,5.13,2.14,8.31-.24-4.8-.24-5-.38-11.3V117.82h3.85Zm0-34.73L86.71,106H82.86l-1,8.74H77.68L82.53,83.1h4.7l5,31.68ZM92.89,81.3H90.2l-1.47-9.24c-.79-5.08-.82-5.3-1.15-8.48l0,.75,0,2,.07,3.15c0,1.22,0,2.36,0,2.72V81.3H85V57.43h3.87l2,12.53c.11.64.43,3.26.54,4.76l.14,1.58,0,.43A56.91,56.91,0,0,1,92.35,70l1.93-12.53h4V81.3h-2.9v-9c0-1.65,0-4.22.07-7.66l0-1-.07.43-.25,2-.43,3.29c-.14,1-.29,1.93-.43,2.93Zm1.47,1.79h5.56c2.66,0,4.23.66,5.41,2.23s1.8,3.75,1.8,6.84c0,4.37-.85,6.7-2.85,7.84l3.94,14.77h-4.89l-3-13.63H99.1v13.63H94.35Zm14.7,66.41L108,140.76h-3.85l-1,8.74H98.94l4.84-31.68h4.7l5,31.68Zm15.48-27.64h-3.42V149.5h-4.75V121.86h-3.52v-4h11.68Zm9.78,27.64-2.42-11-2.57,11H125l4.75-16.34-4.23-15.34h4.61l2,9.88,2.14-9.88h4.27l-4.27,14.82L139,149.5Zm1.38-67.91c-3.08,0-4.87-2.11-4.83-5.76l3.33-.36c.07,2.33.43,3.11,1.54,3.11s1.54-1.07,1.54-3.4a4.92,4.92,0,0,0-.9-3.22,11.22,11.22,0,0,0-2.22-2.11,8.26,8.26,0,0,1-3-6.51c0-3.94,1.68-6.19,4.62-6.19,2.72,0,4.33,1.83,4.58,5.23l-3.29.43c-.18-2-.5-2.65-1.25-2.65s-1.11.9-1.11,2.86c0,1.75.47,2.58,2.36,4.19,2.83,2.43,3.72,4.19,3.72,7.41C140.82,79.23,139.1,81.59,135.7,81.59Z"/></g></g></svg>