<svg xmlns="http://www.w3.org/2000/svg" viewBox="0 0 1003.18 162.61"><defs><style>.cls-1{fill:#f05136;}.cls-2{fill:#333;}</style></defs><title>wr-logo-horiz-scale</title><g id="Layer_2" data-name="Layer 2"><g id="Layer_1-2" data-name="Layer 1"><path class="cls-1" d="M1003.13,1.21a.48.48,0,0,0-.24,0,.82.82,0,0,0-.8.21s-.13.2-.12,0c0,0,.12-.74.13-.87a1.52,1.52,0,0,0,.09-.51h-.06l-.06,0a.32.32,0,0,0-.2,0h0c-.26.09-.49.73-.49.73h0a0,0,0,0,0,0,0,2.14,2.14,0,0,0-.13.44,4,4,0,0,0-.08.39.49.49,0,0,1-.15.28l0-.57h0s0-.09,0-.13a1.23,1.23,0,0,0,0-.23.9.9,0,0,0-.1-.43.23.23,0,0,0-.2,0,.48.48,0,0,0-.34.23,1.73,1.73,0,0,0-.22.67l0,.18-.13.55c0,.16-.09.31-.13.47l-.07.22c0-.07,0-.14,0-.2s0-.13,0-.2a3.26,3.26,0,0,0,0-.51.11.11,0,0,0,0-.07l-.24.1,0,0h0l-.06,0a.34.34,0,0,0-.21.17,1.37,1.37,0,0,0-.16.46,3.84,3.84,0,0,0,0,.89.17.17,0,0,1,0,.12,5.5,5.5,0,0,0-.5.84c0,.06-.06.07-.11,0a.4.4,0,0,0-.26-.06,1,1,0,0,0-.28.07l-.19.08h0a3.43,3.43,0,0,0-.42.21,4.48,4.48,0,0,0-.47.31l0,0a2.33,2.33,0,0,1-.89.21s0,0,0,0c.25-.56.5-1.13.77-1.69.15-.31.35-.59.49-.9a1.53,1.53,0,0,0,.08-.59.61.61,0,0,0-.36-.53c-.26.33-.53.64-.78,1s-.68,1-1,1.45a5.89,5.89,0,0,1-1.09,1.17,6.32,6.32,0,0,0-1.1,1.12,2.28,2.28,0,0,0-.29.58l-.08.1a2.26,2.26,0,0,0-.44.77.64.64,0,0,1-.07.13c-.09.14-.16.29-.24.43l-.12.24h0c-.47,1.05-2.25,4.11-2.73,5.16-.33.73-.62,1.49-1,2.19s-2.78,6.39-2.78,6.39c-.83,1.66-1.63,3.28-2.65,5.18-1.3,2.41-3,4.92-4.56,7.34l-.09-.08a5.62,5.62,0,0,1-.94-1.46.89.89,0,0,1,.35-1.15,10.61,10.61,0,0,0,1.47-1.3,1.2,1.2,0,0,0-.12-1.94,1,1,0,0,1-.33-.63c0-.48-.05-.83-.66-.71.11-.89.06-1-.75-1.26-.49-.17-.56-.32-.37-.8.25-.64.06-1-.62-1-.41,0-.82,0-1.23-.07a1.77,1.77,0,0,1-1.37-.6c0-.15.07-.15.12-.32,0,0-.13.15-.3.17-.11-.18-.18-.33-.28-.45a2.85,2.85,0,0,0-.45-.58,9.79,9.79,0,0,0-3.22-1.75,5.41,5.41,0,0,0-.76-.19c-.51-.92-1.88-.77-4.14-.44a7.2,7.2,0,0,0-4.73,3.48c-1.6-2.48-4.27-6.77-4.88-7.71s-.85-1.68-.93-1.81l-.41-.59c.05.07.07.07-.23-.4a12,12,0,0,1-1.7-2.64c-.27-.87-1.1-1.35-1.17-2.29a1.33,1.33,0,0,0-.25-.49A3.5,3.5,0,0,0,947.7,7c-.48-.07-1-.16-1.44-.27-.25-.06-.48-.19-.73-.25a1,1,0,0,0-1.3.56c-.37-.14-.74-.26-1.1-.41-.81-.33-1.63-.64-2.43-1a8.22,8.22,0,0,1-.86-.57.87.87,0,0,0-1.34.4c.52.36,1.05.72,1.57,1.1.26.19.65.4.68.63.05.41.34.37.55.5s.46.24.67.38a12.37,12.37,0,0,0,4.74,2.1,2.65,2.65,0,0,1,1.94,1.8c.6,2,1.05,2.45,1.62,4.44,0,0,1.25,3.74,2.05,5.67,0,0,3.2,5.22,4,7.12a11.59,11.59,0,0,0-.55,2.29,23.76,23.76,0,0,0,1.35,11.29c.39,1.73.92,4,1.39,5.47,0,.1,0,.21,0,.31.09,1.09.2,2.18.25,3.27a8.21,8.21,0,0,1-.47,3.38,4.09,4.09,0,0,1-1.13,1.74,1.35,1.35,0,0,1-1.44.24.76.76,0,0,1-.54-.89l0-.16a1.14,1.14,0,0,0,.12,1.21,1.32,1.32,0,0,0,1.71.27,3.09,3.09,0,0,0,1.2-1.32c.13-.25.23-.51.36-.78a3.25,3.25,0,0,1,0,1.11,6.06,6.06,0,0,1-.56,1.81c-.36.77-.74,1.53-1.08,2.31a3.74,3.74,0,0,0-.35,1.75,2.34,2.34,0,0,0,.17.77,6.55,6.55,0,0,1,0-.77,2.94,2.94,0,0,1,.57-1.31,15.85,15.85,0,0,1,1.69-1.94,14.58,14.58,0,0,0,1.64-1.91,3.51,3.51,0,0,0,.64-1.61c0-.22,0-.44.05-.66a.29.29,0,0,1,0,.13c0,.5.11,1,.13,1.5a10.23,10.23,0,0,1-.47,3.85,6.74,6.74,0,0,1-4.52,4.43c-.47.15-1,.27-1.43.44a3.63,3.63,0,0,0-1.48,1,1.44,1.44,0,0,0-.15,1.85.43.43,0,0,0,.46.22c-.11-.08-.21-.15-.3-.23a.79.79,0,0,1-.18-1,1.57,1.57,0,0,1,1.2-.84,2.58,2.58,0,0,1,1.81.44,8.74,8.74,0,0,1,2.18,2l.13.17a7.28,7.28,0,0,0-.81.18A1.48,1.48,0,0,0,957,70.48a2.49,2.49,0,0,0,.93,2.21,7.66,7.66,0,0,0,.75.49,1.48,1.48,0,0,0-.12-.19,3.31,3.31,0,0,1-.86-1.56,1.75,1.75,0,0,1,.07-1,.81.81,0,0,1,.68-.56,2.81,2.81,0,0,1,1.22.15c.77.23,1.54.48,2.31.71a6.55,6.55,0,0,0,1.74.27,3.7,3.7,0,0,0,2.21-.76,6.72,6.72,0,0,0,2.22-2.81,15,15,0,0,0,1-3.09c.31-1.42.59-2.84.89-4.27a17.32,17.32,0,0,1,.74-2.62,8.29,8.29,0,0,1,.43-.95c.56-.35,3.78,4.85,4,6.83a17.55,17.55,0,0,1-.39,9.67c-1.16.91-2.3,1.82-3.37,2.79h0a.57.57,0,0,1-.24.2l0,0-.28.26h0a.59.59,0,0,1-.21.21h0a27.9,27.9,0,0,0-2.25,2.39l0,0a32.59,32.59,0,0,0-3.52,5c-2.9,5-4.87,10.6-8.46,15.15a33.25,33.25,0,0,1-3.22,3.5c-.71.68-3.18,2-3.42,3,0,.17-.64.49,1.11,1a8.82,8.82,0,0,1,2.24.53c1.94,1.18.3,1.53.72,2.19,1.26,2,2.44.61,4.61,1.15.49.12,4,2.1,6.6,2.93-.65,2.95-1.41,6.88-2,9.5-.44,1.87.22,8,.5,9.9.53,3.51,1,5.85,1.28,9.38a8.93,8.93,0,0,1-1.53,6.22c-1.15,1.61-1,2.78.47,4.15a9.41,9.41,0,0,1,2.87,3.93,26.2,26.2,0,0,0,1.4,2.63.31.31,0,0,0,.1.11,11,11,0,0,0,5.74,1.82c1.19-.2,1.56-.82,1-1.8a.3.3,0,0,0-.13-.12,5.35,5.35,0,0,1-3-5c0-.22,0-.43,0-.64a13.59,13.59,0,0,1,3.24,4.72,27.07,27.07,0,0,0,1.54,2.67.32.32,0,0,0,.1.11,11.33,11.33,0,0,0,6,1.68c1.22-.24,1.58-.9,1-1.9a.31.31,0,0,0-.14-.12,5.53,5.53,0,0,1-3.31-5.08,42.66,42.66,0,0,0-1-8.22,35.42,35.42,0,0,1-.51-13.45,46.3,46.3,0,0,0,.42-5.7,14.19,14.19,0,0,1,1.86-8,10.53,10.53,0,0,0,1.2-2.79,25.89,25.89,0,0,1,2.92.65c3.38,1.32,1.33-9,3-23.14.4-3.33-.41-6.65-.43-10,0-1.37-.11-2.74-.22-4.11a13,13,0,0,1,.7-5.48c1.8-6.19,1.39-11.27.52-17.57A7.4,7.4,0,0,0,989.78,51c-.39-1.26-3.34-4.07-7-7.6a7.4,7.4,0,0,1,.23-1.62,26.2,26.2,0,0,1,1.92-4.9,51.38,51.38,0,0,0,2.67-5.63c.55-1.62,1.43-3.2,1.93-4.84.39-1.25.74-2.63,1.1-4v0l.18-.67.13-.54a.24.24,0,0,0,0-.09l.15-.71.31-1.24s.14-.83.22-1.24c.24-1.19.46-2.39.7-3.58.09-.43.2-.85.32-1.27s.25-.7.36-1.06.14-.46.22-.69.15-.37.23-.56l.08-.14h0c.08-.17.16-.35.25-.52a1.23,1.23,0,0,1,.16-.28,4.82,4.82,0,0,1,.39-.35,10.58,10.58,0,0,1,1.36-.95,8.42,8.42,0,0,1,.75-.44c.63-.31,1.26-.6,1.91-.87l.14-.06a.73.73,0,0,0,.39-.26,4.19,4.19,0,0,0,.42-.6,3.55,3.55,0,0,1,.75-.89,4.12,4.12,0,0,0,.7-.73c.07-.09.15-.18.22-.27a1.27,1.27,0,0,0,.3-.46.38.38,0,0,1,.07-.13,5.55,5.55,0,0,0,.5-.7,9.5,9.5,0,0,1,.77-1.08l.43-.54.1-.14S1003.18,1.22,1003.13,1.21Zm-36,65.72a4.75,4.75,0,0,1-1,1.54A4.68,4.68,0,0,1,964,69.89a4,4,0,0,1-2.74-.15c-.27-.11-.53-.25-.79-.38l0,0,.28.07a5.26,5.26,0,0,0,4.15-.61,4.15,4.15,0,0,0,1.62-1.94,8.11,8.11,0,0,0,.68-2.74c.05-.7,0-1.4.06-2.09a.22.22,0,0,1,0,0,9.44,9.44,0,0,1,.27,1.94A8,8,0,0,1,967.11,66.93Zm4.41,81.15c-.06-.36-.12-.73-.21-1.11a33.24,33.24,0,0,1-.17-12.17c.46,2.56.89,5.13,1.21,7.71A9.49,9.49,0,0,1,971.52,148.08Z"/><path class="cls-2" d="M0,54.66H4.31A1.77,1.77,0,0,1,6.19,56l18.1,59.61q.3,1,.53,2.2l.48,2.46q.25-1.28.51-2.46a18.71,18.71,0,0,1,.61-2.2L46.69,56a2.19,2.19,0,0,1,.71-1,1.87,1.87,0,0,1,1.22-.41H50A1.74,1.74,0,0,1,51.2,55a2.55,2.55,0,0,1,.71,1l20.28,59.61q.35,1,.64,2.15t.53,2.41q.25-1.23.46-2.38a19,19,0,0,1,.51-2.18L92.42,56a1.83,1.83,0,0,1,.68-1,2,2,0,0,1,1.24-.41h4L75.74,127.19H71.08L49.89,64.25a26.31,26.31,0,0,1-.71-2.61,26.77,26.77,0,0,1-.71,2.61L27.23,127.19H22.61Z"/><path class="cls-2" d="M185.5,90.9A44.47,44.47,0,0,1,183,106.15a33.87,33.87,0,0,1-7,11.69,30.94,30.94,0,0,1-10.8,7.48,37.86,37.86,0,0,1-27.78,0,30.92,30.92,0,0,1-10.8-7.48,34.16,34.16,0,0,1-7-11.69,44,44,0,0,1-2.51-15.25,43.86,43.86,0,0,1,2.51-15.2,34.15,34.15,0,0,1,7-11.69,31.21,31.21,0,0,1,10.8-7.51,35.08,35.08,0,0,1,13.84-2.67,35.69,35.69,0,0,1,13.94,2.64A30.8,30.8,0,0,1,176,64a34.15,34.15,0,0,1,7,11.71A44.32,44.32,0,0,1,185.5,90.9Zm-5.37,0A41.81,41.81,0,0,0,178,77.27,29.44,29.44,0,0,0,172.19,67a25.12,25.12,0,0,0-9.1-6.43,30.28,30.28,0,0,0-11.81-2.23,29.82,29.82,0,0,0-11.68,2.23A25.64,25.64,0,0,0,130.47,67a29.32,29.32,0,0,0-5.93,10.25,41.34,41.34,0,0,0-2.1,13.63,41.28,41.28,0,0,0,2.1,13.66,29.33,29.33,0,0,0,5.93,10.23,25.35,25.35,0,0,0,9.13,6.41,30.13,30.13,0,0,0,11.68,2.2,30.6,30.6,0,0,0,11.81-2.2,24.84,24.84,0,0,0,9.1-6.41A29.46,29.46,0,0,0,178,104.56,41.74,41.74,0,0,0,180.12,90.9Z"/><path class="cls-2" d="M249.83,109.15q.31-.82.63-1.61a13.91,13.91,0,0,1,.74-1.51l28.19-50.39a1.85,1.85,0,0,1,.81-.82,3.24,3.24,0,0,1,1.11-.15h3.6v72.53h-4.56V65.37a27.87,27.87,0,0,1,.15-2.82l-28.24,50.69a2.21,2.21,0,0,1-2,1.33h-.81a2.28,2.28,0,0,1-2-1.33l-29-50.75a28.35,28.35,0,0,1,.15,2.87v61.82H214V54.66h3.55a3.48,3.48,0,0,1,1.14.15,1.81,1.81,0,0,1,.84.82l28.95,50.44A21,21,0,0,1,249.83,109.15Z"/><path class="cls-2" d="M360.86,54.66V59H323.09V88.34h31.43v4.25H323.09v30.24h37.77v4.36h-43V54.66Z"/><path class="cls-2" d="M393.1,54.84a2.4,2.4,0,0,1,.86.79l46.44,62.84q-.15-1.54-.15-3V54.66h4.56v72.53h-2.48a2.18,2.18,0,0,1-1.88-1L393.81,63.22q.15,1.54.15,2.92v61h-4.51V54.66H392A2.83,2.83,0,0,1,393.1,54.84Z"/><path class="cls-1" d="M477.15,95.37V128h-5.26V55.85h18.63q12.64,0,18.89,4.82t6.25,14.15a19.21,19.21,0,0,1-1.45,7.55,17.7,17.7,0,0,1-4.16,6,22.18,22.18,0,0,1-6.53,4.23,29.3,29.3,0,0,1-8.62,2.17,8.35,8.35,0,0,1,2.22,2L522.25,128h-4.59a3.06,3.06,0,0,1-1.42-.31,3.69,3.69,0,0,1-1.16-1L491.7,97.41a5.19,5.19,0,0,0-1.88-1.58,8,8,0,0,0-3.12-.46Zm0-3.88h12.69a30.41,30.41,0,0,0,8.7-1.15,18.82,18.82,0,0,0,6.5-3.29,14.23,14.23,0,0,0,4.05-5.15,16,16,0,0,0,1.39-6.78q0-7.7-5.11-11.42T490.51,60H477.15Z"/><path class="cls-1" d="M561.27,128H556V55.85h5.32Z"/><path class="cls-1" d="M638.83,64.63a1.46,1.46,0,0,1-1.34.87,3,3,0,0,1-1.73-.94,22.3,22.3,0,0,0-7.4-4.21,23.06,23.06,0,0,0-13.72.15,14.7,14.7,0,0,0-5.07,3.06A13,13,0,0,0,606.45,68a13.79,13.79,0,0,0-1.06,5.35A10.83,10.83,0,0,0,607,79.46a14.11,14.11,0,0,0,4.16,4.08A27.07,27.07,0,0,0,617,86.37q3.28,1.15,6.75,2.27t6.74,2.47a24.41,24.41,0,0,1,5.86,3.39,14.76,14.76,0,0,1,5.74,12.44,23.12,23.12,0,0,1-1.57,8.54,19.89,19.89,0,0,1-4.57,7,21.47,21.47,0,0,1-7.33,4.67,26.89,26.89,0,0,1-9.91,1.71,28.28,28.28,0,0,1-12.44-2.52,29.23,29.23,0,0,1-9.13-6.91l1.44-2.24a1.83,1.83,0,0,1,1.45-.76,2.08,2.08,0,0,1,1.19.61l1.76,1.5q1,.89,2.48,1.94a20.57,20.57,0,0,0,3.36,1.94,23.94,23.94,0,0,0,4.39,1.5,23.58,23.58,0,0,0,5.63.61,21.65,21.65,0,0,0,7.75-1.3,17,17,0,0,0,5.76-3.54,15,15,0,0,0,3.59-5.33,17.54,17.54,0,0,0,1.24-6.6,11.52,11.52,0,0,0-1.58-6.3,13.51,13.51,0,0,0-4.16-4.13,27,27,0,0,0-5.86-2.78q-3.28-1.12-6.74-2.19t-6.75-2.4a23.3,23.3,0,0,1-5.86-3.39,15.54,15.54,0,0,1-4.16-5.15,16.88,16.88,0,0,1-1.58-7.72,18.05,18.05,0,0,1,1.4-7A17.34,17.34,0,0,1,606,60.72a20.11,20.11,0,0,1,6.64-4.13,24.49,24.49,0,0,1,9-1.56,27.62,27.62,0,0,1,10.21,1.78,24.45,24.45,0,0,1,8.24,5.46Z"/><path class="cls-1" d="M683.22,128H677.9V55.85h5.32Z"/><path class="cls-1" d="M729.15,56a2.43,2.43,0,0,1,.88.79l47.27,62.52a29.4,29.4,0,0,1-.15-3V55.85h4.64V128h-2.53a2.23,2.23,0,0,1-1.91-1L729.87,64.37a29,29,0,0,1,.16,2.91V128h-4.59V55.85H728A2.94,2.94,0,0,1,729.15,56Z"/><path class="cls-1" d="M853.42,124.59a56.32,56.32,0,0,0,6.86-.38,37.44,37.44,0,0,0,5.75-1.15,36.26,36.26,0,0,0,5.06-1.86q2.4-1.1,4.82-2.47V99.3h-14a1.36,1.36,0,0,1-1-.36,1.09,1.09,0,0,1-.39-.82V95.27h20.18v25.65a47.84,47.84,0,0,1-5.68,3.37,38,38,0,0,1-6.3,2.47,49.12,49.12,0,0,1-7.23,1.53,62,62,0,0,1-8.46.53,38.3,38.3,0,0,1-14.42-2.63,32,32,0,0,1-11.2-7.45,33.49,33.49,0,0,1-7.25-11.65,42.71,42.71,0,0,1-2.58-15.2,42.51,42.51,0,0,1,2.58-15.17,33,33,0,0,1,7.33-11.63A32.33,32.33,0,0,1,839,57.66,41.83,41.83,0,0,1,854.24,55a49.35,49.35,0,0,1,7.71.56,36.11,36.11,0,0,1,6.58,1.66,31.14,31.14,0,0,1,5.68,2.7,38.45,38.45,0,0,1,5.06,3.7l-1.39,2.24a1.44,1.44,0,0,1-1.29.76,2,2,0,0,1-.88-.2A10.94,10.94,0,0,1,873.47,65a24.17,24.17,0,0,0-4-2.35,33.43,33.43,0,0,0-6.27-2.19,37.2,37.2,0,0,0-9.14-1,35,35,0,0,0-12.85,2.24,27.28,27.28,0,0,0-9.78,6.43,28.42,28.42,0,0,0-6.24,10.2A39.22,39.22,0,0,0,823,91.91a39.76,39.76,0,0,0,2.22,13.72,29.3,29.3,0,0,0,6.22,10.27,26.84,26.84,0,0,0,9.6,6.45A32.93,32.93,0,0,0,853.42,124.59Z"/><path class="cls-1" d="M890.9,57.61a5.9,5.9,0,0,1,.49-2.39,6.26,6.26,0,0,1,3.28-3.28,6.1,6.1,0,0,1,4.78,0,6.26,6.26,0,0,1,3.28,3.28,6.1,6.1,0,0,1,0,4.78,6.26,6.26,0,0,1-3.28,3.28,6.1,6.1,0,0,1-4.78,0A6.25,6.25,0,0,1,891.39,60,5.9,5.9,0,0,1,890.9,57.61Zm.89,0a5.12,5.12,0,0,0,.41,2.05,5.26,5.26,0,0,0,2.8,2.8,5.29,5.29,0,0,0,4.1,0,5.26,5.26,0,0,0,2.8-2.8,5.29,5.29,0,0,0,0-4.1,5.25,5.25,0,0,0-2.8-2.8,5.29,5.29,0,0,0-4.1,0,5.26,5.26,0,0,0-2.8,2.8A5.12,5.12,0,0,0,891.79,57.61Zm3.92,3.52h-.89V54h2.73a2.4,2.4,0,0,1,1.72.5,2,2,0,0,1,.51,1.46,2.25,2.25,0,0,1-.14.84,1.68,1.68,0,0,1-.39.59,1.91,1.91,0,0,1-.57.38A3.09,3.09,0,0,1,898,58l2.12,3.11h-1L897,58h-1.27Zm0-3.9h1.14l.73,0a2,2,0,0,0,.65-.15,1.15,1.15,0,0,0,.47-.36,1.12,1.12,0,0,0,.18-.69,1.06,1.06,0,0,0-.14-.57,1.07,1.07,0,0,0-.36-.36,1.63,1.63,0,0,0-.51-.19,2.91,2.91,0,0,0-.57-.06h-1.59Z"/></g></g></svg>