<svg xmlns="http://www.w3.org/2000/svg" viewBox="0 0 880.72 74.98"><defs><style>.cls-1{fill:#fff;}</style></defs><title>wr-logotype-white</title><g id="Layer_2" data-name="Layer 2"><g id="Layer_1-2" data-name="Layer 1"><path class="cls-1" d="M0,.82H4.31A1.77,1.77,0,0,1,6.19,2.2l18.1,59.61q.3,1,.53,2.2l.48,2.46q.25-1.28.51-2.46a18.71,18.71,0,0,1,.61-2.2L46.69,2.2a2.19,2.19,0,0,1,.71-1A1.87,1.87,0,0,1,48.62.82H50a1.74,1.74,0,0,1,1.17.38,2.55,2.55,0,0,1,.71,1L72.19,61.82q.35,1,.64,2.15t.53,2.41q.25-1.23.46-2.38a19,19,0,0,1,.51-2.18L92.42,2.2a1.83,1.83,0,0,1,.68-1A2,2,0,0,1,94.35.82h4L75.74,73.35H71.08L49.89,10.41a26.31,26.31,0,0,1-.71-2.61,26.77,26.77,0,0,1-.71,2.61L27.23,73.35H22.61Z"/><path class="cls-1" d="M185.5,37.06A44.47,44.47,0,0,1,183,52.31,33.87,33.87,0,0,1,176,64a30.94,30.94,0,0,1-10.8,7.48,37.86,37.86,0,0,1-27.78,0A30.92,30.92,0,0,1,126.64,64a34.16,34.16,0,0,1-7-11.69,44,44,0,0,1-2.51-15.25,43.86,43.86,0,0,1,2.51-15.2,34.15,34.15,0,0,1,7-11.69,31.21,31.21,0,0,1,10.8-7.51A35.08,35.08,0,0,1,151.28,0a35.69,35.69,0,0,1,13.94,2.64A30.8,30.8,0,0,1,176,10.15a34.15,34.15,0,0,1,7,11.71A44.32,44.32,0,0,1,185.5,37.06Zm-5.37,0A41.81,41.81,0,0,0,178,23.42a29.44,29.44,0,0,0-5.85-10.25,25.12,25.12,0,0,0-9.1-6.43,30.28,30.28,0,0,0-11.81-2.23,29.82,29.82,0,0,0-11.68,2.23,25.64,25.64,0,0,0-9.13,6.43,29.32,29.32,0,0,0-5.93,10.25,41.34,41.34,0,0,0-2.1,13.63,41.28,41.28,0,0,0,2.1,13.66,29.33,29.33,0,0,0,5.93,10.23,25.35,25.35,0,0,0,9.13,6.41,30.13,30.13,0,0,0,11.68,2.2,30.6,30.6,0,0,0,11.81-2.2,24.84,24.84,0,0,0,9.1-6.41A29.46,29.46,0,0,0,178,50.72,41.74,41.74,0,0,0,180.12,37.06Z"/><path class="cls-1" d="M249.83,55.31q.31-.82.63-1.61a13.91,13.91,0,0,1,.74-1.51L279.39,1.79A1.85,1.85,0,0,1,280.2,1a3.24,3.24,0,0,1,1.11-.15h3.6V73.35h-4.56V11.53a27.87,27.87,0,0,1,.15-2.82L252.26,59.41a2.21,2.21,0,0,1-2,1.33h-.81a2.28,2.28,0,0,1-2-1.33l-29-50.75a28.35,28.35,0,0,1,.15,2.87V73.35H214V.82h3.55a3.48,3.48,0,0,1,1.14.15,1.81,1.81,0,0,1,.84.82l28.95,50.44A21,21,0,0,1,249.83,55.31Z"/><path class="cls-1" d="M360.86.82V5.18H323.09V34.5h31.43v4.25H323.09V69h37.77v4.36h-43V.82Z"/><path class="cls-1" d="M393.1,1a2.4,2.4,0,0,1,.86.79L440.4,64.64q-.15-1.54-.15-3V.82h4.56V73.35h-2.48a2.18,2.18,0,0,1-1.88-1L393.81,9.38q.15,1.54.15,2.92v61h-4.51V.82H392A2.83,2.83,0,0,1,393.1,1Z"/><path class="cls-1" d="M477.15,41.53V74.17h-5.26V2h18.63q12.64,0,18.89,4.82T515.65,21a19.21,19.21,0,0,1-1.45,7.55,17.7,17.7,0,0,1-4.16,6,22.18,22.18,0,0,1-6.53,4.23,29.3,29.3,0,0,1-8.62,2.17,8.35,8.35,0,0,1,2.22,2l25.13,31.21h-4.59a3.06,3.06,0,0,1-1.42-.31,3.69,3.69,0,0,1-1.16-1L491.7,43.57A5.19,5.19,0,0,0,489.82,42a8,8,0,0,0-3.12-.46Zm0-3.88h12.69a30.41,30.41,0,0,0,8.7-1.15,18.82,18.82,0,0,0,6.5-3.29,14.23,14.23,0,0,0,4.05-5.15,16,16,0,0,0,1.39-6.78q0-7.7-5.11-11.42T490.51,6.14H477.15Z"/><path class="cls-1" d="M561.27,74.17H556V2h5.32Z"/><path class="cls-1" d="M638.83,10.78a1.46,1.46,0,0,1-1.34.87,3,3,0,0,1-1.73-.94,22.3,22.3,0,0,0-7.4-4.21,23.06,23.06,0,0,0-13.72.15,14.7,14.7,0,0,0-5.07,3.06,13,13,0,0,0-3.11,4.49,13.79,13.79,0,0,0-1.06,5.35A10.83,10.83,0,0,0,607,25.62a14.11,14.11,0,0,0,4.16,4.08A27.07,27.07,0,0,0,617,32.53q3.28,1.15,6.75,2.27t6.74,2.47a24.41,24.41,0,0,1,5.86,3.39,14.76,14.76,0,0,1,5.74,12.44,23.12,23.12,0,0,1-1.57,8.54,19.89,19.89,0,0,1-4.57,7,21.47,21.47,0,0,1-7.33,4.67A26.89,26.89,0,0,1,618.71,75a28.28,28.28,0,0,1-12.44-2.52,29.23,29.23,0,0,1-9.13-6.91l1.44-2.24a1.83,1.83,0,0,1,1.45-.76,2.08,2.08,0,0,1,1.19.61l1.76,1.5q1,.89,2.48,1.94a20.57,20.57,0,0,0,3.36,1.94A23.94,23.94,0,0,0,613.2,70a23.58,23.58,0,0,0,5.63.61,21.65,21.65,0,0,0,7.75-1.3,17,17,0,0,0,5.76-3.54,15,15,0,0,0,3.59-5.33,17.54,17.54,0,0,0,1.24-6.6,11.52,11.52,0,0,0-1.58-6.3,13.51,13.51,0,0,0-4.16-4.13,27,27,0,0,0-5.86-2.78q-3.28-1.12-6.74-2.19t-6.75-2.4a23.3,23.3,0,0,1-5.86-3.39,15.54,15.54,0,0,1-4.16-5.15,16.88,16.88,0,0,1-1.58-7.72,18.05,18.05,0,0,1,1.4-7A17.34,17.34,0,0,1,606,6.88a20.11,20.11,0,0,1,6.64-4.13,24.49,24.49,0,0,1,9-1.56A27.62,27.62,0,0,1,631.83,3a24.45,24.45,0,0,1,8.24,5.46Z"/><path class="cls-1" d="M683.22,74.17H677.9V2h5.32Z"/><path class="cls-1" d="M729.15,2.19A2.43,2.43,0,0,1,730,3L777.3,65.5a29.4,29.4,0,0,1-.15-3V2h4.64V74.17h-2.53a2.23,2.23,0,0,1-1.91-1L729.87,10.53a29,29,0,0,1,.16,2.91V74.17h-4.59V2H728A2.94,2.94,0,0,1,729.15,2.19Z"/><path class="cls-1" d="M853.42,70.75a56.32,56.32,0,0,0,6.86-.38A37.44,37.44,0,0,0,866,69.22a36.26,36.26,0,0,0,5.06-1.86q2.4-1.1,4.82-2.47V45.46h-14a1.36,1.36,0,0,1-1-.36,1.09,1.09,0,0,1-.39-.82V41.43h20.18V67.08A47.84,47.84,0,0,1,875,70.45a38,38,0,0,1-6.3,2.47,49.12,49.12,0,0,1-7.23,1.53,62,62,0,0,1-8.46.53,38.3,38.3,0,0,1-14.42-2.63,32,32,0,0,1-11.2-7.45,33.49,33.49,0,0,1-7.25-11.65,42.71,42.71,0,0,1-2.58-15.2,42.51,42.51,0,0,1,2.58-15.17,33,33,0,0,1,7.33-11.63A32.33,32.33,0,0,1,839,3.82a41.83,41.83,0,0,1,15.2-2.63,49.35,49.35,0,0,1,7.71.56,36.11,36.11,0,0,1,6.58,1.66,31.14,31.14,0,0,1,5.68,2.7,38.45,38.45,0,0,1,5.06,3.7l-1.39,2.24a1.44,1.44,0,0,1-1.29.76,2,2,0,0,1-.88-.2,10.94,10.94,0,0,1-2.25-1.43,24.17,24.17,0,0,0-4-2.35,33.43,33.43,0,0,0-6.27-2.19,37.2,37.2,0,0,0-9.14-1,35,35,0,0,0-12.85,2.24,27.28,27.28,0,0,0-9.78,6.43,28.42,28.42,0,0,0-6.24,10.2A39.22,39.22,0,0,0,823,38.06a39.76,39.76,0,0,0,2.22,13.72,29.3,29.3,0,0,0,6.22,10.27,26.84,26.84,0,0,0,9.6,6.45A32.93,32.93,0,0,0,853.42,70.75Z"/></g></g></svg>