<svg xmlns="http://www.w3.org/2000/svg" viewBox="0 0 1041.33 335.21"><defs><style>.cls-1{fill:#fff;}</style></defs><title>wrlogo-horiz-white</title><g id="Layer_2" data-name="Layer 2"><g id="Layer_1-2" data-name="Layer 1"><path class="cls-1" d="M1041.23,2.48a1,1,0,0,0-.49,0,1.68,1.68,0,0,0-1.66.44s-.28.41-.25.06c0,0,.25-1.54.27-1.79a3.13,3.13,0,0,0,.18-1.06h0l0,0h-.09s-.1-.07-.12-.09a.66.66,0,0,0-.41,0h-.06c-.55.18-1,1.5-1,1.5h0a0,0,0,0,0,0,.07,4.42,4.42,0,0,0-.27.9,8.17,8.17,0,0,0-.16.81,1,1,0,0,1-.32.59l0-1.18h0c0-.09,0-.18,0-.28a2.54,2.54,0,0,0,0-.47,1.86,1.86,0,0,0-.2-.88.48.48,0,0,0-.42-.09,1,1,0,0,0-.7.48,3.56,3.56,0,0,0-.45,1.38c0,.12,0,.25-.06.37l-.26,1.14c-.08.33-.18.65-.27,1l-.15.45c-.08-.14,0-.29-.09-.42s.05-.28.05-.41a6.72,6.72,0,0,0,0-1,.24.24,0,0,0-.06-.15l-.5.2,0,0h-.07l-.13.05a.69.69,0,0,0-.43.34,2.82,2.82,0,0,0-.32,1,7.91,7.91,0,0,0,0,1.84.34.34,0,0,1-.06.26,11.34,11.34,0,0,0-1,1.74c-.06.12-.12.14-.22.08a.82.82,0,0,0-.53-.12,2,2,0,0,0-.58.15l-.39.17h0a7.06,7.06,0,0,0-.87.44,9.24,9.24,0,0,0-1,.64l-.05,0a4.8,4.8,0,0,1-1.82.43s0-.06,0-.07c.52-1.16,1-2.33,1.58-3.48.3-.64.73-1.22,1-1.86a3.15,3.15,0,0,0,.16-1.22,1.27,1.27,0,0,0-.74-1.1c-.54.68-1.1,1.33-1.6,2-.71,1-1.4,2-2.06,3a12.15,12.15,0,0,1-2.26,2.41A13,13,0,0,0,1020,13a4.71,4.71,0,0,0-.59,1.2,1.88,1.88,0,0,1-.16.21,4.66,4.66,0,0,0-.91,1.59,1.32,1.32,0,0,1-.14.28c-.18.28-.33.59-.49.89-.06.1-.15.3-.24.5h0c-1,2.17-4.64,8.48-5.62,10.64-.69,1.51-1.27,3.08-2.09,4.51-1,1.72-5.73,13.18-5.73,13.18-1.72,3.41-3.36,6.77-5.47,10.68-2.69,5-6.18,10.15-9.39,15.13l-.18-.17a11.6,11.6,0,0,1-1.95-3,1.84,1.84,0,0,1,.72-2.37,21.86,21.86,0,0,0,3-2.67c1.31-1.48,1.13-2.64-.25-4a2.1,2.1,0,0,1-.67-1.3c0-1-.11-1.71-1.36-1.46.24-1.83.13-2-1.54-2.59-1-.36-1.15-.66-.77-1.64.52-1.32.13-2-1.28-2.15-.84-.09-1.69-.08-2.54-.14A3.65,3.65,0,0,1,979.53,49c.09-.31.15-.31.25-.67-.05,0-.28.31-.63.36-.23-.38-.38-.67-.57-.94a5.87,5.87,0,0,0-.92-1.19A20.18,20.18,0,0,0,971,43a11.16,11.16,0,0,0-1.58-.39c-1.06-1.9-3.87-1.59-8.53-.91-4,.59-7.75,3.82-9.74,7.18-3.29-5.12-8.8-14-10.07-15.9-1-2-1.75-3.47-1.92-3.72L938.33,28c.1.14.14.15-.48-.81-1.17-1.87-2.84-3.32-3.5-5.44C933.8,20,932.09,19,931.95,17a2.73,2.73,0,0,0-.51-1c-1.23-1.26-2.87-1.39-4.48-1.64-1-.15-2-.34-3-.56-.52-.12-1-.4-1.51-.51-1.45-.32-1.94-.1-2.69,1.15-.76-.28-1.52-.54-2.28-.85-1.67-.67-3.36-1.32-5-2.06a17,17,0,0,1-1.78-1.18c-1.08-.66-2-.41-2.76.82,1.07.75,2.17,1.49,3.23,2.27.53.39,1.35.82,1.41,1.31.11.84.71.77,1.13,1s.94.5,1.39.79c3,2,6.11,3.73,9.76,4.32a5.47,5.47,0,0,1,4,3.7c1.24,4.08,2.17,5.05,3.33,9.16,0,0,2.59,7.7,4.23,11.69,0,0,6.6,10.75,8.28,14.68a23.89,23.89,0,0,0-1.14,4.72,49,49,0,0,0,2.79,23.28c.79,3.56,1.9,8.23,2.86,11.28,0,.21,0,.43,0,.64.19,2.24.4,4.49.52,6.74a16.93,16.93,0,0,1-1,7,8.44,8.44,0,0,1-2.34,3.6,2.79,2.79,0,0,1-3,.5,1.56,1.56,0,0,1-1.12-1.84c0-.08,0-.16.06-.33a2.34,2.34,0,0,0,.26,2.49,2.72,2.72,0,0,0,3.53.55,6.36,6.36,0,0,0,2.47-2.72c.27-.51.48-1,.74-1.61a6.7,6.7,0,0,1,.1,2.29,12.49,12.49,0,0,1-1.16,3.73c-.74,1.59-1.52,3.16-2.23,4.76a7.7,7.7,0,0,0-.72,3.6,4.81,4.81,0,0,0,.35,1.59,13.51,13.51,0,0,1,0-1.59,6.06,6.06,0,0,1,1.17-2.71,32.68,32.68,0,0,1,3.49-4,30.05,30.05,0,0,0,3.37-3.94,7.23,7.23,0,0,0,1.32-3.31c0-.45.07-.91.1-1.37a.6.6,0,0,1,.09.26c.09,1,.22,2.05.27,3.09a21.08,21.08,0,0,1-1,7.93,13.89,13.89,0,0,1-9.32,9.14c-1,.32-2,.56-2.94.91a7.48,7.48,0,0,0-3,2,3,3,0,0,0-.31,3.82.88.88,0,0,0,1,.45c-.23-.18-.43-.31-.61-.47a1.63,1.63,0,0,1-.37-2.07,3.23,3.23,0,0,1,2.48-1.73,5.33,5.33,0,0,1,3.73.9,18,18,0,0,1,4.49,4.07l.27.34a15,15,0,0,0-1.67.38,3,3,0,0,0-2.2,2.84,5.13,5.13,0,0,0,1.91,4.56,15.79,15.79,0,0,0,1.54,1,3.06,3.06,0,0,0-.26-.39,6.81,6.81,0,0,1-1.77-3.21,3.6,3.6,0,0,1,.15-2,1.66,1.66,0,0,1,1.4-1.15,5.79,5.79,0,0,1,2.51.31c1.59.47,3.17,1,4.76,1.46a13.5,13.5,0,0,0,3.59.56,7.63,7.63,0,0,0,4.55-1.57,13.84,13.84,0,0,0,4.58-5.79,30.94,30.94,0,0,0,2.06-6.38c.64-2.93,1.22-5.86,1.83-8.79a35.71,35.71,0,0,1,1.53-5.4,17.09,17.09,0,0,1,.88-2c1.16-.73,7.78,10,8.32,14.08,1.29,6.74,1.62,13.55-.81,19.93-2.4,1.87-4.73,3.75-7,5.75l0,0a1.18,1.18,0,0,1-.5.41l.05.05-.59.54,0,0a1.21,1.21,0,0,1-.43.43h0a57.51,57.51,0,0,0-4.64,4.93l0,.06a67.19,67.19,0,0,0-7.27,10.22c-6,10.24-10,21.85-17.44,31.23a68.55,68.55,0,0,1-6.63,7.22c-1.47,1.39-6.55,4.21-7.05,6.18-.09.36-1.31,1,2.3,2.11,1.49.46,3.2.21,4.63,1.08,4,2.43.63,3.16,1.49,4.51,2.61,4.1,5,1.25,9.49,2.37,1,.25,8.28,4.33,13.6,6-1.33,6.08-2.9,14.18-4.18,19.59-.91,3.85.46,16.58,1,20.41,1.09,7.23,2,12.06,2.64,19.34a18.4,18.4,0,0,1-3.15,12.82c-2.37,3.32-2,5.74,1,8.56s4.41,4.36,5.92,8.11a54,54,0,0,0,2.88,5.42.64.64,0,0,0,.2.22A22.57,22.57,0,0,0,981,331.87c2.45-.4,3.22-1.68,2.12-3.71a.62.62,0,0,0-.26-.25c-5.13-2.68-6.15-6.87-6.23-10.34,0-.45,0-.89,0-1.32A28,28,0,0,1,983.3,326a55.8,55.8,0,0,0,3.18,5.5.66.66,0,0,0,.21.22,23.36,23.36,0,0,0,12.36,3.46c2.51-.51,3.26-1.85,2.06-3.91a.65.65,0,0,0-.28-.25c-5.4-2.59-6.61-6.88-6.82-10.46a87.94,87.94,0,0,0-2.16-16.94c-2.4-9.25-2.21-18.41-1.06-27.72a95.45,95.45,0,0,0,.87-11.74c0-5.82.63-11.43,3.83-16.42A21.71,21.71,0,0,0,998,242a53.37,53.37,0,0,1,6,1.34c7,2.72,2.74-18.61,6.23-47.71.82-6.86-.85-13.72-.89-20.63,0-2.83-.22-5.65-.46-8.47-.37-4.46.19-7,1.45-11.29,3.71-12.76,2.86-23.23,1.06-36.21,3.93-5.71,3.32-10.67,2.33-13.87-.81-2.6-6.9-8.38-14.5-15.66a15.25,15.25,0,0,1,.47-3.33,54,54,0,0,1,4-10.09c1.89-3.94,4.1-7.46,5.51-11.6,1.14-3.35,2.94-6.6,4-10,.8-2.57,1.52-5.42,2.28-8.32l0-.09.36-1.38.28-1.11a.49.49,0,0,0,.09-.18l.32-1.46.64-2.55s.28-1.71.45-2.56c.5-2.46.94-4.93,1.43-7.38.18-.88.4-1.75.66-2.61s.51-1.45.75-2.18c.16-.47.29-1,.45-1.43s.3-.77.47-1.15l.17-.29,0,0c.16-.36.33-.72.51-1.07a2.53,2.53,0,0,1,.33-.58,9.94,9.94,0,0,1,.81-.72,21.81,21.81,0,0,1,2.81-2,17.36,17.36,0,0,1,1.54-.91c1.3-.63,2.61-1.24,3.94-1.79a1.92,1.92,0,0,1,.29-.12,1.51,1.51,0,0,0,.8-.53,8.63,8.63,0,0,0,.87-1.23,7.32,7.32,0,0,1,1.55-1.83,8.49,8.49,0,0,0,1.43-1.51c.14-.2.3-.38.46-.56a2.63,2.63,0,0,0,.62-1,.78.78,0,0,1,.15-.27,11.44,11.44,0,0,0,1-1.44,19.58,19.58,0,0,1,1.6-2.23c.28-.38.59-.73.88-1.11.07-.1.13-.2.2-.3S1041.32,2.52,1041.23,2.48ZM967,138a9.8,9.8,0,0,1-2.1,3.18,9.66,9.66,0,0,1-4.35,2.92,8.3,8.3,0,0,1-5.65-.3c-.56-.22-1.09-.52-1.64-.78l0-.09.58.14a10.84,10.84,0,0,0,8.56-1.27,8.56,8.56,0,0,0,3.33-4,16.72,16.72,0,0,0,1.4-5.64c.11-1.43.09-2.88.13-4.32a.46.46,0,0,1,0-.09,19.47,19.47,0,0,1,.56,4A16.41,16.41,0,0,1,967,138Zm9.1,167.29c-.12-.74-.26-1.49-.43-2.29-1.88-8.43-1.57-16.72-.36-25.08.95,5.28,1.83,10.57,2.5,15.89A19.56,19.56,0,0,1,976.07,305.25Z"/><path class="cls-1" d="M0,131.37H4.31a1.77,1.77,0,0,1,1.88,1.38l18.1,59.61q.3,1,.53,2.2L25.3,197q.25-1.28.51-2.46a18.71,18.71,0,0,1,.61-2.2l20.28-59.61a2.19,2.19,0,0,1,.71-1,1.87,1.87,0,0,1,1.22-.41H50a1.74,1.74,0,0,1,1.17.38,2.55,2.55,0,0,1,.71,1l20.28,59.61q.35,1,.64,2.15t.53,2.41q.25-1.23.46-2.38a19,19,0,0,1,.51-2.18l18.1-59.61a1.83,1.83,0,0,1,.68-1,2,2,0,0,1,1.24-.41h4L75.74,203.89H71.08L49.89,141a26.31,26.31,0,0,1-.71-2.61,26.77,26.77,0,0,1-.71,2.61L27.23,203.89H22.61Z"/><path class="cls-1" d="M185.5,167.6A44.47,44.47,0,0,1,183,182.85a33.87,33.87,0,0,1-7,11.69,30.94,30.94,0,0,1-10.8,7.48,37.86,37.86,0,0,1-27.78,0,30.92,30.92,0,0,1-10.8-7.48,34.16,34.16,0,0,1-7-11.69,47.41,47.41,0,0,1,0-30.45,34.15,34.15,0,0,1,7-11.69,31.21,31.21,0,0,1,10.8-7.51,35.08,35.08,0,0,1,13.84-2.67,35.69,35.69,0,0,1,13.94,2.64,30.8,30.8,0,0,1,10.8,7.51,34.15,34.15,0,0,1,7,11.71A44.32,44.32,0,0,1,185.5,167.6Zm-5.37,0A41.81,41.81,0,0,0,178,154a29.44,29.44,0,0,0-5.85-10.25,25.12,25.12,0,0,0-9.1-6.43,30.28,30.28,0,0,0-11.81-2.23,29.82,29.82,0,0,0-11.68,2.23,25.64,25.64,0,0,0-9.13,6.43A29.32,29.32,0,0,0,124.53,154a45.33,45.33,0,0,0,0,27.29,29.33,29.33,0,0,0,5.93,10.23,25.35,25.35,0,0,0,9.13,6.41,30.13,30.13,0,0,0,11.68,2.2,30.6,30.6,0,0,0,11.81-2.2,24.84,24.84,0,0,0,9.1-6.41A29.46,29.46,0,0,0,178,181.26,41.74,41.74,0,0,0,180.12,167.6Z"/><path class="cls-1" d="M249.83,185.85q.31-.82.63-1.61a13.91,13.91,0,0,1,.74-1.51l28.19-50.39a1.85,1.85,0,0,1,.81-.82,3.24,3.24,0,0,1,1.11-.15h3.6v72.53h-4.56V142.08a27.87,27.87,0,0,1,.15-2.82L252.26,190a2.21,2.21,0,0,1-2,1.33h-.81a2.28,2.28,0,0,1-2-1.33l-29-50.75a28.35,28.35,0,0,1,.15,2.87v61.82H214V131.37h3.55a3.48,3.48,0,0,1,1.14.15,1.81,1.81,0,0,1,.84.82l28.95,50.44A21,21,0,0,1,249.83,185.85Z"/><path class="cls-1" d="M360.86,131.37v4.36H323.09V165h31.43v4.25H323.09v30.24h37.77v4.36h-43V131.37Z"/><path class="cls-1" d="M393.1,131.54a2.4,2.4,0,0,1,.86.79l46.44,62.84q-.15-1.54-.15-3V131.37h4.56v72.53h-2.48a2.18,2.18,0,0,1-1.88-1l-46.64-62.94q.15,1.54.15,2.92v61h-4.51V131.37H392A2.83,2.83,0,0,1,393.1,131.54Z"/><path class="cls-1" d="M477.15,172.08v32.64h-5.26V132.56h18.63q12.64,0,18.89,4.82t6.25,14.15a19.21,19.21,0,0,1-1.45,7.55,17.7,17.7,0,0,1-4.16,6,22.18,22.18,0,0,1-6.53,4.23,29.3,29.3,0,0,1-8.62,2.17,8.35,8.35,0,0,1,2.22,2l25.13,31.21h-4.59a3.06,3.06,0,0,1-1.42-.31,3.69,3.69,0,0,1-1.16-1L491.7,174.12a5.19,5.19,0,0,0-1.88-1.58,8,8,0,0,0-3.12-.46Zm0-3.88h12.69a30.41,30.41,0,0,0,8.7-1.15,18.82,18.82,0,0,0,6.5-3.29,14.23,14.23,0,0,0,4.05-5.15,16,16,0,0,0,1.39-6.78q0-7.7-5.11-11.42t-14.86-3.72H477.15Z"/><path class="cls-1" d="M561.27,204.71H556V132.56h5.32Z"/><path class="cls-1" d="M638.83,141.33a1.46,1.46,0,0,1-1.34.87,3,3,0,0,1-1.73-.94,22.3,22.3,0,0,0-7.4-4.21,23.06,23.06,0,0,0-13.72.15,14.7,14.7,0,0,0-5.07,3.06,13,13,0,0,0-3.11,4.49,13.79,13.79,0,0,0-1.06,5.35,10.83,10.83,0,0,0,1.58,6.07,14.11,14.11,0,0,0,4.16,4.08,27.07,27.07,0,0,0,5.86,2.83q3.28,1.15,6.75,2.27t6.74,2.47a24.41,24.41,0,0,1,5.86,3.39,14.76,14.76,0,0,1,5.74,12.44,23.12,23.12,0,0,1-1.57,8.54,19.89,19.89,0,0,1-4.57,7,21.47,21.47,0,0,1-7.33,4.67,26.89,26.89,0,0,1-9.91,1.71A28.28,28.28,0,0,1,606.27,203a29.23,29.23,0,0,1-9.13-6.91l1.44-2.24a1.83,1.83,0,0,1,1.45-.76,2.08,2.08,0,0,1,1.19.61l1.76,1.5q1,.89,2.48,1.94a20.57,20.57,0,0,0,3.36,1.94,23.94,23.94,0,0,0,4.39,1.5,23.58,23.58,0,0,0,5.63.61,21.65,21.65,0,0,0,7.75-1.3,17,17,0,0,0,5.76-3.54,15,15,0,0,0,3.59-5.33,17.54,17.54,0,0,0,1.24-6.6,11.52,11.52,0,0,0-1.58-6.3,13.51,13.51,0,0,0-4.16-4.13,27,27,0,0,0-5.86-2.78q-3.28-1.12-6.74-2.19t-6.75-2.4a23.3,23.3,0,0,1-5.86-3.39,15.54,15.54,0,0,1-4.16-5.15,16.88,16.88,0,0,1-1.58-7.72,18.05,18.05,0,0,1,1.4-7,17.34,17.34,0,0,1,4.08-5.94,20.11,20.11,0,0,1,6.64-4.13,24.49,24.49,0,0,1,9-1.56,27.62,27.62,0,0,1,10.21,1.78,24.45,24.45,0,0,1,8.24,5.46Z"/><path class="cls-1" d="M683.22,204.71H677.9V132.56h5.32Z"/><path class="cls-1" d="M729.15,132.74a2.43,2.43,0,0,1,.88.79L777.3,196a29.4,29.4,0,0,1-.15-3V132.56h4.64v72.15h-2.53a2.23,2.23,0,0,1-1.91-1l-47.48-62.62A29,29,0,0,1,730,144v60.73h-4.59V132.56H728A2.94,2.94,0,0,1,729.15,132.74Z"/><path class="cls-1" d="M853.42,201.3a56.32,56.32,0,0,0,6.86-.38,37.44,37.44,0,0,0,5.75-1.15,36.26,36.26,0,0,0,5.06-1.86q2.4-1.1,4.82-2.47V176h-14a1.36,1.36,0,0,1-1-.36,1.09,1.09,0,0,1-.39-.82V172h20.18v25.65A47.84,47.84,0,0,1,875,201a38,38,0,0,1-6.3,2.47,49.12,49.12,0,0,1-7.23,1.53,62,62,0,0,1-8.46.53,38.3,38.3,0,0,1-14.42-2.63,32,32,0,0,1-11.2-7.45,33.49,33.49,0,0,1-7.25-11.65,46,46,0,0,1,0-30.37,33,33,0,0,1,7.33-11.63A32.33,32.33,0,0,1,839,134.37a41.83,41.83,0,0,1,15.2-2.63,49.35,49.35,0,0,1,7.71.56,36.11,36.11,0,0,1,6.58,1.66,31.14,31.14,0,0,1,5.68,2.7,38.45,38.45,0,0,1,5.06,3.7l-1.39,2.24a1.44,1.44,0,0,1-1.29.76,2,2,0,0,1-.88-.2,10.94,10.94,0,0,1-2.25-1.43,24.17,24.17,0,0,0-4-2.35,33.43,33.43,0,0,0-6.27-2.19,37.2,37.2,0,0,0-9.14-1,35,35,0,0,0-12.85,2.24,27.28,27.28,0,0,0-9.78,6.43,28.42,28.42,0,0,0-6.24,10.2A39.22,39.22,0,0,0,823,168.61a39.76,39.76,0,0,0,2.22,13.72,29.3,29.3,0,0,0,6.22,10.27,26.84,26.84,0,0,0,9.6,6.45A32.93,32.93,0,0,0,853.42,201.3Z"/><path class="cls-1" d="M890.9,134.31a5.9,5.9,0,0,1,.49-2.39,6.26,6.26,0,0,1,3.28-3.28,6.1,6.1,0,0,1,4.78,0,6.26,6.26,0,0,1,3.28,3.28,6.1,6.1,0,0,1,0,4.78,6.26,6.26,0,0,1-3.28,3.28,6.1,6.1,0,0,1-4.78,0,6.25,6.25,0,0,1-3.28-3.28A5.9,5.9,0,0,1,890.9,134.31Zm.89,0a5.12,5.12,0,0,0,.41,2.05,5.26,5.26,0,0,0,2.8,2.8,5.29,5.29,0,0,0,4.1,0,5.26,5.26,0,0,0,2.8-2.8,5.29,5.29,0,0,0,0-4.1,5.25,5.25,0,0,0-2.8-2.8,5.29,5.29,0,0,0-4.1,0,5.26,5.26,0,0,0-2.8,2.8A5.12,5.12,0,0,0,891.79,134.31Zm3.92,3.52h-.89v-7.1h2.73a2.4,2.4,0,0,1,1.72.5,2,2,0,0,1,.51,1.46,2.25,2.25,0,0,1-.14.84,1.68,1.68,0,0,1-.39.59,1.91,1.91,0,0,1-.57.38,3.09,3.09,0,0,1-.69.21l2.12,3.11h-1L897,134.72h-1.27Zm0-3.9h1.14l.73,0a2,2,0,0,0,.65-.15,1.15,1.15,0,0,0,.47-.36,1.12,1.12,0,0,0,.18-.69,1.06,1.06,0,0,0-.14-.57,1.07,1.07,0,0,0-.36-.36,1.63,1.63,0,0,0-.51-.19,2.91,2.91,0,0,0-.57-.06h-1.59Z"/></g></g></svg>