<svg xmlns="http://www.w3.org/2000/svg" viewBox="0 0 99.49 58"><title>bbc-black</title><g data-name="Layer 1-2"><path d="M0 0h29.51v27.8H0zm7.78 23.91h7.71a9.37 9.37 0 0 0 3.7-.76 5 5 0 0 0 3.3-4.64 4.84 4.84 0 0 0-3-4.75c-.42-.21-.86-.37-1.29-.55l.3-.18a4.21 4.21 0 0 0 1.94-2.39 4.9 4.9 0 0 0-2-5.56 7.66 7.66 0 0 0-4.36-1.18H8.09a1.63 1.63 0 0 0-.32 0zM0 34.67h5.43a9.68 9.68 0 0 1 4.67 1 5.79 5.79 0 0 1 3.21 5.64 5.63 5.63 0 0 1-3.62 5.4l-.16.1.5.38a16.48 16.48 0 0 1 3.46 4.15c1.28 2 2.59 3.9 3.89 5.85.06.1.14.19.24.32.07-.16.13-.27.18-.4Q22.52 46 27.23 35a.6.6 0 0 1 .68-.45 11.55 11.55 0 0 0 1.44 0 .51.51 0 0 1 .58.36q2.84 6.45 5.7 12.88l4.19 9.43.19.45H37a.42.42 0 0 1-.46-.32c-.92-2.05-1.86-4.1-2.78-6.15a.46.46 0 0 0-.49-.32h-9.11a.44.44 0 0 0-.48.32c-.86 2-1.75 4.06-2.61 6.1a.5.5 0 0 1-.54.35h-6.34a.61.61 0 0 1-.59-.32c-1.36-2.11-2.7-4.23-4.13-6.33a17.13 17.13 0 0 0-2.07-2.35 3.51 3.51 0 0 0-2.65-1H3.3v10H0zM3.32 44.8c1.28-.08 2.54-.06 3.77-.26a3.19 3.19 0 0 0 2.84-3.15 3.17 3.17 0 0 0-2.53-3.64 18.46 18.46 0 0 0-4.08-.22zm21.8 3.11h7.12l-3.7-8.28zm42.94-20.14V0h29.48v27.77zm23.65-9.2l-.53.32A14.46 14.46 0 0 1 87 20.65a10.11 10.11 0 0 1-7.32-.73A6.84 6.84 0 0 1 78 9.32a8 8 0 0 1 5.73-2.48 13.49 13.49 0 0 1 7 1.76l.77.4V5.53a.38.38 0 0 0-.21-.27c-.38-.16-.77-.3-1.16-.44a16.42 16.42 0 0 0-7.53-1.09 11.39 11.39 0 0 0-7.54 3.67 9.83 9.83 0 0 0 2.27 15.05 11.67 11.67 0 0 0 5.51 1.69 16.49 16.49 0 0 0 8.66-1.68.44.44 0 0 0 .22-.32v-3.57zm-57.66 9.21V0h29.48v27.78zm7.73-3.87h7.77a9.31 9.31 0 0 0 3.63-.74 5 5 0 0 0 3.33-4.47 4.87 4.87 0 0 0-2.92-4.89 12.76 12.76 0 0 0-1.35-.59l.32-.19a4.21 4.21 0 0 0 1.94-2.38 4.89 4.89 0 0 0-2-5.59 7.69 7.69 0 0 0-4.36-1.18h-6a1.66 1.66 0 0 0-.35 0zM87.2 34.34a12.7 12.7 0 0 1 8.15 2.81 11.36 11.36 0 0 1 4.11 10 11.18 11.18 0 0 1-3.51 7.52 11.86 11.86 0 0 1-6.71 3.15 13.31 13.31 0 0 1-7.06-.76A11.14 11.14 0 0 1 75 48.37a11.37 11.37 0 0 1 2.48-9.71 11.5 11.5 0 0 1 7.18-4c.86-.19 1.7-.24 2.54-.32zm-.14 3.07c-.38 0-.87.06-1.36.13a8.5 8.5 0 0 0-7.35 10 8.15 8.15 0 0 0 6.56 7.12 9.1 9.1 0 0 0 7.35-1.17A8.85 8.85 0 0 0 95 41.72c-1.79-2.96-4.51-4.2-7.95-4.31zM42.78 34.7h9.31a12.41 12.41 0 0 1 6.35 1.67 10.81 10.81 0 0 1 5.36 8.5 11 11 0 0 1-3.48 9.56 11.31 11.31 0 0 1-6.68 3.09 27.14 27.14 0 0 1-3 .15h-7.9zm3.32 3v17h5.5a9.27 9.27 0 0 0 5.27-1.48 8.24 8.24 0 0 0 3.62-7.14 7.93 7.93 0 0 0-2.35-6 8.65 8.65 0 0 0-5.91-2.39c-1.81-.09-3.63 0-5.43-.06zm21.41-2.99h3.72v22.94h-3.72z"/><path d="M11.36 20.8v-5.36s.05-.05.08-.05a28.41 28.41 0 0 1 4.92.16 4.53 4.53 0 0 1 1 .32 2.29 2.29 0 0 1 1.53 2.29 2.36 2.36 0 0 1-1.67 2.28 5.48 5.48 0 0 1-1.58.33c-1.46.06-2.86.03-4.28.03zm-.01-8.57V7.07h1.12c.76 0 1.53 0 2.29.09A2.23 2.23 0 0 1 17 9.2a2.4 2.4 0 0 1-1.88 2.8 12.46 12.46 0 0 1-2.15.26c-.51 0-1.05-.03-1.62-.03zm34.03 3.14a32.78 32.78 0 0 1 5 .19 4.47 4.47 0 0 1 .92.32 2.28 2.28 0 0 1 1.51 2.34 2.31 2.31 0 0 1-1.66 2.21 7.69 7.69 0 0 1-2 .39c-1.19.06-2.38 0-3.57 0h-.2zm0-3.1V7.06a17.17 17.17 0 0 1 4.05.23A2 2 0 0 1 51 9.09a2.33 2.33 0 0 1-1 2.49 4.39 4.39 0 0 1-1.6.54c-1 .12-2 .11-3.02.15z"/></g></svg>