<svg xmlns="http://www.w3.org/2000/svg" viewBox="0 0 100.95 18.79"><title>cosmo-black</title><g data-name="Layer 2"><path d="M28.24 5.19v13.17a16.44 16.44 0 0 1-2.38 0v-1.77l-.1.15a3.92 3.92 0 0 1-3 2 4.82 4.82 0 0 1-1.88-.11 3.39 3.39 0 0 1-2.15-1.72 5.76 5.76 0 0 1-.64-2c-.06-.46-.09-.92-.12-1.39v-.2a26 26 0 0 1 2.82 0v.24a5 5 0 0 0 .14 1.34 2.53 2.53 0 0 0 .25.6 1.14 1.14 0 0 0 1.22.53 1.42 1.42 0 0 0 1.16-1.17 2.48 2.48 0 0 0-.32-1.95 5.67 5.67 0 0 0-1.24-1.4c-.52-.46-1.07-.9-1.59-1.36a9.25 9.25 0 0 1-1.66-1.83A5.78 5.78 0 0 1 18 6.88a.62.62 0 0 0-.11-.21 1 1 0 0 0 0 .13c0 .27 0 .53.06.8.05 1.17.06 2.34 0 3.51a19.1 19.1 0 0 1-.46 3.49 7.53 7.53 0 0 1-1 2.51 3.49 3.49 0 0 1-2.61 1.6 4.17 4.17 0 0 1-2.33-.34A3.71 3.71 0 0 1 10 17a7.72 7.72 0 0 1-.94-2.47c-.1-.47-.17-.94-.26-1.41a.14.14 0 0 0-.06-.1v.46a10.77 10.77 0 0 1-.34 2.16 5 5 0 0 1-.91 1.87 3.29 3.29 0 0 1-2.07 1.19 4.68 4.68 0 0 1-1.8 0 3.34 3.34 0 0 1-2-1.35 6.36 6.36 0 0 1-1-2.15 15.29 15.29 0 0 1-.48-2.68A32.69 32.69 0 0 1 0 8.17a17.5 17.5 0 0 1 .65-4.38 7.3 7.3 0 0 1 1-2.16A3.63 3.63 0 0 1 3.54.16 3.86 3.86 0 0 1 5.09 0a3.86 3.86 0 0 1 1.28.37A3.36 3.36 0 0 1 7.94 2a6.52 6.52 0 0 1 .59 1.91 13.54 13.54 0 0 1 .18 2 .2.2 0 0 0 0 .13.89.89 0 0 0 0-.14 14 14 0 0 1 .49-2.14 7 7 0 0 1 .94-2.15A3.47 3.47 0 0 1 12.52.07a4.17 4.17 0 0 1 2.63.36 3.74 3.74 0 0 1 1.47 1.42 7.51 7.51 0 0 1 .83 2.09c.06.25.11.51.17.76a.25.25 0 0 0 .06.11.74.74 0 0 0 0-.32 5.75 5.75 0 0 1 .53-2.2A3.72 3.72 0 0 1 20.88.12a4.37 4.37 0 0 1 2.45.12 3.39 3.39 0 0 1 2 1.93 6.07 6.07 0 0 1 .42 1.29l.06.24V.4h4.29c.24 1.54.49 3.08.71 4.62.29 2 .69 4.45.77 4.61a.51.51 0 0 0 .05-.11q.13-.75.25-1.5l.49-3 .53-3.25c.07-.44.15-.89.21-1.36h4.14v18a24 24 0 0 1-2.81 0V5.14c-.1.18-.51 2.57-.79 4.41-.23 1.47-.48 2.95-.72 4.42s-.48 2.93-.73 4.38a9.6 9.6 0 0 1-1.78 0q-.53-3.29-1.07-6.59c-.36-2.2-.71-4.39-1.07-6.59zM5.9 6.87V5.69a9.67 9.67 0 0 0-.26-1.79 2.38 2.38 0 0 0-.31-.78.77.77 0 0 0-1.33.04 2.71 2.71 0 0 0-.15.32 5.77 5.77 0 0 0-.33 1.59c-.08.89-.15 1.77-.17 2.66 0 1.87 0 3.73.08 5.6a13.52 13.52 0 0 0 .17 1.4 3.26 3.26 0 0 0 .24.74.73.73 0 0 0 .6.45 1 1 0 0 0 1.13-.6 3.78 3.78 0 0 0 .32-1.13A17.5 17.5 0 0 0 6.06 12v-.27c.89 0 1.75.09 2.61.09 0-.86-.06-1.67-.06-2.5s0-1.64.07-2.48zm8.65 2.51V6.07a12.86 12.86 0 0 0-.17-1.89 3.18 3.18 0 0 0-.33-1 .76.76 0 0 0-1.35 0 3.27 3.27 0 0 0-.28.73 10.61 10.61 0 0 0-.25 2.43v5.41c0 .54 0 1.09.05 1.62s.09.89.17 1.34a2.47 2.47 0 0 0 .3.89.76.76 0 0 0 1.36 0 2.18 2.18 0 0 0 .25-.64 10.24 10.24 0 0 0 .21-1.35c.05-.77.07-1.53.08-2.3s0-1.26 0-1.89zm8.56-3.88a1.41 1.41 0 0 0 0-.15 7.5 7.5 0 0 0 0-.82 6.54 6.54 0 0 0-.18-.89A1.17 1.17 0 0 0 22.5 3a1.12 1.12 0 0 0-1.58.16l-.08.11a2.15 2.15 0 0 0-.27 1.42 2.79 2.79 0 0 0 .57 1.35 8.86 8.86 0 0 0 1.3 1.35c.59.53 1.2 1 1.77 1.59a7.51 7.51 0 0 1 1.53 2l.07.11c.06-.21.05-5.43 0-5.6zM46.68 12l-.06.52A13.81 13.81 0 0 1 46 15.7a5.85 5.85 0 0 1-1 1.68 3.39 3.39 0 0 1-2 1.27 4.52 4.52 0 0 1-2.17-.07A3.47 3.47 0 0 1 39 17.19a7 7 0 0 1-1-2.33 15.84 15.84 0 0 1-.43-2.66 29.64 29.64 0 0 1-.12-3.78 27.37 27.37 0 0 1 .24-3 10.83 10.83 0 0 1 .81-2.94A4.44 4.44 0 0 1 39.67.8a3.46 3.46 0 0 1 1.79-.75 4.48 4.48 0 0 1 1.93.15 3.57 3.57 0 0 1 2 1.59 7.8 7.8 0 0 1 .93 2.39 19 19 0 0 1 .38 2.46.19.19 0 0 0 .06.13V.4h3.85a6.34 6.34 0 0 1 2.34.48 3.85 3.85 0 0 1 2.24 2.47 7.88 7.88 0 0 1 .33 1.93.37.37 0 0 0 0 .13v.05c0-.12 0-.21.06-.32a10.82 10.82 0 0 1 .64-2.4 5.27 5.27 0 0 1 .91-1.52A3.37 3.37 0 0 1 59 .12a4.44 4.44 0 0 1 2.32.08 3.55 3.55 0 0 1 2 1.58 7.68 7.68 0 0 1 .93 2.36 17.84 17.84 0 0 1 .35 2.66 34.25 34.25 0 0 1 .07 4 18.74 18.74 0 0 1-.49 3.86 7.66 7.66 0 0 1-.89 2.23 3.53 3.53 0 0 1-2 1.62 4.34 4.34 0 0 1-2.74-.06 3.43 3.43 0 0 1-1.67-1.31 6.74 6.74 0 0 1-1-2.13 15.08 15.08 0 0 1-.44-2.38 33.59 33.59 0 0 1-.15-4.3V7.9c-.11.07-.1.17-.12.25a4.9 4.9 0 0 1-.56 1.32 3.47 3.47 0 0 1-2.3 1.57 5.83 5.83 0 0 1-1.18.11H50v7.2h-3.27V12zm-3.39-2.61c0-1.36-.06-2.72-.11-4.08A11.05 11.05 0 0 0 43 3.93a2.16 2.16 0 0 0-.29-.79.74.74 0 0 0-.47-.35.75.75 0 0 0-.86.35 2.29 2.29 0 0 0-.29.74 11.29 11.29 0 0 0-.25 2.43v5.41c0 .54 0 1.09.05 1.62s.09.89.17 1.34a2.38 2.38 0 0 0 .32.92.76.76 0 0 0 1.32 0 2.19 2.19 0 0 0 .3-.6 10 10 0 0 0 .21-1.35c.05-.76.07-1.52.08-2.28s0-1.29 0-1.93zm17.93 0V5.85c0-.59-.13-1.11-.22-1.66a3 3 0 0 0-.32-1 .77.77 0 0 0-1.38 0 3.36 3.36 0 0 0-.26.71 10.6 10.6 0 0 0-.25 2.41v5.43c0 .53 0 1.07.05 1.6s.1.91.17 1.36a2.45 2.45 0 0 0 .3.88.76.76 0 0 0 1.37 0 2.13 2.13 0 0 0 .24-.63 10.65 10.65 0 0 0 .21-1.38c.05-.77.07-1.55.08-2.32V9.37zM50 8.54a2.91 2.91 0 0 0 .92 0A1.44 1.44 0 0 0 52 7.55a3.72 3.72 0 0 0 .18-.67 6.75 6.75 0 0 0 0-1.85A3 3 0 0 0 52 3.88a1.25 1.25 0 0 0-.8-.64 3.49 3.49 0 0 0-1.2-.07zm45 9.82c-.15 0-5.31.07-5.62 0l-.48-3.95h-2.68c-.17 1.31-.3 2.62-.47 4h-2.68l1.05-7.62c.35-2.54.7-5.07 1-7.63H82.4v15.19a28.29 28.29 0 0 1-3.2 0V3.13h-2.72a21.39 21.39 0 0 1 0-2.73h8.71v2.12h.06l.3-2.15h4.65c.23 1.8.43 3.59.66 5.38s.43 3.6.64 5.41.43 3.59.69 5.38a.91.91 0 0 0 0-.13V.4h2.91c.23 0 .23 0 .3.23l2 6.57.77 2.48a.47.47 0 0 0 .1.18V.42a22.92 22.92 0 0 1 2.53 0c0 .15.05 17.68 0 18h-2.21c-.21 0-.23 0-.29-.21l-2.07-6.45-1.17-4.09-.06-.15a.54.54 0 0 0 0 .08v10.76zM87.58 3.12c-.09.21-1.05 8.45-1 8.64h1.32a3 3 0 0 0 .66 0c-.3-2.85-.61-5.67-.91-8.49a.58.58 0 0 0-.07-.15zM68 15.62h4a23.06 23.06 0 0 1 0 2.75h-7.25V.42a30 30 0 0 1 3.25 0zM72.66.39h3.16v17.97a28.75 28.75 0 0 1-3.19 0z" data-name="Layer 1"/></g></svg>