<svg xmlns="http://www.w3.org/2000/svg" viewBox="0 0 100.61 100"><title>hammertonail-black</title><g data-name="Layer 2"><g data-name="Layer 1"><g data-name="Layer 2"><g data-name="Layer 1-2"><path d="M50.41 100C26.41 100.94.16 81.53 0 50.25-.14 21.91 22-.06 50.34 0 81.13.07 101 25.25 100.61 50.67 100.2 79 76.29 100.71 50.41 100zM7.93 49.65A42.6 42.6 0 0 0 50 92.38a42.7 42.7 0 0 0 42.7-42.19c.2-22.66-18.92-41.86-41.54-42.3C27.75 7.41 8 26.54 7.93 49.65z"/><path d="M50.66 76c-2-3.56-3.51-7.19-3.31-11.53.28-5.92.06-11.86.08-17.79 0-3.36 0-3.35 3.33-3.5a3.69 3.69 0 0 0 2.09-.65c-.71-.08-1.42-.21-2.14-.25a10.6 10.6 0 0 1-2.16-.22l4.11-.44c.07 0 .12-.14.39-.47l-4.53-.3v-.13l4.33-.32v-.52c-.83-.08-1.66-.21-2.49-.21-1.4 0-2.87.22-3.24-1.77-.06-.33-.51-.68-.87-.85-4.65-2.26-9.24-4.8-14.72-2.76a28.84 28.84 0 0 1-2.85.56c-1.29.34-2.82.65-3.37-.87s1.11-2.13 2.17-2.7a41 41 0 0 1 4.72-2.17c3.72-1.44 7.41-3 11.21-4.15a50.19 50.19 0 0 1 8.47-1.79c2.47-.32 4.82-.16 6.68 2.19 1.43 1.81 3.57 1 4.87-.34 1.8-1.94 3.88-1.94 6.18-1.94 2 0 3.06.87 3.12 2.83a40.24 40.24 0 0 1 0 6.78c-.65 4.5-3.74 5.88-8 3.35-3-1.77-2.86-2-5.87.09-.36.25-.71.73-1.06.71-3.73-.13-3.2 2.49-3.24 4.84-.19 8.62-.19 17.25-.65 25.86-.16 2.89-1.61 5.72-2.47 8.58z"/><path d="M38.36 40a21.29 21.29 0 0 1 2.9 0c.77.15 2 .34 2.12.8.28.78.22 2.25-.3 2.65-1.61 1.23-1.33 2.83-1.35 4.4v6.78c0 1.58-.05 3 1.39 4.36s.46 3.28-1.69 3.35-4.31.09-6.47 0c-.76 0-2.08-.46-2.12-.82a7.21 7.21 0 0 1 .65-2.83c.23-.65.9-1.33.84-1.94-.12-1.29-.27-3.29-1-3.62-1.13-.5-3.75-.23-4 .42-.56 1.39-.06 3.24.12 4.87 0 .28.76.43 1 .76a2 2 0 0 1-1.55 3.16c-2.36.09-4.74.08-7.12 0-1.77-.06-2.87-1.79-1.68-3 1.89-1.94 1.35-4.16 1.44-6.34a36.67 36.67 0 0 0 0-5.48 11 11 0 0 0-1.17-3.82c-1.37-2.35-.71-3.65 1.93-3.7 2 0 4.1-.08 6.13 0 .73 0 1.94.47 2 .92a4.83 4.83 0 0 1-.53 2.63c-.21.55-1.06 1-1 1.47 0 1.29 0 3.35.69 3.79 1.06.65 3.57.65 4.1-.06.75-1 .32-3 .28-4.53 0-.28-.68-.5-.91-.84-1.22-1.8-.46-3.33 1.72-3.43 1.22-.01 2.39.05 3.58.05zm24.83 0c2.84-.85 4.65.88 6 3.7a63.68 63.68 0 0 0 3.44 5.83c.19.31.65.47 1 .69.18-.34.54-.71.5-1-.24-2.08.92-4.38-1.58-6.12-1.33-.93-.3-2.95 1.46-3a48.33 48.33 0 0 1 4.84 0c2.31.06 3.24 1.74 1.7 3.53a5.66 5.66 0 0 0-1.22 4.15c0 4.09-.06 8.18 0 12.3 0 1.79-.65 2.36-2.44 2.47-2.89.1-4.89-.55-6.16-3.44a67.77 67.77 0 0 0-4.2-7.26 4.39 4.39 0 0 0-.9-.84c-.19.43-.6.89-.56 1.29.27 2.41-.9 5 1.54 7.17 1.19 1.06 0 2.84-1.83 2.91a33.35 33.35 0 0 1-4.53 0c-.74-.07-1.94-.45-2-.91a5.45 5.45 0 0 1 .44-2.67c.38-1.26 1.16-2.47 1.24-3.73a77.12 77.12 0 0 0-.08-8.42A12.75 12.75 0 0 0 59 44c-.3-1.06-.88-2.2-.69-3.17.09-.44 1.76-.6 2.73-.8a13.31 13.31 0 0 1 2.15-.03z"/></g></g></g></g></svg>