<svg xmlns="http://www.w3.org/2000/svg" viewBox="0 0 101 101"><title>hollywoodreporter-black</title><g data-name="Layer 1-2"><path d="M50.5 0A50.5 50.5 0 1 0 101 50.5 50.5 50.5 0 0 0 50.5 0zM27.81 40.32c-2.31 6.75-4.71 13.47-7.05 20.21-.51 1.47-.31 1.68 1.24 1.77.51 0 1.06.14 1.59.22v.46a5.52 5.52 0 0 1-1.35.36H11.86a3.52 3.52 0 0 1-1.2-.51c.4-.17.82-.51 1.2-.48 1.72.15 2.55-.67 3.06-2.25 2.25-6.64 4.59-13.23 6.9-19.84.51-1.4.35-1.53-1.09-1.57a4.63 4.63 0 0 0-3.84 1.53c-1.83 2.16-3.53 4.43-5.28 6.64-.27.34-.58.66-.87 1l-.36-.15a6 6 0 0 1 .13-1.33c.83-2.47 1.68-4.88 2.51-7.32A1.82 1.82 0 0 1 15 37.62h21.29c1 0 1.49.31 1.07 1.44-.94 2.55-1.81 5.1-2.72 7.66a7.11 7.11 0 0 1-.51 1l-.47-.11c0-.54-.08-1.08-.12-1.62-.15-1.8-.18-3.63-.51-5.41-.24-1.39-1.17-1.79-2.95-1.89a2 2 0 0 0-2.27 1.63zm30.43 23q-5.26.05-10.52 0a5 5 0 0 1-1.16-.32v-.51a9.38 9.38 0 0 1 1.64-.24 2 2 0 0 0 2.2-1.53c1-3 2.1-5.94 3.15-8.9.28-.8 0-1.22-.84-1.23-2.4 0-4.8-.06-7.19 0a1.87 1.87 0 0 0-1.33 1c-1.15 3-2.21 6-3.26 9-.34 1 .09 1.53 1.14 1.59a14.8 14.8 0 0 1 1.49.24l.05.38a3.31 3.31 0 0 1-1.06.41H31.77a3 3 0 0 1-.84-.27l-.07-.42a8.44 8.44 0 0 1 1.41-.32c2-.11 2.22-.27 2.86-2.11Q38.55 50.53 42 40.9c.64-1.81.48-2.08-1.38-2.25a9 9 0 0 1-1.28-.33c1.08-.9 11.45-1 12.79.06a7.37 7.37 0 0 1-1.61.28 2.15 2.15 0 0 0-2.35 1.7c-.87 2.52-1.8 5-2.69 7.52-.47 1.33-.28 1.63 1.1 1.64h6.52a1.59 1.59 0 0 0 1.69-1.18L57.8 40c.32-.88-.12-1.22-1-1.3-.57 0-1.13-.15-1.69-.23v-.77c4.17-.13 8.34-.09 12.51 0l.09.65a4.92 4.92 0 0 1-1.43.32 2.47 2.47 0 0 0-2.91 2c-2.25 6.68-4.65 13.31-7 20C56 62 56.2 62.2 57.66 62.3c.58 0 1.15.13 1.73.19l.05.45a4.12 4.12 0 0 1-1.19.4zm24.3.29a3.91 3.91 0 0 1-3.11-4 26.4 26.4 0 0 1 .44-3.61c0-.31.13-.61.18-.91.6-3.51-1.21-5.18-4.69-4.27a1.86 1.86 0 0 0-1.08 1q-1.68 4.41-3.21 8.88c-.37 1.08 0 1.53 1.22 1.62q.79.07 1.57.18c.06 0 .1.14.29.42a4.12 4.12 0 0 1-1.21.44q-5.46.05-10.92 0a3.9 3.9 0 0 1-1-.29v-.47a6.49 6.49 0 0 1 1.53-.26 2.47 2.47 0 0 0 2.78-1.89c2.25-6.45 4.59-12.87 6.85-19.3.75-2.13.64-2.23-1.61-2.48a5.27 5.27 0 0 1-1-.31v-.42a7.37 7.37 0 0 1 1.43-.3c3.82 0 7.66-.09 11.45 0a13.5 13.5 0 0 1 4.4.89c3.57 1.4 4.37 5.24 1.81 8.17-1.77 2-4.15 2.8-6.64 3.39l-.8.14a7 7 0 0 0 .67.47c3.06 1.53 3.88 3 3.57 6.38a22.59 22.59 0 0 0-.34 2.77c0 .62.34 1.63.73 1.74a2.5 2.5 0 0 0 2-.55 15.49 15.49 0 0 0 1.59-2.27 3.4 3.4 0 0 1 .84-.61 2.77 2.77 0 0 1 .12 1.08 6.59 6.59 0 0 1-7.83 4.36z"/><path d="M84.39 41.13a2.8 2.8 0 0 0-2.61-2.42c-2.31-.27-2.86 0-3.49 1.67-1 2.61-1.86 5.25-2.82 7.87-.33.9 0 1.25.84 1.29h1.06a7.26 7.26 0 0 0 7-8.41z"/></g></svg>