<svg xmlns="http://www.w3.org/2000/svg" viewBox="0 0 77.4 48.76"><defs><style>.cls-1{fill:#fff}</style></defs><title>huffpost-white</title><g id="Layer_2" data-name="Layer 2"><path class="cls-1" d="M11.65 11H6.48c-.78 0-.92.13-.92.9 0 2.19 0 4.39.09 6.58 0 1.31.51 1.76 1.81 1.86.19 0 .39.07.58.07s.55.1.53.46-.25.49-.62.48c-1.41 0-2.83-.09-4.24-.09-.94 0-1.88.05-2.83.09-.3 0-.52 0-.55-.39s0-.54.42-.57a4.77 4.77 0 0 0 .66-.14c1-.23 1.28-.58 1.35-1.57 0-.5.05-1 .05-1.51V4.46a13.57 13.57 0 0 0-.11-1.94C2.53 1.41 2.29 1.19 1.19 1A4.22 4.22 0 0 0 .5 1C.16 1 0 .85 0 .48S.18 0 .53 0h7.21c.32 0 .43.15.44.44s0 .49-.37.51S7.3 1 7 1.06c-.94.14-1.36.52-1.38 1.45-.06 2.1-.08 4.19-.1 6.29 0 .59.13.72.72.74h10.59c.84 0 .92-.11.92-.94V3.08c0-1.63-.42-2-2-2.13-.36 0-.62-.09-.57-.52s.15-.45.5-.44h7.12c.35 0 .46.17.49.46a.41.41 0 0 1-.45.5c-.26 0-.52.05-.77.09-1 .14-1.32.51-1.4 1.45-.06.66-.09 1.33-.1 2v12.59c0 .6 0 1.2.1 1.8.09.94.5 1.31 1.58 1.45.23 0 .48.08.72.09s.43.2.41.48-.13.48-.49.46c-1.12 0-2.24-.09-3.36-.09s-2.53 0-3.8.09c-.34 0-.53-.09-.56-.44s.14-.5.48-.54a7.38 7.38 0 0 0 .86-.15c.86-.19 1.24-.56 1.26-1.43 0-2.37.05-4.75.05-7.13 0-.55-.15-.68-.72-.69h-5.45zM29 48.75c-5.82.16-10.48-3-11.65-8.37a11.09 11.09 0 0 1 9.24-13.68 12.14 12.14 0 0 1 7.09.93 10.08 10.08 0 0 1 5.79 8 11.19 11.19 0 0 1-1.57 8 10.63 10.63 0 0 1-7.65 4.93c-.44.13-.91.15-1.25.19zm-1.3-21.08A7 7 0 0 0 21.36 32a11.42 11.42 0 0 0-.92 5.52 13.45 13.45 0 0 0 1.63 6.05 7.5 7.5 0 0 0 7.79 4 6.74 6.74 0 0 0 5.78-4.87 13.78 13.78 0 0 0-.78-10.7c-1.36-2.83-3.67-4.28-7.14-4.33zM27 8.19V2.83c-.1-1.35-.54-1.78-1.89-1.83h-.53c-.17 0-.41-.22-.38-.5a.42.42 0 0 1 .41-.5H32c.34 0 .49.14.52.43a.38.38 0 0 1-.27.47h-.13a8.58 8.58 0 0 0-.92.09c-1 .17-1.3.51-1.38 1.52 0 .61-.09 1.23-.09 1.84v8.15a12 12 0 0 0 .67 4 5.35 5.35 0 0 0 5.06 3.71 6.05 6.05 0 0 0 4.75-1.45A6.73 6.73 0 0 0 42.19 15a18.73 18.73 0 0 0 .29-3.1c0-2.42 0-4.84-.09-7.27a13.36 13.36 0 0 0-.25-2.13c-.2-1.09-.61-1.41-1.71-1.48h-.63c-.34 0-.45-.23-.41-.53s.2-.38.5-.38h6.44c.28 0 .48 0 .52.35s-.08.53-.44.56a7.24 7.24 0 0 0-1 .13c-.8.18-1.1.46-1.18 1.27-.13 1.44-.25 2.88-.28 4.32 0 2 .06 4.1 0 6.15a17.74 17.74 0 0 1-.65 3.87 6.56 6.56 0 0 1-4.67 4.66 11.14 11.14 0 0 1-7-.13 6.31 6.31 0 0 1-4.3-5.43 29.21 29.21 0 0 1-.33-3.67v-4zM5.56 36.73v7c0 .69 0 1.36.09 2 .08 1 .55 1.41 1.72 1.54.27 0 .55.09.82.09s.48.17.46.49-.18.48-.54.46c-1.07 0-2.14-.1-3.22-.1-1.4 0-2.79.05-4.19.09-.31 0-.55 0-.58-.41s.13-.54.49-.55a4.93 4.93 0 0 0 .72-.11c1-.22 1.36-.59 1.42-1.66 0-.49 0-1 .05-1.46V31.05a11.06 11.06 0 0 0-.12-1.74c-.11-.67-.43-.92-1.12-1l-1.05-.13c-.3 0-.49-.17-.46-.5a.46.46 0 0 1 .42-.5h.05c.55 0 1.1-.13 1.65-.14a40.27 40.27 0 0 1 7.68.16 6.23 6.23 0 0 1 4.74 2.9A5.71 5.71 0 0 1 12 38.29a11.1 11.1 0 0 1-4 .89c-.27 0-.49-.09-.46-.36a.62.62 0 0 1 .33-.42c.56-.21 1.15-.33 1.7-.57a4.23 4.23 0 0 0 2.62-3.27 6.83 6.83 0 0 0-.08-3.14A4.36 4.36 0 0 0 8 28.12a16 16 0 0 0-1.66 0c-.55 0-.74.18-.79.76v.44q.01 3.68.01 7.41zM77.36.11v3.98c0 .34-.18.48-.43.46a.81.81 0 0 1-.49-.34 1.54 1.54 0 0 1-.12-.51 2.72 2.72 0 0 0-2.79-2.38c-1.52-.08-3.05 0-4.58 0a.47.47 0 0 0-.55.51v7.39c0 .66.11.79.76.78 1.59 0 3.18-.07 4.77-.12a1.07 1.07 0 0 0 1-.93c.11-.42.21-.85.3-1.28s.38-.38.67-.36.34.27.34.53v5.65a.63.63 0 0 1-.32.49.47.47 0 0 1-.67-.29c-.07-.25-.14-.5-.2-.75-.31-1.25-.61-1.57-1.88-1.63-1.43-.07-2.86 0-4.29 0-.16 0-.32.23-.46.38a.37.37 0 0 0 0 .23c0 2.34 0 4.68.11 7 0 1 .5 1.35 1.55 1.46.35 0 .71.09 1.07.09s.44.19.43.5a.41.41 0 0 1-.49.45c-1 0-2-.1-3-.09-1.54 0-3.09 0-4.63.09-.34 0-.53-.08-.55-.44s.12-.5.47-.52a5.6 5.6 0 0 0 .87-.12c1-.2 1.35-.56 1.41-1.61 0-.49.05-1 .05-1.46V4.18a12.81 12.81 0 0 0-.13-1.89 1.24 1.24 0 0 0-1.25-1.19 6.91 6.91 0 0 0-.77-.1c-.36 0-.43-.23-.4-.53s.14-.43.46-.42l11.31.07zm-15.21 0v4c0 .33-.2.47-.44.45s-.32-.23-.48-.34c-.51-2.19-1.3-2.85-3.54-2.88h-3.95c-.4 0-.56.2-.56.57v7.54c0 .31.12.51.46.51 1.69 0 3.38-.06 5.06-.1a1 1 0 0 0 1-.89c.1-.41.2-.82.28-1.23s.35-.5.72-.44.3.34.3.6v5.5c0 .27.06.55-.32.59s-.61 0-.69-.43a11.9 11.9 0 0 0-.33-1.22 1.29 1.29 0 0 0-1.24-1c-1.59 0-3.18-.07-4.77-.09-.39 0-.46.28-.46.6v3.42c0 1.14 0 2.37.09 3.56s.46 1.44 1.56 1.54c.36 0 .71.09 1.07.09s.41.18.4.46-.12.49-.46.46c-.66 0-1.33-.05-2-.05q-2.8 0-5.6.05c-.36 0-.62-.05-.64-.46s.23-.47.56-.5a9.47 9.47 0 0 0 1.06-.16 1.19 1.19 0 0 0 1.08-1.15 13 13 0 0 0 .11-1.65V3.2c0-1.66-.37-2.05-2-2.23-.34 0-.52-.17-.49-.51a.43.43 0 0 1 .39-.46h.1q5.15.06 10.29.08c1.07.04 2.18.03 3.44.03zm-.09 28.05l-2.28.13a3.41 3.41 0 0 0-3 2.18c-.09.19-.13.45-.28.55a1 1 0 0 1-.67.15c-.26 0-.31-.26-.23-.53.37-1.39.71-2.79 1.09-4.19a.7.7 0 0 1 .36-.41c.24-.1.41.05.51.31a1.11 1.11 0 0 0 1.06.65 10.38 10.38 0 0 0 1.07.05h14.49a1.43 1.43 0 0 0 1.2-.62c.11-.14.4-.15.6-.23a1.74 1.74 0 0 1 .11.51c-.12 1.42-.27 2.84-.39 4.26 0 .32-.15.48-.46.5s-.52-.06-.54-.41a3.66 3.66 0 0 0-.07-.43c-.29-1.48-.44-2-2.4-2.24a36.83 36.83 0 0 0-4.62-.13c-.13 0-.32.21-.38.37a1.79 1.79 0 0 0 0 .63v14.63a14.46 14.46 0 0 0 .11 2c.14 1 .49 1.24 1.44 1.35a8.74 8.74 0 0 0 1 .09c.36 0 .56.13.53.51s-.27.45-.61.43c-1.46 0-2.93-.09-4.39-.09-1.17 0-2.34.05-3.51.09-.34 0-.59 0-.59-.45s.23-.49.57-.5a10.27 10.27 0 0 0 1.12-.1 1.48 1.48 0 0 0 1.52-1.57c.06-.66.1-1.33.1-2V29.01c0-.86 0-.88-.87-.88h-1.58zm-14.9 20.6a10.55 10.55 0 0 1-4.88-1 1.1 1.1 0 0 1-.54-.61c-.27-1.25-.48-2.51-.69-3.77a.42.42 0 0 1 .25-.54h.12c.34-.06.49.09.59.4a6.58 6.58 0 0 0 2.3 3.48 5 5 0 0 0 4.64.69 3.53 3.53 0 0 0 2.33-3.8 4.87 4.87 0 0 0-2.36-3.78c-1.15-.77-2.32-1.51-3.45-2.28A7.32 7.32 0 0 1 42.54 34a5.38 5.38 0 0 1 4-7.21 10.37 10.37 0 0 1 5.15.15 1.61 1.61 0 0 0 .46.12c.69-.05.88.37.95.95.11.92.23 1.84.36 2.75 0 .32-.06.54-.41.59s-.5-.08-.6-.4c-.87-2.59-2.23-3.47-5-3.22a3.11 3.11 0 0 0-2.92 2.88 3.82 3.82 0 0 0 1.46 3.48 22 22 0 0 0 2.31 1.61 18.27 18.27 0 0 1 3.75 2.76 6.23 6.23 0 0 1 .72 7.61 6.08 6.08 0 0 1-4.18 2.52c-.53.12-1.12.14-1.43.17z" id="Layer_1-2" data-name="Layer 1"/></g></svg>