<svg xmlns="http://www.w3.org/2000/svg" viewBox="0 0 94.07 11"><title>huffpost-black</title><g data-name="Layer 2"><g data-name="Layer 1"><g data-name="Layer 2"><g data-name="Layer 1-2"><path d="M12.16 10.78h3.44L17.44.24H14L13.33 4h-3L11 .24H7.59L5.75 10.78h3.43l.69-3.95h3zM19.39.22l-1 5.87a6.74 6.74 0 0 0-.13 1.32c0 3.11 2.72 3.58 4.35 3.58C26 11 27.46 9.85 28 6.78L29.15.21h-3.44l-1 5.51c-.31 1.72-.54 2.63-1.82 2.63-.84 0-1.24-.44-1.24-1.36a7.09 7.09 0 0 1 .16-1.32l1-5.46h-3.42zm27.92 10.56h3.44l.48-2.72h1.62c3 0 4.65-1.62 4.65-4.57 0-2.08-1.44-3.27-4-3.27h-4.35zm5.36-5.32h-1L52.13 3h.93c.76 0 1.16.38 1.16 1.07a1.37 1.37 0 0 1-1.56 1.39zM64.17 0c-3.74 0-6 2.42-6 6.48C58.2 9.3 60 11 63 11c3.74 0 6-2.42 6-6.48C68.94 1.69 67.16 0 64.17 0zm-1 8.27c-.89 0-1.41-.64-1.41-1.71a5.85 5.85 0 0 1 .12-1.16c.26-1.38.71-2.65 2.1-2.65.89 0 1.41.64 1.41 1.71a5.85 5.85 0 0 1-.12 1.16C65 7 64.56 8.27 63.17 8.27zm17.71 2.51h3.44l1.36-7.72h2.59l.5-2.82H80l-.5 2.82h2.74zm-5.7-6.65c-1.08-.34-1.53-.48-1.53-1 0-.34.22-.74.88-.74a1.1 1.1 0 0 1 1 .68l3-.82C78.25.76 77 0 74.77 0c-4.15 0-4.48 2.78-4.48 3.63 0 1.72.91 2.78 2.9 3.33.52.14 1.12.3 1.12.88s-.34.74-.93.74a1.39 1.39 0 0 1-1.31-.86l-3 .81C69.41 10.1 70.89 11 73.2 11c1.76 0 4.72-.47 4.72-3.66.01-1.6-.92-2.65-2.74-3.21zM3.83 10.78L5.68.24H0v10.54zM90.23.24l-1.84 10.54h5.68V.24zM31.11.22l-1.85 10.56h3.44l.55-3.11h2.88l.48-2.65h-2.89l.33-1.96h4.03l.5-2.84h-7.47zm9.01 0l-1.84 10.56h3.43l.54-3.11h2.9l.47-2.65h-2.89l.33-1.96h4.04l.49-2.84h-7.47z" data-name="Layer 1-3"/></g></g></g></g></svg>