<svg xmlns="http://www.w3.org/2000/svg" viewBox="0 0 98.45 34"><title>inc-black</title><g data-name="Layer 2"><g data-name="Layer 1"><g data-name="Layer 2"><path d="M38.83 12.81c.16-.17.32-.34.47-.52A11.15 11.15 0 0 1 47 8.18a16.91 16.91 0 0 1 6 .36 8.55 8.55 0 0 1 3.63 1.85 7 7 0 0 1 2.25 4.22 12 12 0 0 1 .12 1.85v9.61h2.87c-.13-.36-.27-.71-.38-1.08a13.18 13.18 0 0 1 .3-8.8 10.89 10.89 0 0 1 3.33-4.48 15.81 15.81 0 0 1 6.56-3.11 23.2 23.2 0 0 1 8.25-.43 14.34 14.34 0 0 1 6 2.09 10 10 0 0 1 4.28 5.57c.25.8.38 1.66.55 2.47a2.68 2.68 0 0 1 0 .3L81 19.67c0-.48-.08-.93-.13-1.38a7.28 7.28 0 0 0-.55-2.12 3.21 3.21 0 0 0-2.58-2 5.32 5.32 0 0 0-2.6.23A3.53 3.53 0 0 0 73 16.58a8.48 8.48 0 0 0-.49 2.63 21.28 21.28 0 0 0 .18 4.94 7.71 7.71 0 0 0 .52 1.66 3.21 3.21 0 0 0 2.09 1.85 5.09 5.09 0 0 0 4-.33 3.45 3.45 0 0 0 1.79-2.77 4.69 4.69 0 0 1 .11-.56H91c-.13.64-.22 1.26-.39 1.86a10.14 10.14 0 0 1-2.77 4.73 11 11 0 0 1-4 2.39 19.8 19.8 0 0 1-6.2 1 22.25 22.25 0 0 1-7.58-1A14.3 14.3 0 0 1 64 29.2a12.41 12.41 0 0 1-2-2.89v7H44.22v-7.24h3.33v-7.54a3.33 3.33 0 0 0-.63-2.11 3.39 3.39 0 0 0-2.46-1.24 4.79 4.79 0 0 0-3.67 1 4.24 4.24 0 0 0-1.66 3.33V26h3.42v7.32h-18.1v-7.25h3.28V15.13h-3.27V7.85h14.3v4.9zM4.32 7.84H0V0h23.21v7.77h-4.35v18.3h4.33v7.28H0v-7.28h4.32zm94.13 21.5a4.14 4.14 0 1 1-4.14-4.14 4.15 4.15 0 0 1 4.14 4.14z" data-name="Layer 1-2"/></g></g></g></svg>