<svg xmlns="http://www.w3.org/2000/svg" viewBox="0 0 100 19.6"><title>indiewire-black</title><g data-name="Layer 2"><g data-name="Layer 1"><g data-name="Layer 2"><g data-name="Layer 1-2"><path d="M26.59 19.6a13.51 13.51 0 0 1-2.47-1.12c-2.38-1.73-3-4.23-2.88-7a7.93 7.93 0 0 1 1.47-4.28 5.75 5.75 0 0 1 8.72-.82c.08.09.19.16.38.32V.13h5v19.11h-5v-1.83a6.22 6.22 0 0 1-3.43 2.19zm5.27-7.42v-.59A3 3 0 0 0 29.72 9a2.71 2.71 0 0 0-2.9 1 3.6 3.6 0 0 0 .1 4.32 2.7 2.7 0 0 0 4.22 0 3.08 3.08 0 0 0 .7-2.21zm18.53 7.42a20.75 20.75 0 0 1-2.26-.6A7.25 7.25 0 0 1 44 10.16a7.06 7.06 0 0 1 7.81-5.37A6.72 6.72 0 0 1 58 11.21c.07.75.07 1.52.11 2.33H48.6a2.58 2.58 0 0 0 1.6 2.05 4.08 4.08 0 0 0 4.6-1.15l2.74 2.27a7.34 7.34 0 0 1-3.91 2.61c-.42.11-.85.18-1.28.27zm3-8.64a2.41 2.41 0 0 0-2.26-2.55H51A2.46 2.46 0 0 0 48.6 11zM0 0h5.21v19.34H0zm93 19.6c-.39-.11-.8-.2-1.19-.33a6.93 6.93 0 0 1-4.66-7.32 6.81 6.81 0 0 1 3.33-5.71 6.19 6.19 0 0 1 9.35 4.51 7.93 7.93 0 0 1 .14 1.1v1.43H89.25a4.66 4.66 0 0 0 2.49 4c2 1.06 3.93.65 6.58-1.32L99.55 17a7.14 7.14 0 0 1-4.06 2.44c-.17 0-.33.09-.5.13zm4.84-8a4.37 4.37 0 0 0-4.34-4.48 4.55 4.55 0 0 0-4.18 4.48zM11.35 5.07V6.9a16.13 16.13 0 0 1 1.26-1.16 4.91 4.91 0 0 1 5.16-.55 4.18 4.18 0 0 1 2.58 4c.1 3.35 0 6.7 0 10.11h-5v-7.39a6.37 6.37 0 0 0-.11-1.1 1.8 1.8 0 0 0-1.94-1.58 1.9 1.9 0 0 0-1.9 1.64 8.38 8.38 0 0 0-.09 1.24v7.15h-5V5.07z"/><path d="M70.83 16.45C72 13 73.1 9.59 74.18 6.23c.15-.47.36-.62.82-.59s.92 0 1.46 0c-.06.23-.1.41-.16.58q-2.19 6.28-4.37 12.56c-.14.41-.32.66-.79.56H71c-1.27 0-.95.19-1.34-.95-1-3-2-6-3.06-9-.06-.18-.15-.34-.27-.64-.62 1.81-1.21 3.49-1.79 5.18s-1.1 3.18-1.61 4.78a.76.76 0 0 1-.87.64c-1.18 0-1.18 0-1.57-1.12-.5-1.42-1-2.84-1.47-4.27a5.32 5.32 0 0 1-.26-1.53 8.46 8.46 0 0 0-2.29-6.08 3.06 3.06 0 0 1-.36-.7 19.36 19.36 0 0 1 1.94 0c.16 0 .36.32.43.52 1.07 3.19 2.11 6.39 3.15 9.58.06.18.13.36.23.64.12-.31.22-.52.29-.74 1.06-3.17 2.12-6.33 3.15-9.51a.67.67 0 0 1 .7-.52c1.13 0 1.12 0 1.49 1.1L70.63 16a4.15 4.15 0 0 0 .2.45zM37.94 5.05h5v13.62c0 .5-.11.69-.66.68h-4.39zM82.72 19.3h-2V5.76h2v3.06c1.31-2 2.95-3.36 5.55-3.31v1.86a.55.55 0 0 1-.41.34c-3.29.07-5.07 2.89-5.09 5.66v5.19c-.05.24-.05.44-.05.74zm-3.18-.04h-2V5.7h2zM43 3.78h-5.17V.15H43zm36.68-1.04h-2.29V.52h2.26z"/></g></g></g></g></svg>