<svg xmlns="http://www.w3.org/2000/svg" viewBox="0 0 100.06 21.34"><title>lemonde-black</title><g data-name="Layer 2"><g data-name="Layer 1"><g data-name="Layer 2"><g data-name="Layer 1-2"><path d="M49.77 18c.43.44.36.69-.1.94-.7.38-1.36.84-2.06 1.21-.38.2-.94.51-1.21.37-.67-.35-1.49-.68-1.62-1.61a7.58 7.58 0 0 1-.09-1.06V9.38c0-1.69.09-3.32 1.79-4.42-1.11-.64-2.09-1.26-3.11-1.78-.57-.31-1.74.7-1.74 1.45v10.8a25.06 25.06 0 0 1 0 2.88 2 2 0 0 1-.73 1.25 21.67 21.67 0 0 1-2.51 1.32v-1c0-4.53-.06-9.07 0-13.61a3 3 0 0 0-1.75-3.18c-1.14.27-1.54 1-1.48 2.19.1 2.42 0 4.84 0 7.25a2.8 2.8 0 0 1-1.48 2.58c-.74.42-1.44.92-2.17 1.35a1.66 1.66 0 0 1-.57.1c0-.18 0-.43.12-.54a3.31 3.31 0 0 0 .79-2.46V5.23c0-1.33-.37-1.6-1.68-1.38a5.54 5.54 0 0 1-1.62.23 2.52 2.52 0 0 1-1.56-.62A1.84 1.84 0 0 1 27 1.91 12 12 0 0 1 28.37 0l.63.39a2.51 2.51 0 0 0-.31.48c-.12.34-.2.69-.31 1a3.8 3.8 0 0 0 1.13 0c.71-.2 1.38-.54 2.08-.78 1.77-.62 2.65-.2 3.64 1.69.89-.53 1.8-1 2.67-1.61a.8.8 0 0 1 1.1.17c.78.62 1.56 1.56 2.39 1.61s1.67-.83 2.45-1.39a1.48 1.48 0 0 1 2-.06 7.46 7.46 0 0 0 1 .58c1.54.9 1.54.9 3.25.17l.45.55a2.33 2.33 0 0 1-.42.31C48.47 3.86 47.91 5.21 48 7c.08 3.22 0 6.43 0 9.65a7.08 7.08 0 0 0 0 .82c.11.94.57 1.18 1.38.73zm37.99-.77l1-.42c.36.32.38.56-.07.81-1.69 1-3.37 2-5.06 2.93a1 1 0 0 1-.79 0 30.32 30.32 0 0 1-2.93-1.85 1.66 1.66 0 0 1-.57-1.15c-.06-2.06 0-4.12 0-6.18v-.9l-1.06.45c-.31-.62.13-.79.5-1 1.85-1.07 3.69-2.17 5.57-3.2a1.06 1.06 0 0 0 .57-1.35A3.25 3.25 0 0 0 82.75 3c-.24-.1-.62.19-1 .26s-.74.11-1.12.16l-.08-.31c1.2-.7 2.4-1.4 3.61-2.09a.62.62 0 0 1 .46 0 4.52 4.52 0 0 1 3.08 4.43v10.74c.06.32.06.62.06 1.04zm-2.9-9.69c-.81.48-1.45.9-2.12 1.26a1 1 0 0 0-.58 1v5.61a3.12 3.12 0 0 0 2.69 3zM70.18 8.71C69.26 9 69 9.52 69 10.47c.07 2.58 0 5.17 0 7.75a1.66 1.66 0 0 1-1.27 1.91 15.87 15.87 0 0 0-1.7.71V10.69a2.08 2.08 0 0 0-1-2L64 9.27l-.5-.52L67 6.59c.48.5 1 1 1.4 1.49a.58.58 0 0 0 .9.14 26.7 26.7 0 0 1 2.36-1.34c.25-.12.62 0 .92 0 0 0 .09.06.13.1 2.46 1.93 2.08.92 2.1 4.23v6.18a2 2 0 0 0 .24 1c.5.77 1 .16 1.59-.07.31.36.35.62-.13.86s-1 .63-1.57.9-.84.79-1.54.34-1.4-.87-1.4-1.99v-6.51c0-2.17 0-2.07-1.82-3.21zm-8.69 8.47l.92-.33.21.1c-.1.22-.14.54-.31.64q-2.57 1.56-5.18 3a.92.92 0 0 1-.74-.08c-1-.57-2-1.2-3.06-1.78a1.34 1.34 0 0 1-.66-1.31v-7.29l-1 .47-.19-.14c.15-.26.23-.62.46-.75q2.53-1.54 5.12-3a.9.9 0 0 1 .74 0c1.07.62 2.15 1.21 3.17 1.92a1.63 1.63 0 0 1 .54 1.16c.05 2.11 0 4.23 0 6.34-.02.38-.02.67-.02 1.05zm-3.11 1.4c.1-.15.16-.19.16-.24v-7.4a1 1 0 0 0-.34-.7c-.78-.52-1.61-1-2.42-1.46-.09.14-.15.19-.15.23v7.32a1 1 0 0 0 .31.72c.77.55 1.62 1.03 2.44 1.53zM22.23 10.7c-1.66 1-3.24 2-4.84 2.94-.48.28-.77.6-.66 1.17a.41.41 0 0 1 0 .16c-.45 1.85.66 2.77 2.07 3.5a1 1 0 0 0 .74 0c.62-.28 1.21-.62 1.85-1l.39.76c-1.37.79-2.69 1.58-4 2.32a1 1 0 0 1-.79 0c-.83-.48-1.62-1-2.43-1.54a1.44 1.44 0 0 1-.73-1.36v-7.49l-1 .45-.19-.1c.13-.25.19-.62.4-.74 1.69-1 3.38-2 5.12-3a.66.66 0 0 1 .62.06c1.11 1.26 2.22 2.55 3.45 3.87zm-5.42 2.15l2.46-1.54-2.46-2.82zm83.25-2.15c-1.49.92-2.88 1.85-4.35 2.62a1.83 1.83 0 0 0-1.19 2.12c.1.56-.07 1.29.23 1.65a9.27 9.27 0 0 0 2 1.5c.13.08.42 0 .6-.11.59-.29 1.17-.62 1.82-1l.36.76c-1.42.82-2.77 1.63-4.17 2.4a.82.82 0 0 1-.65-.12 23.49 23.49 0 0 1-2.54-1.68 1.83 1.83 0 0 1-.56-1.23c-.06-2.2 0-4.4 0-6.6v-.88l-1.1.51-.2-.14c.17-.26.29-.62.53-.77q2.46-1.5 5-2.91a.81.81 0 0 1 .75 0c1.13 1.28 2.26 2.55 3.47 3.88zm-3 .62l-2.27-2.67-.18.11v4.09zm-81.89-8.1l-3.74 2.35a.76.76 0 0 1 .33-1.12c.75-.51.8-.8.25-1.54a2.2 2.2 0 0 0-2.15-1.1A2 2 0 0 0 8 3.73a32.41 32.41 0 0 0 .18 4.65c.11 1.34.38 2.66.49 4a3.08 3.08 0 0 1-1.43 2.89c-.56.39-1.1.82-1.67 1.21a.53.53 0 0 1-.42 0c-.06 0-.12-.26-.08-.35.9-1.77.31-3.54 0-5.32a32.12 32.12 0 0 1-.52-4.16A5.81 5.81 0 0 1 9.94 1a5.55 5.55 0 0 1 5 1.82 4.22 4.22 0 0 1 .23.4zm-3.85 15.25l.62-.31c.08.12.23.24.21.34a.82.82 0 0 1-.24.51c-.88.62-1.79 1.17-2.73 1.78-1.54-2.15-3.65-1.94-5.79-1.32a21.78 21.78 0 0 0-2.65 1.12c-.23.1-.46.23-.74.38.11-1.07 2.46-2.89 4.66-3.67 2.34-.83 4.63-.77 6.66 1.17z"/><path d="M36.06 18.45l-3.9 2.32c-1-1.77-2.59-1.89-4.25-1.41-1.15.33-2.23.87-3.41 1.34 0-.07-.08-.34 0-.42 2-1.9 4.21-3.27 7.08-3.13a3.93 3.93 0 0 1 2 .62 1.35 1.35 0 0 0 2.05-.08zm58.3 2.83h-.37a31.85 31.85 0 0 1-2.79-1.9 1.9 1.9 0 0 1-.58-1.29c-.06-2.15 0-4.28 0-6.42 0-.14.1-.27.32-.4v6.19a2.15 2.15 0 0 0 1.15 2.1c.81.47 1.58 1 2.36 1.54zm-48.22-.18a2.29 2.29 0 0 1-2.27-1.45 4.61 4.61 0 0 1-.22-1.37V9.36A9.17 9.17 0 0 1 44 7.13v10.12c0 1.64.23 3.06 2.14 3.85zM69.75 9.74a1.19 1.19 0 0 1 1.54 1.14c0 2.17.05 4.34 0 6.51 0 1.63.22 3 2 3.69a1.89 1.89 0 0 1-2-1 3.61 3.61 0 0 1-.29-1.39v-6.26c0-1.1.12-2.19-1.25-2.69zm8.86 1.91v5.51a2.27 2.27 0 0 0 1.29 2.35c.88.47 1.69 1.06 2.54 1.59l-.09.19a1.59 1.59 0 0 1-.47-.12c-1-.62-2-1.2-2.91-1.88a1.62 1.62 0 0 1-.62-1.08c-.06-2.11 0-4.23 0-6.35a.72.72 0 0 1 .11-.26zM16.5 21.34a2.91 2.91 0 0 1-.54-.21 18.17 18.17 0 0 1-2.25-1.52 2.44 2.44 0 0 1-.87-1.47c-.1-2.13 0-4.29 0-6.44 0-.14.09-.28.31-.42 0 .22.06.43.06.65 0 1.73.06 3.47 0 5.2a2.51 2.51 0 0 0 1.41 2.63c.73.39 1.38.9 2.08 1.36zM64.84 9.51c.62 0 .6.4.59.83v10.94h-.31V11a10.63 10.63 0 0 0-.28-1.49zM4.68 15.67c-.35-2.34-.73-4.68-1-7A5.37 5.37 0 0 1 4 5.19c-.39 2.36.31 4.61.62 6.9a23.11 23.11 0 0 1 .13 2.79 3.41 3.41 0 0 1-.21.84zM30.8 4.42c.12.23.34.46.35.7v9a5.07 5.07 0 0 1-.25 1.09h-.22V4.53zm6.53 16.84V6.46c0-1 0-1.91-1.16-2.3.5-.34 1.28.14 1.42.76a1.87 1.87 0 0 1 0 .41v15.38a5.25 5.25 0 0 1-.05.53zM52 11.31v5.89a2.31 2.31 0 0 0 1.3 2.28c1 .51 1.85 1.1 2.79 1.66l-.09.18a1.89 1.89 0 0 1-.49-.13 30.69 30.69 0 0 1-3-1.77 2.11 2.11 0 0 1-.82-1.4c-.09-2.14 0-4.28 0-6.41a1.35 1.35 0 0 1 .07-.31zm30.47-7.6c1.13.12 2.08 1.47 1.65 2.26zM8.32 21.33c-.28-.25-.55-.52-.86-.75s-.76-.49-1.14-.73a2.21 2.21 0 0 1 2.19 1.23zM26.85 4.62c-1-.14-1.33-.69-1-1.88zm18.23.67L42.92 4l.15-.27L45.26 5zM10.12 2.47a1.61 1.61 0 0 1 1.5 1c.06.09 0 .27-.07.41-.11 0-.27 0-.34-.13-.36-.42-.7-.83-1.09-1.28z"/><path d="M29.77 19.83a1.78 1.78 0 0 1 1.6.92c.06.1 0 .28 0 .42-.13 0-.31-.05-.38-.14-.31-.48-.62-1-.9-1.47zM84 17.38V8.77h.18v8.61zm-26.34.09a5.25 5.25 0 0 1-.1-.72v-4.61c0-.79-.12-1.4-.92-1.7-.16-.06-.27-.23-.47-.4 1.15.1 1.7.66 1.7 1.64v5.76z"/></g></g></g></g></svg>