<svg xmlns="http://www.w3.org/2000/svg" viewBox="0 0 62.76 35"><title>maverick-black</title><g data-name="Layer 2"><g data-name="Layer 1"><g data-name="Layer 2"><path d="M22 33.84l-.42-1-1.32-3.36c-.36-.91-.72-1.83-1.08-2.74 0-.08-.12-.18-.19-.19h-.93L21.49 35h.86a.31.31 0 0 0 .21-.17l2.17-5.26.72-1.75c.17-.41.32-.82.5-1.27h-.78a.28.28 0 0 0-.32.22c-.31.79-.63 1.57-.94 2.35l-1.66 4.2zm11.05-6.43v-.87h-5.7V35h5.85v-.9h-4.85v-2.98h4.19v-.87h-4.2v-2.84zM31.07 9.77L23.2 0v20.28h4.5v-4.8a.84.84 0 0 1 .21-.58c.67-.82 1.32-1.64 2-2.46L31.06 11c.07.08.14.14.2.21l3.08 3.86a.77.77 0 0 1 .15.44v4.8H39V.07h-.06zM27 19.54h-2.81L27 16.09zm.77-5.6V6.82l2.86 3.56zm6.75.08l-1.05-1.3-1.66-2.06c-.23-.28-.23-.27 0-.55l2.15-2.69.56-.69zm.77 5.53v-3.38L38 19.54zm6.08 10.95a3.36 3.36 0 0 0 .14-1.77 2.36 2.36 0 0 0-1.33-1.82 3.61 3.61 0 0 0-1.55-.39H35V35h1v-2.69h2.66a.31.31 0 0 1 .21.13l1.57 2.38c.05.08.14.18.22.19h1l-2-2.88a2.63 2.63 0 0 0 1.71-1.63zm-1.37.35a1.93 1.93 0 0 1-1.26.5h-2.78v-3.68c0-.2.05-.27.26-.26.86 0 1.72 0 2.57.05a1.83 1.83 0 0 1 1.76 1.36 2 2 0 0 1-.55 2.03zM8.51 35v-8.48H7.44a.27.27 0 0 0-.18.14l-2.15 4.28-.84 1.67c-.19-.35-.36-.67-.52-1l-2.49-5c0-.05-.09-.13-.13-.13H.01V35h.88v-7a.22.22 0 0 1 .11.11l1.48 3C3 32 3.42 33 3.87 33.9c.13.26.33.14.5.17s.24-.08.31-.21q.27-.57.55-1.13l2-4 .37-.71h.06V35zm45.03-6.58l.56-.69a4.49 4.49 0 0 0-6.33.11 4.2 4.2 0 0 0 .14 5.94l.11.11a4.46 4.46 0 0 0 6.09-.2l-.58-.61a3.54 3.54 0 0 1-5.17-.25 3.34 3.34 0 0 1 .19-4.43 3.53 3.53 0 0 1 4.99.02zm-9.78-1.89V35h.94v-8.47zm15.39 3.67l3.35-3.68h-1.07a.36.36 0 0 0-.21.12l-3 3.19-1.39 1.51h-.07v-4.81h-.94V35h.95v-2a.58.58 0 0 1 .12-.34c.45-.52.92-1 1.38-1.53l.15-.11.8 1c.72.93 1.44 1.86 2.17 2.78a.43.43 0 0 0 .26.18h1.08L61 32.59zm-44.07-2.91c-.11-.26-.18-.61-.38-.73s-.55 0-.83 0c-.06 0-.15.07-.18.13q-.67 1.47-1.33 2.94l-1.72 3.84L9.92 35h.86a.24.24 0 0 0 .26-.16c.26-.6.53-1.21.78-1.81a.24.24 0 0 1 .26-.18h4.22a.24.24 0 0 1 .26.18c.25.61.52 1.21.79 1.81 0 .07.12.17.18.17h.94a2.52 2.52 0 0 0-.08-.25c-.32-.72-.65-1.43-1-2.15zm-2.77 4.63l1.88-4.33 1.91 4.33z" data-name="Layer 1-2"/></g></g></g></svg>