<svg xmlns="http://www.w3.org/2000/svg" viewBox="0 0 100.11 32"><title>mogul-black</title><g data-name="Layer 2"><g data-name="Layer 1"><g data-name="Layer 2"><path d="M26.42.12v23.74h-7.26v-8.7l-5.88 4.67-5.75-4.64v8.68H0V0l13.32 10.87zM62.4 21.34c-3.84 2.27-7.92 1.76-10.49-1.17-2.8-3.19-2.86-9-.14-12.32 2.53-3.12 6.48-3.67 10.42-1.45 1-1.16 2.93-1.38 7.45-.73-.22 6.43-.05 13-.79 19.41-.6 5.25-5.32 7.76-11.1 6.68v-5.54c4.5-.91 5.03-1.45 4.65-4.88zm.49-7.17c0-1.93-1-3.15-2.55-3.19a2.78 2.78 0 0 0-2.63 3.14c.05 1.63.7 2.88 2.5 3 1.56.16 2.66-1.13 2.66-3zm9.28-8.63h7v9.95c0 1.3-.05 2.75 1.74 2.78s2-1.33 2-2.8V5.53h6.85v18.34h-6.58L82.7 23a26.28 26.28 0 0 1-3.38 1.27c-3.59.73-6.82-1.27-7.07-4.78-.33-4.6-.08-9.23-.08-13.95zM48 14.63c0 5.84-3.8 9.75-9.54 9.75s-9.46-3.86-9.53-9.55c0-5.91 3.7-9.79 9.44-9.83S48 8.79 48 14.63zm-7.13.25c0-1.9-.46-3.31-2.38-3.3s-2.37 1.42-2.39 3c0 2.08.88 3.23 2.5 3.13 1.99-.09 2.22-1.54 2.27-2.83zm59.24 8.98h-7V.52h7z" data-name="Layer 1-2"/></g></g></g></svg>