<svg xmlns="http://www.w3.org/2000/svg" viewBox="0 0 105.06 68"><defs><style>.cls-1{fill:#ef5035}</style></defs><title>newportbeach-laurel-red</title><g id="Layer_2" data-name="Layer 2"><g id="Layer_1-2" data-name="Layer 1"><g id="Layer_2-2" data-name="Layer 2"><g id="Layer_1-2-2" data-name="Layer 1-2"><path class="cls-1" d="M80.85 4.5A4.3 4.3 0 0 1 80 .11a3.11 3.11 0 0 1 2.61 3.23c-.13 1.91.94 2.52 2.37 3h.26c-.51-2.59-.48-2.88.39-4.23A3.37 3.37 0 0 1 87.49 6c-.37 1.61.33 2.41 1.57 3.06.16.09.31.22.65.45a4.88 4.88 0 0 1 .78-4.39c1.81.89 2 2.24 1 5.93.23.25.5.52.74.82a4.94 4.94 0 0 0 1 1.09c.33-1.63.58-3.11 2.1-4.16.93 1.38 1.37 2.91.54 4.21-1.1 1.73-.48 2.94.52 4.25l.18.15a4.82 4.82 0 0 1 2.53-3.92 3.62 3.62 0 0 1 .32 3.51 6.29 6.29 0 0 1-1.17 2 1.31 1.31 0 0 0-.25 1.49c.27.61.52 1.22.89 2.08a4.7 4.7 0 0 1 3-3.75 3.35 3.35 0 0 1-.91 4.52c-1.5 1.18-1.47 2.37-.77 4a5.37 5.37 0 0 1 3.81-2.77 3.48 3.48 0 0 1-.89 3.6 5.34 5.34 0 0 1-1.57 1.24 1.54 1.54 0 0 0-1 2.09 9.08 9.08 0 0 1 .18 1 5.52 5.52 0 0 1 4.2-1.94 4.13 4.13 0 0 1 0 1.06 4.58 4.58 0 0 1-3.16 3.29c-1 .3-1.46.77-1.41 1.8a7.83 7.83 0 0 1-.23 1.4 5.05 5.05 0 0 1 4.86-1.57 3.37 3.37 0 0 1-1.7 2.91 8.67 8.67 0 0 1-2.11.89c-1.69.48-1.7.45-1.89 2.29 2.94-.82 3.08-.83 4.84-.14a4.93 4.93 0 0 1-2.66 2.61 3.64 3.64 0 0 1-1.67.37c-1.77-.24-2.5.74-2.88 2.24C99.22 47 100 47 102 48.1a4.24 4.24 0 0 1-3.36 2.29 7.23 7.23 0 0 1-2 0C95 50.23 94.8 50.31 94 52a6.31 6.31 0 0 1 4.93 1.31c-2.19 2.5-4.66 1.88-7.23.89L90 55.77a21.5 21.5 0 0 1 2.72.63 3.65 3.65 0 0 1 2.15 1.69c-1.7 1.45-3.52 1.35-5.41.62a5.67 5.67 0 0 1-.65-.3c-1.42-.77-1.42-.77-2.86.49a7.25 7.25 0 0 1 4.41 3.1 4.58 4.58 0 0 1-3.86.55 5.94 5.94 0 0 1-2.14-1.14c-1.07-1.09-2.06-1-3.29-.13a6.44 6.44 0 0 1 3.81 3.6c-2.18 1.27-4.25.44-7-2.78a22.75 22.75 0 0 0-12 5.88l-1-1a8.81 8.81 0 0 1 3.69-2.89 56.39 56.39 0 0 1 6.82-2.7 2.1 2.1 0 0 0 1.77-2 5.06 5.06 0 0 1 2.77-4.28 5.56 5.56 0 0 1 .77-.28c.94 1.49.65 3.08-.87 5.44 1.93-.37 2-.41 1.92-2.25a5.35 5.35 0 0 1 2-4.83 2.61 2.61 0 0 1 .48-.3.75.75 0 0 1 .28 0c1 1.69 1 3-.13 5.56.35-.21.59-.33.81-.48 1.22-.77 1.23-.78.85-2.16a5.14 5.14 0 0 1 .68-4.58A11.85 11.85 0 0 1 87.74 50a5.56 5.56 0 0 1 1 4.9c1.41-.37 1.63-.74 1.1-2-.74-1.82-1-3.61.14-5.37.13-.2.3-.36.56-.68a5.6 5.6 0 0 1 1.85 4.65c1.43-.86 1.55-1.23.74-2.45a5.07 5.07 0 0 1-.74-5.16 7.34 7.34 0 0 1 .5-.78A5.93 5.93 0 0 1 95.34 48l1.29-2.18c-1.8-1.83-3.47-3.64-2.23-6.62a5.31 5.31 0 0 1 3.27 4.33l.3-.82c.57-1.51.57-1.51-.7-2.6-1.11-1-2.12-2-2.13-3.6a12.13 12.13 0 0 1 .14-1.36c1.86.43 2.64 1.12 3.92 3.32.07-.33.14-.59.2-.86.33-1.48.33-1.49-1.05-2.18a4.86 4.86 0 0 1-3-3.8 1.63 1.63 0 0 1 0-.43 2 2 0 0 1 .22-.42 5.69 5.69 0 0 1 4.27 2.71v-.83c0-1.74 0-1.73-1.61-2.31a4.52 4.52 0 0 1-3.43-3.88 4.64 4.64 0 0 1 4.7 2.17c-.08-.6-.11-.89-.15-1.17s-.11-.65-.18-1a1.1 1.1 0 0 0-1.06-1 12.2 12.2 0 0 1-2-.4 3.53 3.53 0 0 1-2.53-2.66c1.17-.7 1.86-.63 4.51.52-.15-.53-.27-1-.41-1.42a1.17 1.17 0 0 0-1.31-.88 11.61 11.61 0 0 1-1.59 0 4.36 4.36 0 0 1-3.5-2.33 4.48 4.48 0 0 1 5.18.5l-1.71-3c-2.29.86-4.43 1.23-6.18-1.09a4.56 4.56 0 0 1 5-.51l-2.06-2.39c-3.22 1.48-4.7 1.45-6.28-.13a5.43 5.43 0 0 1 4.32-1.53l-2-1.7c-1.89 1.23-3.73 2.66-6 1 1-1.56 2-2 4.3-2.06-.36-.25-.61-.45-.9-.62-1.66-1-1.66-1-3.14.33a3.56 3.56 0 0 1-4.32.65 4.3 4.3 0 0 1 4-2.57l-.65-.76zm-56.55 0l-.65.76a4.38 4.38 0 0 1 4.08 2.63 3.21 3.21 0 0 1-2.88.19 5.39 5.39 0 0 1-1.25-.71c-.6-.37-1.17-1.26-1.67-1.2a6.85 6.85 0 0 0-2.51 1.24 4.71 4.71 0 0 1 4.16 1.91c-1.25 1.48-2.39 1.36-6-.71l-2 1.58a5.76 5.76 0 0 1 4.32 1.57c-1.37 1.59-3.18 1.63-6.25.13l-2.09 2.39a4.49 4.49 0 0 1 4.9.43c-1 1.93-2.63 2.27-6 1.22l-1.79 2.93a4.46 4.46 0 0 1 5.16-.51 4.28 4.28 0 0 1-3.3 2.33 6.72 6.72 0 0 1-.86 0c-2.07 0-2.15.08-2.52 2.33 1.4-.82 2.78-1.38 4.49-.73a3.55 3.55 0 0 1-2.44 2.79 6.39 6.39 0 0 1-1.82.39 1.39 1.39 0 0 0-1.47 1.44c-.06.47-.16.94-.3 1.69a5.23 5.23 0 0 1 4.67-2.15 3.82 3.82 0 0 1-2 3.36 4.15 4.15 0 0 1-.91.43c-2.15.82-2.15.82-2 3.27a20.43 20.43 0 0 1 1.88-1.85 4 4 0 0 1 2.52-.8 4.24 4.24 0 0 1-1.35 3.55 9.93 9.93 0 0 1-1.68 1.1c-1.22.65-1.25.65-1 2 .07.33.15.65.22 1a14.66 14.66 0 0 1 1.52-2 16.79 16.79 0 0 1 2.24-1.6 3.68 3.68 0 0 1-.48 3.86 9 9 0 0 1-1.53 1.52c-1.07.91-1.09.9-.62 2.14.11.3.24.6.42 1.08a5.29 5.29 0 0 1 3.09-4.23c1.4 2.29.45 4-2 6.58L9.77 48a6.33 6.33 0 0 1 2.36-4.82 3.76 3.76 0 0 1 .87 3.76 6.45 6.45 0 0 1-.91 1.94c-.81 1.31-.82 1.42.26 2.57.13.13.28.25.59.52a5.35 5.35 0 0 1 1.63-5.2 4.84 4.84 0 0 1 1.31 3.92 11.83 11.83 0 0 1-.57 2.08c-.52 1.43-.5 1.5 1.09 2.29a5.59 5.59 0 0 1 .89-4.9 4.57 4.57 0 0 1 2 5.18c-.4 1.88-.4 1.88 1.67 3.1a5.25 5.25 0 0 1-.24-5.78 5.17 5.17 0 0 1 2.71 3.76 12 12 0 0 1 0 1.44c0 1.87 0 1.87 2.06 2.51-1.24-1.76-1.91-3.5-1.15-5.64a5 5 0 0 1 3.37 3 1.75 1.75 0 0 1 .2.69c-.06 2.13 1.19 2.86 3.09 3.33a21.66 21.66 0 0 1 7.52 3.52c.61.44 1.16 1 1.89 1.58l-1 1.15a22.66 22.66 0 0 0-12.09-5.85c-3 3.24-4.79 4-7.08 2.77A6.4 6.4 0 0 1 24 61.38c-1.44-1.11-1.56-1.09-3 0-1.63 1.18-3.35 1.91-5.38 1.07a7.31 7.31 0 0 1-.71-.4A6.36 6.36 0 0 1 19.07 59c-1.13-1.34-1.31-1.35-2.69-.62-2 1.09-4.07 1.34-6.06-.16.75-1.47 2.58-2.34 4.93-2.47a12.36 12.36 0 0 1-1.22-1 1.16 1.16 0 0 0-1.41-.27A10.31 10.31 0 0 1 10 55c-1.58.09-2.4-.33-3.75-1.71a5.7 5.7 0 0 1 4.83-1.25c-.5-1.58-.95-1.88-2.29-1.7a5.68 5.68 0 0 1-4.52-.95A14.29 14.29 0 0 1 3 48.18a4.79 4.79 0 0 1 5.34-.26c-.26-.59-.45-.94-.59-1.31A1.57 1.57 0 0 0 6 45.52a5 5 0 0 1-4.63-2.38 3.85 3.85 0 0 1-.28-.69c1.68-.84 3.22-.36 4.75.28-.06-1.87-.07-1.87-1.79-2.38-1.39-.41-2.78-.86-3.47-2.35-.2-.42-.33-.87-.54-1.45A5.06 5.06 0 0 1 4.9 38c-.12-.82-.22-1.47-.3-2.12s-.74-.81-1.26-1a4.71 4.71 0 0 1-3-2.84A8.21 8.21 0 0 1 0 30.73c1.67-.24 2.73.21 4.25 1.76.09-.41.14-.75.24-1.09a1.48 1.48 0 0 0-.92-2A4.62 4.62 0 0 1 1 26.31a10.08 10.08 0 0 1-.1-1.68c1.78.21 2.61.78 4 2.82A15.51 15.51 0 0 0 5.42 25c0-.33-.39-.72-.69-1a4.76 4.76 0 0 1-1.94-3.09 14.9 14.9 0 0 1 .12-2.11c2 .68 2.61 1.38 3.4 3.63a9.18 9.18 0 0 1 .49-1.11 2.25 2.25 0 0 0-.29-3 4.19 4.19 0 0 1-.47-5 5 5 0 0 1 2.5 4.2l1.36-2.03c.41-.62 0-1.11-.3-1.59a4.65 4.65 0 0 1-.25-4.29 3.85 3.85 0 0 1 .47-.67c1.31.9 1.69 1.66 1.92 4.15a24.4 24.4 0 0 0 1.74-1.79c.15-.19.07-.61 0-.92-.13-.71-.38-1.4-.46-2.1a3.33 3.33 0 0 1 1.51-3.2c1.14 1.24 1.31 2.67.79 4.58a25.78 25.78 0 0 0 2.09-1.6 1.5 1.5 0 0 0 .33-1c0-.57-.13-1.14-.13-1.72 0-1.6.43-2.29 2-3.27 1 1.34.76 2.77.19 4.44.62-.27 1-.49 1.46-.64a1.71 1.71 0 0 0 1.26-2A3.8 3.8 0 0 1 25 0c1 1.76.27 3.16-.72 4.51z"/><path class="cls-1" d="M19.5 26.47v5.85h-2.36V22.1H19l4.76 6v-6h2.34v10.21h-1.91zm15.73 3.77v2.07H28V22.1h7v2.08h-4.6v2h4v1.91h-4v2.17zm4.83-8.12h2.17l1 3.27 1-3.27h2.19l-1.71 4.75 1 2.75 2.56-7.52H51l-4.13 10.2h-2l-1.63-4-1.61 4h-2L35.6 22.1h2.56l2.58 7.52 1-2.75zm11.78 10.19V22.1h4.36a3 3 0 0 1 1.34.3 3.45 3.45 0 0 1 1.05.79 3.78 3.78 0 0 1 .69 1.11 3.3 3.3 0 0 1 .25 1.25 3.6 3.6 0 0 1-.24 1.31 3.7 3.7 0 0 1-.64 1.14 3.11 3.11 0 0 1-1 .78 3.07 3.07 0 0 1-1.34.29h-2.1v3.28zM54.2 27h1.93a.91.91 0 0 0 .72-.36 1.6 1.6 0 0 0 .3-1 1.83 1.83 0 0 0-.09-.62 1.26 1.26 0 0 0-.25-.43 1 1 0 0 0-.36-.25 1.09 1.09 0 0 0-.4-.08H54.2zm11.07 5.4a4.75 4.75 0 0 1-2.07-.4 5.1 5.1 0 0 1-1.6-1.17 5.33 5.33 0 0 1-1-1.66 5.23 5.23 0 0 1-.37-1.93 5.1 5.1 0 0 1 .38-1.94 5.15 5.15 0 0 1 2.68-2.78 4.88 4.88 0 0 1 2-.42 4.75 4.75 0 0 1 2.07.44A5 5 0 0 1 69 23.67a5.32 5.32 0 0 1 1 1.67 5.26 5.26 0 0 1 .36 1.9 5.1 5.1 0 0 1-.36 1.94A5.17 5.17 0 0 1 67.33 32a4.81 4.81 0 0 1-2.06.4zm-2.66-5.18a3.81 3.81 0 0 0 .17 1.14 3 3 0 0 0 .51 1 2.51 2.51 0 0 0 .84.69 2.48 2.48 0 0 0 1.15.26 2.44 2.44 0 0 0 1.19-.31 2.56 2.56 0 0 0 .83-.71 3.11 3.11 0 0 0 .5-1 3.94 3.94 0 0 0 .2-1.09 3.82 3.82 0 0 0-.17-1.14 2.9 2.9 0 0 0-.52-1 2.57 2.57 0 0 0-.84-.68 2.49 2.49 0 0 0-1.14-.25 2.45 2.45 0 0 0-1.17.26 2.61 2.61 0 0 0-.83.7 2.94 2.94 0 0 0-.5 1 3.92 3.92 0 0 0-.22 1.13zm9.12 5.09V22.1h4.6a3 3 0 0 1 1.33.3 3.54 3.54 0 0 1 1.06.79 3.7 3.7 0 0 1 .71 1.1 3.29 3.29 0 0 1 .25 1.25 3.6 3.6 0 0 1-.12.91 3.55 3.55 0 0 1-.33.83A3.12 3.12 0 0 1 78 28.52l2.25 3.8h-2.66l-2-3.29h-1.5v3.29zM74.09 27h2.16a.89.89 0 0 0 .72-.4 1.63 1.63 0 0 0 .3-1 1.43 1.43 0 0 0-.35-1 1 1 0 0 0-.75-.37h-2.08zM89 24.18h-3.11v8.14h-2.36v-8.14h-3.12V22.1H89zm-51.29 19.9a2.32 2.32 0 0 1-.27 1.15 2.37 2.37 0 0 1-.75.81 3.53 3.53 0 0 1-1.11.49 5.27 5.27 0 0 1-1.34.17h-5V36.48h5.68a2 2 0 0 1 1 .23 2.4 2.4 0 0 1 .73.6 2.73 2.73 0 0 1 .47.83 2.85 2.85 0 0 1 .17 1 2.76 2.76 0 0 1-.37 1.38 2.32 2.32 0 0 1-1.1 1 2.64 2.64 0 0 1 1.39.92 2.7 2.7 0 0 1 .5 1.64zm-6.09-5.58v2.11h2.31a1 1 0 0 0 .69-.26 1 1 0 0 0 .3-.8 1.07 1.07 0 0 0-.26-.78.86.86 0 0 0-.66-.27zm3.68 5.1a1.22 1.22 0 0 0-.27-.8.86.86 0 0 0-.69-.33h-2.72v2.23h2.61a1 1 0 0 0 .76-.3 1.07 1.07 0 0 0 .31-.8zm10.98 1.02v2.08h-7.19V36.48h7v2.08h-4.63v2h4v1.91h-4v2.17zm4.21-8.14h2.13l3.73 10.22h-2.42l-.79-2.29H50l-.78 2.29h-2.45zm2.26 6.3l-1.19-3.6-1.22 3.6zm3.64-1.28a5.15 5.15 0 0 1 .35-1.83 5 5 0 0 1 1-1.63 5.11 5.11 0 0 1 1.61-1.16 5 5 0 0 1 2.16-.44A4.86 4.86 0 0 1 64 37a4 4 0 0 1 1.58 1.61l-1.81 1.26a2.11 2.11 0 0 0-.44-.65 2.39 2.39 0 0 0-1.23-.65 3.38 3.38 0 0 0-.65-.07 2.43 2.43 0 0 0-1.18.27 2.6 2.6 0 0 0-.83.71 2.94 2.94 0 0 0-.49 1 4 4 0 0 0-.16 1.11 3.66 3.66 0 0 0 .21 1.19 3.1 3.1 0 0 0 .54 1 2.61 2.61 0 0 0 .85.68 2.43 2.43 0 0 0 1.11.25 2.86 2.86 0 0 0 .65-.08 2.64 2.64 0 0 0 .65-.25 2.3 2.3 0 0 0 .57-.43 2 2 0 0 0 .42-.65l1.93 1.14a3 3 0 0 1-.68 1 4.22 4.22 0 0 1-1 .75 5.73 5.73 0 0 1-2.55.62 4.58 4.58 0 0 1-2-.45 5.15 5.15 0 0 1-1.6-1.2 5.48 5.48 0 0 1-1-1.7 5.31 5.31 0 0 1-.5-1.96zm19.27-5.02V46.7H73.3v-4.19h-4.07v4.19h-2.36V36.48h2.36v4h4.07v-4zM23.6 13.9h.84l1.85 4.87h-1l-.45-1.22h-1.68l-.45 1.22h-1zm1.09 3L24 15l-.7 1.92zm3.99 1.1a1.09 1.09 0 0 0 .57-.14 1.11 1.11 0 0 0 .37-.36 1.48 1.48 0 0 0 .2-.5 2.91 2.91 0 0 0 .06-.59V13.9h.94v2.48a3.55 3.55 0 0 1-.12.93 2.15 2.15 0 0 1-.38.77 1.81 1.81 0 0 1-.65.52 2.24 2.24 0 0 1-1 .19 2.21 2.21 0 0 1-1-.2 1.85 1.85 0 0 1-.65-.54 2.14 2.14 0 0 1-.37-.77 3.65 3.65 0 0 1-.11-.91v-2.48h.95v2.48a2.94 2.94 0 0 0 0 .61 1.46 1.46 0 0 0 .2.5 1.09 1.09 0 0 0 .36.34 1.07 1.07 0 0 0 .63.18zm3.08.77V13.9h1.77a2.64 2.64 0 0 1 1 .19 2.1 2.1 0 0 1 1.21 1.31 2.91 2.91 0 0 1 .17.93 2.85 2.85 0 0 1-.17 1 2.15 2.15 0 0 1-.49.76 2.18 2.18 0 0 1-.76.49 2.68 2.68 0 0 1-1 .18zM35 16.33a2.08 2.08 0 0 0-.09-.65 1.44 1.44 0 0 0-.28-.51 1.26 1.26 0 0 0-.46-.33 1.54 1.54 0 0 0-.61-.12h-.86v3.21h.82a1.48 1.48 0 0 0 .62-.12 1.27 1.27 0 0 0 .45-.33 1.52 1.52 0 0 0 .28-.51 2.06 2.06 0 0 0 .13-.64zm1.68 2.44V13.9h.95v4.87zm5.32-.83v.83h-3.36V13.9H42v.83h-2.41v1.17h2.05v.76h-2.05v1.27zm1.71-2.29v3.12h-.95V13.9h.74l2.5 3.2v-3.2h1v4.87h-.77zm4.01.65a2.52 2.52 0 0 1 .16-.88 2.37 2.37 0 0 1 1.23-1.33 2.33 2.33 0 0 1 1-.21 2.22 2.22 0 0 1 1.16.29 1.89 1.89 0 0 1 .73.77l-.73.5a1.25 1.25 0 0 0-.23-.35 1.17 1.17 0 0 0-.29-.22 1.33 1.33 0 0 0-.33-.12 1.57 1.57 0 0 0-.33 0 1.28 1.28 0 0 0-.62.14 1.37 1.37 0 0 0-.46.38 1.63 1.63 0 0 0-.26.52 2 2 0 0 0-.09.59 1.89 1.89 0 0 0 .1.62 1.63 1.63 0 0 0 .29.53 1.45 1.45 0 0 0 .45.36 1.24 1.24 0 0 0 .58.14 1.53 1.53 0 0 0 .33 0 1.28 1.28 0 0 0 .65-.36 1.06 1.06 0 0 0 .22-.33l.77.45a1.46 1.46 0 0 1-.33.48 2.13 2.13 0 0 1-.49.35 2.49 2.49 0 0 1-.58.22 2.54 2.54 0 0 1-.6.08 2.08 2.08 0 0 1-1-.22 2.48 2.48 0 0 1-.75-.59 2.66 2.66 0 0 1-.49-.8 2.5 2.5 0 0 1-.09-1.01zm8.38 1.64v.83h-3.39V13.9H56v.83h-2.34v1.17h2.05v.76h-2.05v1.27zm3.56-4.04h.84l1.85 4.87h-1l-.45-1.22h-1.7l-.45 1.22h-1zm1.09 3l-.67-1.9-.7 1.92zm3.4-2.99H65l.55 1.61.55-1.61h.9l-.83 2.22.62 1.56 1.38-3.79h1l-2 4.87h-.8l-.84-2-.86 2h-.8L62 13.9h1l1.39 3.79.6-1.56zm6.51-.01h.84l1.85 4.87h-1l-.45-1.22h-1.7l-.45 1.22h-1zm1.09 3l-.67-1.9-.7 1.92zm2.14 1.87V13.9H76a1.39 1.39 0 0 1 .62.14 1.61 1.61 0 0 1 .49.37 1.76 1.76 0 0 1 .33.52 1.58 1.58 0 0 1 .12.59 1.63 1.63 0 0 1-.24.86 1.36 1.36 0 0 1-.65.56l1.11 1.83h-1.02l-1-1.63h-.93v1.63zm.95-2.46H76a.5.5 0 0 0 .25-.06.62.62 0 0 0 .2-.17.84.84 0 0 0 .13-.25 1 1 0 0 0 0-.31.88.88 0 0 0-.06-.33.82.82 0 0 0-.15-.25.67.67 0 0 0-.21-.16.55.55 0 0 0-.25-.06h-1.06zm3.61 2.46V13.9h1.77a2.64 2.64 0 0 1 1 .19 2.1 2.1 0 0 1 1.21 1.31 2.91 2.91 0 0 1 .15.94 2.85 2.85 0 0 1-.17 1 2.15 2.15 0 0 1-.48.77 2.18 2.18 0 0 1-.76.49 2.68 2.68 0 0 1-1 .18zm3.23-2.44a2.08 2.08 0 0 0-.09-.65 1.44 1.44 0 0 0-.28-.51 1.26 1.26 0 0 0-.46-.33 1.54 1.54 0 0 0-.61-.12h-.84v3.21h.82a1.48 1.48 0 0 0 .62-.12 1.27 1.27 0 0 0 .45-.33 1.52 1.52 0 0 0 .28-.51 2.06 2.06 0 0 0 .1-.64zm-53.14 38.4v-4.88h3.27v.83h-2.32v1.26h1.94v.77h-1.94v2zm3.94 0v-4.88h.95v4.87zm1.96 0v-4.88h.95v4h2.48v.83zm7.99 0V51.5l-1.24 2.4h-.52l-1.26-2.4v3.23h-.95v-4.88h1l1.44 2.77 1.45-2.77h1v4.87zm3.57 0v-4.88h3.27v.83H47v1.26h1.94v.77H47v2zm7.36-.83v.83H50v-4.88h3.3v.83h-2.38v1.17H53v.76h-2.08v1.27zm3.54-2.77l-.17-.13a2.13 2.13 0 0 0-.31-.16 2.69 2.69 0 0 0-.4-.13 1.73 1.73 0 0 0-.43-.06 1 1 0 0 0-.59.14.48.48 0 0 0-.19.41.42.42 0 0 0 .07.25.62.62 0 0 0 .21.18 1.76 1.76 0 0 0 .35.14l.48.13q.36.09.65.21a1.76 1.76 0 0 1 .49.27 1.14 1.14 0 0 1 .33.4 1.31 1.31 0 0 1 .11.57 1.41 1.41 0 0 1-.15.65 1.24 1.24 0 0 1-.4.45 1.73 1.73 0 0 1-.58.25 2.89 2.89 0 0 1-.68.08 3.67 3.67 0 0 1-1.09-.16 3.34 3.34 0 0 1-1-.47l.42-.82a1.31 1.31 0 0 0 .22.16 3.35 3.35 0 0 0 .38.2 2.94 2.94 0 0 0 .49.17 2.2 2.2 0 0 0 .55.07q.78 0 .78-.5a.41.41 0 0 0-.09-.27.76.76 0 0 0-.25-.19 2.45 2.45 0 0 0-.4-.15l-.52-.15a4.46 4.46 0 0 1-.61-.21 1.59 1.59 0 0 1-.43-.27 1 1 0 0 1-.26-.36 1.23 1.23 0 0 1-.08-.48 1.51 1.51 0 0 1 .14-.65 1.33 1.33 0 0 1 .38-.48 1.73 1.73 0 0 1 .57-.29 2.34 2.34 0 0 1 .69-.1 2.69 2.69 0 0 1 .95.16 3.53 3.53 0 0 1 .76.38zm4.92-.45h-1.56v4h-.94v-4h-1.56v-.83h4.06zm.61 4.05v-4.88h.95v4.87zm2.46-4.88l1.31 3.69 1.31-3.69h1l-1.9 4.87h-.8l-1.92-4.87zm5.11 0h.84l1.85 4.87h-1l-.45-1.22h-1.7l-.45 1.22h-1zm1.09 3l-.67-1.92-.7 1.92zm2.13 1.88v-4.88h.95v4h2.48v.83z"/></g></g></g></g></svg>