<svg id="Layer_1" xmlns="http://www.w3.org/2000/svg" viewBox="0 0 100 80"><style>.st0{fill-opacity:0}</style><title>newyorktimes-white-square</title><g id="Layer_2-2"><g id="Layer_1-2-2"><path class="st0" d="M0 0h100v80H0V0zm54.2 45.9V34.1c.1-1.2-.7-2.2-1.9-2.3h-.4c-1.3.1-2.3 1.1-2.3 2.4.1-.2.2-.4.3-.5.2-.3.5-.5.8-.4.3 0 .6.3.7.6.1.2.1.5.1.7v3.3l-1.2.3c-.9.4-1.4 1.4-1 2.4 0 .1.1.2.2.3.2.4.6.6 1 .6-.1-.2-.2-.5-.2-.7 0-.4.4-.5.7-.6s.5 0 .5.4v4.9c0 .3-.1.5-.4.6-.8.3-1.4 1.1-1.4 2-.2 1.4.8 2.6 2.2 2.8h.4c1-.1 2-.2 3-.4.8-.1 1.7-.3 2.5-.4.3-.1.7 0 .8.3.2.3.1.8-.1 1.1l-.4.4c.6-.1 1.2-.4 1.6-.8.8-.8.9-2.1 0-3-.1-.1-.2-.2-.4-.3-.5-.3-1.2-.5-1.8-.4-1.1.1-2.3.3-3.4.5l-2.4.3c-.5 0-.9-.4-1-.8-.1-.5.1-1 .6-1.1.3-.2.7-.3 1.1-.3 1.1 0 2.1.1 3.1.4.7.2 1.4.3 2.1.5 1.1.3 2.2-.4 2.4-1.4.1-.2.1-.5.1-.7V34.5c-.1-.6.2-1.2.7-1.5.1-.1.2-.2.2-.3l-.1-.1-.9.7-1.8-1.7-2.6 2.1v-1.9h-.1v14.3l-1.3-.2zM43 14c1.4-.2 2.1-.7 2.4-1.7.3-.8.2-1.7-.5-2.2-.6-.6-1.5-.8-2.3-.7.3.1.5.1.8.3.3.1.6.5.5.8 0 .4-.3.6-.7.7h-.6c-.6-.1-1.2-.3-1.7-.4-.9-.3-1.9-.6-2.8-.8-.9-.2-1.8-.1-2.6.4-1 .6-1.4 1.9-1 3 .2.5.6.9 1.1 1-.3-.4-.4-.9-.1-1.3.3-.4.8-.6 1.2-.5h.3l5.7 1.5v2.3c0 .2-.1.4-.3.6-.4.3-.7.6-1.1.9.4.3.7.6 1.1.9.2.1.3.3.2.5v3.2c0 .2-.1.4-.3.5-1.6.8-3.6.4-4.8-.9l-.2-.2c1-.5 2-1 3.1-1.5.2-.1.4-.3.3-.5v-5.6L36.8 16c.4-1 1.1-1.9 2.1-2.5h-.2c-2.8.8-4.7 3.5-4.6 6.4.1 2.4 1.5 4.5 3.8 5.3 2.8 1.2 6-.1 7.2-2.9.2-.5.3-1 .4-1.5v-.9c-1 1.6-1.7 2.3-2.3 2.6v-3.4c0-.2.1-.4.3-.5.4-.3.7-.6 1.1-.9-.4-.3-.8-.6-1.1-.9-.1-.1-.2-.2-.2-.4-.3-.7-.3-1.6-.3-2.4zm-5.9 43.6c2-.4 2.9-1.5 2.5-3.1-.4-1.1-1.6-1.8-2.8-1.5l.9.3c.3.1.5.4.5.8 0 .3-.3.6-.7.7H37c-.3 0-.7-.1-1-.2-1.2-.3-2.4-.7-3.6-1.1-.9-.3-1.9-.1-2.6.4-1.2.7-1.5 2.2-.8 3.4.2.3.6.6.9.7-.4-.3-.5-.9-.2-1.4.3-.4.8-.7 1.3-.5.3 0 .5.1.8.2 1.7.4 3.3.8 5 1.2.2 0 .2.2.2.3V60c0 .2-.1.3-.2.4-.3.3-.7.6-1.1.9.4.3.8.6 1.1.9.1.1.2.3.2.5v3.2c0 .2-.1.4-.3.5-1.7.8-3.7.4-4.9-1 0 0-.1-.1-.1-.2 1-.5 2-1 3.1-1.5.2-.1.4-.3.3-.5v-5.6l-4.2 1.9-.1-.1c.3-.4.5-.9.9-1.3s.8-.8 1.3-1.1c-3.3.8-5.4 4.1-4.7 7.5.4 2.3 2.2 4.1 4.5 4.6 2.9.7 5.9-1.1 6.6-4 .1-.4.1-.8.2-1.2v-.3c-.5 1.1-1.3 2-2.3 2.7v-3.6c0-.1.1-.3.2-.4.4-.3.8-.6 1.1-.9l-1.2-.9c-.1-.1-.2-.2-.2-.3-.1-.9-.1-1.7-.1-2.6zM23.8 41.3l-.2-.3-4.5-8.1c-.2-.4-.5-.7-.8-1-.7-.7-1.9-.7-2.7-.1-.8.6-1.2 1.7-.9 2.7.1-.2.1-.4.2-.5.1-.4.6-.6 1-.4.1 0 .2.1.3.2.4.3.7.8.6 1.3v1.5c0 .5 0 .6-.6.6l-.3.1c-1 .2-1.7 1.2-1.5 2.2.1.4.2.7.5 1 .2.3.5.4.9.5-.1-.3-.1-.6-.1-.9.1-.3.4-.4.8-.5s.5 0 .5.4v3.2h-.6c-1.5 0-2.7 1.3-2.7 2.8v.2c.2 1.3 1.4 2.2 2.6 2h.1l-.6-.3c-.6-.2-.8-.9-.6-1.4.2-.5.8-.8 1.3-.6.4.1.8.3 1.2.6l.3.3 2.5-2.8-.1-.1-.7.7c-.7-.8-1.7-1.3-2.7-1.4V35c.1.1.3.3.3.5l6 10.9c.1.2.2.5.5.4.1 0 .2-.4.2-.6V35.1c0-.3.1-.4.4-.5 1.3-.2 2.2-1.4 2.2-2.7 0-.2-.1-.5-.1-.7-.6 1.5-1.9 1.4-3.1.4l-2.5 2.8.1.1.7-.8c.6.6 1.3.9 2.1.9v6.7zm18-3.1c1.1.5.8 1.3.8 2.2v4.5c0 .2-.1.3-.2.5-.1 0-.3-.1-.4-.2-.4-.3-.7-.6-1.1-.9-.3-.2-.4-.5-.4-.8v-3.7c-.1-.6.1-1.3.6-1.7 0 0 0-.1.1-.1l-1.8-1.6-2.1 1.8.4.4c.3.2.4.5.4.9v5c0 .3-.1.6-.4.6-.3-.3-.7-.5-1-.8-.3-.2-.5-.5-.4-.9v-4.6c0-.7-.3-1.3-.9-1.7-.3-.2-.7-.5-1-.7-.5-.3-.7-.9-.4-1.5l.3-.3.1-.1c-1.1.1-2.1.9-2.3 2-.1.8.3 1.5.9 1.9.6.4.9 1.1.8 1.7v4.3c0 .2-.1.5-.3.6-.2.1-.4.3-.6.5.1 0 .1.1.1.1l.3-.2c.6-.4.6-.4 1.1 0l1.5 1.2 2.2-1.8 2.2 1.8c1.4-.8 2.7-1.6 4.1-2.5.2-.1.3-.3.3-.5v-4.4c0-.2.1-.4.2-.5.4-.4.8-.8 1.3-1.1l.2-.2-.1-.1-.8.6-1.9-1.6-1.8 1.9zm7.6 22.3c.4.5.8.9 1.2 1.4.1.1.1.3.1.4v3.3c0 .5.1 1.1-.5 1.4l1.7 1.9 1.8-1.8c-.1-.1-.1-.2-.2-.2-.3-.2-.5-.6-.4-1v-4.4c-.1-.4.2-.8.5-.9.4.4.8.8 1.1 1.2.1.2.2.4.2.6v3.3c0 .5.1 1-.5 1.3l1 1.1.9 1c.9-.7 1.8-1.5 2.5-2.5l-.7.6c-.2-.2-.4-.5-.6-.7-.2-.2-.4-.5-.3-.9v-3.8c-.1-.5.2-1.1.7-1.3.1-.1.2-.1.3-.2l-.2-.2-.9.7-1.7-2-2.5 2-1.7-1.9-2.4 1.9-1.8-1.9-2.5 2.2.1.1.8-.7c.3.4.7.7 1 1.1.1.1.2.3.2.5v3.3c0 .6.1 1.2-.6 1.5l1.9 2.1 1.8-1.9c-.1-.1-.2-.3-.4-.4-.3-.2-.4-.6-.4-.9v-4.5c0-.3.2-.7.5-.8zm2.3-45.4l-2.4 2.1v-7l-3 2.4c.4.2.7.6.6 1v8.2c.1.4.1.9 0 1.3-.2.4-.7.6-1 .9l-.2.2.1.1c.1 0 .1-.1.2-.2.3-.3.5-.2.7 0 .4.4.9.8 1.4 1.3l2.7-2.2-.1-.2-.7.5c-.5-.3-.7-.8-.7-1.3 0-1.4.1-2.8 0-4.2 0-.7.3-1 .8-1.3.3.4.7.8 1 1.2.1.2.2.4.2.5v5c0 .5 0 1.1-.1 1.6-.1.8-.5 1.5-1.2 2-.3.2-.6.3-.9.5h.1c2 .4 4-1 4.4-3 0-.2.1-.5.1-.7v-6.1c0-.3.1-.5.3-.6.2-.1.4-.3.5-.4l-.1-.1-.8.6-1.9-2.1zm10.8 29.4l2.3 1.9c.1.1.3.2.5.1 1.3-.7 2.5-1.5 3.8-2.2.2-.1.3-.3.3-.5v-4.5c-.1-.4.1-.8.4-1l.3-.3H70l-.7.7-.3-.2c-.7-.6-1.4-1.2-2.1-1.9-.1-.1-.4-.1-.5 0-1.2.7-2.3 1.3-3.5 1.9-.2.1-.3.3-.3.5v5c0 .2-.1.5-.3.6-.2.1-.3.3-.4.4l.1.1c.1-.2.3-.4.5-.6zm6.3 25.3c-.2-.1-.4-.3-.6-.4-.2-.2-.3-.6-.1-.8l.2-.2c.4-.2.8-.2 1.1.1.2.2.5.3.7.5 1.2-.7 2.3-1.4 3.5-2.1.1-.1.2-.2.2-.4v-2.8c0-.2-.1-.5-.3-.6-.4-.3-.9-.7-1.3-1.1l.3-.4c.5-.6.9-1.3 1.1-2.1.1-.4.1-.8-.1-1.1-.1.8-.4 1.1-1.1 1.1-.5 0-1-.3-1.4-.7l-3.6 2.1c-.1.1-.2.2-.2.4v2c0 .2.1.4.2.6.4.4.8.8 1.3 1.2-.2.1-.3.3-.5.4-.4.4-.8.9-1.1 1.3-.6.9-.3 2.2.6 2.8.5.1.8.2 1.1.2zm8.8-36.5c.5.1.8.6.8 1.1v8.9c.1.6-.2 1.3-.7 1.7-.2.1-.3.3-.5.4l.1.1.7-.5 1.7 1.6 2.6-2.3-.1-.1-.7.5c-.1-.1-.2-.3-.4-.4-.3-.3-.5-.7-.5-1.1V31l-3 2.3zm-21.7-10l2.4 2.2 4.2-3.3-.1-.2-2.4 1.8-1.7-1.6c-.3-.2-.3-.6 0-.9l.1-.1 2.7-2 .9-.7-2-3.4-.3.2-3.6 2.1c-.2.1-.3.3-.3.5v4.8c0 .2-.1.5-.3.6-.2.1-.3.3-.5.4l.1.1.8-.5zm6.5 45.8l4.2-3.3-.1-.1-.3.2c-.6.5-1.2.9-1.8 1.4-.1.1-.3.2-.4.1l-.1-.1c-.5-.5-.9-.9-1.4-1.3-.3-.2-.4-.6-.1-.9l.2-.2 3.1-2.3.4-.3-1.9-3.3c-1.4.8-2.8 1.5-4.1 2.3-.1.1-.2.3-.2.4v4.5c.1.5-.1.9-.5 1.1l-.2.2.1.1.8-.6 2.3 2.1zM25.2 44.9l.1.1.8-.6 2.4 2.2 4.2-3.3-.1-.1-2.4 1.8-1.7-1.6c-.3-.2-.3-.6-.1-.9l.1-.1 3.3-2.4c.1-.1.2-.1.3-.2l-1.9-3.3c-1.4.8-2.7 1.5-4.1 2.3 0 0-.1.2-.1.3v4.8c0 .2-.1.4-.3.6-.2.2-.4.3-.5.4zm48.3 1.7c.9-.8 1.8-1.5 2.6-2.2l-.1-.1-.8.7c-.2-.2-.5-.4-.7-.6-.2-.1-.3-.4-.3-.7v-5.3c1 .8 1.7 1 2.4.5.8-.5 1.2-1.4 1-2.3-.6.7-1.3.5-1.9 0L74.1 38l-1.4-1.7-2.6 2.3.1.1.7-.6c.1.2.3.4.5.6.2.3.4.6.3 1 0 1.1-.1 2.2 0 3.3.1.8-.2 1.5-.9 1.9-.1.1-.2.2-.2.3l.1.1.7-.7 2.1 2zm13-1.9c-1.3-2-2.7-4-4-6-.1-.1 0-.2 0-.5.9.6 1.8 1 2.7.5.8-.6 1.3-1.5 1.4-2.5-.5.4-.9.8-1.4.7-.5-.1-1-.3-1.4-.5-.9 1.2-1.7 2.6-2.7 3.9-.1.2-.1.4 0 .6 1.2 1.8 2.3 3.7 3.4 5.5 0 .1.1.2.2.2l2.8-2.5-.2-.1-.8.7zM40.1 60.5c.3.4.7.7 1 1.1.1.1.1.2.1.3v4.7c0 .2-.1.3-.2.4l-.5.5.1.1.8-.6 1.7 1.9 2.4-2.2-.1-.1-.7.6c-.2-.3-.5-.6-.7-.8-.2-.2-.3-.4-.3-.7v-4.2c0-.3.1-.7.4-.9.2-.1.3-.3.4-.4l-.1-.1-.8.7-1.8-2-2.5 2.2.1.1.7-.6zm1.4-2.2l1.8-1.7-1.5-1.6-1.8 1.7 1.5 1.6z"/><path d="M54.2 45.9l1.5.3V31.9h.1v1.9l2.6-2.1 1.9 1.7.9-.7.1.1c-.1.1-.1.2-.2.3-.5.3-.8.9-.7 1.5v10.3c.1 1.1-.7 2.1-1.8 2.2-.2 0-.5 0-.7-.1-.7-.1-1.4-.3-2.1-.5-1-.3-2.1-.4-3.1-.4-.4 0-.8.1-1.1.3-.5.2-.7.7-.6 1.1.1.5.5.8 1 .8.8 0 1.6-.2 2.4-.3 1.1-.2 2.3-.4 3.4-.5.6-.1 1.2.1 1.8.4 1 .6 1.3 1.9.7 2.9-.1.1-.2.3-.3.4-.5.4-1 .7-1.6.8l.4-.4c.2-.3.3-.7.1-1.1-.2-.3-.5-.4-.8-.3-.8.1-1.7.3-2.5.4-1 .2-2 .3-3 .4-1.6 0-2.8-1-2.9-2.4v-.5c0-.9.6-1.7 1.4-2 .3-.1.4-.4.4-.6v-4.9c0-.4-.1-.5-.5-.4s-.7.2-.7.6c0 .2.1.5.2.7-.4 0-.8-.2-1-.6-.6-.8-.4-2 .5-2.5.1-.1.2-.1.3-.2.4-.1.8-.3 1.2-.3v-3.3c0-.3 0-.5-.1-.7-.1-.3-.4-.6-.7-.6-.3 0-.6.1-.8.4-.1.2-.2.3-.3.5 0-1.3 1.1-2.4 2.4-2.4 1.2-.1 2.2.8 2.3 2v11.7c0 .1-.1.2-.1.4zm1.7-2.6V46c0 .2.1.3.3.3.8.1 1.5-.5 1.5-1.3v-4.2c0-.5-.3-.9-.7-.9h-.1c-.5-.1-.9.3-1 .8v2.6zm.7-9.7c-.4.2-.7.6-.6 1.1v3c0 .5.4.9.8.9.1 0 .3 0 .4-.1.4-.1.6-.4.6-.8V35c0-.1 0-.3-.1-.4-.4-.4-.8-.7-1.1-1zm-.6 4.9v1.6c.5-.4 1.3-.4 1.8 0v-1.6c-.6.4-1.3.4-1.8 0zM43 14v2.5c0 .1.1.3.2.4.3.3.7.6 1.1.9-.4.3-.7.6-1.1.9-.1.1-.2.3-.2.5v3.4c.6-.2 1.3-1 2.3-2.6v.9c-.4 3-3.1 5.1-6.1 4.7-.5-.1-1-.2-1.5-.4-2.2-.8-3.7-2.9-3.8-5.3-.1-2.9 1.8-5.6 4.6-6.4h.2c-1 .6-1.7 1.4-2.1 2.4l4.2-1.9v5.7c0 .2-.1.5-.3.5l-3 1.5c0 .1.1.2.2.2 1.2 1.3 3.2 1.7 4.8.9.2-.1.4-.3.3-.5v-3.2c0-.2-.1-.4-.2-.5-.4-.3-.7-.6-1.1-.9.4-.3.7-.6 1.1-.9.2-.1.3-.3.3-.6v-2.3l-5.7-1.5h-.3c-.5-.1-1 .1-1.2.5-.3.4-.2 1 .1 1.4-.5-.1-.9-.5-1.1-1-.4-1.1 0-2.4 1-3 .8-.5 1.7-.7 2.6-.4.9.3 1.9.6 2.8.8.6.2 1.1.3 1.7.4h.6c.4 0 .6-.3.7-.7 0-.4-.2-.7-.5-.8-.3-.1-.5-.2-.8-.3.8-.2 1.7.1 2.3.7.6.6.8 1.5.4 2.2-.3 1-1 1.5-2.5 1.8zm-5.6 7.7c.2-.1.3-.1.5-.2.3-.1.5-.4.5-.7v-5.2c-.6.2-1.1.5-1.6.7-.1.1-.2.2-.2.3l-.3 1.5c-.1 1.3.3 2.6 1.1 3.6zm-.3 35.9v2.5c0 .1.1.3.2.3l1.2.9c-.4.3-.8.6-1.1.9-.1.1-.2.2-.2.4v3.6c1-.7 1.8-1.6 2.3-2.7v.3c0 3-2.5 5.4-5.5 5.4-.4 0-.8-.1-1.3-.2-2.3-.4-4.1-2.3-4.5-4.6-.7-3.4 1.4-6.6 4.7-7.5-.4.3-.9.7-1.3 1.1-.3.4-.6.8-.9 1.3l.1.1 4.1-1.9v5.6c0 .2-.1.5-.3.5-1 .5-2 1-3.1 1.5l.1.1c1.2 1.4 3.2 1.8 4.9 1 .3 0 .5-.3.4-.6v-3.2c0-.2-.1-.3-.2-.5-.3-.3-.7-.6-1.1-.9.4-.3.8-.6 1.1-.9.1-.1.2-.3.2-.4v-2.2c0-.2 0-.3-.2-.3-1.7-.4-3.3-.8-5-1.2-.3-.1-.5-.1-.8-.2-.5-.1-1 .1-1.3.5-.3.4-.2 1 .2 1.4-.4-.1-.7-.3-.9-.7-.7-1.2-.3-2.7.8-3.4.8-.5 1.7-.7 2.6-.4 1.2.3 2.4.7 3.6 1.1.3.1.7.2 1 .2h.5c.3 0 .6-.3.7-.7 0-.3-.1-.6-.5-.8l-.9-.3c1.2-.3 2.4.4 2.8 1.5.5 1.9-.3 3-2.4 3.4zm-5.6 7.7c.1-.1.3-.2.5-.2.3-.1.5-.4.5-.7v-5.3c-.6.3-1.1.5-1.6.7-.1.1-.2.2-.2.3-.2.7-.2 1.5-.3 2.3 0 1 .4 2 1.1 2.9zm-7.7-24v-6.7c-.8 0-1.6-.3-2.1-.9l-.7.8-.1-.1 2.5-2.8c1.2 1 2.5 1.1 3.1-.4.1.2.1.5.1.7.1 1.3-.9 2.5-2.2 2.7-.3.1-.4.2-.4.5v11.1c0 .2 0 .5-.2.6-.3.1-.4-.2-.5-.4l-6-10.8c-.1-.2-.2-.3-.4-.5v8.1c1 .2 1.9.7 2.6 1.4l.7-.7.1.1-2.5 2.8-.3-.3-1.2-.6c-.6-.2-1.2.1-1.4.7-.2.6.1 1.2.7 1.4l.6.3c-1.3.2-2.5-.6-2.7-1.9v-.1c-.1-1.5 1-2.8 2.5-3h.8v-3.2c0-.4-.1-.5-.5-.4s-.7.1-.8.5c0 .3 0 .6.1.9-.3-.1-.6-.2-.9-.5-.7-.7-.7-1.9 0-2.6.3-.3.6-.4 1-.5l.3-.1c.6-.1.6-.1.6-.6v-1.5c0-.5-.2-1-.7-1.2-.3-.3-.8-.3-1 0-.1.1-.1.2-.2.3-.1.2-.2.3-.2.5-.3-1 .1-2.1.9-2.7.8-.6 1.9-.5 2.7.1.3.3.6.6.8 1l4.5 8.1.2.3.2-.4zm18-3.1l2.1-1.9 1.9 1.6.8-.6.1.1c0 .1-.1.1-.2.2-.4.4-.9.7-1.3 1.1-.1.1-.2.3-.2.5v4.4c0 .2-.1.4-.3.5-1.4.8-2.8 1.7-4.1 2.5l-2.3-1.8-2.2 1.8-1.5-1.2c-.6-.4-.6-.4-1.1 0l-.3.2-.2-.1c.2-.2.4-.3.6-.5.2-.1.4-.4.3-.6v-4.3c0-.7-.3-1.3-.8-1.7-.6-.4-1-1.2-.9-1.9.2-1.1 1.2-1.9 2.3-2l-.1.1c-.5.3-.6 1-.2 1.5l.3.3c.3.3.7.5 1 .7.6.4.9 1 .9 1.7v4.6c0 .4.1.7.4.9.4.2.7.5 1 .8.3-.1.5-.3.4-.6v-5c0-.3-.1-.7-.4-.9-.2-.1-.3-.3-.4-.4l2.1-1.8 1.9 1.7c0 .1 0 .1-.1.1-.5.4-.7 1.1-.6 1.7v3.7c0 .3.1.6.4.8.4.3.7.6 1.1.9.1.1.3.1.4.2.1-.1.1-.3.2-.5v-4.5c-.1-.9.1-1.8-1-2.3zm7.6 22.3c-.3.1-.6.5-.5.8v4.5c0 .4.1.7.4.9l.4.4-1.9 1.9-1.9-2.1c.7-.3.6-.9.6-1.5v-3.3c0-.2-.1-.4-.2-.5-.3-.4-.6-.7-1-1.1l-.8.7-.1-.1 2.6-2.2 1.8 1.8 2.4-1.9 1.7 1.9 2.5-2 1.7 1.9.9-.6.1.1c-.1.1-.2.2-.3.2-.5.2-.7.8-.7 1.3v3.8c0 .3.1.6.3.9.2.2.4.4.6.7l.7-.6c-.7 1-1.5 1.8-2.4 2.5l-.9-1-1-1.1c.5-.3.5-.8.5-1.3v-3.4c0-.2-.1-.4-.2-.6-.3-.4-.7-.8-1.1-1.2-.4.3-.6.7-.6 1.1v4.4c0 .4.1.8.4 1l.2.2-1.8 1.8-1.6-1.8c.7-.3.5-.9.5-1.4v-3.3c0-.1 0-.3-.1-.4l-1.2-1.4zm2.4-45.4l1.9 2.1.8-.6.1.1c-.2.2-.3.3-.5.4-.2.1-.3.4-.3.6v6.1c0 2.1-1.6 3.8-3.7 3.8-.2 0-.5 0-.7-.1h-.1c.3-.1.6-.3.9-.5.7-.5 1.1-1.2 1.2-2 .1-.5.1-1.1.1-1.6v-5c0-.2-.1-.4-.2-.5-.3-.4-.6-.8-1-1.2-.5.3-.8.6-.8 1.3.1 1.4.1 2.8 0 4.2 0 .5.2 1.1.7 1.3l.6-.5.1.1-2.7 2.2c-.5-.4-.9-.8-1.4-1.3-.3-.3-.5-.3-.7 0-.1.1-.2.1-.2.1l-.1-.1.2-.2c.3-.3.8-.5 1-.9.1-.4.1-.9 0-1.3v-8.3c0-.4-.1-.8-.6-1l3-2.4v7l2.4-1.8zm10.7 29.4l-.7.5h-.1l.4-.4c.2-.1.3-.4.3-.6v-5.1c0-.2.1-.4.3-.5 1.2-.6 2.4-1.3 3.5-1.9.1-.1.4-.1.5 0 .7.6 1.4 1.2 2.1 1.9l.3.2.7-.7.2.1-.3.3c-.3.2-.5.6-.4 1v4.5c0 .2-.1.4-.2.5-1.3.7-2.6 1.4-3.8 2.2-.1.1-.4.1-.5-.1l-2.3-1.9zm2.4-6.9c0 .1 0 .1-.1.2v5.5c0 .1 0 .2.1.2.6.6 1.3 1.2 2 1.8 0 0 0-.1.1-.2v-5.4c0-.1 0-.2-.1-.3l-2-1.8zm3.9 32.2c-1.1-.1-1.9-1.1-1.8-2.2 0-.3.1-.6.3-.9.3-.5.7-.9 1.1-1.3.1-.1.3-.3.5-.4-.5-.4-.9-.8-1.3-1.2-.2-.1-.3-.4-.2-.6v-2c0-.1.1-.3.2-.4l3.6-2.1c.4.3.8.8 1.4.7s.9-.3 1.1-1.1c.2.3.2.7.1 1.1-.2.8-.6 1.5-1.1 2.1l-.3.4c.4.4.9.7 1.3 1.1.2.1.3.3.3.6v2.8c0 .2-.1.3-.2.4-1.2.7-2.3 1.4-3.5 2.1-.2-.2-.4-.4-.7-.5-.3-.2-.7-.3-1.1-.1-.3.1-.4.5-.3.8 0 .1.1.2.2.2 0 .2.2.4.4.5zm1.9-6.3c-1.1 1-2.2 2.1-3.1 3.3 1.8-1.3 2.5-1.2 4.1.8v-3.1c0-.1 0-.1-.1-.2l-.9-.8zm-.2-.1c1-.7 1.8-1.6 2.5-2.7-1.3.9-1.8.8-3.3-.7v2.5c0 .1.1.1.1.2.2.2.5.4.7.7zm7.1-30.1l3.2-2.2v12.1c0 .4.1.8.5 1.1l.4.4.7-.5.1.1-2.6 2.3L78 45l-.7.6-.1-.1c.1-.2.3-.3.5-.4.6-.4.9-1 .8-1.7v-8.9c-.1-.6-.4-1.1-.9-1.2zm-21.7-10l-.8.6-.1-.1c.2-.2.3-.3.5-.4.2-.1.3-.4.3-.6V18c0-.2.1-.5.3-.5l3.6-2.1.3-.2 2 3.4-.9.7-2.7 2c-.3.2-.4.6-.2.9l.1.1 1.7 1.6 2.3-1.8.1.1-4.2 3.3-2.3-2.2zm2.3-6.7l-.1 4.5 1.9-1.4-1.8-3.1zm4.2 52.5L60 66.9l-.8.6-.1-.1c.1-.1.1-.2.2-.2.4-.2.6-.7.5-1.2v-4.5c0-.2.1-.3.2-.4 1.3-.8 2.7-1.5 4.1-2.3l1.9 3.3-.4.3-3.1 2.3c-.3.2-.4.6-.2.9 0 .1.1.1.2.2.5.4 1 .9 1.4 1.3.1.1.3.2.4.1l.1-.1c.6-.5 1.2-.9 1.8-1.4l.3-.2.1.1-4.2 3.5zm-.1-9v4.6l1.9-1.4-1.9-3.2zM25.2 44.9c.2-.2.3-.3.5-.4.2-.1.3-.3.3-.6v-4.8c0-.2.1-.3.2-.4 1.3-.8 2.7-1.5 4.1-2.3l1.9 3.3-.3.2-3.3 2.4c-.3.2-.4.6-.2.9l.1.1 1.7 1.6 2.3-1.8.1.1-4.2 3.3-2.4-2.1-.8.5zm3.2-7.1l-.1 4.5 1.9-1.4-1.8-3.1z"/><path d="M73.5 46.6l-2-1.8-.7.7-.1-.1c.1-.1.1-.2.2-.3.6-.4 1-1.2.9-1.9-.1-1.1 0-2.2 0-3.3 0-.4-.1-.7-.3-1-.2-.2-.3-.4-.5-.6l-.7.6-.1-.1 2.6-2.3 1.4 1.7 1.6-1.6c.6.5 1.3.7 1.9 0 .1.9-.2 1.8-1 2.3-.7.5-1.4.4-2.4-.5v5.3c0 .3.1.5.3.7.2.2.5.4.7.6l.8-.7.1.1c-.9.7-1.8 1.4-2.7 2.2zm13-1.9l.8-.7.1.1-2.8 2.5c-.1-.1-.1-.2-.2-.2-1.1-1.8-2.3-3.7-3.4-5.5-.1-.2-.1-.4 0-.6l2.7-3.9c.5.2 1 .4 1.4.5.5.1 1-.3 1.4-.7-.1 1-.6 1.9-1.4 2.5-.9.5-1.8.1-2.7-.5 0 .2-.1.4 0 .5l4.1 6zM40.1 60.5l-.7.5h-.1l2.4-2.1 1.8 2 .8-.7.1.1-.4.4c-.3.2-.4.5-.4.9v4.2c0 .3.1.5.3.7.2.3.5.5.7.8l.7-.6.1.1-2.5 2.2-1.7-1.9-.8.6-.1-.1c.2-.2.4-.3.5-.5.1-.1.2-.3.2-.4V62c0-.1 0-.2-.1-.3-.2-.4-.5-.8-.8-1.2zm1.4-2.2L40 56.7l1.8-1.7 1.5 1.7-1.8 1.6z"/><path class="st0" d="M55.9 43.3v-2.5c0-.5.4-.9.8-.9h.1c.5 0 .8.3.9.8v4.1c0 .8-.6 1.4-1.3 1.5h-.2c-.2 0-.3-.1-.3-.3v-2.7zm.6-9.7c.3.3.7.6 1.1.9.1.1.1.3.1.4v2.8c.1.4-.2.7-.6.8-.5.2-1 0-1.2-.5-.1-.1-.1-.3-.1-.4v-3c0-.4.3-.8.7-1z"/><path class="st0" d="M56 38.5c.5.4 1.3.4 1.8 0V40c-.5-.4-1.3-.4-1.8 0v-1.5zM37.4 21.7c-.8-1-1.2-2.3-1.2-3.6.1-.5.1-1 .3-1.5 0-.1.1-.2.2-.3.5-.2 1-.5 1.6-.7v5.2c.1.3-.1.7-.5.7l-.4.2zm-5.9 43.6c-.7-.8-1.1-1.9-1.1-2.9 0-.8.1-1.5.3-2.3 0-.1.1-.2.2-.3.5-.2 1-.5 1.6-.7v5.3c.1.3-.1.7-.5.7-.2.1-.3.1-.5.2zm33.4-27.7c.7.6 1.3 1.2 1.9 1.8.1.1.1.2.1.3v5.4c0 .1 0 .1-.1.2-.7-.6-1.3-1.2-2-1.8-.1-.1-.1-.2-.1-.2v-5.5l.2-.2zm5.8 25.9c.3.3.6.5.9.8.1 0 .1.1.1.2v3.1c-1.6-2-2.3-2.1-4.1-.8.9-1.2 1.9-2.3 3.1-3.3zm-.2-.1l-.8-.7c-.1 0-.1-.1-.1-.2V60c1.5 1.5 2.1 1.6 3.3.7-.6 1-1.4 1.9-2.4 2.7zM58.2 16.6l1.8 3.1-1.9 1.4.1-4.5zm4.1 43.6l1.9 3.2-1.9 1.4v-4.6zM28.4 37.8l1.8 3.1-1.9 1.4.1-4.5z"/></g></g></svg>