<svg xmlns="http://www.w3.org/2000/svg" viewBox="0 0 99.69 41.21"><title>people-black</title><g data-name="Layer 2"><g data-name="Layer 1"><g data-name="Layer 2"><g data-name="Layer 1-2"><path d="M16.51 0c.53.08 1.07.14 1.6.25A9.43 9.43 0 0 1 22 2a7.77 7.77 0 0 1 2.29 3 12 12 0 0 1 1 3.66.94.94 0 0 0 0 .15c.5-.24 1-.49 1.46-.7A9.07 9.07 0 0 1 34 8a8.39 8.39 0 0 1 4.08 3.66c.23.4.42.82.65 1.28 1.35-2.82 3.37-4.84 6.52-5.42a8.76 8.76 0 0 1 8.18 2.28V8.1c0-.2.06-.28.27-.28h9.39c.19 0 .28.07.27.26v.5l.28-.17a5.29 5.29 0 0 1 6-.4 7.82 7.82 0 0 1 3.17 3.28s0 .06.08.13V8a1.31 1.31 0 0 0-1.19-1.49 6.49 6.49 0 0 0-1-.07c-.21 0-.31-.07-.31-.29V.33c0-.21.08-.28.28-.28h10.61c.38 0 .39 0 .39.39v11.07l.43-.56a8.89 8.89 0 0 1 6.32-3.57 9.7 9.7 0 0 1 5.52.92 9 9 0 0 1 3.52 3.23 14.27 14.27 0 0 1 2.1 6.14 29.09 29.09 0 0 1 .13 4c0 .46-.06.92-.09 1.39a.2.2 0 0 1-.23.23h-10.6c-.44 0-.46 0-.44.46a6.25 6.25 0 0 0 .39 2.34c.19.36.39.71.86.74a.88.88 0 0 0 .88-.65 6.32 6.32 0 0 0 .38-1.41c.08-.57 0-.58.61-.58h7.62c.4 0 .41 0 .37.43a14.76 14.76 0 0 1-.53 2.86 9.43 9.43 0 0 1-2.54 4.25 9.29 9.29 0 0 1-4.93 2.37 9.44 9.44 0 0 1-6.18-1 8.73 8.73 0 0 1-1.84-1.33l-.19-.17v1.84c0 .21-.06.31-.28.31H71.83c-.2 0-.28-.07-.28-.28v-1.2a4.44 4.44 0 0 1-3.79 2 5.14 5.14 0 0 1-4.1-1.56c0 .18 0 .29.05.4A2.14 2.14 0 0 0 65.8 35c.21 0 .29.08.29.31v5.61c0 .29-.15.31-.36.31H53.06c-.19 0-.27-.06-.27-.26v-5.68c0-.2.1-.24.27-.26a7 7 0 0 0 1.19-.24 1.36 1.36 0 0 0 .92-1.12 5.73 5.73 0 0 0 .11-1v-2.24a2.11 2.11 0 0 0 0-.28c-.25.37-.47.7-.7 1a7.19 7.19 0 0 1-4.1 2.74 11.85 11.85 0 0 1-2.51.36 10.11 10.11 0 0 1-4.38-.71 8.19 8.19 0 0 1-3.78-3.06c-.34-.51-.61-1.06-.92-1.59l-.15-.28-.14.31a9.13 9.13 0 0 1-1.95 3 7.83 7.83 0 0 1-4.08 2.14 10 10 0 0 1-6.68-.89A10.59 10.59 0 0 1 23 30.8a10 10 0 0 1-2.34-5.53 23.31 23.31 0 0 1-.24-3.7c0-.4.05-.79.08-1.19v-.25l-.17.09a5.41 5.41 0 0 1-3 1c-1.37 0-2.74 0-4.11.05-.36 0-.36 0-.36.36v2.59a5.79 5.79 0 0 0 .09.94 1.4 1.4 0 0 0 1.32 1.28 6.48 6.48 0 0 0 .89.09c.24 0 .29.11.29.31v6.7c0 .24-.08.31-.31.31H.31c-.22 0-.31-.07-.31-.31v-6.77c0-.23.07-.31.31-.31a7.16 7.16 0 0 0 1.08-.13 1.36 1.36 0 0 0 1.14-1.17 3.72 3.72 0 0 0 .07-.67V9.12a3 3 0 0 0-.06-.57 1.5 1.5 0 0 0-1.4-1.32 6.36 6.36 0 0 0-.83-.09C.06 7.15 0 7 0 6.8V0zm38 13.28h-.06l-.09-.17a7 7 0 0 0-3-3.53 7.78 7.78 0 0 0-10.54 1.85 11.21 11.21 0 0 0-2 4.41c0 .09 0 .18-.08.29 0 0-.06-.05-.06-.07v-.15a11.78 11.78 0 0 0-1.23-3.7 7.23 7.23 0 0 0-3.25-3.12 7.89 7.89 0 0 0-4.2-.73 9.62 9.62 0 0 0-4.34 1.45c-.31.2-.61.43-1 .68 0-.34-.07-.63-.1-.92a14.4 14.4 0 0 0-.82-3.62 7 7 0 0 0-2.29-3.17A8.93 8.93 0 0 0 16 1H1.31C1 1 1 1 1 1.35v4.44c0 .27.09.38.34.39h.15a2.28 2.28 0 0 1 1.74 1.26A3.4 3.4 0 0 1 3.6 9v15.6a6.62 6.62 0 0 1 0 .74 2.25 2.25 0 0 1-2.3 2.19c-.31 0-.34.06-.34.36v4.49c0 .26.09.32.33.32h12.84c.33 0 .33 0 .33-.33v-4.56c0-.37 0-.37-.37-.38A2.1 2.1 0 0 1 12 25.77a4.6 4.6 0 0 1-.14-1.11v-4.09c0-.38 0-.37.4-.38 1.55 0 3.1 0 4.65-.1a6.43 6.43 0 0 0 4.29-1.82c.16-.15.33-.28.55-.47a3.14 3.14 0 0 1 0 .34c-.07.79-.19 1.58-.21 2.38v2.89A14.3 14.3 0 0 0 22 26.7a8.63 8.63 0 0 0 5.33 6 8.76 8.76 0 0 0 4.68.47 6.87 6.87 0 0 0 4.84-3 11.08 11.08 0 0 0 1.69-4.25c0-.09 0-.18.06-.27a.51.51 0 0 1 .13.23A11.8 11.8 0 0 0 41 30.41a7.89 7.89 0 0 0 3.29 2.34 9.35 9.35 0 0 0 4.29.45 7.9 7.9 0 0 0 6.54-4.8 13.18 13.18 0 0 0 1-3.17 1.13 1.13 0 0 1 .06-.16v8.11A2.85 2.85 0 0 1 54 35.83c-.21 0-.22.15-.22.31v3.68c0 .31 0 .31.32.31h10.68c.32 0 .34 0 .34-.33v-3.63a.35.35 0 0 0-.29-.4 2.89 2.89 0 0 1-2-1.91 5.68 5.68 0 0 1-.24-1.69v-2.53l.08.09a5.56 5.56 0 0 0 3 3.06 4 4 0 0 0 2.37.36 4.71 4.71 0 0 0 3.21-2.28 8.47 8.47 0 0 0 1.08-2.78l.14-.64h.06v4.82c0 .36 0 .36.36.36h9c.38 0 .38 0 .38-.39v-4.7a.28.28 0 0 1 .1.17 6.5 6.5 0 0 0 4.27 4.87 8.8 8.8 0 0 0 4.63.48 8.51 8.51 0 0 0 4.62-2.18 8.38 8.38 0 0 0 2.59-5.38c0-.25 0-.31-.28-.31h-6.12c-.23 0-.31.07-.36.31a3.87 3.87 0 0 1-.66 1.6 1.73 1.73 0 0 1-2.41.43l-.08-.06a2.56 2.56 0 0 1-.76-1.16 11.55 11.55 0 0 1-.48-3.68c0-.37 0-.4.42-.4h10.64c.23 0 .31-.07.31-.31v-2.81a14.9 14.9 0 0 0-.92-4.82 9.38 9.38 0 0 0-2.69-4 8.27 8.27 0 0 0-6.69-1.9A7.67 7.67 0 0 0 82.86 12 13.1 13.1 0 0 0 81 16.79c-.11.52-.18 1.06-.27 1.59V1.43c0-.38 0-.38-.37-.38h-8.63c-.34 0-.35 0-.35.35v3.59c0 .33 0 .31.33.35a2.26 2.26 0 0 1 1.8.92 2.57 2.57 0 0 1 .41 1.51v10.67l-.05-.1a1.64 1.64 0 0 1 0-.17 18.59 18.59 0 0 0-1.47-5.33 9 9 0 0 0-2.51-3.37 4.51 4.51 0 0 0-3.2-1.14 4.61 4.61 0 0 0-4.07 3.1l-.09.23h-.07V9.15c0-.33 0-.34-.33-.34h-7.3c-.34 0-.34 0-.34.36v4.14z"/><path d="M62.85 20.59v-4.23a4.44 4.44 0 0 1 .33-1.7 1.65 1.65 0 0 1 1.41-1.11 1.63 1.63 0 0 1 1.7 1A7 7 0 0 1 67 17a29.87 29.87 0 0 1 .2 5.07 13.37 13.37 0 0 1-.61 4 3.16 3.16 0 0 1-.74 1.26 1.53 1.53 0 0 1-2.4-.24 3.25 3.25 0 0 1-.52-1.72c0-1.6-.06-3.2-.08-4.8zm1 .19v3.44a14.27 14.27 0 0 0 .29 2 .53.53 0 0 0 .43.48.66.66 0 0 0 .69-.31 3.35 3.35 0 0 0 .36-.71 15.84 15.84 0 0 0 .54-4.9 22.5 22.5 0 0 0-.09-2.39 20.19 20.19 0 0 0-.31-2.29 3.16 3.16 0 0 0-.45-1.1.56.56 0 0 0-1 .08 1.49 1.49 0 0 0-.19.48c-.09.67-.2 1.35-.22 2-.07 1.08-.04 2.15-.04 3.22zM45 20.86a15.78 15.78 0 0 1 .45-4.79 5 5 0 0 1 .74-1.65 1.43 1.43 0 0 1 2.41-.06 4.41 4.41 0 0 1 .88 2.06c.17 1 .28 1.93.36 2.91a21.85 21.85 0 0 1 0 2.45 15.25 15.25 0 0 1-.54 4 5.72 5.72 0 0 1-.52 1.2 1.5 1.5 0 0 1-2.74 0 5.38 5.38 0 0 1-.66-1.62 23.06 23.06 0 0 1-.4-2.76c.02-.54.02-1.14.02-1.74zm3.95 0a18.93 18.93 0 0 0-.41-4.11 4.23 4.23 0 0 0-.68-1.67.49.49 0 0 0-.87 0 2.68 2.68 0 0 0-.38.67 11.51 11.51 0 0 0-.69 4c0 1.13 0 2.27.09 3.41a8.49 8.49 0 0 0 .54 2.58 3.9 3.9 0 0 0 .54.92.42.42 0 0 0 .59.06l.06-.06a1.5 1.5 0 0 0 .32-.44 7 7 0 0 0 .37-1 17.09 17.09 0 0 0 .5-4.28zM33.2 22.27h4.66c.32 0 .31 0 .34.34.09.78.2 1.53.31 2.32 0 .28 0 .31-.26.31H33c-.25 0-.36.07-.42.33a3.86 3.86 0 0 1-.7 1.63 1.73 1.73 0 0 1-2.74 0 4.35 4.35 0 0 1-.82-2.27c-.08-.74-.09-1.49-.11-2.24 0-.4 0-.4.39-.4zm0 1h-3.73c-.28 0-.31 0-.29.32s0 .85.09 1.26a2.89 2.89 0 0 0 .66 1.74.75.75 0 0 0 1.2-.07 3.5 3.5 0 0 0 .61-2c0-.34 0-.34.36-.34h4.6c.73 0 .59.13.55-.65 0-.24-.13-.31-.35-.31h-3.7zM11.87 10.62V7.25c0-.31 0-.33.31-.33h1.76a2 2 0 0 1 1.8 1.42 6.48 6.48 0 0 1 .35 3 7.66 7.66 0 0 1-.28 1.59 1.87 1.87 0 0 1-1.92 1.39h-1.73c-.23 0-.31-.08-.31-.31.02-1.14.02-2.26.02-3.39zm1 0v2.44c0 .13 0 .26.18.26a7.25 7.25 0 0 0 1 0 .87.87 0 0 0 .69-.48 2.11 2.11 0 0 0 .21-.53A7.25 7.25 0 0 0 15 9.58a4.57 4.57 0 0 0-.31-1.06 1 1 0 0 0-1-.59h-.57a.27.27 0 0 0-.31.31v2.41zm17.57 7.93h-2c-.2 0-.28-.06-.29-.27a7.31 7.31 0 0 1 .61-3.47 2.14 2.14 0 0 1 .85-1 1.66 1.66 0 0 1 2.27.57 4.77 4.77 0 0 1 .48 1.09 9.55 9.55 0 0 1 .31 2.76c0 .2-.08.28-.28.28-.62.03-1.29.04-1.95.04zm0-1h1c.18 0 .27-.07.25-.25-.06-.48-.09-1-.19-1.45a1.74 1.74 0 0 0-.55-1 .7.7 0 0 0-.92-.07 1.65 1.65 0 0 0-.42.48 4.27 4.27 0 0 0-.44 2c0 .17.09.23.26.23h1zm59.15 1h-2c-.16 0-.28 0-.28-.23a7.51 7.51 0 0 1 .56-3.32 2.52 2.52 0 0 1 .58-.82 1.76 1.76 0 0 1 2.76.54 5.12 5.12 0 0 1 .61 2.07c0 .49 0 1 .06 1.46 0 .25-.12.31-.34.31-.65-.02-1.3-.01-1.95-.01zm0-1h1c.17 0 .25-.06.24-.24s0-.45 0-.67a3.34 3.34 0 0 0-.52-1.53.79.79 0 0 0-1.39 0 3.86 3.86 0 0 0-.57 2.26c0 .16.09.19.23.19z"/></g></g></g></g></svg>