<svg xmlns="http://www.w3.org/2000/svg" viewBox="0 0 98.56 31"><title>plannedparenthood-black</title><path d="M42.26 29.78h1v1.09h-1zm22-3.29h-.53v1h-.57V28h.57v2.17a.68.68 0 0 0 .55.78h.18a2.89 2.89 0 0 0 .6 0v-.55a1.81 1.81 0 0 1-.37 0 .35.35 0 0 1-.45-.37V28H65v-.5h-.8v-1zm-18.16-11a6.05 6.05 0 0 0-.71 0 2 2 0 0 0-1.81.73v-.52h-1.73v7h1.7v-4.91c0-.51.75-.78 1.61-.78a4.46 4.46 0 0 1 .9.09v-1.62zm-8.42 7.35c-2.21 0-3-.51-3-2.34s1.11-2.29 2.75-2.29a8.31 8.31 0 0 1 1.73.19c0-1.22-.29-1.52-1.74-1.52a6.57 6.57 0 0 0-2.11.34l-.31-1.4a11.58 11.58 0 0 1 2.79-.37c2.07 0 3 .63 3 2.71v4.12a9.77 9.77 0 0 1-3.15.55zm.12-1.31a4.46 4.46 0 0 0 1.4-.23v-1.75a7 7 0 0 0-1.39-.12c-1 0-1.31.11-1.31 1s.23 1.1 1.26 1.1zm-1.6 6.58v-.67h-.9v3.43h.94v-1.5c0-.66.31-1.05.95-1.05a1.63 1.63 0 0 1 .52.1v-1a1.56 1.56 0 0 0-.34 0c-.56-.07-.83.14-1.17.69zm-1.54 2.07a2 2 0 0 0 .11.69h-.94a1.81 1.81 0 0 1-.06-.37 1.81 1.81 0 0 1-1.37.5c-.75 0-1.27-.31-1.27-1.11s.61-1 1.19-1.05l1-.08c.29 0 .38-.08.38-.36s-.19-.4-.7-.4a.61.61 0 0 0-.73.45h-.9c.11-1.05.93-1.17 1.7-1.17 1.36 0 1.64.52 1.64 1.16v1.72zm-.9-1a1.36 1.36 0 0 1-.56.15l-.55.06a.45.45 0 0 0-.5.45.51.51 0 0 0 .52.49h.07a.9.9 0 0 0 1-.79v-.35zm29.37 1.25h.19v.45a2.26 2.26 0 0 1-.42 0 .42.42 0 0 1-.48-.45 1.45 1.45 0 0 1-1.18.54c-.9 0-1.13-.57-1.13-1 0-.61.3-.93 1.19-1l.61-.08c.3 0 .48-.1.48-.4 0-.45-.37-.55-.8-.55s-.85.15-.86.66h-.5c.07-.84.55-1.16 1.38-1.16.57 0 1.28.17 1.28 1v1.81a.23.23 0 0 0 .19.26zm-.77-1.33a.74.74 0 0 1-.52.2l-.6.09c-.42.06-.63.2-.63.55a.57.57 0 0 0 .6.53 1 1 0 0 0 1.1-.9v-.47zm-5.52-13.66a10.21 10.21 0 0 0-3.31.61v6.59h1.7v-5.5a4.79 4.79 0 0 1 1.26-.14c1.21 0 1.5.39 1.5 1.94v3.72h1.7v-3.9c0-2.54-.88-3.32-2.85-3.32zm1.75 12a1.26 1.26 0 0 0-1.13.61 1 1 0 0 0-.94-.62 1.18 1.18 0 0 0-1.09.62v-.5h-.53v3.35h.53v-1.98a.9.9 0 0 1 .8-1h.1c.34 0 .67.19.67.8v2.13h.53v-2a.85.85 0 0 1 .78-.9h.12c.34 0 .67.19.67.8v2.13h.54v-2.29a1.06 1.06 0 0 0-.93-1.17h-.13zm-9.88 2.53l-2.44-3.62h-.63v4.56h.56v-3.64l2.44 3.62h.61V26.3h-.54v3.63zm3.46-7.49a8.82 8.82 0 0 1-2.44.38c-2 0-3.39-.85-3.39-3.72s1.22-3.67 3.26-3.67c2.21 0 3.16.75 3.05 4.15h-4.53c0 1.5.59 1.81 1.81 1.81a8.59 8.59 0 0 0 2-.29zm-4-4.16h2.93c-.05-1.24-.41-1.5-1.39-1.5s-1.43.34-1.54 1.49zM53 29.19a1.62 1.62 0 1 1-3.23 0 1.62 1.62 0 1 1 3.23 0zm-.56 0c0-.61-.28-1.25-1.05-1.25s-1.05.65-1.05 1.25.28 1.25 1.05 1.25 1.06-.64 1.06-1.25zm-10.77.18v.1h-2.81a.87.87 0 0 0 .9.82.79.79 0 0 0 .78-.45h1A1.7 1.7 0 0 1 39.77 31a1.68 1.68 0 0 1-1.9-1.84 1.68 1.68 0 0 1 1.9-1.84c1.23-.01 1.87.74 1.87 2.05zm-1-.6a.85.85 0 0 0-.9-.76.9.9 0 0 0-.9.76zm23.09-5.95a6.2 6.2 0 0 0 1.93-.32l-.3-1.36a3.88 3.88 0 0 1-1.19.19c-.82 0-1.06-.36-1.06-1.22v-3h2.32v-1.47h-2.33v-1.88l-1.72.7v1.18h-1.16v1.48h1.17v3.16c0 2.08.77 2.54 2.34 2.54zM59.4 6.39c0-2.81 1.22-3.67 3.26-3.67 2.21 0 3.16.75 3.05 4.15h-4.53c0 1.5.59 1.81 1.81 1.81a8.5 8.5 0 0 0 2-.29l.28 1.36a8.84 8.84 0 0 1-2.44.38c-2 0-3.4-.86-3.4-3.74zm1.81-.83h2.94c-.08-1.23-.43-1.49-1.41-1.49s-1.44.34-1.55 1.5zM54 4.42a4.74 4.74 0 0 1 1.25-.16c1.21 0 1.5.38 1.5 1.94v3.74h1.7V6c0-2.52-.88-3.3-2.84-3.3a10.21 10.21 0 0 0-3.31.61v6.63H54V4.42zM28.27 9.94h-1.81V.34h5c2 0 2.67 1.41 2.67 3.29 0 1.65-.78 3.13-2.63 3.13h-3.2v3.18zm0-4.67h2.67c.75 0 1.18-.55 1.18-1.64S31.72 1.9 31 1.9h-2.73zm18.49-.83A4.75 4.75 0 0 1 48 4.28c1.21 0 1.5.38 1.5 1.94v3.72h1.7V6c0-2.52-.88-3.3-2.85-3.3a10.19 10.19 0 0 0-3.35.63v6.61h1.7v-5.5zm-18.49 18.2h-1.81v-9.58h5c2 0 2.67 1.41 2.67 3.29 0 1.65-.78 3.13-2.63 3.13h-3.2v3.16zm0-4.67h2.67c.75 0 1.18-.55 1.18-1.64s-.4-1.73-1.12-1.73h-2.73zM20.16.34H11a11 11 0 0 0-11 11v19.52h3.16V11.35A7.87 7.87 0 0 1 11 3.49h6v6.45h-4.86a7.08 7.08 0 0 0-7.08 7v13.92h3.17V17a3.94 3.94 0 0 1 3.93-3.93h8v8.3a3.94 3.94 0 0 1-3.93 3.93h-5.84L9 28.45h7.23a7.07 7.07 0 0 0 7-7.09V9.94h-3.09V.34zm8.47 29.78c-1 0-1.19-.9-1.19-1.54S27.65 27 28.63 27a1.06 1.06 0 0 1 1.09 1h1.12a2 2 0 0 0-2.26-1.85c-1.39 0-2.26.71-2.26 2.41S27.19 31 28.59 31a2 2 0 0 0 2.26-1.88h-1.13a1.06 1.06 0 0 1-1.09 1.01zm8.59-20.51A2.49 2.49 0 0 1 36.68 8V0H35v8a3.13 3.13 0 0 0 .74 2.23zm3.45-4.13a8.2 8.2 0 0 1 1.73.19c0-1.22-.29-1.53-1.74-1.53a6.55 6.55 0 0 0-2.11.34l-.32-1.4A11.63 11.63 0 0 1 41 2.71c2.07 0 3 .63 3 2.71v4.12a9.73 9.73 0 0 1-3.16.55c-2.21 0-3-.51-3-2.34S39 5.5 40.63 5.5zM41 6.71c-1 0-1.31.11-1.31 1S40 8.81 41 8.81a4.47 4.47 0 0 0 1.4-.23V6.83a7 7 0 0 0-1.4-.12zm25.2 19.78h-.53v1h-.6V28h.57v2.17a.68.68 0 0 0 .55.78h.18a2.89 2.89 0 0 0 .6 0v-.55a1.81 1.81 0 0 1-.37 0 .35.35 0 0 1-.45-.37V28H67v-.5h-.8v-1zm20.19 0h-.54v1h-.59V28h.59v2.17a.68.68 0 0 0 .55.78h.18a2.89 2.89 0 0 0 .6 0v-.55a1.81 1.81 0 0 1-.37 0 .35.35 0 0 1-.45-.37V28h.8v-.5h-.8v-1zm-1.15 4h.19v.45a2.26 2.26 0 0 1-.42 0 .42.42 0 0 1-.48-.45 1.45 1.45 0 0 1-1.18.54c-.9 0-1.13-.57-1.13-1 0-.61.3-.93 1.19-1l.61-.08c.3 0 .48-.1.48-.4 0-.45-.37-.55-.8-.55s-.85.15-.86.66h-.5c.07-.84.55-1.16 1.38-1.16.57 0 1.28.17 1.28 1v1.81a.23.23 0 0 0 .19.26h.05zm-.74-1.33a.74.74 0 0 1-.52.2l-.6.09c-.42.06-.63.2-.63.55a.57.57 0 0 0 .6.53 1 1 0 0 0 1.1-.9v-.47zm-3.92-1.76a1.18 1.18 0 0 0-1.1.61v-1.75H79v4.6h.53v-1.94a.9.9 0 0 1 .8-1h.1a.71.71 0 0 1 .82.77v2.16h.53v-2.26a1.06 1.06 0 0 0-.93-1.18h-.23zm-3.31 2.68l-.7-2.56H76l-.69 2.56-.77-2.56h-.59L75 30.87h.56l.7-2.56.7 2.56h.58l1.08-3.35h-.56zm10.45.79h.66v-.74h-.66zm9.77-16.72l.35.58h-.34l-.34-.56H97v.56h-.32v-1.44h.55a.45.45 0 0 1 .55.45.38.38 0 0 1-.34.39zm0-.42c0-.15-.15-.17-.26-.17h-.2v.35h.23c.14 0 .24 0 .24-.19zm1 .28a1.29 1.29 0 1 1-1.29-1.29A1.29 1.29 0 0 1 98.56 14zm-.38 0a.9.9 0 1 0-.9.9.9.9 0 0 0 .97-.91zm-24.87 5.1c0-2.86 1.11-3.67 3.33-3.67s3.35.81 3.35 3.67-1.1 3.72-3.35 3.72-3.32-.86-3.32-3.73zm1.78 0c0 1.94.37 2.32 1.57 2.32s1.6-.38 1.6-2.32-.37-2.32-1.6-2.32-1.59.34-1.59 2.35zm17.82-6.41h1.7v9.63a9.46 9.46 0 0 1-3.05.51c-2.31 0-3.37-.82-3.37-3.7s1.17-3.7 3-3.7a3.3 3.3 0 0 1 1.68.4V12.7zm0 4.84c0-.41-.61-.67-1.36-.67-1.2 0-1.58.48-1.58 2.23 0 1.91.4 2.26 1.61 2.26a4.47 4.47 0 0 0 1.36-.21v-3.63zm-5.47 1.55c0 2.87-1.1 3.72-3.35 3.72S80.7 22 80.7 19.09s1.11-3.67 3.33-3.67 3.34.83 3.34 3.67zm-1.76 0c0-2-.37-2.32-1.6-2.32s-1.56.32-1.56 2.32.37 2.32 1.56 2.32 1.58-.38 1.58-2.32zm-14.34 9v-.61h-.53v3.35h.53v-1.7c0-.73.37-1.1.9-1.1a1.26 1.26 0 0 1 .38.06v-.69a.88.88 0 0 0-.3 0 1.07 1.07 0 0 0-.97.73zm1.16-5.49v-4c0-2.61-.9-3.16-2.53-3.16a4.54 4.54 0 0 0-1.93.48v-3.2h-1.7v9.94H68V17.6c0-.41.65-.62 1.36-.62 1.1 0 1.4.62 1.4 1.77v3.89zm-2.11 6.7v.07h-2.56a1.06 1.06 0 0 0 1 1.06.9.9 0 0 0 .9-.6h.56a1.51 1.51 0 0 1-1.4 1.17 1.61 1.61 0 0 1-1.61-1.81 1.61 1.61 0 0 1 1.61-1.81c.72.02 1.5.53 1.5 1.92zm-.56-.42a1 1 0 0 0-1-.94 1 1 0 0 0-1 .95h2zM71.2 0h1.7v9.61a9.49 9.49 0 0 1-3.05.51c-2.31 0-3.37-.82-3.37-3.7s1.17-3.71 3-3.71a3.29 3.29 0 0 1 1.68.4V0zm0 4.84c0-.41-.61-.67-1.36-.67-1.2 0-1.58.48-1.58 2.23 0 1.91.4 2.26 1.61 2.26a4.46 4.46 0 0 0 1.36-.21V4.83z" data-name="Layer 1-2"/></svg>