<svg xmlns="http://www.w3.org/2000/svg" viewBox="0 0 105.06 68"><defs><style>.cls-1{fill:#ef5035}</style></defs><title>spiritquest-laurel-red</title><g id="Layer_2" data-name="Layer 2"><g id="Layer_1-2" data-name="Layer 1"><g id="Layer_2-2" data-name="Layer 2"><g id="Layer_1-2-2" data-name="Layer 1-2"><path class="cls-1" d="M80.85 4.5A4.3 4.3 0 0 1 80 .11a3.11 3.11 0 0 1 2.61 3.23c-.13 1.91.94 2.52 2.37 3h.26c-.51-2.59-.48-2.88.39-4.23A3.37 3.37 0 0 1 87.49 6c-.37 1.61.33 2.41 1.57 3.06.16.09.31.22.65.45a4.88 4.88 0 0 1 .78-4.39c1.81.89 2 2.24 1 5.93.23.25.5.52.74.82a4.94 4.94 0 0 0 1 1.09c.33-1.63.58-3.11 2.1-4.16.93 1.38 1.37 2.91.54 4.21-1.1 1.73-.48 2.94.52 4.25l.18.15a4.82 4.82 0 0 1 2.53-3.92 3.62 3.62 0 0 1 .32 3.51 6.29 6.29 0 0 1-1.17 2 1.31 1.31 0 0 0-.25 1.49c.27.61.52 1.22.89 2.08a4.7 4.7 0 0 1 3-3.75 3.35 3.35 0 0 1-.91 4.52c-1.5 1.18-1.47 2.37-.77 4a5.37 5.37 0 0 1 3.81-2.77 3.48 3.48 0 0 1-.89 3.6 5.34 5.34 0 0 1-1.57 1.24 1.54 1.54 0 0 0-1 2.09 9.08 9.08 0 0 1 .18 1 5.52 5.52 0 0 1 4.2-1.94 4.13 4.13 0 0 1 0 1.06 4.58 4.58 0 0 1-3.16 3.29c-1 .3-1.46.77-1.41 1.8a7.83 7.83 0 0 1-.23 1.4 5.05 5.05 0 0 1 4.86-1.57 3.37 3.37 0 0 1-1.7 2.91 8.67 8.67 0 0 1-2.11.89c-1.69.48-1.7.45-1.89 2.29 2.94-.82 3.08-.83 4.84-.14a4.93 4.93 0 0 1-2.66 2.61 3.64 3.64 0 0 1-1.67.37c-1.77-.24-2.5.74-2.88 2.24C99.22 47 100 47 102 48.1a4.24 4.24 0 0 1-3.36 2.29 7.23 7.23 0 0 1-2 0C95 50.23 94.8 50.31 94 52a6.31 6.31 0 0 1 4.93 1.31c-2.19 2.5-4.66 1.88-7.23.89L90 55.77a21.5 21.5 0 0 1 2.72.63 3.65 3.65 0 0 1 2.15 1.69c-1.7 1.45-3.52 1.35-5.41.62a5.67 5.67 0 0 1-.65-.3c-1.42-.77-1.42-.77-2.86.49a7.25 7.25 0 0 1 4.41 3.1 4.58 4.58 0 0 1-3.86.55 5.94 5.94 0 0 1-2.14-1.14c-1.07-1.09-2.06-1-3.29-.13a6.44 6.44 0 0 1 3.81 3.6c-2.18 1.27-4.25.44-7-2.78a22.75 22.75 0 0 0-12 5.88l-1-1a8.81 8.81 0 0 1 3.69-2.89 56.39 56.39 0 0 1 6.82-2.7 2.1 2.1 0 0 0 1.77-2 5.06 5.06 0 0 1 2.77-4.28 5.56 5.56 0 0 1 .77-.28c.94 1.49.65 3.08-.87 5.44 1.93-.37 2-.41 1.92-2.25a5.35 5.35 0 0 1 2-4.83 2.61 2.61 0 0 1 .48-.3.75.75 0 0 1 .28 0c1 1.69 1 3-.13 5.56.35-.21.59-.33.81-.48 1.22-.77 1.23-.78.85-2.16a5.14 5.14 0 0 1 .68-4.58A11.85 11.85 0 0 1 87.74 50a5.56 5.56 0 0 1 1 4.9c1.41-.37 1.63-.74 1.1-2-.74-1.82-1-3.61.14-5.37.13-.2.3-.36.56-.68a5.6 5.6 0 0 1 1.85 4.65c1.43-.86 1.55-1.23.74-2.45a5.07 5.07 0 0 1-.74-5.16 7.34 7.34 0 0 1 .5-.78A5.93 5.93 0 0 1 95.34 48l1.29-2.18c-1.8-1.83-3.47-3.64-2.23-6.62a5.31 5.31 0 0 1 3.27 4.33l.3-.82c.57-1.51.57-1.51-.7-2.6-1.11-1-2.12-2-2.13-3.6a12.13 12.13 0 0 1 .14-1.36c1.86.43 2.64 1.12 3.92 3.32.07-.33.14-.59.2-.86.33-1.48.33-1.49-1.05-2.18a4.86 4.86 0 0 1-3-3.8 1.63 1.63 0 0 1 0-.43 2 2 0 0 1 .22-.42 5.69 5.69 0 0 1 4.27 2.71v-.83c0-1.74 0-1.73-1.61-2.31a4.52 4.52 0 0 1-3.43-3.88 4.64 4.64 0 0 1 4.7 2.17c-.08-.6-.11-.89-.15-1.17s-.11-.65-.18-1a1.1 1.1 0 0 0-1.06-1 12.2 12.2 0 0 1-2-.4 3.53 3.53 0 0 1-2.53-2.66c1.17-.7 1.86-.63 4.51.52-.15-.53-.27-1-.41-1.42a1.17 1.17 0 0 0-1.31-.88 11.61 11.61 0 0 1-1.59 0 4.36 4.36 0 0 1-3.5-2.33 4.48 4.48 0 0 1 5.18.5l-1.71-3c-2.29.86-4.43 1.23-6.18-1.09a4.56 4.56 0 0 1 5-.51l-2.06-2.39c-3.22 1.48-4.7 1.45-6.28-.13a5.43 5.43 0 0 1 4.32-1.53l-2-1.7c-1.89 1.23-3.73 2.66-6 1 1-1.56 2-2 4.3-2.06-.36-.25-.61-.45-.9-.62-1.66-1-1.66-1-3.14.33a3.56 3.56 0 0 1-4.32.65 4.3 4.3 0 0 1 4-2.57l-.65-.76zm-56.55 0l-.65.76a4.38 4.38 0 0 1 4.08 2.63 3.21 3.21 0 0 1-2.88.19 5.39 5.39 0 0 1-1.25-.71c-.6-.37-1.17-1.26-1.67-1.2a6.85 6.85 0 0 0-2.51 1.24 4.71 4.71 0 0 1 4.16 1.91c-1.25 1.48-2.39 1.36-6-.71l-2 1.58a5.76 5.76 0 0 1 4.32 1.57c-1.37 1.59-3.18 1.63-6.25.13l-2.09 2.39a4.49 4.49 0 0 1 4.9.43c-1 1.93-2.63 2.27-6 1.22l-1.79 2.93a4.46 4.46 0 0 1 5.16-.51 4.28 4.28 0 0 1-3.3 2.33 6.72 6.72 0 0 1-.86 0c-2.07 0-2.15.08-2.52 2.33 1.4-.82 2.78-1.38 4.49-.73a3.55 3.55 0 0 1-2.44 2.79 6.39 6.39 0 0 1-1.82.39 1.39 1.39 0 0 0-1.47 1.44c-.06.47-.16.94-.3 1.69a5.23 5.23 0 0 1 4.67-2.15 3.82 3.82 0 0 1-2 3.36 4.15 4.15 0 0 1-.91.43c-2.15.82-2.15.82-2 3.27a20.43 20.43 0 0 1 1.88-1.85 4 4 0 0 1 2.52-.8 4.24 4.24 0 0 1-1.35 3.55 9.93 9.93 0 0 1-1.68 1.1c-1.22.65-1.25.65-1 2 .07.33.15.65.22 1a14.66 14.66 0 0 1 1.52-2 16.79 16.79 0 0 1 2.24-1.6 3.68 3.68 0 0 1-.48 3.86 9 9 0 0 1-1.53 1.52c-1.07.91-1.09.9-.62 2.14.11.3.24.6.42 1.08a5.29 5.29 0 0 1 3.09-4.23c1.4 2.29.45 4-2 6.58L9.77 48a6.33 6.33 0 0 1 2.36-4.82 3.76 3.76 0 0 1 .87 3.76 6.45 6.45 0 0 1-.91 1.94c-.81 1.31-.82 1.42.26 2.57.13.13.28.25.59.52a5.35 5.35 0 0 1 1.63-5.2 4.84 4.84 0 0 1 1.31 3.92 11.83 11.83 0 0 1-.57 2.08c-.52 1.43-.5 1.5 1.09 2.29a5.59 5.59 0 0 1 .89-4.9 4.57 4.57 0 0 1 2 5.18c-.4 1.88-.4 1.88 1.67 3.1a5.25 5.25 0 0 1-.24-5.78 5.17 5.17 0 0 1 2.71 3.76 12 12 0 0 1 0 1.44c0 1.87 0 1.87 2.06 2.51-1.24-1.76-1.91-3.5-1.15-5.64a5 5 0 0 1 3.37 3 1.75 1.75 0 0 1 .2.69c-.06 2.13 1.19 2.86 3.09 3.33a21.66 21.66 0 0 1 7.52 3.52c.61.44 1.16 1 1.89 1.58l-1 1.15a22.66 22.66 0 0 0-12.09-5.85c-3 3.24-4.79 4-7.08 2.77A6.4 6.4 0 0 1 24 61.38c-1.44-1.11-1.56-1.09-3 0-1.63 1.18-3.35 1.91-5.38 1.07a7.31 7.31 0 0 1-.71-.4A6.36 6.36 0 0 1 19.07 59c-1.13-1.34-1.31-1.35-2.69-.62-2 1.09-4.07 1.34-6.06-.16.75-1.47 2.58-2.34 4.93-2.47a12.36 12.36 0 0 1-1.22-1 1.16 1.16 0 0 0-1.41-.27A10.31 10.31 0 0 1 10 55c-1.58.09-2.4-.33-3.75-1.71a5.7 5.7 0 0 1 4.83-1.25c-.5-1.58-.95-1.88-2.29-1.7a5.68 5.68 0 0 1-4.52-.95A14.29 14.29 0 0 1 3 48.18a4.79 4.79 0 0 1 5.34-.26c-.26-.59-.45-.94-.59-1.31A1.57 1.57 0 0 0 6 45.52a5 5 0 0 1-4.63-2.38 3.85 3.85 0 0 1-.28-.69c1.68-.84 3.22-.36 4.75.28-.06-1.87-.07-1.87-1.79-2.38-1.39-.41-2.78-.86-3.47-2.35-.2-.42-.33-.87-.54-1.45A5.06 5.06 0 0 1 4.9 38c-.12-.82-.22-1.47-.3-2.12s-.74-.81-1.26-1a4.71 4.71 0 0 1-3-2.84A8.21 8.21 0 0 1 0 30.73c1.67-.24 2.73.21 4.25 1.76.09-.41.14-.75.24-1.09a1.48 1.48 0 0 0-.92-2A4.62 4.62 0 0 1 1 26.31a10.08 10.08 0 0 1-.1-1.68c1.78.21 2.61.78 4 2.82A15.51 15.51 0 0 0 5.42 25c0-.33-.39-.72-.69-1a4.76 4.76 0 0 1-1.94-3.09 14.9 14.9 0 0 1 .12-2.11c2 .68 2.61 1.38 3.4 3.63a9.18 9.18 0 0 1 .49-1.11 2.25 2.25 0 0 0-.29-3 4.19 4.19 0 0 1-.47-5 5 5 0 0 1 2.5 4.2l1.36-2.03c.41-.62 0-1.11-.3-1.59a4.65 4.65 0 0 1-.25-4.29 3.85 3.85 0 0 1 .47-.67c1.31.9 1.69 1.66 1.92 4.15a24.4 24.4 0 0 0 1.74-1.79c.15-.19.07-.61 0-.92-.13-.71-.38-1.4-.46-2.1a3.33 3.33 0 0 1 1.51-3.2c1.14 1.24 1.31 2.67.79 4.58a25.78 25.78 0 0 0 2.09-1.6 1.5 1.5 0 0 0 .33-1c0-.57-.13-1.14-.13-1.72 0-1.6.43-2.29 2-3.27 1 1.34.76 2.77.19 4.44.62-.27 1-.49 1.46-.64a1.71 1.71 0 0 0 1.26-2A3.8 3.8 0 0 1 25 0c1 1.76.27 3.16-.72 4.51z"/><path class="cls-1" d="M36.58 24.92a1.5 1.5 0 0 0-.33-.23 5.92 5.92 0 0 0-.68-.35 6.58 6.58 0 0 0-.89-.33 3.54 3.54 0 0 0-1-.13q-1.31 0-1.31.89a.7.7 0 0 0 .14.45 1.26 1.26 0 0 0 .42.33 3.87 3.87 0 0 0 .68.26l1 .27a12.82 12.82 0 0 1 1.38.46 3.71 3.71 0 0 1 1 .62 2.5 2.5 0 0 1 .65.9 3.11 3.11 0 0 1 .36 1.26 3.16 3.16 0 0 1-.33 1.53 2.85 2.85 0 0 1-.9 1 3.78 3.78 0 0 1-1.28.56 6.37 6.37 0 0 1-1.49.17 8.3 8.3 0 0 1-1.2-.09 8.66 8.66 0 0 1-1.2-.26 9.55 9.55 0 0 1-1.13-.42 6.33 6.33 0 0 1-1-.55l1.08-2.15a2.1 2.1 0 0 0 .39.28 5.82 5.82 0 0 0 .81.42 8.31 8.31 0 0 0 1.09.38 4.58 4.58 0 0 0 1.22.17q1.31 0 1.31-.8a.67.67 0 0 0-.2-.5 1.85 1.85 0 0 0-.54-.35 5.88 5.88 0 0 0-.82-.29l-1-.3a8.9 8.9 0 0 1-1.28-.49 3.37 3.37 0 0 1-.9-.61 2.21 2.21 0 0 1-.53-.8 2.94 2.94 0 0 1-.16-1.06 3.35 3.35 0 0 1 .33-1.49 3.22 3.22 0 0 1 .85-1.08 3.73 3.73 0 0 1 1.26-.65 5 5 0 0 1 1.51-.23 5.75 5.75 0 0 1 1.1.1 8.32 8.32 0 0 1 1 .27 7.45 7.45 0 0 1 .93.38q.43.21.79.42zm2.84 7.54V21.79H44a3.13 3.13 0 0 1 1.41.33 3.6 3.6 0 0 1 1.1.83 4 4 0 0 1 .72 1.16 3.44 3.44 0 0 1 .26 1.31 3.75 3.75 0 0 1-.25 1.35 3.86 3.86 0 0 1-.69 1.16 3.27 3.27 0 0 1-1.09.8A3.21 3.21 0 0 1 44 29h-2.13v3.44zm2.46-5.59h2a1 1 0 0 0 .75-.38A1.66 1.66 0 0 0 45 25.4a1.92 1.92 0 0 0-.1-.65 1.34 1.34 0 0 0-.26-.45 1 1 0 0 0-.38-.26 1.15 1.15 0 0 0-.42-.08h-1.95zm6.9 5.59V21.79h2.46v10.67zm4.51 0V21.79h4.81a3.1 3.1 0 0 1 1.39.33 3.7 3.7 0 0 1 1.1.83 3.87 3.87 0 0 1 .73 1.16 3.44 3.44 0 0 1 .26 1.31 3.72 3.72 0 0 1-.47 1.81 3.27 3.27 0 0 1-1.28 1.28l2.35 4h-2.77l-2-3.44h-1.6v3.45zm2.46-5.59H58a.93.93 0 0 0 .76-.41 1.7 1.7 0 0 0 .33-1.06 1.49 1.49 0 0 0-.36-1.05A1.06 1.06 0 0 0 58 24h-2.24zm7.62 5.59V21.79h2.46v10.67zM76 24h-3.23v8.5H70.3V24H67v-2.21h9zM36 46.24a5.61 5.61 0 0 1-1.23.49 5.15 5.15 0 0 1-1.38.18 5 5 0 0 1-2.16-.46 5.23 5.23 0 0 1-1.67-1.22 5.58 5.58 0 0 1-1.08-1.74 5.47 5.47 0 0 1-.38-2 5.33 5.33 0 0 1 .4-2 5.5 5.5 0 0 1 1.11-1.73 5.37 5.37 0 0 1 1.69-1.2 5.11 5.11 0 0 1 2.13-.44 4.9 4.9 0 0 1 2.16.47 5.38 5.38 0 0 1 1.67 1.24 5.56 5.56 0 0 1 1.07 1.75 5.5 5.5 0 0 1 .38 2 5.41 5.41 0 0 1-1.38 3.62l1.53 1.68h-2.3zm-2.59-1.52a2.61 2.61 0 0 0 1.05-.2l-1.71-1.9h2.31l.65.74a3.55 3.55 0 0 0 .36-.9 4 4 0 0 0-.07-2.17 3 3 0 0 0-.54-1 2.78 2.78 0 0 0-.87-.71 2.81 2.81 0 0 0-2.42 0 2.7 2.7 0 0 0-.87.74 3.16 3.16 0 0 0-.53 1 4.1 4.1 0 0 0-.17 1.18 4 4 0 0 0 .18 1.2 3.1 3.1 0 0 0 .53 1 2.67 2.67 0 0 0 .88.71 2.6 2.6 0 0 0 1.23.31zm11.31.02a2 2 0 0 0 1.07-.26 2.1 2.1 0 0 0 .71-.7 3 3 0 0 0 .38-1 5.84 5.84 0 0 0 .12-1.15v-5.46h2.46v5.46a7.45 7.45 0 0 1-.28 2.08 4.79 4.79 0 0 1-.86 1.68 4 4 0 0 1-1.47 1.13 5 5 0 0 1-2.13.41 5 5 0 0 1-2.18-.43 4 4 0 0 1-1.47-1.16 4.8 4.8 0 0 1-.83-1.69 7.6 7.6 0 0 1-.26-2v-5.48h2.46v5.46a5.52 5.52 0 0 0 .12 1.17 3.11 3.11 0 0 0 .39 1 1.93 1.93 0 0 0 1.76.95zm14.15-.06v2.16h-7.51V36.17h7.37v2.16h-4.9v2.08H58v2h-4.16v2.27zm7.69-5.38a1.5 1.5 0 0 0-.33-.23 5.92 5.92 0 0 0-.68-.35 6.58 6.58 0 0 0-.89-.33 3.54 3.54 0 0 0-1-.13q-1.31 0-1.31.89a.7.7 0 0 0 .14.45 1.26 1.26 0 0 0 .42.33 3.87 3.87 0 0 0 .7.26l1 .27a12.82 12.82 0 0 1 1.38.46 3.71 3.71 0 0 1 1 .62 2.5 2.5 0 0 1 .65.9A3.11 3.11 0 0 1 68 43.7a3.16 3.16 0 0 1-.33 1.53 2.85 2.85 0 0 1-.9 1 3.78 3.78 0 0 1-1.28.56A6.37 6.37 0 0 1 64 47a8.3 8.3 0 0 1-1.2-.09 8.66 8.66 0 0 1-1.2-.26 9.55 9.55 0 0 1-1.13-.42 6.33 6.33 0 0 1-1-.56l1.08-2.15a2.1 2.1 0 0 0 .39.28 5.82 5.82 0 0 0 .82.42 8.31 8.31 0 0 0 1.09.38 4.58 4.58 0 0 0 1.22.17q1.31 0 1.31-.8a.67.67 0 0 0-.2-.5 1.85 1.85 0 0 0-.54-.35 5.88 5.88 0 0 0-.85-.28l-1-.3a8.9 8.9 0 0 1-1.36-.54 3.37 3.37 0 0 1-.9-.61 2.21 2.21 0 0 1-.53-.8 2.94 2.94 0 0 1-.17-1.05 3.35 3.35 0 0 1 .33-1.49A3.22 3.22 0 0 1 61 37a3.73 3.73 0 0 1 1.26-.65 5 5 0 0 1 1.51-.23 5.75 5.75 0 0 1 1.1.1 8.32 8.32 0 0 1 1 .27 7.45 7.45 0 0 1 .93.38q.43.21.79.42zm10.91-.97H74.2v8.5h-2.45v-8.5h-3.27v-2.16h9zM22.74 17.66a1.05 1.05 0 0 1-.44.89 1.51 1.51 0 0 1-.48.23 2.07 2.07 0 0 1-.58.08H19v-4.64h2.48a.92.92 0 0 1 .44.1 1.09 1.09 0 0 1 .33.27 1.25 1.25 0 0 1 .21.38 1.27 1.27 0 0 1-.09 1.03 1 1 0 0 1-.5.44 1.19 1.19 0 0 1 .63.42 1.22 1.22 0 0 1 .24.8zM19.9 15v1.17h1.2a.54.54 0 0 0 .39-.15.58.58 0 0 0 .16-.43.59.59 0 0 0-.15-.42.48.48 0 0 0-.36-.16zm1.93 2.5a.68.68 0 0 0 0-.24.65.65 0 0 0-.11-.2.54.54 0 0 0-.17-.13.48.48 0 0 0-.22 0H19.9v1.22h1.34a.59.59 0 0 0 .23 0 .56.56 0 0 0 .19-.13.62.62 0 0 0 .17-.43zm4.84.57v.79h-3.22v-4.64h3.16V15h-2.26v1.12h2v.73h-2v1.21zM30 15.43l-.17-.12a2 2 0 0 0-.29-.15 2.57 2.57 0 0 0-.34-.16 1.63 1.63 0 0 0-.41-.05.92.92 0 0 0-.56.14.45.45 0 0 0-.18.39.4.4 0 0 0 .07.24.59.59 0 0 0 .2.17 1.66 1.66 0 0 0 .33.13l.46.12.62.2a1.67 1.67 0 0 1 .47.26 1.08 1.08 0 0 1 .3.37 1.25 1.25 0 0 1 .1.54 1.35 1.35 0 0 1-.14.65 1.18 1.18 0 0 1-.39.42 1.65 1.65 0 0 1-.55.24 2.76 2.76 0 0 1-.65.08 3.49 3.49 0 0 1-1-.16 3.19 3.19 0 0 1-.9-.46l.4-.78a1.26 1.26 0 0 0 .21.15l.36.19a2.83 2.83 0 0 0 .46.16 2.1 2.1 0 0 0 .52.07q.75 0 .75-.48a.39.39 0 0 0-.08-.25.73.73 0 0 0-.24-.18 2.32 2.32 0 0 0-.38-.14l-.5-.13a4.25 4.25 0 0 1-.58-.2 1.52 1.52 0 0 1-.4-.25 1 1 0 0 1-.25-.33 1.18 1.18 0 0 1-.08-.47 1.44 1.44 0 0 1 .13-.63 1.27 1.27 0 0 1 .36-.46 1.63 1.63 0 0 1 .54-.28 2.23 2.23 0 0 1 .65-.09 2.56 2.56 0 0 1 .9.15 3.37 3.37 0 0 1 .72.36zm4.72-.43h-1.48v3.85h-.88V15h-1.5v-.79h3.86zm1.96 3.86v-4.64h1.69a2.52 2.52 0 0 1 1 .18 2 2 0 0 1 1.16 1.23 2.77 2.77 0 0 1 .14.9 2.72 2.72 0 0 1-.16 1 2 2 0 0 1-.46.73 2.08 2.08 0 0 1-.72.47 2.55 2.55 0 0 1-.94.17zm3.07-2.33a2 2 0 0 0-.09-.61 1.37 1.37 0 0 0-.27-.48 1.19 1.19 0 0 0-.43-.33 1.47 1.47 0 0 0-.59-.11h-.78v3.06h.78a1.42 1.42 0 0 0 .59-.12 1.21 1.21 0 0 0 .43-.33 1.44 1.44 0 0 0 .26-.49 2 2 0 0 0 .1-.59zm3.59 2.36a2.11 2.11 0 0 1-.93-.2 2.29 2.29 0 0 1-.71-.53 2.45 2.45 0 0 1-.62-1.63 2.33 2.33 0 0 1 .17-.89 2.45 2.45 0 0 1 .48-.75 2.29 2.29 0 0 1 .72-.52 2.14 2.14 0 0 1 .91-.19 2 2 0 0 1 .92.21 2.29 2.29 0 0 1 .71.54 2.49 2.49 0 0 1 .44.76 2.39 2.39 0 0 1 .16.86 2.35 2.35 0 0 1-.17.89 2.41 2.41 0 0 1-.47.75 2.27 2.27 0 0 1-.72.52 2.14 2.14 0 0 1-.89.18zM42 16.54a1.86 1.86 0 0 0 .09.58 1.55 1.55 0 0 0 .26.5 1.26 1.26 0 0 0 2 0 1.59 1.59 0 0 0 .26-.5 1.85 1.85 0 0 0 .09-.57 1.81 1.81 0 0 0-.09-.58 1.6 1.6 0 0 0-.27-.5 1.28 1.28 0 0 0-.42-.34 1.32 1.32 0 0 0-1.15 0 1.29 1.29 0 0 0-.42.35 1.58 1.58 0 0 0-.26.5 1.85 1.85 0 0 0-.09.56zm4-.03a2.4 2.4 0 0 1 .15-.84 2.25 2.25 0 0 1 1.17-1.27 2.22 2.22 0 0 1 1-.2 2.11 2.11 0 0 1 1.11.28 1.79 1.79 0 0 1 .7.73l-.71.47a1.18 1.18 0 0 0-.22-.33 1.12 1.12 0 0 0-.28-.21 1.26 1.26 0 0 0-.33-.11 1.49 1.49 0 0 0-.33 0 1.22 1.22 0 0 0-.59.14 1.31 1.31 0 0 0-.42.36A1.58 1.58 0 0 0 47 16a1.89 1.89 0 0 0-.08.55 1.8 1.8 0 0 0 .1.59 1.58 1.58 0 0 0 .28.5 1.39 1.39 0 0 0 .45.34 1.18 1.18 0 0 0 .55.13 1.45 1.45 0 0 0 .33 0 1.22 1.22 0 0 0 .61-.34 1 1 0 0 0 .21-.33l.74.42a1.4 1.4 0 0 1-.33.46 2 2 0 0 1-.46.33 2.37 2.37 0 0 1-.55.21 2.42 2.42 0 0 1-.58.07 2 2 0 0 1-.91-.21 2.36 2.36 0 0 1-.71-.55 2.53 2.53 0 0 1-.46-.76 2.39 2.39 0 0 1-.19-.9zm6.75 1.58a1 1 0 0 0 .53-.13 1.05 1.05 0 0 0 .35-.33 1.4 1.4 0 0 0 .19-.48 2.78 2.78 0 0 0 .06-.56v-2.37h.9v2.37a3.38 3.38 0 0 1-.11.9 2.06 2.06 0 0 1-.36.73 1.72 1.72 0 0 1-.63.5 2.13 2.13 0 0 1-.92.18 2.11 2.11 0 0 1-.94-.19 1.76 1.76 0 0 1-.63-.51 2 2 0 0 1-.35-.74 3.46 3.46 0 0 1-.11-.87v-2.37h.9v2.37a2.81 2.81 0 0 0 .06.57 1.4 1.4 0 0 0 .2.49 1 1 0 0 0 .88.46zm6.74.77v-3.07l-1.2 2.29h-.49l-1.2-2.29v3.07h-.9v-4.64h1l1.37 2.64 1.39-2.64h1v4.64zm5.08-.79v.79h-3.22v-4.64h3.16V15h-2.26v1.12h2v.73h-2v1.21zm1.61-2.18v3h-.9v-4.67H66l2.42 3v-3h.9v4.63h-.73zm7.56-.89h-1.5v3.85h-.9V15h-1.48v-.79h3.86zm1.44-.78H76l1.77 4.64h-.93l-.43-1.16h-1.66l-.42 1.16h-.93zm1 2.85l-.65-1.82-.65 1.82zm2.07 1.79v-4.64h2.05a1.31 1.31 0 0 1 .59.13 1.53 1.53 0 0 1 .47.35 1.67 1.67 0 0 1 .31.5 1.49 1.49 0 0 1 .11.56 1.54 1.54 0 0 1-.23.82 1.31 1.31 0 0 1-.61.53L82 18.85h-1l-1-1.54h-.89v1.56zm.9-2.35h1.13a.48.48 0 0 0 .23-.06.59.59 0 0 0 .19-.16.81.81 0 0 0 .12-.24.93.93 0 0 0 0-.29.84.84 0 0 0-.05-.3.78.78 0 0 0-.14-.24.63.63 0 0 0-.2-.16.53.53 0 0 0-.23-.06h-1.05zM83 14.22l1.14 2.24 1.16-2.24h1l-1.69 3v1.63h-.89v-1.61l-1.68-3zM29.67 54.81v-4.64h3.12V51h-2.22v1.2h1.84v.73h-1.84v1.92zm3.75 0v-4.64h.9v4.64zm1.88 0v-4.64h.9V54h2.37v.79zm7.6 0v-3.07L41.7 54h-.49L40 51.74v3.07h-.9v-4.64h1l1.37 2.64 1.39-2.64h.95v4.64zm3.44 0v-4.64h3.12V51h-2.22v1.2h1.84v.73h-1.84v1.92zm6.97-.81v.79h-3.22v-4.62h3.16V51H51v1.12h2v.73h-2V54zm3.37-2.61l-.17-.12a2 2 0 0 0-.29-.15 2.57 2.57 0 0 0-.38-.13 1.63 1.63 0 0 0-.41-.05.92.92 0 0 0-.56.14.45.45 0 0 0-.18.39.4.4 0 0 0 .07.24.59.59 0 0 0 .2.17 1.66 1.66 0 0 0 .33.13l.46.12.62.2a1.67 1.67 0 0 1 .47.26 1.08 1.08 0 0 1 .3.38 1.25 1.25 0 0 1 .1.54 1.35 1.35 0 0 1-.14.65 1.18 1.18 0 0 1-.38.43 1.65 1.65 0 0 1-.55.24 2.76 2.76 0 0 1-.65.08 3.49 3.49 0 0 1-1-.16 3.19 3.19 0 0 1-.92-.44l.4-.78a1.26 1.26 0 0 0 .21.15l.36.19A2.83 2.83 0 0 0 55 54a2.1 2.1 0 0 0 .52.07q.75 0 .75-.48a.39.39 0 0 0-.08-.25.73.73 0 0 0-.24-.18 2.32 2.32 0 0 0-.38-.14l-.5-.14a4.25 4.25 0 0 1-.58-.2 1.52 1.52 0 0 1-.41-.25 1 1 0 0 1-.25-.33 1.18 1.18 0 0 1-.08-.46 1.44 1.44 0 0 1 .13-.63 1.27 1.27 0 0 1 .36-.46 1.63 1.63 0 0 1 .54-.28 2.23 2.23 0 0 1 .65-.09 2.56 2.56 0 0 1 .9.15 3.37 3.37 0 0 1 .72.36zm4.68-.39h-1.48v3.85H59V51h-1.5v-.79h3.86zm.58 3.81v-4.64h.9v4.64zm2.35-4.64l1.26 3.51 1.24-3.51h.95l-1.81 4.64h-.76l-1.82-4.64zm4.86 0h.8l1.77 4.64h-.93l-.43-1.16h-1.64l-.42 1.16h-.93zm1 2.85l-.65-1.82-.62 1.8zm2.09 1.79v-4.64h.9V54h2.36v.79z"/></g></g></g></g></svg>