<svg xmlns="http://www.w3.org/2000/svg" viewBox="0 0 96.6 17.02"><title>TEDx-black</title><path d="M33 0l2.63 7h-1.57l-.53-1.57h-2.65L30.33 7h-1.55l2.66-7zm.09 4.31l-.9-2.58-.92 2.58zM39.86 7v-.68a1.57 1.57 0 0 1-.69.64 2 2 0 0 1-.87.2 2.45 2.45 0 0 1-.95-.16 1.33 1.33 0 0 1-.57-.42 1.64 1.64 0 0 1-.29-.66 4.1 4.1 0 0 1-.08-.86V1.94h1.4v2.88a1.79 1.79 0 0 0 .2.94.77.77 0 0 0 .7.31 1 1 0 0 0 .83-.34 1.89 1.89 0 0 0 .26-1.12V1.94h1.4V7zm3.86-1.23A.81.81 0 0 0 44 6a1 1 0 0 0 .34.15 1.6 1.6 0 0 0 .4 0 1.49 1.49 0 0 0 .31 0 1.05 1.05 0 0 0 .31-.1.67.67 0 0 0 .22-.2.51.51 0 0 0 .09-.31q0-.31-.42-.47A8.39 8.39 0 0 0 44 4.8l-.6-.16a2 2 0 0 1-.51-.26 1.2 1.2 0 0 1-.32-.38 1.09 1.09 0 0 1-.14-.57 1.54 1.54 0 0 1 .19-.81 1.42 1.42 0 0 1 .51-.5 2.22 2.22 0 0 1 .71-.26 4.37 4.37 0 0 1 .79-.08 4 4 0 0 1 .8.08 2.13 2.13 0 0 1 .69.26 1.6 1.6 0 0 1 .51.5 1.67 1.67 0 0 1 .24.78h-1.31a.61.61 0 0 0-.3-.55 1.4 1.4 0 0 0-.65-.14h-.26a.86.86 0 0 0-.26.06.51.51 0 0 0-.19.14.38.38 0 0 0-.08.26.38.38 0 0 0 .14.3 1.06 1.06 0 0 0 .36.19 4.51 4.51 0 0 0 .51.13l.58.13a5.94 5.94 0 0 1 .6.17 2 2 0 0 1 .51.26 1.26 1.26 0 0 1 .36.4 1.19 1.19 0 0 1 .14.6 1.54 1.54 0 0 1-.73 1.39 2.16 2.16 0 0 1-.74.29 4.35 4.35 0 0 1-.85.08 4.22 4.22 0 0 1-.87-.09 2.29 2.29 0 0 1-.75-.29 1.69 1.69 0 0 1-.54-.55 1.71 1.71 0 0 1-.23-.85h1.33a.77.77 0 0 0 .08.44zm7.21-3.83v.94h-1V5.4a.68.68 0 0 0 .12.47.68.68 0 0 0 .45.13h.44v1h-.81a4.07 4.07 0 0 1-.61 0 1.45 1.45 0 0 1-.52-.13.91.91 0 0 1-.35-.36 1.3 1.3 0 0 1-.13-.62v-3h-.85v-.95h.85V.4h1.4v1.54zm1.01-.79V0h1.4v1.15zm1.4.79V7h-1.4V1.94zm2.72 0v.71a1.61 1.61 0 0 1 .72-.65 2 2 0 0 1 .87-.21 2.38 2.38 0 0 1 .92.15 1.37 1.37 0 0 1 .57.42 1.64 1.64 0 0 1 .29.66 4.11 4.11 0 0 1 .08.86V7h-1.4V4.16a1.79 1.79 0 0 0-.2-.94.77.77 0 0 0-.7-.31 1 1 0 0 0-.83.34 1.89 1.89 0 0 0-.26 1.12V7h-1.4V1.94zM66.18 7L65 2.25 63.79 7h-1.57l-1.85-7h1.53L63 4.79 64.27 0h1.45l1.2 4.85L68.09 0h1.52l-1.9 7zm3.75-3.61A2.33 2.33 0 0 1 71.29 2a2.91 2.91 0 0 1 1.08-.2 3 3 0 0 1 1.09.2 2.32 2.32 0 0 1 1.36 1.39A3.13 3.13 0 0 1 75 4.48a3.09 3.09 0 0 1-.19 1.1 2.39 2.39 0 0 1-.53.84 2.3 2.3 0 0 1-.83.54 3 3 0 0 1-1.09.19A3 3 0 0 1 71.29 7a2.33 2.33 0 0 1-.83-.54 2.39 2.39 0 0 1-.53-.84 3.09 3.09 0 0 1-.19-1.1 3.13 3.13 0 0 1 .19-1.13zm1.28 1.71a1.58 1.58 0 0 0 .2.51 1.07 1.07 0 0 0 .39.39 1.16 1.16 0 0 0 .59.14A1.19 1.19 0 0 0 73 6a1.06 1.06 0 0 0 .38-.37 1.59 1.59 0 0 0 .2-.51 3 3 0 0 0 .06-.6 3.07 3.07 0 0 0-.06-.6 1.54 1.54 0 0 0-.2-.51A1.12 1.12 0 0 0 73 3a1.15 1.15 0 0 0-.6-.14 1.08 1.08 0 0 0-1 .51 1.54 1.54 0 0 0-.2.51 3.07 3.07 0 0 0-.06.6 3 3 0 0 0 0 .59zm6.37-3.16v.69a2 2 0 0 1 .67-.63 1.79 1.79 0 0 1 .9-.23A2 2 0 0 1 80 2a1.24 1.24 0 0 1 .61.66 2.17 2.17 0 0 1 .65-.66 1.64 1.64 0 0 1 .92-.26 2.72 2.72 0 0 1 .75.1 1.51 1.51 0 0 1 .59.31 1.45 1.45 0 0 1 .38.57 2.3 2.3 0 0 1 .14.84V7h-1.4V3.67a1 1 0 0 0-.11-.39.66.66 0 0 0-.27-.28.94.94 0 0 0-.47-.1.9.9 0 0 0-.48.11.82.82 0 0 0-.29.29 1.19 1.19 0 0 0-.14.41 3.17 3.17 0 0 0 0 .47V7h-1.4V3.73a1.26 1.26 0 0 0-.08-.41.63.63 0 0 0-.26-.3.93.93 0 0 0-.51-.11 1 1 0 0 0-.26 0 .87.87 0 0 0-.31.17 1 1 0 0 0-.26.36 1.44 1.44 0 0 0-.11.61V7h-1.4V1.94zm9.36 3.87a1.43 1.43 0 0 0 1.64.09.88.88 0 0 0 .37-.45h1.23a2.34 2.34 0 0 1-.91 1.31 2.67 2.67 0 0 1-1.48.4A2.91 2.91 0 0 1 86.71 7a2.25 2.25 0 0 1-.82-.55 2.46 2.46 0 0 1-.51-.85 3.1 3.1 0 0 1-.18-1.1 3 3 0 0 1 .19-1.07A2.46 2.46 0 0 1 86.74 2a2.64 2.64 0 0 1 1.05-.22 2.42 2.42 0 0 1 1.14.22 2.26 2.26 0 0 1 .79.68 2.77 2.77 0 0 1 .45 1 3.58 3.58 0 0 1 .1 1.13h-3.68a1.41 1.41 0 0 0 .35 1zm1.58-2.68a1 1 0 0 0-.77-.28 1.22 1.22 0 0 0-.56.11 1.06 1.06 0 0 0-.35.28 1 1 0 0 0-.19.36 1.59 1.59 0 0 0-.06.34h2.28a1.62 1.62 0 0 0-.35-.81zm4.2-1.19v.71a1.6 1.6 0 0 1 .72-.65 2 2 0 0 1 .87-.21 2.38 2.38 0 0 1 .92.15 1.37 1.37 0 0 1 .57.42 1.64 1.64 0 0 1 .29.66 4.11 4.11 0 0 1 .08.86V7h-1.4V4.16a1.79 1.79 0 0 0-.2-.94.77.77 0 0 0-.7-.31 1 1 0 0 0-.83.34 1.89 1.89 0 0 0-.26 1.12V7h-1.4V1.94zM28.93 13.4h.94c.86 0 1.13.39 1.13.89a.84.84 0 0 1-.7.84.84.84 0 0 1 .83.86c0 .72-.55 1-1.28 1h-.94zm.28.26V15h.7a.73.73 0 0 0 .81-.7c0-.45-.27-.68-.86-.68h-.65zm0 1.61v1.43h.67c.61 0 1-.26 1-.77s-.35-.69-1-.69zM33 17v-3.61h.86c1 0 1.25.49 1.25 1a1 1 0 0 1-.83 1L35.57 17h-.35L34 15.47h-.7V17zm.28-3.33v1.54h.62a.86.86 0 0 0 .92-.79c0-.44-.26-.77-1-.77zm4.95-.31h.23L40 17h-.3l-.51-1.22h-1.7L37 17h-.29zm-.64 2.13h1.49l-.74-1.74zM42.51 17h-.2l-1.54-3.62h.3l1.35 3.19 1.31-3.19H44zm3.07-3.61h2v.26h-1.7V15h1.52v.26h-1.54v1.42h1.77v.26h-2zm8 .85c0-.51.38-.9 1-.9a1.32 1.32 0 0 1 1 .36l-.15.21a1.08 1.08 0 0 0-.8-.31c-.47 0-.77.26-.77.63 0 1 1.85.59 1.85 1.84a1 1 0 0 1-1.14.94 1.33 1.33 0 0 1-1.1-.51l.17-.19a1.21 1.21 0 0 0 .93.45c.44 0 .85-.23.85-.67.02-1.02-1.84-.65-1.84-1.85zm3.42-.85h2.93v.26h-1.31V17h-.28v-3.35H57zm5.22-.03h.23L64 17h-.3l-.51-1.22h-1.71L61 17h-.29zm-.64 2.13h1.49l-.74-1.74zM65.64 17v-3.61h.86c1 0 1.25.49 1.25 1a1 1 0 0 1-.85 1L68.16 17h-.35l-1.19-1.51h-.7V17zm.28-3.33v1.54h.62a.86.86 0 0 0 .92-.79c0-.44-.26-.77-1-.77zm3.15-.28H72v.26h-1.33V17h-.28v-3.35h-1.33zm4.3.85c0-.51.38-.9 1-.9a1.32 1.32 0 0 1 1 .36l-.15.21a1.08 1.08 0 0 0-.8-.31c-.47 0-.77.26-.77.63 0 1 1.85.59 1.85 1.84a1 1 0 0 1-1.14.94 1.33 1.33 0 0 1-1.1-.51l.17-.19a1.21 1.21 0 0 0 .93.45c.44 0 .85-.23.85-.67.01-1.02-1.84-.65-1.84-1.85zm10.76 1.04h-2.24V17h-.28v-3.61h.28V15h2.24v-1.61h.28V17h-.28zm2.37-1.89h2v.26h-1.7V15h1.54v.26h-1.56v1.42h1.75v.26h-2zM90.39 17v-3.61h.86c1 0 1.25.49 1.25 1a1 1 0 0 1-.85 1L92.91 17h-.35l-1.19-1.51h-.7V17zm.28-3.33v1.54h.62a.86.86 0 0 0 .92-.79c0-.44-.26-.77-1-.77zm3.9-.28h2v.26h-1.7V15h1.54v.26h-1.56v1.42h1.75v.26h-2zM14.52 7.15V0h4c2 0 3.22.86 3.62 2.59A4.15 4.15 0 0 1 22 5.05a3.14 3.14 0 0 1-2.59 2 8.18 8.18 0 0 1-1.35.12h-3.25zM17 5.32h1.19a1.42 1.42 0 0 0 1.44-1.1 3.16 3.16 0 0 0 0-1.2 1.34 1.34 0 0 0-1-1A4.92 4.92 0 0 0 17 1.86zM7.6 0H14v1.85h-4v.88h4v1.7h-4v.9h4v1.81H7.6zM0 0h6.91v1.86H4.68v5.28H2.22V1.87H0zm22.49 0h1.71a.33.33 0 0 1 .22.12c.2.29.39.59.61.92.21-.3.42-.6.6-.89A.31.31 0 0 1 26 0h1.66l-.72.92c-.28.35-.56.71-.85 1.05a.22.22 0 0 0 0 .31c.51.62 1 1.24 1.49 1.87l.15.21H25.9c-.06 0-.13-.07-.17-.13l-.69-1c-.23.34-.45.66-.67 1a.34.34 0 0 1-.22.14h-1.73l.14-.19c.49-.64 1-1.26 1.51-1.89a.22.22 0 0 0 0-.31c-.51-.59-1-1.2-1.45-1.79zM3.15 9.71v-.34h1.61v.34zm0 .68v-.34h1.61v.34zM6 8.78v-.37h.45v.37zm.44.22v1.65H6V9zm.79 0v.23a.51.51 0 0 1 .22-.21.65.65 0 0 1 .28-.02A.77.77 0 0 1 8 9a.44.44 0 0 1 .18.14.53.53 0 0 1 .09.21 1.33 1.33 0 0 1 0 .28v1h-.38v-.87a.58.58 0 0 0-.06-.3.26.26 0 0 0-.23-.1.31.31 0 0 0-.26.11.61.61 0 0 0-.08.36v.87H6.8V9zm2.63 1.48a.47.47 0 0 1-.21.19.69.69 0 0 1-.29.06.71.71 0 0 1-.36-.07.66.66 0 0 1-.23-.19.88.88 0 0 1-.14-.28 1.18 1.18 0 0 1 0-.33 1.11 1.11 0 0 1 0-.32.83.83 0 0 1 .14-.27.69.69 0 0 1 .23-.21.68.68 0 0 1 .35-.06.65.65 0 0 1 .28.06.49.49 0 0 1 .21.18v-.83h.45v2.28h-.42v-.21zm0-.81a.48.48 0 0 0-.07-.17.37.37 0 0 0-.12-.12.35.35 0 0 0-.18 0 .37.37 0 0 0-.19 0 .35.35 0 0 0-.12.12.51.51 0 0 0-.07.17.91.91 0 0 0 0 .2.84.84 0 0 0 0 .19.51.51 0 0 0 .07.17.39.39 0 0 0 .13.12.34.34 0 0 0 .18 0 .36.36 0 0 0 .19 0 .34.34 0 0 0 .12-.12.54.54 0 0 0 .06-.17 1 1 0 0 0 0-.2 1 1 0 0 0-.02-.2zm1.27.62a.46.46 0 0 0 .53 0 .28.28 0 0 0 .12-.15h.4a.77.77 0 0 1-.29.43.87.87 0 0 1-.48.13.94.94 0 0 1-.35-.06.73.73 0 0 1-.26-.18.8.8 0 0 1-.17-.27 1 1 0 0 1-.06-.35 1 1 0 0 1 .06-.35.8.8 0 0 1 .44-.46.86.86 0 0 1 .34-.03.78.78 0 0 1 .37.08.73.73 0 0 1 .26.22.9.9 0 0 1 .15.31 1.17 1.17 0 0 1 0 .38H11a.46.46 0 0 0 .13.3zm.51-.87a.32.32 0 0 0-.26-.09.39.39 0 0 0-.18 0 .34.34 0 0 0-.12.09.33.33 0 0 0-.06.12.51.51 0 0 0 0 .11h.74a.52.52 0 0 0-.12-.22zM12.9 9v.21a.51.51 0 0 1 .21-.19.65.65 0 0 1 .28-.02.71.71 0 0 1 .34.07.69.69 0 0 1 .23.19.82.82 0 0 1 .14.28 1.26 1.26 0 0 1 0 .34 1.13 1.13 0 0 1 0 .32.81.81 0 0 1-.14.27.67.67 0 0 1-.23.19.69.69 0 0 1-.32.07.64.64 0 0 1-.28-.06.54.54 0 0 1-.21-.18v.78h-.45V9zm.59 1.31a.37.37 0 0 0 .12-.12.48.48 0 0 0 .07-.17 1 1 0 0 0 0-.19.91.91 0 0 0 0-.19.51.51 0 0 0-.07-.17.39.39 0 0 0-.12-.12.34.34 0 0 0-.18 0 .35.35 0 0 0-.19 0 .37.37 0 0 0-.12.15.5.5 0 0 0-.07.17 1 1 0 0 0 0 .2.91.91 0 0 0 0 .19.51.51 0 0 0 .07.17.39.39 0 0 0 .49.12zm1.42-.02a.46.46 0 0 0 .53 0 .28.28 0 0 0 .12-.15H16a.77.77 0 0 1-.29.43.87.87 0 0 1-.48.13.94.94 0 0 1-.35-.06.73.73 0 0 1-.26-.18.8.8 0 0 1-.17-.27 1 1 0 0 1-.07-.35 1 1 0 0 1 .06-.35.8.8 0 0 1 .45-.46.86.86 0 0 1 .3-.03.78.78 0 0 1 .37.08.73.73 0 0 1 .26.22.9.9 0 0 1 .15.31A1.17 1.17 0 0 1 16 10h-1.21a.46.46 0 0 0 .12.29zm.51-.87a.32.32 0 0 0-.26-.09.39.39 0 0 0-.18 0 .34.34 0 0 0-.12.09.33.33 0 0 0-.06.12.51.51 0 0 0 0 .11h.74a.52.52 0 0 0-.12-.22zM16.68 9v.23a.51.51 0 0 1 .22-.21.65.65 0 0 1 .29-.02.77.77 0 0 1 .3 0 .44.44 0 0 1 .18.14.53.53 0 0 1 .09.21 1.33 1.33 0 0 1 0 .28v1h-.45v-.87a.58.58 0 0 0-.06-.3.26.26 0 0 0-.23-.1.31.31 0 0 0-.26.11.61.61 0 0 0-.08.36v.87h-.47V9zm2.64 1.48a.47.47 0 0 1-.21.19.69.69 0 0 1-.29.06.71.71 0 0 1-.33-.07.66.66 0 0 1-.23-.19.88.88 0 0 1-.14-.28 1.18 1.18 0 0 1 0-.33 1.11 1.11 0 0 1 0-.32.83.83 0 0 1 .14-.27.69.69 0 0 1 .23-.19.68.68 0 0 1 .32-.08.65.65 0 0 1 .28.06.49.49 0 0 1 .21.18v-.83h.45v2.28h-.43v-.21zm0-.81a.48.48 0 0 0-.07-.17.37.37 0 0 0-.12-.12.35.35 0 0 0-.18 0 .37.37 0 0 0-.19 0 .35.35 0 0 0-.12.12.51.51 0 0 0-.07.17.91.91 0 0 0 0 .2.84.84 0 0 0 0 .19.51.51 0 0 0 .07.17.39.39 0 0 0 .13.12.34.34 0 0 0 .18 0 .36.36 0 0 0 .19 0 .34.34 0 0 0 .12-.12.54.54 0 0 0 .06-.17 1 1 0 0 0 0-.2 1 1 0 0 0-.02-.2zm1.26.62a.46.46 0 0 0 .53 0 .28.28 0 0 0 .12-.15h.4a.77.77 0 0 1-.29.43.87.87 0 0 1-.48.13.94.94 0 0 1-.35-.06.73.73 0 0 1-.26-.18.8.8 0 0 1-.17-.27 1 1 0 0 1-.08-.32 1 1 0 0 1 .06-.35.8.8 0 0 1 .44-.46.86.86 0 0 1 .37-.06.78.78 0 0 1 .37.08.73.73 0 0 1 .26.22.9.9 0 0 1 .15.31 1.17 1.17 0 0 1 0 .38h-1.18a.46.46 0 0 0 .11.3zm.51-.87a.32.32 0 0 0-.26-.09.39.39 0 0 0-.18 0 .34.34 0 0 0-.12.09.33.33 0 0 0-.06.12.51.51 0 0 0 0 .11h.74a.52.52 0 0 0-.12-.22zM22.36 9v.23a.51.51 0 0 1 .22-.21.65.65 0 0 1 .28-.02.77.77 0 0 1 .3 0 .44.44 0 0 1 .18.14.53.53 0 0 1 .09.21 1.33 1.33 0 0 1 0 .28v1H23v-.87a.58.58 0 0 0-.06-.3.26.26 0 0 0-.23-.1.31.31 0 0 0-.26.11.61.61 0 0 0-.08.36v.87h-.47V9zm2.37 0v.3h-.33v.82a.15.15 0 0 0 .1.19h.23v.35h-.47a.48.48 0 0 1-.17-.06.3.3 0 0 1-.11-.12.42.42 0 0 1 0-.2v-1h-.27V9h.27v-.46h.45V9zm.68-.59v2.28H25V8.41zm.96 2.77a.66.66 0 0 1-.36.09h-.29v-.39H26a.18.18 0 0 0 .13-.07.23.23 0 0 0 0-.13.27.27 0 0 0 0-.1L25.56 9H26l.37 1.13.41-1.13h.47l-.69 1.85a.56.56 0 0 1-.19.33zm1.95-1.67a.75.75 0 0 1 .44-.45.94.94 0 0 1 .35-.06 1 1 0 0 1 .35.06.75.75 0 0 1 .44.45 1 1 0 0 1 .06.36 1 1 0 0 1-.06.36.77.77 0 0 1-.17.27.75.75 0 0 1-.27.17 1 1 0 0 1-.35.06 1 1 0 0 1-.35-.06.77.77 0 0 1-.43-.45 1 1 0 0 1-.06-.36 1 1 0 0 1 .05-.35zm.41.55a.51.51 0 0 0 .07.17.35.35 0 0 0 .12.12.38.38 0 0 0 .19 0 .38.38 0 0 0 .19 0 .35.35 0 0 0 .13-.12.51.51 0 0 0 .07-.17 1 1 0 0 0 0-.19 1 1 0 0 0 0-.19.5.5 0 0 0-.07-.17.37.37 0 0 0-.13-.12.37.37 0 0 0-.19 0 .35.35 0 0 0-.31.17.49.49 0 0 0-.07.17 1 1 0 0 0 0 .19 1 1 0 0 0 0 .19zM30.69 9v.31a.55.55 0 0 1 .09-.14.56.56 0 0 1 .13-.11l.14-.06h.27v.42h-.16a.48.48 0 0 0-.21 0 .37.37 0 0 0-.14.11.46.46 0 0 0-.08.14.91.91 0 0 0 0 .21v.74h-.45V9zM33 10.81a.56.56 0 0 1-.12.24.7.7 0 0 1-.26.19 1.12 1.12 0 0 1-.45.08 1.07 1.07 0 0 1-.26 0 .79.79 0 0 1-.23-.09.57.57 0 0 1-.16-.18.48.48 0 0 1-.08-.24h.45a.26.26 0 0 0 .13.18.45.45 0 0 0 .22 0 .33.33 0 0 0 .28-.12.45.45 0 0 0 .08-.29v-.22a.45.45 0 0 1-.21.19.68.68 0 0 1-.29.06.72.72 0 0 1-.32-.05.61.61 0 0 1-.22-.18.74.74 0 0 1-.13-.26 1.25 1.25 0 0 1 0-.32 1 1 0 0 1 0-.31.81.81 0 0 1 .14-.26.66.66 0 0 1 .22-.18.67.67 0 0 1 .3-.07.64.64 0 0 1 .29.06.49.49 0 0 1 .2.2V9H33v1.54a1.11 1.11 0 0 1 0 .27zm-.62-.55a.35.35 0 0 0 .12-.1.45.45 0 0 0 .07-.15.6.6 0 0 0 0-.17.93.93 0 0 0 0-.19.48.48 0 0 0-.06-.16.33.33 0 0 0-.12-.11.37.37 0 0 0-.18 0 .33.33 0 0 0-.16 0 .35.35 0 0 0-.12.1.44.44 0 0 0-.07.15.74.74 0 0 0 0 .18.9.9 0 0 0 0 .18.48.48 0 0 0 .06.16.36.36 0 0 0 .11.12.32.32 0 0 0 .18 0 .36.36 0 0 0 .17 0zm.96-.71a.53.53 0 0 1 .08-.26.54.54 0 0 1 .18-.17.77.77 0 0 1 .26-.12h.53a.77.77 0 0 1 .23.07.46.46 0 0 1 .17.14.4.4 0 0 1 .07.24v.86a1.73 1.73 0 0 0 0 .21.38.38 0 0 0 0 .15h-.46a.66.66 0 0 1 0-.16.59.59 0 0 1-.26.16 1 1 0 0 1-.3 0 .82.82 0 0 1-.22 0 .51.51 0 0 1-.18-.09.42.42 0 0 1-.12-.15.51.51 0 0 1 0-.22.48.48 0 0 1 0-.23.41.41 0 0 1 .13-.15.57.57 0 0 1 .18-.08h.58a.31.31 0 0 0 .12-.06.12.12 0 0 0 0-.11.24.24 0 0 0 0-.12.17.17 0 0 0-.06-.07h-.2a.34.34 0 0 0-.21.06.26.26 0 0 0-.09.19zm1 .34h-.26L34 10h-.19a.2.2 0 0 0-.06.07.22.22 0 0 0 0 .1.22.22 0 0 0 0 .1.17.17 0 0 0 .06.06H34a.4.4 0 0 0 .21 0 .3.3 0 0 0 .11-.11.34.34 0 0 0 0-.13.88.88 0 0 0 0-.1zM35.62 9v.23a.51.51 0 0 1 .22-.21.65.65 0 0 1 .29-.02.77.77 0 0 1 .3 0 .44.44 0 0 1 .18.14.53.53 0 0 1 .09.21 1.33 1.33 0 0 1 0 .28v1h-.45v-.87a.58.58 0 0 0-.06-.3.26.26 0 0 0-.23-.1.31.31 0 0 0-.26.11.61.61 0 0 0-.08.36v.87h-.42V9zm1.48-.22v-.37h.45v.37zm.45.26v1.65h-.45V9zm1.11.34h-.79V9h1.39v.34l-.85 1h.92v.34h-1.52v-.34zm1.34.91a.46.46 0 0 0 .53 0 .28.28 0 0 0 .12-.15h.4a.77.77 0 0 1-.29.43.87.87 0 0 1-.48.13.94.94 0 0 1-.35-.06.73.73 0 0 1-.26-.18.8.8 0 0 1-.17-.27 1 1 0 0 1-.06-.35 1 1 0 0 1 .06-.35.8.8 0 0 1 .5-.43.86.86 0 0 1 .34-.06.78.78 0 0 1 .37.08.73.73 0 0 1 .26.22.9.9 0 0 1 .15.31 1.17 1.17 0 0 1 0 .37h-1.18a.46.46 0 0 0 .06.31zm.51-.87a.32.32 0 0 0-.26-.09.39.39 0 0 0-.18 0 .34.34 0 0 0-.12.09.33.33 0 0 0-.06.12.51.51 0 0 0 0 .11h.74a.52.52 0 0 0-.07-.22zm2.06 1.06a.47.47 0 0 1-.21.19.69.69 0 0 1-.29.06.71.71 0 0 1-.33-.07.66.66 0 0 1-.23-.19.88.88 0 0 1-.14-.28 1.18 1.18 0 0 1 0-.33 1.11 1.11 0 0 1 0-.32.83.83 0 0 1 .14-.27.69.69 0 0 1 .23-.19.68.68 0 0 1 .32-.08.65.65 0 0 1 .28.06.49.49 0 0 1 .21.18v-.83H43v2.28h-.43v-.21zm0-.81a.48.48 0 0 0-.07-.17.37.37 0 0 0-.12-.12.35.35 0 0 0-.18 0 .37.37 0 0 0-.19 0 .35.35 0 0 0-.12.12.51.51 0 0 0-.07.17.91.91 0 0 0 0 .2.84.84 0 0 0 0 .19.51.51 0 0 0 .07.17.39.39 0 0 0 .13.12.34.34 0 0 0 .18 0 .36.36 0 0 0 .19 0 .34.34 0 0 0 .12-.12.54.54 0 0 0 .06-.17 1 1 0 0 0 0-.2 1 1 0 0 0 0-.19zm1.53-.84v-.42H46v.42h-.68v1.86h-.51V8.83zm3.84-.42v.42h-1.2v.49h1.1v.39h-1.1v.56H48v.42h-1.77V8.41zm1.34 0a1.18 1.18 0 0 1 .41.07.89.89 0 0 1 .33.21 1 1 0 0 1 .22.35 1.42 1.42 0 0 1 .08.49 1.58 1.58 0 0 1-.06.46 1 1 0 0 1-.19.36.91.91 0 0 1-.32.24 1.09 1.09 0 0 1-.46.09h-1V8.41zm0 1.86a.65.65 0 0 0 .21 0 .47.47 0 0 0 .18-.12.59.59 0 0 0 .13-.21.93.93 0 0 0 0-.32 1.33 1.33 0 0 0 0-.31.62.62 0 0 0-.13-.31.49.49 0 0 0-.2-.15.81.81 0 0 0-.31-.05h-.36v1.44zm2.72.02a.46.46 0 0 0 .53 0 .28.28 0 0 0 .12-.15H53a.77.77 0 0 1-.28.43.87.87 0 0 1-.48.13.94.94 0 0 1-.35-.06.73.73 0 0 1-.26-.18.8.8 0 0 1-.17-.27 1 1 0 0 1-.06-.35 1 1 0 0 1 .06-.35.8.8 0 0 1 .44-.46.86.86 0 0 1 .38-.03.78.78 0 0 1 .37.08.73.73 0 0 1 .26.22.9.9 0 0 1 .15.31 1.17 1.17 0 0 1 0 .37h-1.2a.46.46 0 0 0 .14.31zm.51-.87a.32.32 0 0 0-.26-.09.39.39 0 0 0-.18 0 .34.34 0 0 0-.12.09.33.33 0 0 0-.06.12.51.51 0 0 0 0 .11h.74a.52.52 0 0 0-.14-.22zm1.24 1.27L53.18 9h.48l.34 1.17.35-1.17h.44l-.56 1.65zm1.73-.4a.46.46 0 0 0 .53 0 .28.28 0 0 0 .12-.15h.4a.77.77 0 0 1-.29.43.87.87 0 0 1-.48.13.94.94 0 0 1-.35-.06.73.73 0 0 1-.26-.18.8.8 0 0 1-.17-.27 1 1 0 0 1-.06-.35 1 1 0 0 1 .08-.32.8.8 0 0 1 .44-.46.86.86 0 0 1 .33-.06.78.78 0 0 1 .37.08.73.73 0 0 1 .26.22.9.9 0 0 1 .15.31 1.17 1.17 0 0 1 0 .37h-1.17a.46.46 0 0 0 .1.31zm.52-.86a.32.32 0 0 0-.26-.09.39.39 0 0 0-.18 0 .34.34 0 0 0-.12.09.33.33 0 0 0-.06.12.51.51 0 0 0 0 .11h.74a.52.52 0 0 0-.12-.23zM57.26 9v.23a.51.51 0 0 1 .22-.21.65.65 0 0 1 .28-.02.77.77 0 0 1 .3 0 .44.44 0 0 1 .18.14.53.53 0 0 1 .09.21 1.33 1.33 0 0 1 0 .28v1h-.45v-.87a.58.58 0 0 0-.06-.3.26.26 0 0 0-.23-.1.31.31 0 0 0-.26.11.61.61 0 0 0-.08.36v.87h-.45V9zm2.37 0v.3h-.33v.82a.15.15 0 0 0 .1.19h.23v.35h-.47a.48.48 0 0 1-.17-.06.3.3 0 0 1-.11-.12.42.42 0 0 1 0-.2v-1h-.27V9h.27v-.46h.45V9zM.24 9h.55a.1.1 0 0 1 .07 0l.2.35.19-.34a.1.1 0 0 1 .1-.01h.54l-.24.35-.27.4a.09.09 0 0 0 0 .13l.48.7v.08h-.58l-.22-.37c-.07.13-.14.26-.22.36a.11.11 0 0 1-.07.05H.21v-.07l.53-.73a.09.09 0 0 0 0-.13L.27 9.1z" data-name="Layer 1-2"/></svg>