<svg xmlns="http://www.w3.org/2000/svg" viewBox="0 0 96.68 54.97"><title>TsC-black</title><g data-name="Layer 2"><g data-name="Layer 1"><g data-name="Layer 2"><path d="M73.83.35h3.57a.52.52 0 0 1 .6.44q1.2 4.45 2.42 8.91a2.31 2.31 0 0 0 .21.67 1.29 1.29 0 0 1-.19 1.63c-.38.49-.68 1-1.07 1.52a5.7 5.7 0 0 0-1 4.13 8.71 8.71 0 0 1-.49 3.82c-.74 2-1.24 4-1.83 6.07a1 1 0 0 0-.08.44c.11.51.26 1 .4 1.5a4.57 4.57 0 0 0 1.24-.48 3.28 3.28 0 0 0 .83-1.15c.43-.88.79-1.8 1.17-2.7a3.12 3.12 0 0 0 .15-.66c.08-.44 0-1 .24-1.31a22.08 22.08 0 0 1 1.88-2.32.64.64 0 0 1 .6 0c.56.31 1.09.68 1.63 1 .23.15.47.28.79.46.07-.82.1-1.57.19-2.29a1.55 1.55 0 0 1 1-1.48c.35-.11.58-.05.63.36q.64 4.47 1.31 8.94c.16 1.13.34 2.26.52 3.4h.31a7.6 7.6 0 0 0 .64-1.53c.27-1.53.45-3.09.68-4.63.18-1.16.35-2.32.6-3.47a5.71 5.71 0 0 0-.19-3c-.79-2.55-1.63-5.09-2.37-7.65A13.82 13.82 0 0 1 88 8.64c-.26-2.57-.55-5.15-.79-7.72C87.07.06 87.12 0 88 0c2.5 0 5 .09 7.5.13.52 0 .75.19.72.79-.18 2.88-.36 5.76-.46 8.64-.14 3.76-.16 7.53-.32 11.29a81.06 81.06 0 0 0 .77 13.49c.18 1.46.3 2.94.47 4.4.05.48-.17.64-.54.48a4.07 4.07 0 0 1-1.34-.82c-2-2-3.84-4.13-5.8-6.17-1.07-1.11-1-2.52-1.23-3.88-.42-3-.86-6-1.31-9.07 0-.13-.12-.32-.21-.34a.49.49 0 0 0-.37.18 1.86 1.86 0 0 0-.54 1.38v2.42a7.69 7.69 0 0 1-.75-.34c-.58-.36-1.16-.72-1.74-1.1a.93.93 0 0 0-1.53.56 2.17 2.17 0 0 1-.44.62 2.72 2.72 0 0 0-.79 1.54 6.45 6.45 0 0 1-.52 1.89c-.41 1-.42 1 .3 1.78 1.07 1.16 2 2.44 3.19 3.49a8.15 8.15 0 0 1 1.78 3c.68 1.47 1.52 2.86 2.29 4.29.08.15.16.29.3.52-.63 0-1.18.1-1.73.09-3.76 0-7.53-.08-11.29-.1-.7 0-.52-.43-.52-.82.13-2.78.3-5.55.37-8.33s0-5.43 0-8.15c0-4.51 0-9-.08-13.54 0-2.59-.27-5.17-.42-7.75a1.91 1.91 0 0 1 .07-.22zm8.71 33.24l.12.09a9.63 9.63 0 0 0-.11 1.69 1 1 0 0 0 .57.77 1.38 1.38 0 0 0 1.36-.67c.32-.4.19-.73 0-1.12s-.38-1-.59-1.49a1.76 1.76 0 0 0-.31-.54L80.44 29c-.35-.36-.73-.69-1-1-.86 1.4-1.7 2.66-2.44 4-.23.44-.57 1.08 0 1.6a1.08 1.08 0 0 0 1.75-.09c.24-.26.43-.58.67-.86a3.23 3.23 0 0 1 .4-.35l.16.12c-.29.68-.6 1.35-.88 2s-.15 1 .79 1.52c.59.35 1 .29 1.27-.32a11.69 11.69 0 0 1 .75-1.18c.19-.3.42-.58.63-.87zM70.08 54.64h-1.65l-.09-.87a1 1 0 0 0-.21.1 3.44 3.44 0 0 1-3.89.81 3.65 3.65 0 0 1-2.38-3.36 6.74 6.74 0 0 1 .22-2.32 3.67 3.67 0 0 1 6.27-1.46v-5.25h1.73zm-6.56-3.93a12 12 0 0 0 .63 2.19 2.11 2.11 0 0 0 3.63.24 5.1 5.1 0 0 0 .22-4.78 2.22 2.22 0 0 0-2.24-1.08 2 2 0 0 0-1.8 1.52 19 19 0 0 0-.39 1.91zM41.29 39.32h-1.64l-.07-.89h-.16a3.4 3.4 0 0 1-3.74 1 3.62 3.62 0 0 1-2.55-3 5.28 5.28 0 0 1 .55-3.66c1.25-2.18 4.5-2.3 5.72-.7 0 0 .1.06.2.13V27h1.7zm-1.57-4a14 14 0 0 0-.26-1.68A2.27 2.27 0 0 0 37.19 32 2.08 2.08 0 0 0 35 33.71a5.72 5.72 0 0 0 .12 3.47 2.12 2.12 0 0 0 2 1.54 2.19 2.19 0 0 0 2.17-1.51 13.15 13.15 0 0 0 .39-1.85zm2.74 6.94h1.73v5.42l.52-.5a3.76 3.76 0 0 1 4.14-.41 2.06 2.06 0 0 1 1 1.62c.07.85 0 1.7 0 2.55v3.68h-1.58v-3a23.71 23.71 0 0 0-.09-2.55 1.61 1.61 0 0 0-1.66-1.61 1.93 1.93 0 0 0-2.24 1.57c-.15 1.39-.1 2.81-.13 4.22 0 .44 0 .88.07 1.35h-1.76zM96.1 54.63h-1.76v-.92c0-1.31.06-2.62.08-3.91a3.63 3.63 0 0 0-.09-.7c-.21-1.12-.72-1.59-1.73-1.61a1.9 1.9 0 0 0-2.16 1.59c-.15 1.31-.13 2.64-.16 4 0 .52 0 1 .07 1.6h-1.76v-.51c0-2.33.08-4.66.07-7 0-.52.12-.75.67-.67a7.84 7.84 0 0 0 1 0v1.2l.49-.43a3.79 3.79 0 0 1 4-.57 2.13 2.13 0 0 1 1.25 1.89c.07 1.98.03 3.98.03 6.04zM6.64 31.17H8.4v.73c0 1.37-.07 2.73-.08 4.1a4.29 4.29 0 0 0 .09.82c.18 1 .57 1.44 1.28 1.56a2 2 0 0 0 2.18-1 3.51 3.51 0 0 0 .37-1.47c0-1.41 0-2.82-.06-4.23v-.52h1.67v8.14h-1.57V38a3.39 3.39 0 0 1-2.72 1.52 2.58 2.58 0 0 1-2.91-2.64c-.08-1.88-.01-3.76-.01-5.71zm17 6.32a1.37 1.37 0 0 1-.76 1.51 5.06 5.06 0 0 1-4.69 0 4.24 4.24 0 0 1-1.9-4.55c.52-3.45 3.59-4 5.73-3.21a3.58 3.58 0 0 1 2.07 3.6c0 .43-.33.38-.6.38h-4.75c-.57 0-.76.16-.69.73a2.75 2.75 0 0 0 1.7 2.52 3.05 3.05 0 0 0 3.17-.6 4.25 4.25 0 0 0 .52-.63zm-1.38-3a2.55 2.55 0 0 0-.83-2.32 1.88 1.88 0 0 0-2.12-.1 2.74 2.74 0 0 0-1.25 2.43zm58.35 16.12A3.23 3.23 0 0 0 82 53.7c1.11.69 2.24.43 4.19-1 .13.57.16 1.07-.38 1.41a4.84 4.84 0 0 1-4.89.3 3.79 3.79 0 0 1-2-3.85c.06-3.12 2.31-4.85 5.3-4.11a3.41 3.41 0 0 1 2.47 3.78c0 .14-.35.32-.54.32h-4.68zm.1-.79h3.54a.82.82 0 0 0 .32 0c.12-.05.28-.14.3-.25a2.14 2.14 0 0 0-1.82-2.43c-1.4-.07-2.33.94-2.35 2.68zM48.06 38.54a3.28 3.28 0 0 1-2.69 1 2.17 2.17 0 0 1-2.11-2 2 2 0 0 1 1.37-2.33c.79-.28 1.62-.4 2.41-.65.37-.12.88-.31 1-.6a1.4 1.4 0 0 0-.44-1.57 2.08 2.08 0 0 0-2.88.19c-.19.23-.34.81-.7.46-.18-.17.07-.79.14-1.2 0-.06.13-.11.2-.15a4.11 4.11 0 0 1 3.64-.47 2.19 2.19 0 0 1 1.71 2.28v4.11c0 .91.09 1 1 1.1.21.43-.12.55-.41.67-.98.33-1.57.12-2.24-.84zm0-3.4a14 14 0 0 0-2.07.62 2 2 0 0 0-.94.95 1.31 1.31 0 0 0 .68 1.72l.18.06A1.72 1.72 0 0 0 48 37.24a17 17 0 0 0 0-2.1zm11.32-3.96c-2.07 4.38-4.45 8.56-4.91 13.41h-1.8c.19-.42.39-.79.52-1.17.45-1.15.91-2.31 1.31-3.48a1.41 1.41 0 0 0-.06-.91c-1-2.45-2-4.89-3.08-7.33-.07-.15-.12-.31-.21-.55h1.77c.15 0 .33.28.4.47.62 1.59 1.21 3.2 1.83 4.79.09.24.21.46.38.83a6.17 6.17 0 0 0 .41-.72c.59-1.56 1.2-3.11 1.74-4.68.18-.52.35-.83 1-.69a3.66 3.66 0 0 0 .7.03zm-28.76 1.99c-.89-1.29-1.52-1.63-2.49-1.29a1.78 1.78 0 0 0-.9.87A1 1 0 0 0 27.7 34a5.92 5.92 0 0 0 1.1.49c.3.11.62.18.92.26a2 2 0 0 1 1.72 1.89 2.54 2.54 0 0 1-1.5 2.66 4.5 4.5 0 0 1-3.9-.16.58.58 0 0 1-.26-.47 10.52 10.52 0 0 1 .37-1.29l.39.54a2.28 2.28 0 0 0 2.73.82 1.25 1.25 0 0 0 .82-1.13 1.07 1.07 0 0 0-.69-1.12c-.57-.24-1.16-.43-1.74-.64a2.29 2.29 0 0 1-1.8-2.65 2.38 2.38 0 0 1 2.45-2.09 11.42 11.42 0 0 1 2.2.26c.39.07.58.3.39.74a8.49 8.49 0 0 0-.28 1.06zm37.25-.01a4.13 4.13 0 0 1-.29-.38 1.83 1.83 0 0 0-2.33-.88 1.14 1.14 0 0 0-.38 2 4.22 4.22 0 0 0 1.14.55c.32.13.66.19 1 .29 1.19.4 1.68 1 1.75 2a2.6 2.6 0 0 1-1.47 2.5 4.46 4.46 0 0 1-4-.13.71.71 0 0 1-.23-.59 7.39 7.39 0 0 1 .33-1.17l.4.55a2.27 2.27 0 0 0 2.66.84 1.24 1.24 0 0 0 .87-1.15 1.08 1.08 0 0 0-.74-1.15c-.57-.23-1.16-.43-1.74-.64a2.28 2.28 0 0 1-1.74-2.62 2.42 2.42 0 0 1 2.39-2.09 11.66 11.66 0 0 1 2.27.26c.39.07.58.31.39.75a7.71 7.71 0 0 0-.28 1.06zm-28.13 15.4c-.05-.11-.1-.23-.15-.34a2.07 2.07 0 0 0-2.26-1.09 2.36 2.36 0 0 0-2.08 1.49 4.77 4.77 0 0 0 0 3.86 2.92 2.92 0 0 0 4.33 1.06l.52-.36c.12.92 0 1.14-.73 1.41a5.33 5.33 0 0 1-3.94-.05 4.15 4.15 0 0 1-2.36-4.71 3.89 3.89 0 0 1 3.78-3.45 15 15 0 0 1 2.89.35c.46.07.64.36.42.84a5.27 5.27 0 0 0-.24.9zm19.59 6.06h-1.71v-2.25c0-3.16 0-6.33-.05-9.49 0-.5.1-.71.64-.63a8.19 8.19 0 0 0 1.13 0zM1.22 32.16H0v-.75s.06-.06.09-.06c1.12-.11 1.14-.11 1.13-1.24a.7.7 0 0 1 .54-.79A13.15 13.15 0 0 0 3 28.75c0 .72 0 1.36-.1 2 0 .47.13.67.62.61a10.3 10.3 0 0 1 1.12 0v.79a10.8 10.8 0 0 0-1.28 0c-.17 0-.44.22-.44.35-.05 1.6-.13 3.2-.08 4.8 0 1.29.34 1.47 2 1.47-.19.26-.26.54-.44.6-1.78.63-3.22-.33-3.17-2v-4.36c.03-.29.01-.54-.01-.85zM72.8 54.63v-8.1h1.65v1.27a7.62 7.62 0 0 1 1.27-1.1 7.81 7.81 0 0 1 1.67-.49L77.31 48l-.65-.11a1.7 1.7 0 0 0-2.11 1.53c-.11 1.38 0 2.77-.06 4.16v1zm-20.16-8.07h1.66v8.06h-1.66zM63.26 28.3a5.36 5.36 0 0 1-.26.7c-.59 1-1.19 2-1.81 3-.09.14-.31.21-.47.31a1.33 1.33 0 0 1-.08-.51c.32-1.19.64-2.39 1-3.56a1.29 1.29 0 0 1 .73-.68c.19-.07.51.2.74.35s.1.24.15.39z" data-name="Layer 1-2"/></g></g></g></svg>