<svg xmlns="http://www.w3.org/2000/svg" viewBox="0 0 101.17 28.71"><title>variety-black</title><g data-name="Layer 1-2"><path d="M101.17 4c-.54.15-1.07.34-1.62.46-3.95.83-7.93 1.41-11.93 1.85a151.65 151.65 0 0 1-24.23.55c-4-.2-7.95-.43-11.9-.83-4.29-.44-8.57-1-12.84-1.7-2.94-.46-5.84-1.12-8.75-1.72a.54.54 0 0 0-.54.21L19.57 12 2.76 28a1.65 1.65 0 0 1-1.09.54c-.52 0-1 .12-1.62.2L8 4.4c-1.6.44-3.21.91-4.83 1.32-.75.19-1.52.29-2.28.42a2.39 2.39 0 0 1-.63 0A.41.41 0 0 1 0 6s.07-.18.14-.25a2.09 2.09 0 0 1 .37-.25 6.94 6.94 0 0 0 3.17-3.66c.09-.22.2-.3.43-.24a14.46 14.46 0 0 0 7.77-.35c.79-.25 1.57-.51 2.44-.79L7.1 20.88h.06L9.81 18 26.3.13l.09-.13h.23s.06.06.09.06c1.37.27 2.74.55 4.11.8a151.48 151.48 0 0 0 15.25 2.06c4.15.32 8.3.59 12.45.75a83.82 83.82 0 0 0 16.81-1A42.1 42.1 0 0 0 83.58.64a.73.73 0 0 1 .7.05 22.46 22.46 0 0 0 10.09 2.85c2.07.11 4.16 0 6.24 0a2 2 0 0 1 .57.18z"/><path d="M36.33 26.82c-.17.64-.17.64-.78.64H29c0-.42.14-.72.58-.77.88-.1 1.21-.66 1.44-1.46 1.48-5.13 3-10.25 4.51-15.37l.07-.27A4.07 4.07 0 0 0 32.91 11a1.83 1.83 0 0 0 0 2.06c.41.65.07 1-.58 1a2 2 0 0 1-2.09-2.71 3.62 3.62 0 0 1 2.22-2.31 11.4 11.4 0 0 1 3.9-.91 23.17 23.17 0 0 1 6.43.29 9.6 9.6 0 0 1 2.88 1 4.82 4.82 0 0 1-.1 8.35 6.92 6.92 0 0 1-4.83.61l-.65-.13c0 .63.05 1.23.12 1.83a9.32 9.32 0 0 0 1.09 3.76 2.22 2.22 0 0 0 1.8 1.31 1.51 1.51 0 0 0 1.6-1 7.81 7.81 0 0 0 .27-.87c.06-.23.18-.29.36-.11a2.51 2.51 0 0 1 .26.29 3.16 3.16 0 0 1 .34 3.26 2.62 2.62 0 0 1-2.37 1.58c-2.44.25-4.08-.88-4.91-3.38a13.17 13.17 0 0 1-.65-4.56c0-1.16.2-2.31.31-3.46a3.83 3.83 0 0 1 .14-.56l.44.21a4.44 4.44 0 0 0 2.37.49 3.27 3.27 0 0 0 3-3.26A3.7 3.7 0 0 0 41 9.73c-.32-.06-.65-.08-1-.13s-.5 0-.61.4c-.67 2.34-1.37 4.67-2.06 7l-2.51 8.47c0 .1-.06.2-.09.3-.11.47 0 .6.46.73zM59.41 9.61L59.6 9h9.7a1.23 1.23 0 0 0 1-.36c.1-.12.38-.09.61-.13v4.44h-.08c-.77 0-.77 0-1-.69-.19-.49-.38-1-.55-1.48a.79.79 0 0 0-.83-.59h-3.31a.43.43 0 0 0-.33.21c-.67 2.2-1.32 4.41-2 6.63a1 1 0 0 0 0 .19h3.56a1 1 0 0 0 .57-.38c.27-.32.5-.69.74-1 .42-.61.42-.61 1.24-.48-.16.57-.33 1.14-.49 1.7-.33 1.11-.69 2.21-1 3.33-.11.42-.29.61-.72.53h-.31v-1.8c0-.53-.1-.66-.64-.67h-3.12a.4.4 0 0 0-.31.2c-.75 2.49-1.49 5-2.24 7.54h5.01a1.63 1.63 0 0 0 1.45-.71c.46-.63 1-1.19 1.44-1.83a1.14 1.14 0 0 1 1.37-.51 3 3 0 0 1-.1.32l-1.76 4.18a.53.53 0 0 1-.9.15 1.34 1.34 0 0 0-.58-.29 3.57 3.57 0 0 0-.79 0H54.15a.72.72 0 0 1 .64-.78c1.41-.36 1.37-.09 1.87-1.79q2.06-7 4.13-14c.21-.7.16-.78-.52-1zm-44.22 17.2c-.13.65-.13.65-.72.65H9.39c.05-.44.19-.71.66-.76a3.36 3.36 0 0 0 2.25-1.39Q19.65 16.62 27 8a1.06 1.06 0 0 1 .52-.29c.39-.1.8-.15 1.25-.23-.05.71-.1 1.39-.15 2.06q-.42 5.36-.86 10.72-.23 2.7-.44 5.39c-.06.74 0 .86.75 1l.69.17c-.13.65-.13.65-.72.65H21.9c.06-.39.13-.66.58-.77 1.29-.3 1.28-.33 1.38-1.68.06-.76.14-1.52.22-2.34h-7.22a.64.64 0 0 0-.57.27c-.74.93-1.5 1.83-2.25 2.76-.4.49-.34.67.25.86zM25 12.41h-.09l-7.23 8.94h6.52zm52-2.21h-2.31a1.3 1.3 0 0 0-.77.46 13.54 13.54 0 0 0-1.28 1.75 1 1 0 0 1-1.28.48c.44-1.37.9-2.72 1.31-4.09.11-.38.35-.32.6-.31a.18.18 0 0 1 .13.08c.2.37.54.37.89.37h9.21a1.26 1.26 0 0 0 1.08-.37c.1-.12.38-.08.65-.13v4.71a3.31 3.31 0 0 1-.64 0 .46.46 0 0 1-.26-.27c-.24-.69-.46-1.37-.69-2.06-.18-.53-.34-.64-.9-.64h-1.88l-1.1 3.68-3.44 11.62c-.23.75-.16.87.61 1.07l.91.25c-.08.65-.08.66-.69.66H70c0-.41.12-.71.58-.75.27 0 .54-.13.81-.18a1.22 1.22 0 0 0 1.07-1c.88-3 1.79-6.08 2.7-9.12l1.72-5.75c.05-.13.12-.27.12-.46zm8.54-.59c.13-.76.06-.64.7-.64h6.13c0 .46-.11.74-.58.78a2.61 2.61 0 0 0-.46.13c-.65.19-.73.31-.57 1l1.13 4.4.44 1.72.67-.9 4-5.36c.4-.53.34-.69-.29-.85l-1-.26c.07-.65.07-.65.69-.65h4.6c0 .48-.13.73-.59.78a3 3 0 0 0-2 1.32c-1.72 2.26-3.51 4.5-5.27 6.74a2.51 2.51 0 0 0-.41.79c-.71 2.3-1.39 4.61-2.08 6.91-.2.67-.12.8.55 1l1.11.29h.1c-.12.62-.12.62-.74.62h-7.32c0-.44.19-.72.65-.76.27 0 .53-.15.8-.19a1.12 1.12 0 0 0 1-.91c.72-2.44 1.44-4.87 2.15-7.31a1 1 0 0 0 0-.53c-.61-2.33-1.24-4.65-1.83-7a1.17 1.17 0 0 0-1-1 3.85 3.85 0 0 1-.58-.12zM53.4 26.81c-.17.64-.17.64-.78.64h-6.5c0-.4.14-.71.58-.77 1-.13 1.47-.75 1.75-1.73 1.32-4.68 2.72-9.34 4.09-14 .21-.73.17-.82-.54-1.06l-.77-.26C51.34 9 51.34 9 52 9h6.69c0 .43-.1.71-.56.78-.3 0-.58.18-.87.24a1 1 0 0 0-.77.79L52 25.59c-.2.67-.13.77.56 1z"/></g></svg>