<svg xmlns="http://www.w3.org/2000/svg" viewBox="0 0 198.41 17"><defs><style>.cls-1{fill:#333}.cls-2{fill:#f05136}</style></defs><title>wr-logotype</title><g id="Layer_2" data-name="Layer 2"><g id="Layer_1-2" data-name="Layer 1"><g id="Layer_2-2" data-name="Layer 2"><g id="Layer_1-2-2" data-name="Layer 1-2"><path class="cls-1" d="M0 .7h.95a.39.39 0 0 1 .41.3l4 13.09a4.89 4.89 0 0 1 .12.48l.11.54q.05-.28.11-.54a4.11 4.11 0 0 1 .13-.48L10.26 1a.48.48 0 0 1 .16-.22.41.41 0 0 1 .26-.08H11a.38.38 0 0 1 .26.08.56.56 0 0 1 .14.22l4.46 13.1q.08.22.14.47t.12.53l.1-.52a4.17 4.17 0 0 1 .11-.48L20.3 1a.4.4 0 0 1 .15-.22.44.44 0 0 1 .27-.08h.88l-5 15.94h-1L11 2.81a5.78 5.78 0 0 1-.16-.57 5.88 5.88 0 0 1-.16.57L6 16.64H5zm40.75 7.97A9.77 9.77 0 0 1 40.2 12a7.44 7.44 0 0 1-1.54 2.57 6.8 6.8 0 0 1-2.37 1.64 8.32 8.32 0 0 1-6.1 0 6.79 6.79 0 0 1-2.37-1.64A7.5 7.5 0 0 1 26.28 12a9.67 9.67 0 0 1-.55-3.35 9.63 9.63 0 0 1 .55-3.34 7.5 7.5 0 0 1 1.54-2.57 6.86 6.86 0 0 1 2.37-1.65 7.71 7.71 0 0 1 3-.59 7.84 7.84 0 0 1 3.07.58 6.77 6.77 0 0 1 2.37 1.66 7.5 7.5 0 0 1 1.57 2.59 9.74 9.74 0 0 1 .55 3.34zm-1.18 0a9.18 9.18 0 0 0-.47-3 6.47 6.47 0 0 0-1.29-2.25 5.52 5.52 0 0 0-2-1.41 6.65 6.65 0 0 0-2.59-.49 6.55 6.55 0 0 0-2.55.48 5.63 5.63 0 0 0-2 1.41 6.44 6.44 0 0 0-1.3 2.25 9.08 9.08 0 0 0-.46 3 9.07 9.07 0 0 0 .46 3 6.44 6.44 0 0 0 1.3 2.25 5.57 5.57 0 0 0 2 1.41 6.62 6.62 0 0 0 2.57.48 6.72 6.72 0 0 0 2.59-.48 5.46 5.46 0 0 0 2-1.41 6.47 6.47 0 0 0 1.28-2.25 9.17 9.17 0 0 0 .47-3zm15.31 4l.14-.35a3.06 3.06 0 0 1 .16-.33L61.37.92a.41.41 0 0 1 .18-.18.71.71 0 0 1 .24 0h.79v15.9h-1V3.06a6.12 6.12 0 0 1 0-.62l-6.2 11.14a.49.49 0 0 1-.44.29h-.14a.5.5 0 0 1-.44-.29L48 2.43a6.23 6.23 0 0 1 0 .63v13.58h-1V.7h.78a.76.76 0 0 1 .25 0 .4.4 0 0 1 .18.18L54.58 12a4.61 4.61 0 0 1 .3.67zM79.27.7v1H71v6.4h6.9V9H71v6.65h8.3v1h-9.47V.7zm7.08.04a.53.53 0 0 1 .19.17l10.2 13.8V.7h1v15.94h-.54a.48.48 0 0 1-.41-.22L86.51 2.59v14.04h-1V.7h.56a.62.62 0 0 1 .28.04z"/><path class="cls-2" d="M104.82 9.65v7.17h-1.16V1h4.09a6.75 6.75 0 0 1 4.15 1 3.68 3.68 0 0 1 1.37 3.11 4.22 4.22 0 0 1-.27 1.68 3.89 3.89 0 0 1-1 1.32 4.87 4.87 0 0 1-1.43.93 6.44 6.44 0 0 1-1.89.48 1.83 1.83 0 0 1 .49.44l5.52 6.86h-1a.67.67 0 0 1-.31-.07.81.81 0 0 1-.25-.22L108 10.1a1.14 1.14 0 0 0-.41-.35 1.76 1.76 0 0 0-.69-.1zm0-.85h2.79a6.68 6.68 0 0 0 1.91-.25 4.13 4.13 0 0 0 1.43-.72 3.13 3.13 0 0 0 .89-1.13 3.51 3.51 0 0 0 .31-1.49A2.9 2.9 0 0 0 111 2.69a5.5 5.5 0 0 0-3.26-.82h-2.93zm18.48 8.02h-1.16V1h1.17zm17.03-13.93a.32.32 0 0 1-.29.19.66.66 0 0 1-.38-.21A4.9 4.9 0 0 0 138 2a5.07 5.07 0 0 0-3 0 3.23 3.23 0 0 0-1.11.67 2.86 2.86 0 0 0-.68 1 3 3 0 0 0-.21 1.14 2.38 2.38 0 0 0 .35 1.34 3.1 3.1 0 0 0 .91.9 6 6 0 0 0 1.28.62l1.48.5q.76.25 1.48.54a5.36 5.36 0 0 1 1.29.74 3.24 3.24 0 0 1 1.26 2.73 5.08 5.08 0 0 1-.35 1.87 4.37 4.37 0 0 1-1 1.54 4.72 4.72 0 0 1-1.61 1 5.91 5.91 0 0 1-2.18.38 6.21 6.21 0 0 1-2.73-.55 6.42 6.42 0 0 1-2-1.52l.32-.49a.4.4 0 0 1 .32-.17.46.46 0 0 1 .26.13l.39.32a6.39 6.39 0 0 0 .54.43 4.52 4.52 0 0 0 .74.43 5.26 5.26 0 0 0 1 .33 5.18 5.18 0 0 0 1.24.13 4.76 4.76 0 0 0 1.7-.29 3.73 3.73 0 0 0 1.27-.78 3.29 3.29 0 0 0 .79-1.17 3.85 3.85 0 0 0 .27-1.45 2.53 2.53 0 0 0-.35-1.38 3 3 0 0 0-.91-.91 5.93 5.93 0 0 0-1.29-.61L135.95 9q-.76-.24-1.48-.53a5.12 5.12 0 0 1-1.29-.74 3.41 3.41 0 0 1-.91-1.13 3.71 3.71 0 0 1-.35-1.7 4 4 0 0 1 .31-1.54 3.81 3.81 0 0 1 .9-1.29 4.42 4.42 0 0 1 1.46-.91 5.38 5.38 0 0 1 2-.34 6.07 6.07 0 0 1 2.24.39 5.37 5.37 0 0 1 1.81 1.2zm9.76 13.93h-1.17V1h1.17zM160.17 1a.53.53 0 0 1 .19.17l10.38 13.73a6.46 6.46 0 0 1 0-.66V1h1v15.82h-.56a.49.49 0 0 1-.42-.22L160.33 2.84a6.37 6.37 0 0 1 0 .64v13.34h-1V1h.56a.65.65 0 0 1 .28 0zm27.3 15.07A12.37 12.37 0 0 0 189 16a8.22 8.22 0 0 0 1.26-.25 8 8 0 0 0 1.11-.41q.53-.24 1.06-.54v-4.29h-3.08a.3.3 0 0 1-.22-.08.24.24 0 0 1-.09-.18v-.62h4.43v5.63a10.51 10.51 0 0 1-1.25.74 8.35 8.35 0 0 1-1.38.54 10.79 10.79 0 0 1-1.59.34 13.62 13.62 0 0 1-1.86.12 8.41 8.41 0 0 1-3.17-.58 7 7 0 0 1-2.46-1.64 7.36 7.36 0 0 1-1.59-2.56 9.38 9.38 0 0 1-.57-3.34 9.34 9.34 0 0 1 .57-3.33 7.25 7.25 0 0 1 1.6-2.55 7.1 7.1 0 0 1 2.53-1.63 9.19 9.19 0 0 1 3.34-.58 10.84 10.84 0 0 1 1.69.12 7.93 7.93 0 0 1 1.45.36 6.84 6.84 0 0 1 1.25.59 8.45 8.45 0 0 1 1.11.81l-.31.49a.32.32 0 0 1-.28.17.44.44 0 0 1-.19 0 2.4 2.4 0 0 1-.49-.31 5.31 5.31 0 0 0-.88-.52 7.34 7.34 0 0 0-1.36-.5 8.17 8.17 0 0 0-2-.22 7.69 7.69 0 0 0-2.82.49 6 6 0 0 0-2.15 1.41 6.24 6.24 0 0 0-1.37 2.24 8.62 8.62 0 0 0-.49 3 8.73 8.73 0 0 0 .49 3 6.44 6.44 0 0 0 1.37 2.26 5.9 5.9 0 0 0 2.11 1.42 7.23 7.23 0 0 0 2.7.47zm8.24-14.72a1.3 1.3 0 0 1 .11-.53 1.38 1.38 0 0 1 .72-.72 1.34 1.34 0 0 1 1.05 0 1.38 1.38 0 0 1 .72.72 1.3 1.3 0 0 1 .11.53 1.3 1.3 0 0 1-.11.53 1.38 1.38 0 0 1-.72.72 1.34 1.34 0 0 1-1.05 0 1.37 1.37 0 0 1-.72-.72 1.3 1.3 0 0 1-.11-.53zm.2 0a1.12 1.12 0 0 0 .09.45 1.16 1.16 0 0 0 2.13 0 1.13 1.13 0 0 0 .09-.45 1.13 1.13 0 0 0-.09-.45 1.16 1.16 0 0 0-2.13 0 1.12 1.12 0 0 0-.09.45zm.86.77h-.2V.57h.6a.53.53 0 0 1 .38.11.44.44 0 0 1 .11.32.49.49 0 0 1 0 .18.37.37 0 0 1-.09.13.42.42 0 0 1-.13.08h-.15l.47.68h-.22l-.54-.63h-.28zm0-.86h.55a.25.25 0 0 0 .1-.08.25.25 0 0 0 0-.15.22.22 0 0 0-.11-.2h-.58z"/></g></g></g></g></svg>