<svg xmlns="http://www.w3.org/2000/svg" viewBox="0 0 105.06 68"><defs><style>.cls-1{fill:#ef5035;}</style></defs><title>accolade-laurel-red</title><g id="Layer_2" data-name="Layer 2"><g id="Layer_1-2" data-name="Layer 1"><g id="Layer_2-2" data-name="Layer 2"><g id="Layer_1-2-2" data-name="Layer 1-2"><path class="cls-1" d="M80.85,4.5A4.3,4.3,0,0,1,80,.11a3.11,3.11,0,0,1,2.61,3.23c-.13,1.91.94,2.52,2.37,3,.07,0,.17,0,.26,0-.51-2.59-.48-2.88.39-4.23A3.37,3.37,0,0,1,87.49,6c-.37,1.61.33,2.41,1.57,3.06.16.09.31.22.65.45a4.88,4.88,0,0,1,.78-4.39c1.81.89,2,2.24,1,5.93.23.25.5.52.74.82a4.94,4.94,0,0,0,1,1.09c.33-1.63.58-3.11,2.1-4.16.93,1.38,1.37,2.91.54,4.21-1.1,1.73-.48,2.94.52,4.25l.18.15a4.82,4.82,0,0,1,2.53-3.92A3.62,3.62,0,0,1,99.42,17a6.29,6.29,0,0,1-1.17,2A1.31,1.31,0,0,0,98,20.49c.27.61.52,1.22.89,2.08a4.7,4.7,0,0,1,3-3.75,3.35,3.35,0,0,1-.91,4.52c-1.5,1.18-1.47,2.37-.77,4a5.37,5.37,0,0,1,3.81-2.77,3.48,3.48,0,0,1-.89,3.6,5.34,5.34,0,0,1-1.57,1.24,1.54,1.54,0,0,0-1,2.09,9.08,9.08,0,0,1,.18,1,5.52,5.52,0,0,1,4.2-1.94,4.13,4.13,0,0,1,0,1.06,4.58,4.58,0,0,1-3.16,3.29c-1,.3-1.46.77-1.41,1.8a7.83,7.83,0,0,1-.23,1.4A5.05,5.05,0,0,1,105,36.54a3.37,3.37,0,0,1-1.7,2.91,8.67,8.67,0,0,1-2.11.89c-1.69.48-1.7.45-1.89,2.29,2.94-.82,3.08-.83,4.84-.14a4.93,4.93,0,0,1-2.66,2.61,3.64,3.64,0,0,1-1.67.37c-1.77-.24-2.5.74-2.88,2.24C99.22,47,100,47,102,48.1a4.24,4.24,0,0,1-3.36,2.29,7.23,7.23,0,0,1-2,0C95,50.23,94.8,50.31,94,52a6.31,6.31,0,0,1,4.93,1.31c-2.19,2.5-4.66,1.88-7.23.89L90,55.77a21.5,21.5,0,0,1,2.72.63,3.65,3.65,0,0,1,2.15,1.69c-1.7,1.45-3.52,1.35-5.41.62a5.67,5.67,0,0,1-.65-.3c-1.42-.77-1.42-.77-2.86.49A7.25,7.25,0,0,1,90.36,62a4.58,4.58,0,0,1-3.86.55,5.94,5.94,0,0,1-2.14-1.14c-1.07-1.09-2.06-1-3.29-.13a6.44,6.44,0,0,1,3.81,3.6c-2.18,1.27-4.25.44-7-2.78a22.75,22.75,0,0,0-12,5.88l-1-1a8.81,8.81,0,0,1,3.69-2.89,56.39,56.39,0,0,1,6.82-2.7,2.1,2.1,0,0,0,1.77-2,5.06,5.06,0,0,1,2.77-4.28,5.56,5.56,0,0,1,.77-.28c.94,1.49.65,3.08-.87,5.44,1.93-.37,2-.41,1.92-2.25a5.35,5.35,0,0,1,2-4.83,2.61,2.61,0,0,1,.48-.3.75.75,0,0,1,.28,0c1,1.69,1,3-.13,5.56.35-.21.59-.33.81-.48,1.22-.77,1.23-.78.85-2.16a5.14,5.14,0,0,1,.68-4.58A11.85,11.85,0,0,1,87.74,50a5.56,5.56,0,0,1,1,4.9c1.41-.37,1.63-.74,1.1-2-.74-1.82-1-3.61.14-5.37.13-.2.3-.36.56-.68a5.6,5.6,0,0,1,1.85,4.65c1.43-.86,1.55-1.23.74-2.45a5.07,5.07,0,0,1-.74-5.16,7.34,7.34,0,0,1,.5-.78A5.93,5.93,0,0,1,95.34,48l1.29-2.18c-1.8-1.83-3.47-3.64-2.23-6.62a5.31,5.31,0,0,1,3.27,4.33l.3-.82c.57-1.51.57-1.51-.7-2.6-1.11-1-2.12-2-2.13-3.6a12.13,12.13,0,0,1,.14-1.36c1.86.43,2.64,1.12,3.92,3.32.07-.33.14-.59.2-.86.33-1.48.33-1.49-1.05-2.18a4.86,4.86,0,0,1-3-3.8,1.63,1.63,0,0,1,0-.43,2,2,0,0,1,.22-.42,5.69,5.69,0,0,1,4.27,2.71v-.83c0-1.74,0-1.73-1.61-2.31a4.52,4.52,0,0,1-3.43-3.88,4.64,4.64,0,0,1,4.7,2.17c-.08-.6-.11-.89-.15-1.17s-.11-.65-.18-1a1.1,1.1,0,0,0-1.06-1,12.2,12.2,0,0,1-2-.4,3.53,3.53,0,0,1-2.53-2.66c1.17-.7,1.86-.63,4.51.52-.15-.53-.27-1-.41-1.42a1.17,1.17,0,0,0-1.31-.88,11.61,11.61,0,0,1-1.59,0,4.36,4.36,0,0,1-3.5-2.33,4.48,4.48,0,0,1,5.18.5l-1.71-3c-2.29.86-4.43,1.23-6.18-1.09a4.56,4.56,0,0,1,5-.51l-2.06-2.39c-3.22,1.48-4.7,1.45-6.28-.13a5.43,5.43,0,0,1,4.32-1.53l-2-1.7c-1.89,1.23-3.73,2.66-6,1,1-1.56,2-2,4.3-2.06-.36-.25-.61-.45-.9-.62-1.66-1-1.66-1-3.14.33a3.56,3.56,0,0,1-4.32.65,4.3,4.3,0,0,1,4-2.57l-.65-.76Z"/><path class="cls-1" d="M24.3,4.5l-.65.76a4.38,4.38,0,0,1,4.08,2.63,3.21,3.21,0,0,1-2.88.19,5.39,5.39,0,0,1-1.25-.71C23,7,22.43,6.11,21.93,6.17a6.85,6.85,0,0,0-2.51,1.24,4.71,4.71,0,0,1,4.16,1.91c-1.25,1.48-2.39,1.36-6-.71l-2,1.58a5.76,5.76,0,0,1,4.32,1.57c-1.37,1.59-3.18,1.63-6.25.13l-2.09,2.39a4.49,4.49,0,0,1,4.9.43c-1,1.93-2.63,2.27-6,1.22L8.67,18.86a4.46,4.46,0,0,1,5.16-.51,4.28,4.28,0,0,1-3.3,2.33,6.72,6.72,0,0,1-.86,0c-2.07,0-2.15.08-2.52,2.33,1.4-.82,2.78-1.38,4.49-.73A3.55,3.55,0,0,1,9.2,25.07a6.39,6.39,0,0,1-1.82.39A1.39,1.39,0,0,0,5.91,26.9c-.06.47-.16.94-.3,1.69a5.23,5.23,0,0,1,4.67-2.15,3.82,3.82,0,0,1-2,3.36,4.15,4.15,0,0,1-.91.43c-2.15.82-2.15.82-2,3.27a20.43,20.43,0,0,1,1.88-1.85,4,4,0,0,1,2.52-.8A4.24,4.24,0,0,1,8.42,34.4a9.93,9.93,0,0,1-1.68,1.1c-1.22.65-1.25.65-1,2,.07.33.15.65.22,1a14.66,14.66,0,0,1,1.52-2A16.79,16.79,0,0,1,9.72,34.9a3.68,3.68,0,0,1-.48,3.86,9,9,0,0,1-1.53,1.52c-1.07.91-1.09.9-.62,2.14.11.3.24.6.42,1.08a5.29,5.29,0,0,1,3.09-4.23c1.4,2.29.45,4-2,6.58L9.77,48a6.33,6.33,0,0,1,2.36-4.82A3.76,3.76,0,0,1,13,46.94a6.45,6.45,0,0,1-.91,1.94c-.81,1.31-.82,1.42.26,2.57.13.13.28.25.59.52a5.35,5.35,0,0,1,1.63-5.2,4.84,4.84,0,0,1,1.31,3.92,11.83,11.83,0,0,1-.57,2.08c-.52,1.43-.5,1.5,1.09,2.29a5.59,5.59,0,0,1,.89-4.9,4.57,4.57,0,0,1,2,5.18c-.4,1.88-.4,1.88,1.67,3.1a5.25,5.25,0,0,1-.24-5.78,5.17,5.17,0,0,1,2.71,3.76,12,12,0,0,1,0,1.44c0,1.87,0,1.87,2.06,2.51-1.24-1.76-1.91-3.5-1.15-5.64a5,5,0,0,1,3.37,3,1.75,1.75,0,0,1,.2.69c-.06,2.13,1.19,2.86,3.09,3.33a21.66,21.66,0,0,1,7.52,3.52c.61.44,1.16,1,1.89,1.58L39.41,68a22.66,22.66,0,0,0-12.09-5.85c-3,3.24-4.79,4-7.08,2.77A6.4,6.4,0,0,1,24,61.38c-1.44-1.11-1.56-1.09-3,0-1.63,1.18-3.35,1.91-5.38,1.07a7.31,7.31,0,0,1-.71-.4A6.36,6.36,0,0,1,19.07,59c-1.13-1.34-1.31-1.35-2.69-.62-2,1.09-4.07,1.34-6.06-.16.75-1.47,2.58-2.34,4.93-2.47a12.36,12.36,0,0,1-1.22-1,1.16,1.16,0,0,0-1.41-.27A10.31,10.31,0,0,1,10,55c-1.58.09-2.4-.33-3.75-1.71a5.7,5.7,0,0,1,4.83-1.25c-.5-1.58-.95-1.88-2.29-1.7a5.68,5.68,0,0,1-4.52-.95A14.29,14.29,0,0,1,3,48.18a4.79,4.79,0,0,1,5.34-.26c-.26-.59-.45-.94-.59-1.31A1.57,1.57,0,0,0,6,45.52a5,5,0,0,1-4.63-2.38,3.85,3.85,0,0,1-.28-.69c1.68-.84,3.22-.36,4.75.28-.06-1.87-.07-1.87-1.79-2.38C2.66,39.94,1.27,39.49.58,38c-.2-.42-.33-.87-.54-1.45A5.06,5.06,0,0,1,4.9,38c-.12-.82-.22-1.47-.3-2.12s-.74-.81-1.26-1a4.71,4.71,0,0,1-3-2.84A8.21,8.21,0,0,1,0,30.73c1.67-.24,2.73.21,4.25,1.76.09-.41.14-.75.24-1.09a1.48,1.48,0,0,0-.92-2A4.62,4.62,0,0,1,1,26.31a10.08,10.08,0,0,1-.1-1.68c1.78.21,2.61.78,4,2.82A15.51,15.51,0,0,0,5.42,25c0-.33-.39-.72-.69-1a4.76,4.76,0,0,1-1.94-3.09,14.9,14.9,0,0,1,.12-2.11c2,.68,2.61,1.38,3.4,3.63a9.18,9.18,0,0,1,.49-1.11,2.25,2.25,0,0,0-.29-3,4.19,4.19,0,0,1-.47-5,5,5,0,0,1,2.5,4.2L9.9,15.49c.41-.62,0-1.11-.3-1.59a4.65,4.65,0,0,1-.25-4.29,3.85,3.85,0,0,1,.47-.67c1.31.9,1.69,1.66,1.92,4.15a24.4,24.4,0,0,0,1.74-1.79c.15-.19.07-.61,0-.92-.13-.71-.38-1.4-.46-2.1a3.33,3.33,0,0,1,1.51-3.2c1.14,1.24,1.31,2.67.79,4.58a25.78,25.78,0,0,0,2.09-1.6,1.5,1.5,0,0,0,.33-1c0-.57-.13-1.14-.13-1.72,0-1.6.43-2.29,2-3.27,1,1.34.76,2.77.19,4.44.62-.27,1-.49,1.46-.64a1.71,1.71,0,0,0,1.26-2A3.8,3.8,0,0,1,25,0c1,1.76.27,3.16-.72,4.51Z"/><path class="cls-1" d="M19.42,29.93h2L25,39.68H22.7l-.76-2.18h-3l-.74,2.18h-2.3Zm2.15,6L20.43,32.5l-1.17,3.45Z"/><path class="cls-1" d="M25,34.73A4.92,4.92,0,0,1,25.37,33a4.78,4.78,0,0,1,1-1.56,4.9,4.9,0,0,1,1.54-1.11,4.79,4.79,0,0,1,2.06-.42,4.63,4.63,0,0,1,2.38.59A3.82,3.82,0,0,1,33.82,32l-1.73,1.21a2,2,0,0,0-.42-.65,2.29,2.29,0,0,0-1.17-.63,3.21,3.21,0,0,0-.62-.06,2.33,2.33,0,0,0-1.12.26,2.47,2.47,0,0,0-.8.67,2.79,2.79,0,0,0-.47.93,3.78,3.78,0,0,0-.15,1.06,3.48,3.48,0,0,0,.18,1.11,3,3,0,0,0,.51.95,2.48,2.48,0,0,0,.81.65,2.32,2.32,0,0,0,1.06.24,2.73,2.73,0,0,0,.62-.08,2.53,2.53,0,0,0,.62-.23,2.2,2.2,0,0,0,.56-.41,1.93,1.93,0,0,0,.4-.62l1.84,1.09a2.87,2.87,0,0,1-.65,1,4,4,0,0,1-1,.71,5.47,5.47,0,0,1-2.43.59,4.36,4.36,0,0,1-1.94-.43,4.9,4.9,0,0,1-1.52-1.15,5.23,5.23,0,0,1-1-1.63A5.07,5.07,0,0,1,25,34.73Z"/><path class="cls-1" d="M34.4,34.73A4.92,4.92,0,0,1,34.72,33a4.77,4.77,0,0,1,1-1.56,4.88,4.88,0,0,1,1.54-1.11,4.79,4.79,0,0,1,2.06-.42,4.63,4.63,0,0,1,2.38.59A3.82,3.82,0,0,1,43.17,32l-1.73,1.21a2,2,0,0,0-.42-.65,2.29,2.29,0,0,0-1.17-.63,3.22,3.22,0,0,0-.62-.06,2.33,2.33,0,0,0-1.12.26,2.48,2.48,0,0,0-.8.67,2.79,2.79,0,0,0-.47.93,3.78,3.78,0,0,0-.15,1.06,3.49,3.49,0,0,0,.18,1.11,2.94,2.94,0,0,0,.52.95,2.48,2.48,0,0,0,.81.65,2.32,2.32,0,0,0,1.07.24,2.73,2.73,0,0,0,.62-.08,2.52,2.52,0,0,0,.62-.23A2.2,2.2,0,0,0,41,37a1.93,1.93,0,0,0,.4-.62l1.84,1.09a2.87,2.87,0,0,1-.65,1,4,4,0,0,1-1,.71,5.47,5.47,0,0,1-2.43.59,4.37,4.37,0,0,1-1.94-.43,4.9,4.9,0,0,1-1.52-1.15,5.23,5.23,0,0,1-1-1.63A5.06,5.06,0,0,1,34.4,34.73Z"/><path class="cls-1" d="M48.58,39.76a4.53,4.53,0,0,1-2-.42,4.87,4.87,0,0,1-1.52-1.12,5.09,5.09,0,0,1-1-1.59,5,5,0,0,1-.35-1.84,5,5,0,0,1,2.92-4.51,4.66,4.66,0,0,1,2-.41,4.53,4.53,0,0,1,2,.42,4.82,4.82,0,0,1,1.52,1.12,5.09,5.09,0,0,1,1,1.59,5,5,0,0,1,.33,1.81,4.87,4.87,0,0,1-.36,1.85,4.93,4.93,0,0,1-2.55,2.66A4.6,4.6,0,0,1,48.58,39.76ZM46,34.82a3.65,3.65,0,0,0,.16,1.09,2.92,2.92,0,0,0,.49.94,2.4,2.4,0,0,0,.8.65,2.37,2.37,0,0,0,1.1.25,2.32,2.32,0,0,0,1.12-.26,2.44,2.44,0,0,0,.8-.68,3,3,0,0,0,.47-.95,3.75,3.75,0,0,0,.16-1.08A3.65,3.65,0,0,0,51,33.7a2.77,2.77,0,0,0-.49-.93,2.45,2.45,0,0,0-.8-.65,2.38,2.38,0,0,0-1.09-.24,2.33,2.33,0,0,0-1.12.25,2.49,2.49,0,0,0-.8.65,2.82,2.82,0,0,0-.48.94,3.74,3.74,0,0,0-.16,1.1Z"/><path class="cls-1" d="M54.74,39.68V29.93H57V37.7h4.72v2Z"/><path class="cls-1" d="M65.42,29.93h2L71,39.68H68.7l-.76-2.18h-3l-.74,2.18H61.86Zm2.15,6L66.43,32.5l-1.16,3.44Z"/><path class="cls-1" d="M72,39.68V29.93h3.64a5.38,5.38,0,0,1,2.11.39,4.25,4.25,0,0,1,2.44,2.59,5.69,5.69,0,0,1,.31,1.89,5.61,5.61,0,0,1-.34,2,4.32,4.32,0,0,1-1,1.54,4.4,4.4,0,0,1-1.54,1,5.47,5.47,0,0,1-2,.35Zm6.21-4.9A3.79,3.79,0,0,0,78,33.6a2.64,2.64,0,0,0-.5-.91,2.18,2.18,0,0,0-.81-.59,2.73,2.73,0,0,0-1.09-.21H74.23v5.79h1.39a2.61,2.61,0,0,0,1.1-.22,2.22,2.22,0,0,0,.8-.61,2.8,2.8,0,0,0,.49-.92,3.74,3.74,0,0,0,.17-1.14Z"/><path class="cls-1" d="M88.65,37.7v2H81.78V29.93h6.73v2H84v1.9h3.84v1.83H84v2.07Z"/><path class="cls-1" d="M25.17,20.11H26L27.86,25h-1l-.45-1.22H24.73L24.29,25h-1Zm1.09,3-.67-1.92-.7,1.92Z"/><path class="cls-1" d="M29.66,20.12h.87l.55,1.61.55-1.61h.88l-.83,2.22.62,1.56,1.37-3.79h1l-2,4.87h-.79l-.84-2-.84,2h-.8l-2-4.87h1l1.4,3.79.6-1.56Z"/><path class="cls-1" d="M36.17,20.11H37L38.86,25h-1l-.45-1.22h-1.7L35.3,25h-1Zm1.09,3-.65-1.92-.7,1.92Z"/><path class="cls-1" d="M39.4,25V20.11h2.15a1.39,1.39,0,0,1,.61.15,1.61,1.61,0,0,1,.49.37,1.76,1.76,0,0,1,.33.52,1.58,1.58,0,0,1,.12.59,1.63,1.63,0,0,1-.24.86,1.36,1.36,0,0,1-.65.56L43.32,25H42.26l-1-1.63h-.93V25Zm.95-2.46h1.19a.5.5,0,0,0,.25-.06.62.62,0,0,0,.2-.17.84.84,0,0,0,.13-.25,1,1,0,0,0,0-.31.88.88,0,0,0-.06-.33.82.82,0,0,0-.15-.25.67.67,0,0,0-.21-.16.55.55,0,0,0-.25-.06H40.35Z"/><path class="cls-1" d="M44,25V20.11h1.77a2.64,2.64,0,0,1,1,.19A2.1,2.1,0,0,1,48,21.61a2.91,2.91,0,0,1,.15.94,2.85,2.85,0,0,1-.17,1,2.15,2.15,0,0,1-.48.77,2.18,2.18,0,0,1-.75.48,2.68,2.68,0,0,1-1,.18Zm3.22-2.44a2.08,2.08,0,0,0-.09-.65,1.44,1.44,0,0,0-.28-.51,1.26,1.26,0,0,0-.46-.33,1.54,1.54,0,0,0-.61-.12h-.82v3.21h.82a1.48,1.48,0,0,0,.62-.12,1.27,1.27,0,0,0,.45-.33,1.52,1.52,0,0,0,.28-.51A2.06,2.06,0,0,0,47.19,22.54Z"/><path class="cls-1" d="M52.61,25a2.21,2.21,0,0,1-1-.21,2.38,2.38,0,0,1-.75-.56,2.58,2.58,0,0,1-.65-1.71,2.45,2.45,0,0,1,.18-.93,2.58,2.58,0,0,1,.5-.79,2.4,2.4,0,0,1,.76-.55,2.26,2.26,0,0,1,1-.2,2.14,2.14,0,0,1,1,.22,2.41,2.41,0,0,1,.75.57,2.61,2.61,0,0,1,.48.8,2.51,2.51,0,0,1,.17.91,2.47,2.47,0,0,1-.18.93,2.53,2.53,0,0,1-.49.78,2.38,2.38,0,0,1-.76.54A2.25,2.25,0,0,1,52.61,25Zm-1.42-2.47a2,2,0,0,0,.09.61,1.63,1.63,0,0,0,.28.52,1.33,1.33,0,0,0,2.1,0,1.67,1.67,0,0,0,.27-.53,2,2,0,0,0,.09-.59,1.9,1.9,0,0,0-.1-.61,1.69,1.69,0,0,0-.28-.52,1.35,1.35,0,0,0-.44-.36,1.39,1.39,0,0,0-1.21,0,1.36,1.36,0,0,0-.45.37,1.67,1.67,0,0,0-.27.52A2,2,0,0,0,51.19,22.54Z"/><path class="cls-1" d="M55.72,25V20.11H59v.83H56.66v1.26h1.94V23H56.66v2Z"/><path class="cls-1" d="M65.13,25V21.76l-1.26,2.4h-.52l-1.25-2.4V25h-.95V20.11h1l1.44,2.76,1.45-2.77h1V25Z"/><path class="cls-1" d="M70.47,24.15V25H67.09V20.11h3.32v.83H68v1.17h2.05v.76H68v1.27Z"/><path class="cls-1" d="M71.22,25V20.11h2.15a1.39,1.39,0,0,1,.62.14,1.61,1.61,0,0,1,.49.37,1.76,1.76,0,0,1,.33.52,1.58,1.58,0,0,1,.12.59,1.63,1.63,0,0,1-.24.86,1.36,1.36,0,0,1-.65.56L75.15,25H74.08l-1-1.63h-.93V25Zm.95-2.46h1.19a.5.5,0,0,0,.25-.06.62.62,0,0,0,.2-.17.84.84,0,0,0,.13-.25,1,1,0,0,0,0-.31.88.88,0,0,0-.06-.33.82.82,0,0,0-.15-.25.67.67,0,0,0-.21-.16.55.55,0,0,0-.25-.06H72.16Z"/><path class="cls-1" d="M75.78,25V20.11h.95V25Z"/><path class="cls-1" d="M81.39,20.94H79.83v4h-.94v-4H77.33v-.83h4.06Z"/><path class="cls-1" d="M21.83,47.67a1.33,1.33,0,0,1-1,.42A1.54,1.54,0,0,1,20.2,48a1.63,1.63,0,0,1-.53-.38,1.8,1.8,0,0,1-.35-.57,1.88,1.88,0,0,1-.13-.7,1.77,1.77,0,0,1,.49-1.23,1.71,1.71,0,0,1,.54-.38,1.61,1.61,0,0,1,.67-.14,1.63,1.63,0,0,1,.84.21,1.34,1.34,0,0,1,.53.56l-.51.37a.94.94,0,0,0-.37-.4,1,1,0,0,0-.52-.14.88.88,0,0,0-.41.09.94.94,0,0,0-.33.25,1.21,1.21,0,0,0-.2.37,1.39,1.39,0,0,0-.07.44,1.31,1.31,0,0,0,.08.46,1.17,1.17,0,0,0,.22.37,1,1,0,0,0,.33.25.93.93,0,0,0,.41.09,1.19,1.19,0,0,0,.91-.48v-.25h-.66v-.5h1.26v1.79h-.56Z"/><path class="cls-1" d="M23,48.06V44.58h.68v2.89h1.77v.59Z"/><path class="cls-1" d="M27.1,48.09a1.58,1.58,0,0,1-.69-.15,1.7,1.7,0,0,1-.53-.4,1.84,1.84,0,0,1-.47-1.22,1.75,1.75,0,0,1,.13-.65,1.84,1.84,0,0,1,.35-.57,1.71,1.71,0,0,1,.54-.39,1.61,1.61,0,0,1,.68-.14,1.53,1.53,0,0,1,.69.15,1.72,1.72,0,0,1,.53.41,1.86,1.86,0,0,1,.34.57,1.8,1.8,0,0,1,.12.65,1.76,1.76,0,0,1-.13.65,1.8,1.8,0,0,1-.35.56,1.69,1.69,0,0,1-.54.39A1.61,1.61,0,0,1,27.1,48.09Zm-1-1.77a1.39,1.39,0,0,0,.07.43,1.16,1.16,0,0,0,.2.37,1,1,0,0,0,1.52,0,1.19,1.19,0,0,0,.2-.38,1.4,1.4,0,0,0,.07-.42,1.36,1.36,0,0,0-.07-.43,1.21,1.21,0,0,0-.2-.37,1,1,0,0,0-.33-.26,1,1,0,0,0-1.19.26,1.19,1.19,0,0,0-.19.37A1.4,1.4,0,0,0,26.09,46.32Z"/><path class="cls-1" d="M32.12,47.17a.79.79,0,0,1-.33.65,1.13,1.13,0,0,1-.36.17A1.55,1.55,0,0,1,31,48H29.32V44.58h1.86a.69.69,0,0,1,.33.08.82.82,0,0,1,.25.2.93.93,0,0,1,.16.28,1,1,0,0,1,.06.33.94.94,0,0,1-.13.48.77.77,0,0,1-.37.33.9.9,0,0,1,.47.33A.91.91,0,0,1,32.12,47.17Zm-2.13-2V46h.9a.4.4,0,0,0,.29-.12.43.43,0,0,0,.12-.33.45.45,0,0,0-.11-.33.36.36,0,0,0-.27-.12ZM31.44,47a.52.52,0,0,0,0-.18.51.51,0,0,0-.08-.15.4.4,0,0,0-.13-.1.36.36,0,0,0-.16,0H30v.92h1a.44.44,0,0,0,.17,0,.42.42,0,0,0,.14-.09.47.47,0,0,0,.13-.33Z"/><path class="cls-1" d="M33.57,44.58h.6l1.31,3.48h-.7l-.33-.87H33.24l-.33.87h-.67Zm.78,2.14-.48-1.37-.5,1.38Z"/><path class="cls-1" d="M35.88,48.06V44.58h.68v2.89h1.77v.59Z"/><path class="cls-1" d="M39.78,48.06V44.58h2.34v.59H40.46v.9h1.38v.55H40.46v1.44Z"/><path class="cls-1" d="M42.6,48.06V44.58h.68v3.48Z"/><path class="cls-1" d="M44,48.06V44.58h.68v2.89h1.77v.59Z"/><path class="cls-1" d="M49.7,48.06V45.78l-.9,1.72h-.37l-.9-1.74V48h-.68V44.58h.73l1,2,1-2h.72v3.48Z"/><path class="cls-1" d="M52.07,46.3a1.8,1.8,0,0,1,.11-.63,1.69,1.69,0,0,1,.88-1,1.67,1.67,0,0,1,.73-.15,1.59,1.59,0,0,1,.83.21,1.35,1.35,0,0,1,.52.55l-.52.36a.89.89,0,0,0-.17-.25.84.84,0,0,0-.21-.16,1,1,0,0,0-.24-.08l-.24,0a.91.91,0,0,0-.44.1,1,1,0,0,0-.33.27,1.17,1.17,0,0,0-.19.37,1.41,1.41,0,0,0-.06.42,1.35,1.35,0,0,0,.07.44,1.18,1.18,0,0,0,.21.38,1,1,0,0,0,.33.26.88.88,0,0,0,.42.1l.25,0a.93.93,0,0,0,.25-.08.92.92,0,0,0,.21-.16.75.75,0,0,0,.16-.24l.56.33a1,1,0,0,1-.24.35,1.53,1.53,0,0,1-.35.25,1.78,1.78,0,0,1-.42.16,1.81,1.81,0,0,1-.43.06,1.48,1.48,0,0,1-.68-.16,1.77,1.77,0,0,1-.53-.41,1.9,1.9,0,0,1-.35-.57A1.79,1.79,0,0,1,52.07,46.3Z"/><path class="cls-1" d="M57.09,48.09a1.58,1.58,0,0,1-.69-.15,1.7,1.7,0,0,1-.53-.4,1.84,1.84,0,0,1-.47-1.22,1.75,1.75,0,0,1,.13-.65,1.84,1.84,0,0,1,.36-.57,1.71,1.71,0,0,1,.54-.39,1.61,1.61,0,0,1,.68-.14,1.53,1.53,0,0,1,.69.15,1.72,1.72,0,0,1,.53.41,1.86,1.86,0,0,1,.34.57,1.8,1.8,0,0,1,.12.65,1.76,1.76,0,0,1-.13.65,1.8,1.8,0,0,1-.35.56,1.69,1.69,0,0,1-.54.39A1.61,1.61,0,0,1,57.09,48.09Zm-1-1.77a1.39,1.39,0,0,0,.07.43,1.16,1.16,0,0,0,.2.37,1,1,0,0,0,1.52,0,1.19,1.19,0,0,0,.2-.38,1.4,1.4,0,0,0,.07-.42,1.36,1.36,0,0,0-.07-.43,1.21,1.21,0,0,0-.2-.37,1,1,0,0,0-.33-.26,1,1,0,0,0-1.19.26,1.19,1.19,0,0,0-.19.37A1.4,1.4,0,0,0,56.08,46.32Z"/><path class="cls-1" d="M62.15,48.06V45.78l-.9,1.72h-.37L60,45.75V48h-.68V44.58H60l1,2,1-2h.72v3.48Z"/><path class="cls-1" d="M63.55,48.06V44.58H65a1,1,0,0,1,.44.1,1.15,1.15,0,0,1,.35.26,1.25,1.25,0,0,1,.23.37,1.12,1.12,0,0,1,.08.42,1.22,1.22,0,0,1-.08.43,1.19,1.19,0,0,1-.22.37,1.08,1.08,0,0,1-.33.26,1,1,0,0,1-.44.1h-.82v1.17Zm.68-1.76H65a.39.39,0,0,0,.33-.15.63.63,0,0,0,.12-.41.68.68,0,0,0,0-.24.59.59,0,0,0-.1-.18.41.41,0,0,0-.15-.11.44.44,0,0,0-.17,0h-.76Z"/><path class="cls-1" d="M69,47.47v.59H66.61V44.58H69v.59h-1.7V46h1.47v.55H67.27v.91Z"/><path class="cls-1" d="M72.16,45.18H71v2.89h-.67V45.18H69.26v-.59h2.9Z"/><path class="cls-1" d="M72.59,48.06V44.58h.68v3.48Z"/><path class="cls-1" d="M76.6,45.18H75.48v2.89h-.67V45.18H73.7v-.59h2.9Z"/><path class="cls-1" d="M77,48.06V44.58h.68v3.48Z"/><path class="cls-1" d="M79.92,48.09a1.58,1.58,0,0,1-.69-.15,1.7,1.7,0,0,1-.53-.4,1.84,1.84,0,0,1-.47-1.22,1.75,1.75,0,0,1,.13-.65,1.84,1.84,0,0,1,.35-.57,1.71,1.71,0,0,1,.54-.39,1.61,1.61,0,0,1,.68-.14,1.53,1.53,0,0,1,.69.15,1.72,1.72,0,0,1,.53.41,1.86,1.86,0,0,1,.34.57,1.8,1.8,0,0,1,.12.65,1.76,1.76,0,0,1-.13.65,1.8,1.8,0,0,1-.35.56,1.69,1.69,0,0,1-.54.39A1.61,1.61,0,0,1,79.92,48.09Zm-1-1.77a1.39,1.39,0,0,0,.07.43,1.16,1.16,0,0,0,.2.37,1,1,0,0,0,1.52,0,1.19,1.19,0,0,0,.2-.38,1.4,1.4,0,0,0,.07-.42,1.36,1.36,0,0,0-.07-.43,1.21,1.21,0,0,0-.2-.37,1,1,0,0,0-.33-.26,1,1,0,0,0-1.19.26,1.19,1.19,0,0,0-.19.37A1.4,1.4,0,0,0,78.91,46.32Z"/><path class="cls-1" d="M82.81,45.83v2.23h-.68V44.58h.52l1.81,2.29V44.58h.68v3.47H84.6Z"/></g></g></g></g></svg>