<svg xmlns="http://www.w3.org/2000/svg" viewBox="0 0 83.1 45"><title>ali-black</title><g id="Layer_2" data-name="Layer 2"><g id="Layer_1-2" data-name="Layer 1"><path d="M40.43,5.63h5.94l-.07.13a2.86,2.86,0,0,0-.61,1.5c-.06.58-.14,1.15-.2,1.73s-.1,1-.13,1.46c0,.69-.08,1.38-.12,2.07s-.06,1.3-.09,1.94a.94.94,0,0,1,0,.1c-.07,2.42-.07,4.83,0,7.25q0,2.43.06,4.85,0,1.95,0,3.89a5.58,5.58,0,0,0,.06.59l.41,0h2.83c.44,0,.88,0,1.31,0a9.65,9.65,0,0,0,3.5-.77A5.39,5.39,0,0,0,55.14,29l.11-.12,0,0a0,0,0,0,1,0,0l-.88,3.68,0,.1h-2l-9.5.06-6.37,0h-.32c0-.08-.07-.15-.1-.23l-1.5-4.07L32.74,23.6c-.3-.81-.59-1.61-.89-2.41-.14-.38,0-.36-.51-.36H22.42a.34.34,0,0,0-.38.24c-.31.72-.64,1.43-1,2.14-.44,1-.88,1.93-1.31,2.9-.31.7-.64,1.39-.88,2.12a13.82,13.82,0,0,0-.62,2.46,3.83,3.83,0,0,0,0,1.33c0,.15.08.29.11.44l0,.16-.18,0-.73,0H17.1l-2.32,0a10.42,10.42,0,0,0-1.49,0l.17-.22c.54-.68,1.09-1.35,1.61-2a23.11,23.11,0,0,0,1.56-2.39c.63-1.09,1.21-2.21,1.78-3.34,1.25-2.51,2.48-5,3.65-7.57.92-2,1.8-4,2.61-6.08.4-1,.78-2,1.08-3.07a3.86,3.86,0,0,0,.19-1A1.86,1.86,0,0,0,25.74,6l-.14-.29.16,0,1,0h0c.79,0,1.58.1,2.37.06l1.29-.05h.28c0,.09.06.16.08.23.47,1.89,1,3.75,1.58,5.61s1.12,3.54,1.73,5.3q1.11,3.23,2.35,6.42c.72,1.86,1.48,3.7,2.3,5.52.5,1.11,1,2.2,1.58,3.28a.6.6,0,0,0,.16.24l.09-.12A3.42,3.42,0,0,0,41,31.05c0-.43.07-.85.1-1.28q.07-1,.13-2c0-.33,0-.66.05-1,0-.58,0-1.16.07-1.74s.06-1.38.09-2.07q0-1.31.07-2.63,0-1.74.06-3.49c0-.77,0-1.55,0-2.32,0-1.09,0-2.17,0-3.26q0-1.07-.1-2.14a12.41,12.41,0,0,0-.24-1.85,3.42,3.42,0,0,0-.7-1.55ZM27.6,9c0,.08-.09.14-.11.2l-.64,1.4-2.7,5.89-1,2.29c0,.07-.08.13,0,.21.23,0,6.11.07,7.75,0l.2,0a.63.63,0,0,0,0-.14C30.91,18.52,27.7,9.16,27.6,9Z"/><path d="M57.31,5.66c.56,0,1.1.08,1.67,0a.69.69,0,0,0,0-.16,5.24,5.24,0,0,0-.82-1.36l0,0c-.28,0-.55.06-.81.06a1.72,1.72,0,0,1-1.39-.66A4,4,0,0,1,55.52,3c-.25-.46-.5-.92-.79-1.35A5.34,5.34,0,0,0,53.48.31L53,0a.25.25,0,0,1,.17,0H54a6.27,6.27,0,0,1,1.55.16,7.7,7.7,0,0,1,1.7.55,3.28,3.28,0,0,1,1.3,1.05,3.18,3.18,0,0,1,.31.54,1.23,1.23,0,0,1,0,1c-.08.19-.17.36-.27.56l.1.16a5.15,5.15,0,0,1,.79,1.46l0,.12a.15.15,0,0,0,.14.1h1.74c.43,0,.86,0,1.31-.06a1,1,0,0,1,0,.15,12,12,0,0,0-.59,2.71,1.06,1.06,0,0,1,0,.12,1.87,1.87,0,0,0,.2,1.22c.11,0,.15-.08.2-.14a3.74,3.74,0,0,1,.7-.65,4.47,4.47,0,0,1,.56-.33.37.37,0,0,0,.23-.27,2.72,2.72,0,0,1,.49-1.07,2.64,2.64,0,0,1,1.72-1,2.53,2.53,0,0,1,1.19.1l.89.3a2.86,2.86,0,0,0,1.35.15,1.57,1.57,0,0,1-.17.63,3.51,3.51,0,0,1-2,1.85A3,3,0,0,1,66,9.5,5.56,5.56,0,0,1,64.23,9l-.17-.07a3.12,3.12,0,0,0-.82.54,4.39,4.39,0,0,0-.78.92.47.47,0,0,0-.07.33A6.69,6.69,0,0,1,61.94,14a1.58,1.58,0,0,0-.12.61c0,1.62,0,3.23,0,4.85,0,.73,0,1.47,0,2.2a.81.81,0,0,0,.1.38,7.14,7.14,0,0,1,.66,1.74,6.4,6.4,0,0,1-.23,3.7c-.11.3-.24.59-.38.88a1,1,0,0,0-.1.44c0,.4,0,.81,0,1.21s0,.76.09,1.13a3,3,0,0,0,.65,1.43l.15.19v0H57l.08-.13a3.68,3.68,0,0,0,.78-2c0-.47.08-.94.1-1.41,0-.77.07-1.55.1-2.32q0-.64,0-1.29c0-.62,0-1.25.05-1.87s0-1.43,0-2.15a.92.92,0,0,0-.05-.35,6.54,6.54,0,0,1-.41-2.65,1.76,1.76,0,0,0-.14-.78,6.3,6.3,0,0,0-1-1.64l-.1-.13-.22.11a1.92,1.92,0,0,1-1,.26,3.54,3.54,0,0,1-2.79-1.25c-.26-.29-.48-.61-.73-.91a3.5,3.5,0,0,0-2-1.24L49.62,13a2,2,0,0,1,.57-.15c.41-.08.83-.13,1.25-.17a12,12,0,0,1,1.72,0,9.31,9.31,0,0,1,2.19.35,2.88,2.88,0,0,1,1.34.78A1.41,1.41,0,0,1,57,15.45l-.12.23a3.85,3.85,0,0,0,.37.51l.35.5a5,5,0,0,0,.34.53,5.4,5.4,0,0,0,.34-.92c0-.06,0-.12,0-.18,0-1,0-1.92,0-2.88s0-1.75,0-2.63c0-.61,0-1.21-.09-1.82a11.44,11.44,0,0,0-.24-1.7,5.48,5.48,0,0,0-.43-1.21ZM61.95,27a1,1,0,0,0,.08-.15,6.27,6.27,0,0,0,.2-1.84c0-.11,0-.22,0-.33A5.51,5.51,0,0,0,62,23.56s0-.05-.08-.09C61.86,23.76,61.89,26.63,61.95,27Z"/><path d="M2.3,36.16H4.08l.1.23c.49,1.23,1,2.45,1.48,3.68a11.32,11.32,0,0,0,.79,1.61c.09.16.2.31.3.46v0H5.09l-.14,0L4,39.74a15.61,15.61,0,0,0-2,0l0,.06c-.14.43-.29.86-.43,1.29a2.43,2.43,0,0,0-.06.32.76.76,0,0,0,.17.66l.07.1a15.1,15.1,0,0,1-1.74,0l.06-.1a5,5,0,0,0,.81-1.28,33.06,33.06,0,0,0,1.4-3.46c.06-.17.09-.36.14-.54a.66.66,0,0,0-.09-.55Zm1.47,3a1.43,1.43,0,0,0-.16-.49c-.06-.16-.13-.33-.2-.49s-.13-.33-.21-.49a1.94,1.94,0,0,0-.24-.49l-.08.15L2.28,39a.57.57,0,0,0,0,.14,6.72,6.72,0,0,0,1.5,0Z"/><path d="M21.34,41.63a2.68,2.68,0,0,0,1.44-.15,1.36,1.36,0,0,0,.56-.53.9.9,0,0,1,.19-.24l-.29,1.44-.17,0H19.35l.12-.15a1.08,1.08,0,0,0,.27-.66c0-.34,0-.67.06-1,.07-.82,0-1.65,0-2.47a5.52,5.52,0,0,0,0-.88,1.08,1.08,0,0,0-.45-.81,22,22,0,0,1,2.49,0l-.19.17a.9.9,0,0,0-.32.71c-.06,1.35,0,2.71,0,4.07A5.24,5.24,0,0,0,21.34,41.63Z"/><path d="M59.5,42.18H57.23a1.14,1.14,0,0,0,.43-1c.06-1.28,0-2.56,0-3.84,0-.22,0-.44,0-.65a.87.87,0,0,0-.28-.57h2.08l-.07.1a.76.76,0,0,0-.2.51c0,.38,0,.76,0,1.14,0,1.09,0,2.17,0,3.26a2.83,2.83,0,0,0,0,.38A.91.91,0,0,0,59.5,42.18Z"/><path d="M35.42,42.18a8.68,8.68,0,0,1-.87,0l-.08-.42-.16.07a2.37,2.37,0,0,1-1.24.39,1.4,1.4,0,0,1-1.27-.64,2.06,2.06,0,0,1-.32-.76,2.83,2.83,0,0,1,.13-1.68A1.81,1.81,0,0,1,33,38a5.27,5.27,0,0,1,1.2-.16l.29,0c0-.09,0-.17,0-.24,0-.42,0-.84,0-1.26a1.71,1.71,0,0,0-.11-.68,5.13,5.13,0,0,1,.87-.16.45.45,0,0,1,0,.28c0,.17,0,.34,0,.5,0,1.23,0,2.46-.05,3.69,0,.48,0,1,0,1.44A1.5,1.5,0,0,0,35.42,42.18Zm-1-2.28h0v-.2c0-.32,0-.64,0-1a1.9,1.9,0,0,0,0-.3.42.42,0,0,0-.39-.39,1.67,1.67,0,0,0-.38,0,1.55,1.55,0,0,0-1.44,1.15,3,3,0,0,0-.08,1.15,2,2,0,0,0,.2.7,1.41,1.41,0,0,0,1.62.72.57.57,0,0,0,.42-.4,1.51,1.51,0,0,0,.06-.37C34.46,40.63,34.46,40.27,34.46,39.9Z"/><path d="M14.33,37.79a1.11,1.11,0,0,0,0-.16c0-.45,0-.91,0-1.36a1.56,1.56,0,0,0-.11-.65,7.55,7.55,0,0,1,.86-.17.57.57,0,0,1,0,.31c0,.47,0,.94,0,1.41,0,.93,0,1.85,0,2.78,0,.45,0,.89,0,1.34a1.64,1.64,0,0,0,.23.89,6,6,0,0,1-.86,0l-.08-.42-.14.05a2.38,2.38,0,0,1-1.26.41,1.38,1.38,0,0,1-1.08-.41,2,2,0,0,1-.53-1.07,2.92,2.92,0,0,1,0-1.3,2.41,2.41,0,0,1,.31-.71,1.7,1.7,0,0,1,.85-.68,3.35,3.35,0,0,1,.81-.19l.8-.06Zm0,2.09c0-.36,0-.72,0-1.08a2.18,2.18,0,0,0,0-.38.41.41,0,0,0-.4-.38,1.64,1.64,0,0,0-.35,0,1.51,1.51,0,0,0-1.39,1,2.54,2.54,0,0,0,0,1.9,1.36,1.36,0,0,0,1.5.86.65.65,0,0,0,.63-.64s0-.07,0-.1c0-.39,0-.77,0-1.17Z"/><path d="M46.41,35.45c0,.51,0,1,0,1.47a7.29,7.29,0,0,0,0,1.41c.09,0,.12-.12.18-.17a1.66,1.66,0,0,1,1.66-.49,1.13,1.13,0,0,1,.34.16.82.82,0,0,1,.37.71c0,.26,0,.52,0,.78q0,1.09,0,2.17a1.11,1.11,0,0,0,.16.65,2.2,2.2,0,0,1-.83,0c0-.06,0-.13,0-.19,0-.63,0-1.26,0-1.89,0-.38,0-.76,0-1.14a1.51,1.51,0,0,0-.06-.32.84.84,0,0,0-.71-.57h0a.85.85,0,0,0-1,.72,3.58,3.58,0,0,0-.11.8c0,.7,0,1.4,0,2.1a3.54,3.54,0,0,0,.08.5,3.07,3.07,0,0,1-.92,0s0-.09,0-.14a5.93,5.93,0,0,0,.12-.9c.09-1.67,0-3.33,0-5,0-.18,0-.37-.05-.56A6.4,6.4,0,0,1,46.41,35.45Z"/><path d="M52.16,45h-1a2.12,2.12,0,0,0,.2-1c0-.76,0-1.51,0-2.27,0-1.07,0-2.14,0-3.21a1,1,0,0,0-.11-.54,4.47,4.47,0,0,1,.7-.07c.09.13,0,.29.07.42s.12,0,.18-.06.34-.23.52-.31a1.35,1.35,0,0,1,1.54.25,1.91,1.91,0,0,1,.48.7,2.48,2.48,0,0,1,.11,1.58A2.21,2.21,0,0,1,53.43,42a2.91,2.91,0,0,1-1.13.21c-.32,0-.32,0-.33.33s0,.87,0,1.31q0,.19,0,.38A1.38,1.38,0,0,0,52.16,45Zm-.24-5c0,.36,0,.81.06,1.25a.54.54,0,0,0,.46.58,1.41,1.41,0,0,0,1.16-.16,1.33,1.33,0,0,0,.55-.9,2.77,2.77,0,0,0,0-1.1,2,2,0,0,0-.31-.79,1.27,1.27,0,0,0-1.21-.58.59.59,0,0,0-.57.42,1.47,1.47,0,0,0,0,.17A5.87,5.87,0,0,0,51.92,40Z"/><path d="M7.31,42.16a14.4,14.4,0,0,0,.16-2.76c0-.19,0-.39,0-.58a2.44,2.44,0,0,0-.11-1c.24-.08.48,0,.7-.1.12.17,0,.37.12.53.1,0,.14-.1.2-.16a1.78,1.78,0,0,1,.87-.49,1.54,1.54,0,0,1,.73,0,1,1,0,0,1,.7.63,1.58,1.58,0,0,1,.1.57q0,1.35,0,2.7a1.06,1.06,0,0,0,.13.65c-.3,0-.57,0-.84,0a.59.59,0,0,1,0-.29c0-.85,0-1.7,0-2.55a3.54,3.54,0,0,0,0-.6.66.66,0,0,0-.6-.62,1.4,1.4,0,0,0-.77.06.73.73,0,0,0-.49.5,2.11,2.11,0,0,0-.08.47c0,.88,0,1.77,0,2.65a1.92,1.92,0,0,0,.06.34A2.88,2.88,0,0,1,7.31,42.16Z"/><path d="M60.17,37.88l0,0,.07,0,.61,0c.1.16,0,.36.11.51.1,0,.14-.1.19-.15a1.75,1.75,0,0,1,1.32-.54,1,1,0,0,1,1.06,1c0,.27,0,.54,0,.81,0,.7,0,1.4,0,2.1a1.54,1.54,0,0,0,.08.64,2.27,2.27,0,0,1-.79,0,1,1,0,0,1,0-.16c0-.62,0-1.25,0-1.87a8,8,0,0,0,0-1.31,1.44,1.44,0,0,0-.07-.29.62.62,0,0,0-.46-.39,1.46,1.46,0,0,0-.77,0,.76.76,0,0,0-.6.65,9.06,9.06,0,0,0-.08,1c0,.61,0,1.21,0,1.82a4.17,4.17,0,0,0,.07.52h-.84a3.63,3.63,0,0,0,.06-.37c0-.55.08-1.11.1-1.66,0-.4,0-.81,0-1.21A2.9,2.9,0,0,0,60.17,37.88Z"/><path d="M76.17,37.85l.09,0,.63-.06c0,.29,0,.56,0,.82,0,1,0,2,0,3a1,1,0,0,0,.16.62h-.71a.12.12,0,0,1-.12-.13c0-.08,0-.15,0-.23v-.25c-.12,0-.14.08-.18.13a1.44,1.44,0,0,1-.8.54,1.48,1.48,0,0,1-1-.08.91.91,0,0,1-.54-.69,7.31,7.31,0,0,1-.07-1.58c0-.61,0-1.21,0-1.82a1.36,1.36,0,0,0,0-.26l.51-.06c.1,0,.15,0,.16.15a2.17,2.17,0,0,1,0,.23c0,.8,0,1.6,0,2.4a2.48,2.48,0,0,0,0,.5.9.9,0,0,0,.85.76.93.93,0,0,0,1-.64,2.12,2.12,0,0,0,.1-.62c0-.79,0-1.58,0-2.37A3.1,3.1,0,0,0,76.17,37.85Z"/><path d="M31.05,42.18c-.28,0-.54,0-.81,0-.09-.2,0-.43-.18-.63l-.18.23a1.33,1.33,0,0,1-2,.11.86.86,0,0,1-.26-.64.82.82,0,0,1,.23-.57,1.58,1.58,0,0,1,.47-.34l1.16-.56.33-.18a.54.54,0,0,0,.25-.39,2.17,2.17,0,0,0-.08-1,.53.53,0,0,0-.43-.38,1.1,1.1,0,0,0-.48,0,.68.68,0,0,0-.46.4c-.06.13-.12.26-.19.38a.38.38,0,0,1-.5.16.27.27,0,0,1-.17-.32.68.68,0,0,1,.36-.5,1.9,1.9,0,0,1,.39-.16,4.27,4.27,0,0,1,1.38-.11,2,2,0,0,1,.37.05.65.65,0,0,1,.53.68,5.31,5.31,0,0,1,0,.71c-.05.67,0,1.35,0,2a2.29,2.29,0,0,0,.06.52A3.78,3.78,0,0,0,31.05,42.18Zm-1-2.38H30c-.32.13-.64.25-1,.39a1.36,1.36,0,0,0-.35.25.79.79,0,0,0-.23.67.66.66,0,0,0,.45.59,1.13,1.13,0,0,0,.47.05.71.71,0,0,0,.67-.49,1.43,1.43,0,0,0,.09-.52V40c0-.07,0-.13,0-.22Z"/><path d="M39.16,41.28a.73.73,0,0,1-.35.62,2,2,0,0,1-1.73.32,1.53,1.53,0,0,1-.9-.69,2.33,2.33,0,0,1-.35-1.07A3.1,3.1,0,0,1,36,39.12a1.8,1.8,0,0,1,1.5-1.26,1.87,1.87,0,0,1,1.09.11,1.12,1.12,0,0,1,.68,1c0,.21,0,.24-.22.3l-.12,0-.86,0h-.78l-.5,0a.15.15,0,0,0-.16.14,1,1,0,0,0,0,.12,2.72,2.72,0,0,0,.17,1.14,1.43,1.43,0,0,0,2.05.72Zm-2.47-2.13.12,0H37.9a1.14,1.14,0,0,0,.3-.05.3.3,0,0,0,.23-.32.84.84,0,0,0-.6-.76.77.77,0,0,0-.76.23,1.38,1.38,0,0,0-.38.78.48.48,0,0,0,0,.11Z"/><path d="M27.17,41.29a.62.62,0,0,1-.24.52,2,2,0,0,1-2,.33,1.53,1.53,0,0,1-.83-.81,2.57,2.57,0,0,1-.25-1A3.15,3.15,0,0,1,24,39.1a1.79,1.79,0,0,1,1.49-1.24,2,2,0,0,1,1,.06A1.14,1.14,0,0,1,27.24,39c0,.18,0,.23-.2.26a6.24,6.24,0,0,1-.78.08c-.34,0-.67,0-1,0l-.5,0c-.11,0-.15,0-.17.15a1.84,1.84,0,0,0,0,.3,2.59,2.59,0,0,0,.19,1,1.43,1.43,0,0,0,2,.72C26.87,41.49,27,41.39,27.17,41.29Zm-2.46-2.15.16,0h1a1.16,1.16,0,0,0,.3-.05.3.3,0,0,0,.23-.36.84.84,0,0,0-.45-.66.61.61,0,0,0-.44-.07,1.14,1.14,0,0,0-.84,1.13Z"/><path d="M42.17,41.45l.1.14a1.08,1.08,0,0,0,.86.47,1.71,1.71,0,0,0,.58,0,.77.77,0,0,0,.59-.86.79.79,0,0,0-.29-.6,3.51,3.51,0,0,0-.41-.29l-.81-.47a1.5,1.5,0,0,1-.24-.18,1,1,0,0,1-.26-1.18.86.86,0,0,1,.43-.47,1.46,1.46,0,0,1,.65-.19c.34,0,.69,0,1,0l.25,0a2,2,0,0,1,0,.62l-.19-.18A1.14,1.14,0,0,0,43.45,38a.66.66,0,0,0-.4,1,1.47,1.47,0,0,0,.34.36,5.18,5.18,0,0,0,.5.34l.5.3.24.18a1,1,0,0,1,.23,1.4,1.57,1.57,0,0,1-.83.67,1.72,1.72,0,0,1-.57.12,2.84,2.84,0,0,1-1-.11l-.19-.08a.17.17,0,0,1-.1-.16v-.53Z"/><path d="M66.71,37.83a1,1,0,0,1,0,.14v.47l-.14-.12a1.21,1.21,0,0,0-.66-.35,1,1,0,0,0-.47,0,.67.67,0,0,0-.41,1,1.21,1.21,0,0,0,.39.42c.18.13.37.24.55.35s.35.21.51.32a2,2,0,0,1,.31.26.91.91,0,0,1,.24.82,1.28,1.28,0,0,1-.4.74,1.76,1.76,0,0,1-1.06.48,3,3,0,0,1-1-.06l-.24-.07-.18-.09a5.12,5.12,0,0,1,0-.7l.11.16a1.06,1.06,0,0,0,.77.48,1.61,1.61,0,0,0,.67,0,.76.76,0,0,0,.6-.8.82.82,0,0,0-.26-.64,2.46,2.46,0,0,0-.36-.27L65,39.92l-.32-.2a1,1,0,0,1-.43-1.13.87.87,0,0,1,.37-.55,1.43,1.43,0,0,1,.75-.26c.34,0,.67,0,1,0Z"/><path d="M71.11,38.07V37.9c.1-.12.26-.05.38-.1s.06-.14.06-.21c0-.24,0-.49,0-.73,0-.08,0-.17,0-.27l.59-.19a1.9,1.9,0,0,1,0,.19v.91c0,.08,0,.17,0,.26a7,7,0,0,0,.83.06c0,.08,0,.12-.06.15a1.51,1.51,0,0,1-.52.1l-.23,0a1.77,1.77,0,0,0,0,.21c0,.91,0,1.82,0,2.73a1.45,1.45,0,0,0,.09.47.41.41,0,0,0,.55.27c.13,0,.26-.1.39-.15.06.23,0,.28-.11.39a1.45,1.45,0,0,1-.83.27.63.63,0,0,1-.57-.31,1,1,0,0,1-.16-.5q0-.21,0-.43V38.41c0-.29,0-.32-.31-.32Z"/><path d="M69.48,41.58a.42.42,0,0,1-.24.5,1.54,1.54,0,0,1-.72.21.63.63,0,0,1-.62-.39,1.6,1.6,0,0,1-.14-.69q0-1.38,0-2.75c0-.1,0-.2,0-.28s-.26,0-.39-.11a.38.38,0,0,1,0-.16s.08-.06.13-.07l.24,0a2.44,2.44,0,0,0,0-.59c0-.2,0-.4,0-.62l.58-.19c0,.1,0,.17,0,.24v.83a1.54,1.54,0,0,0,0,.18c0,.11,0,.15.16.15h.72A.27.27,0,0,1,69,38a4.09,4.09,0,0,1-.42.05l-.19,0c0,.09,0,.17,0,.25,0,.87,0,1.73,0,2.6a1.8,1.8,0,0,0,.07.5.44.44,0,0,0,.59.31l.21-.08A1.29,1.29,0,0,0,69.48,41.58Z"/><path d="M79.36,37.82a.31.31,0,0,1-.28.22l-.42.05-.17,0c0,.09,0,.18,0,.27q0,1.26,0,2.53a2.41,2.41,0,0,0,0,.43.49.49,0,0,0,.73.4l.29-.15a.35.35,0,0,1-.2.46,1.53,1.53,0,0,1-.74.23.64.64,0,0,1-.64-.4,1.69,1.69,0,0,1-.14-.71q0-1.36,0-2.73c0-.1,0-.2,0-.31l-.38-.05c0-.05,0-.12,0-.16a.3.3,0,0,1,.14-.08h.12l.11,0c.1-.39,0-.8.08-1.21l.55-.18a1.63,1.63,0,0,1,0,.21c0,.29,0,.59,0,.88s0,.31.31.31Z"/><path d="M40.63,42.18H39.7c0-.18.09-.35.11-.52,0-.33.08-.67.08-1q0-.88,0-1.77a2.45,2.45,0,0,0-.16-1,3.26,3.26,0,0,1,.78-.08c.07.16,0,.35.09.51l.15-.15a3.76,3.76,0,0,1,.36-.31.84.84,0,0,1,.63-.12A.33.33,0,0,1,42,38a.2.2,0,0,1-.11.26h-.51l-.35,0a.46.46,0,0,0-.42.35,2.32,2.32,0,0,0-.1.57c0,.44,0,.88,0,1.31s0,.79,0,1.19C40.59,41.85,40.61,42,40.63,42.18Z"/><path d="M15.91,37.87l.15,0,.61,0a2.19,2.19,0,0,1,0,.59c0,.24,0,.47,0,.71,0,.43,0,.86,0,1.29s0,.89.08,1.33c0,.16.05.31.08.47a3.32,3.32,0,0,1-.89,0s0-.09,0-.14a4.86,4.86,0,0,0,.06-.55q0-1.49,0-3C16,38.28,15.92,38.08,15.91,37.87Z"/><path d="M50.57,42.16a3.08,3.08,0,0,1-.89,0,.19.19,0,0,1,0-.07,2.64,2.64,0,0,0,.09-.85V38.86a2.93,2.93,0,0,0-.08-1l.1,0,.15,0,.54,0a2.22,2.22,0,0,1,0,.54,22.18,22.18,0,0,0,0,2.73A6.71,6.71,0,0,0,50.57,42.16Z"/><path d="M70.6,37.79a.88.88,0,0,1,0,.15c0,.23,0,.45,0,.68s0,.27,0,.4c0,.57,0,1.14,0,1.72a6.3,6.3,0,0,0,.15,1.4,2.49,2.49,0,0,1-.92,0,3,3,0,0,0,.1-1.07c0-.77,0-1.55,0-2.32a2.76,2.76,0,0,0-.09-.89,1.07,1.07,0,0,1,.26,0C70.25,37.83,70.42,37.74,70.6,37.79Z"/><path d="M69.77,36.56a3.42,3.42,0,0,1,.6-.4l.34.49a1.43,1.43,0,0,1-.61.42A2.61,2.61,0,0,1,69.77,36.56Z"/><path d="M49.65,36.52l.57-.37a2.43,2.43,0,0,1,.37.53,3.13,3.13,0,0,1-.61.38A1.47,1.47,0,0,1,49.65,36.52Z"/><path d="M16.42,36.13l.24.34.13.2a3.61,3.61,0,0,1-.62.4l-.35-.52C16,36.39,16.22,36.31,16.42,36.13Z"/><path d="M83.08,39.17a.56.56,0,0,1-.33.12l-.86,0h-.76l-.52,0c-.1,0-.13,0-.14.14A2.38,2.38,0,0,0,80.71,41a1.43,1.43,0,0,0,1.83.6c.12-.06.23-.13.35-.2l.12-.08a.24.24,0,0,1,0,.27,1.19,1.19,0,0,1-.25.28,2,2,0,0,1-1.59.39,1.59,1.59,0,0,1-1.25-1.09,3,3,0,0,1-.17-1.49,2.66,2.66,0,0,1,.21-.78,1.77,1.77,0,0,1,1.36-1,2,2,0,0,1,.85,0,1.15,1.15,0,0,1,.93.86A1.22,1.22,0,0,1,83.08,39.17Zm-2.5,0,.13,0h1.11l.22,0a.32.32,0,0,0,.27-.39.86.86,0,0,0-.25-.51.7.7,0,0,0-.57-.22.87.87,0,0,0-.62.35,1.64,1.64,0,0,0-.29.63A.58.58,0,0,0,80.58,39.14Z"/></g></g></svg>