<svg xmlns="http://www.w3.org/2000/svg" viewBox="0 0 204.87 143.94"><defs><style>.cls-1{fill:#fff;}</style></defs><title>AmFilmshow-white</title><g id="Layer_2" data-name="Layer 2"><g id="Layer_1-2" data-name="Layer 1"><path class="cls-1" d="M162.67,88.4,189.4,32.22l.69,0c.63,3.22,1.3,6.44,1.9,9.67q5,27.49,10,55c.76,4.17,1.43,8.35,2.24,12.51.27,1.41-.11,1.94-1.54,1.91-2.65,0-5.3-.12-7.95,0-1.84.09-2.59-.53-2.89-2.4-2.09-13.18-4.29-26.34-6.46-39.5-.07-.4-.2-.79-.44-1.68-.58,1-1,1.65-1.32,2.32q-9.75,20.52-19.48,41a12.5,12.5,0,0,1-.55,1.14c-.38.62-.79,1.22-1.2,1.82a12.4,12.4,0,0,1-1.41-2q-9.51-20.63-19-41.28c-.43-.93-.92-1.83-1.74-3.43-1.07,5.75-2,10.79-2.95,15.82-1.55,8.44-3.08,16.88-4.65,25.31-.5,2.71-.54,2.72-3.22,2.74-2.33,0-4.66,0-7,0-2.62,0-2.69-.12-2.16-2.79q2.79-13.86,5.62-27.71l9.43-46.39a3.91,3.91,0,0,1,.18-.93,11.35,11.35,0,0,1,.78-1.21,4.75,4.75,0,0,1,.81.92c.38.76.64,1.57,1,2.34q11.51,25.13,23,50.25C161.56,86.54,162,87.23,162.67,88.4Z"/><path class="cls-1" d="M0,74.24Q0,57.39,0,40.55c0-3.43,0-3.45,3.53-3.45H35.32c3.42,0,3.42,0,3.43,3.53q0,2.07,0,4.13c0,3.22,0,3.23-3.37,3.23-6.25,0-12.5,0-18.75,0-5.24,0-4.52-.66-4.59,4.53,0,3.18,0,6.36,0,9.53s0,3.17,3.07,3.18c6.57,0,13.14,0,19.7,0,2.93,0,2.95,0,3,2.94,0,1.59,0,3.18,0,4.77,0,3.18,0,3.21-3.13,3.22-6.57,0-13.14,0-19.7,0-2.94,0-3,0-3,2.93,0,9.64,0,19.28,0,28.92,0,3.25,0,3.25-3.38,3.27q-2.7,0-5.4,0c-3.23,0-3.25,0-3.26-3.41Q0,95.53,0,83.14,0,78.69,0,74.24Z"/><path class="cls-1" d="M77.39,74.21q0-16.85,0-33.69c0-3.4,0-3.4,3.51-3.41,2.12,0,4.24.05,6.36,0,1.44,0,2.21.44,2.13,2,0,.84,0,1.69,0,2.54q0,27,0,54c0,.74.07,1.49,0,2.22-.19,1.95.67,2.59,2.58,2.56,5.51-.09,11,0,16.53,0,3.42,0,3.42,0,3.42,3.56,0,1.59,0,3.18,0,4.77-.05,2.54-.07,2.57-2.74,2.58-6,0-12.08,0-18.12,0-3.5,0-7,0-10.49,0-3.15,0-3.17,0-3.18-3.09Q77.38,91.22,77.39,74.21Z"/><path class="cls-1" d="M49.9,87.8c0-7,0-14,0-21,0-2.46,0-2.46,2.42-2.47s4.66.06,7,0c1.68-.08,2.25.62,2.2,2.23-.08,2.43,0,4.87,0,7.31q0,17.15,0,34.31c0,3.14,0,3.15-3.16,3.16-1.91,0-3.81,0-5.72,0-2.67,0-2.68,0-2.69-2.86q0-10.32,0-20.65Z"/><path class="cls-1" d="M36.92,0l9.35,20.25C47,18.92,47.52,18,48,17c2.47-5.16,4.9-10.33,7.39-15.48A6.73,6.73,0,0,1,56.49.19a5.63,5.63,0,0,1,.66,1.36q2.35,12.81,4.63,25.63c.15.83.82,1.91-.81,2.19-2.1.35-3.57-.14-3.83-1.56-.72-4-1.35-7.93-2-11.9-.1-.58-.25-1.15-.53-2.47-2.46,5.15-4.56,9.63-6.74,14.07A19.87,19.87,0,0,1,46.12,30c-.47-.81-1-1.59-1.4-2.43-2.1-4.49-4.17-9-6.79-13.5-.54,2.86-1.09,5.71-1.63,8.57-.25,1.35-.47,2.71-.72,4.07-.48,2.58-1,2.86-3.62,2.64-1.27-.11-1.69-.61-1.43-1.82.4-1.86.77-3.73,1.15-5.6L36.13.16Z"/><path class="cls-1" d="M102.35,132.95c2.28-5.28,4.27-9.95,6.33-14.58.36-.82.89-1.92,1.58-2.15a10.34,10.34,0,0,1,3.42,0,13,13,0,0,1-.53,2.86c-3.13,7.3-6.32,14.57-9.5,21.86a11.56,11.56,0,0,1-.66,1.44,5.59,5.59,0,0,1-.83.87,3.62,3.62,0,0,1-.75-.88c-.9-2.26-1.75-4.55-2.62-6.83l-3.59-9.44-7.12,17.81c-.63-1.2-1.06-1.88-1.36-2.61-3.1-7.43-6.2-14.86-9.22-22.32-.35-.86-1.77-2.06-.06-2.86a3.21,3.21,0,0,1,4.25,1.47c1.59,3.81,3.11,7.65,4.66,11.48.43,1.07.87,2.13,1.52,3.72.64-1.41,1.12-2.37,1.51-3.36,1.56-3.94,3.07-7.9,4.66-11.83a11.26,11.26,0,0,1,1.32-2,14.5,14.5,0,0,1,1.23,2.1c1.52,4,3,7.93,4.46,11.9C101.39,130.55,101.75,131.41,102.35,132.95Z"/><path class="cls-1" d="M200.21,20.07c0-5.79,0-11,0-16.12,0-2.51.34-2.72,2.69-2.64,1.53,0,2,.73,2,2.16,0,8.46,0,16.93,0,25.39a6.69,6.69,0,0,1-.33,1.46,8,8,0,0,1-1.52-1q-8.09-8.07-16.13-16.18c-.79-.8-1.64-1.54-3-2.78,0,4.74,0,8.82,0,12.89,0,1.16,0,2.33,0,3.49-.07,2.3-1.59,3.34-3.72,2.38a2.3,2.3,0,0,1-.9-1.72c-.11-1.9,0-3.81,0-5.71,0-6.56,0-13.12,0-19.68a7.59,7.59,0,0,1,.54-1.93,10.28,10.28,0,0,1,1.5,1.05q8.52,8.53,17,17.09C198.72,18.72,199.2,19.13,200.21,20.07Z"/><path class="cls-1" d="M61.5,142.9a14,14,0,0,1-14.32-13.52c-.11-7.59,6.34-13.83,14.33-13.86,7.83,0,14.26,6,14.3,13.53C75.86,136.72,69.51,142.87,61.5,142.9Zm9.76-13.69a9.56,9.56,0,0,0-9.65-9.63A9.81,9.81,0,0,0,51.66,129a9.94,9.94,0,0,0,9.9,9.83A9.6,9.6,0,0,0,71.26,129.21Z"/><path class="cls-1" d="M94.15,18.44c0,2.8-.05,5.59,0,8.39,0,1.61-.26,2.61-2.21,2.52-2.21-.1-2.46-.18-2.47-2.59,0-7.61,0-15.23,0-22.84,0-1.85.45-2.82,2.47-2.66,2.32.18,4.67.08,7,.43,3.9.59,6.32,3,6.88,6.45.62,3.84-.7,6.83-4.31,8.68-1.74.89-1.2,1.44-.38,2.49,2.14,2.75,4.21,5.56,6.31,8.35.78,1,.84,1.58-.76,1.72-2.54.23-4.39-.42-5.83-2.73-1.82-2.91-4-5.6-6-8.38Zm0-8.78h0a17,17,0,0,0,0,2.85c.08.49.71,1.33,1,1.29A15.17,15.17,0,0,0,100,12.6c1.43-.77,1.65-3.42.82-4.91-.73-1.32-3.53-2.42-5.38-2-2.16.45-.88,2.22-1.23,3.37A2.29,2.29,0,0,0,94.17,9.66Z"/><path class="cls-1" d="M25,29.34c-1.6.37-2.32-.65-3-2.19-2.53-5.39-.91-4.31-6.86-4.46l-1.9,0a9.88,9.88,0,0,0-4.56.75c-1.24.65-2.12,1.8-3,3.82a3.76,3.76,0,0,1-4.86,2c-.3-.12-.52-.77-.53-1.17s.32-.76.51-1.14Q6.83,14.38,12.92,1.84A10,10,0,0,1,14.21.18a11.58,11.58,0,0,1,1,1.54q5.84,12.49,11.64,25C28,29.19,27.92,29.33,25,29.34ZM14,9.65c-1.35,2.84-2.45,5.08-3.44,7.37-.11.26.4,1.15.65,1.16a45.16,45.16,0,0,0,5.37,0c.29,0,.87-.89.76-1.14C16.41,14.75,15.33,12.5,14,9.65Z"/><path class="cls-1" d="M173.19,29.33c-1.7.39-2.79-.5-3.25-2.31-.88-3.5-3-5-6.65-4.32a4.37,4.37,0,0,1-1.58,0c-4.21-.76-7,.6-8.28,4.95C153,29.21,150,30,148.66,29.12a1.27,1.27,0,0,1-.35-1,3.59,3.59,0,0,1,.46-1.17q6.06-12.57,12.15-25.12a8.89,8.89,0,0,1,1.31-1.6,10.79,10.79,0,0,1,1,1.5Q169.16,14.35,175,27C176.08,29.32,176,29.34,173.19,29.33ZM162.1,9.7c-.75,1.45-1.25,2.26-1.6,3.13-.69,1.72-1.3,3.47-1.95,5.21,1.88.08,3.77.12,5.65.24,1.56.1,1.48-.65,1-1.7C164.26,14.48,163.31,12.38,162.1,9.7Z"/><path class="cls-1" d="M22.25,129.24c0-3.6.05-7.2,0-10.8,0-1.72.51-2.41,2.36-2.44,2,0,2.24,1,2.19,2.56-.06,2,0,4,0,6,0,1.24.51,1.68,1.7,1.67q4-.06,7.94,0c1.25,0,1.66-.57,1.64-1.74,0-2.22,0-4.45,0-6.67,0-1.69,1-1.8,2.27-1.81s2.25.27,2.24,1.88q0,11.28,0,22.56c0,1.89-1.14,1.89-2.52,1.94-1.55.06-2-.62-2-2.08.06-2.65,0-5.3,0-7.94,0-1.39-.28-2.21-1.91-2.15-2.54.08-5.09.08-7.62,0-1.47,0-1.78.68-1.76,1.94,0,2.75-.05,5.51,0,8.26,0,1.59-.74,2-2.14,2s-2.44-.24-2.39-2.06c.08-3.71,0-7.41,0-11.12Z"/><path class="cls-1" d="M67.9,14.9c0-3.71.06-7.41,0-11.12,0-1.68.32-2.52,2.25-2.47,3.91.11,7.83,0,11.75,0,1.56,0,2.29.48,2.26,2.21s-.78,2.16-2.32,2.11c-2.43-.07-4.87.06-7.3,0-1.57-.06-2.1.58-1.95,2.05.05.52,0,1.06,0,1.59,0,2.6,0,2.63,2.6,2.67,2.22,0,4.45.06,6.67,0,1.54,0,2,.67,2,2.11s-.31,2.28-1.9,2.26c-2.33,0-4.67.13-7,0-2-.13-2.62.68-2.45,2.58a31.7,31.7,0,0,1,0,4.44c-.07,1.37.47,1.88,1.85,1.85,2.54-.07,5.08,0,7.62,0,1.43,0,2.1.41,2.11,2s-.4,2.33-2.12,2.3c-4-.07-8,0-12.07,0-1.51,0-2.05-.6-2-2.07.05-4.13,0-8.26,0-12.39Z"/><path class="cls-1" d="M162.55,142.4c-1.54.31-2.51-.56-2.86-2.08-.84-3.71-3.24-4.83-6.75-4.25a2.06,2.06,0,0,1-.63,0c-3.95-.59-6.94.26-8.11,4.69-.43,1.63-2.48,2.19-4.21,1.52a1.34,1.34,0,0,1-.64-1.1,6.16,6.16,0,0,1,.72-1.74l10.77-22.27c.23-.48.44-1,.71-1.41.58-1,1.12-.76,1.58.11.15.28.26.58.39.87Q159,128.36,164.38,140C165.4,142.21,165.22,142.43,162.55,142.4ZM152.27,124c-.63,1.25-1.12,2.06-1.46,2.92-.65,1.61-1.23,3.26-1.83,4.89l5.3.23c.1,0,.27,0,.3,0,.27-.39.83-.93.73-1.18C154.42,128.63,153.41,126.49,152.27,124Z"/><path class="cls-1" d="M137.59.53a60.2,60.2,0,0,1,6,1.64,3,3,0,0,1,1.44,2.06,11.09,11.09,0,0,1-.28,3.08c-.86-.31-1.75-.57-2.58-1C137.15,4,131.91,5.14,128.89,9.3a10.66,10.66,0,0,0,.06,12.18A10.47,10.47,0,0,0,140.6,25c.5-.18,1-.46,1.45-.63,1-.34,2.55-1.19,2.86-.86,1.16,1.21-.06,4.48-1.71,5.2a15.62,15.62,0,0,1-16.78-3.14,14,14,0,0,1-3.3-15.19C125.51,4.39,130.85.86,137.59.53Z"/><path class="cls-1" d="M189.3,129.14c0-3.5,0-7,0-10.49,0-2.55.07-2.59,2.71-2.61,3.39,0,6.78,0,10.17,0,1.37,0,2.46,0,2.47,1.94s-1.1,2.18-2.64,2.14c-2-.06-4,.09-6,0s-2.2.94-2.19,2.53c0,3,0,3.2,2.08,3.28s4.24.07,6.35,0c1.5,0,2,.6,2,2.1s-.58,2.11-2.06,2.08c-2.12,0-4.24,0-6.36,0-1.5,0-2,.63-2.05,2.09-.39,6.13-.44,6.13,5.56,6.16,1.06,0,2.12.05,3.18,0,1.41-.08,2.17.34,2.14,1.95,0,1.42-.41,2.16-2,2.13q-5.72-.09-11.44,0c-1.59,0-2-.72-2-2.13C189.33,136.56,189.3,132.85,189.3,129.14Z"/><path class="cls-1" d="M184.68,134.41a8.29,8.29,0,0,1-6.88,8.32c-4.52.88-8.57-1.18-10.06-5.22-.37-1-1.26-2.19.47-2.9,2-.83,2.93-.57,3.64,1.23a4.16,4.16,0,0,0,4.09,2.93,4,4,0,0,0,3.86-2.31,3.65,3.65,0,0,0-1.42-5,55.43,55.43,0,0,0-5.15-2.45c-2.72-1.29-4.83-3-4.91-6.38a6.32,6.32,0,0,1,2.74-5.43,8.75,8.75,0,0,1,11.56.91c.6.64,1.63,1.26.68,2.38s-2.65,1.5-3.49.64c-1.21-1.26-2.64-2-4.24-1.38A4.94,4.94,0,0,0,173,122.2c-.52,1.35.58,2.34,1.84,2.9,1.84.82,3.74,1.5,5.51,2.45C183.42,129.18,184.67,131.3,184.68,134.41Z"/><path class="cls-1" d="M8.81,142.89a8.27,8.27,0,0,1-8.31-6.06c-.24-.92-.61-2.08.85-2.19,1.15-.09,2.75-1.58,3.41.69a4.21,4.21,0,0,0,3.36,3.38,4.23,4.23,0,0,0,4.74-2.33,3.72,3.72,0,0,0-1.49-5c-1.23-.79-2.7-1.19-4-1.89a20.69,20.69,0,0,1-4.24-2.69,6,6,0,0,1-.43-8.32,8.83,8.83,0,0,1,12.73-.6c.63.65,2,1.31.94,2.6a2.8,2.8,0,0,1-3.77.47,7.85,7.85,0,0,0-3.06-1.35,3.44,3.44,0,0,0-3.63,2.47c-.27,1.68.87,2.51,2.16,3.11,1.53.71,3.16,1.22,4.67,2,4.12,2,5.78,5.31,4.79,9.27A8.54,8.54,0,0,1,8.81,142.89Z"/><path class="cls-1" d="M114.87,129.35a14.14,14.14,0,0,1,19.85-12.72c1.48.67,2.47,3.5,1.59,4.8-.16.24-.92.27-1.3.12-1.17-.46-2.25-1.2-3.45-1.55a9.47,9.47,0,0,0-10.94,4.33,9.94,9.94,0,0,0,1,11.26,9.83,9.83,0,0,0,11.61,2.2,1.3,1.3,0,0,1,.28-.15c1-.2,1.75-2.17,2.81-.6.93,1.37,0,4-1.45,4.6C124.15,146.24,114.32,137.79,114.87,129.35Z"/><path class="cls-1" d="M48.2,45.07A7.35,7.35,0,0,1,55.95,38a7.2,7.2,0,0,1,7.11,7.35,7.08,7.08,0,0,1-7.37,7.05A7.26,7.26,0,0,1,48.2,45.07Z"/><path class="cls-1" d="M117.06,15.54c0,3.91,0,7.82,0,11.74,0,1.41-.32,2.22-1.95,2.07-1.35-.12-2.77.24-2.75-2q.11-12.05,0-24.1c0-1.9,1.05-1.94,2.44-2,1.6-.05,2.29.53,2.26,2.2-.08,4,0,8,0,12.05Z"/></g></g></svg>