<svg xmlns="http://www.w3.org/2000/svg" viewBox="0 0 43 49.75"><defs><style>.cls-1,.cls-2{fill:#fff;}.cls-1{fill-opacity:0;}</style></defs><title>AP-white</title><g id="Layer_2" data-name="Layer 2"><g id="Layer_1-2" data-name="Layer 1"><g id="Layer_2-2" data-name="Layer 2"><g id="Layer_1-2-2" data-name="Layer 1-2"><path class="cls-1" d="M0,44.38V0H43V44.38c-.27,0-.55,0-.82,0H.82C.55,44.34.27,44.37,0,44.38ZM16,11.71H9.75L2.5,33.49H8l4.74-14.72h.13l2.18,6.82H12l-1.35,4.6h5.89l1.08,3.28h5.66ZM30.59,27.17c1.3-.14,2.54-.16,3.73-.41a7.22,7.22,0,0,0,4.75-3,7.53,7.53,0,0,0,1.18-3.61,7.93,7.93,0,0,0-.95-4.83c-1.56-2.6-4.07-3.52-6.9-3.64-2.63-.11-5.28,0-7.92,0-.24,0-.49,0-.78.05V33.48h5.42V16.14c1,.07,1.82.14,2.69.18a3,3,0,0,1,2.86,2.5c.19,1.85-.6,3.09-2.25,3.47-.59.14-1.2.21-1.82.32Z"/><path class="cls-2" d="M0,44.38c.27,0,.55,0,.82,0H42.17c.27,0,.55,0,.82,0v5.37H0Z"/><path class="cls-2" d="M16,11.71l7.25,21.77H17.61l-1.08-3.28H10.65L12,25.58h3.06l-2.18-6.81h-.12L8,33.49H2.5L9.75,11.71Z"/><path class="cls-2" d="M30.59,27.16V22.6c.63-.11,1.24-.18,1.82-.32,1.65-.39,2.44-1.63,2.25-3.47a3,3,0,0,0-2.86-2.5c-.86,0-1.71-.11-2.69-.18V33.48h-5.4V11.71c.28,0,.52-.05.78-.05,2.64,0,5.28-.09,7.92,0,2.83.12,5.35,1,6.9,3.64a7.93,7.93,0,0,1,.95,4.83,7.53,7.53,0,0,1-1.18,3.61,7.15,7.15,0,0,1-4.75,3A37.54,37.54,0,0,1,30.59,27.16Z"/></g></g></g></g></svg>