<svg xmlns="http://www.w3.org/2000/svg" viewBox="0 0 311.36 181.47"><title>bbc-radio</title><g id="Layer_2" data-name="Layer 2"><g id="Layer_1-2" data-name="Layer 1"><path d="M0,0H92.35V87H1.69c-.56,0-1.13.05-1.69.08ZM24.35,74.83c.35,0,.63.06.9.06,7.74,0,15.49.05,23.23,0a29.31,29.31,0,0,0,11.59-2.38C66.36,69.73,70.16,65,70.41,58s-3.18-11.79-9.26-14.87c-1.31-.66-2.7-1.15-4.05-1.73,0,0,0-.08.06-.1l.93-.57a13.19,13.19,0,0,0,6.06-7.47,15.34,15.34,0,0,0-6.21-17.41c-4.12-2.76-8.77-3.68-13.63-3.7-6.32,0-12.65,0-19,0-.31,0-.63,0-1,.07Z"/><path d="M0,108.51l17,0c5.07,0,10,.55,14.62,3,7.09,3.73,10.2,9.82,10.06,17.65-.15,8-4,13.64-11.34,16.89a5.22,5.22,0,0,0-.51.31l1.55,1.2c4.55,3.56,7.71,8.26,10.82,13,4,6.14,8.1,12.22,12.16,18.32.2.3.43.58.76,1,.23-.49.41-.86.57-1.25Q70.47,144.08,85.2,109.5a1.87,1.87,0,0,1,2.13-1.4,36.14,36.14,0,0,0,4.5,0,1.61,1.61,0,0,1,1.82,1.14q8.89,20.17,17.85,40.31l13.1,29.52c.18.4.34.8.61,1.42h-4.62c-1.62,0-3.25,0-4.86,0a1.32,1.32,0,0,1-1.44-1c-2.88-6.43-5.81-12.83-8.69-19.26a1.43,1.43,0,0,0-1.53-1q-14.23,0-28.46,0a1.38,1.38,0,0,0-1.49,1c-2.7,6.37-5.47,12.72-8.16,19.09a1.55,1.55,0,0,1-1.7,1.1q-9.91-.06-19.83,0a1.9,1.9,0,0,1-1.85-1c-4.27-6.6-8.48-13.24-12.95-19.7a53.6,53.6,0,0,0-6.49-7.36,11,11,0,0,0-8.3-3.16c-1.45,0-2.91,0-4.51,0v31.2H0ZM10.38,140.2c4-.25,7.95-.2,11.79-.82,5.46-.88,8.36-4.37,8.89-9.86.56-5.8-2.34-10-7.92-11.4-4.19-1.07-8.45-.56-12.76-.69Zm68.23,9.72h22.28L89.32,124Z"/><path d="M213,86.92V.09h92.24V86.92Zm74-28.8c-.71.41-1.19.69-1.67,1a45.26,45.26,0,0,1-13.16,5.51c-7.9,1.87-15.6,1.59-22.92-2.3C236.74,55.63,235,38.66,244,29.16c4.84-5.14,11-7.46,17.92-7.75,7.79-.33,14.95,1.9,21.76,5.5l2.68,1.39c0-3.8,0-7.4,0-11a1.2,1.2,0,0,0-.65-.84c-1.19-.51-2.41-.93-3.63-1.37-7.63-2.76-15.43-4.36-23.59-3.42-9.2,1.06-17.31,4.43-23.58,11.48-12.41,14-10.49,36.08,7.11,47.1a36.53,36.53,0,0,0,17.24,5.29,51.61,51.61,0,0,0,27.09-5.26,1.38,1.38,0,0,0,.69-1C287,65.68,287,62,287,58.11Z"/><path d="M106.56,86.94V.08H198.8V86.94Zm24.2-12.12c.37,0,.61.06.85.06,7.82,0,15.65.06,23.47,0a29.14,29.14,0,0,0,11.36-2.33c6.16-2.67,10-7.22,10.42-14,.44-7-2.92-12.1-9.13-15.29C166.4,42.54,165,42,163.5,41.4l1-.6a13.17,13.17,0,0,0,6.07-7.45,15.3,15.3,0,0,0-6.24-17.49c-4.13-2.75-8.78-3.66-13.64-3.68-6.28,0-12.57,0-18.85,0-.35,0-.7,0-1.09.08Z"/><path d="M272.88,107.46c9.45.25,18.17,2.63,25.49,8.79,9.7,8.15,13.74,18.8,12.87,31.31a35,35,0,0,1-11,23.53,37.11,37.11,0,0,1-21,9.87,41.65,41.65,0,0,1-22.08-2.38c-12.3-5-19.85-14.18-22.31-27.2a35.57,35.57,0,0,1,7.75-30.4c5.83-7.08,13.48-11.13,22.46-12.67C267.63,107.86,270.27,107.73,272.88,107.46Zm-.45,9.62c-1.19.11-2.73.2-4.25.41-15.44,2.13-25.46,15.59-23,31.32,1.83,11.85,8.9,19.38,20.53,22.27a28.48,28.48,0,0,0,23-3.67c13.13-8.4,15.08-25.6,8.47-36.86C291.7,121.29,283.2,117.41,272.43,117.08Z"/><path d="M133.89,108.59c.34,0,.54,0,.74,0,9.48,0,19-.06,28.45.06a38.84,38.84,0,0,1,19.86,5.22c10.05,6,15.49,15.1,16.78,26.61,1.31,11.7-2.42,21.75-10.89,29.91a35.38,35.38,0,0,1-20.9,9.67,84.94,84.94,0,0,1-9.33.46c-7.74.06-15.48,0-23.22,0h-1.49Zm10.38,9.25v53.31c.32,0,.56.07.8.07,5.47,0,10.95,0,16.42,0,5.89-.08,11.55-1.25,16.48-4.64,7.81-5.36,11.26-13.07,11.34-22.34.06-7.17-2.13-13.58-7.35-18.7s-11.53-7.12-18.51-7.47c-5.66-.28-11.35-.15-17-.2Z"/><path d="M211.28,108.61h11.63v71.81H211.28Z"/><path d="M35.54,65.09V48.33c.11-.07.17-.16.24-.16,5.13.09,10.29-.49,15.39.49a14.19,14.19,0,0,1,3,1c3.29,1.45,4.88,3.88,4.78,7.17a7.39,7.39,0,0,1-5.24,7.14A17.14,17.14,0,0,1,48.75,65C44.39,65.19,40,65.09,35.54,65.09Z"/><path d="M35.53,38.28V22.12c1.19,0,2.35,0,3.51,0,2.39.06,4.79,0,7.16.27,4.26.44,6.78,2.82,7.07,6.4.36,4.4-1.69,7.56-5.95,8.64a39,39,0,0,1-6.72.81C39,38.38,37.29,38.28,35.53,38.28Z"/><path d="M142,48.09c5.32.26,10.59-.47,15.8.6a14,14,0,0,1,2.87,1c3.29,1.47,4.89,3.93,4.72,7.33a7.23,7.23,0,0,1-5.19,6.92,24.06,24.06,0,0,1-6.39,1.22c-3.72.2-7.45.07-11.18.07a5.74,5.74,0,0,1-.63-.07Z"/><path d="M142,38.4V22.1c4.26.22,8.52-.5,12.68.72,2.8.82,4.63,2.61,4.95,5.64s-.25,6.09-3.24,7.78a13.75,13.75,0,0,1-5,1.69C148.34,38.3,145.21,38.26,142,38.4Z"/></g></g></svg>