<svg xmlns="http://www.w3.org/2000/svg" viewBox="0 0 105.28 68.14"><defs><style>.cls-1{fill:#ef5035;}</style></defs><title>bff-laurel-red</title><g id="Layer_2" data-name="Layer 2"><g id="Layer_1-2" data-name="Layer 1"><g id="Layer_2-2" data-name="Layer 2"><g id="Layer_1-2-2" data-name="Layer 1-2"><path class="cls-1" d="M81,4.51A4.31,4.31,0,0,1,80.13.11a3.12,3.12,0,0,1,2.62,3.23c-.13,1.91.94,2.53,2.37,3,.07,0,.17,0,.26,0-.51-2.6-.48-2.88.39-4.24a3.38,3.38,0,0,1,1.89,4c-.37,1.61.33,2.41,1.57,3.07.16.09.31.22.66.45a4.89,4.89,0,0,1,.79-4.4c1.81.89,2,2.25,1,5.94.23.26.5.52.74.82a5,5,0,0,0,1,1.09c.33-1.64.58-3.12,2.1-4.17.93,1.38,1.37,2.92.54,4.22-1.1,1.73-.48,2.95.52,4.26l.18.15a4.83,4.83,0,0,1,2.54-3.93A3.63,3.63,0,0,1,99.62,17a6.3,6.3,0,0,1-1.17,2,1.31,1.31,0,0,0-.27,1.56c.27.61.52,1.22.89,2.08a4.71,4.71,0,0,1,3.06-3.75,3.36,3.36,0,0,1-.91,4.53c-1.5,1.18-1.47,2.37-.77,4a5.38,5.38,0,0,1,3.82-2.78,3.48,3.48,0,0,1-.89,3.6,5.35,5.35,0,0,1-1.57,1.24,1.54,1.54,0,0,0-1,2.09,9.1,9.1,0,0,1,.18,1,5.53,5.53,0,0,1,4.21-1.95,4.14,4.14,0,0,1,0,1.06,4.59,4.59,0,0,1-3.16,3.3c-1,.3-1.46.77-1.41,1.8a7.84,7.84,0,0,1-.23,1.4,5.06,5.06,0,0,1,4.75-1.57,3.38,3.38,0,0,1-1.7,2.91,8.68,8.68,0,0,1-2.12.89c-1.7.48-1.71.45-1.89,2.29,2.95-.83,3.08-.83,4.85-.14a4.94,4.94,0,0,1-2.66,2.62,3.64,3.64,0,0,1-1.67.37c-1.78-.24-2.51.74-2.89,2.25,2.33-.75,3.13-.69,5.07.4a4.25,4.25,0,0,1-3.37,2.29,7.25,7.25,0,0,1-2,0c-1.61-.16-1.78-.08-2.56,1.64a6.33,6.33,0,0,1,4.94,1.31c-2.19,2.51-4.67,1.88-7.25.89l-1.67,1.56a21.55,21.55,0,0,1,2.73.64,3.66,3.66,0,0,1,2.16,1.69c-1.71,1.46-3.53,1.35-5.42.62a5.68,5.68,0,0,1-.66-.3c-1.42-.77-1.42-.77-2.87.49a7.26,7.26,0,0,1,4.39,3.14,4.59,4.59,0,0,1-3.87.55,6,6,0,0,1-2.15-1.15c-1.07-1.09-2.06-1-3.3-.13A6.45,6.45,0,0,1,85.06,65c-2.18,1.27-4.26.44-7.06-2.78a22.8,22.8,0,0,0-12.07,5.9l-1-1a8.83,8.83,0,0,1,3.7-2.9,56.51,56.51,0,0,1,6.83-2.71,2.11,2.11,0,0,0,1.78-2A5.07,5.07,0,0,1,80,55.22a5.57,5.57,0,0,1,.78-.28c.94,1.49.66,3.09-.87,5.45,1.93-.37,2-.41,1.93-2.25a5.36,5.36,0,0,1,2-4.84,2.62,2.62,0,0,1,.48-.3.75.75,0,0,1,.28,0c1,1.69,1,3-.13,5.57.35-.21.59-.33.81-.48,1.22-.78,1.23-.78.85-2.17a5.15,5.15,0,0,1,.68-4.59,11.87,11.87,0,0,1,1.12-1.2A5.57,5.57,0,0,1,89,55c1.41-.37,1.64-.74,1.1-2-.74-1.82-1-3.62.14-5.38.13-.2.3-.36.56-.68a5.61,5.61,0,0,1,1.85,4.66c1.43-.86,1.55-1.23.74-2.46-1.07-1.61-1.58-3.3-.74-5.17a7.35,7.35,0,0,1,.5-.78,6,6,0,0,1,2.42,4.91l1.29-2.18c-1.8-1.83-3.48-3.65-2.24-6.63a5.33,5.33,0,0,1,3.28,4.34l.3-.82c.57-1.51.57-1.51-.7-2.6-1.12-1-2.12-2-2.13-3.6a12.16,12.16,0,0,1,.14-1.36c1.86.44,2.65,1.12,3.93,3.33.07-.33.14-.59.2-.86.33-1.48.33-1.49-1.05-2.18a4.87,4.87,0,0,1-3-3.81,1.64,1.64,0,0,1,0-.43,2.05,2.05,0,0,1,.22-.43,5.7,5.7,0,0,1,4.28,2.72v-.83c0-1.74,0-1.73-1.62-2.31A4.53,4.53,0,0,1,95,26.55a4.65,4.65,0,0,1,4.71,2.18c-.08-.6-.11-.89-.15-1.17s-.11-.66-.18-1a1.1,1.1,0,0,0-1.06-1,12.23,12.23,0,0,1-2-.4,3.54,3.54,0,0,1-2.53-2.67c1.17-.7,1.86-.63,4.52.52-.15-.53-.27-1-.41-1.42a1.17,1.17,0,0,0-1.31-.88,11.63,11.63,0,0,1-1.59,0,4.37,4.37,0,0,1-3.51-2.34,4.49,4.49,0,0,1,5.19.5l-1.72-3c-2.29.86-4.43,1.23-6.2-1.09a4.56,4.56,0,0,1,5-.51l-2.06-2.39c-3.23,1.48-4.71,1.46-6.29-.13a5.44,5.44,0,0,1,4.33-1.53l-2-1.7c-1.9,1.23-3.74,2.66-6,1,1-1.56,2.05-2,4.31-2.06-.36-.25-.62-.46-.9-.62-1.66-1-1.66-1-3.15.33a3.57,3.57,0,0,1-4.33.66A4.31,4.31,0,0,1,81.73,5.3l-.66-.77Z"/><path class="cls-1" d="M24.35,4.51l-.66.76a4.39,4.39,0,0,1,4.08,2.64,3.22,3.22,0,0,1-2.89.19,5.4,5.4,0,0,1-1.25-.71C23.07,7,22.48,6.12,22,6.18a6.87,6.87,0,0,0-2.52,1.24,4.72,4.72,0,0,1,4.17,1.92c-1.25,1.48-2.39,1.36-6-.71L15.59,10.2a5.77,5.77,0,0,1,4.33,1.58c-1.38,1.59-3.19,1.64-6.26.13l-2.09,2.4a4.5,4.5,0,0,1,4.91.43c-1,1.93-2.64,2.27-6.05,1.22L8.69,18.9a4.47,4.47,0,0,1,5.18-.51,4.29,4.29,0,0,1-3.31,2.33,6.73,6.73,0,0,1-.86,0c-2.07,0-2.16.08-2.53,2.34,1.4-.82,2.79-1.38,4.5-.73a3.56,3.56,0,0,1-2.44,2.77,6.41,6.41,0,0,1-1.83.39A1.4,1.4,0,0,0,5.93,27c-.06.47-.16.94-.3,1.7A5.24,5.24,0,0,1,10.3,26.5a3.83,3.83,0,0,1-2,3.36,4.16,4.16,0,0,1-.91.43c-2.16.83-2.16.82-2,3.28a20.47,20.47,0,0,1,1.89-1.85,4,4,0,0,1,2.53-.8,4.25,4.25,0,0,1-1.38,3.56,10,10,0,0,1-1.68,1.11c-1.22.66-1.25.66-1,2,.07.33.15.66.22,1a14.69,14.69,0,0,1,1.52-2A16.82,16.82,0,0,1,9.74,35a3.68,3.68,0,0,1-.48,3.86,9,9,0,0,1-1.53,1.52c-1.07.91-1.09.9-.62,2.15.11.3.24.6.42,1.08a5.3,5.3,0,0,1,3.1-4.24c1.4,2.29.46,4-2,6.59l1.21,2.12a6.34,6.34,0,0,1,2.36-4.83A3.77,3.77,0,0,1,13,47,6.47,6.47,0,0,1,12.11,49c-.81,1.31-.83,1.42.26,2.58.13.13.28.25.59.52a5.36,5.36,0,0,1,1.64-5.21,4.85,4.85,0,0,1,1.31,3.93,11.85,11.85,0,0,1-.57,2.09c-.52,1.44-.5,1.5,1.1,2.29a5.6,5.6,0,0,1,.89-4.91,4.58,4.58,0,0,1,2,5.19c-.4,1.88-.4,1.88,1.68,3.1a5.26,5.26,0,0,1-.24-5.79,5.18,5.18,0,0,1,2.72,3.77,12.07,12.07,0,0,1,0,1.44c0,1.88,0,1.88,2.07,2.52-1.24-1.76-1.92-3.5-1.15-5.65a5,5,0,0,1,3.37,3,1.76,1.76,0,0,1,.2.69c-.06,2.14,1.19,2.87,3.09,3.33a21.71,21.71,0,0,1,7.53,3.53c.62.45,1.17,1,1.89,1.59l-1.06,1.13a22.71,22.71,0,0,0-12.12-5.86c-3,3.25-4.8,4-7.09,2.78A6.42,6.42,0,0,1,24,61.51c-1.45-1.11-1.57-1.1-3,0-1.64,1.18-3.36,1.91-5.39,1.07a7.33,7.33,0,0,1-.71-.4,6.38,6.38,0,0,1,4.23-3.06c-1.14-1.34-1.31-1.36-2.69-.62-2,1.09-4.08,1.35-6.07-.16.75-1.48,2.58-2.35,4.94-2.47a12.39,12.39,0,0,1-1.22-1,1.17,1.17,0,0,0-1.41-.27,10.33,10.33,0,0,1-2.66.56c-1.59.09-2.4-.33-3.75-1.71a5.72,5.72,0,0,1,4.84-1.25c-.5-1.58-.95-1.88-2.29-1.71a5.69,5.69,0,0,1-4.53-.95A14.32,14.32,0,0,1,3,48.28,4.8,4.8,0,0,1,8.39,48c-.27-.59-.46-.95-.59-1.31A1.57,1.57,0,0,0,6,45.61a5,5,0,0,1-4.63-2.39,3.86,3.86,0,0,1-.28-.69c1.69-.84,3.23-.36,4.76.28-.06-1.87-.07-1.87-1.79-2.38C2.66,40,1.27,39.57.58,38.11c-.2-.42-.33-.87-.54-1.45a5.07,5.07,0,0,1,4.87,1.46c-.12-.82-.22-1.47-.3-2.13s-.74-.81-1.27-1A4.72,4.72,0,0,1,.29,32.15,8.23,8.23,0,0,1,0,30.8c1.67-.24,2.73.21,4.26,1.76.09-.41.14-.75.24-1.09a1.48,1.48,0,0,0-.92-2A4.62,4.62,0,0,1,1,26.36a10.1,10.1,0,0,1-.1-1.68c1.79.21,2.62.79,4,2.83a15.55,15.55,0,0,0,.48-2.46c0-.33-.39-.72-.69-1A4.77,4.77,0,0,1,2.8,21a14.93,14.93,0,0,1,.12-2.11c2,.68,2.62,1.39,3.4,3.64a9.2,9.2,0,0,1,.49-1.11,2.26,2.26,0,0,0-.29-3,4.2,4.2,0,0,1-.47-5,5,5,0,0,1,2.5,4.21l1.38-2.13c.41-.63,0-1.11-.3-1.6a4.66,4.66,0,0,1-.25-4.3A3.86,3.86,0,0,1,9.84,9c1.31.9,1.69,1.66,1.93,4.16a24.45,24.45,0,0,0,1.74-1.79c.15-.19.07-.62,0-.92-.13-.71-.38-1.4-.46-2.11a3.34,3.34,0,0,1,1.51-3.21c1.15,1.24,1.31,2.67.8,4.59a25.83,25.83,0,0,0,2.09-1.6,1.51,1.51,0,0,0,.33-1c0-.57-.13-1.15-.13-1.72,0-1.6.44-2.29,2-3.28,1,1.34.76,2.77.19,4.44.63-.28,1-.49,1.46-.64a1.72,1.72,0,0,0,1.26-2A3.81,3.81,0,0,1,25,0c1,1.77.27,3.16-.72,4.52Z"/><path class="cls-1" d="M46.79,38.71a3.81,3.81,0,0,1-.45,1.89,3.9,3.9,0,0,1-1.22,1.33,5.79,5.79,0,0,1-1.81.8,8.63,8.63,0,0,1-2.19.27H33V26.26h9.3a3.3,3.3,0,0,1,1.58.38,3.93,3.93,0,0,1,1.2,1A4.49,4.49,0,0,1,45.8,29a4.68,4.68,0,0,1,.27,1.57,4.52,4.52,0,0,1-.6,2.26,3.8,3.8,0,0,1-1.8,1.6,4.33,4.33,0,0,1,2.28,1.51A4.43,4.43,0,0,1,46.79,38.71Zm-10-9.15V33h3.8a1.69,1.69,0,0,0,1.13-.43,1.64,1.64,0,0,0,.49-1.31A1.75,1.75,0,0,0,41.81,30a1.41,1.41,0,0,0-1-.45Zm6,8.37a2,2,0,0,0-.45-1.31,1.41,1.41,0,0,0-1.13-.54H36.82v3.66h4.29a1.69,1.69,0,0,0,1.25-.49A1.76,1.76,0,0,0,42.85,37.94Z"/><path class="cls-1" d="M49.08,43V26.26H60.45v3.4h-7.5v3.6h6.18V36.4H52.95V43Z"/><path class="cls-1" d="M62.5,43V26.26H73.87v3.4h-7.5v3.6h6.18V36.4H66.37V43Z"/><path class="cls-1" d="M32,18.48l-.18-.13a2.13,2.13,0,0,0-.31-.16,2.7,2.7,0,0,0-.38-.14,1.73,1.73,0,0,0-.45,0,1,1,0,0,0-.59.14.48.48,0,0,0-.19.41.42.42,0,0,0,.07.25.62.62,0,0,0,.21.18,1.77,1.77,0,0,0,.35.14l.48.13q.36.09.66.21a1.76,1.76,0,0,1,.49.28,1.14,1.14,0,0,1,.33.4,1.31,1.31,0,0,1,.11.57,1.41,1.41,0,0,1-.15.66,1.24,1.24,0,0,1-.4.45,1.73,1.73,0,0,1-.58.25,2.9,2.9,0,0,1-.68.08A3.67,3.67,0,0,1,29.69,22a3.35,3.35,0,0,1-1-.47l.42-.81a1.31,1.31,0,0,0,.22.16,3.36,3.36,0,0,0,.38.2,3,3,0,0,0,.49.17,2.2,2.2,0,0,0,.54.06q.79,0,.78-.5a.41.41,0,0,0-.09-.27.76.76,0,0,0-.26-.19,2.45,2.45,0,0,0-.4-.15L30.3,20a4.47,4.47,0,0,1-.61-.21,1.6,1.6,0,0,1-.43-.27,1,1,0,0,1-.26-.36,1.23,1.23,0,0,1-.09-.48,1.52,1.52,0,0,1,.14-.66,1.33,1.33,0,0,1,.38-.48,1.73,1.73,0,0,1,.57-.29,2.35,2.35,0,0,1,.69-.1,2.7,2.7,0,0,1,.95.16,3.54,3.54,0,0,1,.76.38Z"/><path class="cls-1" d="M33.29,22.09V17.2h2.09a1.39,1.39,0,0,1,.62.14,1.61,1.61,0,0,1,.49.37,1.76,1.76,0,0,1,.33.52,1.57,1.57,0,0,1,.12.59,1.7,1.7,0,0,1-.11.6,1.67,1.67,0,0,1-.31.52,1.52,1.52,0,0,1-.48.35,1.39,1.39,0,0,1-.62.14H34.25v1.64Zm.95-2.47h1.1a.54.54,0,0,0,.44-.21.88.88,0,0,0,.18-.58,1,1,0,0,0-.06-.33.82.82,0,0,0-.14-.25.57.57,0,0,0-.21-.15A.62.62,0,0,0,35.3,18H34.24Z"/><path class="cls-1" d="M37.58,22.09V17.2h.95v4.88Z"/><path class="cls-1" d="M39.54,22.09V17.2H41.7a1.39,1.39,0,0,1,.62.14,1.61,1.61,0,0,1,.49.37,1.76,1.76,0,0,1,.33.52,1.58,1.58,0,0,1,.12.59,1.64,1.64,0,0,1-.24.86,1.36,1.36,0,0,1-.66.56l1.11,1.84H42.41l-1-1.64h-.94v1.64Zm.95-2.47h1.19a.5.5,0,0,0,.25-.06.62.62,0,0,0,.2-.17.85.85,0,0,0,.13-.25,1,1,0,0,0,0-.31.88.88,0,0,0-.06-.33.83.83,0,0,0-.15-.25.67.67,0,0,0-.21-.16.55.55,0,0,0-.25-.06H40.49Z"/><path class="cls-1" d="M44.12,22.09V17.2h.95v4.88Z"/><path class="cls-1" d="M49.73,18H48.17v4.05h-.94V18H45.67V17.2h4.06Z"/><path class="cls-1" d="M53,17.2h.84l1.87,4.88h-1l-.46-1.22H52.54l-.46,1.22h-1Zm1.09,3-.68-1.92-.7,1.92Z"/><path class="cls-1" d="M57.47,17.22h.87l.55,1.62.55-1.62h.88l-.83,2.22L60.12,21l1.38-3.8h1l-2,4.88h-.8L58.9,20l-.85,2.05h-.8l-2-4.88h1L57.7,21l.61-1.56Z"/><path class="cls-1" d="M64,17.2h.85l1.86,4.88h-1l-.46-1.22H63.57l-.45,1.22h-1Zm1.09,3-.67-1.92-.7,1.92Z"/><path class="cls-1" d="M67.23,22.09V17.2h2.16a1.39,1.39,0,0,1,.62.14,1.61,1.61,0,0,1,.49.37,1.76,1.76,0,0,1,.33.52,1.58,1.58,0,0,1,.12.59,1.64,1.64,0,0,1-.24.86,1.36,1.36,0,0,1-.66.56l1.11,1.84H70.11l-1-1.64h-.94v1.64Zm.95-2.47h1.19a.5.5,0,0,0,.25-.06.62.62,0,0,0,.2-.17.85.85,0,0,0,.13-.25,1,1,0,0,0,0-.31.88.88,0,0,0-.06-.33.83.83,0,0,0-.15-.25.67.67,0,0,0-.21-.16.55.55,0,0,0-.25-.06H68.18Z"/><path class="cls-1" d="M71.81,22.09V17.2h1.78a2.65,2.65,0,0,1,1,.19,2.11,2.11,0,0,1,1.21,1.31,2.91,2.91,0,0,1,.15.94,2.86,2.86,0,0,1-.17,1,2.16,2.16,0,0,1-.49.76,2.19,2.19,0,0,1-.76.49,2.69,2.69,0,0,1-1,.18ZM75,19.64a2.09,2.09,0,0,0-.09-.66,1.45,1.45,0,0,0-.28-.51,1.26,1.26,0,0,0-.46-.33,1.55,1.55,0,0,0-.62-.12h-.83v3.22h.83a1.49,1.49,0,0,0,.62-.12,1.27,1.27,0,0,0,.46-.33,1.52,1.52,0,0,0,.28-.51A2.06,2.06,0,0,0,75,19.64Z"/><path class="cls-1" d="M28.6,51.89V47h3.28v.83H29.55V49.1h1.94v.77H29.55v2Z"/><path class="cls-1" d="M32.55,51.89V47h.95v4.88Z"/><path class="cls-1" d="M34.52,51.89V47h.95v4.05H38v.83Z"/><path class="cls-1" d="M42.51,51.89V48.66l-1.24,2.41h-.52l-1.26-2.41v3.23h-.95V47h1L41,49.79,42.47,47h1v4.88Z"/><path class="cls-1" d="M46.13,51.89V47h3.28v.83H47.08V49.1H49v.77H47.08v2Z"/><path class="cls-1" d="M53.47,51.06v.83H50.08V47h3.33v.83H51V49h2.06v.76H51V51Z"/><path class="cls-1" d="M57,48.29l-.18-.13a2.13,2.13,0,0,0-.31-.16,2.7,2.7,0,0,0-.4-.13,1.73,1.73,0,0,0-.43-.06,1,1,0,0,0-.59.14.48.48,0,0,0-.19.41.42.42,0,0,0,.07.25.62.62,0,0,0,.21.18,1.77,1.77,0,0,0,.35.14l.48.13q.36.09.66.21a1.76,1.76,0,0,1,.49.28,1.14,1.14,0,0,1,.33.4,1.31,1.31,0,0,1,.11.57,1.41,1.41,0,0,1-.15.66,1.24,1.24,0,0,1-.4.45,1.73,1.73,0,0,1-.58.25,2.9,2.9,0,0,1-.68.08,3.67,3.67,0,0,1-1.09-.16,3.35,3.35,0,0,1-1-.47l.42-.82a1.31,1.31,0,0,0,.22.16,3.36,3.36,0,0,0,.38.2,3,3,0,0,0,.49.17,2.2,2.2,0,0,0,.55.07q.79,0,.78-.5a.41.41,0,0,0-.09-.27.76.76,0,0,0-.26-.19,2.45,2.45,0,0,0-.4-.15l-.52-.15a4.47,4.47,0,0,1-.61-.21,1.6,1.6,0,0,1-.43-.27,1,1,0,0,1-.26-.36A1.23,1.23,0,0,1,54,48.5a1.52,1.52,0,0,1,.14-.66,1.33,1.33,0,0,1,.38-.48,1.73,1.73,0,0,1,.57-.29,2.35,2.35,0,0,1,.69-.1,2.7,2.7,0,0,1,.95.16,3.54,3.54,0,0,1,.76.38Z"/><path class="cls-1" d="M61.95,47.84H60.38v4.05h-.94V47.84H57.88V47h4.06Z"/><path class="cls-1" d="M62.56,51.89V47h.95v4.88Z"/><path class="cls-1" d="M65,47l1.31,3.69L67.64,47h1l-1.91,4.88h-.8L64,47Z"/><path class="cls-1" d="M70.14,47H71l1.86,4.88h-1l-.45-1.22H69.7l-.45,1.22h-1Zm1.09,3-.67-1.92L69.86,50Z"/><path class="cls-1" d="M73.37,51.89V47h.95v4.05h2.49v.83Z"/></g></g></g></g></svg>