<svg xmlns="http://www.w3.org/2000/svg" viewBox="0 0 97.6 30"><title>bustle-black</title><g id="Layer_2" data-name="Layer 2"><g id="Layer_1-2" data-name="Layer 1"><g id="Layer_2-2" data-name="Layer 2"><g id="Layer_1-2-2" data-name="Layer 1-2"><path d="M68.79,22c1.33-.51,2.52.1,3.62,1.29s2.24,2.07,3.34,3.14c.53.51.9.46,1.38-.07q2.26-2.51,4.58-5a2,2,0,0,1,1.11-.58c4.54-.42,9.08-.8,13.62-1.21,1-.08,1,0,1.15,1.22.1.83-.43.82-1,.87-4.23.38-8.45.73-12.7,1.15a2.06,2.06,0,0,0-1.19.6c-1.81,1.92-3.58,3.88-5.38,5.82-.73.79-.77.8-1.59,0-1.74-1.6-3.46-3.22-5.22-4.79a1.85,1.85,0,0,0-1.24-.41q-13,1.09-26.07,2.25l-27.15,2.4L1.94,29.94a2.43,2.43,0,0,0-.5,0c-1.15.13-1.63-.35-1.37-1.5.05-.24.54-.52.85-.55,2.31-.25,4.65-.43,7-.64L34,25l25.74-2.24Z"/><path d="M9.62,14.45c2.73,1.34,2.13,5-.08,6.11a6.92,6.92,0,0,1-2.22.67c-1.9.24-3.81.38-5.72.54-.91.08-1.05-.08-.94-1q.76-5.7,1.44-11.4c.08-.67.33-1,1-1,1.61-.1,3.2-.3,4.81-.43,2.06-.17,3.46.61,3.93,2.17s-.32,3.19-2.1,4.15Zm-4.88,5a6,6,0,0,0,.73-.07,13.72,13.72,0,0,0,2.44-.43A1.9,1.9,0,0,0,9,16.64c-.24-.82-.92-1.19-2-1.1-.91.08-1.83.13-2.73.28a1.15,1.15,0,0,0-.79.63,10.88,10.88,0,0,0-.33,2.37c0,.23.35.53.6.67s.48,0,.92-.05Zm0-5.73.75-.08a24.79,24.79,0,0,0,2.72-.33,1.74,1.74,0,0,0,1.3-2.1v0C9.37,10.38,8.7,10,7.69,10c-.36,0-.72.05-1.08.1-2.77.31-2.21-.25-2.63,2.61v.17c-.12.64.19.87.79.8Z"/><path d="M90.54,11.64l3.73-.35c.43,0,.94-.08.88.54s.22,1.37-.69,1.46c-2.54.26-5.09.47-7.63.69-.8.07-.73-.48-.66-1L87.4,3.39c.08-.63.19-1.26.23-1.9a.77.77,0,0,1,.69-.84h.13L95.69,0c.38,0,.88-.17,1,.48.1.87-.19,1.44-.85,1.51-1.69.17-3.37.33-5.06.45-.66,0-1,.27-1.06,1A12.3,12.3,0,0,1,89.48,5c-.12.72.18,1,.88.9,1.49-.15,3-.27,4.48-.38.41,0,.88-.16,1,.46.13.81-.2,1.46-.83,1.54-1.66.17-3.32.34-5,.45-.68,0-1,.31-1,1s-.17,1.21-.23,1.82c-.09.81.09,1,.91.93l.91-.09Z"/><path d="M24.17,19.92c-3.5,0-5.34-2.07-4.91-5.55.28-2.23.55-4.46.87-6.69,0-.3.28-.77.5-.82a4.38,4.38,0,0,1,1.62,0c.09,0,.17.55.14.82-.27,2.21-.56,4.41-.85,6.61-.23,1.74.36,2.87,1.74,3.37a3.48,3.48,0,0,0,4.17-1.36,8.45,8.45,0,0,0,.8-2.6c.35-2.24.58-4.49.87-6.76A1.48,1.48,0,0,1,31.2,6a.88.88,0,0,1,.24.71c-.35,2.75-.61,5.53-1.12,8.25C29.69,18.36,27.64,19.92,24.17,19.92Z"/><path d="M43.93,4.54a6.8,6.8,0,0,1,3.78,1.1c.49.32.64.7.22,1.15s-.55,1.31-1.45.68a4.88,4.88,0,0,0-3.4-.86,3,3,0,0,0-1.31.45c-1.13.77-1,1.86.21,2.41.6.27,1.26.43,1.89.64a19.81,19.81,0,0,1,2,.68,3.33,3.33,0,0,1,1.4,5.3,4.85,4.85,0,0,1-1.9,1.54A7.4,7.4,0,0,1,38.26,17c-.67-.41-.73-.85-.23-1.48s.75-1,1.51-.38a4.91,4.91,0,0,0,4.18.91,3.07,3.07,0,0,0,1.6-1,1.18,1.18,0,0,0-.51-1.92,21.52,21.52,0,0,0-2.18-.77,19.34,19.34,0,0,1-2.19-.79,3.08,3.08,0,0,1-1.26-4.7A5.4,5.4,0,0,1,43.93,4.54Z"/><path d="M57,5.56a4,4,0,0,1-.66,0c-.46,0-1.15.38-1.23-.51C55,4,55.25,3.69,56.23,3.6l8.13-.75c.45,0,.93-.15,1,.53.1.91-.18,1.43-.86,1.5s-1.6.18-2.41.21-.91.31-1,1c-.38,3.17-.81,6.33-1.22,9.5a1.41,1.41,0,0,1-2,1,1.18,1.18,0,0,1-.25-.94c.32-2.76.65-5.51,1-8.26C59,5.22,58.88,5.38,57,5.56Z"/><path d="M74.25,13.12l3.84-.35c.44,0,.94,0,.87.56s.2,1.35-.72,1.45c-2.24.23-4.47.43-6.71.62-.71.06-.73-.41-.66-.94q.52-4,1-8.09c.15-1.15.27-2.31.46-3.46,0-.28.26-.71.47-.77a4.41,4.41,0,0,1,1.61,0c.1,0,.17.59.13.9C74.22,6,73.83,9,73.45,12,73.32,13.06,73.4,13.18,74.25,13.12Z"/></g></g></g></g></svg>