<svg xmlns="http://www.w3.org/2000/svg" viewBox="0 0 253.96 78.09"><title>bustle-black</title><g id="Layer_2" data-name="Layer 2"><g id="Layer_1-2" data-name="Layer 1"><path d="M179,57.19c3.47-1.32,6.56.26,9.42,3.36,2.68,2.92,5.84,5.4,8.69,8.16,1.37,1.33,2.34,1.21,3.58-.18Q206.57,62,212.6,55.6a5.07,5.07,0,0,1,2.9-1.51C227.31,53,239.13,52,250.94,50.94c2.56-.22,2.59-.06,3,3.17.26,2.16-1.12,2.13-2.54,2.26-11,1-22,1.9-33.06,3a5.35,5.35,0,0,0-3.09,1.56c-4.72,5-9.31,10.1-14,15.16-1.89,2.06-2,2.07-4.14.12-4.52-4.17-9-8.39-13.59-12.47a4.82,4.82,0,0,0-3.24-1.08q-33.94,2.84-67.86,5.86-35.33,3.1-70.66,6.24Q23.41,76.35,5,77.94c-.43,0-.87,0-1.3.09-3,.34-4.25-.91-3.56-3.9.14-.63,1.4-1.35,2.21-1.43,6-.64,12.09-1.13,18.15-1.66L88.4,65.09l67-5.84Z"/><path d="M25,37.61c7.1,3.49,5.54,13-.21,15.91A18,18,0,0,1,19,55.27c-4.94.62-9.91,1-14.88,1.4-2.36.2-2.74-.21-2.44-2.52C3,44.26,4.25,34.38,5.44,24.49c.21-1.75.86-2.51,2.68-2.62,4.18-.27,8.34-.77,12.51-1.13,5.36-.45,9,1.6,10.22,5.65,1.22,4.21-.84,8.3-5.46,10.81A3.21,3.21,0,0,0,25,37.61Zm-12.69,13c.31,0,1.11-.06,1.89-.18a35.7,35.7,0,0,0,6.35-1.12,4.94,4.94,0,0,0,2.94-6c-.63-2.14-2.39-3.11-5.16-2.85-2.37.22-4.76.33-7.1.74a3,3,0,0,0-2.06,1.63A28.32,28.32,0,0,0,8.31,49c0,.59.9,1.37,1.57,1.74C10.36,51,11.14,50.68,12.27,50.6Zm.1-14.92,1.94-.2a64.51,64.51,0,0,0,7.08-.86,4.54,4.54,0,0,0,3.37-5.5c-.46-2.11-2.2-3.18-4.83-3-.94.07-1.87.14-2.8.25-7.2.81-5.75-.65-6.85,6.79,0,.14,0,.29,0,.43C10,35.26,10.82,35.86,12.37,35.68Z"/><path d="M235.61,30.29c3.24-.3,6.48-.61,9.72-.9,1.11-.1,2.45-.21,2.3,1.41-.13,1.42.58,3.57-1.8,3.81-6.61.68-13.24,1.22-19.86,1.79-2.08.18-1.9-1.25-1.72-2.61l3.18-24.95c.21-1.65.49-3.29.61-4.95a2,2,0,0,1,2.12-2.2C236.43,1.18,242.69.6,249,.09c1-.08,2.29-.43,2.49,1.25.27,2.27-.5,3.75-2.22,3.92-4.39.44-8.78.87-13.17,1.18-1.73.12-2.69.71-2.76,2.56a32,32,0,0,1-.51,4.09c-.32,1.88.48,2.51,2.29,2.33,3.88-.38,7.77-.7,11.66-1,1.06-.09,2.28-.42,2.53,1.2.34,2.12-.53,3.81-2.16,4-4.31.45-8.63.88-13,1.18-1.77.13-2.61.8-2.69,2.61-.07,1.58-.43,3.15-.61,4.73-.24,2.11.23,2.58,2.38,2.42.79-.06,1.58-.16,2.37-.24Z"/><path d="M62.87,51.86c-9.11,0-13.89-5.4-12.77-14.44.72-5.81,1.44-11.62,2.26-17.41.11-.79.72-2,1.31-2.13a11.41,11.41,0,0,1,4.21,0c.23,0,.45,1.42.36,2.14-.69,5.74-1.45,11.47-2.2,17.2-.59,4.52.93,7.48,4.52,8.76,4,1.43,9,0,10.85-3.53a22,22,0,0,0,2.09-6.76C74.4,29.87,75,24,75.77,18.1c.27-2.15,3.58-3.75,5.4-2.5a2.3,2.3,0,0,1,.63,1.86c-.9,7.17-1.6,14.38-2.92,21.47C77.23,47.79,71.88,51.85,62.87,51.86Z"/><path d="M114.29,11.83a17.71,17.71,0,0,1,9.85,2.86c1.27.83,1.67,1.82.56,3s-1.44,3.4-3.77,1.76a12.69,12.69,0,0,0-8.84-2.23,7.72,7.72,0,0,0-3.41,1.18c-2.93,2-2.67,4.85.54,6.28,1.57.7,3.27,1.12,4.92,1.67a51.56,51.56,0,0,1,5.11,1.77c5.85,2.69,7.49,8.61,3.64,13.8a12.63,12.63,0,0,1-4.94,4c-6.35,2.67-12.55,1.93-18.42-1.69-1.75-1.08-1.9-2.2-.6-3.86,1.15-1.48,1.94-2.51,3.92-1a12.78,12.78,0,0,0,10.88,2.36,8,8,0,0,0,4.16-2.72c1.5-1.87.86-4-1.32-5A56,56,0,0,0,110.89,32a50.34,50.34,0,0,1-5.69-2.06c-5-2.49-6.24-7.48-3.28-12.23C104.23,14,108.82,11.81,114.29,11.83Z"/><path d="M148.23,14.48a10.37,10.37,0,0,1-1.73.12c-1.19-.11-3,1-3.19-1.34-.27-2.8.43-3.66,3-3.89l21.16-1.94c1.16-.11,2.41-.39,2.61,1.37.27,2.37-.46,3.71-2.25,3.91-2.08.24-4.17.48-6.26.55-1.71.06-2.38.81-2.58,2.48-1,8.25-2.1,16.48-3.18,24.72-.28,2.14-3.36,3.75-5.12,2.54a3.08,3.08,0,0,1-.64-2.45c.83-7.18,1.68-14.35,2.68-21.51C153.45,13.6,153.19,14,148.23,14.48Z"/><path d="M193.19,34.14l10-.91c1.14-.1,2.44-.11,2.26,1.47-.16,1.4.52,3.52-1.88,3.77-5.82.6-11.64,1.12-17.46,1.61-1.84.16-1.89-1.08-1.71-2.45q1.36-10.52,2.68-21.05c.38-3,.71-6,1.2-9,.12-.74.68-1.86,1.22-2a11.47,11.47,0,0,1,4.19,0c.25,0,.45,1.54.35,2.33-.93,7.74-1.93,15.47-2.91,23.2C190.77,34,191,34.3,193.19,34.14Z"/></g></g></svg>