<svg xmlns="http://www.w3.org/2000/svg" viewBox="0 0 99.97 19.52"><title>dailydot-black</title><g id="Layer_2" data-name="Layer 2"><g id="Layer_1-2" data-name="Layer 1"><g id="Layer_2-2" data-name="Layer 2"><g id="Layer_1-2-2" data-name="Layer 1-2"><path d="M4.68,5.11c-2,2.58-2.16,5.35-.52,7,1.18-.46,1.64-3.49.79-5.4L7.54,5.4C5.93,5,4.64,4.52,3.3,4.29A2.49,2.49,0,0,0,.65,5.66c-.15.25-.31.5-.5.8A3.53,3.53,0,0,1,3.39,1.81a18.36,18.36,0,0,1,3.68.77c.63.15,1.23.42,1.85.59a2.72,2.72,0,0,0,2.8-.84c.48,1.6-.19,2.67-2.13,3.46v7.49l2.67-2.09a2.05,2.05,0,0,1,0,.53c-.84,3-3.81,4.55-7.3,3.85A5.23,5.23,0,0,1,.56,9.43,5.49,5.49,0,0,1,4.68,5.11Zm-.14,7.38a6.2,6.2,0,0,0,4.41.75V5.67L7.81,5.49c0,1.37,0,2.67,0,4a2,2,0,0,1-1.2,2c-.64.31-1.27.66-2.08,1.08Z"/><path d="M79.41,4.08c-1,0-2,.06-3,0A2.63,2.63,0,0,1,74,2a1.84,1.84,0,0,1,.69-2c0,1.26.88,1.34,1.74,1.36,1.54,0,3.08,0,4.62,0,2.62,0,3.77,1.16,3.78,3.75,0,2.29,0,4.59,0,6.88a1.26,1.26,0,0,1-.65,1.25c-1.14.69-2.23,1.46-3.34,2.19-2.95-1.94-4.22-1.91-7,.12.09-2.35,1.73-3.4,5.59-3.57Zm.62.14c0,2.57,0,5.09,0,7.62a.93.93,0,0,0,.41.62c.45.3.94.53,1.51.85,0-.4.05-.73.05-1.05V5.78C82,4,82,4,80,4.22Z"/><path d="M38.39,15.48c-2.44-1.94-4.22-1.9-7,.08C31.49,13.26,33,12.28,37,12V4.08c-1,0-2,.06-3,0a2.53,2.53,0,0,1-2.48-2.51A3.65,3.65,0,0,1,32.08,0c.26,1.28,1.18,1.36,2.12,1.37,1.57,0,3.15,0,4.73,0,2.22,0,3.45,1.2,3.49,3.42.05,2.47,0,4.93,0,7.4a1.3,1.3,0,0,1-.47.91C40.8,13.93,39.62,14.67,38.39,15.48ZM37.6,4.2c0,2.61,0,5.1,0,7.59a.91.91,0,0,0,.38.62c.47.32,1,.56,1.56.87V4.2Z"/><path d="M66.66,7.9l2.21-2.05,1.74,1.39V10c0,1.27,0,2.53,0,3.8-.08,2.8-1.66,4.52-4.11,5.62C64,17.46,62,17.5,59.64,19.52a2.9,2.9,0,0,1,1.56-2.79c1.85-1.21,4-1,6.76.68V13.89A16.54,16.54,0,0,0,66.08,15,1.37,1.37,0,0,1,64,14.79a9,9,0,0,0-.95-.74c.66-1.84.27-3.71.29-5.55,0-.72-.64-.79-1.3-.54l2.24-2.12,1.76,1.4c0,1.88,0,3.65,0,5.41,0,.33.43.65.67,1,.4-.32,1.1-.6,1.14-1a26.19,26.19,0,0,0,0-4.11C67.89,7.86,67.39,7.64,66.66,7.9Z"/><path d="M15.59,1.77V7.51l.19.13,1.49-2.05c1.09.78,1.86,1.27,2.55,1.87a1.51,1.51,0,0,1,.34,1c0,1.33,0,2.67,0,4,0,1,.37,1.18,1.33.87l-2.29,2.13-1.68-1.37a49.25,49.25,0,0,0-.06-4.93c0-.43-.86-.79-1.33-1.18a3.84,3.84,0,0,0-.53,1.18,20.94,20.94,0,0,0,0,3.08,7.43,7.43,0,0,0,.49,1.58l-1.6,1.54-1.64-1.19c.16-3.68.15-7.07,0-10.68Z"/><path d="M43.69,13.75c0-1.58,0-2.9,0-4.21a1.5,1.5,0,0,1,1-1.66,33.49,33.49,0,0,0,3.05-1.68,1,1,0,0,1,1.29,0c.66.53,1.39,1,1.92,1.36,0,1.89,0,3.63,0,5.36,0,.31.46.59.77,1L50,15.5c-.09,0-.18,0-.22-.06a1.83,1.83,0,0,0-2.88-.23,1.28,1.28,0,0,1-1.13,0C45,14.71,44.25,14.13,43.69,13.75Zm4.51.43V9.79c0-1.63-.16-1.85-1.83-2.47a40.92,40.92,0,0,1,0,4.29C46.19,13,47.06,13.56,48.2,14.18Z"/><path d="M93.44,7.51c0,1.64,0,3.1,0,4.55a1.15,1.15,0,0,1-.67,1.22c-1.12.59-2.17,1.28-3.29,1.86a1.31,1.31,0,0,1-1.07,0c-.82-.47-1.58-1.06-2.17-1.46,0-1.62,0-3.08,0-4.52A1.13,1.13,0,0,1,86.95,8c1.15-.59,2.26-1.28,3.42-1.85a1.34,1.34,0,0,1,1.08,0C92.17,6.56,92.85,7.09,93.44,7.51Zm-4.52-.3v4.44c0,1.36.41,1.88,1.85,2.32a36.33,36.33,0,0,1,0-3.9A2.4,2.4,0,0,0,88.92,7.21Z"/><path d="M95.19,13.76V7.43L93.8,7.29l1.44-1.66c-.53-2.11,1.76-2,2.88-2.91L97.95,6l2,.1c0,1.38-1,1.29-2,1.23,0,1.74,0,3.37,0,5,0,.28.39.58.66.8a7,7,0,0,0,.94.58.53.53,0,0,1,0,.13c-1.49,1.71-1.49,1.71-3.4.49Z"/><path d="M59.12,1.85a2.27,2.27,0,0,1,.25.12A2.9,2.9,0,0,1,61,5a66.4,66.4,0,0,0-.07,7.38c0,1.05.25,1.23,1.42.85L60,15.5l-1.72-1.37c0-3.28,0-6.4,0-9.53,0-.82-.57-.91-1.3-.72Z"/><path d="M28.72,8.92l-3.1,1.72a1.45,1.45,0,0,0,0,2.58c.38.23.76.45,1.15.67l1.19-1,.15.16c-.82.73-1.62,1.47-2.47,2.16a.8.8,0,0,1-.71,0c-1-.52-1.89-1.08-2.71-1.55,0-1.64,0-3.17,0-4.7a1.15,1.15,0,0,1,.78-1.25c1.33-.62,2.62-1.29,4-2Zm-2.37,1L25.08,7.38l-.16.08v3.26Z"/><path d="M57.33,13.35l-2.27,2.15c-.59-.47-1.15-.9-1.68-1.37a.71.71,0,0,1-.21-.5c0-1.66.14-3.32.12-5,0-.37-.45-.74-.77-1.23l1.72-1.66L56,7.19c0,2-.05,3.84,0,5.67C56.07,13.72,56.71,13.54,57.33,13.35Z"/><path d="M75.71,7.24c.12-2,1.62-2.17,2.86-2.58,0,1.44-.05,2.85,0,4.26a2.37,2.37,0,0,1-1.53,2.51c-.6.27-1.18.59-1.6.8l.43-2.88-.31-.24L74.3,10A5,5,0,0,1,74,8.41C74.07,7.51,74.81,7.23,75.71,7.24Z"/><path d="M36.15,4.7V7.63c0,3.23-.13,3.42-3.12,4.55l.51-2.85L33.2,9.1,31.87,10c-.09-.52-.43-1.21-.22-1.64A3.91,3.91,0,0,1,33.21,7C33.63,5.57,34.15,5.14,36.15,4.7Z"/><path d="M52.79,3.84l1.59-1.66,1.54,1.25L54.28,5.07Z"/></g></g></g></g></svg>