<svg xmlns="http://www.w3.org/2000/svg" viewBox="0 0 99.56 28"><title>fox7-black</title><g id="Layer_2" data-name="Layer 2"><g id="Layer_1-2" data-name="Layer 1"><g id="Layer_2-2" data-name="Layer 2"><g id="Layer_1-2-2" data-name="Layer 1-2"><path d="M0,28V0H99.56V28ZM94,2.29H71.27c0,1.36.06,2.55,0,3.73a12.94,12.94,0,0,1-.49,3.8c-1.93,5-4,9.89-6,14.82a10.86,10.86,0,0,0-.31,1l.24.09L74.59,9.58,71.83,9.2l0-.51H82.41L72.27,25.8c2.8,0,5.25,0,7.72,0A1.56,1.56,0,0,0,81,25C85.32,17.52,89.58,10,94,2.29ZM21.47,14A9.78,9.78,0,0,0,31,23.85a9.79,9.79,0,0,0,.12-19.58A9.76,9.76,0,0,0,21.47,14ZM46.7,19.09c.87,1.48,1.59,2.77,2.38,4,.23.36.6.87.93.88,1.87.08,3.76,0,5.91,0-1.73-3-3.15-5.74-4.88-8.3a3.37,3.37,0,0,1,0-4.29c1.51-2.32,2.8-4.79,4.27-7.39-2.15,0-4.18-.4-5.89.15-1,.33-1.54,2.18-2.29,3.35-.11.17-.24.31-.44.59C46.07,7,45.47,5.93,44.82,4.88c-.2-.33-.52-.82-.81-.83C42.1,4,40.18,4,38,4l2.8,4.88c.9,1.56,2.5,3.15,2.49,4.71s-1.56,3.26-2.47,4.88c-1,1.78-2,3.55-3.16,5.57,1.93,0,3.52.08,5.11,0a2.36,2.36,0,0,0,1.56-.91c.86-1.22,1.53-2.56,2.37-4ZM15,24V17.57h5.45V12H15.09V9.49h6.67l-.39-5.43h-12V24ZM91.63,8.82c-2.18,2.44-2.19,2.7-.76,5l6.91,11.22a6.39,6.39,0,0,0,.57.69l.18-.16Zm-27.14.39V21.72h.13L67.2,9.56ZM98.31,22V8.94a6.36,6.36,0,0,0-1.61.69c-.37.31-.78.89-.71,1.24C96.67,14.53,97.47,18.16,98.31,22Z"/><path d="M32.7,14.08v3.73c0,1-.48,1.73-1.56,1.75s-1.59-.66-1.59-1.69c0-2.59,0-5.18,0-7.78a1.49,1.49,0,0,1,1.61-1.69c1.08,0,1.52.77,1.53,1.78,0,1.29,0,2.59,0,3.89Z"/></g></g></g></g></svg>