<svg xmlns="http://www.w3.org/2000/svg" viewBox="0 0 155.4 154.47"><title>hammertonail-black</title><g id="Layer_2" data-name="Layer 2"><g id="Layer_1-2" data-name="Layer 1"><path d="M77.87,154.41C40.8,155.92.24,125.93,0,77.62-.21,33.84,34-.1,77.75,0c47.56.11,78.2,39,77.65,78.27C154.78,122.07,117.84,155.56,77.87,154.41ZM12.25,76.69c-.23,36,29.09,65.75,65,66s65.63-29.2,65.95-65.17c.31-35-29.22-64.66-64.16-65.34C42.87,11.45,12.36,41,12.25,76.69Z"/><path d="M78.25,117.41c-3.16-5.5-5.42-11.11-5.11-17.81.43-9.14.09-18.32.12-27.48,0-5.19.06-5.18,5.14-5.4a5.7,5.7,0,0,0,3.23-1c-1.1-.13-2.2-.32-3.3-.38A16.38,16.38,0,0,1,75,65c2.12-.22,4.24-.44,6.35-.68.11,0,.19-.22.61-.73l-7-.46v-.2l6.69-.49,0-.8c-1.28-.12-2.56-.32-3.84-.33-2.17,0-4.44.34-5-2.74-.09-.51-.79-1.05-1.34-1.31C64.29,53.77,57.19,49.85,48.73,53a44.55,44.55,0,0,1-4.4.87c-2,.52-4.35,1-5.2-1.35-.93-2.55,1.71-3.29,3.35-4.17A63.36,63.36,0,0,1,49.77,45c5.74-2.22,11.45-4.57,17.31-6.41a77.52,77.52,0,0,1,13.08-2.77c3.81-.5,7.45-.25,10.32,3.39C92.69,42,96,40.79,98,38.68c2.78-3,6-3,9.55-3,3.15,0,4.72,1.35,4.82,4.37.12,3.49.47,7.05,0,10.48-1,6.95-5.78,9.08-12.38,5.17-4.62-2.74-4.42-3.08-9.06.14-.55.38-1.1,1.12-1.63,1.1-5.76-.2-4.95,3.84-5,7.47C84,77.72,84,91.06,83.3,104.35c-.25,4.47-2.49,8.83-3.81,13.25Z"/><path d="M59.25,61.77a32.88,32.88,0,0,1,4.48,0C64.92,62,66.79,62.3,67,63c.43,1.21.34,3.48-.46,4.09-2.49,1.9-2.05,4.37-2.09,6.8-.05,3.49,0,7,0,10.48,0,2.44-.08,4.64,2.15,6.74s.71,5.07-2.61,5.18-6.66.14-10,0c-1.17-.06-3.22-.71-3.28-1.26-.15-1.41.52-2.93,1-4.37.35-1,1.39-2.05,1.3-3-.19-2-.41-5.08-1.57-5.59-1.75-.78-5.8-.35-6.2.65-.87,2.14-.1,5,.18,7.52,0,.44,1.17.67,1.49,1.18,1.4,2.26.21,4.78-2.4,4.88-3.65.14-7.32.13-11,0-2.73-.09-4.43-2.77-2.6-4.67,2.92-3,2.09-6.43,2.23-9.79a56.65,56.65,0,0,0-.06-8.47,17,17,0,0,0-1.81-5.9c-1.88-3.6-.9-5.6,3.17-5.68,3.16-.06,6.33-.13,9.47.06,1.12.07,3,.72,3.13,1.42.3,1.23-.31,2.76-.82,4.06-.33.85-1.64,1.53-1.62,2.27.06,2-.07,5.18,1.07,5.86,1.64,1,5.52,1,6.33-.1,1.16-1.59.5-4.57.43-7,0-.44-1.05-.77-1.41-1.3-1.88-2.78-.71-5.14,2.65-5.3C55.59,61.69,57.42,61.77,59.25,61.77Z"/><path d="M97.61,61.76c4.39-1.32,7.18,1.36,9.27,5.72a98.36,98.36,0,0,0,5.31,9c.3.48,1,.72,1.47,1.07.28-.53.84-1.1.78-1.6-.37-3.22,1.42-6.77-2.44-9.45-2.06-1.43-.47-4.55,2.26-4.71,2.49-.15,5-.1,7.48,0,3.57.1,5,2.68,2.63,5.46-1.77,2.06-1.88,4.11-1.88,6.41,0,6.32-.09,12.64,0,19,.05,2.77-1,3.64-3.77,3.82-4.44.29-7.52-.78-9.47-5.18-1.74-3.92-4.25-7.51-6.48-11.21a6.78,6.78,0,0,0-1.39-1.29c-.3.67-.93,1.37-.86,2,.42,3.73-1.39,7.72,2.38,11.07,1.84,1.63,0,4.38-2.82,4.5a51.52,51.52,0,0,1-7,0c-1.14-.11-3-.69-3.15-1.4-.33-1.23.28-2.77.68-4.12.58-1.94,1.79-3.81,1.91-5.76a119.12,119.12,0,0,0-.12-13c-.07-1.39-.89-2.72-1.29-4.11-.47-1.64-1.36-3.4-1.06-4.9.14-.68,2.72-.93,4.22-1.23A20.56,20.56,0,0,1,97.61,61.76Z"/></g></g></svg>