<svg xmlns="http://www.w3.org/2000/svg" viewBox="0 0 720.1 84.2"><title>huffpost-black</title><g id="Layer_2" data-name="Layer 2"><g id="Layer_1-2" data-name="Layer 1"><g id="Layer_1-3" data-name="Layer 1"><path d="M93.1,82.5h26.3L133.5,1.8H107.2L102,30.7H79.2L84.4,1.8H58.1L44,82.5H70.3l5.3-30.2H98.4Z"/><path d="M148.4,1.7l-8,44.9a51.56,51.56,0,0,0-1,10.1c0,23.8,20.8,27.4,33.3,27.4,26.2,0,37.5-8.7,41.6-32.2l8.8-50.3H196.8l-7.5,42.2c-2.4,13.2-4.1,20.1-13.9,20.1-6.4,0-9.5-3.4-9.5-10.4a54.27,54.27,0,0,1,1.2-10.1l7.6-41.8H148.4Z"/><path d="M362.1,82.5h26.3l3.7-20.8h12.4c22.9,0,35.6-12.4,35.6-35,0-15.9-11-25-30.3-25H376.2Zm41-40.7h-7.6l3.5-19h7.1c5.8,0,8.9,2.9,8.9,8.2C415,37.7,410.5,41.8,403.1,41.8Z"/><path d="M491.2,0c-28.6,0-45.7,18.5-45.7,49.6,0,21.6,13.6,34.6,36.4,34.6,28.6,0,45.7-18.5,45.7-49.6C527.7,12.9,514.1,0,491.2,0Zm-7.7,63.3c-6.8,0-10.8-4.9-10.8-13.1a44.79,44.79,0,0,1,.9-8.9c2-10.6,5.4-20.3,16.1-20.3,6.8,0,10.8,4.9,10.8,13.1a44.79,44.79,0,0,1-.9,8.9C497.6,53.5,494.2,63.3,483.5,63.3Z"/><path d="M619.1,82.5h26.3l10.4-59.1h19.8l3.8-21.6H612.1l-3.8,21.6h21Z"/><path d="M575.5,31.6c-8.3-2.6-11.7-3.7-11.7-7.6,0-2.6,1.7-5.7,6.7-5.7a8.4,8.4,0,0,1,8,5.2l23.2-6.3C599,5.8,589.2,0,572.3,0,540.5,0,538,21.3,538,27.8c0,13.2,7,21.3,22.2,25.5,4,1.1,8.6,2.3,8.6,6.7,0,3.5-2.6,5.7-7.1,5.7-4.1,0-8.5-2.4-10-6.6l-22.9,6.2c2.5,12,13.8,18.8,31.5,18.8,13.5,0,36.1-3.6,36.1-28C596.5,43.9,589.6,35.9,575.5,31.6Z"/><path d="M29.3,82.5,43.5,1.8H0V82.5Z"/><path d="M690.7,1.8,676.6,82.5h43.5V1.8Z"/><polygon points="238.1 1.7 224 82.5 250.3 82.5 254.5 58.7 276.6 58.7 280.2 38.4 258.1 38.4 260.6 23.4 291.5 23.4 295.3 1.7 238.1 1.7"/><polygon points="307.1 1.7 293 82.5 319.3 82.5 323.4 58.7 345.6 58.7 349.2 38.4 327.1 38.4 329.6 23.4 360.5 23.4 364.3 1.7 307.1 1.7"/></g></g></g></svg>