<svg xmlns="http://www.w3.org/2000/svg" viewBox="0 0 94.07 11"><title>huffpost-black</title><g id="Layer_2" data-name="Layer 2"><g id="Layer_1-2" data-name="Layer 1"><g id="Layer_2-2" data-name="Layer 2"><g id="Layer_1-2-2" data-name="Layer 1-2"><g id="Layer_1-3" data-name="Layer 1-3"><path d="M12.16,10.78H15.6L17.44.24H14L13.33,4h-3L11,.24H7.59L5.75,10.78H9.18l.69-3.95h3Z"/><path d="M19.39.22l-1,5.87a6.74,6.74,0,0,0-.13,1.32c0,3.11,2.72,3.58,4.35,3.58C26,11,27.46,9.85,28,6.78L29.15.21H25.71l-1,5.51c-.31,1.72-.54,2.63-1.82,2.63-.84,0-1.24-.44-1.24-1.36a7.09,7.09,0,0,1,.16-1.32l1-5.46H19.39Z"/><path d="M47.31,10.78h3.44l.48-2.72h1.62c3,0,4.65-1.62,4.65-4.57,0-2.08-1.44-3.27-4-3.27H49.15Zm5.36-5.32h-1L52.13,3h.93c.76,0,1.16.38,1.16,1.07A1.37,1.37,0,0,1,52.66,5.46Z"/><path d="M64.17,0c-3.74,0-6,2.42-6,6.48C58.2,9.3,60,11,63,11c3.74,0,6-2.42,6-6.48C68.94,1.69,67.16,0,64.17,0Zm-1,8.27c-.89,0-1.41-.64-1.41-1.71a5.85,5.85,0,0,1,.12-1.16c.26-1.38.71-2.65,2.1-2.65.89,0,1.41.64,1.41,1.71a5.85,5.85,0,0,1-.12,1.16C65,7,64.56,8.27,63.17,8.27Z"/><path d="M80.88,10.78h3.44l1.36-7.72h2.59l.5-2.82H80l-.5,2.82h2.74Z"/><path d="M75.18,4.13c-1.08-.34-1.53-.48-1.53-1,0-.34.22-.74.88-.74a1.1,1.1,0,0,1,1,.68l3-.82C78.25.76,77,0,74.77,0c-4.15,0-4.48,2.78-4.48,3.63,0,1.72.91,2.78,2.9,3.33.52.14,1.12.3,1.12.88s-.34.74-.93.74a1.39,1.39,0,0,1-1.31-.86l-3,.81C69.41,10.1,70.89,11,73.2,11c1.76,0,4.72-.47,4.72-3.66C77.93,5.74,77,4.69,75.18,4.13Z"/><path d="M3.83,10.78,5.68.24H0V10.78Z"/><path d="M90.23.24,88.39,10.78h5.68V.24Z"/><polygon points="31.11 0.22 29.26 10.78 32.7 10.78 33.25 7.67 36.13 7.67 36.61 5.02 33.72 5.02 34.05 3.06 38.08 3.06 38.58 0.22 31.11 0.22"/><polygon points="40.12 0.22 38.28 10.78 41.71 10.78 42.25 7.67 45.15 7.67 45.62 5.02 42.73 5.02 43.06 3.06 47.1 3.06 47.59 0.22 40.12 0.22"/></g></g></g></g></g></svg>