<svg xmlns="http://www.w3.org/2000/svg" viewBox="0 0 98.28 33.95"><defs><style>.cls-1{fill:#fff;}</style></defs><title>inc-white</title><g id="Layer_2" data-name="Layer 2"><g id="Layer_1-2" data-name="Layer 1"><g id="Layer_2-2" data-name="Layer 2"><g id="Layer_1-2-2" data-name="Layer 1-2"><path class="cls-1" d="M38.76,12.79c.16-.17.32-.34.47-.51a11.13,11.13,0,0,1,7.65-4.11,16.87,16.87,0,0,1,6,.36,8.53,8.53,0,0,1,3.63,1.85,7,7,0,0,1,2.25,4.22,12,12,0,0,1,.15,1.84V26h2.86c-.13-.36-.27-.71-.38-1.07a13.16,13.16,0,0,1,.3-8.79A10.88,10.88,0,0,1,65,11.67a15.78,15.78,0,0,1,6.57-3.11,23.16,23.16,0,0,1,8.23-.43,14.32,14.32,0,0,1,6,2.1A10,10,0,0,1,90.1,15.8c.25.8.38,1.64.56,2.47a2.68,2.68,0,0,1,0,.3l-9.76,1.07c0-.48-.08-.93-.13-1.38a7.27,7.27,0,0,0-.53-2.12,3.21,3.21,0,0,0-2.57-2,5.3,5.3,0,0,0-2.6.23,3.53,3.53,0,0,0-2.16,2.23,8.47,8.47,0,0,0-.5,2.62,21.25,21.25,0,0,0,.17,4.92,7.7,7.7,0,0,0,.51,1.64,3.2,3.2,0,0,0,2.09,1.87,5.08,5.08,0,0,0,4-.33A3.44,3.44,0,0,0,81,24.52c0-.19,0-.38.05-.57h9.79c-.13.64-.22,1.26-.38,1.85a10.12,10.12,0,0,1-2.75,4.72,11,11,0,0,1-4,2.39,19.77,19.77,0,0,1-6.22,1,22.21,22.21,0,0,1-7.57-1,14.27,14.27,0,0,1-6.12-3.76,12.39,12.39,0,0,1-2-2.89v7H44.15V26h3.34v-.3q0-3.62,0-7.24a3.31,3.31,0,0,0-.62-2.11,3.38,3.38,0,0,0-2.45-1.24,4.78,4.78,0,0,0-3.66,1,4.24,4.24,0,0,0-1.65,3.34c0,2.15,0,4.29,0,6.43V26h3.41V33.3H24.41V26h3.26V15.11H24.41V7.84H38.69v4.92Z"/><path class="cls-1" d="M4.31,7.82H0V0H23.17V7.77H18.85V26h4.32V33.3H0V26H4.31Z"/><path class="cls-1" d="M98.28,29.29a4.13,4.13,0,1,1-4.14-4.13h0A4.14,4.14,0,0,1,98.28,29.29Z"/></g></g></g></g></svg>