<svg xmlns="http://www.w3.org/2000/svg" viewBox="0 0 98.45 34"><title>inc-black</title><g id="Layer_2" data-name="Layer 2"><g id="Layer_1-2" data-name="Layer 1"><g id="Layer_2-2" data-name="Layer 2"><g id="Layer_1-2-2" data-name="Layer 1-2"><path d="M38.83,12.81c.16-.17.32-.34.47-.52A11.15,11.15,0,0,1,47,8.18a16.91,16.91,0,0,1,6,.36,8.55,8.55,0,0,1,3.63,1.85,7,7,0,0,1,2.25,4.22A12,12,0,0,1,59,16.46v9.61h2.87c-.13-.36-.27-.71-.38-1.08a13.18,13.18,0,0,1,.3-8.8,10.89,10.89,0,0,1,3.33-4.48A15.81,15.81,0,0,1,71.68,8.6a23.2,23.2,0,0,1,8.25-.43,14.34,14.34,0,0,1,6,2.09,10,10,0,0,1,4.28,5.57c.25.8.38,1.66.55,2.47a2.68,2.68,0,0,1,0,.3L81,19.67c0-.48-.08-.93-.13-1.38a7.28,7.28,0,0,0-.55-2.12,3.21,3.21,0,0,0-2.58-2,5.32,5.32,0,0,0-2.6.23A3.53,3.53,0,0,0,73,16.58a8.48,8.48,0,0,0-.49,2.63,21.28,21.28,0,0,0,.18,4.94,7.71,7.71,0,0,0,.52,1.66,3.21,3.21,0,0,0,2.09,1.85,5.09,5.09,0,0,0,4-.33,3.45,3.45,0,0,0,1.79-2.77A4.69,4.69,0,0,1,81.2,24H91c-.13.64-.22,1.26-.39,1.86a10.14,10.14,0,0,1-2.77,4.73,11,11,0,0,1-4,2.39,19.8,19.8,0,0,1-6.2,1,22.25,22.25,0,0,1-7.58-1A14.3,14.3,0,0,1,64,29.2a12.41,12.41,0,0,1-2-2.89v7H44.22V26.07h3.33V18.53a3.33,3.33,0,0,0-.63-2.11,3.39,3.39,0,0,0-2.46-1.24,4.79,4.79,0,0,0-3.67,1,4.24,4.24,0,0,0-1.66,3.33c0,2.15,0,4.3,0,6.45V26h3.42v7.32H24.45V26.07h3.28V15.13H24.46V7.85H38.76v4.9Z"/><path d="M4.32,7.84H0V0H23.21V7.77H18.86v18.3h4.33v7.28H0V26.07H4.32Z"/><path d="M98.45,29.34a4.14,4.14,0,1,1-4.14-4.14h0A4.15,4.15,0,0,1,98.45,29.34Z"/></g></g></g></g></svg>