<svg xmlns="http://www.w3.org/2000/svg" viewBox="0 0 364.81 71.52"><title>indiewire-black_1</title><g id="Layer_2" data-name="Layer 2"><g id="Layer_1-2" data-name="Layer 1"><path d="M97,71.52c-3-1.34-6.37-2.2-9-4.1C79.33,61.11,77,52,77.51,41.81a28.94,28.94,0,0,1,5.35-15.62c7.06-9.85,22.38-12.7,31.82-3,.31.32.68.59,1.37,1.18V.49h18.2V70.2H116.18V63.51c-3.69,4.23-7.6,6.94-12.5,8Zm19.22-27.08c0-.72.05-1.44,0-2.15A10.76,10.76,0,0,0,108.42,33a9.87,9.87,0,0,0-10.59,3.72,13.15,13.15,0,0,0,.38,15.77,9.84,9.84,0,0,0,15.41,0A11.25,11.25,0,0,0,116.18,44.44Z"/><path d="M183.84,71.52a75.72,75.72,0,0,1-8.24-2.32c-12.4-5-18.56-18.35-15-32.13,3.42-13.13,15.18-21.23,28.48-19.6C202,19,210.46,27.8,211.66,40.89c.25,2.75.26,5.53.39,8.51H177.31c.77,3.63,2.57,6.21,5.82,7.48,6.41,2.49,11.88.59,16.8-4.18l10,8.27a26.79,26.79,0,0,1-14.25,9.54c-1.53.41-3.1.67-4.66,1ZM194.66,40a8.8,8.8,0,0,0-8.77-9.33c-4.73,0-8.7,4.29-8.58,9.33Z"/><path d="M0,0H19V70.56H0Z"/><path d="M339.36,71.52c-1.44-.4-2.91-.74-4.33-1.21-12.17-3.94-17.89-15.61-17-26.72.68-8.85,4.31-16.21,12.16-20.83,12.19-7.17,30.41-2.54,34.1,16.45a28.94,28.94,0,0,1,.5,4c.09,1.66,0,3.32,0,5.22H325.61c.64,6.56,3.44,11.42,9.07,14.44,7.16,3.85,14.33,2.38,24-4.82l4.51,4.05c-4.15,4.55-8.81,7.81-14.81,8.89-.61.11-1.21.33-1.81.49ZM357,42.27c.1-9.1-7.33-16.65-15.84-16.33-8.16.31-15.78,8.44-15.24,16.33Z"/><path d="M41.42,18.51v6.65A58.85,58.85,0,0,1,46,20.91c5.84-4.35,12.28-4.82,18.81-2,6.23,2.64,9.24,8,9.43,14.45.36,12.22.11,24.46.11,36.9H56.13c0-.88,0-1.73,0-2.57,0-8.08,0-16.16,0-24.24a23.23,23.23,0,0,0-.39-4,6.56,6.56,0,0,0-7.06-5.78,6.92,6.92,0,0,0-6.93,6,30.57,30.57,0,0,0-.33,4.53c0,8.63,0,17.26,0,26.07H23.2V18.51Z"/><path d="M258.42,60c4.19-12.75,8.27-25,12.2-37.27.55-1.71,1.3-2.28,3-2.14s3.35,0,5.33,0c-.22.85-.35,1.51-.57,2.13q-8,22.91-15.94,45.82c-.51,1.48-1.17,2.4-2.87,2.06a4.2,4.2,0,0,0-.72,0c-4.62-.1-3.45.71-4.89-3.46-3.77-10.91-7.44-21.87-11.16-32.8-.22-.64-.53-1.25-1-2.35-2.28,6.61-4.42,12.74-6.52,18.88-2,5.8-4,11.59-5.89,17.43-.54,1.69-1.29,2.41-3.18,2.35-4.3-.14-4.31,0-5.73-4.08-1.81-5.19-3.68-10.36-5.37-15.59a19.42,19.42,0,0,1-.94-5.58C214,37,211.89,29.4,205.8,23.21a11.17,11.17,0,0,1-1.33-2.54c2.64,0,4.87-.14,7.07.09.59.06,1.32,1.15,1.57,1.91C217,34.3,220.79,46,224.62,57.61c.22.66.47,1.32.84,2.35.45-1.12.81-1.9,1.07-2.7,3.86-11.55,7.73-23.1,11.51-34.68.5-1.54,1.15-2.11,2.82-2.07,4.11.1,4.1,0,5.45,4Q252,41.39,257.69,58.25C257.84,58.69,258,59.11,258.42,60Z"/><path d="M138.43,18.44h18.12c.06.76.18,1.52.18,2.27,0,15.76,0,31.51,0,47.27,0,1.82-.41,2.53-2.39,2.47-5.26-.14-10.53,0-16,0Z"/><path d="M301.8,70.42h-7.36V21h7.32V32.19c4.77-7.38,10.75-12.27,20.24-12.07,0,2.36.09,4.58-.07,6.77a2,2,0,0,1-1.5,1.25c-12,.25-18.49,10.53-18.56,20.64,0,6.31,0,12.63-.07,18.94C301.79,68.59,301.8,69.44,301.8,70.42Z"/><path d="M290.2,70.27h-7.26V20.81h7.26Z"/><path d="M156.84,13.8H138V.54h18.81Z"/><path d="M290.68,10c-2.09,0-4.06,0-6,0-.7,0-1.4-.07-2.24-.11v-8h8.26Z"/></g></g></svg>