<svg xmlns="http://www.w3.org/2000/svg" viewBox="0 0 99.72 19.55"><defs><style>.cls-1{fill:#fff;}</style></defs><title>indiewire-white</title><g id="Layer_2" data-name="Layer 2"><g id="Layer_1-2" data-name="Layer 1"><g id="Layer_2-2" data-name="Layer 2"><g id="Layer_1-2-2" data-name="Layer 1-2"><path class="cls-1" d="M26.51,19.55a13.47,13.47,0,0,1-2.46-1.12c-2.37-1.72-3-4.21-2.87-7a7.91,7.91,0,0,1,1.46-4.27,5.74,5.74,0,0,1,8.7-.82c.08.09.19.16.37.32V.13h5V19.19H31.76V17.36a6.2,6.2,0,0,1-3.42,2.19Zm5.25-7.4c0-.2,0-.39,0-.59A2.94,2.94,0,0,0,29.63,9a2.7,2.7,0,0,0-2.89,1,3.59,3.59,0,0,0,.1,4.31,2.69,2.69,0,0,0,4.21,0,3.07,3.07,0,0,0,.7-2.2Z"/><path class="cls-1" d="M50.25,19.55A20.7,20.7,0,0,1,48,18.91a7.23,7.23,0,0,1-4.1-8.78,7,7,0,0,1,7.78-5.36,6.7,6.7,0,0,1,6.17,6.4c.07.75.07,1.51.11,2.33h-9.5a2.58,2.58,0,0,0,1.59,2,4.07,4.07,0,0,0,4.59-1.14l2.73,2.26a7.32,7.32,0,0,1-3.89,2.61c-.42.11-.85.18-1.27.27Zm3-8.62A2.41,2.41,0,0,0,51,8.39h-.14a2.45,2.45,0,0,0-2.35,2.55Z"/><path class="cls-1" d="M0,0H5.19V19.29H0Z"/><path class="cls-1" d="M92.76,19.55c-.39-.11-.8-.2-1.18-.33a6.91,6.91,0,0,1-4.65-7.3,6.79,6.79,0,0,1,3.32-5.69,6.17,6.17,0,0,1,9.32,4.5,7.91,7.91,0,0,1,.14,1.09c0,.45,0,.91,0,1.43H89a4.65,4.65,0,0,0,2.48,3.95c2,1.05,3.92.65,6.56-1.32L99.27,17a7.12,7.12,0,0,1-4,2.43c-.17,0-.33.09-.49.13Zm4.82-8a4.35,4.35,0,0,0-4.33-4.46,4.53,4.53,0,0,0-4.17,4.46Z"/><path class="cls-1" d="M11.32,5.06V6.88a16.09,16.09,0,0,1,1.25-1.16,4.9,4.9,0,0,1,5.14-.55,4.16,4.16,0,0,1,2.58,3.95c.1,3.34,0,6.69,0,10.09h-5V11.88a6.35,6.35,0,0,0-.11-1.09A1.79,1.79,0,0,0,13.31,9.2a1.89,1.89,0,0,0-1.89,1.64,8.36,8.36,0,0,0-.09,1.24v7.13h-5V5.06Z"/><path class="cls-1" d="M70.63,16.4C71.78,12.91,72.9,9.57,74,6.21c.15-.47.36-.62.82-.58s.92,0,1.46,0c-.06.23-.1.41-.16.58q-2.19,6.26-4.36,12.52c-.14.4-.32.66-.78.56h-.2c-1.26,0-.94.19-1.34-.95-1-3-2-6-3.05-9-.06-.17-.14-.34-.27-.64-.62,1.81-1.21,3.48-1.78,5.16s-1.09,3.17-1.61,4.76a.76.76,0,0,1-.87.64c-1.18,0-1.18,0-1.57-1.12-.49-1.42-1-2.83-1.47-4.26a5.31,5.31,0,0,1-.26-1.53,8.43,8.43,0,0,0-2.29-6.07,3.05,3.05,0,0,1-.36-.69,19.31,19.31,0,0,1,1.93,0c.16,0,.36.31.43.52,1.06,3.18,2.1,6.38,3.15,9.55.06.18.13.36.23.64.12-.31.22-.52.29-.74C63,12.49,64,9.34,65.06,6.17a.67.67,0,0,1,.77-.57c1.12,0,1.12,0,1.49,1.09l3.11,9.22A4.13,4.13,0,0,0,70.63,16.4Z"/><path class="cls-1" d="M37.84,5h5c0,.21,0,.42,0,.62V18.58c0,.5-.11.69-.65.68-1.44,0-2.88,0-4.37,0Z"/><path class="cls-1" d="M82.49,19.25h-2V5.74h2V8.8c1.3-2,2.94-3.35,5.53-3.3,0,.65,0,1.25,0,1.85a.55.55,0,0,1-.41.34c-3.28.07-5.05,2.88-5.07,5.64,0,1.72,0,3.45,0,5.18C82.49,18.75,82.49,19,82.49,19.25Z"/><path class="cls-1" d="M79.32,19.21h-2V5.69h2Z"/><path class="cls-1" d="M42.87,3.77H37.72V.15h5.14Z"/><path class="cls-1" d="M79.45,2.73H77.81l-.61,0V.52h2.26Z"/></g></g></g></g></svg>