<svg xmlns="http://www.w3.org/2000/svg" viewBox="0 0 52 55.57"><title>itsonus-black</title><g id="Layer_2" data-name="Layer 2"><g id="Layer_1-2" data-name="Layer 1"><g id="Layer_2-2" data-name="Layer 2"><g id="Layer_1-2-2" data-name="Layer 1-2"><path d="M26.7,47.31a1,1,0,0,0-.12.16,12.71,12.71,0,0,1-1.79,2.94,13.86,13.86,0,0,1-2.15,2.13A13.68,13.68,0,0,1,20,54.19a13,13,0,0,1-1.29.55,13.17,13.17,0,0,1-1.91.54c-.48.09-1,.14-1.46.22a11.85,11.85,0,0,1-2.1.07,10.16,10.16,0,0,1-2-.23c-.26-.06-.52-.09-.78-.15a9.44,9.44,0,0,1-1.31-.39c-.25-.1-.51-.18-.75-.28-.45-.2-.9-.4-1.34-.62a13.13,13.13,0,0,1-3-2.16,12.49,12.49,0,0,1-2.28-2.86q-.4-.69-.73-1.42a9.65,9.65,0,0,1-.65-1.92c-.07-.33-.15-.65-.23-1v-.06A21.35,21.35,0,0,1,0,42Q0,30.31,0,18.64c0-.23,0-.28.27-.28H12.84a.19.19,0,0,1,.19.2V42.84a.87.87,0,0,0,.31.76.81.81,0,0,0,1.26-.38,1.56,1.56,0,0,0,.05-.42q0-2.92,0-5.84V18.67c0-.27,0-.31.31-.31H27.51a.16.16,0,0,1,.14.17V24.3c0,.08,0,.19.07.22s.13-.1.17-.16a12.6,12.6,0,0,1,3.42-3.57,13.18,13.18,0,0,1,2-1.17c.38-.18.79-.31,1.18-.47a10.75,10.75,0,0,1,1.64-.47,9.82,9.82,0,0,1,1.05-.17c.5-.06,1-.11,1.49-.13a9.81,9.81,0,0,1,1.88.11h.11a8.57,8.57,0,0,1,1.73.32,13.09,13.09,0,0,1,1.48.48,12.91,12.91,0,0,1,2.92,1.57,12.53,12.53,0,0,1,3,3A11.35,11.35,0,0,1,51,26.1a10.16,10.16,0,0,1,.37,1,13.14,13.14,0,0,1,.38,1.51A11.31,11.31,0,0,1,52,30.5v.13c0,.1-.05.16-.16.16H41.68c-.18,0-.23,0-.25-.22a1.22,1.22,0,0,0-1.58-.88,1,1,0,0,0-.43.27.63.63,0,0,0,.08,1,2.57,2.57,0,0,0,.74.4c.34.13.69.24,1,.35l1.06.31.68.23.87.28,1,.38a15.23,15.23,0,0,1,1.48.68,11.74,11.74,0,0,1,2.12,1.4A9.39,9.39,0,0,1,50.37,37a9.19,9.19,0,0,1,.76,1.43,13.06,13.06,0,0,1,.43,1.25,8.27,8.27,0,0,1,.19.83A13.45,13.45,0,0,1,52,44.08a9,9,0,0,1-.24,1.61c-.1.4-.18.8-.31,1.2a12.2,12.2,0,0,1-.74,1.75,12.53,12.53,0,0,1-1.95,2.76,12.39,12.39,0,0,1-1.61,1.46,12.15,12.15,0,0,1-2.29,1.39c-.37.17-.73.35-1.11.48a15.88,15.88,0,0,1-2.16.59,14,14,0,0,1-3.54.22,11.74,11.74,0,0,1-1.51-.21c-.47-.09-.93-.21-1.4-.32a4.52,4.52,0,0,1-.51-.17c-.29-.11-.58-.22-.87-.34s-.64-.28-1-.44a12.93,12.93,0,0,1-1.51-.92,13.18,13.18,0,0,1-1.77-1.5,12.43,12.43,0,0,1-1.61-2A13.24,13.24,0,0,1,27,48c-.08-.17-.13-.34-.2-.51A1.57,1.57,0,0,0,26.7,47.31Zm5.39-4.14h4.21c.22,0,.24,0,.28.24a1,1,0,0,0,.33.58,1.22,1.22,0,0,0,1.35.24.72.72,0,0,0,.48-.6.67.67,0,0,0-.35-.68l-.08,0c-.3-.14-.58-.29-.89-.4-.46-.16-.94-.29-1.41-.43l-.55-.16-.64-.23c-.32-.1-.64-.19-1-.31-.49-.19-1-.4-1.46-.6a11.62,11.62,0,0,1-2.07-1.13A9.4,9.4,0,0,1,28,37.52c-.08-.11-.16-.22-.24-.32s-.14-.05-.15,0a1.14,1.14,0,0,0,0,.19q0,2.71,0,5.43c0,.3,0,.31.31.32h4.15Z"/><path d="M52,0c0,.1,0,.18,0,.25V16.37c0,.12,0,.24,0,.36s0,.17-.18.18H.37c-.36,0-.36,0-.36-.35Q0,8.42,0,.28V.17C0,0,0,0,.17,0H52ZM32.56,11.83a3,3,0,0,0,1.23-.19,3.54,3.54,0,0,0,1.43-1,3.19,3.19,0,0,0,.68-1.2A3.28,3.28,0,0,0,36,7.74a3.4,3.4,0,0,0-2.72-2.62l-.38-.07a3.67,3.67,0,0,0-2.22.54,3.33,3.33,0,0,0-1.4,1.74,3.43,3.43,0,0,0-.18,1.37,3.19,3.19,0,0,0,.2.91,3.23,3.23,0,0,0,1,1.44,3.34,3.34,0,0,0,2,.77Zm5.92-5.45c.14,0,.18.07.23.14l1.77,2.79,1.31,2c.29.45.17.37.72.38.17,0,.2,0,.22-.2a1.23,1.23,0,0,0,0-.13V5.64c0-.09,0-.19,0-.28s-.07-.23-.24-.24h-.21c-.14,0-.18,0-.2.17a.84.84,0,0,0,0,.15v4.88c0,.07,0,.14-.09.19s-.12-.15-.17-.22L39.6,6.81l-1-1.49c0-.07-.13-.17-.2-.18a2.35,2.35,0,0,0-.53,0s-.07.08-.09.13a.48.48,0,0,0,0,.15v6.14a.15.15,0,0,0,.13.16h.33c.16,0,.18,0,.19-.19V6.61c0-.07,0-.15,0-.22ZM22.6,11.83A2.28,2.28,0,0,0,24,11.47a1.78,1.78,0,0,0,.93-1.68,1.45,1.45,0,0,0-.16-.61,1.92,1.92,0,0,0-1.14-.9c-.4-.14-.83-.19-1.25-.3a5.7,5.7,0,0,1-.83-.28.89.89,0,0,1-.36-.31,1,1,0,0,1,.17-1.26,1.6,1.6,0,0,1,.89-.41,2.36,2.36,0,0,1,.7,0A1.27,1.27,0,0,1,24,6.64a.46.46,0,0,0,.05.16.25.25,0,0,0,.14.11,1.63,1.63,0,0,0,.36,0,.14.14,0,0,0,.14-.18,2,2,0,0,0-.28-.8A2.16,2.16,0,0,0,22.73,5a2.33,2.33,0,0,0-1,.14,1.85,1.85,0,0,0-1.34,1.35A1.42,1.42,0,0,0,20.78,8,2.18,2.18,0,0,0,22,8.52l.13,0,.62.15a3.4,3.4,0,0,1,.77.25,1.22,1.22,0,0,1,.66.69,1.14,1.14,0,0,1-.54,1.29,2.08,2.08,0,0,1-1.27.3,1.62,1.62,0,0,1-.86-.29,1.34,1.34,0,0,1-.55-.74c-.1-.33-.09-.34-.45-.33s-.25,0-.24.26a1.57,1.57,0,0,0,.39.88,2.14,2.14,0,0,0,1.72.83Zm-8.9-3.1h0v2.85a.14.14,0,0,0,.12.16h.36c.15,0,.19,0,.2-.19V6.1a1.53,1.53,0,0,1,0-.17c0-.14.06-.17.19-.19h1.78c.23,0,.26,0,.26-.27s0-.35-.36-.35h-4.4c-.38,0-.39,0-.39.4v.06a.15.15,0,0,0,.15.15h1.78c.29,0,.3,0,.3.3v.06q0,1.31,0,2.62Zm-3.78,3c0-.13,0-.22,0-.31V5.51c0-.4,0-.41-.41-.39H9.47a.18.18,0,0,0-.16.17v6.28a.14.14,0,0,0,.13.16h.49ZM18.6,5c-.33,0-.33,0-.36.33a2.46,2.46,0,0,1-.17.81c-.09.19-.17.39-.27.58s0,.27.14.29a.32.32,0,0,0,.2-.06.91.91,0,0,0,.17-.19,2.4,2.4,0,0,0,.37-.72,2.8,2.8,0,0,0,.2-.85c0-.16,0-.19-.18-.2H18.6Z"/><path d="M32.62,11.22a2.79,2.79,0,0,1-2.26-1,2.67,2.67,0,0,1-.61-1.31,2.94,2.94,0,0,1,0-1.17,2.5,2.5,0,0,1,.54-1.05,2.92,2.92,0,0,1,4.1-.32,2.75,2.75,0,0,1,.82,1.25,2.72,2.72,0,0,1,.06,1.5,2.65,2.65,0,0,1-.91,1.45A2.78,2.78,0,0,1,32.62,11.22Z"/></g></g></g></g></svg>