<svg xmlns="http://www.w3.org/2000/svg" viewBox="0 0 105.06 68"><defs><style>.cls-1{fill:#ef5035;}</style></defs><title>jpl-laurel-red</title><g id="Layer_2" data-name="Layer 2"><g id="Layer_1-2" data-name="Layer 1"><g id="Layer_2-2" data-name="Layer 2"><g id="Layer_1-2-2" data-name="Layer 1-2"><path class="cls-1" d="M80.85,4.5A4.3,4.3,0,0,1,80,.11a3.11,3.11,0,0,1,2.61,3.23c-.13,1.91.94,2.52,2.37,3,.07,0,.17,0,.26,0-.51-2.59-.48-2.88.39-4.23A3.37,3.37,0,0,1,87.49,6c-.37,1.61.33,2.41,1.57,3.06.16.09.31.22.65.45a4.88,4.88,0,0,1,.78-4.39c1.81.89,2,2.24,1,5.93.23.25.5.52.74.82a4.94,4.94,0,0,0,1,1.09c.33-1.63.58-3.11,2.1-4.16.93,1.38,1.37,2.91.54,4.21-1.1,1.73-.48,2.94.52,4.25l.18.15a4.82,4.82,0,0,1,2.53-3.92A3.62,3.62,0,0,1,99.42,17a6.29,6.29,0,0,1-1.17,2A1.31,1.31,0,0,0,98,20.49c.27.61.52,1.22.89,2.08a4.7,4.7,0,0,1,3-3.75,3.35,3.35,0,0,1-.91,4.52c-1.5,1.18-1.47,2.37-.77,4a5.37,5.37,0,0,1,3.81-2.77,3.48,3.48,0,0,1-.89,3.6,5.34,5.34,0,0,1-1.57,1.24,1.54,1.54,0,0,0-1,2.09,9.08,9.08,0,0,1,.18,1,5.52,5.52,0,0,1,4.2-1.94,4.13,4.13,0,0,1,0,1.06,4.58,4.58,0,0,1-3.16,3.29c-1,.3-1.46.77-1.41,1.8a7.83,7.83,0,0,1-.23,1.4A5.05,5.05,0,0,1,105,36.54a3.37,3.37,0,0,1-1.7,2.91,8.67,8.67,0,0,1-2.11.89c-1.69.48-1.7.45-1.89,2.29,2.94-.82,3.08-.83,4.84-.14a4.93,4.93,0,0,1-2.66,2.61,3.64,3.64,0,0,1-1.67.37c-1.77-.24-2.5.74-2.88,2.24C99.22,47,100,47,102,48.1a4.24,4.24,0,0,1-3.36,2.29,7.23,7.23,0,0,1-2,0C95,50.23,94.8,50.31,94,52a6.31,6.31,0,0,1,4.93,1.31c-2.19,2.5-4.66,1.88-7.23.89L90,55.77a21.5,21.5,0,0,1,2.72.63,3.65,3.65,0,0,1,2.15,1.69c-1.7,1.45-3.52,1.35-5.41.62a5.67,5.67,0,0,1-.65-.3c-1.42-.77-1.42-.77-2.86.49A7.25,7.25,0,0,1,90.36,62a4.58,4.58,0,0,1-3.86.55,5.94,5.94,0,0,1-2.14-1.14c-1.07-1.09-2.06-1-3.29-.13a6.44,6.44,0,0,1,3.81,3.6c-2.18,1.27-4.25.44-7-2.78a22.75,22.75,0,0,0-12,5.88l-1-1a8.81,8.81,0,0,1,3.69-2.89,56.39,56.39,0,0,1,6.82-2.7,2.1,2.1,0,0,0,1.77-2,5.06,5.06,0,0,1,2.77-4.28,5.56,5.56,0,0,1,.77-.28c.94,1.49.65,3.08-.87,5.44,1.93-.37,2-.41,1.92-2.25a5.35,5.35,0,0,1,2-4.83,2.61,2.61,0,0,1,.48-.3.75.75,0,0,1,.28,0c1,1.69,1,3-.13,5.56.35-.21.59-.33.81-.48,1.22-.77,1.23-.78.85-2.16a5.14,5.14,0,0,1,.68-4.58A11.85,11.85,0,0,1,87.74,50a5.56,5.56,0,0,1,1,4.9c1.41-.37,1.63-.74,1.1-2-.74-1.82-1-3.61.14-5.37.13-.2.3-.36.56-.68a5.6,5.6,0,0,1,1.85,4.65c1.43-.86,1.55-1.23.74-2.45a5.07,5.07,0,0,1-.74-5.16,7.34,7.34,0,0,1,.5-.78A5.93,5.93,0,0,1,95.34,48l1.29-2.18c-1.8-1.83-3.47-3.64-2.23-6.62a5.31,5.31,0,0,1,3.27,4.33l.3-.82c.57-1.51.57-1.51-.7-2.6-1.11-1-2.12-2-2.13-3.6a12.13,12.13,0,0,1,.14-1.36c1.86.43,2.64,1.12,3.92,3.32.07-.33.14-.59.2-.86.33-1.48.33-1.49-1.05-2.18a4.86,4.86,0,0,1-3-3.8,1.63,1.63,0,0,1,0-.43,2,2,0,0,1,.22-.42,5.69,5.69,0,0,1,4.27,2.71v-.83c0-1.74,0-1.73-1.61-2.31a4.52,4.52,0,0,1-3.43-3.88,4.64,4.64,0,0,1,4.7,2.17c-.08-.6-.11-.89-.15-1.17s-.11-.65-.18-1a1.1,1.1,0,0,0-1.06-1,12.2,12.2,0,0,1-2-.4,3.53,3.53,0,0,1-2.53-2.66c1.17-.7,1.86-.63,4.51.52-.15-.53-.27-1-.41-1.42a1.17,1.17,0,0,0-1.31-.88,11.61,11.61,0,0,1-1.59,0,4.36,4.36,0,0,1-3.5-2.33,4.48,4.48,0,0,1,5.18.5l-1.71-3c-2.29.86-4.43,1.23-6.18-1.09a4.56,4.56,0,0,1,5-.51l-2.06-2.39c-3.22,1.48-4.7,1.45-6.28-.13a5.43,5.43,0,0,1,4.32-1.53l-2-1.7c-1.89,1.23-3.73,2.66-6,1,1-1.56,2-2,4.3-2.06-.36-.25-.61-.45-.9-.62-1.66-1-1.66-1-3.14.33a3.56,3.56,0,0,1-4.32.65,4.3,4.3,0,0,1,4-2.57l-.65-.76Z"/><path class="cls-1" d="M24.3,4.5l-.65.76a4.38,4.38,0,0,1,4.08,2.63,3.21,3.21,0,0,1-2.88.19,5.39,5.39,0,0,1-1.25-.71C23,7,22.43,6.11,21.93,6.17a6.85,6.85,0,0,0-2.51,1.24,4.71,4.71,0,0,1,4.16,1.91c-1.25,1.48-2.39,1.36-6-.71l-2,1.58a5.76,5.76,0,0,1,4.32,1.57c-1.37,1.59-3.18,1.63-6.25.13l-2.09,2.39a4.49,4.49,0,0,1,4.9.43c-1,1.93-2.63,2.27-6,1.22L8.67,18.86a4.46,4.46,0,0,1,5.16-.51,4.28,4.28,0,0,1-3.3,2.33,6.72,6.72,0,0,1-.86,0c-2.07,0-2.15.08-2.52,2.33,1.4-.82,2.78-1.38,4.49-.73A3.55,3.55,0,0,1,9.2,25.07a6.39,6.39,0,0,1-1.82.39A1.39,1.39,0,0,0,5.91,26.9c-.06.47-.16.94-.3,1.69a5.23,5.23,0,0,1,4.67-2.15,3.82,3.82,0,0,1-2,3.36,4.15,4.15,0,0,1-.91.43c-2.15.82-2.15.82-2,3.27a20.43,20.43,0,0,1,1.88-1.85,4,4,0,0,1,2.52-.8A4.24,4.24,0,0,1,8.42,34.4a9.93,9.93,0,0,1-1.68,1.1c-1.22.65-1.25.65-1,2,.07.33.15.65.22,1a14.66,14.66,0,0,1,1.52-2A16.79,16.79,0,0,1,9.72,34.9a3.68,3.68,0,0,1-.48,3.86,9,9,0,0,1-1.53,1.52c-1.07.91-1.09.9-.62,2.14.11.3.24.6.42,1.08a5.29,5.29,0,0,1,3.09-4.23c1.4,2.29.45,4-2,6.58L9.77,48a6.33,6.33,0,0,1,2.36-4.82A3.76,3.76,0,0,1,13,46.94a6.45,6.45,0,0,1-.91,1.94c-.81,1.31-.82,1.42.26,2.57.13.13.28.25.59.52a5.35,5.35,0,0,1,1.63-5.2,4.84,4.84,0,0,1,1.31,3.92,11.83,11.83,0,0,1-.57,2.08c-.52,1.43-.5,1.5,1.09,2.29a5.59,5.59,0,0,1,.89-4.9,4.57,4.57,0,0,1,2,5.18c-.4,1.88-.4,1.88,1.67,3.1a5.25,5.25,0,0,1-.24-5.78,5.17,5.17,0,0,1,2.71,3.76,12,12,0,0,1,0,1.44c0,1.87,0,1.87,2.06,2.51-1.24-1.76-1.91-3.5-1.15-5.64a5,5,0,0,1,3.37,3,1.75,1.75,0,0,1,.2.69c-.06,2.13,1.19,2.86,3.09,3.33a21.66,21.66,0,0,1,7.52,3.52c.61.44,1.16,1,1.89,1.58L39.41,68a22.66,22.66,0,0,0-12.09-5.85c-3,3.24-4.79,4-7.08,2.77A6.4,6.4,0,0,1,24,61.38c-1.44-1.11-1.56-1.09-3,0-1.63,1.18-3.35,1.91-5.38,1.07a7.31,7.31,0,0,1-.71-.4A6.36,6.36,0,0,1,19.07,59c-1.13-1.34-1.31-1.35-2.69-.62-2,1.09-4.07,1.34-6.06-.16.75-1.47,2.58-2.34,4.93-2.47a12.36,12.36,0,0,1-1.22-1,1.16,1.16,0,0,0-1.41-.27A10.31,10.31,0,0,1,10,55c-1.58.09-2.4-.33-3.75-1.71a5.7,5.7,0,0,1,4.83-1.25c-.5-1.58-.95-1.88-2.29-1.7a5.68,5.68,0,0,1-4.52-.95A14.29,14.29,0,0,1,3,48.18a4.79,4.79,0,0,1,5.34-.26c-.26-.59-.45-.94-.59-1.31A1.57,1.57,0,0,0,6,45.52a5,5,0,0,1-4.63-2.38,3.85,3.85,0,0,1-.28-.69c1.68-.84,3.22-.36,4.75.28-.06-1.87-.07-1.87-1.79-2.38C2.66,39.94,1.27,39.49.58,38c-.2-.42-.33-.87-.54-1.45A5.06,5.06,0,0,1,4.9,38c-.12-.82-.22-1.47-.3-2.12s-.74-.81-1.26-1a4.71,4.71,0,0,1-3-2.84A8.21,8.21,0,0,1,0,30.73c1.67-.24,2.73.21,4.25,1.76.09-.41.14-.75.24-1.09a1.48,1.48,0,0,0-.92-2A4.62,4.62,0,0,1,1,26.31a10.08,10.08,0,0,1-.1-1.68c1.78.21,2.61.78,4,2.82A15.51,15.51,0,0,0,5.42,25c0-.33-.39-.72-.69-1a4.76,4.76,0,0,1-1.94-3.09,14.9,14.9,0,0,1,.12-2.11c2,.68,2.61,1.38,3.4,3.63a9.18,9.18,0,0,1,.49-1.11,2.25,2.25,0,0,0-.29-3,4.19,4.19,0,0,1-.47-5,5,5,0,0,1,2.5,4.2L9.9,15.49c.41-.62,0-1.11-.3-1.59a4.65,4.65,0,0,1-.25-4.29,3.85,3.85,0,0,1,.47-.67c1.31.9,1.69,1.66,1.92,4.15a24.4,24.4,0,0,0,1.74-1.79c.15-.19.07-.61,0-.92-.13-.71-.38-1.4-.46-2.1a3.33,3.33,0,0,1,1.51-3.2c1.14,1.24,1.31,2.67.79,4.58a25.78,25.78,0,0,0,2.09-1.6,1.5,1.5,0,0,0,.33-1c0-.57-.13-1.14-.13-1.72,0-1.6.43-2.29,2-3.27,1,1.34.76,2.77.19,4.44.62-.27,1-.49,1.46-.64a1.71,1.71,0,0,0,1.26-2A3.8,3.8,0,0,1,25,0c1,1.76.27,3.16-.72,4.51Z"/><path class="cls-1" d="M45,31.54a1.6,1.6,0,0,0,.39.18,2,2,0,0,0,.69.11,1.09,1.09,0,0,0,.54-.11.75.75,0,0,0,.33-.35,1.84,1.84,0,0,0,.14-.61q0-.37,0-.88v-3.3h1.5v3.3a10.73,10.73,0,0,1-.08,1.35,2.61,2.61,0,0,1-.33,1,1.73,1.73,0,0,1-.76.65,3.18,3.18,0,0,1-1.35.24,2.43,2.43,0,0,1-1.41-.4Z"/><path class="cls-1" d="M49.75,33.07v-6.5h2.77a1.91,1.91,0,0,1,.86.19,2.19,2.19,0,0,1,.65.5,2.4,2.4,0,0,1,.44.71,2.1,2.1,0,0,1,.16.8,2.29,2.29,0,0,1-.15.82,2.35,2.35,0,0,1-.42.71,2,2,0,0,1-1.5.68H51.25v2.1Zm1.5-3.41h1.23a.58.58,0,0,0,.46-.23,1,1,0,0,0,.19-.65,1.16,1.16,0,0,0-.06-.39.81.81,0,0,0-.16-.27.61.61,0,0,0-.23-.16.7.7,0,0,0-.25,0H51.25Z"/><path class="cls-1" d="M55.45,33.07v-6.5h1.5v6.5Z"/><path class="cls-1" d="M58.18,33.07v-6.5h1.5v6.5Z"/><path class="cls-1" d="M16.58,41.9V35.4h1.5v6.5Z"/><path class="cls-1" d="M20.83,38.18V41.9h-1.5V35.4H20.5l3,3.81V35.4H25v6.5H23.82Z"/><path class="cls-1" d="M31.23,36.72h-2V41.9H27.75V36.72h-2V35.41h5.47Z"/><path class="cls-1" d="M36.53,40.58v1.31H32V35.4h4.49v1.31h-3V38H36v1.22H33.46v1.38Z"/><path class="cls-1" d="M37.44,41.9V35.4h2.94a1.89,1.89,0,0,1,.85.19,2.25,2.25,0,0,1,.67.5,2.36,2.36,0,0,1,.44.71,2.1,2.1,0,0,1,.14.78,2.26,2.26,0,0,1-.28,1.11,2,2,0,0,1-.78.78l1.43,2.42H41.16l-1.25-2.1h-1v2.1Zm1.5-3.41h1.37a.56.56,0,0,0,.46-.25,1,1,0,0,0,.19-.65.91.91,0,0,0-.22-.65.65.65,0,0,0-.48-.24H38.94Z"/><path class="cls-1" d="M45.07,38.18V41.9h-1.5V35.4h1.17l3,3.81V35.4h1.5v6.5H48.06Z"/><path class="cls-1" d="M52.3,35.4h1.35L56,41.9H54.48L54,40.44H52l-.49,1.45H49.93Zm1.44,4L53,37.12l-.78,2.29Z"/><path class="cls-1" d="M61,36.72H59V41.9H57.5V36.72h-2V35.41H61Z"/><path class="cls-1" d="M61.69,41.9V35.4h1.5v6.5Z"/><path class="cls-1" d="M67.29,42A3,3,0,0,1,66,41.67a3.25,3.25,0,0,1-1-.75,3.4,3.4,0,0,1-.65-1.06,3.33,3.33,0,0,1-.23-1.23,3.34,3.34,0,0,1,1.95-3,3.11,3.11,0,0,1,1.31-.27,3,3,0,0,1,1.31.28,3.21,3.21,0,0,1,1,.75,3.39,3.39,0,0,1,.65,1.06,3.35,3.35,0,0,1,.23,1.21,3.25,3.25,0,0,1-.24,1.24,3.29,3.29,0,0,1-1.7,1.77A3.06,3.06,0,0,1,67.29,42Zm-1.69-3.29a2.42,2.42,0,0,0,.11.73A1.94,1.94,0,0,0,66,40a1.6,1.6,0,0,0,.54.44,1.58,1.58,0,0,0,.73.16,1.55,1.55,0,0,0,.75-.17,1.63,1.63,0,0,0,.53-.45,2,2,0,0,0,.33-.63,2.5,2.5,0,0,0,.1-.72,2.45,2.45,0,0,0-.11-.73,1.85,1.85,0,0,0-.33-.62,1.63,1.63,0,0,0-.54-.43,1.59,1.59,0,0,0-.73-.16,1.56,1.56,0,0,0-.75.17,1.67,1.67,0,0,0-.53.44,1.88,1.88,0,0,0-.33.63,2.49,2.49,0,0,0-.11.72Z"/><path class="cls-1" d="M72.89,38.18V41.9h-1.5V35.4h1.17l3,3.81V35.4h1.5v6.5H75.89Z"/><path class="cls-1" d="M80.11,35.4h1.35l2.37,6.5H82.3l-.5-1.45h-2l-.49,1.45H77.74Zm1.44,4-.76-2.29L80,39.41Z"/><path class="cls-1" d="M84.47,41.9V35.4H86v5.18h3.15v1.31Z"/><path class="cls-1" d="M27.7,16.82h.72L30,21h-.83l-.39-1H27.33l-.38,1h-.84Zm.93,2.57-.58-1.63-.6,1.63Z"/><path class="cls-1" d="M32,20.31a.93.93,0,0,0,.48-.12,1,1,0,0,0,.33-.31,1.27,1.27,0,0,0,.17-.43,2.51,2.51,0,0,0,0-.5V16.82h.81v2.13a3,3,0,0,1-.1.81,1.85,1.85,0,0,1-.33.65,1.55,1.55,0,0,1-.57.45,1.92,1.92,0,0,1-.83.16,1.9,1.9,0,0,1-.85-.17,1.58,1.58,0,0,1-.57-.46,1.83,1.83,0,0,1-.33-.65,3.12,3.12,0,0,1-.1-.78V16.82h.84v2.13a2.52,2.52,0,0,0,0,.51,1.26,1.26,0,0,0,.17.43.89.89,0,0,0,.79.42Z"/><path class="cls-1" d="M34.7,21V16.82h1.52a2.27,2.27,0,0,1,.9.16,1.8,1.8,0,0,1,1,1.11,2.49,2.49,0,0,1,.13.81,2.44,2.44,0,0,1-.14.86,1.84,1.84,0,0,1-.42.65,1.87,1.87,0,0,1-.65.42,2.29,2.29,0,0,1-.85.15Zm2.76-2.1a1.79,1.79,0,0,0-.08-.55,1.24,1.24,0,0,0-.24-.43,1.08,1.08,0,0,0-.39-.28,1.31,1.31,0,0,0-.53-.1h-.71v2.75h.71a1.27,1.27,0,0,0,.53-.1,1.09,1.09,0,0,0,.39-.29,1.31,1.31,0,0,0,.24-.44A1.77,1.77,0,0,0,37.45,18.9Z"/><path class="cls-1" d="M38.9,21V16.82h.81V21Z"/><path class="cls-1" d="M43.49,20.28V21h-2.9V16.82h2.85v.71h-2v1h1.76v.65H41.4v1.09Z"/><path class="cls-1" d="M44.94,18.32V21h-.81V16.82h.63l2.18,2.74V16.83h.81V21h-.65Z"/><path class="cls-1" d="M48.38,18.88a2.16,2.16,0,0,1,.14-.76,2,2,0,0,1,1-1.14,2,2,0,0,1,.87-.18,1.9,1.9,0,0,1,1,.25,1.63,1.63,0,0,1,.63.65l-.62.43a1.07,1.07,0,0,0-.2-.3,1,1,0,0,0-.25-.19,1.14,1.14,0,0,0-.28-.1,1.34,1.34,0,0,0-.29,0,1.09,1.09,0,0,0-.53.12,1.17,1.17,0,0,0-.38.33,1.42,1.42,0,0,0-.23.45,1.7,1.7,0,0,0-.08.5,1.63,1.63,0,0,0,.09.53,1.42,1.42,0,0,0,.25.45,1.25,1.25,0,0,0,.39.33,1.06,1.06,0,0,0,.5.12,1.31,1.31,0,0,0,.29,0,1.09,1.09,0,0,0,.55-.31.91.91,0,0,0,.19-.29l.65.38a1.26,1.26,0,0,1-.28.42,1.84,1.84,0,0,1-.42.3,2.14,2.14,0,0,1-.5.19,2.18,2.18,0,0,1-.52.07,1.78,1.78,0,0,1-.82-.19,2.13,2.13,0,0,1-.65-.49,2.29,2.29,0,0,1-.42-.69A2.15,2.15,0,0,1,48.38,18.88Z"/><path class="cls-1" d="M55.57,20.28V21h-2.9V16.82h2.85v.71h-2v1h1.76v.65H53.48v1.09Z"/><path class="cls-1" d="M58.61,16.82h.72L60.91,21h-.84l-.39-1H58.23l-.38,1H57Zm.93,2.57L59,17.75l-.6,1.63Z"/><path class="cls-1" d="M62.45,16.83h.75l.47,1.38.47-1.38h.75l-.71,1.9.54,1.34,1.18-3.25h.88L65.08,21h-.69l-.72-1.75L62.95,21h-.68l-1.69-4.18h.87l1.19,3.25.52-1.34Z"/><path class="cls-1" d="M68,16.82h.72L70.35,21h-.84l-.39-1H67.66l-.38,1h-.84ZM69,19.39l-.58-1.63-.6,1.63Z"/><path class="cls-1" d="M70.8,21V16.82h1.85a1.19,1.19,0,0,1,.53.12,1.38,1.38,0,0,1,.42.33,1.5,1.5,0,0,1,.26.44,1.34,1.34,0,0,1,.1.5,1.39,1.39,0,0,1-.2.74,1.16,1.16,0,0,1-.55.48l1,1.57h-.91l-.84-1.4h-.8V21Zm.81-2.11h1a.43.43,0,0,0,.21-.05.53.53,0,0,0,.17-.14.72.72,0,0,0,.11-.22.83.83,0,0,0,0-.26.76.76,0,0,0,0-.27.71.71,0,0,0-.13-.22.57.57,0,0,0-.18-.14.47.47,0,0,0-.21,0h-1Z"/><path class="cls-1" d="M74.71,21V16.82h1.52a2.27,2.27,0,0,1,.91.17,1.8,1.8,0,0,1,1,1.11,2.49,2.49,0,0,1,.13.81,2.44,2.44,0,0,1-.14.86,1.84,1.84,0,0,1-.42.65,1.87,1.87,0,0,1-.65.42,2.29,2.29,0,0,1-.85.15Zm2.75-2.1a1.79,1.79,0,0,0-.08-.55,1.24,1.24,0,0,0-.24-.43,1.08,1.08,0,0,0-.39-.28,1.31,1.31,0,0,0-.53-.1h-.71v2.75h.71a1.27,1.27,0,0,0,.53-.1,1.09,1.09,0,0,0,.39-.29,1.31,1.31,0,0,0,.24-.44A1.77,1.77,0,0,0,77.47,18.9Z"/><path class="cls-1" d="M31.93,51.4V47.22h2.81v.71h-2V49h1.66v.65H32.75V51.4Z"/><path class="cls-1" d="M35.3,51.4V47.22h.81V51.4Z"/><path class="cls-1" d="M37,51.4V47.22h.81v3.46h2.13v.71Z"/><path class="cls-1" d="M43.84,51.4V48.63l-1.08,2.06h-.44l-1.08-2.06V51.4h-.81V47.22h.87l1.24,2.38,1.25-2.38h.87V51.4Z"/><path class="cls-1" d="M46.93,51.4V47.22h2.81v.71h-2V49H49.4v.65H47.74V51.4Z"/><path class="cls-1" d="M53.21,50.68v.71h-2.9V47.22h2.85v.71h-2v1h1.76v.65H51.12v1.09Z"/><path class="cls-1" d="M56.25,48.31l-.15-.11-.26-.14L55.5,48a1.47,1.47,0,0,0-.37,0,.83.83,0,0,0-.5.12.41.41,0,0,0-.16.35.36.36,0,0,0,.06.22.53.53,0,0,0,.18.15,1.5,1.5,0,0,0,.3.12l.42.11a5.61,5.61,0,0,1,.56.18,1.5,1.5,0,0,1,.42.24,1,1,0,0,1,.27.33,1.12,1.12,0,0,1,.09.49,1.21,1.21,0,0,1-.13.57,1.07,1.07,0,0,1-.33.39,1.48,1.48,0,0,1-.49.22,2.48,2.48,0,0,1-.59.07,3.14,3.14,0,0,1-1-.13,2.87,2.87,0,0,1-.82-.4l.36-.7a1.12,1.12,0,0,0,.19.14l.33.17a2.51,2.51,0,0,0,.42.14,1.88,1.88,0,0,0,.47.06q.67,0,.67-.43a.35.35,0,0,0-.08-.23.65.65,0,0,0-.22-.16,2.1,2.1,0,0,0-.33-.13l-.45-.13a3.77,3.77,0,0,1-.52-.18,1.36,1.36,0,0,1-.37-.23.86.86,0,0,1-.22-.31,1.06,1.06,0,0,1-.07-.42,1.31,1.31,0,0,1,.12-.57,1.14,1.14,0,0,1,.33-.41,1.48,1.48,0,0,1,.48-.25,2,2,0,0,1,.59-.08,2.3,2.3,0,0,1,.81.14,3,3,0,0,1,.65.33Z"/><path class="cls-1" d="M60.47,47.93H59.13V51.4h-.81V47.93H57v-.71h3.48Z"/><path class="cls-1" d="M61,51.4V47.22h.8V51.4Z"/><path class="cls-1" d="M63.08,47.22l1.13,3.16,1.12-3.16h.85L64.55,51.4h-.68l-1.63-4.18Z"/><path class="cls-1" d="M67.46,47.22h.72l1.59,4.18h-.84l-.39-1H67.09l-.38,1h-.84Zm.93,2.57-.58-1.63-.6,1.63Z"/><path class="cls-1" d="M70.23,51.4V47.22H71v3.46h2.13v.71Z"/></g></g></g></g></svg>