<svg xmlns="http://www.w3.org/2000/svg" viewBox="0 0 105.19 68.08"><defs><style>.cls-1{fill:#ef5035;}</style></defs><title>justice-laurel-red</title><g id="Layer_2" data-name="Layer 2"><g id="Layer_1-2" data-name="Layer 1"><g id="Layer_2-2" data-name="Layer 2"><g id="Layer_1-2-2" data-name="Layer 1-2"><path class="cls-1" d="M80.94,4.51a4.3,4.3,0,0,1-.88-4.4,3.11,3.11,0,0,1,2.62,3.23c-.13,1.91.94,2.52,2.37,3,.07,0,.17,0,.26,0-.51-2.6-.48-2.88.39-4.23a3.37,3.37,0,0,1,1.89,4c-.37,1.61.33,2.41,1.57,3.07.16.09.31.22.65.45a4.88,4.88,0,0,1,.79-4.4c1.81.89,2,2.24,1,5.94.23.26.5.52.74.82a4.94,4.94,0,0,0,1,1.09c.33-1.64.58-3.12,2.1-4.17.93,1.38,1.37,2.91.54,4.22-1.1,1.73-.48,2.95.52,4.25l.18.15a4.82,4.82,0,0,1,2.53-3.93A3.62,3.62,0,0,1,99.54,17a6.29,6.29,0,0,1-1.17,2,1.31,1.31,0,0,0-.27,1.56c.27.61.52,1.22.89,2.08A4.71,4.71,0,0,1,102,18.84a3.36,3.36,0,0,1-.91,4.52c-1.5,1.18-1.47,2.37-.77,4a5.38,5.38,0,0,1,3.82-2.78,3.48,3.48,0,0,1-.89,3.6,5.34,5.34,0,0,1-1.57,1.24,1.54,1.54,0,0,0-1,2.09,9.09,9.09,0,0,1,.18,1,5.53,5.53,0,0,1,4.21-1.94,4.14,4.14,0,0,1,0,1.06,4.58,4.58,0,0,1-3.16,3.3c-1,.3-1.46.77-1.41,1.8a7.83,7.83,0,0,1-.23,1.4,5.06,5.06,0,0,1,4.75-1.57,3.37,3.37,0,0,1-1.7,2.91,8.68,8.68,0,0,1-2.12.89c-1.7.48-1.71.45-1.89,2.29,2.95-.82,3.08-.83,4.84-.14a4.93,4.93,0,0,1-2.66,2.62,3.64,3.64,0,0,1-1.67.37c-1.78-.24-2.5.74-2.88,2.24,2.33-.75,3.13-.69,5.06.4a4.25,4.25,0,0,1-3.37,2.29,7.24,7.24,0,0,1-2,0c-1.61-.16-1.78-.08-2.56,1.64a6.32,6.32,0,0,1,4.93,1.31c-2.19,2.51-4.67,1.88-7.24.89l-1.67,1.55a21.53,21.53,0,0,1,2.72.63A3.65,3.65,0,0,1,95,58.16c-1.71,1.46-3.52,1.35-5.42.62a5.67,5.67,0,0,1-.65-.3c-1.42-.77-1.42-.77-2.87.49a7.25,7.25,0,0,1,4.38,3.14,4.59,4.59,0,0,1-3.86.55,5.94,5.94,0,0,1-2.15-1.15c-1.07-1.09-2.06-1-3.29-.13A6.45,6.45,0,0,1,85,65c-2.18,1.27-4.25.44-7.05-2.78a22.78,22.78,0,0,0-12.06,5.89l-1-1a8.82,8.82,0,0,1,3.7-2.9,56.46,56.46,0,0,1,6.82-2.71,2.11,2.11,0,0,0,1.78-2,5.07,5.07,0,0,1,2.77-4.29,5.56,5.56,0,0,1,.78-.28c.94,1.49.65,3.08-.87,5.45,1.93-.37,2-.41,1.92-2.25a5.36,5.36,0,0,1,2-4.84,2.62,2.62,0,0,1,.48-.3.75.75,0,0,1,.28,0c1,1.69,1,3-.13,5.56.35-.21.59-.33.81-.48,1.22-.78,1.23-.78.85-2.16a5.14,5.14,0,0,1,.68-4.58,11.86,11.86,0,0,1,1.12-1.19,5.56,5.56,0,0,1,1,4.91c1.41-.37,1.64-.74,1.1-2-.74-1.82-1-3.62.14-5.38.13-.2.3-.36.56-.68a5.6,5.6,0,0,1,1.85,4.66c1.43-.86,1.55-1.23.74-2.45a5.08,5.08,0,0,1-.74-5.17,7.35,7.35,0,0,1,.5-.78,5.94,5.94,0,0,1,2.42,4.91l1.29-2.18c-1.8-1.83-3.48-3.65-2.24-6.63a5.32,5.32,0,0,1,3.27,4.33l.3-.82c.57-1.51.57-1.51-.7-2.6-1.12-1-2.12-2-2.13-3.6a12.15,12.15,0,0,1,.14-1.36c1.86.44,2.64,1.12,3.93,3.32.07-.33.14-.59.2-.86.33-1.48.33-1.49-1.05-2.18a4.87,4.87,0,0,1-3-3.81,1.64,1.64,0,0,1,0-.43,2,2,0,0,1,.22-.43A5.7,5.7,0,0,1,100,33.55v-.83c0-1.74,0-1.73-1.62-2.31a4.53,4.53,0,0,1-3.43-3.89,4.65,4.65,0,0,1,4.71,2.18c-.08-.6-.11-.89-.15-1.17s-.11-.65-.18-1a1.1,1.1,0,0,0-1.06-1,12.22,12.22,0,0,1-2-.4,3.54,3.54,0,0,1-2.53-2.66c1.17-.7,1.86-.63,4.51.52-.15-.53-.27-1-.41-1.42a1.17,1.17,0,0,0-1.31-.88,11.62,11.62,0,0,1-1.59,0,4.36,4.36,0,0,1-3.51-2.33,4.49,4.49,0,0,1,5.18.5l-1.71-3c-2.29.86-4.43,1.23-6.19-1.09a4.56,4.56,0,0,1,5-.51L91.7,11.92c-3.22,1.48-4.71,1.46-6.29-.13a5.43,5.43,0,0,1,4.32-1.53l-2-1.7c-1.89,1.23-3.73,2.66-6,1,1-1.56,2-2,4.3-2.06-.36-.25-.62-.45-.9-.62-1.66-1-1.66-1-3.15.33a3.57,3.57,0,0,1-4.32.65,4.31,4.31,0,0,1,4.05-2.58L81,4.53Z"/><path class="cls-1" d="M24.33,4.5l-.65.76A4.39,4.39,0,0,1,27.75,7.9a3.21,3.21,0,0,1-2.89.19,5.39,5.39,0,0,1-1.25-.71C23,7,22.46,6.12,22,6.18a6.86,6.86,0,0,0-2.51,1.24,4.72,4.72,0,0,1,4.16,1.91c-1.25,1.48-2.39,1.36-6-.71l-2,1.58a5.76,5.76,0,0,1,4.33,1.57c-1.37,1.59-3.18,1.64-6.25.13l-2.09,2.4a4.5,4.5,0,0,1,4.91.43c-1,1.93-2.64,2.27-6,1.22L8.68,18.89a4.47,4.47,0,0,1,5.17-.51,4.29,4.29,0,0,1-3.31,2.33,6.73,6.73,0,0,1-.86,0c-2.07,0-2.15.08-2.53,2.34,1.4-.82,2.79-1.38,4.49-.73A3.55,3.55,0,0,1,9.21,25.1a6.4,6.4,0,0,1-1.83.39,1.4,1.4,0,0,0-1.46,1.44c-.06.47-.16.94-.3,1.7a5.24,5.24,0,0,1,4.67-2.15,3.83,3.83,0,0,1-2,3.36,4.15,4.15,0,0,1-.91.43c-2.16.82-2.16.82-2,3.27a20.45,20.45,0,0,1,1.89-1.85,4,4,0,0,1,2.52-.8,4.24,4.24,0,0,1-1.38,3.55,10,10,0,0,1-1.68,1.11c-1.22.65-1.25.65-1,2,.07.33.15.65.22,1a14.68,14.68,0,0,1,1.52-2,16.81,16.81,0,0,1,2.23-1.53,3.68,3.68,0,0,1-.48,3.86,9,9,0,0,1-1.53,1.52c-1.07.91-1.09.9-.62,2.14.11.3.24.6.42,1.08a5.29,5.29,0,0,1,3.09-4.23c1.4,2.29.45,4-2,6.58L9.78,48a6.34,6.34,0,0,1,2.36-4.83A3.77,3.77,0,0,1,13,47a6.46,6.46,0,0,1-.91,1.94c-.81,1.31-.82,1.42.26,2.58.13.13.28.25.59.52a5.36,5.36,0,0,1,1.64-5.21,4.85,4.85,0,0,1,1.31,3.93,11.84,11.84,0,0,1-.57,2.08c-.52,1.44-.5,1.5,1.1,2.29a5.6,5.6,0,0,1,.89-4.91,4.58,4.58,0,0,1,2,5.19c-.4,1.88-.4,1.88,1.68,3.1a5.25,5.25,0,0,1-.24-5.78,5.18,5.18,0,0,1,2.71,3.76,12.06,12.06,0,0,1,0,1.44c0,1.88,0,1.88,2.07,2.52-1.24-1.76-1.91-3.5-1.15-5.65a5,5,0,0,1,3.37,3,1.75,1.75,0,0,1,.2.69c-.06,2.13,1.19,2.86,3.09,3.33a21.69,21.69,0,0,1,7.53,3.53c.62.45,1.17,1,1.89,1.58l-1.06,1.13a22.69,22.69,0,0,0-12.11-5.85c-3,3.25-4.79,4-7.09,2.78A6.41,6.41,0,0,1,24,61.46c-1.45-1.11-1.56-1.1-3,0-1.64,1.18-3.36,1.91-5.39,1.07a7.32,7.32,0,0,1-.71-.4A6.37,6.37,0,0,1,19.09,59c-1.14-1.34-1.31-1.35-2.69-.62-2,1.09-4.08,1.35-6.06-.16.75-1.48,2.58-2.34,4.93-2.47a12.38,12.38,0,0,1-1.22-1,1.17,1.17,0,0,0-1.41-.27,10.33,10.33,0,0,1-2.65.56c-1.58.09-2.4-.33-3.75-1.71a5.71,5.71,0,0,1,4.83-1.25c-.5-1.58-.95-1.88-2.29-1.71a5.69,5.69,0,0,1-4.53-.95A14.31,14.31,0,0,1,3,48.24,4.8,4.8,0,0,1,8.39,48c-.27-.59-.45-.95-.59-1.31A1.57,1.57,0,0,0,6,45.57a5,5,0,0,1-4.63-2.39,3.86,3.86,0,0,1-.28-.69c1.69-.84,3.22-.36,4.76.28-.06-1.87-.07-1.87-1.79-2.38C2.66,40,1.27,39.54.58,38.08c-.2-.42-.33-.87-.54-1.45a5.06,5.06,0,0,1,4.87,1.46c-.12-.82-.22-1.47-.3-2.13s-.74-.81-1.27-1A4.72,4.72,0,0,1,.29,32.12,8.22,8.22,0,0,1,0,30.77c1.67-.24,2.73.21,4.25,1.76.09-.41.14-.75.24-1.09a1.48,1.48,0,0,0-.92-2A4.62,4.62,0,0,1,1,26.34a10.09,10.09,0,0,1-.1-1.68c1.78.21,2.62.79,4,2.83A15.53,15.53,0,0,0,5.42,25c0-.33-.39-.72-.69-1A4.77,4.77,0,0,1,2.79,21a14.92,14.92,0,0,1,.12-2.11c2,.68,2.62,1.38,3.4,3.64a9.19,9.19,0,0,1,.49-1.11,2.26,2.26,0,0,0-.29-3,4.2,4.2,0,0,1-.47-5,5,5,0,0,1,2.5,4.2l1.37-2.12c.41-.63,0-1.11-.3-1.59a4.66,4.66,0,0,1-.25-4.3,3.86,3.86,0,0,1,.47-.67c1.31.9,1.69,1.66,1.92,4.15a24.43,24.43,0,0,0,1.74-1.79c.15-.19.07-.62,0-.92-.13-.71-.38-1.4-.46-2.11a3.33,3.33,0,0,1,1.51-3.21c1.15,1.24,1.31,2.67.8,4.58a25.81,25.81,0,0,0,2.09-1.6,1.51,1.51,0,0,0,.33-1c0-.57-.13-1.15-.13-1.72,0-1.6.44-2.29,2-3.27,1,1.34.76,2.77.19,4.44.63-.27,1-.49,1.46-.64a1.72,1.72,0,0,0,1.26-2A3.8,3.8,0,0,1,25,0c1,1.76.27,3.16-.72,4.52Z"/><path class="cls-1" d="M21.27,36.9a2.74,2.74,0,0,0,.65.33,3.42,3.42,0,0,0,1.19.19,1.88,1.88,0,0,0,.93-.2,1.29,1.29,0,0,0,.53-.61,3.15,3.15,0,0,0,.24-1q.06-.63.06-1.52V28.37h2.58V34a18.41,18.41,0,0,1-.13,2.32,4.5,4.5,0,0,1-.58,1.78,3,3,0,0,1-1.31,1.15,5.47,5.47,0,0,1-2.31.41A4.16,4.16,0,0,1,20.69,39Z"/><path class="cls-1" d="M34.26,37.33a2.12,2.12,0,0,0,1.12-.27,2.19,2.19,0,0,0,.74-.73,3.13,3.13,0,0,0,.4-1,6.11,6.11,0,0,0,.12-1.2v-5.7h2.58v5.7a7.79,7.79,0,0,1-.29,2.17A5,5,0,0,1,38,38a4.19,4.19,0,0,1-1.54,1.18,5.26,5.26,0,0,1-2.22.43A5.19,5.19,0,0,1,32,39.16,4.22,4.22,0,0,1,30.45,38a5,5,0,0,1-.86-1.77,8,8,0,0,1-.27-2.1V28.37h2.58v5.7A5.77,5.77,0,0,0,32,35.3a3.25,3.25,0,0,0,.41,1,2,2,0,0,0,1.84,1Z"/><path class="cls-1" d="M47.9,31.64a1.58,1.58,0,0,0-.33-.24,6.22,6.22,0,0,0-.71-.36,6.83,6.83,0,0,0-.93-.33,3.7,3.7,0,0,0-1-.14q-1.38,0-1.38.93a.73.73,0,0,0,.15.47,1.31,1.31,0,0,0,.44.33,4,4,0,0,0,.73.27l1,.28a13.42,13.42,0,0,1,1.45.48,3.89,3.89,0,0,1,1.09.65,2.62,2.62,0,0,1,.69.94,3.25,3.25,0,0,1,.24,1.31A3.3,3.3,0,0,1,49,37.83a3,3,0,0,1-.94,1.05,4,4,0,0,1-1.34.58,6.66,6.66,0,0,1-1.55.18,8.68,8.68,0,0,1-1.26-.09,9.1,9.1,0,0,1-1.26-.27,9.93,9.93,0,0,1-1.18-.43,6.63,6.63,0,0,1-1.06-.58L41.56,36a2.17,2.17,0,0,0,.41.3,6,6,0,0,0,.86.44,8.69,8.69,0,0,0,1.14.39,4.77,4.77,0,0,0,1.27.17q1.37,0,1.37-.83a.7.7,0,0,0-.2-.52,1.93,1.93,0,0,0-.57-.37,6.15,6.15,0,0,0-.86-.31L43.9,35a9.26,9.26,0,0,1-1.34-.51,3.51,3.51,0,0,1-.94-.63,2.31,2.31,0,0,1-.55-.83,3.07,3.07,0,0,1-.18-1.1,3.5,3.5,0,0,1,.33-1.55,3.36,3.36,0,0,1,.9-1.14,3.9,3.9,0,0,1,1.31-.7A5.21,5.21,0,0,1,45,28.26a6,6,0,0,1,1.15.11,8.67,8.67,0,0,1,1.08.28,7.78,7.78,0,0,1,1,.39q.45.22.82.44Z"/><path class="cls-1" d="M59.29,30.63H55.9v8.89H53.32V30.63H49.91V28.37h9.38Z"/><path class="cls-1" d="M60.54,39.53V28.37h2.58V39.53Z"/><path class="cls-1" d="M64.61,33.85a5.64,5.64,0,0,1,.38-2,5.46,5.46,0,0,1,1.1-1.78,5.58,5.58,0,0,1,1.76-1.28,5.48,5.48,0,0,1,2.36-.49,5.3,5.3,0,0,1,2.73.67,4.37,4.37,0,0,1,1.72,1.78l-2,1.38a2.29,2.29,0,0,0-.49-.73,2.62,2.62,0,0,0-1.34-.72,3.68,3.68,0,0,0-.71-.07,2.66,2.66,0,0,0-1.29.3,2.84,2.84,0,0,0-.91.77,3.2,3.2,0,0,0-.53,1.07A4.32,4.32,0,0,0,67.24,34a4,4,0,0,0,.21,1.27A3.39,3.39,0,0,0,68,36.31a2.85,2.85,0,0,0,.93.75,2.65,2.65,0,0,0,1.22.27,3.13,3.13,0,0,0,.71-.09A2.89,2.89,0,0,0,71.6,37a2.52,2.52,0,0,0,.62-.47,2.2,2.2,0,0,0,.45-.71L74.78,37a3.27,3.27,0,0,1-.75,1.1,4.6,4.6,0,0,1-1.14.82,6.26,6.26,0,0,1-2.78.67,5,5,0,0,1-2.22-.49,5.63,5.63,0,0,1-1.74-1.31A6,6,0,0,1,65,36,5.79,5.79,0,0,1,64.61,33.85Z"/><path class="cls-1" d="M83.9,37.27v2.26H76V28.37h7.7v2.26H78.64V32.8H83v2.09h-4.4v2.37Z"/><path class="cls-1" d="M27.68,23.23a1,1,0,0,1-.4.8,1.36,1.36,0,0,1-.43.21,1.87,1.87,0,0,1-.52.07h-2V20.11h2.24a.83.83,0,0,1,.4.09,1,1,0,0,1,.3.25,1.12,1.12,0,0,1,.19.33,1.15,1.15,0,0,1,.07.39,1.14,1.14,0,0,1-.15.57.93.93,0,0,1-.45.4,1.08,1.08,0,0,1,.58.39A1.1,1.1,0,0,1,27.68,23.23Zm-2.56-2.41v1.05h1.08a.48.48,0,0,0,.35-.14.52.52,0,0,0,.14-.39.54.54,0,0,0-.13-.41.43.43,0,0,0-.33-.14Zm1.74,2.25a.61.61,0,0,0,0-.22.6.6,0,0,0-.1-.18.48.48,0,0,0-.15-.12.43.43,0,0,0-.19,0H25.13v1.1h1.21a.53.53,0,0,0,.21,0,.5.5,0,0,0,.17-.11.56.56,0,0,0,.15-.39Z"/><path class="cls-1" d="M31.22,23.58v.71h-2.9V20.11h2.85v.71h-2v1h1.76v.65H29.13v1.09Z"/><path class="cls-1" d="M34.26,21.21l-.15-.11L33.85,21l-.33-.11a1.48,1.48,0,0,0-.37,0,.83.83,0,0,0-.5.12.41.41,0,0,0-.16.35.36.36,0,0,0,.06.22.53.53,0,0,0,.18.15,1.5,1.5,0,0,0,.3.12l.42.11A5.61,5.61,0,0,1,34,22a1.51,1.51,0,0,1,.43.24,1,1,0,0,1,.27.33,1.13,1.13,0,0,1,.09.49,1.21,1.21,0,0,1-.13.57,1.07,1.07,0,0,1-.33.39,1.48,1.48,0,0,1-.49.22,2.49,2.49,0,0,1-.59.07,3.14,3.14,0,0,1-1-.13,2.87,2.87,0,0,1-.82-.4l.36-.7a1.12,1.12,0,0,0,.19.14l.33.17a2.51,2.51,0,0,0,.42.14,1.89,1.89,0,0,0,.47.06q.67,0,.67-.43a.35.35,0,0,0-.08-.23.65.65,0,0,0-.22-.16,2.1,2.1,0,0,0-.33-.13l-.45-.13a3.78,3.78,0,0,1-.52-.18,1.36,1.36,0,0,1-.37-.23.86.86,0,0,1-.22-.31,1.06,1.06,0,0,1-.07-.42,1.31,1.31,0,0,1,.09-.57,1.14,1.14,0,0,1,.33-.41,1.48,1.48,0,0,1,.48-.25,2,2,0,0,1,.6-.09,2.31,2.31,0,0,1,.81.14,3,3,0,0,1,.65.33Z"/><path class="cls-1" d="M38.48,20.83H37.14V24.3h-.82V20.83H35v-.71H38.5Z"/><path class="cls-1" d="M40.25,24.3V20.11h2.81v.71h-2v1.09h1.66v.65H41.07V24.3Z"/><path class="cls-1" d="M46.54,23.58v.71h-2.9V20.11h2.84v.71h-2v1h1.76v.65H44.43v1.09Z"/><path class="cls-1" d="M48.36,20.11h.73l1.59,4.18h-.84l-.39-1H48l-.38,1h-.84Zm.94,2.57L48.72,21l-.6,1.64Z"/><path class="cls-1" d="M53.84,20.83H52.51V24.3h-.8V20.83H50.37v-.71h3.48Z"/><path class="cls-1" d="M56.13,23.61a.93.93,0,0,0,.48-.12,1,1,0,0,0,.33-.31,1.27,1.27,0,0,0,.17-.43,2.51,2.51,0,0,0,0-.5V20.11H58v2.13a3.05,3.05,0,0,1-.1.81,1.85,1.85,0,0,1-.33.65,1.55,1.55,0,0,1-.57.45,1.92,1.92,0,0,1-.83.16,1.9,1.9,0,0,1-.85-.17,1.58,1.58,0,0,1-.57-.46,1.83,1.83,0,0,1-.33-.65,3.12,3.12,0,0,1-.1-.78V20.11h.81v2.13a2.52,2.52,0,0,0,0,.51,1.26,1.26,0,0,0,.17.43.89.89,0,0,0,.79.42Z"/><path class="cls-1" d="M58.78,24.3V20.11h1.85a1.19,1.19,0,0,1,.53.12,1.38,1.38,0,0,1,.42.33,1.51,1.51,0,0,1,.27.44,1.35,1.35,0,0,1,.1.5,1.39,1.39,0,0,1-.2.74,1.17,1.17,0,0,1-.55.48l1,1.57h-.91l-.84-1.4h-.8v1.4Zm.81-2.11h1a.43.43,0,0,0,.21-.05A.53.53,0,0,0,61,22a.72.72,0,0,0,.11-.22.83.83,0,0,0,0-.27.76.76,0,0,0,0-.27A.71.71,0,0,0,61,21a.57.57,0,0,0-.18-.14.47.47,0,0,0-.21,0h-1Z"/><path class="cls-1" d="M65.6,23.58v.71H62.7V20.11h2.85v.71h-2v1h1.76v.65H63.51v1.09Z"/><path class="cls-1" d="M67.65,24.3V20.11h2.81v.71h-2v1.09h1.66v.65H68.47V24.3Z"/><path class="cls-1" d="M71,24.3V20.11h.81V24.3Z"/><path class="cls-1" d="M72.72,24.3V20.11h.81v3.47h2.13v.71Z"/><path class="cls-1" d="M79.57,24.3V21.53l-1.08,2.06h-.44L77,21.53V24.3h-.81V20.11H77l1.24,2.38,1.25-2.38h.87V24.3Z"/><path class="cls-1" d="M28.58,48.58V43.7h3.27v.83H29.53v1.26h1.94v.77H29.53v2Z"/><path class="cls-1" d="M32.52,48.58V43.7h.95v4.88Z"/><path class="cls-1" d="M34.49,48.58V43.7h.95v4h2.49v.83Z"/><path class="cls-1" d="M42.48,48.58V45.35l-1.24,2.41h-.52l-1.26-2.41v3.23h-.95V43.7h1L41,46.47l1.46-2.78h1v4.88Z"/><path class="cls-1" d="M46.09,48.58V43.7h3.27v.83H47v1.26H49v.77H47v2Z"/><path class="cls-1" d="M53.43,47.74v.83H50V43.7h3.32v.83H51V45.7H53v.76H51v1.27Z"/><path class="cls-1" d="M57,45l-.18-.13a2.13,2.13,0,0,0-.31-.16,2.69,2.69,0,0,0-.4-.13,1.73,1.73,0,0,0-.43-.06,1,1,0,0,0-.59.14.48.48,0,0,0-.19.41.42.42,0,0,0,.07.25.62.62,0,0,0,.21.18,1.76,1.76,0,0,0,.35.14l.48.13q.36.09.65.21a1.76,1.76,0,0,1,.49.27,1.14,1.14,0,0,1,.33.4,1.31,1.31,0,0,1,.11.57,1.41,1.41,0,0,1-.15.65,1.24,1.24,0,0,1-.4.45,1.73,1.73,0,0,1-.58.25,2.89,2.89,0,0,1-.68.08,3.67,3.67,0,0,1-1.09-.16,3.35,3.35,0,0,1-1-.47l.42-.82a1.31,1.31,0,0,0,.22.16,3.35,3.35,0,0,0,.38.2,3,3,0,0,0,.49.17,2.2,2.2,0,0,0,.55.07q.79,0,.78-.5a.41.41,0,0,0-.09-.27.76.76,0,0,0-.26-.19,2.45,2.45,0,0,0-.4-.15l-.52-.15a4.46,4.46,0,0,1-.61-.21,1.59,1.59,0,0,1-.43-.27,1,1,0,0,1-.26-.36,1.23,1.23,0,0,1-.09-.48,1.52,1.52,0,0,1,.14-.65,1.33,1.33,0,0,1,.38-.48,1.73,1.73,0,0,1,.57-.29,2.35,2.35,0,0,1,.69-.1,2.7,2.7,0,0,1,.95.16,3.54,3.54,0,0,1,.76.38Z"/><path class="cls-1" d="M61.89,44.53H60.33v4h-.94v-4H57.83V43.7h4.06Z"/><path class="cls-1" d="M62.51,48.58V43.7h.95v4.88Z"/><path class="cls-1" d="M65,43.7l1.31,3.69,1.31-3.69h1l-1.9,4.88h-.8L63.95,43.7Z"/><path class="cls-1" d="M70.08,43.7h.84l1.86,4.88h-1l-.45-1.22h-1.7l-.45,1.22h-1Zm1.09,3-.67-1.92-.7,1.92Z"/><path class="cls-1" d="M73.31,48.58V43.7h.95v4h2.49v.83Z"/></g></g></g></g></svg>