<svg xmlns="http://www.w3.org/2000/svg" viewBox="0 0 105.06 68"><defs><style>.cls-1{fill:#ef5035;}</style></defs><title>lakearrowhead-laurel-red</title><g id="Layer_2" data-name="Layer 2"><g id="Layer_1-2" data-name="Layer 1"><g id="Layer_2-2" data-name="Layer 2"><g id="Layer_1-2-2" data-name="Layer 1-2"><path class="cls-1" d="M80.85,4.5A4.3,4.3,0,0,1,80,.11a3.11,3.11,0,0,1,2.61,3.23c-.13,1.91.94,2.52,2.37,3,.07,0,.17,0,.26,0-.51-2.59-.48-2.88.39-4.23A3.37,3.37,0,0,1,87.49,6c-.37,1.61.33,2.41,1.57,3.06.16.09.31.22.65.45a4.88,4.88,0,0,1,.78-4.39c1.81.89,2,2.24,1,5.93.23.25.5.52.74.82a4.94,4.94,0,0,0,1,1.09c.33-1.63.58-3.11,2.1-4.16.93,1.38,1.37,2.91.54,4.21-1.1,1.73-.48,2.94.52,4.25l.18.15a4.82,4.82,0,0,1,2.53-3.92A3.62,3.62,0,0,1,99.42,17a6.29,6.29,0,0,1-1.17,2A1.31,1.31,0,0,0,98,20.49c.27.61.52,1.22.89,2.08a4.7,4.7,0,0,1,3-3.75,3.35,3.35,0,0,1-.91,4.52c-1.5,1.18-1.47,2.37-.77,4a5.37,5.37,0,0,1,3.81-2.77,3.48,3.48,0,0,1-.89,3.6,5.34,5.34,0,0,1-1.57,1.24,1.54,1.54,0,0,0-1,2.09,9.08,9.08,0,0,1,.18,1,5.52,5.52,0,0,1,4.2-1.94,4.13,4.13,0,0,1,0,1.06,4.58,4.58,0,0,1-3.16,3.29c-1,.3-1.46.77-1.41,1.8a7.83,7.83,0,0,1-.23,1.4A5.05,5.05,0,0,1,105,36.54a3.37,3.37,0,0,1-1.7,2.91,8.67,8.67,0,0,1-2.11.89c-1.69.48-1.7.45-1.89,2.29,2.94-.82,3.08-.83,4.84-.14a4.93,4.93,0,0,1-2.66,2.61,3.64,3.64,0,0,1-1.67.37c-1.77-.24-2.5.74-2.88,2.24C99.22,47,100,47,102,48.1a4.24,4.24,0,0,1-3.36,2.29,7.23,7.23,0,0,1-2,0C95,50.23,94.8,50.31,94,52a6.31,6.31,0,0,1,4.93,1.31c-2.19,2.5-4.66,1.88-7.23.89L90,55.77a21.5,21.5,0,0,1,2.72.63,3.65,3.65,0,0,1,2.15,1.69c-1.7,1.45-3.52,1.35-5.41.62a5.67,5.67,0,0,1-.65-.3c-1.42-.77-1.42-.77-2.86.49A7.25,7.25,0,0,1,90.36,62a4.58,4.58,0,0,1-3.86.55,5.94,5.94,0,0,1-2.14-1.14c-1.07-1.09-2.06-1-3.29-.13a6.44,6.44,0,0,1,3.81,3.6c-2.18,1.27-4.25.44-7-2.78a22.75,22.75,0,0,0-12,5.88l-1-1a8.81,8.81,0,0,1,3.69-2.89,56.39,56.39,0,0,1,6.82-2.7,2.1,2.1,0,0,0,1.77-2,5.06,5.06,0,0,1,2.77-4.28,5.56,5.56,0,0,1,.77-.28c.94,1.49.65,3.08-.87,5.44,1.93-.37,2-.41,1.92-2.25a5.35,5.35,0,0,1,2-4.83,2.61,2.61,0,0,1,.48-.3.75.75,0,0,1,.28,0c1,1.69,1,3-.13,5.56.35-.21.59-.33.81-.48,1.22-.77,1.23-.78.85-2.16a5.14,5.14,0,0,1,.68-4.58A11.85,11.85,0,0,1,87.74,50a5.56,5.56,0,0,1,1,4.9c1.41-.37,1.63-.74,1.1-2-.74-1.82-1-3.61.14-5.37.13-.2.3-.36.56-.68a5.6,5.6,0,0,1,1.85,4.65c1.43-.86,1.55-1.23.74-2.45a5.07,5.07,0,0,1-.74-5.16,7.34,7.34,0,0,1,.5-.78A5.93,5.93,0,0,1,95.34,48l1.29-2.18c-1.8-1.83-3.47-3.64-2.23-6.62a5.31,5.31,0,0,1,3.27,4.33l.3-.82c.57-1.51.57-1.51-.7-2.6-1.11-1-2.12-2-2.13-3.6a12.13,12.13,0,0,1,.14-1.36c1.86.43,2.64,1.12,3.92,3.32.07-.33.14-.59.2-.86.33-1.48.33-1.49-1.05-2.18a4.86,4.86,0,0,1-3-3.8,1.63,1.63,0,0,1,0-.43,2,2,0,0,1,.22-.42,5.69,5.69,0,0,1,4.27,2.71v-.83c0-1.74,0-1.73-1.61-2.31a4.52,4.52,0,0,1-3.43-3.88,4.64,4.64,0,0,1,4.7,2.17c-.08-.6-.11-.89-.15-1.17s-.11-.65-.18-1a1.1,1.1,0,0,0-1.06-1,12.2,12.2,0,0,1-2-.4,3.53,3.53,0,0,1-2.53-2.66c1.17-.7,1.86-.63,4.51.52-.15-.53-.27-1-.41-1.42a1.17,1.17,0,0,0-1.31-.88,11.61,11.61,0,0,1-1.59,0,4.36,4.36,0,0,1-3.5-2.33,4.48,4.48,0,0,1,5.18.5l-1.71-3c-2.29.86-4.43,1.23-6.18-1.09a4.56,4.56,0,0,1,5-.51l-2.06-2.39c-3.22,1.48-4.7,1.45-6.28-.13a5.43,5.43,0,0,1,4.32-1.53l-2-1.7c-1.89,1.23-3.73,2.66-6,1,1-1.56,2-2,4.3-2.06-.36-.25-.61-.45-.9-.62-1.66-1-1.66-1-3.14.33a3.56,3.56,0,0,1-4.32.65,4.3,4.3,0,0,1,4-2.57l-.65-.76Z"/><path class="cls-1" d="M24.3,4.5l-.65.76a4.38,4.38,0,0,1,4.08,2.63,3.21,3.21,0,0,1-2.88.19,5.39,5.39,0,0,1-1.25-.71C23,7,22.43,6.11,21.93,6.17a6.85,6.85,0,0,0-2.51,1.24,4.71,4.71,0,0,1,4.16,1.91c-1.25,1.48-2.39,1.36-6-.71l-2,1.58a5.76,5.76,0,0,1,4.32,1.57c-1.37,1.59-3.18,1.63-6.25.13l-2.09,2.39a4.49,4.49,0,0,1,4.9.43c-1,1.93-2.63,2.27-6,1.22L8.67,18.86a4.46,4.46,0,0,1,5.16-.51,4.28,4.28,0,0,1-3.3,2.33,6.72,6.72,0,0,1-.86,0c-2.07,0-2.15.08-2.52,2.33,1.4-.82,2.78-1.38,4.49-.73A3.55,3.55,0,0,1,9.2,25.07a6.39,6.39,0,0,1-1.82.39A1.39,1.39,0,0,0,5.91,26.9c-.06.47-.16.94-.3,1.69a5.23,5.23,0,0,1,4.67-2.15,3.82,3.82,0,0,1-2,3.36,4.15,4.15,0,0,1-.91.43c-2.15.82-2.15.82-2,3.27a20.43,20.43,0,0,1,1.88-1.85,4,4,0,0,1,2.52-.8A4.24,4.24,0,0,1,8.42,34.4a9.93,9.93,0,0,1-1.68,1.1c-1.22.65-1.25.65-1,2,.07.33.15.65.22,1a14.66,14.66,0,0,1,1.52-2A16.79,16.79,0,0,1,9.72,34.9a3.68,3.68,0,0,1-.48,3.86,9,9,0,0,1-1.53,1.52c-1.07.91-1.09.9-.62,2.14.11.3.24.6.42,1.08a5.29,5.29,0,0,1,3.09-4.23c1.4,2.29.45,4-2,6.58L9.77,48a6.33,6.33,0,0,1,2.36-4.82A3.76,3.76,0,0,1,13,46.94a6.45,6.45,0,0,1-.91,1.94c-.81,1.31-.82,1.42.26,2.57.13.13.28.25.59.52a5.35,5.35,0,0,1,1.63-5.2,4.84,4.84,0,0,1,1.31,3.92,11.83,11.83,0,0,1-.57,2.08c-.52,1.43-.5,1.5,1.09,2.29a5.59,5.59,0,0,1,.89-4.9,4.57,4.57,0,0,1,2,5.18c-.4,1.88-.4,1.88,1.67,3.1a5.25,5.25,0,0,1-.24-5.78,5.17,5.17,0,0,1,2.71,3.76,12,12,0,0,1,0,1.44c0,1.87,0,1.87,2.06,2.51-1.24-1.76-1.91-3.5-1.15-5.64a5,5,0,0,1,3.37,3,1.75,1.75,0,0,1,.2.69c-.06,2.13,1.19,2.86,3.09,3.33a21.66,21.66,0,0,1,7.52,3.52c.61.44,1.16,1,1.89,1.58L39.41,68a22.66,22.66,0,0,0-12.09-5.85c-3,3.24-4.79,4-7.08,2.77A6.4,6.4,0,0,1,24,61.38c-1.44-1.11-1.56-1.09-3,0-1.63,1.18-3.35,1.91-5.38,1.07a7.31,7.31,0,0,1-.71-.4A6.36,6.36,0,0,1,19.07,59c-1.13-1.34-1.31-1.35-2.69-.62-2,1.09-4.07,1.34-6.06-.16.75-1.47,2.58-2.34,4.93-2.47a12.36,12.36,0,0,1-1.22-1,1.16,1.16,0,0,0-1.41-.27A10.31,10.31,0,0,1,10,55c-1.58.09-2.4-.33-3.75-1.71a5.7,5.7,0,0,1,4.83-1.25c-.5-1.58-.95-1.88-2.29-1.7a5.68,5.68,0,0,1-4.52-.95A14.29,14.29,0,0,1,3,48.18a4.79,4.79,0,0,1,5.34-.26c-.26-.59-.45-.94-.59-1.31A1.57,1.57,0,0,0,6,45.52a5,5,0,0,1-4.63-2.38,3.85,3.85,0,0,1-.28-.69c1.68-.84,3.22-.36,4.75.28-.06-1.87-.07-1.87-1.79-2.38C2.66,39.94,1.27,39.49.58,38c-.2-.42-.33-.87-.54-1.45A5.06,5.06,0,0,1,4.9,38c-.12-.82-.22-1.47-.3-2.12s-.74-.81-1.26-1a4.71,4.71,0,0,1-3-2.84A8.21,8.21,0,0,1,0,30.73c1.67-.24,2.73.21,4.25,1.76.09-.41.14-.75.24-1.09a1.48,1.48,0,0,0-.92-2A4.62,4.62,0,0,1,1,26.31a10.08,10.08,0,0,1-.1-1.68c1.78.21,2.61.78,4,2.82A15.51,15.51,0,0,0,5.42,25c0-.33-.39-.72-.69-1a4.76,4.76,0,0,1-1.94-3.09,14.9,14.9,0,0,1,.12-2.11c2,.68,2.61,1.38,3.4,3.63a9.18,9.18,0,0,1,.49-1.11,2.25,2.25,0,0,0-.29-3,4.19,4.19,0,0,1-.47-5,5,5,0,0,1,2.5,4.2L9.9,15.49c.41-.62,0-1.11-.3-1.59a4.65,4.65,0,0,1-.25-4.29,3.85,3.85,0,0,1,.47-.67c1.31.9,1.69,1.66,1.92,4.15a24.4,24.4,0,0,0,1.74-1.79c.15-.19.07-.61,0-.92-.13-.71-.38-1.4-.46-2.1a3.33,3.33,0,0,1,1.51-3.2c1.14,1.24,1.31,2.67.79,4.58a25.78,25.78,0,0,0,2.09-1.6,1.5,1.5,0,0,0,.33-1c0-.57-.13-1.14-.13-1.72,0-1.6.43-2.29,2-3.27,1,1.34.76,2.77.19,4.44.62-.27,1-.49,1.46-.64a1.71,1.71,0,0,0,1.26-2A3.8,3.8,0,0,1,25,0c1,1.76.27,3.16-.72,4.51Z"/><path class="cls-1" d="M14.1,36.93v-6h1.66v4.58h2.74v1.46Z"/><path class="cls-1" d="M20.64,30.89h1.51l2.09,6H22.55l-.37-1.18h-1.6l-.36,1.18H18.54Zm1.31,3.75-.54-1.87-.58,1.87Z"/><path class="cls-1" d="M24.74,36.93v-6H26.4v2.29l1.84-2.29H30.1l-2.19,2.7,2.35,3.34H28.35l-1.5-2.22-.46.48v1.74Z"/><path class="cls-1" d="M34.91,35.47v1.45H30.6v-6h4.22v1.44H32.26v.85h2.19v1.34H32.26v1Z"/><path class="cls-1" d="M38.9,30.89h1.51l2.08,6H40.81l-.37-1.18h-1.6l-.35,1.18H36.8Zm1.31,3.75-.54-1.87-.57,1.87Z"/><path class="cls-1" d="M43,36.93v-6h2.76a1.84,1.84,0,0,1,.82.18,2.12,2.12,0,0,1,.65.48,2.23,2.23,0,0,1,.42.67,2,2,0,0,1,.15.76,2.14,2.14,0,0,1-.23,1,2,2,0,0,1-.64.74l1.27,2.22H46.35l-1.06-1.85h-.62v1.86Zm1.66-3.3h1a.37.37,0,0,0,.28-.17.76.76,0,0,0,.13-.48A.68.68,0,0,0,46,32.5a.43.43,0,0,0-.31-.17h-1Z"/><path class="cls-1" d="M48.74,36.93v-6h2.77a1.83,1.83,0,0,1,.82.18,2.12,2.12,0,0,1,.65.48,2.22,2.22,0,0,1,.42.67,2,2,0,0,1,.15.76,2.15,2.15,0,0,1-.23,1,2,2,0,0,1-.65.74L54,36.92H52.08L51,35.07H50.4v1.86Zm1.66-3.3h1a.37.37,0,0,0,.28-.17.76.76,0,0,0,.13-.48.68.68,0,0,0-.15-.48.43.43,0,0,0-.31-.17h-1Z"/><path class="cls-1" d="M57.12,37a2.9,2.9,0,0,1-1.25-.26,3.09,3.09,0,0,1-1-.69,3.13,3.13,0,0,1-.62-1,3,3,0,0,1-.22-1.14,3,3,0,0,1,.23-1.15,3,3,0,0,1,.65-1,3.12,3.12,0,0,1,1-.67,3,3,0,0,1,1.24-.25,2.9,2.9,0,0,1,1.25.26,3.06,3.06,0,0,1,1,.7,3.13,3.13,0,0,1,.61,1,3.07,3.07,0,0,1,.22,1.13A2.94,2.94,0,0,1,60,35.06a3.1,3.1,0,0,1-.65,1,3.14,3.14,0,0,1-1,.68A3,3,0,0,1,57.12,37Zm-1.37-3.06a2.06,2.06,0,0,0,.08.59,1.55,1.55,0,0,0,.25.51,1.28,1.28,0,0,0,.43.36,1.45,1.45,0,0,0,1.24,0,1.26,1.26,0,0,0,.43-.37,1.57,1.57,0,0,0,.25-.51,2.18,2.18,0,0,0,.08-.59,2.06,2.06,0,0,0-.08-.59,1.46,1.46,0,0,0-.26-.5,1.4,1.4,0,0,0-1.66-.34,1.27,1.27,0,0,0-.43.36,1.54,1.54,0,0,0-.25.51,2.12,2.12,0,0,0-.08.58Z"/><path class="cls-1" d="M62.58,30.89H64.1l.53,1.86.54-1.86h1.52l-1,2.88L66.13,35l1.31-4.14h1.8l-2.38,6H65.48l-.86-2.16-.85,2.16H62.4l-2.36-6h1.79L63.14,35l.42-1.26Z"/><path class="cls-1" d="M75,30.89v6H73.32V34.56h-2v2.36H69.64v-6h1.66v2.23h2V30.89Z"/><path class="cls-1" d="M80.31,35.47v1.45H76v-6h4.22v1.44H77.67v.85h2.19v1.34H77.67v1Z"/><path class="cls-1" d="M82.65,30.89h1.51l2.09,6H84.57l-.37-1.18H82.6l-.36,1.19H80.55ZM84,34.63l-.54-1.87-.58,1.87Z"/><path class="cls-1" d="M86.75,36.93v-6h2.32a3.4,3.4,0,0,1,1.31.24,2.65,2.65,0,0,1,1.53,1.6,3.45,3.45,0,0,1,.2,1.17,3.41,3.41,0,0,1-.22,1.25,2.7,2.7,0,0,1-.62,1,2.76,2.76,0,0,1-1,.61,3.44,3.44,0,0,1-1.25.22Zm3.68-3a2.08,2.08,0,0,0-.09-.65,1.43,1.43,0,0,0-.27-.49,1.21,1.21,0,0,0-.43-.33,1.37,1.37,0,0,0-.57-.11h-.65v3.14h.65a1.35,1.35,0,0,0,.58-.12,1.21,1.21,0,0,0,.43-.33,1.46,1.46,0,0,0,.26-.5,2.11,2.11,0,0,0,.09-.62Z"/><path class="cls-1" d="M21.59,23.73a1.1,1.1,0,0,1-.46.93,1.59,1.59,0,0,1-.5.24A2.18,2.18,0,0,1,20,25H17.65V20.11h2.61a1,1,0,0,1,.46.11,1.15,1.15,0,0,1,.35.28,1.31,1.31,0,0,1,.23.41,1.33,1.33,0,0,1-.1,1.12,1.09,1.09,0,0,1-.52.46,1.26,1.26,0,0,1,.65.44A1.28,1.28,0,0,1,21.59,23.73Zm-3-2.82v1.23h1.26a.56.56,0,0,0,.41-.16.6.6,0,0,0,.17-.45.63.63,0,0,0-.15-.45.5.5,0,0,0-.38-.16Zm2,2.61a.72.72,0,0,0,0-.23.7.7,0,0,0-.12-.21.56.56,0,0,0-.18-.14.5.5,0,0,0-.23-.05H18.61v1.28H20a.62.62,0,0,0,.25,0,.58.58,0,0,0,.2-.13.65.65,0,0,0,.18-.45Z"/><path class="cls-1" d="M25.71,24.15V25H22.33V20.11h3.32v.83H23.28v1.17h2.05v.76H23.28v1.27Z"/><path class="cls-1" d="M29.26,21.39l-.18-.13a2.13,2.13,0,0,0-.31-.16,2.69,2.69,0,0,0-.4-.13,1.73,1.73,0,0,0-.43-.05,1,1,0,0,0-.59.14.48.48,0,0,0-.19.41.42.42,0,0,0,.07.25.62.62,0,0,0,.22.18,1.76,1.76,0,0,0,.35.14l.48.13q.36.09.65.21a1.76,1.76,0,0,1,.49.27,1.14,1.14,0,0,1,.33.4,1.31,1.31,0,0,1,.11.57,1.41,1.41,0,0,1-.15.65,1.24,1.24,0,0,1-.4.45,1.73,1.73,0,0,1-.58.25,2.89,2.89,0,0,1-.68.08A3.67,3.67,0,0,1,27,24.87a3.34,3.34,0,0,1-1-.47l.42-.82a1.31,1.31,0,0,0,.22.16,3.35,3.35,0,0,0,.38.2,2.94,2.94,0,0,0,.49.17,2.2,2.2,0,0,0,.55.07q.78,0,.78-.5a.41.41,0,0,0-.09-.27.76.76,0,0,0-.25-.19,2.44,2.44,0,0,0-.41-.15l-.52-.15a4.46,4.46,0,0,1-.61-.21,1.59,1.59,0,0,1-.43-.27,1,1,0,0,1-.26-.36,1.23,1.23,0,0,1-.08-.48,1.51,1.51,0,0,1,.14-.65,1.33,1.33,0,0,1,.38-.48,1.73,1.73,0,0,1,.57-.29,2.34,2.34,0,0,1,.69-.1,2.69,2.69,0,0,1,.95.16,3.53,3.53,0,0,1,.76.38Z"/><path class="cls-1" d="M34.17,20.94H32.61v4h-.94v-4H30.11v-.83h4.06Z"/><path class="cls-1" d="M36.23,25V20.11H38a2.64,2.64,0,0,1,1,.19,2.1,2.1,0,0,1,1.21,1.31,2.91,2.91,0,0,1,.15.94,2.85,2.85,0,0,1-.17,1,2.15,2.15,0,0,1-.48.77,2.18,2.18,0,0,1-.76.49A2.68,2.68,0,0,1,38,25Zm3.22-2.44a2.08,2.08,0,0,0-.09-.65,1.44,1.44,0,0,0-.28-.51,1.26,1.26,0,0,0-.46-.33,1.54,1.54,0,0,0-.61-.12h-.82v3.21H38a1.48,1.48,0,0,0,.62-.12,1.27,1.27,0,0,0,.45-.33,1.52,1.52,0,0,0,.28-.51A2.06,2.06,0,0,0,39.45,22.54Z"/><path class="cls-1" d="M43.23,25a2.21,2.21,0,0,1-1-.21,2.38,2.38,0,0,1-.75-.56,2.58,2.58,0,0,1-.64-1.71,2.45,2.45,0,0,1,.18-.93,2.58,2.58,0,0,1,.5-.79,2.4,2.4,0,0,1,.76-.55,2.26,2.26,0,0,1,1-.2,2.14,2.14,0,0,1,1,.22,2.41,2.41,0,0,1,.75.57,2.61,2.61,0,0,1,.45.8,2.51,2.51,0,0,1,.17.91,2.47,2.47,0,0,1-.18.93,2.53,2.53,0,0,1-.49.78,2.38,2.38,0,0,1-.76.54A2.25,2.25,0,0,1,43.23,25Zm-1.42-2.47a2,2,0,0,0,.09.61,1.63,1.63,0,0,0,.28.52,1.33,1.33,0,0,0,2.1,0,1.67,1.67,0,0,0,.27-.53,2,2,0,0,0,.09-.59,1.9,1.9,0,0,0-.1-.61,1.69,1.69,0,0,0-.28-.52,1.35,1.35,0,0,0-.44-.36,1.39,1.39,0,0,0-1.21,0,1.36,1.36,0,0,0-.46.38,1.67,1.67,0,0,0-.27.52A2,2,0,0,0,41.81,22.54Z"/><path class="cls-1" d="M46,22.51a2.52,2.52,0,0,1,.16-.88,2.37,2.37,0,0,1,1.23-1.33,2.33,2.33,0,0,1,1-.21,2.22,2.22,0,0,1,1.16.29,1.89,1.89,0,0,1,.73.77l-.73.5a1.25,1.25,0,0,0-.23-.35,1.17,1.17,0,0,0-.29-.22,1.33,1.33,0,0,0-.33-.12,1.57,1.57,0,0,0-.33,0,1.28,1.28,0,0,0-.62.14,1.37,1.37,0,0,0-.44.37,1.63,1.63,0,0,0-.26.52,2,2,0,0,0-.09.58,1.89,1.89,0,0,0,.1.62,1.63,1.63,0,0,0,.29.53,1.45,1.45,0,0,0,.45.36,1.24,1.24,0,0,0,.58.14,1.53,1.53,0,0,0,.33,0,1.28,1.28,0,0,0,.65-.36,1.06,1.06,0,0,0,.22-.33l.77.45a1.46,1.46,0,0,1-.33.48,2.13,2.13,0,0,1-.49.35A2.49,2.49,0,0,1,49,25a2.54,2.54,0,0,1-.6.08,2.08,2.08,0,0,1-1-.22,2.48,2.48,0,0,1-.75-.57,2.66,2.66,0,0,1-.49-.8A2.5,2.5,0,0,1,46,22.51Z"/><path class="cls-1" d="M53.1,24.18a1.09,1.09,0,0,0,.57-.14,1.11,1.11,0,0,0,.37-.36,1.48,1.48,0,0,0,.2-.5,2.91,2.91,0,0,0,.06-.59V20.11h.94v2.48a3.55,3.55,0,0,1-.12.94,2.15,2.15,0,0,1-.38.77,1.81,1.81,0,0,1-.65.52,2.24,2.24,0,0,1-1,.19,2.21,2.21,0,0,1-1-.2,1.85,1.85,0,0,1-.65-.54,2.14,2.14,0,0,1-.37-.77A3.65,3.65,0,0,1,51,22.6V20.11h.95V22.6a2.94,2.94,0,0,0,0,.6,1.46,1.46,0,0,0,.2.5,1.09,1.09,0,0,0,.37.35A1.07,1.07,0,0,0,53.1,24.18Z"/><path class="cls-1" d="M60.17,25V21.76l-1.26,2.4h-.52l-1.26-2.4V25h-.95V20.11h1l1.45,2.76L60.1,20.1h1V25Z"/><path class="cls-1" d="M65.51,24.15V25H62.13V20.11h3.32v.83H63.08v1.17h2.05v.76H63.08v1.27Z"/><path class="cls-1" d="M67.2,21.86V25h-.95V20.11H67l2.54,3.2V20.11h.95V25h-.77Z"/><path class="cls-1" d="M75.14,20.94H73.58v4h-.94v-4H71.08v-.83h4.06Z"/><path class="cls-1" d="M76.65,20.11h.84L79.34,25h-1l-.45-1.22H76.2L75.75,25h-1Zm1.09,3-.67-1.92-.7,1.92Z"/><path class="cls-1" d="M79.87,25V20.11H82a1.39,1.39,0,0,1,.62.14,1.61,1.61,0,0,1,.49.37,1.76,1.76,0,0,1,.33.52,1.58,1.58,0,0,1,.12.59,1.63,1.63,0,0,1-.24.86,1.36,1.36,0,0,1-.65.56L83.82,25H82.75l-1-1.63h-.93V25Zm.95-2.46H82a.5.5,0,0,0,.25-.06.62.62,0,0,0,.2-.17.84.84,0,0,0,.13-.25,1,1,0,0,0,0-.31.88.88,0,0,0-.06-.33.82.82,0,0,0-.15-.25.67.67,0,0,0-.21-.16.55.55,0,0,0-.25-.06H80.82Z"/><path class="cls-1" d="M84.83,20.11,86,22.46l1.22-2.35h1L86.5,23.28V25h-.94V23.27L83.8,20.11Z"/><path class="cls-1" d="M29.52,48.84V44h3.27v.83H30.47v1.26H32.4v.77H30.47v2Z"/><path class="cls-1" d="M33.46,48.84V44h.95v4.87Z"/><path class="cls-1" d="M35.43,48.84V44h.95v4h2.48v.83Z"/><path class="cls-1" d="M43.41,48.84V45.62L42.16,48h-.52l-1.26-2.4v3.23h-.95V44h1l1.44,2.77L43.36,44h1v4.87Z"/><path class="cls-1" d="M47,48.84V44h3.27v.83H48v1.26H49.9v.77H48v2Z"/><path class="cls-1" d="M54.34,48v.83H51V44h3.32v.83H51.91V46H54v.76H51.91V48Z"/><path class="cls-1" d="M57.88,45.25l-.18-.13A2.13,2.13,0,0,0,57.4,45a2.69,2.69,0,0,0-.4-.13,1.73,1.73,0,0,0-.43-.06,1,1,0,0,0-.59.14.48.48,0,0,0-.19.41.42.42,0,0,0,.07.25.62.62,0,0,0,.21.18,1.76,1.76,0,0,0,.35.14l.48.13q.36.09.65.21a1.76,1.76,0,0,1,.49.27,1.14,1.14,0,0,1,.33.4,1.31,1.31,0,0,1,.11.57,1.41,1.41,0,0,1-.15.65,1.24,1.24,0,0,1-.4.45,1.73,1.73,0,0,1-.58.25,2.89,2.89,0,0,1-.68.08,3.67,3.67,0,0,1-1.09-.16,3.34,3.34,0,0,1-1-.47l.42-.82a1.31,1.31,0,0,0,.22.16,3.35,3.35,0,0,0,.38.2,2.94,2.94,0,0,0,.49.17,2.2,2.2,0,0,0,.55.07q.78,0,.78-.5a.41.41,0,0,0-.09-.27.76.76,0,0,0-.25-.19,2.45,2.45,0,0,0-.4-.15l-.52-.15a4.46,4.46,0,0,1-.61-.21,1.59,1.59,0,0,1-.43-.27,1,1,0,0,1-.26-.36,1.23,1.23,0,0,1-.08-.48A1.51,1.51,0,0,1,55,44.8a1.33,1.33,0,0,1,.38-.48,1.73,1.73,0,0,1,.57-.29,2.34,2.34,0,0,1,.69-.1,2.69,2.69,0,0,1,.95.16,3.53,3.53,0,0,1,.76.38Z"/><path class="cls-1" d="M62.8,44.8H61.24v4H60.3v-4H58.74V44H62.8Z"/><path class="cls-1" d="M63.41,48.84V44h.95v4.87Z"/><path class="cls-1" d="M65.87,44l1.31,3.69L68.48,44h1l-1.9,4.87h-.8L64.85,44Z"/><path class="cls-1" d="M71,44h.84l1.85,4.87h-1l-.45-1.22h-1.7l-.45,1.22h-1Zm1.09,3L71.39,45,70.69,47Z"/><path class="cls-1" d="M74.2,48.84V44h.95v4h2.48v.83Z"/></g></g></g></g></svg>