<svg xmlns="http://www.w3.org/2000/svg" viewBox="0 0 321.41 208"><defs><style>.cls-1{fill:#ef5035;}</style></defs><title>lakearrowhead-laurel-red</title><g id="Layer_2" data-name="Layer 2"><g id="Layer_1-2" data-name="Layer 1"><path class="cls-1" d="M247.34,13.81c-3-4.06-4.73-8.35-2.69-13.45,4.93,1.3,8.31,4.74,8,9.87-.4,5.84,2.87,7.71,7.25,9.21.22.08.53-.09.8-.15-1.56-7.93-1.48-8.8,1.18-12.94,4.9,2.63,7,7,5.78,12.07-1.13,4.93,1,7.36,4.79,9.37.5.27.94.66,2,1.38-1-5.13-.83-9.63,2.4-13.43,5.53,2.73,6.19,6.86,3,18.14.71.78,1.54,1.6,2.26,2.5a15.1,15.1,0,0,0,3.08,3.32c1-5,1.78-9.52,6.42-12.73,2.83,4.21,4.18,8.9,1.65,12.88-3.36,5.28-1.46,9,1.6,13a4.91,4.91,0,0,0,.56.47c.68-5.19,2.84-9.34,7.74-12,2.42,3.53,2.25,7.13,1,10.62a19.23,19.23,0,0,1-3.57,6,4,4,0,0,0-.82,4.77c.82,1.86,1.6,3.73,2.72,6.36,1.25-6,4.37-9.52,9.33-11.46,2.53,5.06,2.08,10-2.77,13.82-4.58,3.61-4.5,7.24-2.35,12.23,2.88-4.29,6.18-7.79,11.66-8.48,1.39,4.36.07,7.93-2.71,11a16.33,16.33,0,0,1-4.8,3.8c-2.93,1.41-3.84,3.36-2.91,6.38a27.79,27.79,0,0,1,.54,3.08,16.89,16.89,0,0,1,12.85-5.94,12.64,12.64,0,0,1,0,3.25,14,14,0,0,1-9.66,10.07c-3.08.93-4.46,2.35-4.31,5.51a23.94,23.94,0,0,1-.71,4.27c4.3-4.47,9-5.59,14.51-4.79a10.31,10.31,0,0,1-5.2,8.89,26.51,26.51,0,0,1-6.47,2.71c-5.18,1.47-5.21,1.37-5.78,7,9-2.52,9.41-2.54,14.8-.44a15.07,15.07,0,0,1-8.13,8c-1.62.64-3.48,1.34-5.11,1.13-5.43-.72-7.65,2.25-8.81,6.86,7.11-2.28,9.57-2.12,15.47,1.22-2.06,4.42-5.94,6.15-10.29,7a22.13,22.13,0,0,1-6.16,0c-4.93-.48-5.44-.24-7.83,5a19.32,19.32,0,0,1,15.07,4c-6.7,7.66-14.26,5.74-22.13,2.73l-5.11,4.75a65.79,65.79,0,0,1,8.32,1.94c2.56.94,5.07,2.28,6.59,5.16-5.21,4.45-10.77,4.13-16.56,1.89a17.34,17.34,0,0,1-2-.93c-4.34-2.35-4.34-2.36-8.76,1.49,5.35,1.7,10.06,4.13,13.39,9.58-3.94,2-7.69,3.23-11.81,1.67-2.32-.88-4.9-1.81-6.56-3.5-3.27-3.32-6.3-3.09-10.06-.39,5.38,2.23,9.53,5.59,11.66,11-6.67,3.89-13,1.35-21.55-8.5-13.69,2.54-26.22,7.78-36.86,18l-3.17-3c3.06-4.35,7.1-6.9,11.3-8.85a172.52,172.52,0,0,1,20.85-8.27c3.56-1.12,5.13-2.76,5.43-6.23.51-5.82,3.22-10.31,8.46-13.1a17,17,0,0,1,2.37-.86c2.87,4.55,2,9.42-2.65,16.65,5.89-1.12,6.21-1.24,5.88-6.88-.35-6,1.39-11,6.17-14.79a8,8,0,0,1,1.48-.91,2.29,2.29,0,0,1,.86-.05c3.19,5.16,3.15,9.08-.4,17,1.07-.63,1.79-1,2.48-1.47,3.72-2.37,3.76-2.39,2.59-6.61A15.72,15.72,0,0,1,265,156.69a36.25,36.25,0,0,1,3.42-3.65,17,17,0,0,1,3.2,15c4.3-1.12,5-2.27,3.37-6.17-2.26-5.56-3.06-11.05.43-16.44.39-.6.91-1.11,1.71-2.08,4.42,3.89,5.77,8.72,5.65,14.23,4.37-2.63,4.73-3.75,2.25-7.5-3.26-4.93-4.83-10.06-2.26-15.79a22.45,22.45,0,0,1,1.54-2.38c4.46,3.83,7.41,8,7.38,15l3.94-6.66C290.12,134.65,285,129.1,288.8,120c5.61,2.57,8.91,6.59,10,13.24.47-1.29.69-1.9.91-2.5,1.75-4.62,1.75-4.61-2.15-7.95-3.41-2.93-6.48-6.09-6.51-11a37.11,37.11,0,0,1,.43-4.15c5.69,1.33,8.08,3.42,12,10.16.22-1,.43-1.79.6-2.62,1-4.52,1-4.56-3.22-6.67-4.89-2.45-8.33-6-9.08-11.64a5,5,0,0,1,0-1.31,6.26,6.26,0,0,1,.68-1.3,17.41,17.41,0,0,1,13.07,8.29c0-.84,0-1.69,0-2.53,0-5.31,0-5.28-4.94-7.06-5.41-1.93-9.57-5-10.49-11.88,5.83-.45,10.5.91,14.39,6.65-.24-1.84-.33-2.71-.47-3.57-.16-1-.33-2-.54-3a3.36,3.36,0,0,0-3.25-3,37.34,37.34,0,0,1-6-1.23c-4-1.12-6.45-3.8-7.73-8.14,3.58-2.14,5.69-1.92,13.79,1.6-.47-1.62-.82-3-1.26-4.33a3.58,3.58,0,0,0-4-2.7,35.52,35.52,0,0,1-4.85,0c-4.75-.35-8.05-2.86-10.72-7.13,5.5-2.85,10.34-2.44,15.84,1.52l-5.24-9.08c-7,2.64-13.54,3.76-18.92-3.34,5.08-3.38,9.86-4.41,15.37-1.57l-6.29-7.3c-9.85,4.52-14.39,4.45-19.21-.41a16.6,16.6,0,0,1,13.21-4.67l-6.2-5.19c-5.79,3.75-11.41,8.13-18.45,3.07,3.19-4.76,6.26-6.23,13.15-6.29-1.09-.76-1.88-1.39-2.75-1.9-5.07-3-5.08-2.95-9.62,1-4.27,3.69-8.38,4.39-13.21,2,2.41-5.06,6.41-7.6,12.38-7.87l-2-2.34Z"/><path class="cls-1" d="M74.34,13.79l-2,2.33c5.94.31,9.94,2.83,12.47,8.05a9.82,9.82,0,0,1-8.82.59,16.48,16.48,0,0,1-3.81-2.17c-1.76-1.24-3.56-3.87-5.09-3.69-2.7.31-5.21,2.28-7.68,3.79,6.43.31,8.37,1.17,12.72,5.85-3.81,4.52-7.3,4.15-18.27-2.18l-6.26,4.82c5.27,0,9.59,1.25,13.22,4.81-4.2,4.86-9.73,5-19.11.4l-6.39,7.32c5.46-2.76,10.27-1.88,15,1.31-3.1,5.89-8.06,6.93-18.48,3.72l-5.32,9c5.49-3.94,10.35-4.43,15.8-1.55-2.38,4.17-5.62,6.52-10.1,7.12a20.56,20.56,0,0,1-2.64.07c-6.33,0-6.58.25-7.72,7.14,4.27-2.5,8.52-4.21,13.73-2.23a10.86,10.86,0,0,1-7.45,8.45,19.56,19.56,0,0,1-5.58,1.2c-2.94.16-4.16,1.69-4.47,4.4-.17,1.44-.5,2.87-.93,5.18a16,16,0,0,1,14.28-6.58c.11,5-2.65,7.86-6.07,10.27a12.69,12.69,0,0,1-2.79,1.31c-6.59,2.52-6.59,2.51-6.09,10a62.5,62.5,0,0,1,5.76-5.66,12.22,12.22,0,0,1,7.71-2.44c0,4.47-.94,8.14-4.21,10.86a30.39,30.39,0,0,1-5.14,3.38c-3.74,2-3.83,2-3,6,.2,1,.45,2,.68,3,1.55-2.12,2.82-4.44,4.65-6.19s4.22-2.93,6.8-4.66c2,4.84.9,8.49-1.46,11.8a27.5,27.5,0,0,1-4.68,4.65c-3.28,2.79-3.32,2.74-1.9,6.55.35.93.72,1.84,1.29,3.3a16.17,16.17,0,0,1,9.45-12.93c4.27,7,1.39,12.11-6.24,20.12l3.68,6.47c.2-6.53,2.9-10.88,7.22-14.75,3.58,3.54,3.51,7.6,2.66,11.61a19.74,19.74,0,0,1-2.79,5.93c-2.48,4-2.52,4.33.79,7.87.39.41.85.76,1.79,1.59-1.38-6.44.55-11.26,5-15.92,3,3.82,4.76,7.52,4,12a36.19,36.19,0,0,1-1.75,6.37c-1.58,4.39-1.54,4.59,3.35,7a17.1,17.1,0,0,1,2.73-15c5.55,3.45,7.68,9.11,6.24,15.86-1.22,5.75-1.22,5.75,5.12,9.47-3.71-6.1-4.11-11.64-.73-17.67,4.46,2.92,7.67,6.26,8.29,11.5a36.85,36.85,0,0,1,.11,4.41c0,5.73,0,5.73,6.31,7.69-3.79-5.37-5.85-10.7-3.52-17.25A15.4,15.4,0,0,1,85,176.63a5.36,5.36,0,0,1,.6,2.11c-.17,6.52,3.64,8.75,9.44,10.18a66.27,66.27,0,0,1,23,10.78c1.88,1.36,3.56,3,5.77,4.84L120.56,208a69.34,69.34,0,0,0-37-17.89c-9.07,9.92-14.65,12.17-21.65,8.48a19.59,19.59,0,0,1,11.39-10.77c-4.42-3.39-4.78-3.35-9.22-.12-5,3.61-10.26,5.83-16.46,3.28a22.37,22.37,0,0,1-2.18-1.23c2.85-5.37,7.55-7.78,12.9-9.35-3.47-4.09-4-4.14-8.22-1.89-6.24,3.33-12.46,4.11-18.53-.48,2.28-4.51,7.89-7.16,15.07-7.55a37.83,37.83,0,0,1-3.73-3c-1.32-1.35-2.51-1.44-4.31-.83a31.55,31.55,0,0,1-8.11,1.71c-4.84.29-7.33-1-11.46-5.22a17.45,17.45,0,0,1,14.77-3.82c-1.52-4.83-2.9-5.75-7-5.21-4.94.66-9.74.36-13.84-2.9a43.72,43.72,0,0,1-3.68-3.78c5.4-3.42,10.38-4,16.33-.8-.81-1.79-1.39-2.89-1.81-4-.94-2.61-2.75-3.46-5.46-3.34A15.39,15.39,0,0,1,4.21,132a11.79,11.79,0,0,1-.86-2.11c5.15-2.56,9.85-1.11,14.54.87-.18-5.71-.21-5.72-5.48-7.28-4.28-1.26-8.52-2.63-10.64-7.1-.61-1.28-1-2.66-1.65-4.44C6,111,10.75,112,15,116.39c-.36-2.5-.67-4.49-.92-6.5-.28-2.33-2.27-2.48-3.87-3A14.42,14.42,0,0,1,.89,98.19,25.12,25.12,0,0,1,0,94.06c5.11-.72,8.34.63,13,5.38.27-1.24.44-2.3.74-3.32.86-2.86-.12-4.64-2.8-6a14.12,14.12,0,0,1-7.83-9.6,30.84,30.84,0,0,1-.3-5.13c5.45.63,8,2.4,12.3,8.64.61-2.86,1.37-5.17,1.46-7.5,0-1-1.19-2.21-2.1-3-2.91-2.6-5.58-5.36-5.93-9.46a45.58,45.58,0,0,1,.36-6.45c6,2.08,8,4.23,10.39,11.12a28.08,28.08,0,0,1,1.49-3.4c2-3.28,1.7-6-.89-9.07-3.65-4.33-4.39-9.36-1.45-15.19,4.55,3.09,7.29,6.72,7.64,12.84l4.2-6.49c1.24-1.91-.11-3.39-.93-4.87a14.24,14.24,0,0,1-.75-13.14,11.78,11.78,0,0,1,1.44-2.05c4,2.76,5.17,5.08,5.88,12.69a74.64,74.64,0,0,0,5.31-5.48c.46-.58.21-1.88,0-2.8-.4-2.16-1.17-4.27-1.4-6.44-.42-4,.91-6.77,4.61-9.8,3.5,3.8,4,8.16,2.43,14a78.87,78.87,0,0,0,6.38-4.88,4.6,4.6,0,0,0,1-3c0-1.74-.4-3.5-.4-5.25,0-4.9,1.33-7,6.09-10,3,4.1,2.31,8.47.59,13.57,1.91-.84,3.16-1.49,4.46-1.95,2.88-1,4-2.85,3.84-6-.28-5.49,2.16-9.54,7.62-12,3,5.39.83,9.66-2.2,13.81Z"/><path class="cls-1" d="M43.14,113V94.52h5.07v14h8.37V113Z"/><path class="cls-1" d="M63.14,94.52h4.63L74.16,113H69l-1.12-3.61H63L61.89,113H56.71Zm4,11.47-1.64-5.72L63.73,106Z"/><path class="cls-1" d="M75.69,113V94.52h5.07v7l5.62-7H92.1l-6.71,8.27L92.57,113H86.74l-4.58-6.79-1.4,1.46V113Z"/><path class="cls-1" d="M106.79,108.56V113H93.63V94.52h12.92v4.42H98.7v2.6h6.71v4.11H98.7v2.91Z"/><path class="cls-1" d="M119,94.52h4.63L130,113h-5.15l-1.12-3.61h-4.91L117.76,113h-5.17ZM123,106l-1.64-5.72L119.61,106Z"/><path class="cls-1" d="M131.57,113V94.52H140a5.62,5.62,0,0,1,2.5.56,6.49,6.49,0,0,1,2,1.46,6.81,6.81,0,0,1,1.29,2.05,6.15,6.15,0,0,1,.47,2.33,6.56,6.56,0,0,1-.7,3,6.11,6.11,0,0,1-1.95,2.27l3.9,6.79h-5.72l-3.25-5.67h-1.9V113Zm5.07-10.09h3.2a1.12,1.12,0,0,0,.87-.52,2.33,2.33,0,0,0,.4-1.46,2.09,2.09,0,0,0-.47-1.47,1.31,1.31,0,0,0-.94-.51h-3.07Z"/><path class="cls-1" d="M149.12,113V94.52h8.48a5.61,5.61,0,0,1,2.5.56,6.48,6.48,0,0,1,2,1.46,6.79,6.79,0,0,1,1.29,2.05,6.17,6.17,0,0,1,.47,2.33,6.59,6.59,0,0,1-.7,3,6.12,6.12,0,0,1-2,2.27l3.9,6.79h-5.72l-3.25-5.67h-1.9V113Zm5.07-10.09h3.2a1.12,1.12,0,0,0,.87-.52,2.33,2.33,0,0,0,.4-1.46,2.09,2.09,0,0,0-.47-1.47,1.31,1.31,0,0,0-.94-.51h-3.07Z"/><path class="cls-1" d="M174.75,113.14a8.87,8.87,0,0,1-3.82-.81,9.46,9.46,0,0,1-2.94-2.12,9.59,9.59,0,0,1-1.9-3,9.29,9.29,0,0,1-.68-3.48,9.05,9.05,0,0,1,.7-3.51,9.3,9.3,0,0,1,2-3,9.55,9.55,0,0,1,3-2.05,9.22,9.22,0,0,1,3.78-.77,8.88,8.88,0,0,1,3.82.81,9.37,9.37,0,0,1,2.94,2.13,9.58,9.58,0,0,1,1.88,3,9.4,9.4,0,0,1,.66,3.46,9,9,0,0,1-.7,3.5,9.49,9.49,0,0,1-2,3,9.6,9.6,0,0,1-3,2.07A9.09,9.09,0,0,1,174.75,113.14Zm-4.19-9.36a6.3,6.3,0,0,0,.26,1.81,4.73,4.73,0,0,0,.78,1.55,3.93,3.93,0,0,0,1.31,1.09,4.44,4.44,0,0,0,3.78,0,3.84,3.84,0,0,0,1.31-1.12,4.8,4.8,0,0,0,.75-1.57,6.66,6.66,0,0,0,.25-1.79,6.3,6.3,0,0,0-.26-1.81,4.48,4.48,0,0,0-.79-1.53,4.28,4.28,0,0,0-5.07-1.05,3.89,3.89,0,0,0-1.31,1.1,4.71,4.71,0,0,0-.77,1.56A6.48,6.48,0,0,0,170.57,103.78Z"/><path class="cls-1" d="M191.45,94.52h4.65l1.61,5.69,1.64-5.69H204l-3,8.81,1.33,3.85,4-12.66h5.51L204.55,113h-4.21l-2.63-6.6-2.6,6.6H190.9l-7.23-18.46h5.49l4,12.66,1.27-3.85Z"/><path class="cls-1" d="M229.38,94.52V113h-5.07v-7.23h-6.19V113h-5.07V94.52h5.07v6.81h6.19V94.52Z"/><path class="cls-1" d="M245.71,108.56V113H232.55V94.52h12.92v4.42h-7.85v2.6h6.71v4.11h-6.71v2.91Z"/><path class="cls-1" d="M252.86,94.52h4.63l6.4,18.46h-5.15l-1.12-3.61H252.7L251.61,113h-5.17Zm4,11.47-1.64-5.72L253.45,106Z"/><path class="cls-1" d="M265.41,113V94.52h7.1a10.39,10.39,0,0,1,4,.73,8.12,8.12,0,0,1,4.68,4.9,10.57,10.57,0,0,1,.6,3.58,10.42,10.42,0,0,1-.66,3.81,8.25,8.25,0,0,1-1.89,2.91,8.43,8.43,0,0,1-2.94,1.87,10.53,10.53,0,0,1-3.82.66Zm11.26-9.26a6.35,6.35,0,0,0-.29-2,4.37,4.37,0,0,0-.82-1.51,3.7,3.7,0,0,0-1.31-1,4.2,4.2,0,0,0-1.74-.35h-2v9.62h2a4.13,4.13,0,0,0,1.77-.36,3.69,3.69,0,0,0,1.31-1,4.47,4.47,0,0,0,.8-1.53A6.47,6.47,0,0,0,276.67,103.72Z"/><path class="cls-1" d="M66.05,72.62a3.38,3.38,0,0,1-1.42,2.86,4.86,4.86,0,0,1-1.53.73,6.66,6.66,0,0,1-1.86.25H54V61.55h8a3,3,0,0,1,1.41.34,3.51,3.51,0,0,1,1.07.87A4,4,0,0,1,65.18,64a4.08,4.08,0,0,1-.3,3.42,3.32,3.32,0,0,1-1.6,1.42,3.84,3.84,0,0,1,2,1.35A3.92,3.92,0,0,1,66.05,72.62ZM56.94,64v3.76H60.8a1.72,1.72,0,0,0,1.25-.5,1.85,1.85,0,0,0,.51-1.39,1.92,1.92,0,0,0-.47-1.37,1.53,1.53,0,0,0-1.17-.5Zm6.2,8A2.19,2.19,0,0,0,63,71.3a2.14,2.14,0,0,0-.37-.64,1.71,1.71,0,0,0-.55-.43,1.53,1.53,0,0,0-.69-.16H56.94V74h4.3a1.89,1.89,0,0,0,.75-.15,1.78,1.78,0,0,0,.6-.41,2,2,0,0,0,.55-1.38Z"/><path class="cls-1" d="M78.67,73.92v2.54H68.32V61.55H78.48v2.54H71.22v3.59H77.5V70H71.22v3.88Z"/><path class="cls-1" d="M89.51,65.46a3.59,3.59,0,0,0-.54-.4,6.51,6.51,0,0,0-.95-.49,8.23,8.23,0,0,0-1.21-.41A5.29,5.29,0,0,0,85.5,64a3,3,0,0,0-1.79.44,1.46,1.46,0,0,0-.59,1.24,1.28,1.28,0,0,0,.22.77A1.9,1.9,0,0,0,84,67a5.39,5.39,0,0,0,1.06.42q.64.19,1.48.4,1.09.29,2,.63a5.38,5.38,0,0,1,1.51.84,3.48,3.48,0,0,1,1,1.21,4,4,0,0,1,.34,1.73,4.31,4.31,0,0,1-.45,2,3.79,3.79,0,0,1-1.22,1.38,5.28,5.28,0,0,1-1.76.77,8.84,8.84,0,0,1-2.09.24,11.22,11.22,0,0,1-3.32-.5,10.23,10.23,0,0,1-2.94-1.43l1.28-2.5a4,4,0,0,0,.68.49,10.25,10.25,0,0,0,1.17.61,9,9,0,0,0,1.49.51,6.73,6.73,0,0,0,1.68.21q2.4,0,2.39-1.53a1.26,1.26,0,0,0-.27-.82,2.31,2.31,0,0,0-.78-.59A7.48,7.48,0,0,0,86,70.62l-1.6-.46a13.64,13.64,0,0,1-1.86-.64,4.87,4.87,0,0,1-1.31-.82,3.06,3.06,0,0,1-.79-1.09,3.77,3.77,0,0,1-.26-1.48,4.63,4.63,0,0,1,.42-2,4.07,4.07,0,0,1,1.17-1.47,5.28,5.28,0,0,1,1.73-.89,7.17,7.17,0,0,1,2.12-.3,8.24,8.24,0,0,1,2.9.49,10.81,10.81,0,0,1,2.31,1.17Z"/><path class="cls-1" d="M104.55,64.09H99.78V76.46H96.9V64.09H92.13V61.55h12.41Z"/><path class="cls-1" d="M110.85,76.46V61.55h5.42a8.09,8.09,0,0,1,3.2.59,6.44,6.44,0,0,1,3.69,4,8.89,8.89,0,0,1,.46,2.89,8.73,8.73,0,0,1-.51,3.08,6.59,6.59,0,0,1-1.48,2.35,6.68,6.68,0,0,1-2.32,1.51,8.2,8.2,0,0,1-3,.54ZM120.7,69a6.37,6.37,0,0,0-.29-2,4.42,4.42,0,0,0-.86-1.55,3.84,3.84,0,0,0-1.4-1,4.72,4.72,0,0,0-1.88-.36h-2.52v9.83h2.52a4.54,4.54,0,0,0,1.9-.38,3.89,3.89,0,0,0,1.39-1,4.64,4.64,0,0,0,.85-1.56A6.29,6.29,0,0,0,120.7,69Z"/><path class="cls-1" d="M132.25,76.56a6.77,6.77,0,0,1-3-.64,7.29,7.29,0,0,1-2.29-1.7A7.89,7.89,0,0,1,125,69a7.49,7.49,0,0,1,.56-2.86,7.9,7.9,0,0,1,1.53-2.42,7.33,7.33,0,0,1,2.32-1.67,6.9,6.9,0,0,1,2.92-.62,6.55,6.55,0,0,1,3,.66,7.37,7.37,0,0,1,2.28,1.73A8,8,0,0,1,139,66.27a7.68,7.68,0,0,1,.53,2.77,7.56,7.56,0,0,1-.55,2.85,7.74,7.74,0,0,1-1.51,2.39,7.28,7.28,0,0,1-2.31,1.66A6.89,6.89,0,0,1,132.25,76.56ZM127.92,69a6,6,0,0,0,.29,1.87,5,5,0,0,0,.85,1.6,4.22,4.22,0,0,0,1.37,1.11,4.23,4.23,0,0,0,3.7,0,4.23,4.23,0,0,0,1.36-1.14,5.1,5.1,0,0,0,.84-1.61,6,6,0,0,0,.28-1.82,5.81,5.81,0,0,0-.3-1.87,5.16,5.16,0,0,0-.86-1.6,4.12,4.12,0,0,0-1.36-1.1,4.25,4.25,0,0,0-3.69,0A4.15,4.15,0,0,0,129,65.59a5.1,5.1,0,0,0-.83,1.6A6,6,0,0,0,127.92,69Z"/><path class="cls-1" d="M140.86,68.9a7.72,7.72,0,0,1,.49-2.7,7.24,7.24,0,0,1,3.75-4.08,7.14,7.14,0,0,1,3.11-.65,6.78,6.78,0,0,1,3.56.9A5.77,5.77,0,0,1,154,64.72l-2.23,1.53a3.83,3.83,0,0,0-.71-1.06,3.59,3.59,0,0,0-.9-.68,4.07,4.07,0,0,0-1-.37,4.81,4.81,0,0,0-1-.12,3.91,3.91,0,0,0-1.9.44,4.18,4.18,0,0,0-1.34,1.14,5,5,0,0,0-.81,1.6,6,6,0,0,0-.27,1.77,5.79,5.79,0,0,0,.32,1.9,5,5,0,0,0,.89,1.61,4.45,4.45,0,0,0,1.39,1.11,3.79,3.79,0,0,0,1.77.42,4.67,4.67,0,0,0,1-.13,3.92,3.92,0,0,0,2-1.1,3.23,3.23,0,0,0,.67-1l2.37,1.37a4.48,4.48,0,0,1-1,1.48,6.52,6.52,0,0,1-1.49,1.08,7.61,7.61,0,0,1-1.77.67,7.78,7.78,0,0,1-1.85.23,6.35,6.35,0,0,1-2.92-.67,7.59,7.59,0,0,1-2.28-1.75,8.13,8.13,0,0,1-1.49-2.46A7.66,7.66,0,0,1,140.86,68.9Z"/><path class="cls-1" d="M162.46,74a3.33,3.33,0,0,0,1.73-.42,3.39,3.39,0,0,0,1.13-1.09,4.52,4.52,0,0,0,.61-1.54,8.91,8.91,0,0,0,.18-1.8v-7.6H169v7.6a10.86,10.86,0,0,1-.37,2.88,6.59,6.59,0,0,1-1.16,2.35,5.53,5.53,0,0,1-2,1.6,6.85,6.85,0,0,1-3,.59,6.77,6.77,0,0,1-3-.62,5.65,5.65,0,0,1-2-1.64,6.54,6.54,0,0,1-1.12-2.36,11.16,11.16,0,0,1-.35-2.79v-7.6h2.9v7.6A9,9,0,0,0,159,71a4.48,4.48,0,0,0,.61,1.54,3.32,3.32,0,0,0,1.12,1.08A3.28,3.28,0,0,0,162.46,74Z"/><path class="cls-1" d="M184.07,76.46V66.59l-3.84,7.35h-1.58l-3.84-7.35v9.87h-2.9V61.55H175L179.43,70l4.45-8.48H187V76.46Z"/><path class="cls-1" d="M200.43,73.92v2.54H190.08V61.55h10.16v2.54H193v3.59h6.28V70H193v3.88Z"/><path class="cls-1" d="M205.6,66.9v9.56h-2.9V61.55h2.25l7.77,9.79V61.57h2.9V76.46h-2.35Z"/><path class="cls-1" d="M229.87,64.09h-4.77V76.46h-2.88V64.09h-4.77V61.55h12.41Z"/><path class="cls-1" d="M234.49,61.55h2.56l5.67,14.91h-3l-1.39-3.72h-5.21l-1.37,3.72h-3Zm3.34,9.16-2.06-5.86-2.14,5.86Z"/><path class="cls-1" d="M244.36,76.46V61.55H251a4.24,4.24,0,0,1,1.9.43,4.93,4.93,0,0,1,1.5,1.13,5.37,5.37,0,0,1,1,1.6,4.82,4.82,0,0,1,.36,1.8,5,5,0,0,1-.72,2.64,4.16,4.16,0,0,1-2,1.71l3.4,5.61h-3.26l-3-5h-2.86v5Zm2.9-7.54h3.63a1.53,1.53,0,0,0,.75-.19,1.9,1.9,0,0,0,.6-.51,2.58,2.58,0,0,0,.4-.77,3,3,0,0,0,.15-.95,2.69,2.69,0,0,0-.17-1,2.52,2.52,0,0,0-.45-.77,2.05,2.05,0,0,0-.65-.5,1.69,1.69,0,0,0-.75-.18h-3.51Z"/><path class="cls-1" d="M259.53,61.55l3.67,7.18,3.74-7.18h3.13l-5.42,9.7v5.21h-2.88V71.21l-5.4-9.66Z"/><path class="cls-1" d="M90.32,149.46V134.55h10v2.54H93.22v3.84h5.92v2.35H93.22v6.17Z"/><path class="cls-1" d="M102.38,149.46V134.55h2.9v14.91Z"/><path class="cls-1" d="M108.38,149.46V134.55h2.9v12.37h7.6v2.54Z"/><path class="cls-1" d="M132.8,149.46v-9.87L129,146.94h-1.58l-3.84-7.35v9.87h-2.9V134.55h3.11l4.41,8.48,4.45-8.48h3.09v14.91Z"/><path class="cls-1" d="M143.85,149.46V134.55h10v2.54h-7.12v3.84h5.92v2.35h-5.92v6.17Z"/><path class="cls-1" d="M166.26,146.92v2.54H155.9V134.55h10.16v2.54H158.8v3.59h6.28V143H158.8v3.88Z"/><path class="cls-1" d="M177.09,138.46a3.59,3.59,0,0,0-.54-.4,6.51,6.51,0,0,0-.95-.49,8.23,8.23,0,0,0-1.21-.41,5.29,5.29,0,0,0-1.32-.17,3,3,0,0,0-1.79.44,1.46,1.46,0,0,0-.59,1.24,1.28,1.28,0,0,0,.22.77,1.9,1.9,0,0,0,.64.54,5.39,5.39,0,0,0,1.06.42q.64.19,1.48.4,1.09.29,2,.63a5.38,5.38,0,0,1,1.51.84,3.48,3.48,0,0,1,1,1.21,4,4,0,0,1,.34,1.73,4.31,4.31,0,0,1-.45,2,3.79,3.79,0,0,1-1.22,1.38,5.28,5.28,0,0,1-1.76.77,8.84,8.84,0,0,1-2.09.24,11.22,11.22,0,0,1-3.32-.5,10.23,10.23,0,0,1-2.94-1.43l1.28-2.5a4,4,0,0,0,.68.49,10.25,10.25,0,0,0,1.17.61,9,9,0,0,0,1.49.51,6.73,6.73,0,0,0,1.68.21q2.4,0,2.39-1.53a1.26,1.26,0,0,0-.27-.82,2.31,2.31,0,0,0-.78-.59,7.48,7.48,0,0,0-1.22-.46l-1.6-.46a13.64,13.64,0,0,1-1.86-.64,4.87,4.87,0,0,1-1.31-.82,3.06,3.06,0,0,1-.79-1.09,3.77,3.77,0,0,1-.26-1.48,4.63,4.63,0,0,1,.42-2,4.07,4.07,0,0,1,1.17-1.47,5.28,5.28,0,0,1,1.73-.89,7.17,7.17,0,0,1,2.12-.3,8.24,8.24,0,0,1,2.9.49,10.81,10.81,0,0,1,2.31,1.17Z"/><path class="cls-1" d="M192.13,137.09h-4.77v12.37h-2.88V137.09h-4.77v-2.54h12.41Z"/><path class="cls-1" d="M194,149.46V134.55h2.9v14.91Z"/><path class="cls-1" d="M201.52,134.55l4,11.28,4-11.28h3l-5.82,14.91h-2.44l-5.86-14.91Z"/><path class="cls-1" d="M217.14,134.55h2.56l5.67,14.91h-3L221,145.74H215.8l-1.37,3.72h-3Zm3.34,9.16-2.06-5.86-2.14,5.86Z"/><path class="cls-1" d="M227,149.46V134.55h2.9v12.37h7.6v2.54Z"/></g></g></svg>