<svg xmlns="http://www.w3.org/2000/svg" viewBox="0 0 100.13 41.08"><defs><style>.cls-1{fill:#fff;}</style></defs><title>LAtimes-white_1</title><g id="Layer_2" data-name="Layer 2"><g id="Layer_1-2" data-name="Layer 1"><g id="Layer_2-2" data-name="Layer 2"><g id="Layer_1-2-2" data-name="Layer 1-2"><path class="cls-1" d="M52.64,31.08l2.3-1.92,3.22,2.07A11.76,11.76,0,0,0,58,32.54c0,1.41,0,2.83,0,4.24,0,1.2,0,1.2,1.07,1.9l.51-.37.14.15-2.3,2.1L55.2,38.82c.06-.56.16-1.08.17-1.6,0-1.36,0-2.73,0-4.09a.93.93,0,0,0-.51-1c-.47-.26-.91-.6-1.38-.88s-.83-.17-.84.41c0,2.06,0,4.12,0,6.17,0,.37.49.72.79,1.12l-1.75,1.55-1.86-1.45A13.11,13.11,0,0,0,50,37.67c0-1.55,0-3.08,0-4.61a1.41,1.41,0,0,0-.47-.88,10,10,0,0,0-1.36-.91c-.51-.31-1-.13-1,.47,0,2,0,4.07,0,6.1,0,.37.49.72.79,1.12L46.29,40.5l-1.84-1.41c.06-.53.15-1,.16-1.43,0-1.66,0-3.33,0-5a1.45,1.45,0,0,0-.86-1.6l-.55.31-.11-.14,2.35-2.13,2,1.83,2.17-1.82Z"/><path class="cls-1" d="M69.31,15.75a4.17,4.17,0,0,1-3,4,4.08,4.08,0,0,1-3,0,6,6,0,0,0-5.37-.07,2.59,2.59,0,0,1,1.34-2.11,4.93,4.93,0,0,1,4.28-.5,27.2,27.2,0,0,0,3.07.84,2.84,2.84,0,0,0,1.51-.21c.37-.15.62-.55.9-.8A6.78,6.78,0,0,1,67,16.7c-.59-.27-1-.9-1.54-1.47-.36.28-.87.7-1.41,1.07a.85.85,0,0,1-.69.12c-.62-.28-1.17-.64-1.77-1s-1.19-.62-1.62-.83c0-2.46.11-4.82,0-7.18l4.86-2.57,3.7,2.38c-.05.59-.14,1.15-.14,1.72,0,1.91,0,3.82,0,5.73C68.32,15.61,68.52,15.8,69.31,15.75ZM65.48,15c.07-.15.15-.23.15-.31V8.74a.54.54,0,0,0-.15-.39c-.92-.65-1.84-1.27-2.84-2V13a.74.74,0,0,0,.25.55c.83.5,1.68,1,2.58,1.48Z"/><path class="cls-1" d="M35.79,38.24A8.27,8.27,0,0,0,37.19,37c.31-.45.4-1.07.76-1.62a7.67,7.67,0,0,1-.07,1.24,5.11,5.11,0,0,1-1.61,2.71,7.44,7.44,0,0,1-9,.51,6.13,6.13,0,0,1-2.48-6.08,6.19,6.19,0,0,1,4.12-5.12,26.54,26.54,0,0,1,2.63-.76c-1.79-.33-3.46-.83-5.2-.31a4,4,0,0,0-1.32.78.93.93,0,0,0-.27,1.26,1.13,1.13,0,0,1,0,.44l-.23.07a2.26,2.26,0,0,1-.22-.62A4.19,4.19,0,0,1,28.85,25c1.82.15,3.61.57,5.43.85a13.59,13.59,0,0,0,1.77.14c.85,0,1.58-.2,1.74-1.24a2.48,2.48,0,0,1-1.44,3.57,1,1,0,0,0-.8,1.14c0,2.9,0,5.79,0,8.69Zm-.38-9.57c-1-.19-1.86-.36-2.77-.52a1.61,1.61,0,0,0-.58,0,5.92,5.92,0,0,0-4.27,7.71,5.46,5.46,0,0,0,7,2.84.85.85,0,0,0,.65-1c0-2.65,0-5.3,0-8,0-.39,0-.78,0-1.12Z"/><path class="cls-1" d="M41.73,1.08l1-.77a2.76,2.76,0,0,0,.1,2.28Q44.69,8,46.56,13.34a6.74,6.74,0,0,0,.83,1.29l.75-.49.15.16c-.34.31-.66.65-1,1-.5.44-1,1.15-1.52,1.22s-1.08-.6-1.62-.93c-.23-.15-.45-.31-.47-.5a8.73,8.73,0,0,0-.18-1.55c-.56-1.88-.59-1.86-2.56-1.86-.93,0-1.89,0-2.83,0-.44,0-.69.1-.8.55s-.31.93-.48,1.42l2.35.44.49-.62.17.1-1.69,3.12a4.67,4.67,0,0,0-4.86-.06,3.42,3.42,0,0,1,2.58-2.77,1.14,1.14,0,0,0,.93-.88c1-3,2.1-6,3.21-8.95a1.59,1.59,0,0,0-.5-1.86,2,2,0,0,0-2.59.19,1,1,0,0,0-.1,1.41,1,1,0,0,1,.17.45s-.19.16-.21.14a1.15,1.15,0,0,1-.39-.39A2.83,2.83,0,0,1,38,.43,3.54,3.54,0,0,1,41.73,1.08ZM40.35,3.7,38.09,10H42.4Z"/><path class="cls-1" d="M4.3.43,3.17,2.51l.19.14L6.55,0a3.41,3.41,0,0,0,.67.7,6.29,6.29,0,0,0,1.9.87c1.1.17,1.37-.21,1.09-1.24l.19-.1a2,2,0,0,1,.31.62A2.74,2.74,0,0,1,8.44,3.59c-.36.07-.74.07-1.2.11V13L11,13.9l.47-.66.18.11L9.88,16.64c-3.26-1.7-6.49-1.24-9.73-.11L0,16.39a2.59,2.59,0,0,0,.48-.29,5.57,5.57,0,0,0,1.73-5.41,16.2,16.2,0,0,0-.9-2.83C.06,4.65,1.18,1.75,4.3.43Zm.06,1.79C3.18,2.64,3,3.6,3.43,4.74S4.2,7,4.64,8.17a4.29,4.29,0,0,1-1.1,5.14c-.2.19-.38.39-.57.59l-.42.41L7,12.93V4a.71.71,0,0,0-.34-.46c-.74-.44-1.49-.86-2.31-1.33Z"/><path class="cls-1" d="M50.75,16.59,49,15.17c0-1.06.1-2,.11-2.95,0-1.24,0-2.48,0-3.72a1.54,1.54,0,0,0-.9-1.67l-.57.31L47.5,7l2.42-2.19L52,6.7c.53-.45,1.18-1,1.86-1.55a.76.76,0,0,1,.67-.1c1,.62,2,1.32,3,1.94a9.62,9.62,0,0,0-.18,1.24c0,1.49.05,3,0,4.46a1.7,1.7,0,0,0,1.12,1.94l.59-.36.11.15L56.7,16.59l-2.26-1.8a11.35,11.35,0,0,0,.19-1.39c0-1.51,0-3,0-4.54A1.4,1.4,0,0,0,54.15,8a11.21,11.21,0,0,0-1.42-1c-.5-.31-1-.13-1,.43,0,2.13,0,4.27,0,6.4,0,.34.5.67.82,1.08Z"/><path class="cls-1" d="M20.64,13.73c-1.41.85-2.93,1.76-4.45,2.64a.73.73,0,0,1-.62,0c-1.19-.76-2.36-1.55-3.41-2.25a44.73,44.73,0,0,0,0-6.65c1.41-.78,3-1.66,4.52-2.5a.62.62,0,0,1,.52,0c1.21.77,2.41,1.57,3.46,2.26A52.29,52.29,0,0,0,20.64,13.73ZM17.8,15s.07-.08.07-.11V8.76a.62.62,0,0,0-.18-.45c-.89-.64-1.8-1.24-2.79-1.91v6.33a.76.76,0,0,0,.29.53c.87.59,1.75,1.14,2.61,1.71Z"/><path class="cls-1" d="M29.47,4.63c.53.13.6.23.51.76A2.69,2.69,0,0,1,25.73,7c-.17-.14-.33-.31-.62-.58,0,.93,0,1.72,0,2.5,0,.19.42.35.66.5s.48.24.75.37l.7-.64,1.35.73,1.32.68v3.17l-4.74,2.79c-1.77-1.12-2.72-1.23-3.52-.37a.48.48,0,0,0,0,.14c.08.18.18.36.27.54-.09,0-.24.12-.25.1-.14-.19-.38-.42-.35-.59a4.09,4.09,0,0,1,.57-1.55,31.54,31.54,0,0,1,2.24-2.48,3.65,3.65,0,0,1,.69-.46l-.12-.26L22.3,10.49V7.42c.73-.35,1.59-.74,2.41-1.17S26.3,5.33,27,4.9a8.83,8.83,0,0,0,1.55.76C29.46,5.89,29.78,5.53,29.47,4.63ZM27.13,15.08c0-1.15,0-2.08,0-3,0-.44-1.28-1.08-1.57-.79-.93.93-1.83,1.86-2.75,2.82A3.76,3.76,0,0,1,27.13,15.08Z"/><path class="cls-1" d="M92.4,7.48l4.77-2.53a8.81,8.81,0,0,0,1.62.73c.81.19,1.07-.18.8-1,.47-.07.62.09.5.65a2.54,2.54,0,0,1-1.71,2,2.54,2.54,0,0,1-2.65-.46,2.24,2.24,0,0,1-.35-.53l-.21.14c0,.76,0,1.52,0,2.27,0,.21.34.42.57.57a7.71,7.71,0,0,0,.93.45c.42-.85.95-.56,1.55-.18s1.26.68,1.77.93v3.18l-4.77,2.79a3.12,3.12,0,0,0-2.67-.88,4.63,4.63,0,0,0-1,.44c.17.2.28.28.31.38a1.67,1.67,0,0,1,0,.43c-.14-.07-.39-.12-.4-.19a2.5,2.5,0,0,1,0-1.21,7,7,0,0,1,1.21-1.68c.67-.69,1.44-1.29,2.17-1.92l-.15-.31L92.4,10.45Zm4.82,7.6c0-1.14,0-2.05,0-3,0-.67-.69-.6-1.07-.85a.59.59,0,0,0-.56.08c-.91.9-1.78,1.83-2.67,2.75A3.72,3.72,0,0,1,97.22,15.08Z"/><path class="cls-1" d="M75.89,37.75l-4.63,2.7c-1.66-1.08-2.57-1.19-3.41-.38a.37.37,0,0,0,0,.14c.08.19.16.37.25.55-.09,0-.24.09-.25.07s-.34-.4-.31-.54a4.62,4.62,0,0,1,.62-1.62c.68-.88,1.5-1.65,2.26-2.48l.45-.49-2.41-1.11V31.69l4.72-2.5a4.62,4.62,0,0,0,1.08.65,2.22,2.22,0,0,0,1.19-.06c.1,0,0-.54.08-.95.45.15.47.46.41.83a2.62,2.62,0,0,1-4.14,1.55c-.17-.14-.33-.31-.62-.56,0,.89,0,1.66,0,2.42,0,.18.37.34.6.47a8.47,8.47,0,0,0,.78.38l.7-.62,2.6,1.39Zm-7.08.2.2.28a3.42,3.42,0,0,1,4.15.8V36.24c0-.7-.66-.65-1.05-.86a.78.78,0,0,0-.66.18C70.56,36.34,69.69,37.15,68.82,37.95Z"/><path class="cls-1" d="M70.31,7.49l5-2.56,2.51,3.53c-1.39.87-2.74,1.8-4.17,2.59-.93.52-.44,1.3-.56,2s.36.57.67.73l.93.48c1.22.64,1.36.62,2.17-.53.06-.08.09-.18.15-.26a3.61,3.61,0,0,1,.37-.41s.21.13.2.15a1.51,1.51,0,0,1-.27.49c-.87.88-1.75,1.76-2.65,2.61a.71.71,0,0,1-.62.17c-1.29-.62-2.56-1.29-3.76-1.9Zm5.13,2.17-2.3-3.24v4.65Z"/><path class="cls-1" d="M81.51,2.64a9.54,9.54,0,0,0-.19,1.27c0,2.93,0,5.85,0,8.77,0,.93.18,1.59,1.15,1.93l.54-.35.13.15-2.4,2.17-2.22-1.75c.06-.64.15-1.21.16-1.78,0-2.85,0-5.7,0-8.55a1.58,1.58,0,0,0-.91-1.66l-.4.24,2-2.23Z"/><path class="cls-1" d="M83.76,14.5a25.14,25.14,0,0,0,.07-7L88.9,4.92l2.51,3.53c-1.35.85-2.65,1.77-4,2.5-1,.52-.62,1.32-.7,2.05s.49.6.81.8.57.29.86.44c1.17.62,1.17.62,2-.44.14-.17.2-.41.34-.57s.27-.13.42-.19c0,.15.06.36,0,.43-1,1-2,2-3,2.93-.1.09-.41.06-.57,0C86.29,15.78,85.06,15.15,83.76,14.5Zm2.93-3.38L89,9.67,86.69,6.41Z"/><path class="cls-1" d="M60.21,38.57V31.71l4.87-2.48,2.43,3.43c-1.38.86-2.69,1.74-4.07,2.52-.86.48-.39,1.22-.52,1.84s.31.6.62.76c.64.31,1.28.65,2,1L67.1,37l.18.11a1.31,1.31,0,0,1-.18.46c-.91.93-1.82,1.83-2.75,2.71a.62.62,0,0,1-.56.07C62.58,39.78,61.37,39.16,60.21,38.57Zm2.74-3.34,2.24-1.41-2.24-3.11Z"/><path class="cls-1" d="M38.47,31.07l-.52.33-.12-.14,2.33-2.12,2,1.74a8.43,8.43,0,0,0-.2,1.21c0,1.55,0,3.13,0,4.69A1.6,1.6,0,0,0,43,38.63l.49-.34.14.15-2.31,2.11-2.17-1.72c.07-.56.16-1,.17-1.52,0-1.55,0-3.13,0-4.69C39.34,31.68,39.34,31.68,38.47,31.07Z"/><path class="cls-1" d="M42.94,27.19c-.93,1.39-2.09,1.47-3.68.12l-.52.29-.13-.16,2.15-1.92Z"/><path class="cls-1" d="M30.52,38c1.24-.65,1.51-1.43.93-2.79-.33-.77-.78-1.5-1.1-2.27A2.5,2.5,0,0,1,30.72,30,3.41,3.41,0,0,1,34,29a2,2,0,0,1,.56.33l-.08.17a1.53,1.53,0,0,1-.37-.07,1.18,1.18,0,0,0-1.79,1.1,4.76,4.76,0,0,0,.51,1.67c.25.56.68,1,.93,1.6a2.64,2.64,0,0,1-1.27,3.7,14.61,14.61,0,0,1-1.9.67Z"/></g></g></g></g></svg>