<svg xmlns="http://www.w3.org/2000/svg" viewBox="0 0 321.41 208"><defs><style>.cls-1{fill:#ef5035;}</style></defs><title>longisland-laurel-red_1</title><g id="Layer_2" data-name="Layer 2"><g id="Layer_1-2" data-name="Layer 1"><path class="cls-1" d="M247.34,13.81c-3-4.06-4.73-8.35-2.69-13.45,4.93,1.3,8.31,4.74,8,9.87-.4,5.84,2.87,7.71,7.25,9.21.22.08.53-.09.8-.15-1.56-7.93-1.48-8.8,1.18-12.94,4.9,2.63,7,7,5.78,12.07-1.13,4.93,1,7.36,4.79,9.37.5.27.94.66,2,1.38-1-5.13-.83-9.63,2.4-13.43,5.53,2.73,6.19,6.86,3,18.14.71.78,1.54,1.6,2.26,2.5a15.1,15.1,0,0,0,3.08,3.32c1-5,1.78-9.52,6.42-12.73,2.83,4.21,4.18,8.9,1.65,12.88-3.36,5.28-1.46,9,1.6,13a4.91,4.91,0,0,0,.56.47c.68-5.19,2.84-9.34,7.74-12,2.42,3.53,2.25,7.13,1,10.62a19.23,19.23,0,0,1-3.57,6,4,4,0,0,0-.82,4.77c.82,1.86,1.6,3.73,2.72,6.36,1.25-6,4.37-9.52,9.33-11.46,2.53,5.06,2.08,10-2.77,13.82-4.58,3.61-4.5,7.24-2.35,12.23,2.88-4.29,6.18-7.79,11.66-8.48,1.39,4.36.07,7.93-2.71,11a16.33,16.33,0,0,1-4.8,3.8c-2.93,1.41-3.84,3.36-2.91,6.38a27.79,27.79,0,0,1,.54,3.08,16.89,16.89,0,0,1,12.85-5.94,12.64,12.64,0,0,1,0,3.25,14,14,0,0,1-9.66,10.07c-3.08.93-4.46,2.35-4.31,5.51a23.94,23.94,0,0,1-.71,4.27c4.3-4.47,9-5.59,14.51-4.79a10.31,10.31,0,0,1-5.2,8.89,26.51,26.51,0,0,1-6.47,2.71c-5.18,1.47-5.21,1.37-5.78,7,9-2.52,9.41-2.54,14.8-.44a15.07,15.07,0,0,1-8.13,8c-1.62.64-3.48,1.34-5.11,1.13-5.43-.72-7.65,2.25-8.81,6.86,7.11-2.28,9.57-2.12,15.47,1.22-2.06,4.42-5.94,6.15-10.29,7a22.13,22.13,0,0,1-6.16,0c-4.93-.48-5.44-.24-7.83,5a19.32,19.32,0,0,1,15.07,4c-6.7,7.66-14.26,5.74-22.13,2.73l-5.11,4.75a65.79,65.79,0,0,1,8.32,1.94c2.56.94,5.07,2.28,6.59,5.16-5.21,4.45-10.77,4.13-16.56,1.89a17.34,17.34,0,0,1-2-.93c-4.34-2.35-4.34-2.36-8.76,1.49,5.35,1.7,10.06,4.13,13.39,9.58-3.94,2-7.69,3.23-11.81,1.67-2.32-.88-4.9-1.81-6.56-3.5-3.27-3.32-6.3-3.09-10.06-.39,5.38,2.23,9.53,5.59,11.66,11-6.67,3.89-13,1.35-21.55-8.5-13.69,2.54-26.22,7.78-36.86,18l-3.17-3c3.06-4.35,7.1-6.9,11.3-8.85a172.52,172.52,0,0,1,20.85-8.27c3.56-1.12,5.13-2.76,5.43-6.23.51-5.82,3.22-10.31,8.46-13.1a17,17,0,0,1,2.37-.86c2.87,4.55,2,9.42-2.65,16.65,5.89-1.12,6.21-1.24,5.88-6.88-.35-6,1.39-11,6.17-14.79a8,8,0,0,1,1.48-.91,2.29,2.29,0,0,1,.86-.05c3.19,5.16,3.15,9.08-.4,17,1.07-.63,1.79-1,2.48-1.47,3.72-2.37,3.76-2.39,2.59-6.61A15.72,15.72,0,0,1,265,156.69a36.25,36.25,0,0,1,3.42-3.65,17,17,0,0,1,3.2,15c4.3-1.12,5-2.27,3.37-6.17-2.26-5.56-3.06-11.05.43-16.44.39-.6.91-1.11,1.71-2.08,4.42,3.89,5.77,8.72,5.65,14.23,4.37-2.63,4.73-3.75,2.25-7.5-3.26-4.93-4.83-10.06-2.26-15.79a22.45,22.45,0,0,1,1.54-2.38c4.46,3.83,7.41,8,7.38,15l3.94-6.66C290.12,134.65,285,129.1,288.8,120c5.61,2.57,8.91,6.59,10,13.24.47-1.29.69-1.9.91-2.5,1.75-4.62,1.75-4.61-2.15-7.95-3.41-2.93-6.48-6.09-6.51-11a37.11,37.11,0,0,1,.43-4.15c5.69,1.33,8.08,3.42,12,10.16.22-1,.43-1.79.6-2.62,1-4.52,1-4.56-3.22-6.67-4.89-2.45-8.33-6-9.08-11.64a5,5,0,0,1,0-1.31,6.26,6.26,0,0,1,.68-1.3,17.41,17.41,0,0,1,13.07,8.29c0-.84,0-1.69,0-2.53,0-5.31,0-5.28-4.94-7.06-5.41-1.93-9.57-5-10.49-11.88,5.83-.45,10.5.91,14.39,6.65-.24-1.84-.33-2.71-.47-3.57-.16-1-.33-2-.54-3a3.36,3.36,0,0,0-3.25-3,37.34,37.34,0,0,1-6-1.23c-4-1.12-6.45-3.8-7.73-8.14,3.58-2.14,5.69-1.92,13.79,1.6-.47-1.62-.82-3-1.26-4.33a3.58,3.58,0,0,0-4-2.7,35.52,35.52,0,0,1-4.85,0c-4.75-.35-8.05-2.86-10.72-7.13,5.5-2.85,10.34-2.44,15.84,1.52l-5.24-9.08c-7,2.64-13.54,3.76-18.92-3.34,5.08-3.38,9.86-4.41,15.37-1.57l-6.29-7.3c-9.85,4.52-14.39,4.45-19.21-.41a16.6,16.6,0,0,1,13.21-4.67l-6.2-5.19c-5.79,3.75-11.41,8.13-18.45,3.07,3.19-4.76,6.26-6.23,13.15-6.29-1.09-.76-1.88-1.39-2.75-1.9-5.07-3-5.08-2.95-9.62,1-4.27,3.69-8.38,4.39-13.21,2,2.41-5.06,6.41-7.6,12.38-7.87l-2-2.34Z"/><path class="cls-1" d="M74.34,13.79l-2,2.33c5.94.31,9.94,2.83,12.47,8.05a9.82,9.82,0,0,1-8.82.59,16.48,16.48,0,0,1-3.81-2.17c-1.76-1.24-3.56-3.87-5.09-3.69-2.7.31-5.21,2.28-7.68,3.79,6.43.31,8.37,1.17,12.72,5.85-3.81,4.52-7.3,4.15-18.27-2.18l-6.26,4.82c5.27,0,9.59,1.25,13.22,4.81-4.2,4.86-9.73,5-19.11.4l-6.39,7.32c5.46-2.76,10.27-1.88,15,1.31-3.1,5.89-8.06,6.93-18.48,3.72l-5.32,9c5.49-3.94,10.35-4.43,15.8-1.55-2.38,4.17-5.62,6.52-10.1,7.12a20.56,20.56,0,0,1-2.64.07c-6.33,0-6.58.25-7.72,7.14,4.27-2.5,8.52-4.21,13.73-2.23a10.86,10.86,0,0,1-7.45,8.45,19.56,19.56,0,0,1-5.58,1.2c-2.94.16-4.16,1.69-4.47,4.4-.17,1.44-.5,2.87-.93,5.18a16,16,0,0,1,14.28-6.58c.11,5-2.65,7.86-6.07,10.27a12.69,12.69,0,0,1-2.79,1.31c-6.59,2.52-6.59,2.51-6.09,10a62.5,62.5,0,0,1,5.76-5.66,12.22,12.22,0,0,1,7.71-2.44c0,4.47-.94,8.14-4.21,10.86a30.39,30.39,0,0,1-5.14,3.38c-3.74,2-3.83,2-3,6,.2,1,.45,2,.68,3,1.55-2.12,2.82-4.44,4.65-6.19s4.22-2.93,6.8-4.66c2,4.84.9,8.49-1.46,11.8a27.5,27.5,0,0,1-4.68,4.65c-3.28,2.79-3.32,2.74-1.9,6.55.35.93.72,1.84,1.29,3.3a16.17,16.17,0,0,1,9.45-12.93c4.27,7,1.39,12.11-6.24,20.12l3.68,6.47c.2-6.53,2.9-10.88,7.22-14.75,3.58,3.54,3.51,7.6,2.66,11.61a19.74,19.74,0,0,1-2.79,5.93c-2.48,4-2.52,4.33.79,7.87.39.41.85.76,1.79,1.59-1.38-6.44.55-11.26,5-15.92,3,3.82,4.76,7.52,4,12a36.19,36.19,0,0,1-1.75,6.37c-1.58,4.39-1.54,4.59,3.35,7a17.1,17.1,0,0,1,2.73-15c5.55,3.45,7.68,9.11,6.24,15.86-1.22,5.75-1.22,5.75,5.12,9.47-3.71-6.1-4.11-11.64-.73-17.67,4.46,2.92,7.67,6.26,8.29,11.5a36.85,36.85,0,0,1,.11,4.41c0,5.73,0,5.73,6.31,7.69-3.79-5.37-5.85-10.7-3.52-17.25A15.4,15.4,0,0,1,85,176.63a5.36,5.36,0,0,1,.6,2.11c-.17,6.52,3.64,8.75,9.44,10.18a66.27,66.27,0,0,1,23,10.78c1.88,1.36,3.56,3,5.77,4.84L120.56,208a69.34,69.34,0,0,0-37-17.89c-9.07,9.92-14.65,12.17-21.65,8.48a19.59,19.59,0,0,1,11.39-10.77c-4.42-3.39-4.78-3.35-9.22-.12-5,3.61-10.26,5.83-16.46,3.28a22.37,22.37,0,0,1-2.18-1.23c2.85-5.37,7.55-7.78,12.9-9.35-3.47-4.09-4-4.14-8.22-1.89-6.24,3.33-12.46,4.11-18.53-.48,2.28-4.51,7.89-7.16,15.07-7.55a37.83,37.83,0,0,1-3.73-3c-1.32-1.35-2.51-1.44-4.31-.83a31.55,31.55,0,0,1-8.11,1.71c-4.84.29-7.33-1-11.46-5.22a17.45,17.45,0,0,1,14.77-3.82c-1.52-4.83-2.9-5.75-7-5.21-4.94.66-9.74.36-13.84-2.9a43.72,43.72,0,0,1-3.68-3.78c5.4-3.42,10.38-4,16.33-.8-.81-1.79-1.39-2.89-1.81-4-.94-2.61-2.75-3.46-5.46-3.34A15.39,15.39,0,0,1,4.21,132a11.79,11.79,0,0,1-.86-2.11c5.15-2.56,9.85-1.11,14.54.87-.18-5.71-.21-5.72-5.48-7.28-4.28-1.26-8.52-2.63-10.64-7.1-.61-1.28-1-2.66-1.65-4.44C6,111,10.75,112,15,116.39c-.36-2.5-.67-4.49-.92-6.5-.28-2.33-2.27-2.48-3.87-3A14.42,14.42,0,0,1,.89,98.19,25.12,25.12,0,0,1,0,94.06c5.11-.72,8.34.63,13,5.38.27-1.24.44-2.3.74-3.32.86-2.86-.12-4.64-2.8-6a14.12,14.12,0,0,1-7.83-9.6,30.84,30.84,0,0,1-.3-5.13c5.45.63,8,2.4,12.3,8.64.61-2.86,1.37-5.17,1.46-7.5,0-1-1.19-2.21-2.1-3-2.91-2.6-5.58-5.36-5.93-9.46a45.58,45.58,0,0,1,.36-6.45c6,2.08,8,4.23,10.39,11.12a28.08,28.08,0,0,1,1.49-3.4c2-3.28,1.7-6-.89-9.07-3.65-4.33-4.39-9.36-1.45-15.19,4.55,3.09,7.29,6.72,7.64,12.84l4.2-6.49c1.24-1.91-.11-3.39-.93-4.87a14.24,14.24,0,0,1-.75-13.14,11.78,11.78,0,0,1,1.44-2.05c4,2.76,5.17,5.08,5.88,12.69a74.64,74.64,0,0,0,5.31-5.48c.46-.58.21-1.88,0-2.8-.4-2.16-1.17-4.27-1.4-6.44-.42-4,.91-6.77,4.61-9.8,3.5,3.8,4,8.16,2.43,14a78.87,78.87,0,0,0,6.38-4.88,4.6,4.6,0,0,0,1-3c0-1.74-.4-3.5-.4-5.25,0-4.9,1.33-7,6.09-10,3,4.1,2.31,8.47.59,13.57,1.91-.84,3.16-1.49,4.46-1.95,2.88-1,4-2.85,3.84-6-.28-5.49,2.16-9.54,7.62-12,3,5.39.83,9.66-2.2,13.81Z"/><path class="cls-1" d="M99.44,98.35V65.69H107v26H122.8v6.62Z"/><path class="cls-1" d="M138.58,98.63A15.19,15.19,0,0,1,132,97.2a16.31,16.31,0,0,1-5.11-3.75,17,17,0,0,1-3.29-5.31A16.73,16.73,0,0,1,122.39,82a16.29,16.29,0,0,1,1.22-6.21,16.47,16.47,0,0,1,8.58-8.9,15.62,15.62,0,0,1,6.53-1.36,15.2,15.2,0,0,1,6.63,1.43,16.16,16.16,0,0,1,5.11,3.77A17,17,0,0,1,153.71,76a16.8,16.8,0,0,1,1.15,6.07,16.3,16.3,0,0,1-1.22,6.21,16.53,16.53,0,0,1-8.53,8.92A15.4,15.4,0,0,1,138.58,98.63Zm-8.51-16.56a12.24,12.24,0,0,0,.55,3.66,9.79,9.79,0,0,0,1.63,3.15,8,8,0,0,0,2.69,2.21,7.93,7.93,0,0,0,3.68.83A7.79,7.79,0,0,0,142.4,91a8.18,8.18,0,0,0,2.67-2.28,10,10,0,0,0,1.59-3.17,12.55,12.55,0,0,0,.53-3.61,12.19,12.19,0,0,0-.55-3.66A9.28,9.28,0,0,0,145,75.19,8.25,8.25,0,0,0,142.29,73a8,8,0,0,0-3.66-.8,7.82,7.82,0,0,0-3.75.85,8.36,8.36,0,0,0-2.67,2.23,9.43,9.43,0,0,0-1.61,3.15A12.56,12.56,0,0,0,130.07,82.06Z"/><path class="cls-1" d="M166.78,79.67V98.35h-7.54V65.69h5.89l15.23,19.18V65.69h7.54V98.35h-6.07Z"/><path class="cls-1" d="M216.6,95.13a12.29,12.29,0,0,1-8.6,3.45,15.28,15.28,0,0,1-11.06-4.65,16.17,16.17,0,0,1-3.38-5.31,18.23,18.23,0,0,1-1.24-6.83,16.39,16.39,0,0,1,1.24-6.35,16.65,16.65,0,0,1,23-8.07,12.41,12.41,0,0,1,5.11,5.22L216,76.82a8,8,0,0,0-3.2-3.43,8.86,8.86,0,0,0-4.53-1.22,7.64,7.64,0,0,0-3.43.76,7.83,7.83,0,0,0-2.65,2.12,9.89,9.89,0,0,0-1.7,3.15,12.15,12.15,0,0,0-.6,3.86,11.48,11.48,0,0,0,.64,3.91,9.53,9.53,0,0,0,1.79,3.1,8.11,8.11,0,0,0,6.26,2.78q4.42,0,8-4.09v-1h-6.35V81.28h12.6V98.35H216.6Z"/><path class="cls-1" d="M79.79,142.35V109.69h7.54v32.66Z"/><path class="cls-1" d="M113.19,119.26a4.6,4.6,0,0,0-1-.69,18.19,18.19,0,0,0-2.07-1.06,20.08,20.08,0,0,0-2.71-1,10.84,10.84,0,0,0-2.94-.41q-4,0-4,2.71a2.15,2.15,0,0,0,.44,1.38,3.85,3.85,0,0,0,1.29,1,11.82,11.82,0,0,0,2.14.81l3,.83a39.27,39.27,0,0,1,4.23,1.4,11.34,11.34,0,0,1,3.2,1.89,7.63,7.63,0,0,1,2,2.74,9.5,9.5,0,0,1,.71,3.86,9.68,9.68,0,0,1-1,4.67,8.73,8.73,0,0,1-2.74,3.08,11.55,11.55,0,0,1-3.91,1.7,19.47,19.47,0,0,1-4.55.53,25.38,25.38,0,0,1-3.68-.28,26.55,26.55,0,0,1-3.68-.8,29.23,29.23,0,0,1-3.47-1.27,19.37,19.37,0,0,1-3.1-1.7l3.31-6.58a6.45,6.45,0,0,0,1.2.87,17.85,17.85,0,0,0,2.51,1.29,25.43,25.43,0,0,0,3.34,1.15,14,14,0,0,0,3.72.51q4,0,4-2.44a2.06,2.06,0,0,0-.6-1.52,5.65,5.65,0,0,0-1.66-1.08,18,18,0,0,0-2.51-.9l-3.15-.92a27.19,27.19,0,0,1-3.91-1.5,10.31,10.31,0,0,1-2.74-1.86,6.75,6.75,0,0,1-1.61-2.44,9,9,0,0,1-.53-3.22,10.26,10.26,0,0,1,1-4.55,9.84,9.84,0,0,1,2.62-3.34,11.42,11.42,0,0,1,3.84-2,15.25,15.25,0,0,1,4.62-.69,17.58,17.58,0,0,1,3.36.32,25.4,25.4,0,0,1,3.17.83,22.87,22.87,0,0,1,2.83,1.15q1.31.65,2.42,1.29Z"/><path class="cls-1" d="M121.88,142.35V109.69h7.54v26h15.82v6.62Z"/><path class="cls-1" d="M157.67,109.69h6.81l11.91,32.66h-7.73L166.13,135H156l-2.48,7.31h-7.73Zm7.22,20.15-3.82-11.55-3.91,11.55Z"/><path class="cls-1" d="M187.16,123.67v18.68h-7.54V109.69h5.89l15.23,19.18V109.69h7.54v32.66H202.2Z"/><path class="cls-1" d="M214.53,142.35V109.69h12.19A18,18,0,0,1,233.8,111a14.25,14.25,0,0,1,8.16,8.67,19.06,19.06,0,0,1,1,6.33,18.77,18.77,0,0,1-1.15,6.74,14.49,14.49,0,0,1-3.29,5.15,14.77,14.77,0,0,1-5.15,3.31,18.32,18.32,0,0,1-6.69,1.17ZM235.32,126a12.71,12.71,0,0,0-.57-3.93,8.85,8.85,0,0,0-1.68-3.06,7.33,7.33,0,0,0-2.71-2,9.14,9.14,0,0,0-3.63-.69h-4.65v19.41h4.65a8.76,8.76,0,0,0,3.68-.74,7.44,7.44,0,0,0,2.69-2,9.34,9.34,0,0,0,1.66-3.08A12.54,12.54,0,0,0,235.32,126Z"/><path class="cls-1" d="M69.57,53.07a3.22,3.22,0,0,1-1.35,2.72,4.63,4.63,0,0,1-1.46.7,6.34,6.34,0,0,1-1.77.24H58.13V42.53h7.6a2.8,2.8,0,0,1,1.34.32,3.34,3.34,0,0,1,1,.83,3.82,3.82,0,0,1,.65,1.16,3.88,3.88,0,0,1-.29,3.26,3.17,3.17,0,0,1-1.52,1.35,3.65,3.65,0,0,1,1.93,1.29A3.73,3.73,0,0,1,69.57,53.07Zm-8.68-8.18v3.58h3.68A1.64,1.64,0,0,0,65.76,48a1.76,1.76,0,0,0,.49-1.32,1.82,1.82,0,0,0-.45-1.3,1.46,1.46,0,0,0-1.11-.48Zm5.9,7.66a2.08,2.08,0,0,0-.13-.73,2,2,0,0,0-.35-.61,1.64,1.64,0,0,0-.52-.41,1.46,1.46,0,0,0-.66-.15H60.89v3.74H65a1.8,1.8,0,0,0,.71-.14,1.7,1.7,0,0,0,.57-.39,1.9,1.9,0,0,0,.52-1.31Z"/><path class="cls-1" d="M81.59,54.31v2.42H71.73V42.53h9.68v2.42H74.49v3.42h6v2.24h-6v3.7Z"/><path class="cls-1" d="M91.91,46.25a3.41,3.41,0,0,0-.51-.38,6.18,6.18,0,0,0-.9-.47A7.86,7.86,0,0,0,89.35,45a5,5,0,0,0-1.26-.16,2.82,2.82,0,0,0-1.7.42,1.39,1.39,0,0,0-.56,1.18,1.21,1.21,0,0,0,.21.73,1.81,1.81,0,0,0,.61.51,5.08,5.08,0,0,0,1,.4q.61.18,1.41.38,1,.28,1.89.6a5.12,5.12,0,0,1,1.44.8A3.29,3.29,0,0,1,93.31,51a3.82,3.82,0,0,1,.32,1.65,4.12,4.12,0,0,1-.43,2A3.62,3.62,0,0,1,92,55.93a5.05,5.05,0,0,1-1.68.73,8.45,8.45,0,0,1-2,.23,10.69,10.69,0,0,1-3.16-.48A9.75,9.75,0,0,1,82.41,55l1.22-2.38a3.84,3.84,0,0,0,.65.47,10,10,0,0,0,1.11.58,8.65,8.65,0,0,0,1.42.49,6.42,6.42,0,0,0,1.6.2q2.28,0,2.28-1.46a1.2,1.2,0,0,0-.26-.78,2.22,2.22,0,0,0-.74-.56,7.1,7.1,0,0,0-1.16-.44L87,50.73a13,13,0,0,1-1.77-.61A4.66,4.66,0,0,1,84,49.34a2.93,2.93,0,0,1-.75-1A3.61,3.61,0,0,1,83,46.89a4.41,4.41,0,0,1,.4-1.92,3.88,3.88,0,0,1,1.11-1.4,5,5,0,0,1,1.65-.85,6.82,6.82,0,0,1,2-.29,7.84,7.84,0,0,1,2.76.47A10.32,10.32,0,0,1,93.13,44Z"/><path class="cls-1" d="M106.23,44.95h-4.54V56.73H99V44.95H94.41V42.53h11.82Z"/><path class="cls-1" d="M112.23,56.73V42.53h5.16a7.72,7.72,0,0,1,3.05.56A6.13,6.13,0,0,1,124,46.86a8.47,8.47,0,0,1,.44,2.75,8.32,8.32,0,0,1-.49,2.93,6.26,6.26,0,0,1-1.41,2.24,6.36,6.36,0,0,1-2.21,1.44,7.81,7.81,0,0,1-2.89.51Zm9.38-7.12a6,6,0,0,0-.28-1.88,4.2,4.2,0,0,0-.82-1.48,3.65,3.65,0,0,0-1.33-1,4.49,4.49,0,0,0-1.79-.34H115v9.36h2.4a4.33,4.33,0,0,0,1.81-.36,3.7,3.7,0,0,0,1.32-1,4.4,4.4,0,0,0,.81-1.49A6,6,0,0,0,121.61,49.61Z"/><path class="cls-1" d="M132.61,56.83a6.45,6.45,0,0,1-2.83-.61,7,7,0,0,1-2.18-1.62,7.51,7.51,0,0,1-1.91-5,7.13,7.13,0,0,1,.53-2.72,7.49,7.49,0,0,1,1.46-2.3A7,7,0,0,1,129.89,43a6.56,6.56,0,0,1,2.78-.59,6.24,6.24,0,0,1,2.81.63,7,7,0,0,1,2.17,1.65A7.63,7.63,0,0,1,139,47a7.31,7.31,0,0,1,.5,2.64,7.18,7.18,0,0,1-.52,2.71,7.36,7.36,0,0,1-1.44,2.28,6.93,6.93,0,0,1-2.2,1.58A6.56,6.56,0,0,1,132.61,56.83Zm-4.12-7.2a5.69,5.69,0,0,0,.28,1.78,4.75,4.75,0,0,0,.81,1.52,4,4,0,0,0,1.3,1.06,4,4,0,0,0,3.52,0,4,4,0,0,0,1.3-1.09,4.85,4.85,0,0,0,.8-1.53,5.66,5.66,0,0,0,.27-1.73,5.53,5.53,0,0,0-.29-1.78,4.91,4.91,0,0,0-.82-1.52,3.93,3.93,0,0,0-1.3-1.05,4.05,4.05,0,0,0-3.51,0,3.94,3.94,0,0,0-1.3,1.08,4.83,4.83,0,0,0-.79,1.52A5.66,5.66,0,0,0,128.49,49.63Z"/><path class="cls-1" d="M140.81,49.53a7.35,7.35,0,0,1,.47-2.57,6.89,6.89,0,0,1,3.57-3.89,6.79,6.79,0,0,1,3-.62,6.45,6.45,0,0,1,3.39.86,5.49,5.49,0,0,1,2.13,2.24L151.21,47a3.62,3.62,0,0,0-.68-1,3.42,3.42,0,0,0-.86-.65,3.86,3.86,0,0,0-1-.35,4.55,4.55,0,0,0-1-.11,3.72,3.72,0,0,0-1.81.42,4,4,0,0,0-1.28,1.09,4.83,4.83,0,0,0-.77,1.52,5.77,5.77,0,0,0-.26,1.69,5.51,5.51,0,0,0,.3,1.81,4.82,4.82,0,0,0,.85,1.53A4.24,4.24,0,0,0,146.08,54a3.61,3.61,0,0,0,1.69.4,4.44,4.44,0,0,0,1-.12,3.73,3.73,0,0,0,1.86-1.05,3.09,3.09,0,0,0,.64-1l2.26,1.3a4.27,4.27,0,0,1-1,1.41,6.24,6.24,0,0,1-1.42,1,7.24,7.24,0,0,1-1.69.64,7.4,7.4,0,0,1-1.76.22,6,6,0,0,1-2.78-.64,7.23,7.23,0,0,1-2.17-1.67,7.75,7.75,0,0,1-1.42-2.34A7.31,7.31,0,0,1,140.81,49.53Z"/><path class="cls-1" d="M161.39,54.39A3.16,3.16,0,0,0,163,54a3.22,3.22,0,0,0,1.08-1,4.29,4.29,0,0,0,.58-1.47,8.5,8.5,0,0,0,.17-1.71V42.53h2.74v7.24a10.34,10.34,0,0,1-.35,2.74,6.29,6.29,0,0,1-1.1,2.24,5.27,5.27,0,0,1-1.93,1.52,6.53,6.53,0,0,1-2.82.56,6.45,6.45,0,0,1-2.89-.59,5.39,5.39,0,0,1-1.93-1.56,6.23,6.23,0,0,1-1.07-2.25,10.58,10.58,0,0,1-.33-2.66V42.53h2.76v7.24a8.61,8.61,0,0,0,.17,1.73A4.29,4.29,0,0,0,158.7,53a3,3,0,0,0,2.69,1.42Z"/><path class="cls-1" d="M182,56.73v-9.4l-3.66,7h-1.5l-3.66-7v9.4h-2.76V42.53h3l4.2,8.08,4.24-8.08h2.94v14.2Z"/><path class="cls-1" d="M197.55,54.31v2.42h-9.86V42.53h9.68v2.42h-6.92v3.42h6v2.24h-6v3.7Z"/><path class="cls-1" d="M202.47,47.63v9.1h-2.76V42.53h2.14l7.4,9.32v-9.3H212V56.73h-2.24Z"/><path class="cls-1" d="M225.59,44.95H221V56.73h-2.74V44.95h-4.54V42.53h11.82Z"/><path class="cls-1" d="M230,42.53h2.44l5.4,14.2H235l-1.32-3.54h-5l-1.3,3.54h-2.84Zm3.18,8.72-2-5.58-2,5.58Z"/><path class="cls-1" d="M239.39,56.73V42.53h6.28a4,4,0,0,1,1.81.41A4.69,4.69,0,0,1,248.91,44a5.11,5.11,0,0,1,.94,1.52,4.57,4.57,0,0,1,.34,1.71,4.72,4.72,0,0,1-.69,2.51,4,4,0,0,1-1.87,1.63l3.24,5.34h-3.1L244.87,52h-2.72v4.76Zm2.76-7.18h3.46a1.46,1.46,0,0,0,.71-.18,1.82,1.82,0,0,0,.57-.49,2.47,2.47,0,0,0,.38-.73,2.84,2.84,0,0,0,.14-.9,2.57,2.57,0,0,0-.16-.92,2.4,2.4,0,0,0-.43-.73,1.94,1.94,0,0,0-.62-.48,1.61,1.61,0,0,0-.71-.17h-3.34Z"/><path class="cls-1" d="M253.83,42.53l3.5,6.84,3.56-6.84h3l-5.16,9.24v5H256v-5l-5.14-9.2Z"/><path class="cls-1" d="M87.32,166.46V151.55h10v2.54H90.22v3.84h5.92v2.35H90.22v6.17Z"/><path class="cls-1" d="M99.38,166.46V151.55h2.9v14.91Z"/><path class="cls-1" d="M105.38,166.46V151.55h2.9v12.37h7.6v2.54Z"/><path class="cls-1" d="M129.8,166.46v-9.87L126,163.94h-1.58l-3.84-7.35v9.87h-2.9V151.55h3.11l4.41,8.48,4.45-8.48h3.09v14.91Z"/><path class="cls-1" d="M140.85,166.46V151.55h10v2.54h-7.12v3.84h5.92v2.35h-5.92v6.17Z"/><path class="cls-1" d="M163.26,163.92v2.54H152.9V151.55h10.16v2.54H155.8v3.59h6.28V160H155.8v3.88Z"/><path class="cls-1" d="M174.09,155.46a3.59,3.59,0,0,0-.54-.4,6.51,6.51,0,0,0-.95-.49,8.23,8.23,0,0,0-1.21-.41,5.29,5.29,0,0,0-1.32-.17,3,3,0,0,0-1.79.44,1.46,1.46,0,0,0-.59,1.24,1.28,1.28,0,0,0,.22.77,1.9,1.9,0,0,0,.64.54,5.39,5.39,0,0,0,1.06.42q.64.19,1.48.4,1.09.29,2,.63a5.38,5.38,0,0,1,1.51.84,3.48,3.48,0,0,1,1,1.21,4,4,0,0,1,.34,1.73,4.31,4.31,0,0,1-.45,2,3.79,3.79,0,0,1-1.22,1.38,5.28,5.28,0,0,1-1.76.77,8.84,8.84,0,0,1-2.09.24,11.22,11.22,0,0,1-3.32-.5,10.23,10.23,0,0,1-2.94-1.43l1.28-2.5a4,4,0,0,0,.68.49,10.25,10.25,0,0,0,1.17.61,9,9,0,0,0,1.49.51,6.73,6.73,0,0,0,1.68.21q2.4,0,2.39-1.53a1.26,1.26,0,0,0-.27-.82,2.31,2.31,0,0,0-.78-.59,7.48,7.48,0,0,0-1.22-.46l-1.6-.46a13.64,13.64,0,0,1-1.86-.64,4.87,4.87,0,0,1-1.31-.82,3.06,3.06,0,0,1-.79-1.09,3.77,3.77,0,0,1-.26-1.48,4.63,4.63,0,0,1,.42-2,4.07,4.07,0,0,1,1.17-1.47,5.28,5.28,0,0,1,1.73-.89,7.17,7.17,0,0,1,2.12-.3,8.24,8.24,0,0,1,2.9.49,10.81,10.81,0,0,1,2.31,1.17Z"/><path class="cls-1" d="M189.13,154.09h-4.77v12.37h-2.88V154.09h-4.77v-2.54h12.41Z"/><path class="cls-1" d="M191,166.46V151.55h2.9v14.91Z"/><path class="cls-1" d="M198.52,151.55l4,11.28,4-11.28h3l-5.82,14.91h-2.44l-5.86-14.91Z"/><path class="cls-1" d="M214.14,151.55h2.56l5.67,14.91h-3L218,162.74H212.8l-1.37,3.72h-3Zm3.34,9.16-2.06-5.86-2.14,5.86Z"/><path class="cls-1" d="M224,166.46V151.55h2.9v12.37h7.6v2.54Z"/></g></g></svg>