<svg xmlns="http://www.w3.org/2000/svg" viewBox="0 0 62.76 35"><title>maverick-black</title><g id="Layer_2" data-name="Layer 2"><g id="Layer_1-2" data-name="Layer 1"><g id="Layer_2-2" data-name="Layer 2"><g id="Layer_1-2-2" data-name="Layer 1-2"><path d="M22,33.84l-.42-1-1.32-3.36c-.36-.91-.72-1.83-1.08-2.74,0-.08-.12-.18-.19-.19-.3,0-.6,0-.93,0L21.49,35c.3,0,.58,0,.86,0a.31.31,0,0,0,.21-.17l2.17-5.26.72-1.75c.17-.41.32-.82.5-1.27-.29,0-.54,0-.78,0a.28.28,0,0,0-.32.22c-.31.79-.63,1.57-.94,2.35l-1.66,4.2Z"/><path d="M33.05,27.41v-.87h-5.7V35H33.2v-.9H28.35V31.12h4.19v-.87h-4.2V27.41Z"/><path d="M31.07,9.77,23.2,0V20.28h4.5v-4.8a.84.84,0,0,1,.21-.58c.67-.82,1.32-1.64,2-2.46L31.06,11c.07.08.14.14.2.21l3.08,3.86a.77.77,0,0,1,.15.44c0,1.49,0,3,0,4.49v.31H39V.07l-.06,0ZM27,19.54H24.19L27,16.09Zm.77-5.6V6.82l2.86,3.56Zm6.75.08-1.05-1.3-1.66-2.06c-.23-.28-.23-.27,0-.55l2.15-2.69.56-.69Zm.77,5.53V16.17L38,19.54Z"/><path d="M41.37,30.5a3.36,3.36,0,0,0,.14-1.77,2.36,2.36,0,0,0-1.33-1.82,3.61,3.61,0,0,0-1.55-.39H35V35H36V32.31h.21l2.45,0a.31.31,0,0,1,.21.13l1.57,2.38c.05.08.14.18.22.19.32,0,.65,0,1,0l-2-2.88A2.63,2.63,0,0,0,41.37,30.5ZM40,30.85a1.93,1.93,0,0,1-1.26.5c-.9,0-1.8,0-2.7,0l-.08,0c0-.06,0-.13,0-.2V27.67c0-.2.05-.27.26-.26.86,0,1.72,0,2.57.05a1.83,1.83,0,0,1,1.76,1.36A2,2,0,0,1,40,30.85Z"/><path d="M8.51,35V26.52H7.44a.27.27,0,0,0-.18.14L5.11,30.94l-.84,1.67c-.19-.35-.36-.67-.52-1l-2.49-5c0-.05-.09-.13-.13-.13-.37,0-.75,0-1.12,0V35H.89V28a.22.22,0,0,1,.11.11l1.48,3C3,32,3.42,33,3.87,33.9c.13.26.33.14.5.17s.24-.08.31-.21q.27-.57.55-1.13l2-4,.37-.71.06,0V35Z"/><path d="M53.54,28.42l.56-.69a4.49,4.49,0,0,0-6.33.11,4.2,4.2,0,0,0,.14,5.94l.11.11a4.46,4.46,0,0,0,6.09-.2l-.58-.61a3.54,3.54,0,0,1-5.17-.25,3.34,3.34,0,0,1,.19-4.43A3.53,3.53,0,0,1,53.54,28.42Z"/><path d="M43.76,26.53V35h.94V26.53Z"/><path d="M59.15,30.2l3.35-3.68H61.43a.36.36,0,0,0-.21.12l-3,3.19-1.39,1.51-.07,0V26.53h-.94V35h.95V33a.58.58,0,0,1,.12-.34c.45-.52.92-1,1.38-1.53l.15-.11.8,1c.72.93,1.44,1.86,2.17,2.78a.43.43,0,0,0,.26.18c.34,0,.68,0,1.08,0L61,32.59Z"/><path d="M15.08,27.29c-.11-.26-.18-.61-.38-.73s-.55,0-.83,0h0c-.06,0-.15.07-.18.13q-.67,1.47-1.33,2.94l-1.72,3.84L9.92,35h.86a.24.24,0,0,0,.26-.16c.26-.6.53-1.21.78-1.81a.24.24,0,0,1,.26-.18h4.22a.24.24,0,0,1,.26.18c.25.61.52,1.21.79,1.81,0,.07.12.17.18.17.31,0,.61,0,.94,0a2.52,2.52,0,0,0-.08-.25c-.32-.72-.65-1.43-1-2.15Zm-2.77,4.63,1.88-4.33,1.91,4.33Z"/></g></g></g></g></svg>