<svg xmlns="http://www.w3.org/2000/svg" viewBox="0 0 100.23 30.51"><title>meganmeier-black</title><g id="Layer_2" data-name="Layer 2"><g id="Layer_1-2" data-name="Layer 1"><g id="Layer_2-2" data-name="Layer 2"><g id="Layer_1-2-2" data-name="Layer 1-2"><path d="M88.16,2.91c.83-.74,1.61-2,3.12-2.4.48-.22,1,0,1.58-.34s1.65.06,2.34.33c1.2.46,2.55.86,3.17,2.26.26.58.89,1,1.15,1.57a7.07,7.07,0,0,1,.68,2.38A5.88,5.88,0,0,1,100,9.11,17,17,0,0,1,97,14.83c-.59.7-1.16,1.42-1.84,2.28-.15.64.4,1.28.77,1.84a15,15,0,0,1,2.4,6.11,2.61,2.61,0,0,0,.34.63,8.74,8.74,0,0,0-5.31,1.2,10,10,0,0,1-.08-2.06,4.52,4.52,0,0,0-.3-2.08c-.32-.59-.21-1.39-.91-1.87-1.14.59-1.55,1.83-2.2,2.78A16.53,16.53,0,0,0,88.52,27c-.43,1.13-.34,2.35-1,3.51-1.08-2.18-3.13-2.63-5-3.4.65-1.14,1.36-2.2,1.88-3.35A16.16,16.16,0,0,1,86,21.44c.66-.93,1.49-1.71,2.21-2.58.37-.46.63-1,1-1.49a7,7,0,0,1,.51-.62,38.64,38.64,0,0,1-2.05-4.21A13.89,13.89,0,0,1,87,7.78,12.24,12.24,0,0,1,88.16,2.91Zm4.69,10.95a20.14,20.14,0,0,0,3.3-5.24c0-.72,0-1.51,0-2.3a2.15,2.15,0,0,0-.87-1.84,5.4,5.4,0,0,0-1.53-.87A2.29,2.29,0,0,0,91.1,5.36a14.07,14.07,0,0,0,.63,5.4C92.06,11.74,92.43,12.73,92.84,13.86Z"/><path d="M1,5c.37-.37.67-1,1.55-.71-.3,1.67.69,3,1,4.57a15.76,15.76,0,0,0,.69,2C5.5,8.06,7.41,5.77,9,3.12l1.14.49c0,1.37,0,2.63,0,3.89s.21,2.53.3,3.8-.23,2.47.46,3.76l-.74.34.16.15H9.66c-.05-.07-.16-.15-.16-.23.13-3.16-.56-6.3-.33-9.47,0-.2,0-.4,0-.9a31.8,31.8,0,0,0-4.9,7.82L3.4,12.5,2.14,7.26c-.56,1.08,0,2.14-.47,3.16s-.1,2.08-.33,3.15A16.6,16.6,0,0,0,1.3,17l-.83.71L0,17.27c.19-.86-.31-1.89.32-2.85.09-.15,0-.41,0-.62.09-.64-.14-1.28.28-1.94.31-.51-.06-1.25.31-1.91.24-.44,0-1.13.06-1.7a3.56,3.56,0,0,1,.2-1.33C1.4,6.45,1.12,5.77,1,5Z"/><path d="M52.78,5.24c.56-.56.8-1.24,1.72-1,0,2,.89,3.81,1.55,5.7a6.86,6.86,0,0,1,.18.94c.49-1,.89-1.84,1.39-2.68a14,14,0,0,1,1.71-2.56c.73-.74.75-1.93,1.83-2.47l.94.38V5c.1,2.89.19,5.78.33,8.67a7.18,7.18,0,0,0,.38,1.42l-1.34.65c0-1.11,0-2,0-2.85-.12-2.56-.28-5.13-.41-7.81a34,34,0,0,0-4.81,7.7l-.86-.32L54.23,7.69H54a7,7,0,0,0-.08,1,7.12,7.12,0,0,1-.3,2.39c-.21.71.13,1.48-.28,2.25-.26.49,0,1.23-.06,1.86,0,.32-.22.63-.21.94a2.7,2.7,0,0,0,.31.83l-.92.81c-.12-.14-.42-.33-.4-.5.06-.8-.28-1.65.24-2.41a.64.64,0,0,0,.05-.29c.11-1.27.19-2.54.32-3.8.06-.59.19-1.17.31-1.76s-.09-1.15.25-1.79A1.62,1.62,0,0,0,52.78,5.24Z"/><path d="M18.47,16.12a1.41,1.41,0,0,1-1-1.09s.13-.08.13-.16c0-1.39.79-2.5,1.36-3.68a9.88,9.88,0,0,1,2.19-3c1.14-1.06,1.94-1.08,3.13-.06.12.1.22.22.36.36,0,2.33.11,4.69,0,7a10.86,10.86,0,0,1-3.71,7.72,2.93,2.93,0,0,1-2.43.5L18,23.25a5.28,5.28,0,0,1,.15-.71,5.43,5.43,0,0,1,.34-.67l.65.62H20c.11-.11.21-.28.34-.33C22,21.4,22.55,19.89,23,18.39a17,17,0,0,0,.64-6.17,5.74,5.74,0,0,0-.43-1.37C22,12.93,20.92,15.18,18.47,16.12Zm0-1c2.58-1.5,3.3-3.95,4.68-6.28l-1.67.39a13.53,13.53,0,0,0-3,5.88Z"/><path d="M31.72,6.39l-.39.79c1.07,1.64,1.31,3.66,2.06,5.49a4.49,4.49,0,0,1-.05,2.41,2.37,2.37,0,0,1-1.21-1.41,26,26,0,0,1-1-3.79c-.53.3-.63.85-.86,1.28a36.33,36.33,0,0,1-2.09,3.57c-.45.67-1.36.69-1.47,1.72l-1.09-.94-.28-1a9.58,9.58,0,0,1,.53-2.16c.94-1.87,1.81-3.81,3.52-5.16a3.93,3.93,0,0,1,1-.65A5,5,0,0,1,31.72,6.39ZM30.19,8.06c-1,.93-2.06,1.69-2.57,3s-1.39,2.34-1,3.89a14.63,14.63,0,0,0,3.58-6.93Z"/><path d="M34,16.27c.12-2.63-.28-5.11.45-7.7l1-.37c-.11,1.48-.66,2.78-.43,4.48.74-2.44,1.75-4.29,4.14-5a3.39,3.39,0,0,1,2.85,2.78,5.75,5.75,0,0,1,.17.86c0,.94,0,1.89,0,2.73l-.44.85H41c.11-.83-.2-1.67.23-2.29C41.12,12,41,11.44,41,10.9a1.8,1.8,0,0,0-.89-1.63,1.91,1.91,0,0,0-2.33.21,4.72,4.72,0,0,0-1.49,2.69c-.34,1.11-.83,2.18-1.25,3.26A1.21,1.21,0,0,1,34,16.27Z"/><path d="M13.62,15.11l.41.41,1.51-.36-.87,1.3-1,.41a3.89,3.89,0,0,1-.42-.23c-.45-.32-.53-.81-.73-1.27s-.34-.8.05-1.22c.11-.12,0-.4,0-.6a4.94,4.94,0,0,1,0-.94,2.94,2.94,0,0,1,.44-.73c-.32-.05-.5-.09-.69-.1s-.41,0-.66,0v-.89l1.73-.51c.65-1,1-2.45,2.19-3.33h.9C18,8.43,18,8.43,18,10.08c-1,1-2.47.55-3.68,1.16A6.07,6.07,0,0,0,13.62,15.11Z"/><path d="M64.53,11.95l-1,.58-.56-.76c.24-.23.43-.56.67-.61.43-.1,1,.1,1.29-.48a5.54,5.54,0,0,1,1.08-3h1.67l2,1.29v1.11L66,11.4c-.11,2.1,0,2.5,1.21,3.61l1.49-.68.11.78-1.61,1.17L65.4,15Z"/><path d="M76.12,7.69h1.45l1.9,1.73a1.46,1.46,0,0,1-1.39,1.06,13.94,13.94,0,0,0-2.4.71c-.39.1-.66.66-1,1,0,.95-.19,1.88.49,2.75,1.38,0,2-1.5,3.24-1.84v.78a12.89,12.89,0,0,1-1.55,1.51,9.16,9.16,0,0,1-1.77.77l-1.34-1c-.09-.65.19-1.26-.31-1.68C73.92,11.39,74.34,9.29,76.12,7.69Z"/><path d="M80.62,15.84h-.81V8.55L80.7,9V12c.66-1.61,2.11-2.41,3.3-3.43.69.13,1.29-.67,2.18-.08a1.94,1.94,0,0,1-.56.33c-1.94.36-2.83,1.88-3.73,3.4a7.47,7.47,0,0,0-.9,2.47A8.5,8.5,0,0,1,80.62,15.84Z"/><path d="M71.82,15.77l-.45.45-.76-1.09c.08-2.25-.24-4.83.45-7.48l.76.36Z"/><path d="M84.47,21.83l-.81,0L82,20v1.83h-.9V18.78l.74-.09,1.7,1.88V18.77c.95,0,1,0,1,.56C84.47,20.12,84.47,20.91,84.47,21.83Z"/><path d="M45.46,18.73h1l1.48,1.76V18.75h.91v3.17a2.56,2.56,0,0,1-.65-.32c-.56-.54-1.08-1.11-1.78-1.85V22l-.92-.44Z"/><path d="M52.07,18.69c1.06.09,2.09-.21,3.08.45l.44,1.58-1.46,1.11H52.07Zm2.42,2.18.05-1c-.44-.68-1-.53-1.5-.44v1.94Z"/><path d="M33.33,21.84l-1.24-1.15.41-1.51a3.25,3.25,0,0,1,2.32-.46L36,19.8v.88A2.5,2.5,0,0,1,33.33,21.84Zm1.77-1.48-.42-1c-.61,0-1.16-.17-1.53.49v1l1,.47Z"/><path d="M76.53,21.86c-1.31,0-1.31,0-2.52-1.16l.38-1.56a3,3,0,0,1,3.13,0l.43,1.51ZM76,21.24l.92-.46c0-.51.17-1-.44-1.42h-.83c-.81.35-.56.92-.56,1.41Z"/><path d="M60.21,18.74l1.53,3c-.59.37-.93-.06-1.32-.47H59.05l-.21.59-.91,0c.28-1,1-1.71,1.08-2.66C59.07,18.74,59.6,18.62,60.21,18.74Z"/><path d="M41.69,18.73h.53v2.38l-.74.71a2.36,2.36,0,0,1-2.34-.77v-2.3H40v1.85l.6.73,1.08-.91Z"/><path d="M29.38,20.28l-1.58.46-.06,1.06h-.82s0,0,0,0v-3h2.43c-.26.87-1.06.42-1.52.64l0,.5,1.59.12Z"/><path d="M67.11,18.76v.53H65.93v2.51H65V19.39H63.77l-.1-.63Z"/><path d="M70.86,21.83H70V18.74h.83Z"/></g></g></g></g></svg>