<svg xmlns="http://www.w3.org/2000/svg" viewBox="0 0 105.06 68"><defs><style>.cls-1{fill:#ef5035;}</style></defs><title>mexico-laurel-red</title><g id="Layer_2" data-name="Layer 2"><g id="Layer_1-2" data-name="Layer 1"><g id="Layer_2-2" data-name="Layer 2"><g id="Layer_1-2-2" data-name="Layer 1-2"><path class="cls-1" d="M80.85,4.5A4.3,4.3,0,0,1,80,.11a3.11,3.11,0,0,1,2.61,3.23c-.13,1.91.94,2.52,2.37,3,.07,0,.17,0,.26,0-.51-2.59-.48-2.88.39-4.23A3.37,3.37,0,0,1,87.49,6c-.37,1.61.33,2.41,1.57,3.06.16.09.31.22.65.45a4.88,4.88,0,0,1,.78-4.39c1.81.89,2,2.24,1,5.93.23.25.5.52.74.82a4.94,4.94,0,0,0,1,1.09c.33-1.63.58-3.11,2.1-4.16.93,1.38,1.37,2.91.54,4.21-1.1,1.73-.48,2.94.52,4.25l.18.15a4.82,4.82,0,0,1,2.53-3.92A3.62,3.62,0,0,1,99.42,17a6.29,6.29,0,0,1-1.17,2A1.31,1.31,0,0,0,98,20.49c.27.61.52,1.22.89,2.08a4.7,4.7,0,0,1,3-3.75,3.35,3.35,0,0,1-.91,4.52c-1.5,1.18-1.47,2.37-.77,4a5.37,5.37,0,0,1,3.81-2.77,3.48,3.48,0,0,1-.89,3.6,5.34,5.34,0,0,1-1.57,1.24,1.54,1.54,0,0,0-1,2.09,9.08,9.08,0,0,1,.18,1,5.52,5.52,0,0,1,4.2-1.94,4.13,4.13,0,0,1,0,1.06,4.58,4.58,0,0,1-3.16,3.29c-1,.3-1.46.77-1.41,1.8a7.83,7.83,0,0,1-.23,1.4A5.05,5.05,0,0,1,105,36.54a3.37,3.37,0,0,1-1.7,2.91,8.67,8.67,0,0,1-2.11.89c-1.69.48-1.7.45-1.89,2.29,2.94-.82,3.08-.83,4.84-.14a4.93,4.93,0,0,1-2.66,2.61,3.64,3.64,0,0,1-1.67.37c-1.77-.24-2.5.74-2.88,2.24C99.22,47,100,47,102,48.1a4.24,4.24,0,0,1-3.36,2.29,7.23,7.23,0,0,1-2,0C95,50.23,94.8,50.31,94,52a6.31,6.31,0,0,1,4.93,1.31c-2.19,2.5-4.66,1.88-7.23.89L90,55.77a21.5,21.5,0,0,1,2.72.63,3.65,3.65,0,0,1,2.15,1.69c-1.7,1.45-3.52,1.35-5.41.62a5.67,5.67,0,0,1-.65-.3c-1.42-.77-1.42-.77-2.86.49A7.25,7.25,0,0,1,90.36,62a4.58,4.58,0,0,1-3.86.55,5.94,5.94,0,0,1-2.14-1.14c-1.07-1.09-2.06-1-3.29-.13a6.44,6.44,0,0,1,3.81,3.6c-2.18,1.27-4.25.44-7-2.78a22.75,22.75,0,0,0-12,5.88l-1-1a8.81,8.81,0,0,1,3.69-2.89,56.39,56.39,0,0,1,6.82-2.7,2.1,2.1,0,0,0,1.77-2,5.06,5.06,0,0,1,2.77-4.28,5.56,5.56,0,0,1,.77-.28c.94,1.49.65,3.08-.87,5.44,1.93-.37,2-.41,1.92-2.25a5.35,5.35,0,0,1,2-4.83,2.61,2.61,0,0,1,.48-.3.75.75,0,0,1,.28,0c1,1.69,1,3-.13,5.56.35-.21.59-.33.81-.48,1.22-.77,1.23-.78.85-2.16a5.14,5.14,0,0,1,.68-4.58A11.85,11.85,0,0,1,87.74,50a5.56,5.56,0,0,1,1,4.9c1.41-.37,1.63-.74,1.1-2-.74-1.82-1-3.61.14-5.37.13-.2.3-.36.56-.68a5.6,5.6,0,0,1,1.85,4.65c1.43-.86,1.55-1.23.74-2.45a5.07,5.07,0,0,1-.74-5.16,7.34,7.34,0,0,1,.5-.78A5.93,5.93,0,0,1,95.34,48l1.29-2.18c-1.8-1.83-3.47-3.64-2.23-6.62a5.31,5.31,0,0,1,3.27,4.33l.3-.82c.57-1.51.57-1.51-.7-2.6-1.11-1-2.12-2-2.13-3.6a12.13,12.13,0,0,1,.14-1.36c1.86.43,2.64,1.12,3.92,3.32.07-.33.14-.59.2-.86.33-1.48.33-1.49-1.05-2.18a4.86,4.86,0,0,1-3-3.8,1.63,1.63,0,0,1,0-.43,2,2,0,0,1,.22-.42,5.69,5.69,0,0,1,4.27,2.71v-.83c0-1.74,0-1.73-1.61-2.31a4.52,4.52,0,0,1-3.43-3.88,4.64,4.64,0,0,1,4.7,2.17c-.08-.6-.11-.89-.15-1.17s-.11-.65-.18-1a1.1,1.1,0,0,0-1.06-1,12.2,12.2,0,0,1-2-.4,3.53,3.53,0,0,1-2.53-2.66c1.17-.7,1.86-.63,4.51.52-.15-.53-.27-1-.41-1.42a1.17,1.17,0,0,0-1.31-.88,11.61,11.61,0,0,1-1.59,0,4.36,4.36,0,0,1-3.5-2.33,4.48,4.48,0,0,1,5.18.5l-1.71-3c-2.29.86-4.43,1.23-6.18-1.09a4.56,4.56,0,0,1,5-.51l-2.06-2.39c-3.22,1.48-4.7,1.45-6.28-.13a5.43,5.43,0,0,1,4.32-1.53l-2-1.7c-1.89,1.23-3.73,2.66-6,1,1-1.56,2-2,4.3-2.06-.36-.25-.61-.45-.9-.62-1.66-1-1.66-1-3.14.33a3.56,3.56,0,0,1-4.32.65,4.3,4.3,0,0,1,4-2.57l-.65-.76Z"/><path class="cls-1" d="M24.3,4.5l-.65.76a4.38,4.38,0,0,1,4.08,2.63,3.21,3.21,0,0,1-2.88.19,5.39,5.39,0,0,1-1.25-.71C23,7,22.43,6.11,21.93,6.17a6.85,6.85,0,0,0-2.51,1.24,4.71,4.71,0,0,1,4.16,1.91c-1.25,1.48-2.39,1.36-6-.71l-2,1.58a5.76,5.76,0,0,1,4.32,1.57c-1.37,1.59-3.18,1.63-6.25.13l-2.09,2.39a4.49,4.49,0,0,1,4.9.43c-1,1.93-2.63,2.27-6,1.22L8.67,18.86a4.46,4.46,0,0,1,5.16-.51,4.28,4.28,0,0,1-3.3,2.33,6.72,6.72,0,0,1-.86,0c-2.07,0-2.15.08-2.52,2.33,1.4-.82,2.78-1.38,4.49-.73A3.55,3.55,0,0,1,9.2,25.07a6.39,6.39,0,0,1-1.82.39A1.39,1.39,0,0,0,5.91,26.9c-.06.47-.16.94-.3,1.69a5.23,5.23,0,0,1,4.67-2.15,3.82,3.82,0,0,1-2,3.36,4.15,4.15,0,0,1-.91.43c-2.15.82-2.15.82-2,3.27a20.43,20.43,0,0,1,1.88-1.85,4,4,0,0,1,2.52-.8A4.24,4.24,0,0,1,8.42,34.4a9.93,9.93,0,0,1-1.68,1.1c-1.22.65-1.25.65-1,2,.07.33.15.65.22,1a14.66,14.66,0,0,1,1.52-2A16.79,16.79,0,0,1,9.72,34.9a3.68,3.68,0,0,1-.48,3.86,9,9,0,0,1-1.53,1.52c-1.07.91-1.09.9-.62,2.14.11.3.24.6.42,1.08a5.29,5.29,0,0,1,3.09-4.23c1.4,2.29.45,4-2,6.58L9.77,48a6.33,6.33,0,0,1,2.36-4.82A3.76,3.76,0,0,1,13,46.94a6.45,6.45,0,0,1-.91,1.94c-.81,1.31-.82,1.42.26,2.57.13.13.28.25.59.52a5.35,5.35,0,0,1,1.63-5.2,4.84,4.84,0,0,1,1.31,3.92,11.83,11.83,0,0,1-.57,2.08c-.52,1.43-.5,1.5,1.09,2.29a5.59,5.59,0,0,1,.89-4.9,4.57,4.57,0,0,1,2,5.18c-.4,1.88-.4,1.88,1.67,3.1a5.25,5.25,0,0,1-.24-5.78,5.17,5.17,0,0,1,2.71,3.76,12,12,0,0,1,0,1.44c0,1.87,0,1.87,2.06,2.51-1.24-1.76-1.91-3.5-1.15-5.64a5,5,0,0,1,3.37,3,1.75,1.75,0,0,1,.2.69c-.06,2.13,1.19,2.86,3.09,3.33a21.66,21.66,0,0,1,7.52,3.52c.61.44,1.16,1,1.89,1.58L39.41,68a22.66,22.66,0,0,0-12.09-5.85c-3,3.24-4.79,4-7.08,2.77A6.4,6.4,0,0,1,24,61.38c-1.44-1.11-1.56-1.09-3,0-1.63,1.18-3.35,1.91-5.38,1.07a7.31,7.31,0,0,1-.71-.4A6.36,6.36,0,0,1,19.07,59c-1.13-1.34-1.31-1.35-2.69-.62-2,1.09-4.07,1.34-6.06-.16.75-1.47,2.58-2.34,4.93-2.47a12.36,12.36,0,0,1-1.22-1,1.16,1.16,0,0,0-1.41-.27A10.31,10.31,0,0,1,10,55c-1.58.09-2.4-.33-3.75-1.71a5.7,5.7,0,0,1,4.83-1.25c-.5-1.58-.95-1.88-2.29-1.7a5.68,5.68,0,0,1-4.52-.95A14.29,14.29,0,0,1,3,48.18a4.79,4.79,0,0,1,5.34-.26c-.26-.59-.45-.94-.59-1.31A1.57,1.57,0,0,0,6,45.52a5,5,0,0,1-4.63-2.38,3.85,3.85,0,0,1-.28-.69c1.68-.84,3.22-.36,4.75.28-.06-1.87-.07-1.87-1.79-2.38C2.66,39.94,1.27,39.49.58,38c-.2-.42-.33-.87-.54-1.45A5.06,5.06,0,0,1,4.9,38c-.12-.82-.22-1.47-.3-2.12s-.74-.81-1.26-1a4.71,4.71,0,0,1-3-2.84A8.21,8.21,0,0,1,0,30.73c1.67-.24,2.73.21,4.25,1.76.09-.41.14-.75.24-1.09a1.48,1.48,0,0,0-.92-2A4.62,4.62,0,0,1,1,26.31a10.08,10.08,0,0,1-.1-1.68c1.78.21,2.61.78,4,2.82A15.51,15.51,0,0,0,5.42,25c0-.33-.39-.72-.69-1a4.76,4.76,0,0,1-1.94-3.09,14.9,14.9,0,0,1,.12-2.11c2,.68,2.61,1.38,3.4,3.63a9.18,9.18,0,0,1,.49-1.11,2.25,2.25,0,0,0-.29-3,4.19,4.19,0,0,1-.47-5,5,5,0,0,1,2.5,4.2L9.9,15.49c.41-.62,0-1.11-.3-1.59a4.65,4.65,0,0,1-.25-4.29,3.85,3.85,0,0,1,.47-.67c1.31.9,1.69,1.66,1.92,4.15a24.4,24.4,0,0,0,1.74-1.79c.15-.19.07-.61,0-.92-.13-.71-.38-1.4-.46-2.1a3.33,3.33,0,0,1,1.51-3.2c1.14,1.24,1.31,2.67.79,4.58a25.78,25.78,0,0,0,2.09-1.6,1.5,1.5,0,0,0,.33-1c0-.57-.13-1.14-.13-1.72,0-1.6.43-2.29,2-3.27,1,1.34.76,2.77.19,4.44.62-.27,1-.49,1.46-.64a1.71,1.71,0,0,0,1.26-2A3.8,3.8,0,0,1,25,0c1,1.76.27,3.16-.72,4.51Z"/><path class="cls-1" d="M40.59,31.76V27.87l-1.41,2.84h-.8L37,27.89v3.89h-1.5V25.27H37.1l1.68,3.4,1.69-3.4h1.63v6.5Z"/><path class="cls-1" d="M47.9,30.45v1.31H43.32V25.27h4.48v1.31h-3v1.26h2.57v1.22H44.83v1.38Z"/><path class="cls-1" d="M49.76,25.27l1.42,2.24,1.42-2.24h1.63L52,28.56l2.18,3.2H52.51l-1.35-2.15-1.35,2.15H48.19l2.18-3.2-2.25-3.29Z"/><path class="cls-1" d="M54.77,31.76v-6.5h1.5v6.5Z"/><path class="cls-1" d="M57.14,28.46a3.27,3.27,0,0,1,.22-1.17,3.18,3.18,0,0,1,.65-1,3.27,3.27,0,0,1,1-.74,3.19,3.19,0,0,1,1.37-.28,3.09,3.09,0,0,1,1.59.39,2.55,2.55,0,0,1,1,1l-1.17.8a1.35,1.35,0,0,0-.28-.42,1.53,1.53,0,0,0-.37-.27,1.51,1.51,0,0,0-.41-.15,2.14,2.14,0,0,0-.41,0,1.55,1.55,0,0,0-.75.17,1.65,1.65,0,0,0-.53.45,1.86,1.86,0,0,0-.33.62,2.51,2.51,0,0,0-.1.71,2.33,2.33,0,0,0,.12.74,2,2,0,0,0,.34.63,1.66,1.66,0,0,0,.54.43,1.54,1.54,0,0,0,.71.16,1.82,1.82,0,0,0,.42,0,1.68,1.68,0,0,0,.41-.16,1.47,1.47,0,0,0,.36-.27,1.28,1.28,0,0,0,.26-.42L63,30.3a1.91,1.91,0,0,1-.43.65,2.68,2.68,0,0,1-.65.48,3.64,3.64,0,0,1-1.63.39A2.91,2.91,0,0,1,59,31.54a3.27,3.27,0,0,1-1-.76,3.5,3.5,0,0,1-.65-1.08A3.38,3.38,0,0,1,57.14,28.46Z"/><path class="cls-1" d="M66.6,31.82a3,3,0,0,1-1.31-.28,3.25,3.25,0,0,1-1-.75,3.39,3.39,0,0,1-.65-1.06,3.33,3.33,0,0,1-.23-1.23,3.35,3.35,0,0,1,1.94-3,3.11,3.11,0,0,1,1.31-.27,3,3,0,0,1,1.31.28,3.22,3.22,0,0,1,1,.75,3.38,3.38,0,0,1,.65,1.06,3.34,3.34,0,0,1,.23,1.21,3.25,3.25,0,0,1-.24,1.24,3.29,3.29,0,0,1-1.7,1.77A3.06,3.06,0,0,1,66.6,31.82ZM64.9,28.53a2.44,2.44,0,0,0,.11.73,2,2,0,0,0,.33.63,1.6,1.6,0,0,0,.54.44,1.58,1.58,0,0,0,.73.16,1.55,1.55,0,0,0,.75-.17,1.63,1.63,0,0,0,.53-.45,2,2,0,0,0,.33-.63,2.5,2.5,0,0,0,.1-.72,2.44,2.44,0,0,0-.11-.73,1.84,1.84,0,0,0-.33-.62,1.63,1.63,0,0,0-.55-.43,1.59,1.59,0,0,0-.73-.16,1.56,1.56,0,0,0-.75.17,1.67,1.67,0,0,0-.53.44,1.88,1.88,0,0,0-.33.63A2.49,2.49,0,0,0,64.9,28.53Z"/><path class="cls-1" d="M16.58,41.9V35.4h1.5v6.5Z"/><path class="cls-1" d="M20.83,38.18V41.9h-1.5V35.4H20.5l3,3.81V35.4H25v6.5H23.82Z"/><path class="cls-1" d="M31.23,36.72h-2V41.9H27.75V36.72h-2V35.41h5.47Z"/><path class="cls-1" d="M36.53,40.58v1.31H32V35.4h4.49v1.31h-3V38H36v1.22H33.46v1.38Z"/><path class="cls-1" d="M37.44,41.9V35.4h2.94a1.89,1.89,0,0,1,.85.19,2.25,2.25,0,0,1,.67.5,2.36,2.36,0,0,1,.44.71,2.1,2.1,0,0,1,.14.78,2.26,2.26,0,0,1-.28,1.11,2,2,0,0,1-.78.78l1.43,2.42H41.16l-1.25-2.1h-1v2.1Zm1.5-3.41h1.37a.56.56,0,0,0,.46-.25,1,1,0,0,0,.19-.65.91.91,0,0,0-.22-.65.65.65,0,0,0-.48-.24H38.94Z"/><path class="cls-1" d="M45.07,38.18V41.9h-1.5V35.4h1.17l3,3.81V35.4h1.5v6.5H48.06Z"/><path class="cls-1" d="M52.3,35.4h1.35L56,41.9H54.48L54,40.44H52l-.49,1.45H49.93Zm1.44,4L53,37.12l-.78,2.29Z"/><path class="cls-1" d="M61,36.72H59V41.9H57.5V36.72h-2V35.41H61Z"/><path class="cls-1" d="M61.69,41.9V35.4h1.5v6.5Z"/><path class="cls-1" d="M67.29,42A3,3,0,0,1,66,41.67a3.25,3.25,0,0,1-1-.75,3.4,3.4,0,0,1-.65-1.06,3.33,3.33,0,0,1-.23-1.23,3.34,3.34,0,0,1,1.95-3,3.11,3.11,0,0,1,1.31-.27,3,3,0,0,1,1.31.28,3.21,3.21,0,0,1,1,.75,3.39,3.39,0,0,1,.65,1.06,3.35,3.35,0,0,1,.23,1.21,3.25,3.25,0,0,1-.24,1.24,3.29,3.29,0,0,1-1.7,1.77A3.06,3.06,0,0,1,67.29,42Zm-1.69-3.29a2.42,2.42,0,0,0,.11.73A1.94,1.94,0,0,0,66,40a1.6,1.6,0,0,0,.54.44,1.58,1.58,0,0,0,.73.16,1.55,1.55,0,0,0,.75-.17,1.63,1.63,0,0,0,.53-.45,2,2,0,0,0,.33-.63,2.5,2.5,0,0,0,.1-.72,2.45,2.45,0,0,0-.11-.73,1.85,1.85,0,0,0-.33-.62,1.63,1.63,0,0,0-.54-.43,1.59,1.59,0,0,0-.73-.16,1.56,1.56,0,0,0-.75.17,1.67,1.67,0,0,0-.53.44,1.88,1.88,0,0,0-.33.63,2.49,2.49,0,0,0-.11.72Z"/><path class="cls-1" d="M72.89,38.18V41.9h-1.5V35.4h1.17l3,3.81V35.4h1.5v6.5H75.89Z"/><path class="cls-1" d="M80.11,35.4h1.35l2.37,6.5H82.3l-.5-1.45h-2l-.49,1.45H77.74Zm1.44,4-.76-2.29L80,39.41Z"/><path class="cls-1" d="M84.47,41.9V35.4H86v5.18h3.15v1.31Z"/><path class="cls-1" d="M22.92,21a1.77,1.77,0,0,1-1.31.56,2,2,0,0,1-.86-.18,2.17,2.17,0,0,1-.7-.5,2.4,2.4,0,0,1-.44-.76,2.51,2.51,0,0,1-.17-.94,2.36,2.36,0,0,1,.65-1.63,2.29,2.29,0,0,1,.7-.51,2.15,2.15,0,0,1,.9-.19,2.18,2.18,0,0,1,1.12.27,1.77,1.77,0,0,1,.7.74l-.67.48a1.25,1.25,0,0,0-.49-.53,1.36,1.36,0,0,0-.69-.18,1.18,1.18,0,0,0-.54.12,1.26,1.26,0,0,0-.42.33,1.6,1.6,0,0,0-.27.5,1.85,1.85,0,0,0-.09.59,1.75,1.75,0,0,0,.1.61,1.55,1.55,0,0,0,.29.52,1.34,1.34,0,0,0,.43.33,1.24,1.24,0,0,0,.55.12,1.58,1.58,0,0,0,1.22-.63v-.33H22v-.65h1.68v2.39h-.75Z"/><path class="cls-1" d="M24.44,21.47V16.83h2.05a1.31,1.31,0,0,1,.59.13,1.53,1.53,0,0,1,.47.35,1.67,1.67,0,0,1,.31.5,1.49,1.49,0,0,1,.11.56,1.54,1.54,0,0,1-.23.82,1.31,1.31,0,0,1-.61.54l1.06,1.75h-1l-.94-1.55h-.89v1.56Zm.9-2.35h1.13a.48.48,0,0,0,.23-.06.59.59,0,0,0,.19-.16.81.81,0,0,0,.12-.24.93.93,0,0,0,0-.29.84.84,0,0,0-.05-.3.78.78,0,0,0-.14-.24.63.63,0,0,0-.2-.16.53.53,0,0,0-.23-.06H25.34Z"/><path class="cls-1" d="M30,16.83h.8l1.77,4.64h-.93l-.43-1.16H29.6l-.42,1.16h-.92Zm1,2.85-.65-1.82-.65,1.82Z"/><path class="cls-1" d="M34,18.5v3h-.9V16.83h.7l2.42,3v-3h.9v4.63H36.4Z"/><path class="cls-1" d="M38.1,21.47V16.83h1.69a2.52,2.52,0,0,1,1,.18,2,2,0,0,1,1.15,1.23,2.77,2.77,0,0,1,.14.9,2.72,2.72,0,0,1-.16,1,2,2,0,0,1-.46.73,2.08,2.08,0,0,1-.72.47,2.55,2.55,0,0,1-.94.17Zm3.07-2.33a2,2,0,0,0-.09-.61A1.37,1.37,0,0,0,40.8,18a1.19,1.19,0,0,0-.43-.33,1.47,1.47,0,0,0-.59-.11H39v3.06h.78a1.42,1.42,0,0,0,.59-.12,1.21,1.21,0,0,0,.43-.33,1.44,1.44,0,0,0,.26-.49A2,2,0,0,0,41.16,19.15Z"/><path class="cls-1" d="M43.93,20.53a1.37,1.37,0,0,0,.31.14,1.45,1.45,0,0,0,.5.08.87.87,0,0,0,.44-.09.6.6,0,0,0,.25-.29,1.6,1.6,0,0,0,.11-.49q0-.29,0-.68V16.83h.9v2.36a7.65,7.65,0,0,1-.06,1,2,2,0,0,1-.24.74,1.22,1.22,0,0,1-.52.48,2.07,2.07,0,0,1-.92.17,1.73,1.73,0,0,1-1-.29Z"/><path class="cls-1" d="M49.36,20.71a1,1,0,0,0,.54-.13,1.05,1.05,0,0,0,.35-.33,1.4,1.4,0,0,0,.19-.48,2.78,2.78,0,0,0,.06-.56V16.83h.9V19.2a3.38,3.38,0,0,1-.11.9,2.06,2.06,0,0,1-.36.73,1.72,1.72,0,0,1-.63.5,2.13,2.13,0,0,1-.92.18,2.11,2.11,0,0,1-.94-.19,1.76,1.76,0,0,1-.63-.51,2,2,0,0,1-.35-.74,3.46,3.46,0,0,1-.11-.87V16.83h.9V19.2a2.81,2.81,0,0,0,.06.57,1.4,1.4,0,0,0,.19.48A1,1,0,0,0,49.36,20.71Z"/><path class="cls-1" d="M52.3,21.47V16.83h2.05a1.31,1.31,0,0,1,.59.13,1.53,1.53,0,0,1,.45.35,1.67,1.67,0,0,1,.31.5,1.49,1.49,0,0,1,.11.56,1.54,1.54,0,0,1-.23.82,1.31,1.31,0,0,1-.61.53L56,21.47H55l-.95-1.54h-.89v1.56Zm.9-2.35h1.13a.48.48,0,0,0,.23-.06.59.59,0,0,0,.19-.16.81.81,0,0,0,.12-.24.93.93,0,0,0,0-.29.84.84,0,0,0-.05-.3.78.78,0,0,0-.14-.24.63.63,0,0,0-.2-.16.53.53,0,0,0-.23-.06H53.2Z"/><path class="cls-1" d="M57,16.83l1.14,2.24,1.16-2.24h1l-1.69,3v1.63h-.9V19.85l-1.68-3Z"/><path class="cls-1" d="M63.26,16.83h.81l1.77,4.64H64.9l-.43-1.16H62.84l-.41,1.16H61.5Zm1,2.85-.65-1.82L63,19.68Z"/><path class="cls-1" d="M67.53,16.85h.83l.52,1.54.52-1.54h.84l-.79,2.1L70,20.43l1.31-3.6h1l-1.89,4.64h-.76l-.8-2-.8,2h-.74l-1.88-4.64h1l1.31,3.6.57-1.48Z"/><path class="cls-1" d="M73.74,16.83h.79l1.77,4.64h-.93l-.43-1.16H73.3l-.41,1.16H72Zm1,2.85-.65-1.82-.65,1.82Z"/><path class="cls-1" d="M76.81,21.47V16.83h2.05a1.31,1.31,0,0,1,.59.13,1.53,1.53,0,0,1,.46.35,1.67,1.67,0,0,1,.31.5,1.49,1.49,0,0,1,.11.56,1.54,1.54,0,0,1-.23.82,1.31,1.31,0,0,1-.61.53l1.06,1.75h-1l-.95-1.54h-.89v1.56Zm.9-2.35h1.13a.48.48,0,0,0,.23-.06.59.59,0,0,0,.19-.16.81.81,0,0,0,.12-.24.93.93,0,0,0,0-.29.84.84,0,0,0-.05-.3.78.78,0,0,0-.14-.24.63.63,0,0,0-.2-.16.53.53,0,0,0-.23-.06H77.71Z"/><path class="cls-1" d="M81.16,21.47V16.83h1.69a2.52,2.52,0,0,1,1,.18A2,2,0,0,1,85,18.25a2.77,2.77,0,0,1,.14.9,2.72,2.72,0,0,1-.16,1,2,2,0,0,1-.46.73,2.08,2.08,0,0,1-.72.47,2.55,2.55,0,0,1-.94.17Zm3.07-2.33a2,2,0,0,0-.09-.61,1.37,1.37,0,0,0-.27-.48,1.19,1.19,0,0,0-.43-.33,1.47,1.47,0,0,0-.59-.11h-.78v3.06h.78a1.42,1.42,0,0,0,.59-.12,1.21,1.21,0,0,0,.43-.33,1.44,1.44,0,0,0,.26-.49,2,2,0,0,0,.09-.59Z"/><path class="cls-1" d="M28.54,51.13V46.26h3.27v.83H29.49v1.26h1.94v.77H29.49v2Z"/><path class="cls-1" d="M32.48,51.13V46.26h.95v4.87Z"/><path class="cls-1" d="M34.44,51.13V46.26h.95v4h2.48v.83Z"/><path class="cls-1" d="M42.43,51.13V47.9l-1.24,2.4h-.52l-1.26-2.4v3.23h-.95V46.26h1L40.92,49l1.45-2.77h1v4.87Z"/><path class="cls-1" d="M46,51.13V46.26h3.27v.83H47v1.26h1.94v.77H47v2Z"/><path class="cls-1" d="M53.36,50.3v.83H50V46.26H53.3v.83H50.92v1.17H53V49H50.92v1.27Z"/><path class="cls-1" d="M56.9,47.54l-.18-.13a2.13,2.13,0,0,0-.31-.16,2.69,2.69,0,0,0-.4-.13,1.73,1.73,0,0,0-.43-.06,1,1,0,0,0-.59.14.48.48,0,0,0-.19.41.42.42,0,0,0,.07.25.62.62,0,0,0,.21.18,1.76,1.76,0,0,0,.35.14l.48.13q.36.09.65.21a1.76,1.76,0,0,1,.49.27,1.14,1.14,0,0,1,.33.4,1.31,1.31,0,0,1,.11.57,1.41,1.41,0,0,1-.15.65,1.24,1.24,0,0,1-.4.45,1.73,1.73,0,0,1-.58.25,2.89,2.89,0,0,1-.68.08A3.67,3.67,0,0,1,54.62,51a3.34,3.34,0,0,1-1-.47l.42-.82a1.31,1.31,0,0,0,.22.16,3.35,3.35,0,0,0,.38.2,2.94,2.94,0,0,0,.49.17,2.2,2.2,0,0,0,.55.07q.78,0,.78-.5a.41.41,0,0,0-.09-.27.76.76,0,0,0-.25-.19,2.45,2.45,0,0,0-.4-.15l-.52-.15a4.46,4.46,0,0,1-.61-.21,1.59,1.59,0,0,1-.43-.27,1,1,0,0,1-.26-.36,1.23,1.23,0,0,1-.08-.48,1.51,1.51,0,0,1,.14-.65,1.33,1.33,0,0,1,.38-.48,1.73,1.73,0,0,1,.57-.29,2.34,2.34,0,0,1,.69-.1,2.69,2.69,0,0,1,.95.16,3.53,3.53,0,0,1,.76.38Z"/><path class="cls-1" d="M61.82,47.09H60.26v4h-.94v-4H57.76v-.83h4.06Z"/><path class="cls-1" d="M62.43,51.13V46.26h.95v4.87Z"/><path class="cls-1" d="M64.89,46.26l1.31,3.69,1.31-3.69h1l-1.9,4.87h-.8l-1.92-4.87Z"/><path class="cls-1" d="M70,46.26h.84l1.85,4.87h-1l-.45-1.22h-1.7l-.45,1.22h-1Zm1.09,3-.67-1.92-.7,1.92Z"/><path class="cls-1" d="M73.22,51.13V46.26h.95v4h2.48v.83Z"/></g></g></g></g></svg>