<svg xmlns="http://www.w3.org/2000/svg" viewBox="0 0 100.11 32"><title>mogul-black</title><g id="Layer_2" data-name="Layer 2"><g id="Layer_1-2" data-name="Layer 1"><g id="Layer_2-2" data-name="Layer 2"><g id="Layer_1-2-2" data-name="Layer 1-2"><path d="M26.42.12V23.86H19.16v-8.7l-5.88,4.67L7.53,15.19v8.68H0V0L13.32,10.87Z"/><path d="M62.4,21.34c-3.84,2.27-7.92,1.76-10.49-1.17-2.8-3.19-2.86-9-.14-12.32C54.3,4.73,58.25,4.18,62.19,6.4c1-1.16,2.93-1.38,7.45-.73-.22,6.43-.05,13-.79,19.41-.6,5.25-5.32,7.76-11.1,6.68V26.22C62.25,25.31,62.78,24.77,62.4,21.34Zm.49-7.17c0-1.93-1-3.15-2.55-3.19a2.78,2.78,0,0,0-2.63,3.14c.05,1.63.7,2.88,2.5,3,1.56.16,2.66-1.13,2.66-3Z"/><path d="M72.17,5.54h7v9.95c0,1.3-.05,2.75,1.74,2.78s2-1.33,2-2.8c0-3.28,0-6.56,0-9.94h6.85V23.87H83.18L82.7,23a26.28,26.28,0,0,1-3.38,1.27C75.73,25,72.5,23,72.25,19.49,71.92,14.89,72.17,10.26,72.17,5.54Z"/><path d="M48,14.63c0,5.84-3.8,9.75-9.54,9.75S29,20.52,28.93,14.83c0-5.91,3.7-9.79,9.44-9.83S48,8.79,48,14.63Zm-7.13.25c0-1.9-.46-3.31-2.38-3.3s-2.37,1.42-2.39,3c0,2.08.88,3.23,2.5,3.13C40.59,17.62,40.82,16.17,40.87,14.88Z"/><path d="M100.11,23.86h-7V.52h7Z"/></g></g></g></g></svg>