<svg xmlns="http://www.w3.org/2000/svg" viewBox="0 0 99.23 22"><title>mtvnews-black</title><g id="Layer_2" data-name="Layer 2"><g id="Layer_1-2" data-name="Layer 1"><g id="Layer_2-2" data-name="Layer 2"><g id="Layer_1-2-2" data-name="Layer 1-2"><path d="M0,0C3.91,0,7.83,0,11.75,0a1.66,1.66,0,0,1,1,.47C14,1.66,15.34,2.85,16.44,3.85c1-.92,2.31-2,3.54-3.18A2,2,0,0,1,21.48,0C25,0,28.47,0,32,0h1V3.13c0,2,.33,4.12-.1,6s-1.63,3.66-2.5,5.47a4.68,4.68,0,0,1-.46.65l-.27,0c-.1-.4-.23-.8-.29-1.21-.15-.95-.25-1.91-.42-2.85A1.26,1.26,0,0,0,27.33,10,1.43,1.43,0,0,0,26,11.65a7.89,7.89,0,0,0,.44,2c.67,1.87,1.4,3.72,2.1,5.58a1.5,1.5,0,0,0,1.59,1.12c.84,0,1.16-.6,1.37-1.26a34.24,34.24,0,0,1,1.37-3.75v6.61H25.28c-.05-.5-.14-1-.15-1.49-.07-3.24-.1-6.47-.21-9.71a1.12,1.12,0,0,1,.71-1.18c.87-.48,1.73-1,2.56-1.53.45-.3.94-.67.52-1.33a1.29,1.29,0,0,0-1.79-.35c-.53.36-1,.81-1.52,1.16a2.53,2.53,0,0,1-2.2.6c-.66-.17-1.22.15-1.32,1a1.43,1.43,0,0,1-.59,1c-1.38.79-2.81,1.53-4.24,2.23-.61.3-1.08.62-.83,1.38a1.18,1.18,0,0,0,1.73.67c.86-.48,1.63-1.14,2.47-1.65a16.16,16.16,0,0,1,1.68-.77,8.35,8.35,0,0,1,.41,1.88c0,2.68-.16,5.37-.25,8.1H20.31v-6.1L16.43,19l-3.86-3.22V22H0Z"/><path d="M77.25,9.24C76,12,74.79,14.76,73.61,17.55a1.13,1.13,0,0,1-1.29.81c-1-.05-2,0-3,0l-1.75-14h3.85l.89,9.44a1.73,1.73,0,0,0,.19-.28c1.22-2.86,2.44-5.71,3.64-8.57a.89.89,0,0,1,1-.65c.86,0,1.73,0,2.71,0l.51,9.58C81.66,11,83,8.09,84.3,5.17a1.25,1.25,0,0,1,1.43-.9c.92.07,1.84,0,2.89,0-.17.39-.28.67-.42.95-2,4.11-4.06,8.21-6.05,12.32a1.19,1.19,0,0,1-1.31.8c-1-.06-2,0-3.08,0Z"/><path d="M49,14.32l1.27-10h3.86l-2.28,14c-1.33,0-2.61,0-3.88,0-.24,0-.57-.36-.67-.63-1.16-3-2.27-6.05-3.4-9.08a1.1,1.1,0,0,0-.17-.23l-1.25,9.91H38.61l2.24-14c1.35,0,2.63,0,3.9,0,.25,0,.6.4.71.68,1.16,3,2.25,6,3.38,9C48.87,14.09,48.92,14.19,49,14.32Z"/><path d="M99.23,5.52l-1.6,2.6a16.71,16.71,0,0,0-2.15-1.06c-.61-.21-1.35-.21-1.66.53s.18,1.14.7,1.51,1.12.75,1.68,1.11c2,1.33,2.67,2.74,2.2,4.87a4.45,4.45,0,0,1-3.85,3.53,7.34,7.34,0,0,1-6.74-2.19l1.79-2.61c.81.49,1.57,1,2.38,1.42a1.89,1.89,0,0,0,1.21.18c.44-.11,1-.39,1.17-.74a1.56,1.56,0,0,0-.41-1.32A12.24,12.24,0,0,0,92,12c-2-1.3-2.66-2.87-2.07-5A4.57,4.57,0,0,1,94.3,3.72,6.24,6.24,0,0,1,99.23,5.52Z"/><path d="M57.64,4.33h8.2c-.13.93-.22,1.82-.42,2.7a.92.92,0,0,1-.69.52c-1.18.05-2.37,0-3.66,0l-.43,2.12H65l-.52,3.26H60.17l-.39,2.12h4.27l-.49,3.23H55.41Z"/><path d="M35.78,9.79V21.9H33.85c0-.3-.06-.63-.06-1,0-2,.15-4,0-6S34.59,11.52,35.78,9.79Z"/><path d="M33.84,7.91V.13l.3.08a2.31,2.31,0,0,1,1.68,2.93,2,2,0,0,0,0,.39C35.82,5.94,35.76,6.08,33.84,7.91Z"/><path d="M15,21.94H13.49V17.86C15.1,18.59,15.41,19.45,15,21.94Z"/><path d="M17.68,1.88,16.61,3l-3-2.72.1-.15Z"/><path d="M17.69,19.06l1.62-1.35C19.58,19.06,19.5,19.14,17.69,19.06Z"/></g></g></g></g></svg>