<svg xmlns="http://www.w3.org/2000/svg" viewBox="0 0 321.41 208"><defs><style>.cls-1{fill:#ef5035;}</style></defs><title>napa-laurel-red_1</title><g id="Layer_2" data-name="Layer 2"><g id="Layer_1-2" data-name="Layer 1"><path class="cls-1" d="M247.34,13.81c-3-4.06-4.73-8.35-2.69-13.45,4.93,1.3,8.31,4.74,8,9.87-.4,5.84,2.87,7.71,7.25,9.21.22.08.53-.09.8-.15-1.56-7.93-1.48-8.8,1.18-12.94,4.9,2.63,7,7,5.78,12.07-1.13,4.93,1,7.36,4.79,9.37.5.27.94.66,2,1.38-1-5.13-.83-9.63,2.4-13.43,5.53,2.73,6.19,6.86,3,18.14.71.78,1.54,1.6,2.26,2.5a15.1,15.1,0,0,0,3.08,3.32c1-5,1.78-9.52,6.42-12.73,2.83,4.21,4.18,8.9,1.65,12.88-3.36,5.28-1.46,9,1.6,13a4.91,4.91,0,0,0,.56.47c.68-5.19,2.84-9.34,7.74-12,2.42,3.53,2.25,7.13,1,10.62a19.23,19.23,0,0,1-3.57,6,4,4,0,0,0-.82,4.77c.82,1.86,1.6,3.73,2.72,6.36,1.25-6,4.37-9.52,9.33-11.46,2.53,5.06,2.08,10-2.77,13.82-4.58,3.61-4.5,7.24-2.35,12.23,2.88-4.29,6.18-7.79,11.66-8.48,1.39,4.36.07,7.93-2.71,11a16.33,16.33,0,0,1-4.8,3.8c-2.93,1.41-3.84,3.36-2.91,6.38a27.79,27.79,0,0,1,.54,3.08,16.89,16.89,0,0,1,12.85-5.94,12.64,12.64,0,0,1,0,3.25,14,14,0,0,1-9.66,10.07c-3.08.93-4.46,2.35-4.31,5.51a23.94,23.94,0,0,1-.71,4.27c4.3-4.47,9-5.59,14.51-4.79a10.31,10.31,0,0,1-5.2,8.89,26.51,26.51,0,0,1-6.47,2.71c-5.18,1.47-5.21,1.37-5.78,7,9-2.52,9.41-2.54,14.8-.44a15.07,15.07,0,0,1-8.13,8c-1.62.64-3.48,1.34-5.11,1.13-5.43-.72-7.65,2.25-8.81,6.86,7.11-2.28,9.57-2.12,15.47,1.22-2.06,4.42-5.94,6.15-10.29,7a22.13,22.13,0,0,1-6.16,0c-4.93-.48-5.44-.24-7.83,5a19.32,19.32,0,0,1,15.07,4c-6.7,7.66-14.26,5.74-22.13,2.73l-5.11,4.75a65.79,65.79,0,0,1,8.32,1.94c2.56.94,5.07,2.28,6.59,5.16-5.21,4.45-10.77,4.13-16.56,1.89a17.34,17.34,0,0,1-2-.93c-4.34-2.35-4.34-2.36-8.76,1.49,5.35,1.7,10.06,4.13,13.39,9.58-3.94,2-7.69,3.23-11.81,1.67-2.32-.88-4.9-1.81-6.56-3.5-3.27-3.32-6.3-3.09-10.06-.39,5.38,2.23,9.53,5.59,11.66,11-6.67,3.89-13,1.35-21.55-8.5-13.69,2.54-26.22,7.78-36.86,18l-3.17-3c3.06-4.35,7.1-6.9,11.3-8.85a172.52,172.52,0,0,1,20.85-8.27c3.56-1.12,5.13-2.76,5.43-6.23.51-5.82,3.22-10.31,8.46-13.1a17,17,0,0,1,2.37-.86c2.87,4.55,2,9.42-2.65,16.65,5.89-1.12,6.21-1.24,5.88-6.88-.35-6,1.39-11,6.17-14.79a8,8,0,0,1,1.48-.91,2.29,2.29,0,0,1,.86-.05c3.19,5.16,3.15,9.08-.4,17,1.07-.63,1.79-1,2.48-1.47,3.72-2.37,3.76-2.39,2.59-6.61A15.72,15.72,0,0,1,265,156.69a36.25,36.25,0,0,1,3.42-3.65,17,17,0,0,1,3.2,15c4.3-1.12,5-2.27,3.37-6.17-2.26-5.56-3.06-11.05.43-16.44.39-.6.91-1.11,1.71-2.08,4.42,3.89,5.77,8.72,5.65,14.23,4.37-2.63,4.73-3.75,2.25-7.5-3.26-4.93-4.83-10.06-2.26-15.79a22.45,22.45,0,0,1,1.54-2.38c4.46,3.83,7.41,8,7.38,15l3.94-6.66C290.12,134.65,285,129.1,288.8,120c5.61,2.57,8.91,6.59,10,13.24.47-1.29.69-1.9.91-2.5,1.75-4.62,1.75-4.61-2.15-7.95-3.41-2.93-6.48-6.09-6.51-11a37.11,37.11,0,0,1,.43-4.15c5.69,1.33,8.08,3.42,12,10.16.22-1,.43-1.79.6-2.62,1-4.52,1-4.56-3.22-6.67-4.89-2.45-8.33-6-9.08-11.64a5,5,0,0,1,0-1.31,6.26,6.26,0,0,1,.68-1.3,17.41,17.41,0,0,1,13.07,8.29c0-.84,0-1.69,0-2.53,0-5.31,0-5.28-4.94-7.06-5.41-1.93-9.57-5-10.49-11.88,5.83-.45,10.5.91,14.39,6.65-.24-1.84-.33-2.71-.47-3.57-.16-1-.33-2-.54-3a3.36,3.36,0,0,0-3.25-3,37.34,37.34,0,0,1-6-1.23c-4-1.12-6.45-3.8-7.73-8.14,3.58-2.14,5.69-1.92,13.79,1.6-.47-1.62-.82-3-1.26-4.33a3.58,3.58,0,0,0-4-2.7,35.52,35.52,0,0,1-4.85,0c-4.75-.35-8.05-2.86-10.72-7.13,5.5-2.85,10.34-2.44,15.84,1.52l-5.24-9.08c-7,2.64-13.54,3.76-18.92-3.34,5.08-3.38,9.86-4.41,15.37-1.57l-6.29-7.3c-9.85,4.52-14.39,4.45-19.21-.41a16.6,16.6,0,0,1,13.21-4.67l-6.2-5.19c-5.79,3.75-11.41,8.13-18.45,3.07,3.19-4.76,6.26-6.23,13.15-6.29-1.09-.76-1.88-1.39-2.75-1.9-5.07-3-5.08-2.95-9.62,1-4.27,3.69-8.38,4.39-13.21,2,2.41-5.06,6.41-7.6,12.38-7.87l-2-2.34Z"/><path class="cls-1" d="M74.34,13.79l-2,2.33c5.94.31,9.94,2.83,12.47,8.05a9.82,9.82,0,0,1-8.82.59,16.48,16.48,0,0,1-3.81-2.17c-1.76-1.24-3.56-3.87-5.09-3.69-2.7.31-5.21,2.28-7.68,3.79,6.43.31,8.37,1.17,12.72,5.85-3.81,4.52-7.3,4.15-18.27-2.18l-6.26,4.82c5.27,0,9.59,1.25,13.22,4.81-4.2,4.86-9.73,5-19.11.4l-6.39,7.32c5.46-2.76,10.27-1.88,15,1.31-3.1,5.89-8.06,6.93-18.48,3.72l-5.32,9c5.49-3.94,10.35-4.43,15.8-1.55-2.38,4.17-5.62,6.52-10.1,7.12a20.56,20.56,0,0,1-2.64.07c-6.33,0-6.58.25-7.72,7.14,4.27-2.5,8.52-4.21,13.73-2.23a10.86,10.86,0,0,1-7.45,8.45,19.56,19.56,0,0,1-5.58,1.2c-2.94.16-4.16,1.69-4.47,4.4-.17,1.44-.5,2.87-.93,5.18a16,16,0,0,1,14.28-6.58c.11,5-2.65,7.86-6.07,10.27a12.69,12.69,0,0,1-2.79,1.31c-6.59,2.52-6.59,2.51-6.09,10a62.5,62.5,0,0,1,5.76-5.66,12.22,12.22,0,0,1,7.71-2.44c0,4.47-.94,8.14-4.21,10.86a30.39,30.39,0,0,1-5.14,3.38c-3.74,2-3.83,2-3,6,.2,1,.45,2,.68,3,1.55-2.12,2.82-4.44,4.65-6.19s4.22-2.93,6.8-4.66c2,4.84.9,8.49-1.46,11.8a27.5,27.5,0,0,1-4.68,4.65c-3.28,2.79-3.32,2.74-1.9,6.55.35.93.72,1.84,1.29,3.3a16.17,16.17,0,0,1,9.45-12.93c4.27,7,1.39,12.11-6.24,20.12l3.68,6.47c.2-6.53,2.9-10.88,7.22-14.75,3.58,3.54,3.51,7.6,2.66,11.61a19.74,19.74,0,0,1-2.79,5.93c-2.48,4-2.52,4.33.79,7.87.39.41.85.76,1.79,1.59-1.38-6.44.55-11.26,5-15.92,3,3.82,4.76,7.52,4,12a36.19,36.19,0,0,1-1.75,6.37c-1.58,4.39-1.54,4.59,3.35,7a17.1,17.1,0,0,1,2.73-15c5.55,3.45,7.68,9.11,6.24,15.86-1.22,5.75-1.22,5.75,5.12,9.47-3.71-6.1-4.11-11.64-.73-17.67,4.46,2.92,7.67,6.26,8.29,11.5a36.85,36.85,0,0,1,.11,4.41c0,5.73,0,5.73,6.31,7.69-3.79-5.37-5.85-10.7-3.52-17.25A15.4,15.4,0,0,1,85,176.63a5.36,5.36,0,0,1,.6,2.11c-.17,6.52,3.64,8.75,9.44,10.18a66.27,66.27,0,0,1,23,10.78c1.88,1.36,3.56,3,5.77,4.84L120.56,208a69.34,69.34,0,0,0-37-17.89c-9.07,9.92-14.65,12.17-21.65,8.48a19.59,19.59,0,0,1,11.39-10.77c-4.42-3.39-4.78-3.35-9.22-.12-5,3.61-10.26,5.83-16.46,3.28a22.37,22.37,0,0,1-2.18-1.23c2.85-5.37,7.55-7.78,12.9-9.35-3.47-4.09-4-4.14-8.22-1.89-6.24,3.33-12.46,4.11-18.53-.48,2.28-4.51,7.89-7.16,15.07-7.55a37.83,37.83,0,0,1-3.73-3c-1.32-1.35-2.51-1.44-4.31-.83a31.55,31.55,0,0,1-8.11,1.71c-4.84.29-7.33-1-11.46-5.22a17.45,17.45,0,0,1,14.77-3.82c-1.52-4.83-2.9-5.75-7-5.21-4.94.66-9.74.36-13.84-2.9a43.72,43.72,0,0,1-3.68-3.78c5.4-3.42,10.38-4,16.33-.8-.81-1.79-1.39-2.89-1.81-4-.94-2.61-2.75-3.46-5.46-3.34A15.39,15.39,0,0,1,4.21,132a11.79,11.79,0,0,1-.86-2.11c5.15-2.56,9.85-1.11,14.54.87-.18-5.71-.21-5.72-5.48-7.28-4.28-1.26-8.52-2.63-10.64-7.1-.61-1.28-1-2.66-1.65-4.44C6,111,10.75,112,15,116.39c-.36-2.5-.67-4.49-.92-6.5-.28-2.33-2.27-2.48-3.87-3A14.42,14.42,0,0,1,.89,98.19,25.12,25.12,0,0,1,0,94.06c5.11-.72,8.34.63,13,5.38.27-1.24.44-2.3.74-3.32.86-2.86-.12-4.64-2.8-6a14.12,14.12,0,0,1-7.83-9.6,30.84,30.84,0,0,1-.3-5.13c5.45.63,8,2.4,12.3,8.64.61-2.86,1.37-5.17,1.46-7.5,0-1-1.19-2.21-2.1-3-2.91-2.6-5.58-5.36-5.93-9.46a45.58,45.58,0,0,1,.36-6.45c6,2.08,8,4.23,10.39,11.12a28.08,28.08,0,0,1,1.49-3.4c2-3.28,1.7-6-.89-9.07-3.65-4.33-4.39-9.36-1.45-15.19,4.55,3.09,7.29,6.72,7.64,12.84l4.2-6.49c1.24-1.91-.11-3.39-.93-4.87a14.24,14.24,0,0,1-.75-13.14,11.78,11.78,0,0,1,1.44-2.05c4,2.76,5.17,5.08,5.88,12.69a74.64,74.64,0,0,0,5.31-5.48c.46-.58.21-1.88,0-2.8-.4-2.16-1.17-4.27-1.4-6.44-.42-4,.91-6.77,4.61-9.8,3.5,3.8,4,8.16,2.43,14a78.87,78.87,0,0,0,6.38-4.88,4.6,4.6,0,0,0,1-3c0-1.74-.4-3.5-.4-5.25,0-4.9,1.33-7,6.09-10,3,4.1,2.31,8.47.59,13.57,1.91-.84,3.16-1.49,4.46-1.95,2.88-1,4-2.85,3.84-6-.28-5.49,2.16-9.54,7.62-12,3,5.39.83,9.66-2.2,13.81Z"/><path class="cls-1" d="M110.31,78.67V97.35h-7.54V64.69h5.89l15.23,19.18V64.69h7.54V97.35h-6.07Z"/><path class="cls-1" d="M146.56,64.69h6.81l11.91,32.66h-7.73L155,90H144.86l-2.48,7.31h-7.73Zm7.22,20.15L150,73.29l-3.91,11.55Z"/><path class="cls-1" d="M168.5,97.35V64.69h13.94a9.58,9.58,0,0,1,4.3,1,11,11,0,0,1,3.36,2.53,12.11,12.11,0,0,1,2.21,3.54,10.53,10.53,0,0,1,.8,4,11.46,11.46,0,0,1-.76,4.14,11.82,11.82,0,0,1-2.12,3.54A10,10,0,0,1,187,85.9a9.82,9.82,0,0,1-4.28.92H176V97.35ZM176,80.24h6.16a2.91,2.91,0,0,0,2.3-1.15,5.09,5.09,0,0,0,1-3.36,5.87,5.87,0,0,0-.3-2,4.09,4.09,0,0,0-.81-1.38,3.1,3.1,0,0,0-1.15-.81,3.52,3.52,0,0,0-1.29-.25H176Z"/><path class="cls-1" d="M204,64.69h6.81l11.91,32.66H215L212.43,90H202.27l-2.48,7.31h-7.73Zm7.22,20.15-3.82-11.55-3.91,11.55Z"/><path class="cls-1" d="M83.7,108.69l7.68,23.18L99,108.69h8L94.56,141.35H88.21L75.7,108.69Z"/><path class="cls-1" d="M116,108.69h6.81l11.91,32.66H127L124.51,134H114.34l-2.48,7.31h-7.73Zm7.22,20.15-3.82-11.55-3.91,11.55Z"/><path class="cls-1" d="M138,141.35V108.69h7.54v26h15.82v6.62Z"/><path class="cls-1" d="M164.89,141.35V108.69h7.54v26h15.82v6.62Z"/><path class="cls-1" d="M214.76,134.73v6.62h-23V108.69h22.54v6.62h-15v6.35h12.88v6.12H199.35v6.95Z"/><path class="cls-1" d="M224.42,108.69l7,15,7.13-15h8.23l-11.64,21.53v11.13h-7.5V130.13l-11.45-21.44Z"/><path class="cls-1" d="M68.61,45a3.31,3.31,0,0,0-.48-.36,5.93,5.93,0,0,0-.86-.45,7.43,7.43,0,0,0-1.09-.37,4.76,4.76,0,0,0-1.2-.15,2.69,2.69,0,0,0-1.62.4,1.32,1.32,0,0,0-.53,1.12,1.15,1.15,0,0,0,.2.69,1.72,1.72,0,0,0,.58.48,4.82,4.82,0,0,0,1,.38q.58.17,1.34.36,1,.27,1.79.57a4.85,4.85,0,0,1,1.37.76,3.14,3.14,0,0,1,.87,1.09,3.63,3.63,0,0,1,.3,1.57A3.91,3.91,0,0,1,69.83,53a3.45,3.45,0,0,1-1.1,1.24,4.8,4.8,0,0,1-1.6.69,8,8,0,0,1-1.89.22,10.15,10.15,0,0,1-3-.46,9.25,9.25,0,0,1-2.66-1.29l1.16-2.26a3.64,3.64,0,0,0,.62.45,9.38,9.38,0,0,0,1.05.55,8.18,8.18,0,0,0,1.35.47,6.09,6.09,0,0,0,1.52.19q2.17,0,2.17-1.39a1.14,1.14,0,0,0-.25-.74,2.1,2.1,0,0,0-.7-.53,6.74,6.74,0,0,0-1.1-.42L64,49.3a12.23,12.23,0,0,1-1.68-.58A4.42,4.42,0,0,1,61.08,48a2.78,2.78,0,0,1-.71-1,3.43,3.43,0,0,1-.24-1.34,4.2,4.2,0,0,1,.38-1.82,3.69,3.69,0,0,1,1.05-1.33,4.77,4.77,0,0,1,1.57-.81,6.48,6.48,0,0,1,1.92-.28,7.45,7.45,0,0,1,2.62.45,9.76,9.76,0,0,1,2.09,1.05Z"/><path class="cls-1" d="M72.22,55V41.51h5.72a3.84,3.84,0,0,1,1.72.39,4.46,4.46,0,0,1,1.36,1,4.84,4.84,0,0,1,.89,1.44A4.34,4.34,0,0,1,82.23,46a4.69,4.69,0,0,1-.3,1.66,4.63,4.63,0,0,1-.86,1.43,4.2,4.2,0,0,1-1.33,1,3.85,3.85,0,0,1-1.71.38H74.84V55Zm2.62-6.82h3a1.5,1.5,0,0,0,1.21-.59,2.43,2.43,0,0,0,.48-1.6,2.65,2.65,0,0,0-.15-.92,2.26,2.26,0,0,0-.4-.69,1.59,1.59,0,0,0-.58-.43,1.7,1.7,0,0,0-.67-.14H74.84Z"/><path class="cls-1" d="M93.42,52.7V55H84.06V41.51h9.2v2.3H86.68v3.25h5.68v2.13H86.68V52.7Z"/><path class="cls-1" d="M94.37,48.16a7,7,0,0,1,.45-2.44A6.55,6.55,0,0,1,98.21,42a6.46,6.46,0,0,1,2.81-.59,6.14,6.14,0,0,1,3.22.82,5.23,5.23,0,0,1,2,2.13l-2,1.39a3.46,3.46,0,0,0-.65-1,3.24,3.24,0,0,0-.82-.62,3.68,3.68,0,0,0-.91-.33,4.34,4.34,0,0,0-.93-.1,3.53,3.53,0,0,0-1.72.4,3.79,3.79,0,0,0-1.22,1,4.55,4.55,0,0,0-.73,1.44A5.46,5.46,0,0,0,97,48.24,5.23,5.23,0,0,0,97.32,50a4.56,4.56,0,0,0,.81,1.45,4,4,0,0,0,1.25,1,3.43,3.43,0,0,0,1.61.38,4.25,4.25,0,0,0,1-.11,3.61,3.61,0,0,0,.94-.36,3.57,3.57,0,0,0,.83-.64,3,3,0,0,0,.61-.94L106.46,52a4.07,4.07,0,0,1-.92,1.34,5.94,5.94,0,0,1-1.35,1,6.87,6.87,0,0,1-1.61.61,7,7,0,0,1-1.67.21,5.74,5.74,0,0,1-2.64-.61,6.86,6.86,0,0,1-2.06-1.59,7.35,7.35,0,0,1-1.35-2.22A7,7,0,0,1,94.37,48.16Z"/><path class="cls-1" d="M108.22,55V41.51h2.62V55Z"/><path class="cls-1" d="M117.5,41.51h2.32L124.94,55h-2.7L121,51.64h-4.71L115,55h-2.7Zm3,8.28-1.86-5.3-1.94,5.3Z"/><path class="cls-1" d="M126.42,55V41.51H129V52.7h6.88V55Z"/><path class="cls-1" d="M140.37,52.24a4,4,0,0,0,.89.42,4.22,4.22,0,0,0,1.44.23,2.53,2.53,0,0,0,1.27-.28,1.74,1.74,0,0,0,.72-.85,4.61,4.61,0,0,0,.32-1.42q.08-.85.08-2V41.51h2.62v6.86a22.26,22.26,0,0,1-.16,2.8,5.64,5.64,0,0,1-.68,2.16,3.53,3.53,0,0,1-1.51,1.39,6,6,0,0,1-2.66.49,5,5,0,0,1-2.93-.84Z"/><path class="cls-1" d="M156.08,52.78a3,3,0,0,0,1.57-.38,3.07,3.07,0,0,0,1-1,4.1,4.1,0,0,0,.55-1.4,8.1,8.1,0,0,0,.16-1.62V41.51H162v6.88a9.83,9.83,0,0,1-.33,2.6,6,6,0,0,1-1,2.13,5,5,0,0,1-1.83,1.44,6.2,6.2,0,0,1-2.68.53,6.13,6.13,0,0,1-2.75-.56,5.12,5.12,0,0,1-1.83-1.48,5.91,5.91,0,0,1-1-2.14,10.08,10.08,0,0,1-.31-2.53V41.51h2.62v6.88A8.19,8.19,0,0,0,153,50a4.1,4.1,0,0,0,.55,1.4,2.86,2.86,0,0,0,2.56,1.35Z"/><path class="cls-1" d="M164.63,55V41.51h6a3.84,3.84,0,0,1,1.72.39,4.46,4.46,0,0,1,1.36,1,4.84,4.84,0,0,1,.89,1.44,4.34,4.34,0,0,1,.32,1.62,4.49,4.49,0,0,1-.66,2.38,3.76,3.76,0,0,1-1.78,1.55L175.54,55h-2.94l-2.75-4.52h-2.58V55Zm2.62-6.82h3.29a1.38,1.38,0,0,0,.67-.17,1.72,1.72,0,0,0,.54-.47,2.31,2.31,0,0,0,.36-.69,2.68,2.68,0,0,0,.13-.85,2.43,2.43,0,0,0-.15-.87,2.29,2.29,0,0,0-.41-.69,1.86,1.86,0,0,0-.59-.46,1.53,1.53,0,0,0-.67-.16h-3.17Z"/><path class="cls-1" d="M178.35,41.51l3.33,6.5,3.38-6.5h2.83L183,50.29V55h-2.6V50.25l-4.88-8.74Z"/><path class="cls-1" d="M196.53,41.51h2.32L204,55h-2.7L200,51.64h-4.71L194.08,55h-2.7Zm3,8.28-1.86-5.3-1.94,5.3Z"/><path class="cls-1" d="M209,41.55h2.41L212.89,46l1.52-4.47h2.43l-2.3,6.14L216.26,52l3.82-10.49h2.85L217.43,55h-2.2l-2.34-5.66L210.56,55h-2.2L202.9,41.51h2.81L209.55,52l1.67-4.31Z"/><path class="cls-1" d="M227,41.51h2.32L234.44,55h-2.7l-1.25-3.36h-4.71L224.54,55h-2.7Zm3,8.28-1.86-5.3-1.94,5.3Z"/><path class="cls-1" d="M235.92,55V41.51h6a3.84,3.84,0,0,1,1.72.39,4.46,4.46,0,0,1,1.36,1,4.84,4.84,0,0,1,.89,1.44,4.34,4.34,0,0,1,.32,1.62,4.49,4.49,0,0,1-.66,2.38,3.76,3.76,0,0,1-1.78,1.55L246.83,55h-2.94l-2.75-4.52h-2.58V55Zm2.62-6.82h3.29a1.38,1.38,0,0,0,.67-.17,1.72,1.72,0,0,0,.54-.47,2.31,2.31,0,0,0,.36-.69,2.68,2.68,0,0,0,.13-.85,2.43,2.43,0,0,0-.15-.87,2.29,2.29,0,0,0-.41-.69,1.86,1.86,0,0,0-.59-.46,1.53,1.53,0,0,0-.67-.16h-3.17Z"/><path class="cls-1" d="M248.56,55V41.51h4.9a7.32,7.32,0,0,1,2.9.53,5.82,5.82,0,0,1,3.33,3.58,8,8,0,0,1,.42,2.61,7.89,7.89,0,0,1-.47,2.78,6,6,0,0,1-1.34,2.13,6,6,0,0,1-2.1,1.37,7.42,7.42,0,0,1-2.75.48Zm8.91-6.76a5.73,5.73,0,0,0-.27-1.79,4,4,0,0,0-.78-1.41,3.48,3.48,0,0,0-1.26-.91,4.28,4.28,0,0,0-1.7-.32h-2.28V52.7h2.28a4.1,4.1,0,0,0,1.72-.34,3.53,3.53,0,0,0,1.25-.94A4.18,4.18,0,0,0,257.2,50,5.66,5.66,0,0,0,257.47,48.24Z"/><path class="cls-1" d="M87.32,166.46V151.55h10v2.54H90.22v3.84h5.92v2.35H90.22v6.17Z"/><path class="cls-1" d="M99.38,166.46V151.55h2.9v14.91Z"/><path class="cls-1" d="M105.38,166.46V151.55h2.9v12.37h7.6v2.54Z"/><path class="cls-1" d="M129.8,166.46v-9.87L126,163.94h-1.58l-3.84-7.35v9.87h-2.9V151.55h3.11l4.41,8.48,4.45-8.48h3.09v14.91Z"/><path class="cls-1" d="M140.85,166.46V151.55h10v2.54h-7.12v3.84h5.92v2.35h-5.92v6.17Z"/><path class="cls-1" d="M163.26,163.92v2.54H152.9V151.55h10.16v2.54H155.8v3.59h6.28V160H155.8v3.88Z"/><path class="cls-1" d="M174.09,155.46a3.59,3.59,0,0,0-.54-.4,6.51,6.51,0,0,0-.95-.49,8.23,8.23,0,0,0-1.21-.41,5.29,5.29,0,0,0-1.32-.17,3,3,0,0,0-1.79.44,1.46,1.46,0,0,0-.59,1.24,1.28,1.28,0,0,0,.22.77,1.9,1.9,0,0,0,.64.54,5.39,5.39,0,0,0,1.06.42q.64.19,1.48.4,1.09.29,2,.63a5.38,5.38,0,0,1,1.51.84,3.48,3.48,0,0,1,1,1.21,4,4,0,0,1,.34,1.73,4.31,4.31,0,0,1-.45,2,3.79,3.79,0,0,1-1.22,1.38,5.28,5.28,0,0,1-1.76.77,8.84,8.84,0,0,1-2.09.24,11.22,11.22,0,0,1-3.32-.5,10.23,10.23,0,0,1-2.94-1.43l1.28-2.5a4,4,0,0,0,.68.49,10.25,10.25,0,0,0,1.17.61,9,9,0,0,0,1.49.51,6.73,6.73,0,0,0,1.68.21q2.4,0,2.39-1.53a1.26,1.26,0,0,0-.27-.82,2.31,2.31,0,0,0-.78-.59,7.48,7.48,0,0,0-1.22-.46l-1.6-.46a13.64,13.64,0,0,1-1.86-.64,4.87,4.87,0,0,1-1.31-.82,3.06,3.06,0,0,1-.79-1.09,3.77,3.77,0,0,1-.26-1.48,4.63,4.63,0,0,1,.42-2,4.07,4.07,0,0,1,1.17-1.47,5.28,5.28,0,0,1,1.73-.89,7.17,7.17,0,0,1,2.12-.3,8.24,8.24,0,0,1,2.9.49,10.81,10.81,0,0,1,2.31,1.17Z"/><path class="cls-1" d="M189.13,154.09h-4.77v12.37h-2.88V154.09h-4.77v-2.54h12.41Z"/><path class="cls-1" d="M191,166.46V151.55h2.9v14.91Z"/><path class="cls-1" d="M198.52,151.55l4,11.28,4-11.28h3l-5.82,14.91h-2.44l-5.86-14.91Z"/><path class="cls-1" d="M214.14,151.55h2.56l5.67,14.91h-3L218,162.74H212.8l-1.37,3.72h-3Zm3.34,9.16-2.06-5.86-2.14,5.86Z"/><path class="cls-1" d="M224,166.46V151.55h2.9v12.37h7.6v2.54Z"/></g></g></svg>