<svg xmlns="http://www.w3.org/2000/svg" viewBox="0 0 100 80"><defs><style>.cls-1{fill-opacity:0;}.cls-2{fill:#fff;}</style></defs><title>newyorktimes-white-square</title><g id="Layer_2" data-name="Layer 2"><g id="Layer_1-2" data-name="Layer 1"><g id="Layer_2-2" data-name="Layer 2"><g id="Layer_1-2-2" data-name="Layer 1-2"><path class="cls-1" d="M0,0H100V80H0ZM54.24,45.88v-.47q0-5.65,0-11.29a2.13,2.13,0,0,0-2.29-2.33,2.45,2.45,0,0,0-2.34,2.39c.09-.19.17-.36.27-.52a.8.8,0,0,1,.79-.43.79.79,0,0,1,.72.59,2.61,2.61,0,0,1,.12.74v3.31a9.3,9.3,0,0,0-1.17.35,1.81,1.81,0,0,0-.8,2.7,1.24,1.24,0,0,0,1,.6,2.07,2.07,0,0,1-.24-.71c0-.41.39-.52.74-.57s.5,0,.5.42V45.6a.6.6,0,0,1-.38.63,2.28,2.28,0,0,0-1.44,2A2.49,2.49,0,0,0,52.34,51a27.39,27.39,0,0,0,3-.4c.85-.13,1.69-.3,2.54-.41a.73.73,0,0,1,.85.35,1,1,0,0,1-.12,1.07c-.1.13-.21.25-.37.43a3,3,0,0,0,1.64-.8,2.11,2.11,0,0,0-.35-3.3,2.58,2.58,0,0,0-1.77-.4c-1.14.14-2.27.35-3.4.51-.8.11-1.6.22-2.41.26a1,1,0,0,1-1-.84,1,1,0,0,1,.6-1.14A3.41,3.41,0,0,1,52.66,46a10.35,10.35,0,0,1,3.14.41,16.32,16.32,0,0,0,2.11.45,2,2,0,0,0,2.5-2.13v-.38c0-3.3,0-6.59,0-9.89A1.46,1.46,0,0,1,61.08,33a1.22,1.22,0,0,0,.24-.26l-.09-.09-.89.74L58.5,31.74l-2.61,2.09V31.91h-.13V46.18ZM43.05,14c1.43-.23,2.14-.73,2.41-1.69A2,2,0,0,0,45,10.06a2.61,2.61,0,0,0-2.33-.66c.27.1.55.15.82.26a.83.83,0,0,1,.55.82.78.78,0,0,1-.68.67,1.69,1.69,0,0,1-.63,0c-.58-.13-1.15-.28-1.72-.44-.93-.27-1.86-.56-2.8-.82a3.16,3.16,0,0,0-2.58.42,2.56,2.56,0,0,0-1,3,1.61,1.61,0,0,0,1.08,1A1.1,1.1,0,0,1,35.6,13a1.17,1.17,0,0,1,1.25-.5l.3,0L42.89,14v2.33a.63.63,0,0,1-.27.57c-.37.28-.71.58-1.09.89.4.33.74.62,1.11.9a.6.6,0,0,1,.25.54c0,1.06,0,2.11,0,3.18a.49.49,0,0,1-.33.52,4.14,4.14,0,0,1-4.83-.88,1.89,1.89,0,0,1-.16-.22c1-.52,2.05-1,3.07-1.53a.52.52,0,0,0,.35-.54V14.52a2.51,2.51,0,0,0,0-.37L36.75,16a5,5,0,0,1,2.09-2.49.5.5,0,0,0-.25,0A6.34,6.34,0,0,0,34,19.92a5.82,5.82,0,0,0,3.76,5.31,5.49,5.49,0,0,0,7.61-4.34c0-.3,0-.58,0-.87-1,1.56-1.69,2.32-2.33,2.57V19.22a.6.6,0,0,1,.27-.54c.37-.28.72-.58,1.1-.89-.4-.33-.77-.6-1.12-.9a.6.6,0,0,1-.22-.36C43,15.68,43.05,14.84,43.05,14ZM37.14,57.6c2-.43,2.89-1.53,2.5-3.07A2.42,2.42,0,0,0,36.82,53a6.88,6.88,0,0,1,.9.3.73.73,0,0,1,.45.77.76.76,0,0,1-.65.65,1.45,1.45,0,0,1-.52,0,7.59,7.59,0,0,1-1-.21c-1.21-.34-2.39-.72-3.59-1.06a3.2,3.2,0,0,0-2.65.41,2.51,2.51,0,0,0-.83,3.42,1.47,1.47,0,0,0,.94.66,1.06,1.06,0,0,1-.21-1.38,1.17,1.17,0,0,1,1.28-.53,5.8,5.8,0,0,1,.78.16c1.66.41,3.32.83,5,1.23.21.05.25.15.25.34V60a.68.68,0,0,1-.21.44c-.35.32-.74.6-1.14.94.4.32.78.6,1.13.93a.73.73,0,0,1,.22.47C37,63.89,37,65,37,66a.5.5,0,0,1-.33.52,4.19,4.19,0,0,1-4.92-1,1,1,0,0,1-.08-.15c1-.52,2.05-1,3.07-1.53a.52.52,0,0,0,.35-.54V58.14a2.61,2.61,0,0,0,0-.41L30.9,59.59l-.09-.1a11.7,11.7,0,0,1,.85-1.29,13.53,13.53,0,0,1,1.27-1.12,6.41,6.41,0,0,0-4.73,7.47,5.68,5.68,0,0,0,4.52,4.57,5.47,5.47,0,0,0,6.75-5.27,2.17,2.17,0,0,0-.05-.3,6.41,6.41,0,0,1-2.29,2.71V62.7a.59.59,0,0,1,.21-.36c.36-.32.75-.6,1.14-.94-.41-.33-.79-.63-1.15-.94a.54.54,0,0,1-.21-.33C37.13,59.29,37.14,58.45,37.14,57.6ZM23.78,41.34l-.06,0-.17-.29c-1.49-2.7-3-5.4-4.46-8.09a3.89,3.89,0,0,0-.79-1,2.11,2.11,0,0,0-2.66-.13,2.57,2.57,0,0,0-.9,2.7,5.59,5.59,0,0,1,.22-.53.74.74,0,0,1,1.21-.27A1.43,1.43,0,0,1,16.81,35c0,.5,0,1,0,1.51s0,.56-.57.64l-.33.06a1.87,1.87,0,0,0-1,3.14,1.49,1.49,0,0,0,.85.49,2.59,2.59,0,0,1-.12-.87c.08-.35.45-.41.76-.45s.46,0,.46.43v3.2l-.56.05a2.74,2.74,0,0,0-2.69,3,2.35,2.35,0,0,0,2.77,2,6.07,6.07,0,0,1-.62-.26,1.09,1.09,0,0,1,.7-2.06,5.22,5.22,0,0,1,1.17.57,1.84,1.84,0,0,1,.3.3l2.48-2.76-.07-.06-.69.68A4.58,4.58,0,0,0,17,43.17V35a1.74,1.74,0,0,1,.34.48L23.3,46.33c.11.21.22.51.5.39.11,0,.17-.37.17-.57V35.09c0-.3.09-.4.38-.46a2.59,2.59,0,0,0,2.16-2.7,5,5,0,0,0-.14-.7c-.59,1.47-1.93,1.43-3.1.4L20.8,34.46l.12.11.73-.78a3.19,3.19,0,0,0,2.14.9Zm18-3.11c1.06.45.84,1.34.84,2.15v4.47a1.38,1.38,0,0,1-.18.45,1.83,1.83,0,0,1-.41-.18c-.37-.28-.71-.6-1.09-.88a.83.83,0,0,1-.37-.76c0-1.24,0-2.48,0-3.71a1.82,1.82,0,0,1,.64-1.7s0-.06.06-.12l-1.85-1.64-2.08,1.84a5.54,5.54,0,0,0,.44.39,1,1,0,0,1,.39.87c0,1.66,0,3.33,0,5a.57.57,0,0,1-.41.63c-.33-.26-.66-.55-1-.8a.92.92,0,0,1-.43-.88c0-1.54,0-3.08,0-4.62a1.84,1.84,0,0,0-.86-1.66c-.34-.24-.7-.46-1-.73a1.06,1.06,0,0,1-.07-1.78l.13-.14a2.47,2.47,0,0,0-2.3,2,2.15,2.15,0,0,0,.93,1.92A2,2,0,0,1,34,40.1q0,2.16,0,4.32a.62.62,0,0,1-.33.6,7.61,7.61,0,0,0-.62.47c.1,0,.13.07.14.07l.29-.18c.6-.43.6-.43,1.13,0l1.51,1.25,2.23-1.76,2.25,1.78C42,45.8,43.34,45,44.72,44.12A.51.51,0,0,0,45,43.6V39.17a.85.85,0,0,1,.25-.53c.4-.4.85-.76,1.27-1.13a1.51,1.51,0,0,0,.16-.2l-.08-.08-.78.64-1.9-1.57Zm7.58,22.32c.4.46.79.9,1.16,1.36a.72.72,0,0,1,.11.42v3.3c0,.52.12,1.08-.52,1.4l1.71,1.92,1.85-1.85a2.26,2.26,0,0,0-.23-.25,1.14,1.14,0,0,1-.41-1q0-2.21,0-4.43a.81.81,0,0,1,.53-.88c.36.4.75.79,1.1,1.22a1,1,0,0,1,.22.56c0,1.11,0,2.22,0,3.33,0,.48.08,1-.47,1.27l1,1.06.93,1a11.39,11.39,0,0,0,2.48-2.48l-.65.56c-.22-.24-.4-.46-.6-.66a1.05,1.05,0,0,1-.33-.87c0-1.28,0-2.55,0-3.82a1.2,1.2,0,0,1,.65-1.3,1.4,1.4,0,0,0,.27-.24L58,60.07l-.92.68-1.74-2-2.47,2-1.74-1.88-2.39,1.86L47,58.88l-2.54,2.23.11.12.79-.66c.34.39.67.72,1,1.09a.89.89,0,0,1,.19.5c0,1.1,0,2.2,0,3.3,0,.56.14,1.17-.6,1.46l1.9,2.14,1.81-1.92a3.18,3.18,0,0,0-.36-.39,1,1,0,0,1-.38-.92c0-1.49,0-3,0-4.47a.75.75,0,0,1,.52-.82Zm2.38-45.46-2.41,2.07v-7l-3,2.35a.93.93,0,0,1,.6,1v8.18a3.37,3.37,0,0,1,0,1.34c-.18.37-.67.58-1,.86l-.19.2.07.07A1.06,1.06,0,0,0,46,24c.27-.3.48-.22.74,0,.43.44.9.84,1.36,1.27l2.71-2.16L50.71,23l-.65.45a1.35,1.35,0,0,1-.69-1.28c.05-1.39.07-2.78,0-4.16,0-.7.35-1,.81-1.3.33.41.66.8,1,1.21a1,1,0,0,1,.18.55q0,2.5,0,5a15.68,15.68,0,0,1-.11,1.58,2.71,2.71,0,0,1-1.16,2,7.17,7.17,0,0,1-.87.45l.11,0a3.75,3.75,0,0,0,4.41-3.77q0-3,0-6.06a.64.64,0,0,1,.3-.63,5,5,0,0,0,.52-.42l-.08-.11-.83.6ZM62.51,44.52l2.26,1.9a.33.33,0,0,0,.46.07q1.9-1.1,3.82-2.17a.46.46,0,0,0,.27-.48V39.31a1,1,0,0,1,.43-1A1.81,1.81,0,0,0,70,38L69.92,38l-.74.65-.3-.25c-.71-.62-1.44-1.23-2.14-1.86a.35.35,0,0,0-.49,0c-1.17.65-2.34,1.29-3.53,1.9a.49.49,0,0,0-.3.52V44a.66.66,0,0,1-.29.6,4.67,4.67,0,0,0-.43.4l.13.06c.22-.15.44-.32.68-.5Zm6.28,25.27a5.86,5.86,0,0,1-.55-.43.6.6,0,0,1,.15-1,1,1,0,0,1,1.1.09q.36.25.69.54c1.19-.72,2.35-1.42,3.51-2.14a.53.53,0,0,0,.2-.39c0-.95,0-1.89,0-2.84A.63.63,0,0,0,73.6,63c-.45-.34-.88-.71-1.32-1.07l.33-.42a5.26,5.26,0,0,0,1.11-2.09,1.43,1.43,0,0,0-.13-1.1c-.14.75-.45,1.06-1.07,1.11a1.93,1.93,0,0,1-1.38-.7c-1.21.71-2.41,1.4-3.59,2.11a.49.49,0,0,0-.18.36c0,.67,0,1.34,0,2a.68.68,0,0,0,.25.59c.43.36.83.76,1.29,1.19a4.47,4.47,0,0,0-.46.4,14,14,0,0,0-1.11,1.34,2,2,0,0,0,1.45,3.07ZM77.55,33.3a1.13,1.13,0,0,1,.81,1.12,4.3,4.3,0,0,1,0,.53c0,2.8,0,5.6,0,8.4A1.7,1.7,0,0,1,77.64,45a3.46,3.46,0,0,0-.47.43l.09.11L78,45l1.74,1.63,2.59-2.26-.1-.12-.68.53a3.78,3.78,0,0,0-.37-.4,1.28,1.28,0,0,1-.46-1.12c0-3.6,0-7.19,0-10.79V31.07Zm-21.68-10,2.41,2.17,4.19-3.32L62.36,22l-2.31,1.81-1.7-1.59a.64.64,0,0,1,.07-1l2.65-1.95.9-.68L60,15.21l-.33.17c-1.21.69-2.41,1.39-3.62,2.06a.53.53,0,0,0-.32.55v4.77a.63.63,0,0,1-.3.6,5,5,0,0,0-.49.41l.08.11ZM62.4,69.06l4.19-3.32-.09-.13-.28.2c-.6.46-1.21.92-1.79,1.4a.3.3,0,0,1-.5,0c-.46-.46-.93-.88-1.4-1.32a.66.66,0,0,1,.05-1.1l3.11-2.28.42-.32-1.93-3.34c-1.4.78-2.75,1.53-4.1,2.31a.57.57,0,0,0-.19.43c0,1.49,0,3,0,4.47a1.12,1.12,0,0,1-.54,1.13,1.07,1.07,0,0,0-.22.25l.08.08.77-.6ZM25.18,44.93l.09.11.79-.59,2.41,2.17,4.19-3.32-.11-.14L30.25,45l-1.7-1.6a.65.65,0,0,1-.06-.91l.13-.11,3.29-2.41c.09-.06.17-.14.26-.22l-1.91-3.32c-1.39.78-2.73,1.51-4.07,2.29a.55.55,0,0,0-.21.41q0,2.41,0,4.85a.6.6,0,0,1-.27.57A5.48,5.48,0,0,0,25.18,44.93ZM73.54,46.6c.88-.75,1.78-1.46,2.64-2.22l-.1-.12-.84.67a8.72,8.72,0,0,0-.71-.6.71.71,0,0,1-.3-.65v-5a1.77,1.77,0,0,1,0-.34c1,.85,1.67,1,2.41.45a2.36,2.36,0,0,0,1-2.34c-.63.71-1.29.52-1.93,0l-1.61,1.58-1.42-1.69L70.1,38.68l.1.12.74-.6a6.66,6.66,0,0,0,.48.62,1.36,1.36,0,0,1,.35,1c0,1.11-.06,2.23,0,3.32a1.87,1.87,0,0,1-.86,1.91,1.21,1.21,0,0,0-.23.27l.09.09.74-.65Zm13-1.93c-1.34-2-2.66-4-4-6-.06-.09,0-.25,0-.45.9.58,1.76,1,2.71.45a3.17,3.17,0,0,0,1.37-2.45c-.47.4-.9.75-1.44.66a8.36,8.36,0,0,1-1.45-.53C82.86,37.6,82,38.92,81,40.23a.46.46,0,0,0,0,.6c1.15,1.81,2.29,3.65,3.44,5.48,0,.08.11.15.19.24l2.79-2.45L87.35,44ZM40.07,60.54c.34.38.65.74.95,1.12a.6.6,0,0,1,.1.35v4.66a.79.79,0,0,1-.21.45,5.39,5.39,0,0,1-.52.49l.09.11.79-.62L42.94,69l2.43-2.18-.1-.12-.72.6c-.25-.3-.48-.57-.73-.83a.87.87,0,0,1-.26-.67c0-1.4,0-2.8,0-4.2a.9.9,0,0,1,.41-.86,3.86,3.86,0,0,0,.43-.4l-.09-.1-.82.66-1.76-2L39.3,61l.1.12Zm1.41-2.23,1.85-1.68L41.82,55,40,56.66Z"/><path class="cls-2" d="M54.24,45.88l1.51.3V31.91h.13v1.92l2.61-2.09,1.88,1.66.89-.74.09.09a1.22,1.22,0,0,1-.24.26,1.44,1.44,0,0,0-.67,1.46c0,3.3,0,6.59,0,9.89v.38a2,2,0,0,1-2.5,2.13,16.32,16.32,0,0,1-2.11-.45A10.35,10.35,0,0,0,52.69,46a3.41,3.41,0,0,0-1.12.28,1,1,0,0,0-.6,1.14,1,1,0,0,0,1,.84c.8,0,1.6-.15,2.41-.26,1.14-.16,2.26-.36,3.4-.51a2.58,2.58,0,0,1,1.77.4,2.11,2.11,0,0,1,.35,3.3,3,3,0,0,1-1.64.8c.15-.17.27-.3.37-.43a1,1,0,0,0,.12-1.07.73.73,0,0,0-.85-.35c-.85.12-1.69.28-2.54.41a27.39,27.39,0,0,1-3,.4,2.49,2.49,0,0,1-2.65-2.77,2.29,2.29,0,0,1,1.44-2,.6.6,0,0,0,.38-.63c0-1.64,0-3.28,0-4.92,0-.4-.09-.48-.5-.42s-.71.16-.74.57a2.07,2.07,0,0,0,.24.71,1.24,1.24,0,0,1-1-.6,1.81,1.81,0,0,1,.8-2.7,9.3,9.3,0,0,1,1.17-.35V34.57a2.61,2.61,0,0,0-.12-.74.79.79,0,0,0-.72-.59.8.8,0,0,0-.79.43c-.1.16-.17.33-.27.52A2.45,2.45,0,0,1,52,31.79a2.14,2.14,0,0,1,2.29,2.33V45.41A2.69,2.69,0,0,0,54.24,45.88Zm1.68-2.58V46c0,.23.08.3.3.32a1.41,1.41,0,0,0,1.51-1.46v-4a.83.83,0,0,0-.74-.9h-.13a.88.88,0,0,0-1,.9q0,1.24,0,2.47Zm.63-9.7a1,1,0,0,0-.64,1.1c0,1,0,2,0,2.95a.9.9,0,0,0,1.25.88.69.69,0,0,0,.57-.78h0v-2.8a.6.6,0,0,0-.13-.4c-.34-.33-.71-.64-1.06-.94Zm-.6,4.87v1.61a1.37,1.37,0,0,1,1.76,0V38.48a1.35,1.35,0,0,1-1.75,0Z"/><path class="cls-2" d="M43.05,14v2.55a.6.6,0,0,0,.22.36c.35.3.72.6,1.12.9-.38.3-.73.6-1.1.89a.6.6,0,0,0-.27.54v3.37c.64-.25,1.3-1,2.33-2.57a5.19,5.19,0,0,1,0,.87,5.49,5.49,0,0,1-7.61,4.34,5.82,5.82,0,0,1-3.76-5.31,6.34,6.34,0,0,1,4.59-6.38.5.5,0,0,1,.25,0A5,5,0,0,0,36.69,16l4.22-1.88c0,.16,0,.27,0,.37v5.27a.52.52,0,0,1-.35.54l-3,1.53a1.89,1.89,0,0,0,.16.22,4.14,4.14,0,0,0,4.83.88.49.49,0,0,0,.33-.52c0-1.06,0-2.11,0-3.18a.6.6,0,0,0-.25-.54c-.36-.27-.71-.57-1.11-.9.38-.3.72-.6,1.09-.89a.63.63,0,0,0,.27-.57c0-.79,0-1.59,0-2.33l-5.73-1.47-.3,0a1.15,1.15,0,0,0-1.25.5,1.1,1.1,0,0,0,.12,1.38,1.61,1.61,0,0,1-1.08-1,2.56,2.56,0,0,1,1-3,3.16,3.16,0,0,1,2.58-.42c.93.26,1.86.55,2.8.82.57.16,1.14.3,1.72.44a1.69,1.69,0,0,0,.63,0,.78.78,0,0,0,.69-.66.83.83,0,0,0-.55-.82c-.27-.11-.55-.16-.82-.26a2.61,2.61,0,0,1,2.33.66,2,2,0,0,1,.43,2.22C45.19,13.24,44.48,13.74,43.05,14Zm-5.66,7.74a4.7,4.7,0,0,1,.47-.21.63.63,0,0,0,.47-.73c0-1.61,0-3.23,0-4.84a2.92,2.92,0,0,0,0-.4c-.56.25-1.08.47-1.59.71a.46.46,0,0,0-.2.3,11.65,11.65,0,0,0-.27,1.51A5.71,5.71,0,0,0,37.39,21.71Z"/><path class="cls-2" d="M37.14,57.6v2.55a.54.54,0,0,0,.21.33l1.15.94c-.4.32-.78.62-1.14.94a.59.59,0,0,0-.21.36c0,1.16,0,2.32,0,3.57a6.41,6.41,0,0,0,2.29-2.71,2.17,2.17,0,0,1,.05.3,5.46,5.46,0,0,1-6.75,5.27,5.68,5.68,0,0,1-4.52-4.57,6.41,6.41,0,0,1,4.73-7.47,13.53,13.53,0,0,0-1.28,1.1,11.7,11.7,0,0,0-.88,1.3l.09.1L35,57.75c0,.17,0,.3,0,.41v5.23a.52.52,0,0,1-.35.54c-1,.49-2,1-3.07,1.53l.08.14a4.19,4.19,0,0,0,4.92,1A.5.5,0,0,0,37,66c0-1.07,0-2.15,0-3.22a.73.73,0,0,0-.22-.47c-.35-.32-.73-.6-1.13-.93.4-.33.79-.6,1.14-.94a.68.68,0,0,0,.21-.44c0-.73,0-1.47,0-2.2,0-.19,0-.29-.25-.34-1.67-.4-3.32-.82-5-1.23a5.8,5.8,0,0,0-.78-.16,1.16,1.16,0,0,0-1.28.53A1.06,1.06,0,0,0,29.85,58a1.47,1.47,0,0,1-.9-.67,2.51,2.51,0,0,1,.83-3.42,3.2,3.2,0,0,1,2.65-.41c1.21.34,2.39.71,3.59,1.06a7.59,7.59,0,0,0,1,.21,1.45,1.45,0,0,0,.52,0,.76.76,0,0,0,.65-.65.73.73,0,0,0-.45-.77,6.88,6.88,0,0,0-.9-.3,2.41,2.41,0,0,1,2.81,1.49C40,56.06,39.15,57.16,37.14,57.6Zm-5.63,7.71a4.36,4.36,0,0,1,.46-.22.63.63,0,0,0,.47-.73c0-1.6,0-3.21,0-4.81v-.45c-.58.26-1.09.47-1.58.71a.44.44,0,0,0-.21.28,13.17,13.17,0,0,0-.27,2.27,5.19,5.19,0,0,0,1.12,2.92Z"/><path class="cls-2" d="M23.78,41.34V34.68a3.19,3.19,0,0,1-2.14-.9l-.73.78-.12-.11,2.48-2.83c1.16,1,2.51,1.07,3.1-.4a5,5,0,0,1,.14.7,2.59,2.59,0,0,1-2.16,2.7c-.3.06-.38.16-.38.46q0,5.53,0,11.06c0,.2-.05.52-.17.57-.28.11-.39-.19-.5-.39L17.35,35.49A1.74,1.74,0,0,0,17,35v8.14a4.58,4.58,0,0,1,2.6,1.42l.72-.69.07.06L17.9,46.71a1.84,1.84,0,0,0-.3-.3,5.22,5.22,0,0,0-1.19-.57,1.09,1.09,0,0,0-.71,2.07,6.07,6.07,0,0,0,.62.26,2.35,2.35,0,0,1-2.77-2,2.74,2.74,0,0,1,2.69-3l.56-.05v-3.2c0-.39-.07-.48-.46-.43s-.68.11-.76.45a2.59,2.59,0,0,0,.12.87,1.49,1.49,0,0,1-.85-.49,1.87,1.87,0,0,1,1-3.14l.33-.06c.57-.08.57-.08.57-.64s0-1,0-1.51a1.43,1.43,0,0,0-.67-1.24.74.74,0,0,0-1.21.27,5.59,5.59,0,0,0-.22.53,2.55,2.55,0,0,1,.9-2.7,2.11,2.11,0,0,1,2.66.13,3.89,3.89,0,0,1,.79,1c1.51,2.69,3,5.39,4.46,8.09l.17.29Z"/><path class="cls-2" d="M41.81,38.23l2.11-1.92,1.9,1.57.78-.64.08.08a1.51,1.51,0,0,1-.16.2c-.42.38-.87.74-1.27,1.13a.85.85,0,0,0-.25.53q0,2.22,0,4.43a.51.51,0,0,1-.28.51c-1.38.84-2.75,1.69-4.14,2.55L38.33,44.9l-2.23,1.76-1.51-1.25C34,45,34,45,33.45,45.38l-.29.18L33,45.5a7.61,7.61,0,0,1,.62-.47.62.62,0,0,0,.33-.6q0-2.16,0-4.32a2,2,0,0,0-.79-1.72,2.15,2.15,0,0,1-.93-1.92,2.47,2.47,0,0,1,2.3-2l-.13.14a1.07,1.07,0,0,0,.07,1.78,10.61,10.61,0,0,0,1,.73,1.84,1.84,0,0,1,.86,1.66c0,1.54,0,3.08,0,4.62a.92.92,0,0,0,.43.88c.36.25.69.54,1,.8a.57.57,0,0,0,.41-.63c0-1.67,0-3.33,0-5a1,1,0,0,0-.39-.87,5.54,5.54,0,0,1-.44-.39l2.08-1.84L41.31,38c0,.06,0,.1-.06.12a1.82,1.82,0,0,0-.64,1.7c.05,1.24,0,2.47,0,3.71a.83.83,0,0,0,.37.76c.37.28.72.6,1.09.88a1.83,1.83,0,0,0,.41.18,1.38,1.38,0,0,0,.18-.45V40.39C42.65,39.57,42.86,38.68,41.81,38.23Z"/><path class="cls-2" d="M49.39,60.53a.75.75,0,0,0-.5.82c0,1.49,0,3,0,4.47a1,1,0,0,0,.38.92,3.18,3.18,0,0,1,.36.39l-1.81,1.92-1.9-2.14c.74-.3.6-.9.6-1.46v-3.3a.89.89,0,0,0-.19-.5c-.3-.36-.6-.7-1-1.09l-.79.66-.11-.12L47,58.88l1.77,1.85,2.39-1.86,1.74,1.88,2.47-2,1.73,1.94.92-.68.09.11a1.4,1.4,0,0,1-.27.24,1.21,1.21,0,0,0-.65,1.3c0,1.27,0,2.55,0,3.82a1.05,1.05,0,0,0,.33.87,8,8,0,0,1,.6.66l.65-.56A11.05,11.05,0,0,1,56.34,69l-.93-1-1-1.06c.55-.3.47-.79.47-1.27V62.3a1,1,0,0,0-.22-.56c-.35-.43-.74-.83-1.1-1.22a.81.81,0,0,0-.53.88q0,2.21,0,4.43a1.14,1.14,0,0,0,.41,1,2.26,2.26,0,0,1,.23.25l-1.85,1.85L50.16,67c.65-.3.52-.88.52-1.4V62.3a.72.72,0,0,0-.11-.42Z"/><path class="cls-2" d="M51.77,15.08l1.88,2.08.83-.6.08.11a5,5,0,0,1-.52.42.64.64,0,0,0-.3.63q0,3,0,6.06a3.75,3.75,0,0,1-4.41,3.77l-.11,0a7.17,7.17,0,0,0,.87-.45,2.71,2.71,0,0,0,1.16-2,15.68,15.68,0,0,0,.11-1.58q0-2.5,0-5a1,1,0,0,0-.18-.55c-.3-.41-.62-.79-1-1.21-.47.33-.85.6-.81,1.3.07,1.38.06,2.78,0,4.16a1.35,1.35,0,0,0,.7,1.31l.63-.45.09.12-2.71,2.16c-.46-.43-.93-.83-1.36-1.27-.26-.27-.47-.33-.74,0a1.06,1.06,0,0,1-.24.15l-.07-.07.19-.2c.35-.28.84-.49,1-.86a3.37,3.37,0,0,0,0-1.34V13.5c0-.45-.07-.83-.6-1l3-2.35v7Z"/><path class="cls-2" d="M62.51,44.53l-.68.51L61.71,45a4.67,4.67,0,0,1,.43-.4.66.66,0,0,0,.29-.6V38.88a.49.49,0,0,1,.3-.52c1.19-.6,2.36-1.26,3.53-1.9a.35.35,0,0,1,.49,0c.7.63,1.43,1.25,2.14,1.86l.3.25.73-.65L70,38a1.81,1.81,0,0,1-.27.3,1,1,0,0,0-.43,1c0,1.51,0,3,0,4.54a.46.46,0,0,1-.24.47q-1.92,1.06-3.82,2.17a.33.33,0,0,1-.46-.07Zm2.37-6.94a.79.79,0,0,0-.05.16v5.48a.35.35,0,0,0,.08.24c.64.6,1.29,1.18,2,1.79a.71.71,0,0,0,.05-.15q0-2.71,0-5.43a.45.45,0,0,0-.12-.3l-1.92-1.79Z"/><path class="cls-2" d="M68.79,69.8a2,2,0,0,1-1.45-3.07,14,14,0,0,1,1.11-1.34,4.47,4.47,0,0,1,.46-.4c-.46-.43-.87-.82-1.29-1.19a.68.68,0,0,1-.25-.59c0-.67,0-1.34,0-2a.49.49,0,0,1,.18-.36c1.18-.71,2.37-1.39,3.59-2.11.38.3.76.75,1.38.7s.93-.35,1.07-1.11a1.43,1.43,0,0,1,.13,1.1,5.26,5.26,0,0,1-1.11,2.09l-.33.42c.45.36.88.73,1.32,1.07a.63.63,0,0,1,.28.57c0,.95,0,1.89,0,2.84a.53.53,0,0,1-.2.39c-1.15.72-2.32,1.42-3.51,2.14q-.33-.29-.69-.54a1,1,0,0,0-1.1-.09.6.6,0,0,0-.15,1A5.86,5.86,0,0,0,68.79,69.8Zm1.9-6.32a21.3,21.3,0,0,0-3.1,3.27c1.75-1.28,2.46-1.15,4.07.8V64.44a.3.3,0,0,0-.1-.19l-.87-.76Zm-.17-.12A9.14,9.14,0,0,0,73,60.67c-1.28.93-1.83.83-3.34-.65V62.5a.3.3,0,0,0,.11.19c.26.24.52.45.79.69Z"/><path class="cls-2" d="M77.55,33.31l3.2-2.25V43.21a1.28,1.28,0,0,0,.46,1.12,3.78,3.78,0,0,1,.37.4l.68-.53.1.12-2.6,2.27L78,45l-.73.58-.09-.11a3.46,3.46,0,0,1,.47-.43,1.68,1.68,0,0,0,.76-1.65c0-2.8,0-5.6,0-8.4a4.3,4.3,0,0,0,0-.53A1.16,1.16,0,0,0,77.55,33.31Z"/><path class="cls-2" d="M55.88,23.29l-.8.6L55,23.79a5,5,0,0,1,.49-.43.63.63,0,0,0,.3-.6V18a.53.53,0,0,1,.3-.55c1.21-.67,2.41-1.37,3.62-2.06l.33-.2L62,18.56l-.9.68-2.65,1.95a.64.64,0,0,0-.07,1l1.7,1.59L62.37,22l.1.14-4.19,3.32Zm2.37-6.66-.06,0v4.48l1.89-1.38Z"/><path class="cls-2" d="M62.4,69.06,60,66.89l-.77.6-.08-.08c.07-.09.13-.2.22-.25A1.1,1.1,0,0,0,59.9,66c0-1.49,0-3,0-4.47a.57.57,0,0,1,.19-.43c1.34-.78,2.7-1.53,4.1-2.31l1.93,3.34-.42.32-3.11,2.28a.66.66,0,0,0-.05,1.1c.47.44.95.87,1.4,1.32a.3.3,0,0,0,.5,0c.59-.48,1.19-.94,1.79-1.4l.28-.2.09.13Zm-.09-8.92v4.58l1.89-1.38Z"/><path class="cls-2" d="M25.18,44.93a5.48,5.48,0,0,1,.51-.43.6.6,0,0,0,.27-.57V39.09a.55.55,0,0,1,.21-.41c1.33-.77,2.68-1.51,4.07-2.29l1.91,3.32-.26.22L28.6,42.34a.65.65,0,0,0-.07,1l1.7,1.6,2.32-1.81.11.14L28.46,46.6,26,44.44l-.79.59Zm3.25-7.15-.06,0V42.3l1.89-1.39Z"/><path class="cls-2" d="M73.54,46.6l-2-1.81-.74.65-.09-.09a1.21,1.21,0,0,1,.23-.27,1.88,1.88,0,0,0,.86-1.91c-.07-1.11,0-2.22,0-3.32a1.36,1.36,0,0,0-.35-1c-.17-.18-.3-.4-.48-.62l-.74.6-.1-.12,2.56-2.31,1.42,1.69,1.61-1.58c.64.5,1.29.68,1.93,0a2.37,2.37,0,0,1-1,2.34c-.73.51-1.39.4-2.41-.45,0,.13,0,.24,0,.34v5a.71.71,0,0,0,.3.65c.24.18.46.39.71.6l.84-.67.1.12C75.32,45.14,74.42,45.84,73.54,46.6Z"/><path class="cls-2" d="M86.49,44.67l.83-.68.11.12-2.79,2.45c-.07-.09-.14-.16-.19-.24Q82.73,43.58,81,40.83a.46.46,0,0,1,0-.6c.92-1.31,1.81-2.64,2.68-3.88a8.36,8.36,0,0,0,1.45.53c.54.09,1-.27,1.44-.66a3.2,3.2,0,0,1-1.37,2.45c-.95.54-1.81.13-2.71-.45,0,.2-.05.36,0,.45Z"/><path class="cls-2" d="M40.07,60.54l-.68.54-.1-.12,2.41-2.11,1.76,2,.82-.66.09.1a3.86,3.86,0,0,1-.43.4.9.9,0,0,0-.41.86c0,1.4,0,2.8,0,4.2a.87.87,0,0,0,.26.67c.25.26.48.54.73.83l.72-.6.1.12L42.92,69l-1.68-1.93-.79.62-.09-.11a5.39,5.39,0,0,0,.52-.49.79.79,0,0,0,.21-.45V62a.6.6,0,0,0-.1-.35C40.71,61.28,40.41,60.92,40.07,60.54Z"/><path class="cls-2" d="M41.47,58.32,40,56.66,41.81,55l1.51,1.67Z"/><path class="cls-1" d="M55.92,43.3V40.84a.88.88,0,0,1,.85-.91h.11a.83.83,0,0,1,.87.9v4a1.41,1.41,0,0,1-1.35,1.46h-.16c-.22,0-.3-.09-.3-.32C55.92,45.09,55.92,44.19,55.92,43.3Z"/><path class="cls-1" d="M56.54,33.6c.35.3.71.6,1.06.94a.6.6,0,0,1,.13.4v2.8a.69.69,0,0,1-.56.79h0a.9.9,0,0,1-1.25-.88c0-1,0-2,0-2.95A1,1,0,0,1,56.54,33.6Z"/><path class="cls-1" d="M55.95,38.47a1.35,1.35,0,0,0,1.76,0V40a1.37,1.37,0,0,0-1.76,0Z"/><path class="cls-1" d="M37.39,21.71a5.61,5.61,0,0,1-1.15-3.65,11.65,11.65,0,0,1,.27-1.51.46.46,0,0,1,.2-.3c.51-.25,1-.47,1.59-.71,0,.17,0,.28,0,.4,0,1.61,0,3.23,0,4.84a.63.63,0,0,1-.47.73Z"/><path class="cls-1" d="M31.51,65.3a5.19,5.19,0,0,1-1.14-2.93,13.17,13.17,0,0,1,.27-2.27.44.44,0,0,1,.21-.28c.5-.24,1-.46,1.58-.71v.45c0,1.6,0,3.21,0,4.81a.63.63,0,0,1-.47.73A4.36,4.36,0,0,0,31.51,65.3Z"/><path class="cls-1" d="M64.88,37.61c.66.6,1.29,1.21,1.91,1.78a.45.45,0,0,1,.12.3v5.43a.71.71,0,0,1-.05.15c-.67-.6-1.32-1.21-2-1.79a.35.35,0,0,1-.08-.24q0-2.74,0-5.48A.79.79,0,0,1,64.88,37.61Z"/><path class="cls-1" d="M70.69,63.49c.3.27.6.51.87.76a.3.3,0,0,1,.1.19v3.12c-1.61-2-2.33-2.09-4.07-.8A21.32,21.32,0,0,1,70.69,63.49Z"/><path class="cls-1" d="M70.51,63.37l-.78-.68a.3.3,0,0,1-.11-.19V60c1.51,1.48,2.06,1.58,3.34.65A9.3,9.3,0,0,1,70.51,63.37Z"/><path class="cls-1" d="M58.25,16.63l1.82,3.11-1.89,1.38V16.65Z"/><path class="cls-1" d="M62.31,60.15l1.89,3.2-1.89,1.38Z"/><path class="cls-1" d="M28.43,37.79l1.84,3.12L28.37,42.3V37.81Z"/></g></g></g></g></svg>