<?xml version="1.0" encoding="utf-8"?>
<!-- Generator: Adobe Illustrator 22.0.0, SVG Export Plug-In . SVG Version: 6.00 Build 0)  -->
<svg version="1.1" id="Layer_1" xmlns="http://www.w3.org/2000/svg" xmlns:xlink="http://www.w3.org/1999/xlink" x="0px" y="0px"
	 viewBox="0 0 100 80" style="enable-background:new 0 0 100 80;" xml:space="preserve">
<style type="text/css">
	.st0{fill-opacity:0;}
</style>
<title>newyorktimes-white-square</title>
<g id="Layer_2-2">
	<g id="Layer_1-2-2">
		<path class="st0" d="M0,0h100v80H0V0z M54.2,45.9v-0.5c0-3.8,0-7.5,0-11.3c0.1-1.2-0.7-2.2-1.9-2.3c-0.1,0-0.3,0-0.4,0
			c-1.3,0.1-2.3,1.1-2.3,2.4c0.1-0.2,0.2-0.4,0.3-0.5c0.2-0.3,0.5-0.5,0.8-0.4c0.3,0,0.6,0.3,0.7,0.6c0.1,0.2,0.1,0.5,0.1,0.7v3.3
			c-0.4,0.1-0.8,0.2-1.2,0.3c-0.9,0.4-1.4,1.4-1,2.4c0,0.1,0.1,0.2,0.2,0.3c0.2,0.4,0.6,0.6,1,0.6c-0.1-0.2-0.2-0.5-0.2-0.7
			c0-0.4,0.4-0.5,0.7-0.6s0.5,0,0.5,0.4v4.9c0,0.3-0.1,0.5-0.4,0.6c-0.8,0.3-1.4,1.1-1.4,2c-0.2,1.4,0.8,2.6,2.2,2.8
			c0.1,0,0.3,0,0.4,0c1-0.1,2-0.2,3-0.4c0.8-0.1,1.7-0.3,2.5-0.4c0.3-0.1,0.7,0,0.8,0.3c0.2,0.3,0.1,0.8-0.1,1.1
			c-0.1,0.1-0.2,0.2-0.4,0.4c0.6-0.1,1.2-0.4,1.6-0.8c0.8-0.8,0.9-2.1,0-3c-0.1-0.1-0.2-0.2-0.4-0.3c-0.5-0.3-1.2-0.5-1.8-0.4
			c-1.1,0.1-2.3,0.3-3.4,0.5c-0.8,0.1-1.6,0.2-2.4,0.3c-0.5,0-0.9-0.4-1-0.8c-0.1-0.5,0.1-1,0.6-1.1c0.3-0.2,0.7-0.3,1.1-0.3
			c1.1,0,2.1,0.1,3.1,0.4c0.7,0.2,1.4,0.3,2.1,0.5c1.1,0.3,2.2-0.4,2.4-1.4c0.1-0.2,0.1-0.5,0.1-0.7v-0.4c0-3.3,0-6.6,0-9.9
			c-0.1-0.6,0.2-1.2,0.7-1.5c0.1-0.1,0.2-0.2,0.2-0.3l-0.1-0.1l-0.9,0.7l-1.8-1.7l-2.6,2.1v-1.9h-0.1v14.3L54.2,45.9z M43,14
			c1.4-0.2,2.1-0.7,2.4-1.7c0.3-0.8,0.2-1.7-0.5-2.2c-0.6-0.6-1.5-0.8-2.3-0.7c0.3,0.1,0.5,0.1,0.8,0.3c0.3,0.1,0.6,0.5,0.5,0.8
			c0,0.4-0.3,0.6-0.7,0.7c-0.2,0-0.4,0-0.6,0c-0.6-0.1-1.2-0.3-1.7-0.4c-0.9-0.3-1.9-0.6-2.8-0.8c-0.9-0.2-1.8-0.1-2.6,0.4
			c-1,0.6-1.4,1.9-1,3c0.2,0.5,0.6,0.9,1.1,1c-0.3-0.4-0.4-0.9-0.1-1.3c0.3-0.4,0.8-0.6,1.2-0.5h0.3l5.7,1.5v2.3
			c0,0.2-0.1,0.4-0.3,0.6c-0.4,0.3-0.7,0.6-1.1,0.9c0.4,0.3,0.7,0.6,1.1,0.9c0.2,0.1,0.3,0.3,0.2,0.5c0,1.1,0,2.1,0,3.2
			c0,0.2-0.1,0.4-0.3,0.5c-1.6,0.8-3.6,0.4-4.8-0.9c-0.1-0.1-0.1-0.1-0.2-0.2c1-0.5,2-1,3.1-1.5c0.2-0.1,0.4-0.3,0.3-0.5v-5.2
			c0-0.1,0-0.2,0-0.4L36.8,16c0.4-1,1.1-1.9,2.1-2.5c-0.1,0-0.2,0-0.2,0c-2.8,0.8-4.7,3.5-4.6,6.4c0.1,2.4,1.5,4.5,3.8,5.3
			c2.8,1.2,6-0.1,7.2-2.9c0.2-0.5,0.3-1,0.4-1.5c0-0.3,0-0.6,0-0.9c-1,1.6-1.7,2.3-2.3,2.6v-3.4c0-0.2,0.1-0.4,0.3-0.5
			c0.4-0.3,0.7-0.6,1.1-0.9c-0.4-0.3-0.8-0.6-1.1-0.9c-0.1-0.1-0.2-0.2-0.2-0.4C43,15.7,43,14.8,43,14z M37.1,57.6
			c2-0.4,2.9-1.5,2.5-3.1c-0.4-1.1-1.6-1.8-2.8-1.5c0.3,0.1,0.6,0.2,0.9,0.3c0.3,0.1,0.5,0.4,0.5,0.8c0,0.3-0.3,0.6-0.7,0.7
			c-0.2,0-0.3,0-0.5,0c-0.3,0-0.7-0.1-1-0.2c-1.2-0.3-2.4-0.7-3.6-1.1c-0.9-0.3-1.9-0.1-2.6,0.4c-1.2,0.7-1.5,2.2-0.8,3.4
			c0.2,0.3,0.6,0.6,0.9,0.7c-0.4-0.3-0.5-0.9-0.2-1.4c0.3-0.4,0.8-0.7,1.3-0.5c0.3,0,0.5,0.1,0.8,0.2c1.7,0.4,3.3,0.8,5,1.2
			c0.2,0,0.2,0.2,0.2,0.3V60c0,0.2-0.1,0.3-0.2,0.4c-0.3,0.3-0.7,0.6-1.1,0.9c0.4,0.3,0.8,0.6,1.1,0.9c0.1,0.1,0.2,0.3,0.2,0.5
			c0,1.1,0,2.2,0,3.2c0,0.2-0.1,0.4-0.3,0.5c-1.7,0.8-3.7,0.4-4.9-1c0,0-0.1-0.1-0.1-0.2c1-0.5,2-1,3.1-1.5c0.2-0.1,0.4-0.3,0.3-0.5
			v-5.2c0-0.1,0-0.3,0-0.4l-4.2,1.9l-0.1-0.1c0.3-0.4,0.5-0.9,0.9-1.3c0.4-0.4,0.8-0.8,1.3-1.1c-3.3,0.8-5.4,4.1-4.7,7.5
			c0.4,2.3,2.2,4.1,4.5,4.6c2.9,0.7,5.9-1.1,6.6-4c0.1-0.4,0.1-0.8,0.2-1.2c0-0.1,0-0.2,0-0.3c-0.5,1.1-1.3,2-2.3,2.7v-3.6
			c0-0.1,0.1-0.3,0.2-0.4c0.4-0.3,0.8-0.6,1.1-0.9c-0.4-0.3-0.8-0.6-1.2-0.9c-0.1-0.1-0.2-0.2-0.2-0.3
			C37.1,59.3,37.1,58.5,37.1,57.6z M23.8,41.3L23.8,41.3L23.6,41c-1.5-2.7-3-5.4-4.5-8.1c-0.2-0.4-0.5-0.7-0.8-1
			c-0.7-0.7-1.9-0.7-2.7-0.1c-0.8,0.6-1.2,1.7-0.9,2.7c0.1-0.2,0.1-0.4,0.2-0.5c0.1-0.4,0.6-0.6,1-0.4c0.1,0,0.2,0.1,0.3,0.2
			c0.4,0.3,0.7,0.8,0.6,1.3c0,0.5,0,1,0,1.5s0,0.6-0.6,0.6l-0.3,0.1c-1,0.2-1.7,1.2-1.5,2.2c0.1,0.4,0.2,0.7,0.5,1
			c0.2,0.3,0.5,0.4,0.9,0.5c-0.1-0.3-0.1-0.6-0.1-0.9c0.1-0.3,0.4-0.4,0.8-0.5s0.5,0,0.5,0.4v3.2l-0.6,0c-1.5,0-2.7,1.3-2.7,2.8
			c0,0.1,0,0.1,0,0.2c0.2,1.3,1.4,2.2,2.6,2c0,0,0.1,0,0.1,0c-0.2-0.1-0.4-0.2-0.6-0.3c-0.6-0.2-0.8-0.9-0.6-1.4
			c0.2-0.5,0.8-0.8,1.3-0.6c0.4,0.1,0.8,0.3,1.2,0.6c0.1,0.1,0.2,0.2,0.3,0.3l2.5-2.8l-0.1-0.1l-0.7,0.7C19,43.8,18,43.3,17,43.2V35
			c0.1,0.1,0.3,0.3,0.3,0.5l6,10.9c0.1,0.2,0.2,0.5,0.5,0.4c0.1,0,0.2-0.4,0.2-0.6V35.1c0-0.3,0.1-0.4,0.4-0.5
			c1.3-0.2,2.2-1.4,2.2-2.7c0-0.2-0.1-0.5-0.1-0.7c-0.6,1.5-1.9,1.4-3.1,0.4l-2.5,2.8l0.1,0.1l0.7-0.8c0.6,0.6,1.3,0.9,2.1,0.9
			L23.8,41.3z M41.8,38.2c1.1,0.5,0.8,1.3,0.8,2.2v4.5c0,0.2-0.1,0.3-0.2,0.5c-0.1,0-0.3-0.1-0.4-0.2c-0.4-0.3-0.7-0.6-1.1-0.9
			c-0.3-0.2-0.4-0.5-0.4-0.8c0-1.2,0-2.5,0-3.7c-0.1-0.6,0.1-1.3,0.6-1.7c0,0,0-0.1,0.1-0.1l-1.8-1.6l-2.1,1.8
			c0.1,0.1,0.3,0.3,0.4,0.4c0.3,0.2,0.4,0.5,0.4,0.9c0,1.7,0,3.3,0,5c0,0.3-0.1,0.6-0.4,0.6c-0.3-0.3-0.7-0.5-1-0.8
			c-0.3-0.2-0.5-0.5-0.4-0.9c0-1.5,0-3.1,0-4.6c0-0.7-0.3-1.3-0.9-1.7c-0.3-0.2-0.7-0.5-1-0.7c-0.5-0.3-0.7-0.9-0.4-1.5
			c0.1-0.1,0.2-0.2,0.3-0.3l0.1-0.1c-1.1,0.1-2.1,0.9-2.3,2c-0.1,0.8,0.3,1.5,0.9,1.9c0.6,0.4,0.9,1.1,0.8,1.7c0,1.4,0,2.9,0,4.3
			c0,0.2-0.1,0.5-0.3,0.6c-0.2,0.1-0.4,0.3-0.6,0.5c0.1,0,0.1,0.1,0.1,0.1l0.3-0.2c0.6-0.4,0.6-0.4,1.1,0l1.5,1.2l2.2-1.8l2.2,1.8
			c1.4-0.8,2.7-1.6,4.1-2.5c0.2-0.1,0.3-0.3,0.3-0.5v-4.4c0-0.2,0.1-0.4,0.2-0.5c0.4-0.4,0.8-0.8,1.3-1.1c0.1-0.1,0.1-0.1,0.2-0.2
			l-0.1-0.1l-0.8,0.6l-1.9-1.6L41.8,38.2z M49.4,60.5c0.4,0.5,0.8,0.9,1.2,1.4c0.1,0.1,0.1,0.3,0.1,0.4v3.3c0,0.5,0.1,1.1-0.5,1.4
			l1.7,1.9l1.8-1.8c-0.1-0.1-0.1-0.2-0.2-0.2c-0.3-0.2-0.5-0.6-0.4-1c0-1.5,0-3,0-4.4c-0.1-0.4,0.2-0.8,0.5-0.9
			c0.4,0.4,0.8,0.8,1.1,1.2c0.1,0.2,0.2,0.4,0.2,0.6c0,1.1,0,2.2,0,3.3c0,0.5,0.1,1-0.5,1.3l1,1.1l0.9,1c0.9-0.7,1.8-1.5,2.5-2.5
			l-0.7,0.6c-0.2-0.2-0.4-0.5-0.6-0.7c-0.2-0.2-0.4-0.5-0.3-0.9c0-1.3,0-2.5,0-3.8c-0.1-0.5,0.2-1.1,0.7-1.3
			c0.1-0.1,0.2-0.1,0.3-0.2L58,60.1l-0.9,0.7l-1.7-2l-2.5,2l-1.7-1.9l-2.4,1.9L47,58.9l-2.5,2.2l0.1,0.1l0.8-0.7
			c0.3,0.4,0.7,0.7,1,1.1c0.1,0.1,0.2,0.3,0.2,0.5c0,1.1,0,2.2,0,3.3c0,0.6,0.1,1.2-0.6,1.5l1.9,2.1l1.8-1.9
			c-0.1-0.1-0.2-0.3-0.4-0.4c-0.3-0.2-0.4-0.6-0.4-0.9c0-1.5,0-3,0-4.5C48.9,61,49.1,60.6,49.4,60.5L49.4,60.5z M51.7,15.1l-2.4,2.1
			v-7l-3,2.4c0.4,0.2,0.7,0.6,0.6,1v8.2c0.1,0.4,0.1,0.9,0,1.3c-0.2,0.4-0.7,0.6-1,0.9l-0.2,0.2l0.1,0.1c0.1,0,0.1-0.1,0.2-0.2
			c0.3-0.3,0.5-0.2,0.7,0c0.4,0.4,0.9,0.8,1.4,1.3l2.7-2.2L50.7,23l-0.7,0.5c-0.5-0.3-0.7-0.8-0.7-1.3c0-1.4,0.1-2.8,0-4.2
			c0-0.7,0.3-1,0.8-1.3c0.3,0.4,0.7,0.8,1,1.2c0.1,0.2,0.2,0.4,0.2,0.5c0,1.7,0,3.3,0,5c0,0.5,0,1.1-0.1,1.6c-0.1,0.8-0.5,1.5-1.2,2
			c-0.3,0.2-0.6,0.3-0.9,0.5h0.1c2,0.4,4-1,4.4-3c0-0.2,0.1-0.5,0.1-0.7c0-2,0-4,0-6.1c0-0.3,0.1-0.5,0.3-0.6
			c0.2-0.1,0.4-0.3,0.5-0.4l-0.1-0.1l-0.8,0.6L51.7,15.1z M62.5,44.5l2.3,1.9c0.1,0.1,0.3,0.2,0.5,0.1c1.3-0.7,2.5-1.5,3.8-2.2
			c0.2-0.1,0.3-0.3,0.3-0.5v-4.5c-0.1-0.4,0.1-0.8,0.4-1c0.1-0.1,0.2-0.2,0.3-0.3h-0.1l-0.7,0.7l-0.3-0.2c-0.7-0.6-1.4-1.2-2.1-1.9
			c-0.1-0.1-0.4-0.1-0.5,0c-1.2,0.7-2.3,1.3-3.5,1.9c-0.2,0.1-0.3,0.3-0.3,0.5v5c0,0.2-0.1,0.5-0.3,0.6c-0.2,0.1-0.3,0.3-0.4,0.4
			l0.1,0.1C62.1,44.9,62.3,44.7,62.5,44.5L62.5,44.5z M68.8,69.8c-0.2-0.1-0.4-0.3-0.6-0.4c-0.2-0.2-0.3-0.6-0.1-0.8
			c0.1-0.1,0.1-0.1,0.2-0.2c0.4-0.2,0.8-0.2,1.1,0.1c0.2,0.2,0.5,0.3,0.7,0.5c1.2-0.7,2.3-1.4,3.5-2.1c0.1-0.1,0.2-0.2,0.2-0.4
			c0-0.9,0-1.9,0-2.8c0-0.2-0.1-0.5-0.3-0.6c-0.4-0.3-0.9-0.7-1.3-1.1l0.3-0.4c0.5-0.6,0.9-1.3,1.1-2.1c0.1-0.4,0.1-0.8-0.1-1.1
			c-0.1,0.8-0.4,1.1-1.1,1.1c-0.5,0-1-0.3-1.4-0.7c-1.2,0.7-2.4,1.4-3.6,2.1c-0.1,0.1-0.2,0.2-0.2,0.4c0,0.7,0,1.3,0,2
			c0,0.2,0.1,0.4,0.2,0.6c0.4,0.4,0.8,0.8,1.3,1.2c-0.2,0.1-0.3,0.3-0.5,0.4c-0.4,0.4-0.8,0.9-1.1,1.3c-0.6,0.9-0.3,2.2,0.6,2.8
			C68.2,69.7,68.5,69.8,68.8,69.8z M77.6,33.3c0.5,0.1,0.8,0.6,0.8,1.1c0,0.2,0,0.4,0,0.5c0,2.8,0,5.6,0,8.4
			c0.1,0.6-0.2,1.3-0.7,1.7c-0.2,0.1-0.3,0.3-0.5,0.4l0.1,0.1L78,45l1.7,1.6l2.6-2.3l-0.1-0.1l-0.7,0.5c-0.1-0.1-0.2-0.3-0.4-0.4
			c-0.3-0.3-0.5-0.7-0.5-1.1c0-3.6,0-7.2,0-10.8v-1.4L77.6,33.3z M55.9,23.3l2.4,2.2l4.2-3.3L62.4,22L60,23.8l-1.7-1.6
			c-0.3-0.2-0.3-0.6,0-0.9c0,0,0.1-0.1,0.1-0.1l2.7-2l0.9-0.7l-2-3.4l-0.3,0.2c-1.2,0.7-2.4,1.4-3.6,2.1c-0.2,0.1-0.3,0.3-0.3,0.5
			v4.8c0,0.2-0.1,0.5-0.3,0.6c-0.2,0.1-0.3,0.3-0.5,0.4l0.1,0.1L55.9,23.3z M62.4,69.1l4.2-3.3l-0.1-0.1l-0.3,0.2
			c-0.6,0.5-1.2,0.9-1.8,1.4c-0.1,0.1-0.3,0.2-0.4,0.1c0,0-0.1-0.1-0.1-0.1c-0.5-0.5-0.9-0.9-1.4-1.3c-0.3-0.2-0.4-0.6-0.1-0.9
			c0.1-0.1,0.1-0.1,0.2-0.2l3.1-2.3l0.4-0.3l-1.9-3.3c-1.4,0.8-2.8,1.5-4.1,2.3c-0.1,0.1-0.2,0.3-0.2,0.4c0,1.5,0,3,0,4.5
			c0.1,0.5-0.1,0.9-0.5,1.1c-0.1,0.1-0.2,0.2-0.2,0.2l0.1,0.1l0.8-0.6L62.4,69.1z M25.2,44.9l0.1,0.1l0.8-0.6l2.4,2.2l4.2-3.3
			l-0.1-0.1L30.2,45l-1.7-1.6c-0.3-0.2-0.3-0.6-0.1-0.9l0.1-0.1l3.3-2.4c0.1-0.1,0.2-0.1,0.3-0.2l-1.9-3.3c-1.4,0.8-2.7,1.5-4.1,2.3
			C26.1,38.8,26,39,26,39.1c0,1.6,0,3.2,0,4.8c0,0.2-0.1,0.4-0.3,0.6C25.5,44.7,25.3,44.8,25.2,44.9z M73.5,46.6
			c0.9-0.8,1.8-1.5,2.6-2.2l-0.1-0.1l-0.8,0.7c-0.2-0.2-0.5-0.4-0.7-0.6c-0.2-0.1-0.3-0.4-0.3-0.7v-5c0-0.1,0-0.2,0-0.3
			c1,0.8,1.7,1,2.4,0.5c0.8-0.5,1.2-1.4,1-2.3c-0.6,0.7-1.3,0.5-1.9,0L74.1,38l-1.4-1.7l-2.6,2.3l0.1,0.1l0.7-0.6
			c0.1,0.2,0.3,0.4,0.5,0.6c0.2,0.3,0.4,0.6,0.3,1c0,1.1-0.1,2.2,0,3.3c0.1,0.8-0.2,1.5-0.9,1.9c-0.1,0.1-0.2,0.2-0.2,0.3l0.1,0.1
			l0.7-0.7L73.5,46.6z M86.5,44.7c-1.3-2-2.7-4-4-6c-0.1-0.1,0-0.2,0-0.5c0.9,0.6,1.8,1,2.7,0.5c0.8-0.6,1.3-1.5,1.4-2.5
			c-0.5,0.4-0.9,0.8-1.4,0.7c-0.5-0.1-1-0.3-1.4-0.5c-0.9,1.2-1.7,2.6-2.7,3.9c-0.1,0.2-0.1,0.4,0,0.6c1.2,1.8,2.3,3.7,3.4,5.5
			c0,0.1,0.1,0.2,0.2,0.2l2.8-2.5L87.3,44L86.5,44.7z M40.1,60.5c0.3,0.4,0.7,0.7,1,1.1c0.1,0.1,0.1,0.2,0.1,0.3v4.7
			c0,0.2-0.1,0.3-0.2,0.4c-0.2,0.2-0.3,0.3-0.5,0.5l0.1,0.1l0.8-0.6l1.7,1.9l2.4-2.2l-0.1-0.1l-0.7,0.6c-0.2-0.3-0.5-0.6-0.7-0.8
			c-0.2-0.2-0.3-0.4-0.3-0.7c0-1.4,0-2.8,0-4.2c0-0.3,0.1-0.7,0.4-0.9c0.2-0.1,0.3-0.3,0.4-0.4l-0.1-0.1l-0.8,0.7l-1.8-2L39.3,61
			l0.1,0.1L40.1,60.5z M41.5,58.3l1.8-1.7L41.8,55L40,56.7L41.5,58.3z"/>
		<path d="M54.2,45.9l1.5,0.3V31.9h0.1v1.9l2.6-2.1l1.9,1.7l0.9-0.7l0.1,0.1c-0.1,0.1-0.1,0.2-0.2,0.3c-0.5,0.3-0.8,0.9-0.7,1.5
			c0,3.3,0,6.6,0,9.9v0.4c0.1,1.1-0.7,2.1-1.8,2.2c-0.2,0-0.5,0-0.7-0.1c-0.7-0.1-1.4-0.3-2.1-0.5c-1-0.3-2.1-0.4-3.1-0.4
			c-0.4,0-0.8,0.1-1.1,0.3c-0.5,0.2-0.7,0.7-0.6,1.1c0.1,0.5,0.5,0.8,1,0.8c0.8,0,1.6-0.2,2.4-0.3c1.1-0.2,2.3-0.4,3.4-0.5
			c0.6-0.1,1.2,0.1,1.8,0.4c1,0.6,1.3,1.9,0.7,2.9c-0.1,0.1-0.2,0.3-0.3,0.4c-0.5,0.4-1,0.7-1.6,0.8c0.2-0.2,0.3-0.3,0.4-0.4
			c0.2-0.3,0.3-0.7,0.1-1.1c-0.2-0.3-0.5-0.4-0.8-0.3c-0.8,0.1-1.7,0.3-2.5,0.4c-1,0.2-2,0.3-3,0.4C51,51,49.8,50,49.7,48.6
			c0-0.2,0-0.3,0-0.5c0-0.9,0.6-1.7,1.4-2c0.3-0.1,0.4-0.4,0.4-0.6c0-1.6,0-3.3,0-4.9c0-0.4-0.1-0.5-0.5-0.4s-0.7,0.2-0.7,0.6
			c0,0.2,0.1,0.5,0.2,0.7c-0.4,0-0.8-0.2-1-0.6c-0.6-0.8-0.4-2,0.5-2.5c0.1-0.1,0.2-0.1,0.3-0.2c0.4-0.1,0.8-0.3,1.2-0.3v-3.3
			c0-0.3,0-0.5-0.1-0.7c-0.1-0.3-0.4-0.6-0.7-0.6c-0.3,0-0.6,0.1-0.8,0.4c-0.1,0.2-0.2,0.3-0.3,0.5c0-1.3,1.1-2.4,2.4-2.4
			c1.2-0.1,2.2,0.8,2.3,2c0,0.1,0,0.2,0,0.4v11.3C54.3,45.6,54.2,45.7,54.2,45.9z M55.9,43.3V46c0,0.2,0.1,0.3,0.3,0.3
			c0.8,0.1,1.5-0.5,1.5-1.3c0-0.1,0-0.1,0-0.2v-4c0-0.5-0.3-0.9-0.7-0.9h-0.1c-0.5-0.1-0.9,0.3-1,0.8c0,0,0,0.1,0,0.1
			C55.9,41.7,55.9,42.5,55.9,43.3L55.9,43.3z M56.6,33.6c-0.4,0.2-0.7,0.6-0.6,1.1c0,1,0,2,0,3c0,0.5,0.4,0.9,0.8,0.9
			c0.1,0,0.3,0,0.4-0.1c0.4-0.1,0.6-0.4,0.6-0.8l0,0V35c0-0.1,0-0.3-0.1-0.4C57.3,34.2,56.9,33.9,56.6,33.6L56.6,33.6z M56,38.5v1.6
			c0.5-0.4,1.3-0.4,1.8,0v-1.6C57.2,38.9,56.5,38.9,56,38.5L56,38.5z"/>
		<path d="M43,14v2.5c0,0.1,0.1,0.3,0.2,0.4c0.3,0.3,0.7,0.6,1.1,0.9c-0.4,0.3-0.7,0.6-1.1,0.9C43.1,18.8,43,19,43,19.2v3.4
			c0.6-0.2,1.3-1,2.3-2.6c0,0.3,0,0.6,0,0.9c-0.4,3-3.1,5.1-6.1,4.7c-0.5-0.1-1-0.2-1.5-0.4c-2.2-0.8-3.7-2.9-3.8-5.3
			c-0.1-2.9,1.8-5.6,4.6-6.4c0.1,0,0.2,0,0.2,0c-1,0.6-1.7,1.4-2.1,2.4l4.2-1.9c0,0.2,0,0.3,0,0.4v5.3c0,0.2-0.1,0.5-0.3,0.5l-3,1.5
			c0,0.1,0.1,0.2,0.2,0.2c1.2,1.3,3.2,1.7,4.8,0.9c0.2-0.1,0.4-0.3,0.3-0.5c0-1.1,0-2.1,0-3.2c0-0.2-0.1-0.4-0.2-0.5
			c-0.4-0.3-0.7-0.6-1.1-0.9c0.4-0.3,0.7-0.6,1.1-0.9c0.2-0.1,0.3-0.3,0.3-0.6c0-0.8,0-1.6,0-2.3l-5.7-1.5h-0.3
			c-0.5-0.1-1,0.1-1.2,0.5c-0.3,0.4-0.2,1,0.1,1.4c-0.5-0.1-0.9-0.5-1.1-1c-0.4-1.1,0-2.4,1-3c0.8-0.5,1.7-0.7,2.6-0.4
			c0.9,0.3,1.9,0.6,2.8,0.8c0.6,0.2,1.1,0.3,1.7,0.4c0.2,0,0.4,0,0.6,0c0.4,0,0.6-0.3,0.7-0.7c0-0.4-0.2-0.7-0.5-0.8
			c-0.3-0.1-0.5-0.2-0.8-0.3c0.8-0.2,1.7,0.1,2.3,0.7c0.6,0.6,0.8,1.5,0.4,2.2C45.2,13.2,44.5,13.7,43,14z M37.4,21.7
			c0.2-0.1,0.3-0.1,0.5-0.2c0.3-0.1,0.5-0.4,0.5-0.7c0-1.6,0-3.2,0-4.8c0-0.1,0-0.3,0-0.4c-0.6,0.2-1.1,0.5-1.6,0.7
			c-0.1,0.1-0.2,0.2-0.2,0.3c-0.1,0.5-0.2,1-0.3,1.5C36.2,19.4,36.6,20.7,37.4,21.7L37.4,21.7z"/>
		<path d="M37.1,57.6v2.5c0,0.1,0.1,0.3,0.2,0.3l1.2,0.9c-0.4,0.3-0.8,0.6-1.1,0.9c-0.1,0.1-0.2,0.2-0.2,0.4c0,1.2,0,2.3,0,3.6
			c1-0.7,1.8-1.6,2.3-2.7c0,0.1,0,0.2,0,0.3c0,3-2.5,5.4-5.5,5.4c-0.4,0-0.8-0.1-1.3-0.2c-2.3-0.4-4.1-2.3-4.5-4.6
			c-0.7-3.4,1.4-6.6,4.7-7.5c-0.4,0.3-0.9,0.7-1.3,1.1c-0.3,0.4-0.6,0.8-0.9,1.3l0.1,0.1l4.1-1.9c0,0.2,0,0.3,0,0.4v5.2
			c0,0.2-0.1,0.5-0.3,0.5c-1,0.5-2,1-3.1,1.5l0.1,0.1c1.2,1.4,3.2,1.8,4.9,1c0.3,0,0.5-0.3,0.4-0.6c0,0,0,0,0,0c0-1.1,0-2.2,0-3.2
			c0-0.2-0.1-0.3-0.2-0.5c-0.3-0.3-0.7-0.6-1.1-0.9c0.4-0.3,0.8-0.6,1.1-0.9c0.1-0.1,0.2-0.3,0.2-0.4c0-0.7,0-1.5,0-2.2
			c0-0.2,0-0.3-0.2-0.3c-1.7-0.4-3.3-0.8-5-1.2c-0.3-0.1-0.5-0.1-0.8-0.2c-0.5-0.1-1,0.1-1.3,0.5c-0.3,0.4-0.2,1,0.2,1.4
			c-0.4-0.1-0.7-0.3-0.9-0.7c-0.7-1.2-0.3-2.7,0.8-3.4c0.8-0.5,1.7-0.7,2.6-0.4c1.2,0.3,2.4,0.7,3.6,1.1c0.3,0.1,0.7,0.2,1,0.2
			c0.2,0,0.3,0,0.5,0c0.3,0,0.6-0.3,0.7-0.7c0-0.3-0.1-0.6-0.5-0.8c-0.3-0.1-0.6-0.2-0.9-0.3c1.2-0.3,2.4,0.4,2.8,1.5
			C40,56.1,39.2,57.2,37.1,57.6z M31.5,65.3c0.1-0.1,0.3-0.2,0.5-0.2c0.3-0.1,0.5-0.4,0.5-0.7c0-1.6,0-3.2,0-4.8v-0.5
			c-0.6,0.3-1.1,0.5-1.6,0.7c-0.1,0.1-0.2,0.2-0.2,0.3c-0.2,0.7-0.2,1.5-0.3,2.3C30.4,63.4,30.8,64.4,31.5,65.3L31.5,65.3z"/>
		<path d="M23.8,41.3v-6.7c-0.8,0-1.6-0.3-2.1-0.9l-0.7,0.8l-0.1-0.1l2.5-2.8c1.2,1,2.5,1.1,3.1-0.4c0.1,0.2,0.1,0.5,0.1,0.7
			c0.1,1.3-0.9,2.5-2.2,2.7c-0.3,0.1-0.4,0.2-0.4,0.5c0,3.7,0,7.4,0,11.1c0,0.2,0,0.5-0.2,0.6c-0.3,0.1-0.4-0.2-0.5-0.4l-6-10.8
			c-0.1-0.2-0.2-0.3-0.4-0.5v8.1c1,0.2,1.9,0.7,2.6,1.4l0.7-0.7l0.1,0.1l-2.5,2.8c-0.1-0.1-0.2-0.2-0.3-0.3
			c-0.4-0.2-0.8-0.4-1.2-0.6c-0.6-0.2-1.2,0.1-1.4,0.7c-0.2,0.6,0.1,1.2,0.7,1.4c0.2,0.1,0.4,0.2,0.6,0.3c-1.3,0.2-2.5-0.6-2.7-1.9
			c0,0,0-0.1,0-0.1c-0.1-1.5,1-2.8,2.5-3c0.1,0,0.1,0,0.2,0l0.6,0v-3.2c0-0.4-0.1-0.5-0.5-0.4s-0.7,0.1-0.8,0.5c0,0.3,0,0.6,0.1,0.9
			c-0.3-0.1-0.6-0.2-0.9-0.5c-0.7-0.7-0.7-1.9,0-2.6c0.3-0.3,0.6-0.4,1-0.5l0.3-0.1c0.6-0.1,0.6-0.1,0.6-0.6s0-1,0-1.5
			c0-0.5-0.2-1-0.7-1.2c-0.3-0.3-0.8-0.3-1,0c-0.1,0.1-0.1,0.2-0.2,0.3c-0.1,0.2-0.2,0.3-0.2,0.5c-0.3-1,0.1-2.1,0.9-2.7
			c0.8-0.6,1.9-0.5,2.7,0.1c0.3,0.3,0.6,0.6,0.8,1c1.5,2.7,3,5.4,4.5,8.1l0.2,0.3L23.8,41.3z"/>
		<path d="M41.8,38.2l2.1-1.9l1.9,1.6l0.8-0.6l0.1,0.1c0,0.1-0.1,0.1-0.2,0.2c-0.4,0.4-0.9,0.7-1.3,1.1C45.1,38.8,45,39,45,39.2
			c0,1.5,0,3,0,4.4c0,0.2-0.1,0.4-0.3,0.5c-1.4,0.8-2.8,1.7-4.1,2.5l-2.3-1.8l-2.2,1.8l-1.5-1.2C34,45,34,45,33.5,45.4l-0.3,0.2
			L33,45.5c0.2-0.2,0.4-0.3,0.6-0.5c0.2-0.1,0.4-0.4,0.3-0.6c0-1.4,0-2.9,0-4.3c0-0.7-0.3-1.3-0.8-1.7c-0.6-0.4-1-1.2-0.9-1.9
			c0.2-1.1,1.2-1.9,2.3-2l-0.1,0.1c-0.5,0.3-0.6,1-0.2,1.5c0.1,0.1,0.2,0.2,0.3,0.3c0.3,0.3,0.7,0.5,1,0.7c0.6,0.4,0.9,1,0.9,1.7
			c0,1.5,0,3.1,0,4.6c0,0.4,0.1,0.7,0.4,0.9c0.4,0.2,0.7,0.5,1,0.8c0.3-0.1,0.5-0.3,0.4-0.6c0-1.7,0-3.3,0-5c0-0.3-0.1-0.7-0.4-0.9
			c-0.2-0.1-0.3-0.3-0.4-0.4l2.1-1.8l1.9,1.7c0,0.1,0,0.1-0.1,0.1c-0.5,0.4-0.7,1.1-0.6,1.7c0,1.2,0,2.5,0,3.7
			c0,0.3,0.1,0.6,0.4,0.8c0.4,0.3,0.7,0.6,1.1,0.9c0.1,0.1,0.3,0.1,0.4,0.2c0.1-0.1,0.1-0.3,0.2-0.5v-4.5
			C42.7,39.6,42.9,38.7,41.8,38.2z"/>
		<path d="M49.4,60.5c-0.3,0.1-0.6,0.5-0.5,0.8c0,1.5,0,3,0,4.5c0,0.4,0.1,0.7,0.4,0.9c0.1,0.1,0.3,0.3,0.4,0.4L47.8,69l-1.9-2.1
			c0.7-0.3,0.6-0.9,0.6-1.5v-3.3c0-0.2-0.1-0.4-0.2-0.5c-0.3-0.4-0.6-0.7-1-1.1l-0.8,0.7l-0.1-0.1l2.6-2.2l1.8,1.8l2.4-1.9l1.7,1.9
			l2.5-2l1.7,1.9L58,60l0.1,0.1c-0.1,0.1-0.2,0.2-0.3,0.2c-0.5,0.2-0.7,0.8-0.7,1.3c0,1.3,0,2.5,0,3.8c0,0.3,0.1,0.6,0.3,0.9
			c0.2,0.2,0.4,0.4,0.6,0.7l0.7-0.6c-0.7,1-1.5,1.8-2.4,2.5l-0.9-1l-1-1.1c0.5-0.3,0.5-0.8,0.5-1.3v-3.4c0-0.2-0.1-0.4-0.2-0.6
			c-0.3-0.4-0.7-0.8-1.1-1.2C53.2,60.6,53,61,53,61.4c0,1.5,0,3,0,4.4c0,0.4,0.1,0.8,0.4,1c0.1,0.1,0.2,0.2,0.2,0.2l-1.8,1.8
			L50.2,67c0.7-0.3,0.5-0.9,0.5-1.4v-3.3c0-0.1,0-0.3-0.1-0.4L49.4,60.5z"/>
		<path d="M51.8,15.1l1.9,2.1l0.8-0.6l0.1,0.1c-0.2,0.2-0.3,0.3-0.5,0.4c-0.2,0.1-0.3,0.4-0.3,0.6c0,2,0,4,0,6.1
			c0,2.1-1.6,3.8-3.7,3.8c-0.2,0-0.5,0-0.7-0.1h-0.1c0.3-0.1,0.6-0.3,0.9-0.5c0.7-0.5,1.1-1.2,1.2-2c0.1-0.5,0.1-1.1,0.1-1.6
			c0-1.7,0-3.3,0-5c0-0.2-0.1-0.4-0.2-0.5c-0.3-0.4-0.6-0.8-1-1.2c-0.5,0.3-0.8,0.6-0.8,1.3c0.1,1.4,0.1,2.8,0,4.2
			c0,0.5,0.2,1.1,0.7,1.3l0.6-0.5l0.1,0.1l-2.7,2.2c-0.5-0.4-0.9-0.8-1.4-1.3c-0.3-0.3-0.5-0.3-0.7,0c-0.1,0.1-0.2,0.1-0.2,0.1
			l-0.1-0.1l0.2-0.2c0.3-0.3,0.8-0.5,1-0.9c0.1-0.4,0.1-0.9,0-1.3v-8.3c0-0.4-0.1-0.8-0.6-1l3-2.4v7L51.8,15.1z"/>
		<path d="M62.5,44.5L61.8,45l-0.1,0c0.1-0.1,0.3-0.3,0.4-0.4c0.2-0.1,0.3-0.4,0.3-0.6v-5.1c0-0.2,0.1-0.4,0.3-0.5
			c1.2-0.6,2.4-1.3,3.5-1.9c0.1-0.1,0.4-0.1,0.5,0c0.7,0.6,1.4,1.2,2.1,1.9l0.3,0.2l0.7-0.7L70,38c-0.1,0.1-0.2,0.2-0.3,0.3
			c-0.3,0.2-0.5,0.6-0.4,1c0,1.5,0,3,0,4.5c0,0.2-0.1,0.4-0.2,0.5c-1.3,0.7-2.6,1.4-3.8,2.2c-0.1,0.1-0.4,0.1-0.5-0.1L62.5,44.5z
			 M64.9,37.6c0,0.1,0,0.1-0.1,0.2v5.5c0,0.1,0,0.2,0.1,0.2c0.6,0.6,1.3,1.2,2,1.8c0,0,0-0.1,0.1-0.2c0-1.8,0-3.6,0-5.4
			c0-0.1,0-0.2-0.1-0.3L64.9,37.6L64.9,37.6z"/>
		<path d="M68.8,69.8c-1.1-0.1-1.9-1.1-1.8-2.2c0-0.3,0.1-0.6,0.3-0.9c0.3-0.5,0.7-0.9,1.1-1.3c0.1-0.1,0.3-0.3,0.5-0.4
			c-0.5-0.4-0.9-0.8-1.3-1.2c-0.2-0.1-0.3-0.4-0.2-0.6c0-0.7,0-1.3,0-2c0-0.1,0.1-0.3,0.2-0.4c1.2-0.7,2.4-1.4,3.6-2.1
			c0.4,0.3,0.8,0.8,1.4,0.7s0.9-0.3,1.1-1.1c0.2,0.3,0.2,0.7,0.1,1.1c-0.2,0.8-0.6,1.5-1.1,2.1l-0.3,0.4c0.4,0.4,0.9,0.7,1.3,1.1
			c0.2,0.1,0.3,0.3,0.3,0.6c0,0.9,0,1.9,0,2.8c0,0.2-0.1,0.3-0.2,0.4c-1.2,0.7-2.3,1.4-3.5,2.1c-0.2-0.2-0.4-0.4-0.7-0.5
			c-0.3-0.2-0.7-0.3-1.1-0.1c-0.3,0.1-0.4,0.5-0.3,0.8c0,0.1,0.1,0.2,0.2,0.2C68.4,69.5,68.6,69.7,68.8,69.8z M70.7,63.5
			c-1.1,1-2.2,2.1-3.1,3.3c1.8-1.3,2.5-1.2,4.1,0.8v-3.1c0-0.1,0-0.1-0.1-0.2L70.7,63.5L70.7,63.5z M70.5,63.4
			c1-0.7,1.8-1.6,2.5-2.7c-1.3,0.9-1.8,0.8-3.3-0.7v2.5c0,0.1,0.1,0.1,0.1,0.2C70,62.9,70.3,63.1,70.5,63.4L70.5,63.4z"/>
		<path d="M77.6,33.3l3.2-2.2v12.1c0,0.4,0.1,0.8,0.5,1.1c0.1,0.1,0.3,0.3,0.4,0.4l0.7-0.5l0.1,0.1l-2.6,2.3L78,45l-0.7,0.6
			l-0.1-0.1c0.1-0.2,0.3-0.3,0.5-0.4c0.6-0.4,0.9-1,0.8-1.7c0-2.8,0-5.6,0-8.4c0-0.2,0-0.4,0-0.5C78.4,33.9,78.1,33.4,77.6,33.3z"/>
		<path d="M55.9,23.3l-0.8,0.6L55,23.8c0.2-0.2,0.3-0.3,0.5-0.4c0.2-0.1,0.3-0.4,0.3-0.6V18c0-0.2,0.1-0.5,0.3-0.5
			c1.2-0.7,2.4-1.4,3.6-2.1l0.3-0.2l2,3.4l-0.9,0.7l-2.7,2c-0.3,0.2-0.4,0.6-0.2,0.9c0,0,0.1,0.1,0.1,0.1l1.7,1.6l2.3-1.8l0.1,0.1
			l-4.2,3.3L55.9,23.3z M58.2,16.6L58.2,16.6l-0.1,4.5l1.9-1.4L58.2,16.6z"/>
		<path d="M62.4,69.1L60,66.9l-0.8,0.6l-0.1-0.1c0.1-0.1,0.1-0.2,0.2-0.2c0.4-0.2,0.6-0.7,0.5-1.2c0-1.5,0-3,0-4.5
			c0-0.2,0.1-0.3,0.2-0.4c1.3-0.8,2.7-1.5,4.1-2.3l1.9,3.3l-0.4,0.3l-3.1,2.3c-0.3,0.2-0.4,0.6-0.2,0.9c0,0.1,0.1,0.1,0.2,0.2
			c0.5,0.4,1,0.9,1.4,1.3c0.1,0.1,0.3,0.2,0.4,0.1c0,0,0.1-0.1,0.1-0.1c0.6-0.5,1.2-0.9,1.8-1.4l0.3-0.2l0.1,0.1L62.4,69.1z
			 M62.3,60.1v4.6l1.9-1.4L62.3,60.1z"/>
		<path d="M25.2,44.9c0.2-0.2,0.3-0.3,0.5-0.4c0.2-0.1,0.3-0.3,0.3-0.6v-4.8c0-0.2,0.1-0.3,0.2-0.4c1.3-0.8,2.7-1.5,4.1-2.3l1.9,3.3
			l-0.3,0.2l-3.3,2.4c-0.3,0.2-0.4,0.6-0.2,0.9c0,0,0.1,0.1,0.1,0.1l1.7,1.6l2.3-1.8l0.1,0.1l-4.2,3.3L26,44.4L25.2,44.9L25.2,44.9z
			 M28.4,37.8L28.4,37.8l-0.1,4.5l1.9-1.4L28.4,37.8z"/>
		<path d="M73.5,46.6l-2-1.8l-0.7,0.7l-0.1-0.1c0.1-0.1,0.1-0.2,0.2-0.3c0.6-0.4,1-1.2,0.9-1.9c-0.1-1.1,0-2.2,0-3.3
			c0-0.4-0.1-0.7-0.3-1c-0.2-0.2-0.3-0.4-0.5-0.6l-0.7,0.6l-0.1-0.1l2.6-2.3l1.4,1.7l1.6-1.6c0.6,0.5,1.3,0.7,1.9,0
			c0.1,0.9-0.2,1.8-1,2.3c-0.7,0.5-1.4,0.4-2.4-0.5c0,0.1,0,0.2,0,0.3v5c0,0.3,0.1,0.5,0.3,0.7c0.2,0.2,0.5,0.4,0.7,0.6l0.8-0.7
			l0.1,0.1C75.3,45.1,74.4,45.8,73.5,46.6z"/>
		<path d="M86.5,44.7l0.8-0.7l0.1,0.1l-2.8,2.5c-0.1-0.1-0.1-0.2-0.2-0.2c-1.1-1.8-2.3-3.7-3.4-5.5c-0.1-0.2-0.1-0.4,0-0.6
			c0.9-1.3,1.8-2.6,2.7-3.9c0.5,0.2,1,0.4,1.4,0.5c0.5,0.1,1-0.3,1.4-0.7c-0.1,1-0.6,1.9-1.4,2.5c-0.9,0.5-1.8,0.1-2.7-0.5
			c0,0.2-0.1,0.4,0,0.5L86.5,44.7z"/>
		<path d="M40.1,60.5l-0.7,0.5L39.3,61l2.4-2.1l1.8,2l0.8-0.7l0.1,0.1c-0.1,0.1-0.3,0.3-0.4,0.4c-0.3,0.2-0.4,0.5-0.4,0.9
			c0,1.4,0,2.8,0,4.2c0,0.3,0.1,0.5,0.3,0.7c0.2,0.3,0.5,0.5,0.7,0.8l0.7-0.6l0.1,0.1L42.9,69l-1.7-1.9l-0.8,0.6l-0.1-0.1
			c0.2-0.2,0.4-0.3,0.5-0.5c0.1-0.1,0.2-0.3,0.2-0.4V62c0-0.1,0-0.2-0.1-0.3C40.7,61.3,40.4,60.9,40.1,60.5z"/>
		<path d="M41.5,58.3L40,56.7l1.8-1.7l1.5,1.7L41.5,58.3z"/>
		<path class="st0" d="M55.9,43.3v-2.5c0-0.5,0.4-0.9,0.8-0.9c0,0,0,0,0,0h0.1c0.5,0,0.8,0.3,0.9,0.8c0,0,0,0.1,0,0.1v4
			c0,0.8-0.6,1.4-1.3,1.5h-0.2c-0.2,0-0.3-0.1-0.3-0.3C55.9,45.1,55.9,44.2,55.9,43.3z"/>
		<path class="st0" d="M56.5,33.6c0.3,0.3,0.7,0.6,1.1,0.9c0.1,0.1,0.1,0.3,0.1,0.4v2.8c0.1,0.4-0.2,0.7-0.6,0.8l0,0
			c-0.5,0.2-1,0-1.2-0.5c-0.1-0.1-0.1-0.3-0.1-0.4c0-1,0-2,0-3C55.8,34.2,56.1,33.8,56.5,33.6z"/>
		<path class="st0" d="M56,38.5c0.5,0.4,1.3,0.4,1.8,0V40c-0.5-0.4-1.3-0.4-1.8,0V38.5z"/>
		<path class="st0" d="M37.4,21.7c-0.8-1-1.2-2.3-1.2-3.6c0.1-0.5,0.1-1,0.3-1.5c0-0.1,0.1-0.2,0.2-0.3c0.5-0.2,1-0.5,1.6-0.7
			c0,0.2,0,0.3,0,0.4c0,1.6,0,3.2,0,4.8c0.1,0.3-0.1,0.7-0.5,0.7L37.4,21.7z"/>
		<path class="st0" d="M31.5,65.3c-0.7-0.8-1.1-1.9-1.1-2.9c0-0.8,0.1-1.5,0.3-2.3c0-0.1,0.1-0.2,0.2-0.3c0.5-0.2,1-0.5,1.6-0.7v0.5
			c0,1.6,0,3.2,0,4.8c0.1,0.3-0.1,0.7-0.5,0.7C31.8,65.2,31.7,65.2,31.5,65.3z"/>
		<path class="st0" d="M64.9,37.6c0.7,0.6,1.3,1.2,1.9,1.8c0.1,0.1,0.1,0.2,0.1,0.3v5.4c0,0.1,0,0.1-0.1,0.2c-0.7-0.6-1.3-1.2-2-1.8
			c-0.1-0.1-0.1-0.2-0.1-0.2c0-1.8,0-3.7,0-5.5C64.8,37.7,64.8,37.7,64.9,37.6z"/>
		<path class="st0" d="M70.7,63.5c0.3,0.3,0.6,0.5,0.9,0.8c0.1,0,0.1,0.1,0.1,0.2v3.1c-1.6-2-2.3-2.1-4.1-0.8
			C68.5,65.6,69.5,64.5,70.7,63.5z"/>
		<path class="st0" d="M70.5,63.4l-0.8-0.7c-0.1,0-0.1-0.1-0.1-0.2V60c1.5,1.5,2.1,1.6,3.3,0.7C72.3,61.7,71.5,62.6,70.5,63.4z"/>
		<path class="st0" d="M58.2,16.6l1.8,3.1l-1.9,1.4L58.2,16.6L58.2,16.6z"/>
		<path class="st0" d="M62.3,60.2l1.9,3.2l-1.9,1.4L62.3,60.2z"/>
		<path class="st0" d="M28.4,37.8l1.8,3.1l-1.9,1.4L28.4,37.8L28.4,37.8z"/>
	</g>
</g>
</svg>
