<svg xmlns="http://www.w3.org/2000/svg" viewBox="0 0 100.07 18.66"><title>pelvicpain-black</title><g id="Layer_2" data-name="Layer 2"><g id="Layer_1-2" data-name="Layer 1"><g id="Layer_2-2" data-name="Layer 2"><g id="Layer_1-2-2" data-name="Layer 1-2"><path d="M59.14,13.79H18.9c-.48.06-.63-.15-.63-.63s.19-.61.65-.61H99.27c.35,0,.81-.17.8.5s0,.73-.76.73Z"/><path d="M0,4.4c.35,0,.6-.05.84-.05H15.47c1.21,0,1.21,0,.64,1l-4.25,7.39c-1,1.72-2,3.43-3,5.15a4.24,4.24,0,0,1-.59.66,4.39,4.39,0,0,1-.63-.7C6.53,15.94,5.44,14,4.33,12c-.94-1.66-1.88-3.31-2.83-5C1.1,6.36.66,5.68.24,5A4.87,4.87,0,0,1,0,4.4ZM8.21,18.15l.15,0a2.85,2.85,0,0,0,.21-.52c.11-.55.2-1.1.3-1.65.3-1.54.63-3.08.9-4.64a2.79,2.79,0,0,1,.92-1.73c1.68-1.47,3.34-3,5-4.47a4.2,4.2,0,0,0,.35-.4l-.08-.13c-.39.14-.77.3-1.17.43-1.72.54-3.43,1.11-5.16,1.6a4.39,4.39,0,0,1-2.08.24C6,6.54,4.45,5.93,2.9,5.42c-.73-.24-1.45-.48-2.18-.71l-.09.16c.3.26.6.51.9.77Q3.87,7.76,6.17,9.89a1.52,1.52,0,0,1,.45.65c.2.74.36,1.5.51,2.26.27,1.4.51,2.8.77,4.2C8,17.38,8.11,17.76,8.21,18.15Z"/><path d="M96,10.87h-1.3V4.46h1.51l2.2,3.84.14,0V4.46h1.17a46.54,46.54,0,0,0,.11,6.38H98.35a31.58,31.58,0,0,0-2.23-4.11l-.14,0Z"/><path d="M30.3,8h-1.6c-.34,0-.47.16-.48.48-.09,1.32-.09,1.34,1.22,1.34H31.5v1.06H26.94V4.41h3.68c.85,0,1,.22.69,1H28.88c-.62,0-.65.11-.68.92,0,.53.21.69.69.65.24,0,.46,0,.7,0a4.9,4.9,0,0,0,.73-.11Z"/><path d="M73.37,10.87H71.92V4.36c1.23.07,2.46.07,3.68.23a1.72,1.72,0,0,1,1.24,2,1.88,1.88,0,0,1-1.64,1.68,12.88,12.88,0,0,1-1.39,0c-.38,0-.59.11-.56.53s0,.7,0,1A8.12,8.12,0,0,0,73.37,10.87Zm.78-3.61A4.43,4.43,0,0,0,75,7.11a.8.8,0,0,0,.59-.88.74.74,0,0,0-.71-.7,7.53,7.53,0,0,0-1.21,0,.51.51,0,0,0-.37.23,1,1,0,0,0,.86,1.56Z"/><path d="M83.43,10.84a1.11,1.11,0,0,0-.34-1.47,3.73,3.73,0,0,0-1.85-.08c-.31,0-.48,1-.36,1.56H79.43l1.94-5.54c.1-.28.06-.76.22-.83a2.65,2.65,0,0,1,1.14-.07.48.48,0,0,1,.36.26c.58,1.79,1.14,3.58,1.72,5.37a6.29,6.29,0,0,0,.39.79Zm-2-2.58h.95c.41,0,.52-.17.39-.54l-.53-1.43-.17,0Z"/><path d="M19.75,10.87H18.46V4.34c1.26.08,2.53.08,3.77.26.77.11,1.21,1.08,1.08,2.06a1.8,1.8,0,0,1-1.66,1.58,12.13,12.13,0,0,1-1.39,0c-.36,0-.53.11-.52.5C19.76,9.42,19.75,10.1,19.75,10.87Zm.95-3.63a4.41,4.41,0,0,0,.75-.08.84.84,0,0,0,.47-1.39,2.46,2.46,0,0,0-2-.21.46.46,0,0,0-.15.17,1,1,0,0,0,.91,1.51Z"/><path d="M46.94,4.44h1.49c-.32.85-.64,1.66-.93,2.48C47.12,8,46.76,9,46.42,10a3,3,0,0,0,0,.82H44.85c-.19-.69-.33-1.34-.55-2-.42-1.21-.87-2.42-1.31-3.63-.1-.27-.22-.52-.35-.82h1.48c.44,1.38.87,2.71,1.3,4,0,.08.16.19.19.17a.43.43,0,0,0,.22-.22c.38-1.13.75-2.26,1.11-3.39A2.18,2.18,0,0,0,46.94,4.44Z"/><path d="M62.93,5.26,62,6.41a1.59,1.59,0,0,0-1.69-1,1.93,1.93,0,0,0-1.38,1.54,3.06,3.06,0,0,0,.24,2.14,1.5,1.5,0,0,0,1.48.83,1.33,1.33,0,0,0,1.33-1l1,1.07a3.25,3.25,0,0,1-4.11.47c-1.21-.86-1.6-3.47-.62-4.92a2.32,2.32,0,0,1,2.28-1.19A18.24,18.24,0,0,1,63,5Z"/><path d="M35.65,4.45h1.28V9.27c0,.41.15.6.58.6.83,0,1.65,0,2.55,0v1H35.65Z"/><path d="M53.67,10.86H52.32V4.46h1.34C53.64,6.59,53.62,8.68,53.67,10.86Z"/><path d="M90.24,10.86H88.86V4.45h1.37Z"/><path d="M21.05,16a1.78,1.78,0,0,1-.55,0c-.81-.34-1.24-.24-1.68.5.28.1.53.21.79.27a5.65,5.65,0,0,1,1.17.25,1,1,0,0,1,.51.72,1,1,0,0,1-.52.79,2.77,2.77,0,0,1-2.35-.13c-.09,0-.11-.24-.17-.37.17,0,.38-.08.51,0a1.78,1.78,0,0,0,1.55.19c.15-.06.35-.24.36-.37a.53.53,0,0,0-.31-.41,5.49,5.49,0,0,0-1.07-.18c-.68-.06-1-.3-1-.79s.3-.88.94-1a2.57,2.57,0,0,1,1.83.3Z"/><path d="M33.35,18.63a1.59,1.59,0,0,1-1.8-1.58,1.69,1.69,0,0,1,1.82-1.67A1.64,1.64,0,0,1,35.18,17C35.17,18,34.53,18.63,33.35,18.63Zm0-2.9A1.41,1.41,0,0,0,32.08,17a1.29,1.29,0,0,0,1.29,1.28A1.27,1.27,0,0,0,34.68,17v0A1.4,1.4,0,0,0,33.39,15.73Z"/><path d="M70.75,17.07a10.51,10.51,0,0,1,0-1.21c0-.15.21-.38.34-.39a19.1,19.1,0,0,1,2,0c.1,0,.2.12.3.18-.11.07-.22.19-.33.2-.4,0-.81,0-1.21,0s-.6.18-.5.54c0,.16.31.29.51.37a7.4,7.4,0,0,0,.83.26,5.14,5.14,0,0,1-.83.19c-.33,0-.55.08-.54.48s.19.51.54.5.85,0,1.27,0c.14,0,.26.14.39.22-.12.07-.24.21-.35.21-.68,0-1.35,0-2,0a.53.53,0,0,1-.35-.37A8.88,8.88,0,0,1,70.75,17.07Z"/><path d="M48.9,18a2.42,2.42,0,0,1-2.66.37,1.54,1.54,0,0,1-.66-1.81,1.44,1.44,0,0,1,1.32-1.16,7.39,7.39,0,0,1,1.26.05.8.8,0,0,1,.45.22c.08.08.07.26.09.4-.12,0-.26.06-.36,0-.47-.2-.88-.54-1.45-.24a1.23,1.23,0,0,0-.79,1.62,1.41,1.41,0,0,0,1.6.73c.24-.06.44-.24.67-.32a2.2,2.2,0,0,1,.53-.05Z"/><path d="M94.6,2.66a3.31,3.31,0,0,0-1.12-.46c-.37,0-.71.29-1.19.51.29-.87.5-1.58.76-2.28a.65.65,0,0,1,.45-.37A.6.6,0,0,1,94,.4c.29.7.54,1.42.8,2.14Z"/><path d="M69.93,2.66a3.3,3.3,0,0,0-1.11-.45c-.34,0-.68.3-1,.46l-.1-.12c.24-.74.48-1.49.76-2.22.14-.35.61-.41.74-.11.33.76.59,1.55.88,2.33Z"/><path d="M63.86,1.5C64.19,1,63.72.38,64.45,0c0,.43.07.78.08,1.12a9,9,0,0,1,0,1.1c0,.14-.12.37-.22.39a.51.51,0,0,1-.43-.2c-.26-.39-.48-.81-.73-1.21l-.15,0-.19,1.43c-.14,0-.24-.07-.24-.08a20.81,20.81,0,0,1,0-2.29c0-.33.34-.33.53,0S63.57,1,63.86,1.5Z"/><path d="M42,1.21c0,.36,0,.73,0,1.07,0,.12-.13.24-.2.36-.09-.12-.25-.24-.26-.37,0-.6,0-1.2,0-1.79A.54.54,0,0,1,41.83.1c.08,0,.3.08.37.19a8.81,8.81,0,0,0,1,1.24,9.19,9.19,0,0,1,0-1A1.58,1.58,0,0,1,43.4.08c.09.15.24.29.24.44,0,.58,0,1.16,0,1.74a.67.67,0,0,1-.15.38.81.81,0,0,1-.48-.2,9.33,9.33,0,0,1-.54-.88,4.77,4.77,0,0,0-.3-.38Z"/><path d="M88.72,1.43,88.91.09l.18,0a1.37,1.37,0,0,1,.17.41c0,.58,0,1.16,0,1.74,0,.14-.15.27-.24.41a1.39,1.39,0,0,1-.4-.26c-.28-.39-.52-.8-.77-1.21h-.19a8.52,8.52,0,0,1,0,1c0,.15-.17.28-.27.42a1.28,1.28,0,0,1-.19-.43c0-.56,0-1.12,0-1.68,0-.16.15-.31.23-.47a1.55,1.55,0,0,1,.45.3c.26.35.47.73.69,1.1Z"/><path d="M57.17,2.61V.29s0-.1,0-.1a4.83,4.83,0,0,1,1.33-.1,1,1,0,0,1,.56.69,5.71,5.71,0,0,1,0,1.4,1.58,1.58,0,0,1-.17.44c-.09-.14-.26-.27-.27-.42a.52.52,0,0,0-.48-.56h-.1c-.39,0-.48.21-.51.54a2,2,0,0,1-.13.45Zm1-1.27L58.63.8A2,2,0,0,0,58.1.49c-.26-.06-.56,0-.48.36,0,.16.27.28.51.49Z"/><path d="M53.64,1.44a3.34,3.34,0,0,0-.76.08,1.81,1.81,0,0,0-.48.38,1.66,1.66,0,0,0,.46.31c.22.06.46,0,.69,0s.18.15.27.24c-.08.06-.17.17-.26.17a7.59,7.59,0,0,1-1.27,0,.56.56,0,0,1-.36-.39,11.88,11.88,0,0,1,0-1.73.59.59,0,0,1,.35-.45,6.29,6.29,0,0,1,1.27,0c.09,0,.17.16.26.24-.09.06-.17.15-.26.16s-.43,0-.63,0a2.08,2.08,0,0,0-.48.26,2.39,2.39,0,0,0,.48.31,4.73,4.73,0,0,0,.73.13Z"/><path d="M82.8,2.69c-.83,0-1.27-.46-1.27-1.35A1.19,1.19,0,0,1,82.78,0,1.23,1.23,0,0,1,84,1.35C84,2.26,83.65,2.69,82.8,2.69Zm0-.43a.8.8,0,0,0,.78-.83s0,0,0-.06c0-.58-.32-.93-.81-.91a.83.83,0,0,0-.74.92h0C82,1.94,82.32,2.27,82.78,2.26Z"/><path d="M30.73.49c-.33,0-.67,0-1,0-.12,0-.23.14-.34.22.1.11.19.3.31.33a6.37,6.37,0,0,0,.9.12v.26c-.24,0-.48.07-.73.08s-.52,0-.51.38.29.34.53.35a4.63,4.63,0,0,1,.63,0c.1,0,.18.15.27.24-.08.06-.17.17-.26.17a10.89,10.89,0,0,1-1.33,0,.45.45,0,0,1-.31-.3c0-.65,0-1.31,0-2A.4.4,0,0,1,29,.14a2.21,2.21,0,0,1,1.71.17Z"/><path d="M23.82,0A1.26,1.26,0,0,1,24,.47c0,.36.15.52.53.51s.54-.1.55-.48c0-.15.15-.29.24-.43l.21,0V2.44c0,.07-.13.19-.17.18a.39.39,0,0,1-.24-.19,1,1,0,0,1,0-.4c0-.38-.12-.58-.54-.58S24,1.63,24,2a1.35,1.35,0,0,1,0,.45.27.27,0,0,1-.21.15c-.07,0-.19-.1-.19-.15,0-.79,0-1.58,0-2.37Z"/><path d="M99.75,15.56a6,6,0,0,1-.51.78,2.17,2.17,0,0,0-.68,1.82c.06.41-.16.51-.62.35.45-1.3-.69-2-1.24-2.95.37-.18.53-.1.75.2.94,1.31.81,1.21,1.55,0C99.2,15.44,99.37,15.39,99.75,15.56Z"/><path d="M86.64,15.69a4.33,4.33,0,0,1-.66.13.57.57,0,0,0-.63.66v2.09l-.51,0v-2c0-.65-.11-.75-.79-.74a1.41,1.41,0,0,1-.45-.16c.15-.07.3-.2.45-.21.73,0,1.43,0,2.14,0a2.59,2.59,0,0,1,.42.07Z"/><path d="M72.59.31c.59-.46,1.17-.22,1.69-.26.12,0,.26.15.41.32-.84,0-.77.48-.75,1a5.82,5.82,0,0,1,0,.92c0,.13-.16.24-.24.37-.08-.13-.22-.24-.24-.38a6.52,6.52,0,0,1,0-.87C73.42.61,73.42.61,72.59.31Z"/><path d="M48.78.44C48,.37,48,.83,48,1.32a7.43,7.43,0,0,1,0,1c0,.1-.14.19-.22.28-.09-.09-.26-.18-.27-.29,0-.44,0-.89,0-1.33s0-.58-.45-.57a.36.36,0,0,1-.24-.18s.09-.21.14-.21c.57,0,1.14,0,1.71.06C48.69.13,48.72.26,48.78.44Z"/><path d="M19.27,2.64a2.87,2.87,0,0,1-.14-.48,6.47,6.47,0,0,1,0-.71c0-.83,0-.83-.73-1.09.24-.45,1.5-.49,1.94-.07,0,0,0,.1,0,.1-.66,0-.73.46-.69,1a12.25,12.25,0,0,1-.05,1.23Z"/><path d="M59.5,18.49V15.78c0-.11.17-.31.22-.3s.35.15.35.24c0,.87,0,1.74,0,2.61,0,.11-.28.21-.43.32Z"/><path d="M98.37.13c0,.45,0,.91,0,1.36s.18.78.73.71a.54.54,0,0,1,.29,0c.09,0,.21.14.21.21a.3.3,0,0,1-.2.22,8.51,8.51,0,0,1-1.21,0c-.1,0-.24-.2-.24-.31q0-.92,0-1.85c0-.14.14-.27.21-.4Z"/><path d="M78.26,1.39c0,.33,0,.66,0,1,0,.09-.15.17-.24.26-.08-.09-.22-.18-.22-.27q0-1,0-2c0-.09.15-.18.23-.27.08.09.21.18.22.29C78.28.7,78.26,1,78.26,1.39Z"/><path d="M38,.07c.08.09.23.19.24.28q0,1,0,2c0,.09-.15.18-.24.24s-.18-.11-.18-.17c0-.78,0-1.55,0-2.33Z"/></g></g></g></g></svg>