<svg xmlns="http://www.w3.org/2000/svg" viewBox="0 0 218.12 68.6"><title>plannedparenthood-black</title><g id="Layer_2" data-name="Layer 2"><g id="Layer_1-2" data-name="Layer 1"><path d="M93.53,65.9h2.3v2.41h-2.3Zm48.58-7.28h-1.18V60.9h-1.27V62h1.27v4.81a1.5,1.5,0,0,0,1.62,1.75,6.39,6.39,0,0,0,1.32-.1V67.28a4,4,0,0,1-.81.1.77.77,0,0,1-1-.81V62h1.76V60.9h-1.76V58.62ZM101.93,34.26a13.39,13.39,0,0,0-1.58-.09c-2.22,0-3.41.76-4,1.61V34.62H92.62V50.1h3.77V39.37c0-1.13,1.67-1.73,3.56-1.73a9.88,9.88,0,0,1,2,.21V34.26ZM83.29,50.53c-4.9,0-6.54-1.12-6.54-5.17,0-4.38,2.46-5.07,6.08-5.07a18.38,18.38,0,0,1,3.83.42c0-2.71-.64-3.37-3.86-3.37a14.55,14.55,0,0,0-4.68.76l-.7-3.1a25.63,25.63,0,0,1,6.17-.82c4.59,0,6.69,1.4,6.69,6V49.3A21.61,21.61,0,0,1,83.29,50.53Zm.27-2.89a9.86,9.86,0,0,0,3.1-.52V43.26A15.4,15.4,0,0,0,83.59,43c-2.13,0-2.89.24-2.89,2.22S81.28,47.64,83.56,47.64ZM80.11,62.21h0V60.73h-2v7.58H80.2V65c0-1.47.68-2.33,2.1-2.33a3.61,3.61,0,0,1,1.15.23V60.6a3.45,3.45,0,0,0-.76-.07C81.46,60.53,80.87,61,80.11,62.21ZM76.7,66.78a4.32,4.32,0,0,0,.24,1.53H74.85a4,4,0,0,1-.14-.81,4,4,0,0,1-3,1.09c-1.66,0-2.82-.69-2.82-2.46s1.36-2.24,2.63-2.33l2.22-.18c.64-.06.85-.18.85-.79s-.43-.91-1.64-.91a1.34,1.34,0,0,0-1.61,1V63h-2c.25-2.33,2.05-2.6,3.76-2.6,3,0,3.63,1.16,3.63,2.57v3.76Zm-2-2.16a3,3,0,0,1-1.23.33l-1.21.13a1,1,0,0,0-1.1,1,1.12,1.12,0,0,0,1.16,1.08l.16,0a2,2,0,0,0,2.22-1.75s0-.08,0-.13v-.64Zm65,2.76a2,2,0,0,0,.41-.06v1a5,5,0,0,1-.92.08.94.94,0,0,1-1.06-1,3.2,3.2,0,0,1-2.62,1.2c-2,0-2.5-1.27-2.5-2.23,0-1.36.67-2.05,2.64-2.31l1.34-.17c.66-.08,1.07-.23,1.07-.89,0-1-.82-1.22-1.77-1.22s-1.87.33-1.9,1.47h-1.1c.15-1.85,1.21-2.57,3.05-2.57,1.26,0,2.83.38,2.83,2.11v4a.51.51,0,0,0,.42.58h.11ZM138,64.43a1.64,1.64,0,0,1-1.15.44l-1.33.2c-.92.14-1.4.44-1.4,1.22a1.26,1.26,0,0,0,1.34,1.18h.09a2.24,2.24,0,0,0,2.44-2v-1ZM125.79,34.17a22.6,22.6,0,0,0-7.33,1.34V50.1h3.77V37.94a10.59,10.59,0,0,1,2.77-.37c2.67,0,3.32.86,3.32,4.29V50.1h3.77V41.47C132.09,35.9,130.14,34.17,125.79,34.17Zm3.87,26.48A2.79,2.79,0,0,0,127.17,62a2.29,2.29,0,0,0-2.09-1.37A2.61,2.61,0,0,0,122.67,62h0V60.9H121.5v7.41h1.17V64a2,2,0,0,1,1.78-2.2h.22c.76,0,1.48.41,1.48,1.77v4.71h1.17V63.83a1.87,1.87,0,0,1,1.73-2h.27c.76,0,1.48.41,1.48,1.77v4.71H132V63.26a2.35,2.35,0,0,0-2.06-2.6l-.28,0Zm-21.87,5.6h0l-5.39-8H101v10.1h1.25v-8h0l5.39,8H109V58.21h-1.2v8Zm7.66-16.57a19.51,19.51,0,0,1-5.41.85c-4.47,0-7.51-1.89-7.51-8.24s2.71-8.12,7.21-8.12c4.9,0,7,1.67,6.75,9.18h-10c0,3.32,1.31,4,4,4a19,19,0,0,0,4.35-.64Zm-8.94-9.21H113c-.12-2.74-.91-3.31-3.07-3.31-2.35,0-3.17.75-3.41,3.3ZM117.23,64.6c0,2.14-1.17,4-3.57,4s-3.57-1.82-3.57-4,1.17-4,3.57-4S117.23,62.47,117.23,64.6Zm-1.25,0c0-1.34-.62-2.77-2.33-2.77s-2.33,1.43-2.33,2.77.62,2.77,2.33,2.77S116,65.95,116,64.6ZM92.14,65v.23H86a1.93,1.93,0,0,0,2,1.82,1.74,1.74,0,0,0,1.73-1H92c-.6,1.8-2.05,2.55-4,2.55-2.51,0-4.2-1.22-4.2-4.07s1.68-4.07,4.2-4.07C90.81,60.44,92.14,62.1,92.14,65ZM90,63.68A1.87,1.87,0,0,0,88,62a2,2,0,0,0-2,1.68h4Zm51.1-13.16a13.73,13.73,0,0,0,4.26-.7l-.67-3a8.59,8.59,0,0,1-2.64.42c-1.82,0-2.34-.79-2.34-2.7V37.91h5.14V34.62h-5.14V30.45L135.91,32v2.62h-2.58V37.9h2.58v7c0,4.6,1.7,5.63,5.17,5.63Zm-9.66-36.39c0-6.21,2.71-8.12,7.21-8.12,4.9,0,7,1.67,6.75,9.19h-10c0,3.31,1.31,4,4,4a18.81,18.81,0,0,0,4.35-.64l.61,3a19.57,19.57,0,0,1-5.41.85c-4.5,0-7.53-1.91-7.53-8.27Zm4-1.83h6.51C141.78,9.58,141,9,138.83,9c-2.37,0-3.19.76-3.43,3.31Zm-16-2.52a10.5,10.5,0,0,1,2.77-.36c2.67,0,3.31.85,3.31,4.29V22h3.77V13.32c0-5.57-1.94-7.3-6.29-7.3a22.59,22.59,0,0,0-7.33,1.34V22h3.77V9.79ZM62.55,22h-4V.76h11c4.47,0,5.9,3.13,5.9,7.27,0,3.65-1.73,6.93-5.81,6.93H62.55v7Zm0-10.34h5.9c1.67,0,2.62-1.22,2.62-3.62,0-2.59-.88-3.83-2.52-3.83h-6Zm40.92-1.83a10.52,10.52,0,0,1,2.77-.36c2.67,0,3.31.85,3.31,4.29V22h3.77V13.32c0-5.57-1.95-7.3-6.3-7.3a22.56,22.56,0,0,0-7.33,1.34V22h3.77V9.83ZM62.55,50.1h-4V28.91h11c4.47,0,5.9,3.13,5.9,7.27,0,3.65-1.73,6.93-5.81,6.93H62.55v7Zm0-10.34h5.9c1.67,0,2.62-1.22,2.62-3.62,0-2.58-.88-3.83-2.52-3.83h-6ZM44.62.76H24.35A24.35,24.35,0,0,0,0,25.11H0V68.3H7V25.11A17.41,17.41,0,0,1,24.35,7.72H37.66V22H26.87A15.66,15.66,0,0,0,11.21,37.6V68.3h7V37.6a8.71,8.71,0,0,1,8.7-8.7H44.62V47.26a8.71,8.71,0,0,1-8.7,8.7H23l-3,7H36a15.65,15.65,0,0,0,15.58-15.7V22h-7V.76ZM63.36,66.67c-2.18,0-2.64-2-2.64-3.41s.46-3.41,2.64-3.41A2.35,2.35,0,0,1,65.78,62h2.48c-.34-3.48-2.94-4.1-5-4.1-3.08,0-5,1.58-5,5.33s1.92,5.33,5,5.33c2.69,0,4.72-1.22,5-4.16h-2.5A2.35,2.35,0,0,1,63.36,66.67Zm19-45.41a5.5,5.5,0,0,1-1.18-3.65V0H77.36V17.76A6.92,6.92,0,0,0,79,22.69ZM90,12.13a18.15,18.15,0,0,1,3.83.43c0-2.71-.64-3.38-3.86-3.38a14.5,14.5,0,0,0-4.68.76l-.7-3.1A25.73,25.73,0,0,1,90.68,6c4.59,0,6.69,1.4,6.69,6v9.12a21.53,21.53,0,0,1-7,1.22c-4.9,0-6.54-1.12-6.54-5.17,0-4.34,2.47-5,6.08-5Zm.76,2.71c-2.13,0-2.89.24-2.89,2.22s.58,2.43,2.86,2.43a9.89,9.89,0,0,0,3.1-.52V15.11a15.42,15.42,0,0,0-3.11-.27ZM146.5,58.62h-1.18V60.9H144V62h1.27v4.81a1.5,1.5,0,0,0,1.62,1.75,6.39,6.39,0,0,0,1.32-.1V67.28a4,4,0,0,1-.81.1.77.77,0,0,1-1-.81V62h1.76V60.9H146.4V58.62Zm44.69,0H190V60.9h-1.3V62H190v4.81a1.5,1.5,0,0,0,1.62,1.75,6.4,6.4,0,0,0,1.32-.1V67.28a4,4,0,0,1-.81.1.77.77,0,0,1-1-.81V62h1.76V60.9h-1.76V58.62Zm-2.55,8.76a2,2,0,0,0,.41-.06v1a5,5,0,0,1-.92.08.94.94,0,0,1-1.06-1,3.2,3.2,0,0,1-2.62,1.2c-2,0-2.5-1.27-2.5-2.23,0-1.36.67-2.05,2.64-2.31l1.34-.17c.66-.08,1.07-.23,1.07-.89,0-1-.82-1.22-1.77-1.22s-1.87.33-1.9,1.47h-1.11c.15-1.85,1.21-2.57,3.05-2.57,1.26,0,2.83.38,2.83,2.11v4a.51.51,0,0,0,.42.58h.12ZM187,64.43a1.64,1.64,0,0,1-1.15.44l-1.33.2c-.92.14-1.4.44-1.4,1.22a1.26,1.26,0,0,0,1.34,1.18h.09a2.24,2.24,0,0,0,2.44-2v-1Zm-8.67-3.79A2.61,2.61,0,0,0,175.89,62h0V58.12h-1.17V68.31h1.17V64a2,2,0,0,1,1.78-2.2h.22a1.57,1.57,0,0,1,1.82,1.71v4.77h1.17v-5a2.35,2.35,0,0,0-2.58-2.62ZM171,66.56h0l-1.56-5.66h-1.29l-1.53,5.66h0l-1.7-5.66h-1.3L166,68.31h1.25l1.54-5.66h0l1.54,5.66h1.28L174,60.9h-1.24Zm23.12,1.75h1.46V66.67h-1.46Zm21.61-37,.78,1.28h-.75L215,31.34h-.27v1.25h-.7V29.42h1.22a1,1,0,0,1,1.21,1,.84.84,0,0,1-.76.86Zm.1-.92c0-.34-.33-.38-.58-.38h-.45v.77h.52c.31,0,.53-.08.53-.42Zm2.29.61a2.86,2.86,0,1,1-2.86-2.86A2.86,2.86,0,0,1,218.12,31Zm-.84,0a2,2,0,1,0-2,2A2,2,0,0,0,217.28,31ZM162.07,42.3c0-6.32,2.46-8.12,7.36-8.12s7.42,1.8,7.42,8.12-2.43,8.24-7.42,8.24-7.35-1.9-7.35-8.25Zm3.93,0c0,4.29.82,5.14,3.47,5.14s3.53-.85,3.53-5.14-.82-5.14-3.53-5.14S166,37.91,166,42.35Zm39.46-14.2h3.77V49.4a20.94,20.94,0,0,1-6.75,1.13c-5.11,0-7.45-1.82-7.45-8.18s2.58-8.18,6.72-8.18a7.3,7.3,0,0,1,3.71.88v-6.9Zm0,10.7c0-.91-1.34-1.49-3-1.49-2.65,0-3.5,1.06-3.5,4.93,0,4.23.88,5,3.56,5a9.9,9.9,0,0,0,3-.46v-8Zm-12.1,3.44c0,6.35-2.43,8.24-7.42,8.24s-7.36-1.89-7.36-8.24,2.46-8.12,7.36-8.12,7.39,1.83,7.39,8.12Zm-3.89.06c0-4.44-.82-5.14-3.53-5.14s-3.46.7-3.46,5.14.82,5.14,3.46,5.14,3.49-.85,3.49-5.14ZM157.74,62.26h0V60.9h-1.17v7.41h1.17V64.55c0-1.61.81-2.43,2-2.43a2.78,2.78,0,0,1,.83.14V60.73a1.94,1.94,0,0,0-.67-.08A2.37,2.37,0,0,0,157.74,62.26ZM160.3,50.1V41.19c0-5.78-2-7-5.6-7a10.05,10.05,0,0,0-4.26,1.06v-7.1h-3.77v22h3.77V38.94c0-.91,1.43-1.37,3-1.37,2.43,0,3.1,1.37,3.1,3.92V50.1h3.76Zm-4.69,14.74V65h-5.66a2.35,2.35,0,0,0,2.27,2.35,2,2,0,0,0,2-1.32h1.25a3.35,3.35,0,0,1-3.17,2.5c-2.4,0-3.57-1.82-3.57-4s1.17-4,3.57-4C153.89,60.64,155.61,61.77,155.61,64.84Zm-1.25-.92a2.16,2.16,0,0,0-2.15-2.09,2.26,2.26,0,0,0-2.21,2.1h4.36ZM157.57,0h3.77V21.26a21,21,0,0,1-6.75,1.12c-5.11,0-7.45-1.82-7.45-8.18S149.72,6,153.85,6a7.29,7.29,0,0,1,3.71.88V0Zm0,10.71c0-.91-1.34-1.49-3-1.49-2.65,0-3.5,1.06-3.5,4.93,0,4.22.88,5,3.56,5a9.88,9.88,0,0,0,3-.46v-8Z"/></g></g></svg>