<svg xmlns="http://www.w3.org/2000/svg" viewBox="0 0 98.56 31"><title>plannedparenthood-black</title><g id="Layer_2" data-name="Layer 2"><g id="Layer_1-2" data-name="Layer 1"><g id="Layer_2-2" data-name="Layer 2"><g id="Layer_1-2-2" data-name="Layer 1-2"><path d="M42.26,29.78h1v1.09h-1Zm22-3.29h-.53v1h-.57V28h.57v2.17a.68.68,0,0,0,.55.78h.18a2.89,2.89,0,0,0,.6,0V30.4a1.81,1.81,0,0,1-.37,0,.35.35,0,0,1-.45-.37V28H65v-.5h-.8v-1Zm-18.16-11a6.05,6.05,0,0,0-.71,0,2,2,0,0,0-1.81.73v-.52H41.85v7h1.7V17.79c0-.51.75-.78,1.61-.78a4.46,4.46,0,0,1,.9.09V15.48Zm-8.42,7.35c-2.21,0-3-.51-3-2.34s1.11-2.29,2.75-2.29a8.31,8.31,0,0,1,1.73.19c0-1.22-.29-1.52-1.74-1.52a6.57,6.57,0,0,0-2.11.34L35,15.82a11.58,11.58,0,0,1,2.79-.37c2.07,0,3,.63,3,2.71v4.12A9.77,9.77,0,0,1,37.64,22.83Zm.12-1.31a4.46,4.46,0,0,0,1.4-.23V19.55a7,7,0,0,0-1.39-.12c-1,0-1.31.11-1.31,1S36.73,21.53,37.76,21.53ZM36.2,28.11h0v-.67h-.9v3.43h.94v-1.5c0-.66.31-1.05.95-1.05a1.63,1.63,0,0,1,.52.1v-1a1.56,1.56,0,0,0-.34,0C36.81,27.35,36.54,27.56,36.2,28.11Zm-1.54,2.07a2,2,0,0,0,.11.69h-.94a1.81,1.81,0,0,1-.06-.37A1.81,1.81,0,0,1,32.4,31c-.75,0-1.27-.31-1.27-1.11s.61-1,1.19-1.05l1-.08c.29,0,.38-.08.38-.36S33.51,28,33,28a.61.61,0,0,0-.73.45h0v0h-.9c.11-1.05.93-1.17,1.7-1.17,1.36,0,1.64.52,1.64,1.16v1.72Zm-.9-1a1.36,1.36,0,0,1-.56.15l-.55.06a.45.45,0,0,0-.5.45.51.51,0,0,0,.52.49h.07a.9.9,0,0,0,1-.79v-.35Zm29.37,1.25.19,0v.45a2.26,2.26,0,0,1-.42,0,.42.42,0,0,1-.48-.45,1.45,1.45,0,0,1-1.18.54c-.9,0-1.13-.57-1.13-1,0-.61.3-.93,1.19-1l.61-.08c.3,0,.48-.1.48-.4,0-.45-.37-.55-.8-.55s-.85.15-.86.66h-.5c.07-.84.55-1.16,1.38-1.16.57,0,1.28.17,1.28,1v1.81a.23.23,0,0,0,.19.26h0Zm-.77-1.33a.74.74,0,0,1-.52.2l-.6.09c-.42.06-.63.2-.63.55a.57.57,0,0,0,.6.53h0a1,1,0,0,0,1.1-.9v-.47ZM56.84,15.44a10.21,10.21,0,0,0-3.31.61v6.59h1.7V17.14A4.79,4.79,0,0,1,56.49,17c1.21,0,1.5.39,1.5,1.94v3.72h1.7v-3.9C59.69,16.22,58.81,15.44,56.84,15.44Zm1.75,12a1.26,1.26,0,0,0-1.13.61,1,1,0,0,0-.94-.62,1.18,1.18,0,0,0-1.09.62h0v-.5H54.9v3.35h.53V28.92a.9.9,0,0,1,.8-1h.1c.34,0,.67.19.67.8v2.13h.53v-2a.85.85,0,0,1,.78-.9h.12c.34,0,.67.19.67.8v2.13h.54V28.59a1.06,1.06,0,0,0-.93-1.17h-.13Zm-9.88,2.53h0l-2.44-3.62h-.63v4.56h.56V27.27h0l2.44,3.62h.61V26.3h-.54v3.63Zm3.46-7.49a8.82,8.82,0,0,1-2.44.38c-2,0-3.39-.85-3.39-3.72s1.22-3.67,3.26-3.67c2.21,0,3.16.75,3.05,4.15H48.12c0,1.5.59,1.81,1.81,1.81a8.59,8.59,0,0,0,2-.29Zm-4-4.16h2.93c-.05-1.24-.41-1.5-1.39-1.5s-1.43.34-1.54,1.49ZM53,29.19a1.62,1.62,0,1,1-3.23,0,1.62,1.62,0,1,1,3.23,0Zm-.56,0c0-.61-.28-1.25-1.05-1.25s-1.05.65-1.05,1.25.28,1.25,1.05,1.25,1.06-.64,1.06-1.25Zm-10.77.18v.1H38.86a.87.87,0,0,0,.9.82.79.79,0,0,0,.78-.45h1A1.7,1.7,0,0,1,39.77,31a1.68,1.68,0,0,1-1.9-1.84,1.68,1.68,0,0,1,1.9-1.84C41,27.31,41.64,28.06,41.64,29.37Zm-1-.6a.85.85,0,0,0-.9-.76.9.9,0,0,0-.9.76Zm23.09-5.95a6.2,6.2,0,0,0,1.93-.32l-.3-1.36a3.88,3.88,0,0,1-1.19.19c-.82,0-1.06-.36-1.06-1.22v-3h2.32V15.64H63.13V13.76l-1.72.7v1.18H60.25v1.48h1.17v3.16c0,2.08.77,2.54,2.34,2.54ZM59.4,6.39c0-2.81,1.22-3.67,3.26-3.67,2.21,0,3.16.75,3.05,4.15H61.18c0,1.5.59,1.81,1.81,1.81a8.5,8.5,0,0,0,2-.29l.28,1.36a8.84,8.84,0,0,1-2.44.38c-2,0-3.4-.86-3.4-3.74Zm1.81-.83h2.94c-.08-1.23-.43-1.49-1.41-1.49s-1.44.34-1.55,1.5ZM54,4.42a4.74,4.74,0,0,1,1.25-.16c1.21,0,1.5.38,1.5,1.94V9.94h1.7V6c0-2.52-.88-3.3-2.84-3.3a10.21,10.21,0,0,0-3.31.61V9.94H54V4.42ZM28.27,9.94H26.46V.34h5c2,0,2.67,1.41,2.67,3.29,0,1.65-.78,3.13-2.63,3.13h-3.2V9.94Zm0-4.67h2.67c.75,0,1.18-.55,1.18-1.64S31.72,1.9,31,1.9H28.27Zm18.49-.83A4.75,4.75,0,0,1,48,4.28c1.21,0,1.5.38,1.5,1.94V9.94h1.7V6c0-2.52-.88-3.3-2.85-3.3A10.19,10.19,0,0,0,45,3.33V9.94h1.7V4.44ZM28.27,22.64H26.46V13.06h5c2,0,2.67,1.41,2.67,3.29,0,1.65-.78,3.13-2.63,3.13h-3.2v3.16Zm0-4.67h2.67c.75,0,1.18-.55,1.18-1.64S31.72,14.6,31,14.6H28.27ZM20.16.34H11a11,11,0,0,0-11,11H0V30.86H3.16V11.35A7.87,7.87,0,0,1,11,3.49h6V9.94H12.14a7.08,7.08,0,0,0-7.08,7V30.86H8.23V17a3.94,3.94,0,0,1,3.93-3.93h8v8.3a3.94,3.94,0,0,1-3.93,3.93H10.39L9,28.45h7.23a7.07,7.07,0,0,0,7-7.09V9.94H20.14V.34Zm8.47,29.78c-1,0-1.19-.9-1.19-1.54S27.65,27,28.63,27a1.06,1.06,0,0,1,1.09,1h1.12a2,2,0,0,0-2.26-1.85c-1.39,0-2.26.71-2.26,2.41S27.19,31,28.59,31a2,2,0,0,0,2.26-1.88H29.72A1.06,1.06,0,0,1,28.63,30.13ZM37.22,9.61A2.49,2.49,0,0,1,36.68,8V0H35V8a3.13,3.13,0,0,0,.74,2.23Zm3.45-4.13a8.2,8.2,0,0,1,1.73.19c0-1.22-.29-1.53-1.74-1.53a6.55,6.55,0,0,0-2.11.34l-.32-1.4A11.63,11.63,0,0,1,41,2.71c2.07,0,3,.63,3,2.71V9.54a9.73,9.73,0,0,1-3.16.55c-2.21,0-3-.51-3-2.34S39,5.5,40.63,5.5ZM41,6.71c-1,0-1.31.11-1.31,1S40,8.81,41,8.81a4.47,4.47,0,0,0,1.4-.23V6.83A7,7,0,0,0,41,6.71ZM66.2,26.49h-.53v1h-.6V28h.57v2.17a.68.68,0,0,0,.55.78h.18a2.89,2.89,0,0,0,.6,0V30.4a1.81,1.81,0,0,1-.37,0,.35.35,0,0,1-.45-.37V28H67v-.5h-.8v-1Zm20.19,0h-.54v1h-.59V28h.59v2.17a.68.68,0,0,0,.55.78h.18a2.89,2.89,0,0,0,.6,0V30.4a1.81,1.81,0,0,1-.37,0,.35.35,0,0,1-.45-.37V28h.8v-.5h-.8v-1Zm-1.15,4,.19,0v.45a2.26,2.26,0,0,1-.42,0,.42.42,0,0,1-.48-.45,1.45,1.45,0,0,1-1.18.54c-.9,0-1.13-.57-1.13-1,0-.61.3-.93,1.19-1l.61-.08c.3,0,.48-.1.48-.4,0-.45-.37-.55-.8-.55s-.85.15-.86.66h-.5c.07-.84.55-1.16,1.38-1.16.57,0,1.28.17,1.28,1v1.81a.23.23,0,0,0,.19.26h.05Zm-.74-1.33a.74.74,0,0,1-.52.2l-.6.09c-.42.06-.63.2-.63.55a.57.57,0,0,0,.6.53h0a1,1,0,0,0,1.1-.9v-.47ZM80.58,27.4a1.18,1.18,0,0,0-1.1.61h0V26.26H79v4.6h.53V28.92a.9.9,0,0,1,.8-1h.1a.71.71,0,0,1,.82.77v2.16h.53V28.59a1.06,1.06,0,0,0-.93-1.18h-.23Zm-3.31,2.68h0l-.7-2.56H76l-.69,2.56h0l-.77-2.56h-.59L75,30.87h.56l.7-2.56h0l.7,2.56h.58l1.08-3.35h-.56Zm10.45.79h.66v-.74h-.66Zm9.77-16.72.35.58H97.5l-.34-.56H97v.56h-.32V13.29h.55a.45.45,0,0,1,.55.45.38.38,0,0,1-.34.39Zm0-.42c0-.15-.15-.17-.26-.17h-.2v.35h.23c.14,0,.24,0,.24-.19Zm1,.28a1.29,1.29,0,1,1-1.29-1.29A1.29,1.29,0,0,1,98.56,14Zm-.38,0a.9.9,0,1,0-.9.9A.9.9,0,0,0,98.18,14ZM73.24,19.11c0-2.86,1.11-3.67,3.33-3.67s3.35.81,3.35,3.67-1.1,3.72-3.35,3.72-3.32-.86-3.32-3.73Zm1.78,0c0,1.94.37,2.32,1.57,2.32s1.6-.38,1.6-2.32-.37-2.32-1.6-2.32S75,17.13,75,19.14ZM92.84,12.7h1.7v9.63a9.46,9.46,0,0,1-3.05.51c-2.31,0-3.37-.82-3.37-3.7s1.17-3.7,3-3.7a3.3,3.3,0,0,1,1.68.4V12.7Zm0,4.84c0-.41-.61-.67-1.36-.67-1.2,0-1.58.48-1.58,2.23,0,1.91.4,2.26,1.61,2.26a4.47,4.47,0,0,0,1.36-.21V17.52Zm-5.47,1.55c0,2.87-1.1,3.72-3.35,3.72S80.7,22,80.7,19.09s1.11-3.67,3.33-3.67,3.34.83,3.34,3.67Zm-1.76,0c0-2-.37-2.32-1.6-2.32s-1.56.32-1.56,2.32.37,2.32,1.56,2.32,1.58-.38,1.58-2.32Zm-14.34,9h0v-.61h-.53v3.35h.53v-1.7c0-.73.37-1.1.9-1.1a1.26,1.26,0,0,1,.38.06v-.69a.88.88,0,0,0-.3,0A1.07,1.07,0,0,0,71.28,28.13Zm1.16-5.49v-4c0-2.61-.9-3.16-2.53-3.16a4.54,4.54,0,0,0-1.93.48V12.72h-1.7v9.94H68V17.6c0-.41.65-.62,1.36-.62,1.1,0,1.4.62,1.4,1.77v3.89ZM70.32,29.3v.07H67.76a1.06,1.06,0,0,0,1,1.06.9.9,0,0,0,.9-.6h.56A1.51,1.51,0,0,1,68.82,31a1.61,1.61,0,0,1-1.61-1.81,1.61,1.61,0,0,1,1.61-1.81C69.54,27.4,70.32,27.91,70.32,29.3Zm-.56-.42a1,1,0,0,0-1-.94,1,1,0,0,0-1,.95h2ZM71.2,0h1.7V9.61a9.49,9.49,0,0,1-3.05.51c-2.31,0-3.37-.82-3.37-3.7s1.17-3.71,3-3.71a3.29,3.29,0,0,1,1.68.4V0Zm0,4.84c0-.41-.61-.67-1.36-.67-1.2,0-1.58.48-1.58,2.23,0,1.91.4,2.26,1.61,2.26a4.46,4.46,0,0,0,1.36-.21V4.83Z"/></g></g></g></g></svg>