<svg xmlns="http://www.w3.org/2000/svg" viewBox="0 0 105.06 68"><defs><style>.cls-1{fill:#ef5035;}</style></defs><title>sedona-laurel-red</title><g id="Layer_2" data-name="Layer 2"><g id="Layer_1-2" data-name="Layer 1"><g id="Layer_2-2" data-name="Layer 2"><g id="Layer_1-2-2" data-name="Layer 1-2"><path class="cls-1" d="M80.85,4.5A4.3,4.3,0,0,1,80,.11a3.11,3.11,0,0,1,2.61,3.23c-.13,1.91.94,2.52,2.37,3,.07,0,.17,0,.26,0-.51-2.59-.48-2.88.39-4.23A3.37,3.37,0,0,1,87.49,6c-.37,1.61.33,2.41,1.57,3.06.16.09.31.22.65.45a4.88,4.88,0,0,1,.78-4.39c1.81.89,2,2.24,1,5.93.23.25.5.52.74.82a4.94,4.94,0,0,0,1,1.09c.33-1.63.58-3.11,2.1-4.16.93,1.38,1.37,2.91.54,4.21-1.1,1.73-.48,2.94.52,4.25l.18.15a4.82,4.82,0,0,1,2.53-3.92A3.62,3.62,0,0,1,99.42,17a6.29,6.29,0,0,1-1.17,2A1.31,1.31,0,0,0,98,20.49c.27.61.52,1.22.89,2.08a4.7,4.7,0,0,1,3-3.75,3.35,3.35,0,0,1-.91,4.52c-1.5,1.18-1.47,2.37-.77,4a5.37,5.37,0,0,1,3.81-2.77,3.48,3.48,0,0,1-.89,3.6,5.34,5.34,0,0,1-1.57,1.24,1.54,1.54,0,0,0-1,2.09,9.08,9.08,0,0,1,.18,1,5.52,5.52,0,0,1,4.2-1.94,4.13,4.13,0,0,1,0,1.06,4.58,4.58,0,0,1-3.16,3.29c-1,.3-1.46.77-1.41,1.8a7.83,7.83,0,0,1-.23,1.4A5.05,5.05,0,0,1,105,36.54a3.37,3.37,0,0,1-1.7,2.91,8.67,8.67,0,0,1-2.11.89c-1.69.48-1.7.45-1.89,2.29,2.94-.82,3.08-.83,4.84-.14a4.93,4.93,0,0,1-2.66,2.61,3.64,3.64,0,0,1-1.67.37c-1.77-.24-2.5.74-2.88,2.24C99.22,47,100,47,102,48.1a4.24,4.24,0,0,1-3.36,2.29,7.23,7.23,0,0,1-2,0C95,50.23,94.8,50.31,94,52a6.31,6.31,0,0,1,4.93,1.31c-2.19,2.5-4.66,1.88-7.23.89L90,55.77a21.5,21.5,0,0,1,2.72.63,3.65,3.65,0,0,1,2.15,1.69c-1.7,1.45-3.52,1.35-5.41.62a5.67,5.67,0,0,1-.65-.3c-1.42-.77-1.42-.77-2.86.49A7.25,7.25,0,0,1,90.36,62a4.58,4.58,0,0,1-3.86.55,5.94,5.94,0,0,1-2.14-1.14c-1.07-1.09-2.06-1-3.29-.13a6.44,6.44,0,0,1,3.81,3.6c-2.18,1.27-4.25.44-7-2.78a22.75,22.75,0,0,0-12,5.88l-1-1a8.81,8.81,0,0,1,3.69-2.89,56.39,56.39,0,0,1,6.82-2.7,2.1,2.1,0,0,0,1.77-2,5.06,5.06,0,0,1,2.77-4.28,5.56,5.56,0,0,1,.77-.28c.94,1.49.65,3.08-.87,5.44,1.93-.37,2-.41,1.92-2.25a5.35,5.35,0,0,1,2-4.83,2.61,2.61,0,0,1,.48-.3.75.75,0,0,1,.28,0c1,1.69,1,3-.13,5.56.35-.21.59-.33.81-.48,1.22-.77,1.23-.78.85-2.16a5.14,5.14,0,0,1,.68-4.58A11.85,11.85,0,0,1,87.74,50a5.56,5.56,0,0,1,1,4.9c1.41-.37,1.63-.74,1.1-2-.74-1.82-1-3.61.14-5.37.13-.2.3-.36.56-.68a5.6,5.6,0,0,1,1.85,4.65c1.43-.86,1.55-1.23.74-2.45a5.07,5.07,0,0,1-.74-5.16,7.34,7.34,0,0,1,.5-.78A5.93,5.93,0,0,1,95.34,48l1.29-2.18c-1.8-1.83-3.47-3.64-2.23-6.62a5.31,5.31,0,0,1,3.27,4.33l.3-.82c.57-1.51.57-1.51-.7-2.6-1.11-1-2.12-2-2.13-3.6a12.13,12.13,0,0,1,.14-1.36c1.86.43,2.64,1.12,3.92,3.32.07-.33.14-.59.2-.86.33-1.48.33-1.49-1.05-2.18a4.86,4.86,0,0,1-3-3.8,1.63,1.63,0,0,1,0-.43,2,2,0,0,1,.22-.42,5.69,5.69,0,0,1,4.27,2.71v-.83c0-1.74,0-1.73-1.61-2.31a4.52,4.52,0,0,1-3.43-3.88,4.64,4.64,0,0,1,4.7,2.17c-.08-.6-.11-.89-.15-1.17s-.11-.65-.18-1a1.1,1.1,0,0,0-1.06-1,12.2,12.2,0,0,1-2-.4,3.53,3.53,0,0,1-2.53-2.66c1.17-.7,1.86-.63,4.51.52-.15-.53-.27-1-.41-1.42a1.17,1.17,0,0,0-1.31-.88,11.61,11.61,0,0,1-1.59,0,4.36,4.36,0,0,1-3.5-2.33,4.48,4.48,0,0,1,5.18.5l-1.71-3c-2.29.86-4.43,1.23-6.18-1.09a4.56,4.56,0,0,1,5-.51l-2.06-2.39c-3.22,1.48-4.7,1.45-6.28-.13a5.43,5.43,0,0,1,4.32-1.53l-2-1.7c-1.89,1.23-3.73,2.66-6,1,1-1.56,2-2,4.3-2.06-.36-.25-.61-.45-.9-.62-1.66-1-1.66-1-3.14.33a3.56,3.56,0,0,1-4.32.65,4.3,4.3,0,0,1,4-2.57l-.65-.76Z"/><path class="cls-1" d="M24.3,4.5l-.65.76a4.38,4.38,0,0,1,4.08,2.63,3.21,3.21,0,0,1-2.88.19,5.39,5.39,0,0,1-1.25-.71C23,7,22.43,6.11,21.93,6.17a6.85,6.85,0,0,0-2.51,1.24,4.71,4.71,0,0,1,4.16,1.91c-1.25,1.48-2.39,1.36-6-.71l-2,1.58a5.76,5.76,0,0,1,4.32,1.57c-1.37,1.59-3.18,1.63-6.25.13l-2.09,2.39a4.49,4.49,0,0,1,4.9.43c-1,1.93-2.63,2.27-6,1.22L8.67,18.86a4.46,4.46,0,0,1,5.16-.51,4.28,4.28,0,0,1-3.3,2.33,6.72,6.72,0,0,1-.86,0c-2.07,0-2.15.08-2.52,2.33,1.4-.82,2.78-1.38,4.49-.73A3.55,3.55,0,0,1,9.2,25.07a6.39,6.39,0,0,1-1.82.39A1.39,1.39,0,0,0,5.91,26.9c-.06.47-.16.94-.3,1.69a5.23,5.23,0,0,1,4.67-2.15,3.82,3.82,0,0,1-2,3.36,4.15,4.15,0,0,1-.91.43c-2.15.82-2.15.82-2,3.27a20.43,20.43,0,0,1,1.88-1.85,4,4,0,0,1,2.52-.8A4.24,4.24,0,0,1,8.42,34.4a9.93,9.93,0,0,1-1.68,1.1c-1.22.65-1.25.65-1,2,.07.33.15.65.22,1a14.66,14.66,0,0,1,1.52-2A16.79,16.79,0,0,1,9.72,34.9a3.68,3.68,0,0,1-.48,3.86,9,9,0,0,1-1.53,1.52c-1.07.91-1.09.9-.62,2.14.11.3.24.6.42,1.08a5.29,5.29,0,0,1,3.09-4.23c1.4,2.29.45,4-2,6.58L9.77,48a6.33,6.33,0,0,1,2.36-4.82A3.76,3.76,0,0,1,13,46.94a6.45,6.45,0,0,1-.91,1.94c-.81,1.31-.82,1.42.26,2.57.13.13.28.25.59.52a5.35,5.35,0,0,1,1.63-5.2,4.84,4.84,0,0,1,1.31,3.92,11.83,11.83,0,0,1-.57,2.08c-.52,1.43-.5,1.5,1.09,2.29a5.59,5.59,0,0,1,.89-4.9,4.57,4.57,0,0,1,2,5.18c-.4,1.88-.4,1.88,1.67,3.1a5.25,5.25,0,0,1-.24-5.78,5.17,5.17,0,0,1,2.71,3.76,12,12,0,0,1,0,1.44c0,1.87,0,1.87,2.06,2.51-1.24-1.76-1.91-3.5-1.15-5.64a5,5,0,0,1,3.37,3,1.75,1.75,0,0,1,.2.69c-.06,2.13,1.19,2.86,3.09,3.33a21.66,21.66,0,0,1,7.52,3.52c.61.44,1.16,1,1.89,1.58L39.41,68a22.66,22.66,0,0,0-12.09-5.85c-3,3.24-4.79,4-7.08,2.77A6.4,6.4,0,0,1,24,61.38c-1.44-1.11-1.56-1.09-3,0-1.63,1.18-3.35,1.91-5.38,1.07a7.31,7.31,0,0,1-.71-.4A6.36,6.36,0,0,1,19.07,59c-1.13-1.34-1.31-1.35-2.69-.62-2,1.09-4.07,1.34-6.06-.16.75-1.47,2.58-2.34,4.93-2.47a12.36,12.36,0,0,1-1.22-1,1.16,1.16,0,0,0-1.41-.27A10.31,10.31,0,0,1,10,55c-1.58.09-2.4-.33-3.75-1.71a5.7,5.7,0,0,1,4.83-1.25c-.5-1.58-.95-1.88-2.29-1.7a5.68,5.68,0,0,1-4.52-.95A14.29,14.29,0,0,1,3,48.18a4.79,4.79,0,0,1,5.34-.26c-.26-.59-.45-.94-.59-1.31A1.57,1.57,0,0,0,6,45.52a5,5,0,0,1-4.63-2.38,3.85,3.85,0,0,1-.28-.69c1.68-.84,3.22-.36,4.75.28-.06-1.87-.07-1.87-1.79-2.38C2.66,39.94,1.27,39.49.58,38c-.2-.42-.33-.87-.54-1.45A5.06,5.06,0,0,1,4.9,38c-.12-.82-.22-1.47-.3-2.12s-.74-.81-1.26-1a4.71,4.71,0,0,1-3-2.84A8.21,8.21,0,0,1,0,30.73c1.67-.24,2.73.21,4.25,1.76.09-.41.14-.75.24-1.09a1.48,1.48,0,0,0-.92-2A4.62,4.62,0,0,1,1,26.31a10.08,10.08,0,0,1-.1-1.68c1.78.21,2.61.78,4,2.82A15.51,15.51,0,0,0,5.42,25c0-.33-.39-.72-.69-1a4.76,4.76,0,0,1-1.94-3.09,14.9,14.9,0,0,1,.12-2.11c2,.68,2.61,1.38,3.4,3.63a9.18,9.18,0,0,1,.49-1.11,2.25,2.25,0,0,0-.29-3,4.19,4.19,0,0,1-.47-5,5,5,0,0,1,2.5,4.2L9.9,15.49c.41-.62,0-1.11-.3-1.59a4.65,4.65,0,0,1-.25-4.29,3.85,3.85,0,0,1,.47-.67c1.31.9,1.69,1.66,1.92,4.15a24.4,24.4,0,0,0,1.74-1.79c.15-.19.07-.61,0-.92-.13-.71-.38-1.4-.46-2.1a3.33,3.33,0,0,1,1.51-3.2c1.14,1.24,1.31,2.67.79,4.58a25.78,25.78,0,0,0,2.09-1.6,1.5,1.5,0,0,0,.33-1c0-.57-.13-1.14-.13-1.72,0-1.6.43-2.29,2-3.27,1,1.34.76,2.77.19,4.44.62-.27,1-.49,1.46-.64a1.71,1.71,0,0,0,1.26-2A3.8,3.8,0,0,1,25,0c1,1.76.27,3.16-.72,4.51Z"/><path class="cls-1" d="M29.16,25.24a1.51,1.51,0,0,0-.33-.23,6,6,0,0,0-.68-.35,6.57,6.57,0,0,0-.89-.33,3.54,3.54,0,0,0-1-.13q-1.31,0-1.31.89a.7.7,0,0,0,.14.45,1.26,1.26,0,0,0,.42.33,3.86,3.86,0,0,0,.7.26l1,.27a12.82,12.82,0,0,1,1.38.46,3.72,3.72,0,0,1,1,.62,2.51,2.51,0,0,1,.65.9,3.11,3.11,0,0,1,.23,1.26,3.16,3.16,0,0,1-.33,1.53,2.85,2.85,0,0,1-.9,1,3.78,3.78,0,0,1-1.28.56,6.37,6.37,0,0,1-1.49.17,8.3,8.3,0,0,1-1.2-.09,8.65,8.65,0,0,1-1.2-.26A9.53,9.53,0,0,1,23,32.14a6.31,6.31,0,0,1-1-.56l1.08-2.15a2.08,2.08,0,0,0,.39.28,5.8,5.8,0,0,0,.82.42,8.34,8.34,0,0,0,1.09.38,4.58,4.58,0,0,0,1.22.17q1.31,0,1.31-.8a.67.67,0,0,0-.2-.5,1.85,1.85,0,0,0-.54-.35,5.88,5.88,0,0,0-.82-.29l-1-.3a8.87,8.87,0,0,1-1.28-.49,3.37,3.37,0,0,1-.9-.61,2.21,2.21,0,0,1-.53-.8,2.94,2.94,0,0,1-.18-1.06A3.35,3.35,0,0,1,22.78,24a3.22,3.22,0,0,1,.86-1.09,3.74,3.74,0,0,1,1.26-.65A5,5,0,0,1,26.4,22a5.75,5.75,0,0,1,1.1.1,8.3,8.3,0,0,1,1,.27,7.46,7.46,0,0,1,.93.38q.43.21.79.42Z"/><path class="cls-1" d="M39.5,30.63v2.16H32V22.12h7.37v2.16h-4.9v2.08h4.21v2H34.46v2.27Z"/><path class="cls-1" d="M41,32.79V22.12h4a5.88,5.88,0,0,1,2.31.43A4.66,4.66,0,0,1,50,25.38a6.23,6.23,0,0,1,.33,2.07,6.14,6.14,0,0,1-.38,2.2,4.74,4.74,0,0,1-1.08,1.68,4.83,4.83,0,0,1-1.68,1.08A6,6,0,0,1,45,32.8Zm6.8-5.34a4.15,4.15,0,0,0-.19-1.28,2.89,2.89,0,0,0-.55-1,2.4,2.4,0,0,0-.89-.65A3,3,0,0,0,45,24.28H43.47v6.35H45a2.86,2.86,0,0,0,1.2-.24,2.43,2.43,0,0,0,.88-.65,3.05,3.05,0,0,0,.54-1A4.1,4.1,0,0,0,47.8,27.45Z"/><path class="cls-1" d="M56.45,32.88a5,5,0,0,1-2.16-.47,5.33,5.33,0,0,1-1.66-1.23,5.58,5.58,0,0,1-1.08-1.74,5.47,5.47,0,0,1-.4-2,5.33,5.33,0,0,1,.4-2,5.38,5.38,0,0,1,2.8-2.91,5.11,5.11,0,0,1,2.13-.44,5,5,0,0,1,2.16.47,5.28,5.28,0,0,1,1.67,1.23,5.56,5.56,0,0,1,1.07,1.72,5.5,5.5,0,0,1,.39,2,5.33,5.33,0,0,1-.4,2,5.4,5.4,0,0,1-2.79,2.92A5,5,0,0,1,56.45,32.88Zm-2.78-5.41a4,4,0,0,0,.18,1.2,3.19,3.19,0,0,0,.53,1,2.57,2.57,0,0,0,2.08,1,2.55,2.55,0,0,0,1.23-.28,2.67,2.67,0,0,0,.87-.75,3.27,3.27,0,0,0,.52-1,4.1,4.1,0,0,0,.17-1.18,4,4,0,0,0-.18-1.2,3,3,0,0,0-.54-1,2.69,2.69,0,0,0-.88-.72,2.61,2.61,0,0,0-1.2-.26,2.56,2.56,0,0,0-1.23.28,2.74,2.74,0,0,0-.87.73,3.08,3.08,0,0,0-.53,1,4.1,4.1,0,0,0-.17,1.19Z"/><path class="cls-1" d="M65.66,26.68v6.11H63.2V22.12h1.93l5,6.27V22.12h2.46V32.79h-2Z"/><path class="cls-1" d="M77.51,22.12h2.23l3.89,10.68H81.1l-.82-2.4H77l-.81,2.39H73.62Zm2.36,6.59-1.25-3.78L77.34,28.7Z"/><path class="cls-1" d="M36.66,47.17V36.5h2.46V47.17Z"/><path class="cls-1" d="M43.64,41.07v6.11H41.18V36.5h1.93l5,6.27V36.5h2.46V47.17h-2Z"/><path class="cls-1" d="M60.71,38.66H57.47v8.5H55v-8.5H51.73V36.5h9Z"/><path class="cls-1" d="M61.92,47.17V36.5h2.47V45h5.16v2.16Z"/><path class="cls-1" d="M21.82,18.58a.84.84,0,0,1-.35.71,1.21,1.21,0,0,1-.38.18,1.66,1.66,0,0,1-.46.06H18.83V15.83h2a.74.74,0,0,1,.35.08.88.88,0,0,1,.27.22,1,1,0,0,1,.17.3,1,1,0,0,1-.08.85.83.83,0,0,1-.4.36,1,1,0,0,1,.5.33A1,1,0,0,1,21.82,18.58Zm-2.27-2.14v.93h1a.43.43,0,0,0,.33-.12.46.46,0,0,0,.13-.35.48.48,0,0,0-.12-.33.38.38,0,0,0-.29-.12Zm1.54,2a.55.55,0,0,0,0-.19A.53.53,0,0,0,21,18.1a.42.42,0,0,0-.14-.11.38.38,0,0,0-.17,0H19.55v1h1.07a.47.47,0,0,0,.19,0,.44.44,0,0,0,.15-.1.5.5,0,0,0,.14-.33Z"/><path class="cls-1" d="M25,18.91v.63H22.39V15.83h2.53v.63H23.11v.9h1.56v.59H23.11v1Z"/><path class="cls-1" d="M27.66,16.8l-.13-.1-.24-.12-.3-.1a1.31,1.31,0,0,0-.33,0,.74.74,0,0,0-.44.11.36.36,0,0,0-.15.31.33.33,0,0,0,.06.19.47.47,0,0,0,.16.13,1.32,1.32,0,0,0,.26.1l.37.1.49.16a1.34,1.34,0,0,1,.38.21A.87.87,0,0,1,28,18a1,1,0,0,1,.08.43A1.08,1.08,0,0,1,28,19a.94.94,0,0,1-.3.33,1.31,1.31,0,0,1-.44.19,2.21,2.21,0,0,1-.52.06,2.8,2.8,0,0,1-.83-.12,2.56,2.56,0,0,1-.74-.34l.33-.62.17.12.29.15a2.24,2.24,0,0,0,.37.13,1.67,1.67,0,0,0,.42.05q.59,0,.59-.38a.33.33,0,0,0-.07-.2.58.58,0,0,0-.19-.15,1.86,1.86,0,0,0-.3-.11l-.4-.12a3.36,3.36,0,0,1-.46-.16,1.21,1.21,0,0,1-.33-.2.76.76,0,0,1-.2-.27.94.94,0,0,1-.07-.37,1.16,1.16,0,0,1,.1-.5,1,1,0,0,1,.29-.37,1.31,1.31,0,0,1,.42-.22,1.79,1.79,0,0,1,.53-.08,2.05,2.05,0,0,1,.72.12,2.68,2.68,0,0,1,.58.29Z"/><path class="cls-1" d="M31.41,16.46H30.22v3.08h-.72V16.46H28.32v-.63h3.09Z"/><path class="cls-1" d="M36.1,15.83v3.71h-.72V18H33.7v1.59H33V15.83h.72v1.49h1.68V15.83Z"/><path class="cls-1" d="M38.44,18.93a.83.83,0,0,0,.43-.1.84.84,0,0,0,.28-.27,1.12,1.12,0,0,0,.15-.39,2.22,2.22,0,0,0,0-.45V15.83h.72v1.89a2.71,2.71,0,0,1-.09.72,1.63,1.63,0,0,1-.29.59,1.38,1.38,0,0,1-.5.4,1.71,1.71,0,0,1-.74.15,1.68,1.68,0,0,1-.76-.15,1.41,1.41,0,0,1-.5-.41,1.63,1.63,0,0,1-.28-.59,2.78,2.78,0,0,1-.08-.7V15.83h.72v1.89a2.25,2.25,0,0,0,0,.45,1.12,1.12,0,0,0,.15.39A.79.79,0,0,0,38.44,18.93Z"/><path class="cls-1" d="M43.82,19.54V17.08l-1,1.83h-.39l-1-1.83v2.46h-.72V15.83h.77l1.1,2.11,1.11-2.11h.77v3.71Z"/><path class="cls-1" d="M46.37,15.83H47l1.41,3.71H47.7l-.36-.92H46l-.33.93H45Zm.83,2.29-.51-1.45-.53,1.46Z"/><path class="cls-1" d="M49.56,17.16v2.38h-.72V15.83h.56l1.93,2.44V15.83H52v3.71h-.59Z"/><path class="cls-1" d="M52.82,19.54V15.83h.72v3.71Z"/><path class="cls-1" d="M57.1,16.46h-1.2v3.08h-.72V16.46H54v-.63h3.09Z"/><path class="cls-1" d="M58.25,15.83h.65l1.41,3.71h-.76l-.35-.92H57.9l-.33.93h-.74Zm.83,2.29-.51-1.45L58,18.12Z"/><path class="cls-1" d="M60.7,19.54V15.83h1.63a1.06,1.06,0,0,1,.47.11,1.22,1.22,0,0,1,.37.28,1.33,1.33,0,0,1,.25.4,1.19,1.19,0,0,1,.09.45,1.24,1.24,0,0,1-.18.65,1,1,0,0,1-.49.42l.85,1.4h-.81l-.75-1.24h-.71v1.25Zm.72-1.88h.91a.38.38,0,0,0,.19,0,.47.47,0,0,0,.15-.13.65.65,0,0,0,.1-.19.75.75,0,0,0,0-.24.65.65,0,0,0,0-.24.62.62,0,0,0-.11-.19.51.51,0,0,0-.16-.12.42.42,0,0,0-.19,0h-.87Z"/><path class="cls-1" d="M64.18,19.54V15.83h.72v3.71Z"/><path class="cls-1" d="M66.74,15.83h.65l1.41,3.71h-.74l-.36-.92H66.39l-.33.93h-.74Zm.83,2.29-.51-1.45-.53,1.46Z"/><path class="cls-1" d="M69.92,17.16v2.38h-.72V15.83h.56l1.94,2.44V15.83h.72v3.71h-.59Z"/><path class="cls-1" d="M74.44,19.54V15.83h2.49v.63H75.16v1h1.47V18H75.16v1.54Z"/><path class="cls-1" d="M77.44,19.54V15.83h.72v3.71Z"/><path class="cls-1" d="M78.94,19.54V15.83h.72v3.08h1.89v.63Z"/><path class="cls-1" d="M85,19.54V17.08l-1,1.83h-.38l-1-1.83v2.46H82V15.83h.77l1.1,2.11L85,15.83h.77v3.71Z"/><path class="cls-1" d="M28.54,54.4V49.53h3.27v.83H29.49v1.26h1.94v.77H29.49v2Z"/><path class="cls-1" d="M32.48,54.4V49.53h.95V54.4Z"/><path class="cls-1" d="M34.44,54.4V49.53h.95v4h2.48v.83Z"/><path class="cls-1" d="M42.43,54.4V51.17l-1.24,2.4h-.52l-1.26-2.4V54.4h-.95V49.53h1l1.44,2.77,1.45-2.77h1V54.4Z"/><path class="cls-1" d="M46,54.4V49.53h3.27v.83H47v1.26h1.94v.77H47v2Z"/><path class="cls-1" d="M53.36,53.57v.83H50V49.53H53.3v.83H50.92v1.17H53v.76H50.92v1.27Z"/><path class="cls-1" d="M56.9,50.8l-.18-.13a2.13,2.13,0,0,0-.31-.16,2.69,2.69,0,0,0-.4-.13,1.73,1.73,0,0,0-.43-.06,1,1,0,0,0-.59.14.48.48,0,0,0-.19.41.42.42,0,0,0,.07.25.62.62,0,0,0,.21.18,1.76,1.76,0,0,0,.35.14l.48.13q.36.09.65.21a1.76,1.76,0,0,1,.49.27,1.14,1.14,0,0,1,.33.4,1.31,1.31,0,0,1,.11.57,1.41,1.41,0,0,1-.15.65,1.24,1.24,0,0,1-.4.45,1.73,1.73,0,0,1-.58.25,2.89,2.89,0,0,1-.68.08,3.67,3.67,0,0,1-1.09-.16,3.34,3.34,0,0,1-1-.47l.42-.82a1.31,1.31,0,0,0,.22.16,3.35,3.35,0,0,0,.38.2,2.94,2.94,0,0,0,.49.17,2.2,2.2,0,0,0,.55.07q.78,0,.78-.5a.41.41,0,0,0-.09-.27.76.76,0,0,0-.25-.19,2.45,2.45,0,0,0-.4-.15l-.52-.15a4.46,4.46,0,0,1-.61-.21,1.59,1.59,0,0,1-.43-.27,1,1,0,0,1-.26-.36,1.23,1.23,0,0,1-.08-.48,1.51,1.51,0,0,1,.14-.65,1.33,1.33,0,0,1,.38-.48,1.73,1.73,0,0,1,.57-.29,2.34,2.34,0,0,1,.69-.1,2.69,2.69,0,0,1,.95.16,3.53,3.53,0,0,1,.76.38Z"/><path class="cls-1" d="M61.82,50.36H60.26v4h-.94v-4H57.76v-.83h4.06Z"/><path class="cls-1" d="M62.43,54.4V49.53h.95V54.4Z"/><path class="cls-1" d="M64.89,49.53l1.31,3.69,1.31-3.69h1l-1.9,4.87h-.8l-1.92-4.87Z"/><path class="cls-1" d="M70,49.53h.84l1.85,4.87h-1l-.45-1.22h-1.7l-.45,1.22h-1Zm1.09,3-.67-1.92-.7,1.92Z"/><path class="cls-1" d="M73.22,54.4V49.53h.95v4h2.48v.83Z"/></g></g></g></g></svg>