<svg xmlns="http://www.w3.org/2000/svg" viewBox="0 0 215.9 163.5"><title>settlementhome-black</title><g id="Layer_2" data-name="Layer 2"><g id="Layer_1-2" data-name="Layer 1"><path d="M62.6.1c.6,5.3.1,11.8.3,17.6h91.2V.1h24.1c1,5.6-1.4,12,0,17.8.4,1.8,3,4.5,4.7,6.8,8.2,11.1,16,21.7,24.1,32.5,3.2,4.3,6.6,8.4,8.9,13.1H205.4c-.1,19.7.2,41.7,0,59.7h-27c-.5-4-.9-8-1.3-12.1.8-.5,2.5-.1,3.7-.3-1.1-5.9-1.8-12-2.9-18.1-1.5-8.4-4.4-16.4-1.8-24.6,4.3,6.2,7.7,13.4,11.5,20.2a14.11,14.11,0,0,0,4.2-.3c-4.9-12-9.2-24.5-16-34.6a28.23,28.23,0,0,0-8.6-1c-.3-6,5.3-5.9,9.4-4.2.1-7.2-2.6-15.4-7.1-19.1a11.66,11.66,0,0,0-7.9-2.1c-9,1-12.2,12.2-13.4,21.2,4.2-1.5,10.1-2,9.7,4.2-3.1.1-6.5-.1-8.6,1.3-1.7,1.1-3.2,4.5-4.2,6.5-3.4,6.8-6.9,15.9-9.7,22.3-5-9.4-8.2-20.6-14.1-29.1a73.88,73.88,0,0,0-8.6-1.3c-1.6-3.3,2.2-3.6,3.9-5.5,3.9-4.4,2.4-12.1-1.8-15.2-8.8-6.3-24.9,4.5-15.2,15.2,1.3,1.4,2,1.3,3.9,3.1v2.4c-3.1.4-6.6.4-8.9,1.6C88.7,68.7,85.4,79.4,81,89.1c-2.9-3.8-4.2-9.4-6.8-15.2-1-2.2-2.3-4.7-3.7-7.3-1-2-2.7-5.7-4.5-6.5-2.5-1.2-5.2-.2-8.1-1-1.1-3.4,2.2-3.5,3.7-5s1.8-2.9,2.6-4.7a11.59,11.59,0,0,1,3.4.5C67.3,39.6,59.5,30.4,49,34.4c-5.9,2.2-8.5,8-10,15.2,1,.8,2.8-.8,3.7-.3a7.34,7.34,0,0,0,2.1,3.9C46.3,55,49.5,55.4,49,59a57.62,57.62,0,0,0-8.9,1.3C33.4,70.4,29.3,83,24.1,94.6c.7.8,2.5.5,3.9.5,4.2-6.5,7.6-13.9,11.8-20.4,3.1,11.8-3.3,23.3-4.7,34.8,1,.5,3,.1,4.5.3-.5,7-1.2,13.7-2.1,20.2h-27V70.3H0c2.5-4.7,5.9-9,9.2-13.4,9.6-13,19.6-26.5,29.3-39.6V0C46.5.1,54.5.1,62.6.1Z"/><path d="M66.8,75c4.4,6.2,7.8,13.3,11.5,20.2a33.78,33.78,0,0,0,4.5,0c3.1-4.7,5.7-10.5,8.6-15.7.9-1.5,1.9-3.5,3.4-4.2,3.5,17.9-1.7,36.5-2.6,54.8H69.1c-.7-6.7-1.3-13.4-2.1-19.9.9-.5,2.8-.1,4.2-.3C70.1,98.1,63.5,87.1,66.8,75Z"/><path d="M121.3,75c4.6,6.1,7.8,13.5,11.8,20.2h4.2c4.4-6.4,7.2-14.2,12.1-20.2,2.5,14.7-3.4,28.3-4.7,42.4.6.7,2.8-.2,3.4.5-.5,4-.7,8.2-1.3,12.1H123.7C123,111.7,117,92.6,121.3,75Z"/><path d="M107.9,94.4c2.9,11.4,4.5,24,7.1,35.6H101.1C103.2,118,105.3,106,107.9,94.4Z"/><path d="M56.5,109.9c1.1,6.8,2.6,13.3,3.7,20.2H46.6c.8-7.1,2.6-13.1,3.4-20.2Z"/><path d="M167.1,117.8q1.35,6,2.4,12.3H155.6c.8-4.1,1.5-8.3,2.4-12.3Z"/><path d="M15,137.4h-.7a7.57,7.57,0,0,0-.9-1.8c-.4-.6-.8-1-1.2-1a2,2,0,0,1-.7-.1H10.4v10.3a1.27,1.27,0,0,0,.1.6.7.7,0,0,0,.5.4c.1.1.4.1.7.2a2.49,2.49,0,0,0,.8.1v.7H5.2v-.7A2.81,2.81,0,0,0,6,146c.3,0,.5-.1.7-.1a1,1,0,0,0,.5-.4,1.27,1.27,0,0,0,.1-.6V134.5H6.2a1.48,1.48,0,0,0-.7.1c-.4,0-.7.4-1.2,1a5.07,5.07,0,0,0-.9,1.8H2.7v-3.8H15Z"/><path d="M27.7,146.8H22.1v-.7h.4a.6.6,0,0,0,.4-.1l.3-.3c.1-.1.1-.3.1-.6v-4.3a2,2,0,0,0-.4-1.4,1.23,1.23,0,0,0-1-.5,1.7,1.7,0,0,0-.7.1l-.6.3c-.2.1-.3.3-.4.4l-.3.3v5a.75.75,0,0,0,.1.5l.3.3c.1.1.2.1.4.1s.3.1.4.1v.7H15.4V146h.5c.2,0,.3,0,.4-.1a1.38,1.38,0,0,0,.4-.3c.1-.1.1-.3.1-.6V134.7a1.27,1.27,0,0,0-.1-.6,1,1,0,0,0-.4-.5c-.1-.1-.3-.1-.5-.2s-.4-.1-.6-.1v-.7l4.6-.2.1.1v6.4h0l.6-.6a4.23,4.23,0,0,1,.7-.5,3.92,3.92,0,0,1,.9-.4,5,5,0,0,1,1.2-.2,2.87,2.87,0,0,1,2.3.9,3.37,3.37,0,0,1,.8,2.3v4.5a.75.75,0,0,0,.1.5,1.38,1.38,0,0,0,.4.3c.1,0,.2.1.4.1a4.33,4.33,0,0,0,.5.1v.9Z"/><path d="M38.5,144.5a3.92,3.92,0,0,1-.8,1,7,7,0,0,1-1,.8,5,5,0,0,1-1.3.5,6.66,6.66,0,0,1-3.9-.2,4.88,4.88,0,0,1-1.6-1,4.35,4.35,0,0,1-1-1.6,5.82,5.82,0,0,1-.3-1.9,5.66,5.66,0,0,1,.3-1.8,4,4,0,0,1,1-1.5,6.45,6.45,0,0,1,1.6-1.1,4.92,4.92,0,0,1,2.1-.4,5.84,5.84,0,0,1,2.1.3,3.39,3.39,0,0,1,1.4.9,4.18,4.18,0,0,1,.8,1.2,3.89,3.89,0,0,1,.2,1.5v.6H32a4.79,4.79,0,0,0,.7,2.9,2.64,2.64,0,0,0,2.3,1,3,3,0,0,0,1.6-.5,3.45,3.45,0,0,0,1.2-1.2ZM35,141a3.75,3.75,0,0,0-.1-1.1c-.1-.3-.1-.7-.2-1a1.61,1.61,0,0,0-.4-.7,1.45,1.45,0,0,0-.7-.2,1.08,1.08,0,0,0-1.1.7A5.61,5.61,0,0,0,32,141Z"/><path d="M49.8,147.1a8.52,8.52,0,0,1-2.3-.3,7.51,7.51,0,0,1-1.8-.7l-.6.6h-.8l-.1-4.8H45a9.14,9.14,0,0,0,.7,1.4,4.49,4.49,0,0,0,1,1.3,4.12,4.12,0,0,0,1.3,1,2.93,2.93,0,0,0,1.6.4,2.71,2.71,0,0,0,1.9-.6,2.18,2.18,0,0,0,.7-1.6,1.76,1.76,0,0,0-.6-1.3,5,5,0,0,0-1.8-.9c-.5-.2-1-.3-1.4-.5s-.8-.3-1.2-.4a5.26,5.26,0,0,1-2-1.5,4.28,4.28,0,0,1-.6-2.2,4,4,0,0,1,.3-1.5,3.05,3.05,0,0,1,1-1.3,4.8,4.8,0,0,1,1.6-.9,6.65,6.65,0,0,1,2.1-.3,7.61,7.61,0,0,1,2.1.3,11.64,11.64,0,0,1,1.5.6l.6-.6h.8l.1,4.5h-.8a10.09,10.09,0,0,0-.7-1.5,14.8,14.8,0,0,0-.8-1.3,8.12,8.12,0,0,0-1-.9,3.19,3.19,0,0,0-1.4-.3,2.11,2.11,0,0,0-1.6.6,1.82,1.82,0,0,0-.6,1.4,1.61,1.61,0,0,0,.6,1.3,6.5,6.5,0,0,0,1.7.9c.5.2.9.3,1.4.5a9.29,9.29,0,0,0,1.3.4,3.81,3.81,0,0,1,2,1.4,3.82,3.82,0,0,1-.8,5.3,5.56,5.56,0,0,1-1.7.9A4.42,4.42,0,0,1,49.8,147.1Z"/><path d="M66.5,144.5a3.92,3.92,0,0,1-.8,1,7,7,0,0,1-1,.8,5,5,0,0,1-1.3.5,6.66,6.66,0,0,1-3.9-.2,4.88,4.88,0,0,1-1.6-1,4.35,4.35,0,0,1-1-1.6,5.82,5.82,0,0,1-.3-1.9,5.66,5.66,0,0,1,.3-1.8,4,4,0,0,1,1-1.5,6.45,6.45,0,0,1,1.6-1.1,4.92,4.92,0,0,1,2.1-.4,5.84,5.84,0,0,1,2.1.3,3.39,3.39,0,0,1,1.4.9,4.18,4.18,0,0,1,.8,1.2,3.89,3.89,0,0,1,.2,1.5v.6H60a4.79,4.79,0,0,0,.7,2.9,2.64,2.64,0,0,0,2.3,1,3,3,0,0,0,1.6-.5,3.45,3.45,0,0,0,1.2-1.2ZM63,141a3.75,3.75,0,0,0-.1-1.1c-.1-.3-.1-.7-.2-1a1.61,1.61,0,0,0-.4-.7,1.45,1.45,0,0,0-.7-.2,1.08,1.08,0,0,0-1.1.7A5.61,5.61,0,0,0,60,141Z"/><path d="M74.3,146.3c-.4.2-.8.3-1.3.5a7.93,7.93,0,0,1-1.7.2,2.54,2.54,0,0,1-2.1-.7,2.58,2.58,0,0,1-.7-2v-5.7H66.8v-1h1.7v-2.8h3v2.8h2.6v1H71.5v5.1a2.81,2.81,0,0,0,.3,1.5,1.29,1.29,0,0,0,1.1.5h.7a3.54,3.54,0,0,0,.6-.1v.7Z"/><path d="M81.9,146.3c-.4.2-.8.3-1.3.5a7.93,7.93,0,0,1-1.7.2,2.54,2.54,0,0,1-2.1-.7,2.58,2.58,0,0,1-.7-2v-5.7H74.4v-1h1.7v-2.8h3v2.8h2.6v1H79.1v5.1a2.81,2.81,0,0,0,.3,1.5,1.29,1.29,0,0,0,1.1.5h.7a3.54,3.54,0,0,0,.6-.1v.7Z"/><path d="M88.2,146.8H82.4v-.7h.5c.2,0,.3,0,.4-.1a1.38,1.38,0,0,0,.4-.3c.1-.1.1-.3.1-.6V134.8a1.7,1.7,0,0,0-.1-.7,1,1,0,0,0-.4-.5.85.85,0,0,0-.6-.2,2,2,0,0,0-.7-.1v-.7l4.7-.2.1.1v12.4a1.27,1.27,0,0,0,.1.6c.1.1.2.3.4.3a.6.6,0,0,0,.4.1,4.33,4.33,0,0,0,.5.1Z"/><path d="M99,144.5a3.92,3.92,0,0,1-.8,1,7,7,0,0,1-1,.8,5,5,0,0,1-1.3.5,6.66,6.66,0,0,1-3.9-.2,4.88,4.88,0,0,1-1.6-1,4.35,4.35,0,0,1-1-1.6,5.82,5.82,0,0,1-.3-1.9,5.66,5.66,0,0,1,.3-1.8,4,4,0,0,1,1-1.5,6.45,6.45,0,0,1,1.6-1.1,4.92,4.92,0,0,1,2.1-.4,5.84,5.84,0,0,1,2.1.3,3.39,3.39,0,0,1,1.4.9,4.18,4.18,0,0,1,.8,1.2,3.89,3.89,0,0,1,.2,1.5v.6H92.3a4.79,4.79,0,0,0,.7,2.9,2.64,2.64,0,0,0,2.3,1,3,3,0,0,0,1.6-.5,3.45,3.45,0,0,0,1.2-1.2ZM95.5,141a3.75,3.75,0,0,0-.1-1.1c-.1-.3-.1-.7-.2-1a1.61,1.61,0,0,0-.4-.7,1.45,1.45,0,0,0-.7-.2,1.08,1.08,0,0,0-1.1.7,5.61,5.61,0,0,0-.5,2.3Z"/><path d="M118.4,146.8h-5.5v-.7h.4a.6.6,0,0,0,.4-.1l.3-.3a3.54,3.54,0,0,0,.1-.6v-4.3a2.65,2.65,0,0,0-.3-1.4,1.23,1.23,0,0,0-1-.5,1.48,1.48,0,0,0-.7.1l-.6.3c-.2.1-.3.3-.4.4l-.3.3v5a.75.75,0,0,0,.1.5c.1.1.1.2.3.3a.37.37,0,0,0,.3.1c.1,0,.3.1.4.1v.7h-5.3V146h.4a.6.6,0,0,0,.4-.1l.3-.3a3.54,3.54,0,0,0,.1-.6v-4.3a2.65,2.65,0,0,0-.3-1.4,1.23,1.23,0,0,0-1-.5,1.48,1.48,0,0,0-.7.1l-.6.3c-.2.1-.3.3-.4.4l-.3.3v5a.75.75,0,0,0,.1.5c.1.1.2.3.3.3a.37.37,0,0,0,.3.1c.1,0,.3.1.4.1v.7H100v-.7h.5c.2,0,.3,0,.4-.1a1.38,1.38,0,0,0,.4-.3c.1-.1.1-.3.1-.6v-5.4a1.42,1.42,0,0,0-.2-.6.78.78,0,0,0-.4-.4c-.1-.1-.3-.1-.4-.2s-.4-.1-.6-.1v-.7l4.4-.2.1.1v1.3h0a3.39,3.39,0,0,0,.6-.6,3,3,0,0,1,.7-.5,3.92,3.92,0,0,1,.9-.4,4.87,4.87,0,0,1,1.2-.1,3.45,3.45,0,0,1,1.8.5,2.34,2.34,0,0,1,1,1.2h.1a4.35,4.35,0,0,1,.7-.6c.3-.2.5-.4.7-.5a1.88,1.88,0,0,1,.9-.4,5,5,0,0,1,1.2-.2,3.11,3.11,0,0,1,2.2.8,3.37,3.37,0,0,1,.8,2.3v4.5a1.27,1.27,0,0,0,.1.6,1.38,1.38,0,0,0,.4.3c.1,0,.2.1.4.1a4.33,4.33,0,0,0,.5.1v1Z"/><path d="M129.2,144.5a3.92,3.92,0,0,1-.8,1,7,7,0,0,1-1,.8,5,5,0,0,1-1.3.5,6.66,6.66,0,0,1-3.9-.2,4.88,4.88,0,0,1-1.6-1,4.35,4.35,0,0,1-1-1.6,5.82,5.82,0,0,1-.3-1.9,5.66,5.66,0,0,1,.3-1.8,4,4,0,0,1,1-1.5,6.45,6.45,0,0,1,1.6-1.1,4.92,4.92,0,0,1,2.1-.4,5.84,5.84,0,0,1,2.1.3,3.39,3.39,0,0,1,1.4.9,4.18,4.18,0,0,1,.8,1.2,3.89,3.89,0,0,1,.2,1.5v.6h-6.3a4.79,4.79,0,0,0,.7,2.9,2.64,2.64,0,0,0,2.3,1,3,3,0,0,0,1.6-.5,3.45,3.45,0,0,0,1.2-1.2Zm-3.5-3.5a3.75,3.75,0,0,0-.1-1.1c-.1-.3-.1-.7-.2-1a1.61,1.61,0,0,0-.4-.7,1.45,1.45,0,0,0-.7-.2,1.08,1.08,0,0,0-1.1.7,5.61,5.61,0,0,0-.5,2.3Z"/><path d="M142.3,146.8h-5.6v-.7h.4a.6.6,0,0,0,.4-.1l.3-.3c.1-.1.1-.3.1-.6v-4.3a2.65,2.65,0,0,0-.3-1.4,1.23,1.23,0,0,0-1-.5,1.7,1.7,0,0,0-.7.1l-.6.3c-.2.1-.3.3-.4.4l-.3.3v5a.75.75,0,0,0,.1.5c.1.1.2.3.3.3s.2.1.4.1.3.1.4.1v.7h-5.6V146a.9.9,0,0,0,.5-.1c.2,0,.3-.1.4-.1a1.38,1.38,0,0,0,.4-.3c.1-.1.1-.3.1-.6v-5.4a1.27,1.27,0,0,0-.1-.6,1.76,1.76,0,0,0-.4-.5c-.1-.1-.3-.1-.4-.2s-.4-.1-.6-.1v-.7l4.4-.2.1.1v1.3h0a3.39,3.39,0,0,0,.6-.6,3,3,0,0,1,.7-.5,3.92,3.92,0,0,1,.9-.4,5,5,0,0,1,1.2-.2,2.87,2.87,0,0,1,2.3.9,3.37,3.37,0,0,1,.8,2.3v4.5a.75.75,0,0,0,.1.5,1.38,1.38,0,0,0,.4.3c.1,0,.2.1.4.1a4.33,4.33,0,0,0,.5.1v1.2Z"/><path d="M150.1,146.3c-.4.2-.8.3-1.3.5a7.93,7.93,0,0,1-1.7.2,2.54,2.54,0,0,1-2.1-.7,2.58,2.58,0,0,1-.7-2v-5.7h-1.7v-1h1.7v-2.8h3v2.8h2.6v1h-2.6v5.1a2.81,2.81,0,0,0,.3,1.5,1.29,1.29,0,0,0,1.1.5h.7a3.54,3.54,0,0,0,.6-.1v.7Z"/><path d="M171.7,146.8h-7.1v-.7a2,2,0,0,0,.7-.1,1.76,1.76,0,0,1,.6-.1,1,1,0,0,0,.5-.4,1.08,1.08,0,0,0,.1-.6v-4.5h-5.6v4.4a1.27,1.27,0,0,0,.1.6.7.7,0,0,0,.5.4,3.93,3.93,0,0,1,.6.2,2,2,0,0,0,.7.1v.7h-7.1v-.7a2,2,0,0,0,.7-.1c.3,0,.5-.1.7-.1a1,1,0,0,0,.5-.4,1.27,1.27,0,0,0,.1-.6v-9.3a.75.75,0,0,0-.1-.5,1.08,1.08,0,0,0-.5-.4,1.45,1.45,0,0,0-.7-.2,1.76,1.76,0,0,0-.6-.1v-.7h7.1v.7a2,2,0,0,0-.7.1,3.54,3.54,0,0,0-.6.1,1,1,0,0,0-.5.4,1.27,1.27,0,0,0-.1.6v3.9h5.6v-3.8a.75.75,0,0,0-.1-.5,1.08,1.08,0,0,0-.5-.4c-.2-.1-.4-.1-.6-.2a1.76,1.76,0,0,0-.6-.1v-.7h7.1v.7a2,2,0,0,0-.7.1,1.85,1.85,0,0,0-.7.2,1,1,0,0,0-.5.4,1.27,1.27,0,0,0-.1.6v9.3a1.27,1.27,0,0,0,.1.6.7.7,0,0,0,.5.4c.1.1.4.1.6.2s.5.1.7.1v.4Z"/><path d="M182.4,138.6a3.07,3.07,0,0,1,1,1.5,5.85,5.85,0,0,1,.4,1.9,4.06,4.06,0,0,1-.4,1.9,5.37,5.37,0,0,1-1,1.6,6.19,6.19,0,0,1-1.7,1.1,8.52,8.52,0,0,1-2.3.4,7.11,7.11,0,0,1-2.1-.3,4.25,4.25,0,0,1-1.7-1,4.18,4.18,0,0,1-1.1-1.5,5.2,5.2,0,0,1,0-4,4.18,4.18,0,0,1,1.1-1.5,4.78,4.78,0,0,1,1.7-1,7.88,7.88,0,0,1,2.3-.4,5.56,5.56,0,0,1,2.3.4A6,6,0,0,1,182.4,138.6Zm-2.4,6.5a13,13,0,0,0,.3-1.3,9.15,9.15,0,0,0,.1-1.7,8.86,8.86,0,0,0-.4-2.8,2,2,0,0,0-.6-.9,1.76,1.76,0,0,0-2.1.1,1.8,1.8,0,0,0-.6.9l-.3,1.2c0,.5-.1,1-.1,1.5a8.62,8.62,0,0,0,.1,1.7,3.08,3.08,0,0,0,.3,1.3,1.46,1.46,0,0,0,.6.9,1.82,1.82,0,0,0,2,0A1.27,1.27,0,0,0,180,145.1Z"/><path d="M203.4,146.8h-5.5v-.7h.4a.6.6,0,0,0,.4-.1l.3-.3a3.54,3.54,0,0,0,.1-.6v-4.3a2.65,2.65,0,0,0-.3-1.4,1.1,1.1,0,0,0-1-.5,1.48,1.48,0,0,0-.7.1l-.6.3c-.2.1-.3.3-.4.4l-.3.3v5a.75.75,0,0,0,.1.5c.1.1.1.2.3.3a.37.37,0,0,0,.3.1c.1,0,.3.1.4.1v.7h-5.3V146h.4c.2,0,.3,0,.4-.1l.3-.3c.1-.1.1-.3.1-.6v-4.3a2.65,2.65,0,0,0-.3-1.4,1.1,1.1,0,0,0-1-.5,1.48,1.48,0,0,0-.7.1l-.6.3c-.2.1-.3.3-.4.4l-.3.3v5a.75.75,0,0,0,.1.5c.1.1.2.3.3.3a.37.37,0,0,0,.3.1c.1,0,.3.1.4.1v.7H185v-.7h.5c.2,0,.3,0,.4-.1a1.38,1.38,0,0,0,.4-.3c.1-.1.1-.3.1-.6v-5.4a1.42,1.42,0,0,0-.2-.6.78.78,0,0,0-.4-.4c-.1-.1-.3-.1-.4-.2s-.4-.1-.6-.1v-.7l4.4-.2.1.1v1.3h0a3.39,3.39,0,0,0,.6-.6,3,3,0,0,1,.7-.5,3.92,3.92,0,0,1,.9-.4,4.87,4.87,0,0,1,1.2-.1,3.45,3.45,0,0,1,1.8.5,2.34,2.34,0,0,1,1,1.2h.1a4.35,4.35,0,0,1,.7-.6c.3-.2.5-.4.7-.5a1.88,1.88,0,0,1,.9-.4,5,5,0,0,1,1.2-.2,3.11,3.11,0,0,1,2.2.8,3.2,3.2,0,0,1,.8,2.3v4.5a1.27,1.27,0,0,0,.1.6,1.38,1.38,0,0,0,.4.3c.1,0,.2.1.4.1a4.33,4.33,0,0,0,.5.1v1Z"/><path d="M214.3,144.5a3.92,3.92,0,0,1-.8,1,7,7,0,0,1-1,.8,5,5,0,0,1-1.3.5,6.66,6.66,0,0,1-3.9-.2,4.88,4.88,0,0,1-1.6-1,4.35,4.35,0,0,1-1-1.6,5.82,5.82,0,0,1-.3-1.9,5.66,5.66,0,0,1,.3-1.8,4,4,0,0,1,1-1.5,6.45,6.45,0,0,1,1.6-1.1,4.92,4.92,0,0,1,2.1-.4,5.84,5.84,0,0,1,2.1.3,3.39,3.39,0,0,1,1.4.9,4.18,4.18,0,0,1,.8,1.2,3.89,3.89,0,0,1,.2,1.5v.6h-6.3a4.79,4.79,0,0,0,.7,2.9,2.64,2.64,0,0,0,2.3,1,3,3,0,0,0,1.6-.5,3.45,3.45,0,0,0,1.2-1.2Zm-3.6-3.5a3.75,3.75,0,0,0-.1-1.1c-.1-.3-.1-.7-.2-1a1.61,1.61,0,0,0-.4-.7.84.84,0,0,0-.7-.2,1.08,1.08,0,0,0-1.1.7,5.61,5.61,0,0,0-.5,2.3Z"/><path d="M56.7,150.3a.9.9,0,0,1-.1.5c0,.2-.1.3-.2.5s-.3.3-.4.4a1.48,1.48,0,0,1-.7.1,1.66,1.66,0,0,1-1.2-.5,5.16,5.16,0,0,1-.9-1.7,1.83,1.83,0,0,0-.6.8,9.09,9.09,0,0,0-.2,2.8v.7H55v1H52.5v6.4a1.42,1.42,0,0,0,.2.6c.1.2.3.2.4.3a3.54,3.54,0,0,0,.6.1c.2,0,.5.1.6.1v.7H48v-.7h.5c.2,0,.3,0,.4-.1a1.38,1.38,0,0,0,.4-.3c.1-.1.1-.3.1-.6v-6.5H47.5v-1h1.9a5.82,5.82,0,0,1,.3-1.9,5.56,5.56,0,0,1,.9-1.7,4.43,4.43,0,0,1,1.5-1.2,5.09,5.09,0,0,1,2.2-.4,3,3,0,0,1,1.8.4A1.43,1.43,0,0,1,56.7,150.3Z"/><path d="M64.9,155a3.07,3.07,0,0,1,1,1.5,5.85,5.85,0,0,1,.4,1.9,4.06,4.06,0,0,1-.4,1.9,5.37,5.37,0,0,1-1,1.6,6.19,6.19,0,0,1-1.7,1.1,8.52,8.52,0,0,1-2.3.4,7.11,7.11,0,0,1-2.1-.3,4.25,4.25,0,0,1-1.7-1,4.18,4.18,0,0,1-1.1-1.5,5.2,5.2,0,0,1,0-4,3.27,3.27,0,0,1,1.1-1.5,4.78,4.78,0,0,1,1.7-1,7.88,7.88,0,0,1,2.3-.4,5.56,5.56,0,0,1,2.3.4A3,3,0,0,1,64.9,155Zm-2.4,6.4a13,13,0,0,0,.3-1.3,9.15,9.15,0,0,0,.1-1.7,8.86,8.86,0,0,0-.4-2.8,2,2,0,0,0-.6-.9,1.69,1.69,0,0,0-1-.3,1.5,1.5,0,0,0-1.1.4,1.8,1.8,0,0,0-.6.9l-.3,1.2c0,.5-.1,1-.1,1.5a8.62,8.62,0,0,0,.1,1.7,3.08,3.08,0,0,0,.3,1.3,1.46,1.46,0,0,0,.6.9,1.82,1.82,0,0,0,2,0A1.27,1.27,0,0,0,62.5,161.4Z"/><path d="M76.7,155.6a1.59,1.59,0,0,1-.4,1.2,1.35,1.35,0,0,1-1.2.5A1.8,1.8,0,0,1,74,157a1.23,1.23,0,0,1-.5-1v-.5c0-.1.1-.2.1-.3a1.61,1.61,0,0,0-.9.3,2.7,2.7,0,0,0-.8.7v5.1a.75.75,0,0,0,.1.5c.1.1.2.3.3.3s.4.1.7.2.5.1.7.1v.7H67.5v-.7a.9.9,0,0,0,.5-.1c.2,0,.3-.1.4-.1a1.38,1.38,0,0,0,.4-.3c.1-.1.1-.3.1-.6v-5.4a1.42,1.42,0,0,0-.2-.6.78.78,0,0,0-.4-.4c-.1-.1-.3-.1-.4-.2s-.4-.1-.6-.1v-.7l4.4-.2.1.1v1.3h0a5.26,5.26,0,0,1,1.4-1.2,2.82,2.82,0,0,1,1.5-.4,2.17,2.17,0,0,1,1.4.5A2,2,0,0,1,76.7,155.6Z"/><path d="M89.2,163.4a7.63,7.63,0,0,1-2.7-.5,6.36,6.36,0,0,1-2.2-1.4,5.55,5.55,0,0,1-1.4-2.2,6.63,6.63,0,0,1-.5-2.8,8.21,8.21,0,0,1,.5-2.8,9.13,9.13,0,0,1,1.5-2.3,7.63,7.63,0,0,1,2.3-1.5,8.68,8.68,0,0,1,2.8-.5,6.45,6.45,0,0,1,2,.3,11.64,11.64,0,0,1,1.5.6l.6-.5h.8l.1,4.8h-.8a7.91,7.91,0,0,0-1.7-3.2,3,3,0,0,0-2.4-1,2.79,2.79,0,0,0-2.6,1.5,8.6,8.6,0,0,0-.9,4.3,11.15,11.15,0,0,0,.3,2.7,6.06,6.06,0,0,0,.8,1.8,3.05,3.05,0,0,0,1.3,1,4.15,4.15,0,0,0,1.6.3,3.69,3.69,0,0,0,2.3-.7,6.25,6.25,0,0,0,1.8-2.1l.8.5-.9,1.5a4.26,4.26,0,0,1-1.2,1.1,8,8,0,0,1-1.6.8A6.65,6.65,0,0,1,89.2,163.4Z"/><path d="M107.9,163.1h-5.6v-.7h.4a.6.6,0,0,0,.4-.1l.3-.3c.1-.1.1-.3.1-.6v-4.3a2,2,0,0,0-.4-1.4,1.23,1.23,0,0,0-1-.5,1.7,1.7,0,0,0-.7.1l-.6.3c-.2.1-.3.3-.4.4l-.3.3v5a.75.75,0,0,0,.1.5l.3.3c.1.1.2.1.4.1s.3.1.4.1v.7H95.6v-.7h.5c.2,0,.3,0,.4-.1a1.38,1.38,0,0,0,.4-.3c.1-.1.1-.3.1-.6V151a1.27,1.27,0,0,0-.1-.6,1,1,0,0,0-.4-.5c-.1-.1-.3-.1-.5-.2s-.4-.1-.6-.1v-.7l4.6-.2.1.1v6.4h0l.6-.6a4.23,4.23,0,0,1,.7-.5,3.92,3.92,0,0,1,.9-.4,5,5,0,0,1,1.2-.2,2.87,2.87,0,0,1,2.3.9,3.37,3.37,0,0,1,.8,2.3v4.5a.75.75,0,0,0,.1.5,1.38,1.38,0,0,0,.4.3c.1,0,.2.1.4.1a4.33,4.33,0,0,0,.5.1v.9Z"/><path d="M114.6,163.1h-5.9v-.7h.5c.2,0,.3,0,.4-.1a1.38,1.38,0,0,0,.4-.3c.1-.1.1-.3.1-.6V156a1.27,1.27,0,0,0-.1-.6.78.78,0,0,0-.4-.4c-.1-.1-.3-.1-.5-.2a1.27,1.27,0,0,0-.6-.1V154l4.5-.2.1.1v7.4a1.27,1.27,0,0,0,.1.6c.1.2.2.3.4.3a.6.6,0,0,0,.4.1,4.33,4.33,0,0,0,.5.1v.7Zm-1.4-12.7a1.66,1.66,0,0,1-.5,1.2,1.94,1.94,0,0,1-2.6,0,1.35,1.35,0,0,1-.5-1.2,1.66,1.66,0,0,1,.5-1.2,1.94,1.94,0,0,1,2.6,0A1.66,1.66,0,0,1,113.2,150.4Z"/><path d="M121.1,163.1h-5.8v-.7h.5c.2,0,.3,0,.4-.1a1.38,1.38,0,0,0,.4-.3c.1-.1.1-.3.1-.6V151.1a1.7,1.7,0,0,0-.1-.7,1,1,0,0,0-.4-.5.85.85,0,0,0-.6-.2,2,2,0,0,0-.7-.1v-.7l4.7-.2.1.1v12.4a1.27,1.27,0,0,0,.1.6c.1.1.2.3.4.3a.6.6,0,0,0,.4.1,4.33,4.33,0,0,0,.5.1v.8Z"/><path d="M134,162.9l-4.6.3-.1-.1v-.9h-.1a6.23,6.23,0,0,1-1.2.9,4.19,4.19,0,0,1-1.6.4,4.1,4.1,0,0,1-3.1-1.4,5.22,5.22,0,0,1-1.2-3.6,4.94,4.94,0,0,1,1.4-3.4,4.18,4.18,0,0,1,3.3-1.4,5.9,5.9,0,0,1,1.4.2,3.58,3.58,0,0,1,1.1.4v-3a1.27,1.27,0,0,0-.1-.6,1,1,0,0,0-.4-.5,4.87,4.87,0,0,0-.7-.3,2.77,2.77,0,0,0-.9-.1v-.9l5-.2.1.1V161a1.27,1.27,0,0,0,.1.6.78.78,0,0,0,.4.4c.1.1.3.1.6.1s.5,0,.6.1Zm-4.8-1.7V156a1.69,1.69,0,0,0-.2-.5c-.1-.2-.2-.3-.3-.5a2.19,2.19,0,0,0-.5-.3,1.48,1.48,0,0,0-.7-.1,1.68,1.68,0,0,0-1.5,1,8.34,8.34,0,0,0-.5,4.4,3.58,3.58,0,0,0,.4,1.1,2.7,2.7,0,0,0,.7.8,1.69,1.69,0,0,0,1,.3,2,2,0,0,0,.9-.2C128.8,161.6,129,161.5,129.2,161.2Z"/><path d="M143.8,155.6a1.59,1.59,0,0,1-.4,1.2,1.35,1.35,0,0,1-1.2.5,1.8,1.8,0,0,1-1.1-.3,1.23,1.23,0,0,1-.5-1v-.5c0-.1.1-.2.1-.3a1.61,1.61,0,0,0-.9.3,2.7,2.7,0,0,0-.8.7v5.1a.75.75,0,0,0,.1.5c.1.1.2.3.3.3s.4.1.7.2.5.1.7.1v.7h-6.2v-.7a.9.9,0,0,0,.5-.1c.2,0,.3-.1.4-.1a1.38,1.38,0,0,0,.4-.3c.1-.1.1-.3.1-.6v-5.4a1.42,1.42,0,0,0-.2-.6.78.78,0,0,0-.4-.4c-.1-.1-.3-.1-.4-.2s-.4-.1-.6-.1v-.7l4.4-.2.1.1v1.3h0a5.26,5.26,0,0,1,1.4-1.2,2.82,2.82,0,0,1,1.5-.4,2.17,2.17,0,0,1,1.4.5A2.45,2.45,0,0,1,143.8,155.6Z"/><path d="M154.4,160.8a3.92,3.92,0,0,1-.8,1,7,7,0,0,1-1,.8,5,5,0,0,1-1.3.5,6.66,6.66,0,0,1-3.9-.2,4.88,4.88,0,0,1-1.6-1,4.35,4.35,0,0,1-1-1.6,5.82,5.82,0,0,1-.3-1.9,5.66,5.66,0,0,1,.3-1.8,4,4,0,0,1,1-1.5,6.45,6.45,0,0,1,1.6-1.1,4.92,4.92,0,0,1,2.1-.4,5.84,5.84,0,0,1,2.1.3,3.39,3.39,0,0,1,1.4.9,4.18,4.18,0,0,1,.8,1.2,3.89,3.89,0,0,1,.2,1.5v.6h-6.3a4.79,4.79,0,0,0,.7,2.9,2.64,2.64,0,0,0,2.3,1,3,3,0,0,0,1.6-.5,3.45,3.45,0,0,0,1.2-1.2Zm-3.5-3.5a3.75,3.75,0,0,0-.1-1.1c-.1-.3-.1-.7-.2-1a1.61,1.61,0,0,0-.4-.7,1.45,1.45,0,0,0-.7-.2,1.08,1.08,0,0,0-1.1.7,5.61,5.61,0,0,0-.5,2.3Z"/><path d="M167.6,163.1H162v-.7h.4a.6.6,0,0,0,.4-.1l.3-.3c.1-.1.1-.3.1-.6v-4.3a2.65,2.65,0,0,0-.3-1.4,1.23,1.23,0,0,0-1-.5,1.7,1.7,0,0,0-.7.1l-.6.3c-.2.1-.3.3-.4.4l-.3.3v5a.75.75,0,0,0,.1.5c.1.1.2.3.3.3s.2.1.4.1.3.1.4.1v.7h-5.6v-.7a.9.9,0,0,0,.5-.1c.2,0,.3-.1.4-.1a1.38,1.38,0,0,0,.4-.3c.1-.1.1-.3.1-.6v-5.4a1.27,1.27,0,0,0-.1-.6,1.76,1.76,0,0,0-.4-.5c-.1-.1-.3-.1-.4-.2s-.4-.1-.6-.1v-.7l4.4-.2.1.1v1.3h0a3.39,3.39,0,0,0,.6-.6,3,3,0,0,1,.7-.5,3.92,3.92,0,0,1,.9-.4,5,5,0,0,1,1.2-.2,2.87,2.87,0,0,1,2.3.9,3.37,3.37,0,0,1,.8,2.3v4.5a.75.75,0,0,0,.1.5,1.38,1.38,0,0,0,.4.3c.1,0,.2.1.4.1a4.33,4.33,0,0,0,.5.1v1.2Z"/></g></g></svg>