<svg xmlns="http://www.w3.org/2000/svg" viewBox="0 0 321.41 208"><defs><style>.cls-1{fill:#ef5035;}</style></defs><title>sunvalley-laurel-red_1</title><g id="Layer_2" data-name="Layer 2"><g id="Layer_1-2" data-name="Layer 1"><path class="cls-1" d="M247.34,13.81c-3-4.06-4.73-8.35-2.69-13.45,4.93,1.3,8.31,4.74,8,9.87-.4,5.84,2.87,7.71,7.25,9.21.22.08.53-.09.8-.15-1.56-7.93-1.48-8.8,1.18-12.94,4.9,2.63,7,7,5.78,12.07-1.13,4.93,1,7.36,4.79,9.37.5.27.94.66,2,1.38-1-5.13-.83-9.63,2.4-13.43,5.53,2.73,6.19,6.86,3,18.14.71.78,1.54,1.6,2.26,2.5a15.1,15.1,0,0,0,3.08,3.32c1-5,1.78-9.52,6.42-12.73,2.83,4.21,4.18,8.9,1.65,12.88-3.36,5.28-1.46,9,1.6,13a4.91,4.91,0,0,0,.56.47c.68-5.19,2.84-9.34,7.74-12,2.42,3.53,2.25,7.13,1,10.62a19.23,19.23,0,0,1-3.57,6,4,4,0,0,0-.82,4.77c.82,1.86,1.6,3.73,2.72,6.36,1.25-6,4.37-9.52,9.33-11.46,2.53,5.06,2.08,10-2.77,13.82-4.58,3.61-4.5,7.24-2.35,12.23,2.88-4.29,6.18-7.79,11.66-8.48,1.39,4.36.07,7.93-2.71,11a16.33,16.33,0,0,1-4.8,3.8c-2.93,1.41-3.84,3.36-2.91,6.38a27.79,27.79,0,0,1,.54,3.08,16.89,16.89,0,0,1,12.85-5.94,12.64,12.64,0,0,1,0,3.25,14,14,0,0,1-9.66,10.07c-3.08.93-4.46,2.35-4.31,5.51a23.94,23.94,0,0,1-.71,4.27c4.3-4.47,9-5.59,14.51-4.79a10.31,10.31,0,0,1-5.2,8.89,26.51,26.51,0,0,1-6.47,2.71c-5.18,1.47-5.21,1.37-5.78,7,9-2.52,9.41-2.54,14.8-.44a15.07,15.07,0,0,1-8.13,8c-1.62.64-3.48,1.34-5.11,1.13-5.43-.72-7.65,2.25-8.81,6.86,7.11-2.28,9.57-2.12,15.47,1.22-2.06,4.42-5.94,6.15-10.29,7a22.13,22.13,0,0,1-6.16,0c-4.93-.48-5.44-.24-7.83,5a19.32,19.32,0,0,1,15.07,4c-6.7,7.66-14.26,5.74-22.13,2.73l-5.11,4.75a65.79,65.79,0,0,1,8.32,1.94c2.56.94,5.07,2.28,6.59,5.16-5.21,4.45-10.77,4.13-16.56,1.89a17.34,17.34,0,0,1-2-.93c-4.34-2.35-4.34-2.36-8.76,1.49,5.35,1.7,10.06,4.13,13.39,9.58-3.94,2-7.69,3.23-11.81,1.67-2.32-.88-4.9-1.81-6.56-3.5-3.27-3.32-6.3-3.09-10.06-.39,5.38,2.23,9.53,5.59,11.66,11-6.67,3.89-13,1.35-21.55-8.5-13.69,2.54-26.22,7.78-36.86,18l-3.17-3c3.06-4.35,7.1-6.9,11.3-8.85a172.52,172.52,0,0,1,20.85-8.27c3.56-1.12,5.13-2.76,5.43-6.23.51-5.82,3.22-10.31,8.46-13.1a17,17,0,0,1,2.37-.86c2.87,4.55,2,9.42-2.65,16.65,5.89-1.12,6.21-1.24,5.88-6.88-.35-6,1.39-11,6.17-14.79a8,8,0,0,1,1.48-.91,2.29,2.29,0,0,1,.86-.05c3.19,5.16,3.15,9.08-.4,17,1.07-.63,1.79-1,2.48-1.47,3.72-2.37,3.76-2.39,2.59-6.61A15.72,15.72,0,0,1,265,156.69a36.25,36.25,0,0,1,3.42-3.65,17,17,0,0,1,3.2,15c4.3-1.12,5-2.27,3.37-6.17-2.26-5.56-3.06-11.05.43-16.44.39-.6.91-1.11,1.71-2.08,4.42,3.89,5.77,8.72,5.65,14.23,4.37-2.63,4.73-3.75,2.25-7.5-3.26-4.93-4.83-10.06-2.26-15.79a22.45,22.45,0,0,1,1.54-2.38c4.46,3.83,7.41,8,7.38,15l3.94-6.66C290.12,134.65,285,129.1,288.8,120c5.61,2.57,8.91,6.59,10,13.24.47-1.29.69-1.9.91-2.5,1.75-4.62,1.75-4.61-2.15-7.95-3.41-2.93-6.48-6.09-6.51-11a37.11,37.11,0,0,1,.43-4.15c5.69,1.33,8.08,3.42,12,10.16.22-1,.43-1.79.6-2.62,1-4.52,1-4.56-3.22-6.67-4.89-2.45-8.33-6-9.08-11.64a5,5,0,0,1,0-1.31,6.26,6.26,0,0,1,.68-1.3,17.41,17.41,0,0,1,13.07,8.29c0-.84,0-1.69,0-2.53,0-5.31,0-5.28-4.94-7.06-5.41-1.93-9.57-5-10.49-11.88,5.83-.45,10.5.91,14.39,6.65-.24-1.84-.33-2.71-.47-3.57-.16-1-.33-2-.54-3a3.36,3.36,0,0,0-3.25-3,37.34,37.34,0,0,1-6-1.23c-4-1.12-6.45-3.8-7.73-8.14,3.58-2.14,5.69-1.92,13.79,1.6-.47-1.62-.82-3-1.26-4.33a3.58,3.58,0,0,0-4-2.7,35.52,35.52,0,0,1-4.85,0c-4.75-.35-8.05-2.86-10.72-7.13,5.5-2.85,10.34-2.44,15.84,1.52l-5.24-9.08c-7,2.64-13.54,3.76-18.92-3.34,5.08-3.38,9.86-4.41,15.37-1.57l-6.29-7.3c-9.85,4.52-14.39,4.45-19.21-.41a16.6,16.6,0,0,1,13.21-4.67l-6.2-5.19c-5.79,3.75-11.41,8.13-18.45,3.07,3.19-4.76,6.26-6.23,13.15-6.29-1.09-.76-1.88-1.39-2.75-1.9-5.07-3-5.08-2.95-9.62,1-4.27,3.69-8.38,4.39-13.21,2,2.41-5.06,6.41-7.6,12.38-7.87l-2-2.34Z"/><path class="cls-1" d="M74.34,13.79l-2,2.33c5.94.31,9.94,2.83,12.47,8.05a9.82,9.82,0,0,1-8.82.59,16.48,16.48,0,0,1-3.81-2.17c-1.76-1.24-3.56-3.87-5.09-3.69-2.7.31-5.21,2.28-7.68,3.79,6.43.31,8.37,1.17,12.72,5.85-3.81,4.52-7.3,4.15-18.27-2.18l-6.26,4.82c5.27,0,9.59,1.25,13.22,4.81-4.2,4.86-9.73,5-19.11.4l-6.39,7.32c5.46-2.76,10.27-1.88,15,1.31-3.1,5.89-8.06,6.93-18.48,3.72l-5.32,9c5.49-3.94,10.35-4.43,15.8-1.55-2.38,4.17-5.62,6.52-10.1,7.12a20.56,20.56,0,0,1-2.64.07c-6.33,0-6.58.25-7.72,7.14,4.27-2.5,8.52-4.21,13.73-2.23a10.86,10.86,0,0,1-7.45,8.45,19.56,19.56,0,0,1-5.58,1.2c-2.94.16-4.16,1.69-4.47,4.4-.17,1.44-.5,2.87-.93,5.18a16,16,0,0,1,14.28-6.58c.11,5-2.65,7.86-6.07,10.27a12.69,12.69,0,0,1-2.79,1.31c-6.59,2.52-6.59,2.51-6.09,10a62.5,62.5,0,0,1,5.76-5.66,12.22,12.22,0,0,1,7.71-2.44c0,4.47-.94,8.14-4.21,10.86a30.39,30.39,0,0,1-5.14,3.38c-3.74,2-3.83,2-3,6,.2,1,.45,2,.68,3,1.55-2.12,2.82-4.44,4.65-6.19s4.22-2.93,6.8-4.66c2,4.84.9,8.49-1.46,11.8a27.5,27.5,0,0,1-4.68,4.65c-3.28,2.79-3.32,2.74-1.9,6.55.35.93.72,1.84,1.29,3.3a16.17,16.17,0,0,1,9.45-12.93c4.27,7,1.39,12.11-6.24,20.12l3.68,6.47c.2-6.53,2.9-10.88,7.22-14.75,3.58,3.54,3.51,7.6,2.66,11.61a19.74,19.74,0,0,1-2.79,5.93c-2.48,4-2.52,4.33.79,7.87.39.41.85.76,1.79,1.59-1.38-6.44.55-11.26,5-15.92,3,3.82,4.76,7.52,4,12a36.19,36.19,0,0,1-1.75,6.37c-1.58,4.39-1.54,4.59,3.35,7a17.1,17.1,0,0,1,2.73-15c5.55,3.45,7.68,9.11,6.24,15.86-1.22,5.75-1.22,5.75,5.12,9.47-3.71-6.1-4.11-11.64-.73-17.67,4.46,2.92,7.67,6.26,8.29,11.5a36.85,36.85,0,0,1,.11,4.41c0,5.73,0,5.73,6.31,7.69-3.79-5.37-5.85-10.7-3.52-17.25A15.4,15.4,0,0,1,85,176.63a5.36,5.36,0,0,1,.6,2.11c-.17,6.52,3.64,8.75,9.44,10.18a66.27,66.27,0,0,1,23,10.78c1.88,1.36,3.56,3,5.77,4.84L120.56,208a69.34,69.34,0,0,0-37-17.89c-9.07,9.92-14.65,12.17-21.65,8.48a19.59,19.59,0,0,1,11.39-10.77c-4.42-3.39-4.78-3.35-9.22-.12-5,3.61-10.26,5.83-16.46,3.28a22.37,22.37,0,0,1-2.18-1.23c2.85-5.37,7.55-7.78,12.9-9.35-3.47-4.09-4-4.14-8.22-1.89-6.24,3.33-12.46,4.11-18.53-.48,2.28-4.51,7.89-7.16,15.07-7.55a37.83,37.83,0,0,1-3.73-3c-1.32-1.35-2.51-1.44-4.31-.83a31.55,31.55,0,0,1-8.11,1.71c-4.84.29-7.33-1-11.46-5.22a17.45,17.45,0,0,1,14.77-3.82c-1.52-4.83-2.9-5.75-7-5.21-4.94.66-9.74.36-13.84-2.9a43.72,43.72,0,0,1-3.68-3.78c5.4-3.42,10.38-4,16.33-.8-.81-1.79-1.39-2.89-1.81-4-.94-2.61-2.75-3.46-5.46-3.34A15.39,15.39,0,0,1,4.21,132a11.79,11.79,0,0,1-.86-2.11c5.15-2.56,9.85-1.11,14.54.87-.18-5.71-.21-5.72-5.48-7.28-4.28-1.26-8.52-2.63-10.64-7.1-.61-1.28-1-2.66-1.65-4.44C6,111,10.75,112,15,116.39c-.36-2.5-.67-4.49-.92-6.5-.28-2.33-2.27-2.48-3.87-3A14.42,14.42,0,0,1,.89,98.19,25.12,25.12,0,0,1,0,94.06c5.11-.72,8.34.63,13,5.38.27-1.24.44-2.3.74-3.32.86-2.86-.12-4.64-2.8-6a14.12,14.12,0,0,1-7.83-9.6,30.84,30.84,0,0,1-.3-5.13c5.45.63,8,2.4,12.3,8.64.61-2.86,1.37-5.17,1.46-7.5,0-1-1.19-2.21-2.1-3-2.91-2.6-5.58-5.36-5.93-9.46a45.58,45.58,0,0,1,.36-6.45c6,2.08,8,4.23,10.39,11.12a28.08,28.08,0,0,1,1.49-3.4c2-3.28,1.7-6-.89-9.07-3.65-4.33-4.39-9.36-1.45-15.19,4.55,3.09,7.29,6.72,7.64,12.84l4.2-6.49c1.24-1.91-.11-3.39-.93-4.87a14.24,14.24,0,0,1-.75-13.14,11.78,11.78,0,0,1,1.44-2.05c4,2.76,5.17,5.08,5.88,12.69a74.64,74.64,0,0,0,5.31-5.48c.46-.58.21-1.88,0-2.8-.4-2.16-1.17-4.27-1.4-6.44-.42-4,.91-6.77,4.61-9.8,3.5,3.8,4,8.16,2.43,14a78.87,78.87,0,0,0,6.38-4.88,4.6,4.6,0,0,0,1-3c0-1.74-.4-3.5-.4-5.25,0-4.9,1.33-7,6.09-10,3,4.1,2.31,8.47.59,13.57,1.91-.84,3.16-1.49,4.46-1.95,2.88-1,4-2.85,3.84-6-.28-5.49,2.16-9.54,7.62-12,3,5.39.83,9.66-2.2,13.81Z"/><path class="cls-1" d="M134.44,76.26a4.6,4.6,0,0,0-1-.69,18.19,18.19,0,0,0-2.07-1.06,20.08,20.08,0,0,0-2.71-1,10.84,10.84,0,0,0-2.94-.41q-4,0-4,2.71a2.15,2.15,0,0,0,.44,1.38,3.85,3.85,0,0,0,1.29,1,11.82,11.82,0,0,0,2.14.81l3,.83a39.27,39.27,0,0,1,4.23,1.4,11.34,11.34,0,0,1,3.2,1.89,7.63,7.63,0,0,1,2,2.74,9.5,9.5,0,0,1,.71,3.86,9.68,9.68,0,0,1-1,4.67,8.73,8.73,0,0,1-2.74,3.08,11.55,11.55,0,0,1-3.91,1.7,19.47,19.47,0,0,1-4.55.53,25.38,25.38,0,0,1-3.68-.28,26.55,26.55,0,0,1-3.68-.8,29.23,29.23,0,0,1-3.47-1.27,19.37,19.37,0,0,1-3.1-1.7l3.31-6.58a6.45,6.45,0,0,0,1.2.87,17.85,17.85,0,0,0,2.51,1.29,25.43,25.43,0,0,0,3.34,1.15,14,14,0,0,0,3.72.51q4,0,4-2.44A2.06,2.06,0,0,0,130,89a5.65,5.65,0,0,0-1.66-1.08,18,18,0,0,0-2.51-.9l-3.15-.92a27.19,27.19,0,0,1-3.91-1.5,10.31,10.31,0,0,1-2.74-1.86,6.75,6.75,0,0,1-1.61-2.44,9,9,0,0,1-.53-3.22,10.26,10.26,0,0,1,1-4.55,9.84,9.84,0,0,1,2.62-3.34,11.42,11.42,0,0,1,3.84-2,15.25,15.25,0,0,1,4.62-.69,17.58,17.58,0,0,1,3.36.32,25.4,25.4,0,0,1,3.17.83,22.87,22.87,0,0,1,2.83,1.15q1.31.65,2.42,1.29Z"/><path class="cls-1" d="M157.17,92.91a6.21,6.21,0,0,0,3.27-.81A6.41,6.41,0,0,0,162.59,90a9.14,9.14,0,0,0,1.17-3.06,17.87,17.87,0,0,0,.35-3.52V66.69h7.54v16.7a22.8,22.8,0,0,1-.85,6.35,14.64,14.64,0,0,1-2.62,5.15,12.28,12.28,0,0,1-4.51,3.47,15.39,15.39,0,0,1-6.51,1.26,15.21,15.21,0,0,1-6.67-1.33A12.35,12.35,0,0,1,146,94.73a14.69,14.69,0,0,1-2.53-5.17,23.25,23.25,0,0,1-.8-6.16V66.69h7.54v16.7a16.89,16.89,0,0,0,.37,3.59,9.5,9.5,0,0,0,1.2,3,5.91,5.91,0,0,0,5.38,2.9Z"/><path class="cls-1" d="M185,80.67V99.35H177.5V66.69h5.89l15.23,19.18V66.69h7.54V99.35h-6.07Z"/><path class="cls-1" d="M83.7,110.69l7.68,23.18L99,110.69h8L94.56,143.35H88.21L75.7,110.69Z"/><path class="cls-1" d="M116,110.69h6.81l11.91,32.66H127L124.51,136H114.34l-2.48,7.31h-7.73Zm7.22,20.15-3.82-11.55-3.91,11.55Z"/><path class="cls-1" d="M138,143.35V110.69h7.54v26h15.82v6.62Z"/><path class="cls-1" d="M164.89,143.35V110.69h7.54v26h15.82v6.62Z"/><path class="cls-1" d="M214.76,136.73v6.62h-23V110.69h22.54v6.62h-15v6.35h12.88v6.12H199.35v6.95Z"/><path class="cls-1" d="M224.42,110.69l7,15,7.13-15h8.23l-11.64,21.53v11.13h-7.5V132.13l-11.45-21.44Z"/><path class="cls-1" d="M78.93,54a2.9,2.9,0,0,1-1.21,2.45,4.17,4.17,0,0,1-1.31.63,5.7,5.7,0,0,1-1.59.22H68.64V44.49h6.84a2.53,2.53,0,0,1,1.21.29,3,3,0,0,1,.92.75,3.42,3.42,0,0,1,.58,1,3.52,3.52,0,0,1,.21,1.18,3.48,3.48,0,0,1-.47,1.75,2.85,2.85,0,0,1-1.37,1.22,3.29,3.29,0,0,1,1.74,1.16A3.36,3.36,0,0,1,78.93,54Zm-7.81-7.36v3.22h3.31a1.47,1.47,0,0,0,1.07-.43,1.59,1.59,0,0,0,.44-1.19,1.64,1.64,0,0,0-.4-1.17,1.32,1.32,0,0,0-1-.43Zm5.31,6.89a1.87,1.87,0,0,0-.12-.66A1.83,1.83,0,0,0,76,52.3a1.47,1.47,0,0,0-.47-.37,1.31,1.31,0,0,0-.59-.14H71.12v3.37h3.69a1.62,1.62,0,0,0,.64-.13,1.53,1.53,0,0,0,.51-.35,1.71,1.71,0,0,0,.47-1.18Z"/><path class="cls-1" d="M89.75,55.09v2.18H80.88V44.49h8.71v2.18H83.36v3.08h5.38v2H83.36v3.33Z"/><path class="cls-1" d="M99,47.84a3.13,3.13,0,0,0-.46-.34,5.57,5.57,0,0,0-.81-.42,7,7,0,0,0-1-.35,4.51,4.51,0,0,0-1.13-.14,2.54,2.54,0,0,0-1.53.38,1.25,1.25,0,0,0-.5,1.06,1.09,1.09,0,0,0,.19.66,1.62,1.62,0,0,0,.55.46,4.59,4.59,0,0,0,.91.36l1.27.34q.94.25,1.7.54a4.6,4.6,0,0,1,1.3.72,3,3,0,0,1,.82,1,3.44,3.44,0,0,1,.29,1.49,3.7,3.7,0,0,1-.39,1.75,3.26,3.26,0,0,1-1,1.18,4.53,4.53,0,0,1-1.51.66,7.6,7.6,0,0,1-1.79.21A9.61,9.61,0,0,1,93,57a8.77,8.77,0,0,1-2.52-1.22l1.1-2.14a3.43,3.43,0,0,0,.58.42,8.81,8.81,0,0,0,1,.52,7.68,7.68,0,0,0,1.28.44,5.76,5.76,0,0,0,1.44.18q2.05,0,2.05-1.31a1.08,1.08,0,0,0-.23-.7,2,2,0,0,0-.67-.5,6.41,6.41,0,0,0-1-.4l-1.37-.4A11.54,11.54,0,0,1,93,51.32a4.17,4.17,0,0,1-1.12-.7,2.63,2.63,0,0,1-.68-.94A3.25,3.25,0,0,1,91,48.41a4,4,0,0,1,.36-1.73,3.48,3.48,0,0,1,1-1.26,4.53,4.53,0,0,1,1.48-.76,6.14,6.14,0,0,1,1.82-.26,7.05,7.05,0,0,1,2.48.42,9.26,9.26,0,0,1,2,1Z"/><path class="cls-1" d="M111.93,46.67h-4.09v10.6h-2.47V46.67h-4.09V44.49h10.64Z"/><path class="cls-1" d="M124.94,47.84a3.13,3.13,0,0,0-.46-.34,5.57,5.57,0,0,0-.81-.42,7,7,0,0,0-1-.35,4.51,4.51,0,0,0-1.13-.14A2.54,2.54,0,0,0,120,47a1.25,1.25,0,0,0-.5,1.06,1.09,1.09,0,0,0,.19.66,1.62,1.62,0,0,0,.55.46,4.59,4.59,0,0,0,.91.36l1.27.34q.94.25,1.7.54a4.6,4.6,0,0,1,1.3.72,3,3,0,0,1,.82,1,3.44,3.44,0,0,1,.29,1.49,3.7,3.7,0,0,1-.39,1.75,3.26,3.26,0,0,1-1,1.18,4.53,4.53,0,0,1-1.51.66,7.6,7.6,0,0,1-1.79.21,9.61,9.61,0,0,1-2.84-.43,8.77,8.77,0,0,1-2.52-1.22l1.1-2.14a3.43,3.43,0,0,0,.58.42,8.81,8.81,0,0,0,1,.52,7.68,7.68,0,0,0,1.28.44,5.76,5.76,0,0,0,1.44.18q2.05,0,2.05-1.31a1.08,1.08,0,0,0-.23-.7,2,2,0,0,0-.67-.5,6.41,6.41,0,0,0-1-.4l-1.37-.4a11.54,11.54,0,0,1-1.59-.55,4.17,4.17,0,0,1-1.12-.7,2.63,2.63,0,0,1-.68-.94,3.25,3.25,0,0,1-.22-1.27,4,4,0,0,1,.36-1.73,3.48,3.48,0,0,1,1-1.26,4.53,4.53,0,0,1,1.48-.76,6.14,6.14,0,0,1,1.82-.26,7.05,7.05,0,0,1,2.48.42,9.26,9.26,0,0,1,2,1Z"/><path class="cls-1" d="M128.36,57.27V44.49h5.42a3.63,3.63,0,0,1,1.63.37,4.22,4.22,0,0,1,1.29,1,4.58,4.58,0,0,1,.85,1.37,4.11,4.11,0,0,1,.31,1.54,4.45,4.45,0,0,1-.29,1.58,4.37,4.37,0,0,1-.81,1.36,4,4,0,0,1-1.26,1,3.64,3.64,0,0,1-1.62.36h-3v4.28Zm2.48-6.46h2.88a1.42,1.42,0,0,0,1.14-.56,2.31,2.31,0,0,0,.46-1.51,2.49,2.49,0,0,0-.14-.87,2.15,2.15,0,0,0-.38-.66,1.51,1.51,0,0,0-.55-.4,1.6,1.6,0,0,0-.64-.14h-2.77Z"/><path class="cls-1" d="M139.58,57.27V44.49h2.48V57.27Z"/><path class="cls-1" d="M144.72,57.27V44.49h5.65a3.63,3.63,0,0,1,1.63.37,4.23,4.23,0,0,1,1.29,1,4.6,4.6,0,0,1,.85,1.37,4.11,4.11,0,0,1,.31,1.54,4.25,4.25,0,0,1-.62,2.26,3.56,3.56,0,0,1-1.68,1.47l2.92,4.81h-2.79L149.66,53h-2.45v4.28Zm2.48-6.46h3.11a1.32,1.32,0,0,0,.64-.16,1.63,1.63,0,0,0,.51-.44,2.21,2.21,0,0,0,.34-.66,2.55,2.55,0,0,0,.13-.81,2.31,2.31,0,0,0-.14-.83,2.18,2.18,0,0,0-.39-.66,1.75,1.75,0,0,0-.56-.43,1.45,1.45,0,0,0-.64-.15h-3Z"/><path class="cls-1" d="M156.69,57.27V44.49h2.48V57.27Z"/><path class="cls-1" d="M171.4,46.67h-4.09v10.6h-2.47V46.67h-4.09V44.49H171.4Z"/><path class="cls-1" d="M178.38,55.16a2.85,2.85,0,0,0,1.48-.36,2.9,2.9,0,0,0,1-.94,3.88,3.88,0,0,0,.52-1.32,7.68,7.68,0,0,0,.15-1.54V44.49H184V51a9.32,9.32,0,0,1-.32,2.47,5.66,5.66,0,0,1-1,2,4.74,4.74,0,0,1-1.74,1.37,5.88,5.88,0,0,1-2.54.5,5.81,5.81,0,0,1-2.6-.53,4.84,4.84,0,0,1-1.74-1.4,5.6,5.6,0,0,1-1-2,9.54,9.54,0,0,1-.3-2.39V44.49h2.48V51a7.7,7.7,0,0,0,.15,1.56,3.86,3.86,0,0,0,.52,1.32,2.71,2.71,0,0,0,2.42,1.28Z"/><path class="cls-1" d="M189.58,44.49h2.2l4.86,12.78h-2.56l-1.19-3.19h-4.46l-1.17,3.19H184.7Zm2.86,7.85-1.76-5-1.84,5Z"/><path class="cls-1" d="M198,57.27V44.49h2.48v10.6H207v2.18Z"/><path class="cls-1" d="M212.39,57.27V44.49H221v2.18h-6.1V50h5.08v2h-5.08v5.29Z"/><path class="cls-1" d="M222.72,57.27V44.49h2.48V57.27Z"/><path class="cls-1" d="M227.87,57.27V44.49h2.48v10.6h6.52v2.18Z"/><path class="cls-1" d="M248.8,57.27V48.81l-3.29,6.3h-1.35l-3.29-6.3v8.46h-2.48V44.49H241l3.78,7.27,3.82-7.27h2.65V57.27Z"/><path class="cls-1" d="M97.7,164.27V151.49h8.59v2.18h-6.1V157h5.08v2h-5.08v5.29Z"/><path class="cls-1" d="M108,164.27V151.49h2.48v12.78Z"/><path class="cls-1" d="M113.18,164.27V151.49h2.48v10.6h6.52v2.18Z"/><path class="cls-1" d="M134.11,164.27v-8.46l-3.29,6.3h-1.35l-3.29-6.3v8.46h-2.48V151.49h2.66l3.78,7.27,3.82-7.27h2.65v12.78Z"/><path class="cls-1" d="M143.58,164.27V151.49h8.59v2.18h-6.1V157h5.08v2h-5.08v5.29Z"/><path class="cls-1" d="M162.79,162.09v2.18h-8.87V151.49h8.71v2.18H156.4v3.08h5.38v2H156.4v3.33Z"/><path class="cls-1" d="M172.08,154.84a3.13,3.13,0,0,0-.46-.34,5.57,5.57,0,0,0-.81-.42,7,7,0,0,0-1-.35,4.51,4.51,0,0,0-1.13-.14,2.54,2.54,0,0,0-1.53.38,1.25,1.25,0,0,0-.5,1.06,1.09,1.09,0,0,0,.19.66,1.62,1.62,0,0,0,.55.46,4.59,4.59,0,0,0,.91.36l1.27.34q.94.25,1.7.54a4.6,4.6,0,0,1,1.3.72,3,3,0,0,1,.82,1,3.44,3.44,0,0,1,.29,1.49,3.7,3.7,0,0,1-.39,1.75,3.26,3.26,0,0,1-1,1.18,4.53,4.53,0,0,1-1.51.66,7.6,7.6,0,0,1-1.79.21A9.61,9.61,0,0,1,166,164a8.77,8.77,0,0,1-2.52-1.22l1.1-2.14a3.43,3.43,0,0,0,.58.42,8.81,8.81,0,0,0,1,.52,7.68,7.68,0,0,0,1.28.44,5.76,5.76,0,0,0,1.44.18q2.05,0,2.05-1.31a1.08,1.08,0,0,0-.23-.7,2,2,0,0,0-.67-.5,6.41,6.41,0,0,0-1-.4l-1.37-.4a11.54,11.54,0,0,1-1.59-.55,4.17,4.17,0,0,1-1.12-.7,2.63,2.63,0,0,1-.68-.94,3.25,3.25,0,0,1-.22-1.27,4,4,0,0,1,.36-1.73,3.48,3.48,0,0,1,1-1.26,4.53,4.53,0,0,1,1.48-.76,6.14,6.14,0,0,1,1.82-.26,7.05,7.05,0,0,1,2.48.42,9.26,9.26,0,0,1,2,1Z"/><path class="cls-1" d="M185,153.67h-4.09v10.6h-2.47v-10.6h-4.09v-2.18H185Z"/><path class="cls-1" d="M186.55,164.27V151.49H189v12.78Z"/><path class="cls-1" d="M193,151.49l3.46,9.67,3.42-9.67h2.61l-5,12.78h-2.09l-5-12.78Z"/><path class="cls-1" d="M206.4,151.49h2.2l4.86,12.78H210.9l-1.19-3.19h-4.46l-1.17,3.19h-2.56Zm2.86,7.85-1.76-5-1.84,5Z"/><path class="cls-1" d="M214.86,164.27V151.49h2.48v10.6h6.52v2.18Z"/></g></g></svg>