<svg xmlns="http://www.w3.org/2000/svg" viewBox="0 0 96.6 17.02"><title>TEDx-black</title><g id="Layer_2" data-name="Layer 2"><g id="Layer_1-2" data-name="Layer 1"><g id="Layer_2-2" data-name="Layer 2"><g id="Layer_1-2-2" data-name="Layer 1-2"><path d="M33,0l2.63,7H34.06l-.53-1.57H30.88L30.33,7H28.78l2.66-7Zm.09,4.31-.9-2.58h0l-.92,2.58Z"/><path d="M39.86,7V6.32h0a1.57,1.57,0,0,1-.69.64,2,2,0,0,1-.87.2A2.45,2.45,0,0,1,37.35,7a1.33,1.33,0,0,1-.57-.42,1.64,1.64,0,0,1-.29-.66,4.1,4.1,0,0,1-.08-.86V1.94h1.4V4.82a1.79,1.79,0,0,0,.2.94.77.77,0,0,0,.7.31,1,1,0,0,0,.83-.34,1.89,1.89,0,0,0,.26-1.12V1.94h1.4V7Z"/><path d="M43.72,5.77A.81.81,0,0,0,44,6a1,1,0,0,0,.34.15,1.6,1.6,0,0,0,.4,0,1.49,1.49,0,0,0,.31,0,1.05,1.05,0,0,0,.31-.1.67.67,0,0,0,.22-.2.51.51,0,0,0,.09-.31q0-.31-.42-.47A8.39,8.39,0,0,0,44,4.8l-.6-.16a2,2,0,0,1-.51-.26A1.2,1.2,0,0,1,42.57,4a1.09,1.09,0,0,1-.14-.57,1.54,1.54,0,0,1,.19-.81,1.42,1.42,0,0,1,.51-.5,2.22,2.22,0,0,1,.71-.26,4.37,4.37,0,0,1,.79-.08,4,4,0,0,1,.8.08,2.13,2.13,0,0,1,.69.26,1.6,1.6,0,0,1,.51.5,1.67,1.67,0,0,1,.24.78H45.56a.61.61,0,0,0-.3-.55,1.4,1.4,0,0,0-.65-.14l-.26,0a.86.86,0,0,0-.26.06.51.51,0,0,0-.19.14.38.38,0,0,0-.08.26.38.38,0,0,0,.14.3,1.06,1.06,0,0,0,.36.19,4.51,4.51,0,0,0,.51.13l.58.13a5.94,5.94,0,0,1,.6.17,2,2,0,0,1,.51.26,1.26,1.26,0,0,1,.36.4,1.19,1.19,0,0,1,.14.6,1.54,1.54,0,0,1-.73,1.39,2.16,2.16,0,0,1-.74.29,4.35,4.35,0,0,1-.85.08,4.22,4.22,0,0,1-.87-.09,2.29,2.29,0,0,1-.75-.29,1.69,1.69,0,0,1-.54-.55,1.71,1.71,0,0,1-.23-.85h1.33A.77.77,0,0,0,43.72,5.77Z"/><path d="M50.93,1.94v.94h-1V5.4a.68.68,0,0,0,.12.47A.68.68,0,0,0,50.5,6h.23l.21,0V7l-.39,0h-.42a4.07,4.07,0,0,1-.61,0A1.45,1.45,0,0,1,49,6.87a.91.91,0,0,1-.35-.36,1.3,1.3,0,0,1-.13-.62v-3h-.85V1.94h.85V.4h1.4V1.94Z"/><path d="M51.94,1.15V0h1.4V1.15Zm1.4.79V7h-1.4V1.94Z"/><path d="M56.06,1.94v.71h0A1.61,1.61,0,0,1,56.78,2a2,2,0,0,1,.87-.21,2.38,2.38,0,0,1,.92.15,1.37,1.37,0,0,1,.57.42,1.64,1.64,0,0,1,.29.66,4.11,4.11,0,0,1,.08.86V7h-1.4V4.16a1.79,1.79,0,0,0-.2-.94.77.77,0,0,0-.7-.31,1,1,0,0,0-.83.34,1.89,1.89,0,0,0-.26,1.12V7h-1.4V1.94Z"/><path d="M66.18,7,65,2.25h0L63.79,7H62.22L60.37,0H61.9L63,4.79h0L64.27,0h1.45l1.2,4.85h0L68.09,0h1.52L67.71,7Z"/><path d="M69.93,3.39A2.33,2.33,0,0,1,71.29,2a2.91,2.91,0,0,1,1.08-.2A3,3,0,0,1,73.46,2a2.32,2.32,0,0,1,1.36,1.39A3.13,3.13,0,0,1,75,4.48a3.09,3.09,0,0,1-.19,1.1,2.39,2.39,0,0,1-.53.84,2.3,2.3,0,0,1-.83.54,3,3,0,0,1-1.09.19A3,3,0,0,1,71.29,7a2.33,2.33,0,0,1-.83-.54,2.39,2.39,0,0,1-.53-.84,3.09,3.09,0,0,1-.19-1.1A3.13,3.13,0,0,1,69.93,3.39Zm1.28,1.71a1.58,1.58,0,0,0,.2.51A1.07,1.07,0,0,0,71.8,6a1.16,1.16,0,0,0,.59.14A1.19,1.19,0,0,0,73,6a1.06,1.06,0,0,0,.38-.37,1.59,1.59,0,0,0,.2-.51,3,3,0,0,0,.06-.6,3.07,3.07,0,0,0-.06-.6,1.54,1.54,0,0,0-.2-.51A1.12,1.12,0,0,0,73,3a1.15,1.15,0,0,0-.6-.14,1.08,1.08,0,0,0-1,.51,1.54,1.54,0,0,0-.2.51,3.07,3.07,0,0,0-.06.6,3,3,0,0,0,0,.59Z"/><path d="M77.58,1.94v.69h0A2,2,0,0,1,78.25,2a1.79,1.79,0,0,1,.9-.23A2,2,0,0,1,80,2a1.24,1.24,0,0,1,.61.66A2.17,2.17,0,0,1,81.26,2a1.64,1.64,0,0,1,.92-.26,2.72,2.72,0,0,1,.75.1,1.51,1.51,0,0,1,.59.31,1.45,1.45,0,0,1,.38.57,2.3,2.3,0,0,1,.14.84V7h-1.4V4.15q0-.26,0-.48a1,1,0,0,0-.11-.39A.66.66,0,0,0,82.26,3a.94.94,0,0,0-.47-.1.9.9,0,0,0-.48.11.82.82,0,0,0-.29.29,1.19,1.19,0,0,0-.14.41,3.17,3.17,0,0,0,0,.47V7h-1.4V3.73a1.26,1.26,0,0,0-.08-.41.63.63,0,0,0-.26-.3.93.93,0,0,0-.51-.11,1,1,0,0,0-.26,0,.87.87,0,0,0-.31.17,1,1,0,0,0-.26.36,1.44,1.44,0,0,0-.11.61V7h-1.4V1.94Z"/><path d="M86.94,5.81a1.43,1.43,0,0,0,1.64.09.88.88,0,0,0,.37-.45h1.23a2.34,2.34,0,0,1-.91,1.31,2.67,2.67,0,0,1-1.48.4A2.91,2.91,0,0,1,86.71,7a2.25,2.25,0,0,1-.82-.55,2.46,2.46,0,0,1-.51-.85A3.1,3.1,0,0,1,85.2,4.5a3,3,0,0,1,.19-1.07A2.46,2.46,0,0,1,86.74,2a2.64,2.64,0,0,1,1.05-.22A2.42,2.42,0,0,1,88.93,2a2.26,2.26,0,0,1,.79.68,2.77,2.77,0,0,1,.45,1,3.58,3.58,0,0,1,.1,1.13H86.59A1.41,1.41,0,0,0,86.94,5.81Zm1.58-2.68a1,1,0,0,0-.77-.28,1.22,1.22,0,0,0-.56.11,1.06,1.06,0,0,0-.35.28,1,1,0,0,0-.19.36,1.59,1.59,0,0,0-.06.34h2.28a1.62,1.62,0,0,0-.35-.81Z"/><path d="M92.72,1.94v.71h0A1.6,1.6,0,0,1,93.44,2a2,2,0,0,1,.87-.21,2.38,2.38,0,0,1,.92.15,1.37,1.37,0,0,1,.57.42,1.64,1.64,0,0,1,.29.66,4.11,4.11,0,0,1,.08.86V7h-1.4V4.16a1.79,1.79,0,0,0-.2-.94.77.77,0,0,0-.7-.31,1,1,0,0,0-.83.34,1.89,1.89,0,0,0-.26,1.12V7h-1.4V1.94Z"/><path d="M28.93,13.4l.94,0c.86,0,1.13.39,1.13.89a.84.84,0,0,1-.7.84h0a.84.84,0,0,1,.83.86c0,.72-.55,1-1.28,1-.31,0-.73,0-.94,0Zm.28.26V15h.7a.73.73,0,0,0,.81-.7c0-.45-.27-.68-.86-.68l-.65,0Zm0,1.61V16.7l.67,0c.61,0,1-.26,1-.77s-.35-.69-1-.69Z"/><path d="M33,17V13.39h.86c1,0,1.25.49,1.25,1a1,1,0,0,1-.83,1L35.57,17h-.35L34,15.47h-.7V17Zm.28-3.33v1.54h.62a.86.86,0,0,0,.92-.79c0-.44-.26-.77-1-.77Z"/><path d="M38.23,13.36h.23L40,17h-.3l-.51-1.22H37.49L37,17h-.29Zm-.64,2.13h1.49l-.74-1.74Z"/><path d="M42.51,17h-.2l-1.54-3.62h.3l1.35,3.19,1.31-3.19H44Z"/><path d="M45.58,13.39h2v.26h-1.7V15H47.4v.26H45.86v1.42h1.77v.26h-2Z"/><path d="M53.58,14.24c0-.51.38-.9,1-.9a1.32,1.32,0,0,1,1,.36l-.15.21a1.08,1.08,0,0,0-.8-.31c-.47,0-.77.26-.77.63,0,1,1.85.59,1.85,1.84a1,1,0,0,1-1.14.94,1.33,1.33,0,0,1-1.1-.51l.17-.19a1.21,1.21,0,0,0,.93.45c.44,0,.85-.23.85-.67C55.44,15.07,53.58,15.44,53.58,14.24Z"/><path d="M57,13.39h2.93v.26H58.62V17h-.28V13.65H57Z"/><path d="M62.22,13.36h.23L64,17h-.3l-.51-1.22H61.48L61,17h-.29Zm-.64,2.13h1.49l-.74-1.74Z"/><path d="M65.64,17V13.39h.86c1,0,1.25.49,1.25,1a1,1,0,0,1-.85,1L68.16,17h-.35l-1.19-1.51h-.7V17Zm.28-3.33v1.54h.62a.86.86,0,0,0,.92-.79c0-.44-.26-.77-1-.77Z"/><path d="M69.07,13.39H72v.26H70.67V17h-.28V13.65H69.06Z"/><path d="M73.37,14.24c0-.51.38-.9,1-.9a1.32,1.32,0,0,1,1,.36l-.15.21a1.08,1.08,0,0,0-.8-.31c-.47,0-.77.26-.77.63,0,1,1.85.59,1.85,1.84a1,1,0,0,1-1.14.94,1.33,1.33,0,0,1-1.1-.51l.17-.19a1.21,1.21,0,0,0,.93.45c.44,0,.85-.23.85-.67C75.22,15.07,73.37,15.44,73.37,14.24Z"/><path d="M84.13,15.28H81.89V17h-.28V13.39h.28V15h2.24V13.39h.28V17h-.28Z"/><path d="M86.5,13.39h2v.26h-1.7V15h1.54v.26H86.78v1.42h1.75v.26h-2Z"/><path d="M90.39,17V13.39h.86c1,0,1.25.49,1.25,1a1,1,0,0,1-.85,1L92.91,17h-.35l-1.19-1.51h-.7V17Zm.28-3.33v1.54h.62a.86.86,0,0,0,.92-.79c0-.44-.26-.77-1-.77Z"/><path d="M94.57,13.39h2v.26h-1.7V15h1.54v.26H94.85v1.42H96.6v.26h-2Z"/><path d="M14.52,7.15V0h4c2,0,3.22.86,3.62,2.59A4.15,4.15,0,0,1,22,5.05a3.14,3.14,0,0,1-2.59,2,8.18,8.18,0,0,1-1.35.12c-1.09,0-2.17,0-3.25,0ZM17,5.32c.41,0,.8,0,1.19,0a1.42,1.42,0,0,0,1.44-1.1,3.16,3.16,0,0,0,0-1.2,1.34,1.34,0,0,0-1-1A4.92,4.92,0,0,0,17,1.86Z"/><path d="M7.6,0H14V1.85H10v.88h4v1.7H10v.9h4V7.14H7.6Z"/><path d="M0,0H6.91V1.86H4.68V7.14H2.22V1.87H0Z"/><path d="M22.49,0H24.2a.33.33,0,0,1,.22.12c.2.29.39.59.61.92.21-.3.42-.6.6-.89A.31.31,0,0,1,26,0h1.66l-.72.92c-.28.35-.56.71-.85,1.05a.22.22,0,0,0,0,.31l0,0c.51.62,1,1.24,1.49,1.87l.15.21H25.9c-.06,0-.13-.07-.17-.13l-.69-1c-.23.34-.45.66-.67,1a.34.34,0,0,1-.22.14H22.42l.14-.19c.49-.64,1-1.26,1.51-1.89a.22.22,0,0,0,0-.31l0,0c-.51-.59-1-1.2-1.45-1.79Z"/><path d="M3.15,9.71V9.37H4.76v.34Zm0,.68v-.34H4.76v.34Z"/><path d="M6,8.78V8.41h.45v.37ZM6.44,9v1.65H6V9Z"/><path d="M7.23,9v.23h0a.51.51,0,0,1,.22-.21A.65.65,0,0,1,7.73,9,.77.77,0,0,1,8,9a.44.44,0,0,1,.18.14.53.53,0,0,1,.09.21,1.33,1.33,0,0,1,0,.28v1H7.89V9.76a.58.58,0,0,0-.06-.3.26.26,0,0,0-.23-.1.31.31,0,0,0-.26.11.61.61,0,0,0-.08.36v.87H6.8V9Z"/><path d="M9.86,10.48a.47.47,0,0,1-.21.19.69.69,0,0,1-.29.06A.71.71,0,0,1,9,10.66a.66.66,0,0,1-.23-.19.88.88,0,0,1-.14-.28,1.18,1.18,0,0,1,0-.33,1.11,1.11,0,0,1,0-.32.83.83,0,0,1,.14-.27A.69.69,0,0,1,9,9.06.68.68,0,0,1,9.35,9a.65.65,0,0,1,.28.06.49.49,0,0,1,.21.18h0V8.41h.45v2.28H9.87v-.21Zm0-.81a.48.48,0,0,0-.07-.17.37.37,0,0,0-.12-.12.35.35,0,0,0-.18,0,.37.37,0,0,0-.19,0,.35.35,0,0,0-.12.12.51.51,0,0,0-.07.17.91.91,0,0,0,0,.2.84.84,0,0,0,0,.19.51.51,0,0,0,.07.17.39.39,0,0,0,.13.12.34.34,0,0,0,.18,0,.36.36,0,0,0,.19,0,.34.34,0,0,0,.12-.12.54.54,0,0,0,.06-.17,1,1,0,0,0,0-.2A1,1,0,0,0,9.84,9.66Z"/><path d="M11.13,10.29a.46.46,0,0,0,.53,0,.28.28,0,0,0,.12-.15h.4a.77.77,0,0,1-.29.43.87.87,0,0,1-.48.13.94.94,0,0,1-.35-.06.73.73,0,0,1-.26-.18.8.8,0,0,1-.17-.27,1,1,0,0,1-.06-.35,1,1,0,0,1,.06-.35.8.8,0,0,1,.44-.46A.86.86,0,0,1,11.41,9a.78.78,0,0,1,.37.08.73.73,0,0,1,.26.22.9.9,0,0,1,.15.31,1.17,1.17,0,0,1,0,.38H11A.46.46,0,0,0,11.13,10.29Zm.51-.87a.32.32,0,0,0-.26-.09.39.39,0,0,0-.18,0,.34.34,0,0,0-.12.09.33.33,0,0,0-.06.12.51.51,0,0,0,0,.11h.74A.52.52,0,0,0,11.64,9.43Z"/><path d="M12.9,9v.21h0a.51.51,0,0,1,.21-.19A.65.65,0,0,1,13.39,9a.71.71,0,0,1,.34.07.69.69,0,0,1,.23.19.82.82,0,0,1,.14.28,1.26,1.26,0,0,1,0,.34,1.13,1.13,0,0,1,0,.32.81.81,0,0,1-.14.27.67.67,0,0,1-.23.19.69.69,0,0,1-.32.07.64.64,0,0,1-.28-.06.54.54,0,0,1-.21-.18h0v.78h-.45V9Zm.59,1.31a.37.37,0,0,0,.12-.12.48.48,0,0,0,.07-.17,1,1,0,0,0,0-.19.91.91,0,0,0,0-.19.51.51,0,0,0-.07-.17.39.39,0,0,0-.12-.12.34.34,0,0,0-.18,0,.35.35,0,0,0-.19,0A.37.37,0,0,0,13,9.5a.5.5,0,0,0-.07.17,1,1,0,0,0,0,.2.91.91,0,0,0,0,.19.51.51,0,0,0,.07.17.39.39,0,0,0,.49.12Z"/><path d="M14.91,10.29a.46.46,0,0,0,.53,0,.28.28,0,0,0,.12-.15H16a.77.77,0,0,1-.29.43.87.87,0,0,1-.48.13.94.94,0,0,1-.35-.06.73.73,0,0,1-.26-.18.8.8,0,0,1-.17-.27,1,1,0,0,1-.07-.35,1,1,0,0,1,.06-.35.8.8,0,0,1,.45-.46A.86.86,0,0,1,15.19,9a.78.78,0,0,1,.37.08.73.73,0,0,1,.26.22.9.9,0,0,1,.15.31A1.17,1.17,0,0,1,16,10H14.79A.46.46,0,0,0,14.91,10.29Zm.51-.87a.32.32,0,0,0-.26-.09.39.39,0,0,0-.18,0,.34.34,0,0,0-.12.09.33.33,0,0,0-.06.12.51.51,0,0,0,0,.11h.74A.52.52,0,0,0,15.42,9.43Z"/><path d="M16.68,9v.23h0a.51.51,0,0,1,.22-.21A.65.65,0,0,1,17.19,9a.77.77,0,0,1,.3,0,.44.44,0,0,1,.18.14.53.53,0,0,1,.09.21,1.33,1.33,0,0,1,0,.28v1h-.45V9.76a.58.58,0,0,0-.06-.3.26.26,0,0,0-.23-.1.31.31,0,0,0-.26.11.61.61,0,0,0-.08.36v.87h-.47V9Z"/><path d="M19.32,10.48a.47.47,0,0,1-.21.19.69.69,0,0,1-.29.06.71.71,0,0,1-.33-.07.66.66,0,0,1-.23-.19.88.88,0,0,1-.14-.28,1.18,1.18,0,0,1,0-.33,1.11,1.11,0,0,1,0-.32.83.83,0,0,1,.14-.27.69.69,0,0,1,.23-.19A.68.68,0,0,1,18.81,9a.65.65,0,0,1,.28.06.49.49,0,0,1,.21.18h0V8.41h.45v2.28h-.43v-.21Zm0-.81a.48.48,0,0,0-.07-.17.37.37,0,0,0-.12-.12.35.35,0,0,0-.18,0,.37.37,0,0,0-.19,0,.35.35,0,0,0-.12.12.51.51,0,0,0-.07.17.91.91,0,0,0,0,.2.84.84,0,0,0,0,.19.51.51,0,0,0,.07.17.39.39,0,0,0,.13.12.34.34,0,0,0,.18,0,.36.36,0,0,0,.19,0,.34.34,0,0,0,.12-.12.54.54,0,0,0,.06-.17,1,1,0,0,0,0-.2A1,1,0,0,0,19.3,9.66Z"/><path d="M20.58,10.29a.46.46,0,0,0,.53,0,.28.28,0,0,0,.12-.15h.4a.77.77,0,0,1-.29.43.87.87,0,0,1-.48.13.94.94,0,0,1-.35-.06.73.73,0,0,1-.26-.18.8.8,0,0,1-.17-.27A1,1,0,0,1,20,9.87a1,1,0,0,1,.06-.35.8.8,0,0,1,.44-.46A.86.86,0,0,1,20.87,9a.78.78,0,0,1,.37.08.73.73,0,0,1,.26.22.9.9,0,0,1,.15.31,1.17,1.17,0,0,1,0,.38H20.47A.46.46,0,0,0,20.58,10.29Zm.51-.87a.32.32,0,0,0-.26-.09.39.39,0,0,0-.18,0,.34.34,0,0,0-.12.09.33.33,0,0,0-.06.12.51.51,0,0,0,0,.11h.74A.52.52,0,0,0,21.09,9.43Z"/><path d="M22.36,9v.23h0a.51.51,0,0,1,.22-.21A.65.65,0,0,1,22.86,9a.77.77,0,0,1,.3,0,.44.44,0,0,1,.18.14.53.53,0,0,1,.09.21,1.33,1.33,0,0,1,0,.28v1H23V9.76a.58.58,0,0,0-.06-.3.26.26,0,0,0-.23-.1.31.31,0,0,0-.26.11.61.61,0,0,0-.08.36v.87h-.47V9Z"/><path d="M24.73,9v.3h-.33v.82a.15.15,0,0,0,.1.19h.23v.35h-.27l-.2,0a.48.48,0,0,1-.17-.06.3.3,0,0,1-.11-.12.42.42,0,0,1,0-.2v-1h-.27V9h.27V8.54h.45V9Z"/><path d="M25.41,8.41v2.28H25V8.41Z"/><path d="M26.37,11.18a.66.66,0,0,1-.36.09h-.29v-.39H26a.18.18,0,0,0,.13-.07.23.23,0,0,0,0-.13.27.27,0,0,0,0-.1L25.56,9H26l.37,1.13h0L26.78,9h.47l-.69,1.85A.56.56,0,0,1,26.37,11.18Z"/><path d="M28.32,9.51a.75.75,0,0,1,.44-.45A.94.94,0,0,1,29.11,9a1,1,0,0,1,.35.06.75.75,0,0,1,.44.45,1,1,0,0,1,.06.36,1,1,0,0,1-.06.36.77.77,0,0,1-.17.27.75.75,0,0,1-.27.17,1,1,0,0,1-.35.06,1,1,0,0,1-.35-.06.77.77,0,0,1-.43-.45,1,1,0,0,1-.06-.36A1,1,0,0,1,28.32,9.51Zm.41.55a.51.51,0,0,0,.07.17.35.35,0,0,0,.12.12.38.38,0,0,0,.19,0,.38.38,0,0,0,.19,0,.35.35,0,0,0,.13-.12.51.51,0,0,0,.07-.17,1,1,0,0,0,0-.19,1,1,0,0,0,0-.19.5.5,0,0,0-.07-.17.37.37,0,0,0-.13-.12.37.37,0,0,0-.19,0,.35.35,0,0,0-.31.17.49.49,0,0,0-.07.17,1,1,0,0,0,0,.19,1,1,0,0,0,0,.19Z"/><path d="M30.69,9v.31h0a.55.55,0,0,1,.09-.14.56.56,0,0,1,.13-.11L31.05,9l.17,0,.1,0v.42h-.16a.48.48,0,0,0-.21,0,.37.37,0,0,0-.14.11.46.46,0,0,0-.08.14.91.91,0,0,0,0,.21v.74h-.45V9Z"/><path d="M33,10.81a.56.56,0,0,1-.12.24.7.7,0,0,1-.26.19,1.12,1.12,0,0,1-.45.08,1.07,1.07,0,0,1-.26,0,.79.79,0,0,1-.23-.09.57.57,0,0,1-.16-.18.48.48,0,0,1-.08-.24h.45a.26.26,0,0,0,.13.18.45.45,0,0,0,.22,0,.33.33,0,0,0,.28-.12.45.45,0,0,0,.08-.29v-.22h0a.45.45,0,0,1-.21.19.68.68,0,0,1-.29.06.72.72,0,0,1-.32-.05.61.61,0,0,1-.22-.18.74.74,0,0,1-.13-.26,1.25,1.25,0,0,1,0-.32,1,1,0,0,1,0-.31.81.81,0,0,1,.14-.26.66.66,0,0,1,.22-.18.67.67,0,0,1,.3-.07.64.64,0,0,1,.29.06.49.49,0,0,1,.2.2h0V9H33v1.54A1.11,1.11,0,0,1,33,10.81Zm-.62-.55a.35.35,0,0,0,.12-.1.45.45,0,0,0,.07-.15.6.6,0,0,0,0-.17.93.93,0,0,0,0-.19.48.48,0,0,0-.06-.16.33.33,0,0,0-.12-.11.37.37,0,0,0-.18,0,.33.33,0,0,0-.16,0,.35.35,0,0,0-.12.1.44.44,0,0,0-.07.15.74.74,0,0,0,0,.18.9.9,0,0,0,0,.18.48.48,0,0,0,.06.16.36.36,0,0,0,.11.12.32.32,0,0,0,.18,0,.36.36,0,0,0,.17,0Z"/><path d="M33.34,9.55a.53.53,0,0,1,.08-.26.54.54,0,0,1,.18-.17A.77.77,0,0,1,33.86,9l.27,0,.26,0a.77.77,0,0,1,.23.07.46.46,0,0,1,.17.14.4.4,0,0,1,.07.24v.86a1.73,1.73,0,0,0,0,.21.38.38,0,0,0,0,.15h-.46a.66.66,0,0,1,0-.16.59.59,0,0,1-.26.16,1,1,0,0,1-.3,0,.82.82,0,0,1-.22,0,.51.51,0,0,1-.18-.09.42.42,0,0,1-.12-.15.51.51,0,0,1,0-.22.48.48,0,0,1,0-.23.41.41,0,0,1,.13-.15.57.57,0,0,1,.18-.08l.2,0,.2,0,.18,0a.31.31,0,0,0,.12-.06.12.12,0,0,0,0-.11.24.24,0,0,0,0-.12.17.17,0,0,0-.06-.07l-.09,0h-.11a.34.34,0,0,0-.21.06.26.26,0,0,0-.09.19Zm1,.34-.07,0-.09,0-.1,0L34,10l-.1,0-.09,0a.2.2,0,0,0-.06.07.22.22,0,0,0,0,.1.22.22,0,0,0,0,.1.17.17,0,0,0,.06.06l.09,0H34a.4.4,0,0,0,.21,0,.3.3,0,0,0,.11-.11.34.34,0,0,0,0-.13.88.88,0,0,0,0-.1Z"/><path d="M35.62,9v.23h0a.51.51,0,0,1,.22-.21A.65.65,0,0,1,36.13,9a.77.77,0,0,1,.3,0,.44.44,0,0,1,.18.14.53.53,0,0,1,.09.21,1.33,1.33,0,0,1,0,.28v1h-.45V9.76a.58.58,0,0,0-.06-.3.26.26,0,0,0-.23-.1.31.31,0,0,0-.26.11.61.61,0,0,0-.08.36v.87H35.2V9Z"/><path d="M37.1,8.78V8.41h.45v.37Zm.45.26v1.65H37.1V9Z"/><path d="M38.66,9.38h-.79V9h1.39v.34l-.85,1h.92v.34H37.81v-.34Z"/><path d="M40,10.29a.46.46,0,0,0,.53,0,.28.28,0,0,0,.12-.15h.4a.77.77,0,0,1-.29.43.87.87,0,0,1-.48.13.94.94,0,0,1-.35-.06.73.73,0,0,1-.26-.18.8.8,0,0,1-.17-.27,1,1,0,0,1-.06-.35,1,1,0,0,1,.06-.35A.8.8,0,0,1,40,9.06.86.86,0,0,1,40.34,9a.78.78,0,0,1,.37.08.73.73,0,0,1,.26.22.9.9,0,0,1,.15.31,1.17,1.17,0,0,1,0,.37H39.94A.46.46,0,0,0,40,10.29Zm.51-.87a.32.32,0,0,0-.26-.09.39.39,0,0,0-.18,0,.34.34,0,0,0-.12.09.33.33,0,0,0-.06.12.51.51,0,0,0,0,.11h.74A.52.52,0,0,0,40.56,9.43Z"/><path d="M42.57,10.48a.47.47,0,0,1-.21.19.69.69,0,0,1-.29.06.71.71,0,0,1-.33-.07.66.66,0,0,1-.23-.19.88.88,0,0,1-.14-.28,1.18,1.18,0,0,1,0-.33,1.11,1.11,0,0,1,0-.32.83.83,0,0,1,.14-.27.69.69,0,0,1,.23-.19A.68.68,0,0,1,42.06,9a.65.65,0,0,1,.28.06.49.49,0,0,1,.21.18h0V8.41H43v2.28h-.43v-.21Zm0-.81a.48.48,0,0,0-.07-.17.37.37,0,0,0-.12-.12.35.35,0,0,0-.18,0,.37.37,0,0,0-.19,0,.35.35,0,0,0-.12.12.51.51,0,0,0-.07.17.91.91,0,0,0,0,.2.84.84,0,0,0,0,.19.51.51,0,0,0,.07.17.39.39,0,0,0,.13.12.34.34,0,0,0,.18,0,.36.36,0,0,0,.19,0,.34.34,0,0,0,.12-.12.54.54,0,0,0,.06-.17,1,1,0,0,0,0-.2,1,1,0,0,0,0-.19Z"/><path d="M44.1,8.83V8.41H46v.42h-.68v1.86h-.51V8.83Z"/><path d="M47.94,8.41v.42h-1.2v.49h1.1v.39h-1.1v.56H48v.42H46.23V8.41Z"/><path d="M49.28,8.41a1.18,1.18,0,0,1,.41.07.89.89,0,0,1,.33.21,1,1,0,0,1,.22.35,1.42,1.42,0,0,1,.08.49,1.58,1.58,0,0,1-.06.46,1,1,0,0,1-.19.36.91.91,0,0,1-.32.24,1.09,1.09,0,0,1-.46.09h-1V8.41Zm0,1.86a.65.65,0,0,0,.21,0,.47.47,0,0,0,.18-.12.59.59,0,0,0,.13-.21.93.93,0,0,0,0-.32,1.33,1.33,0,0,0,0-.31A.62.62,0,0,0,49.67,9a.49.49,0,0,0-.2-.15.81.81,0,0,0-.31-.05H48.8v1.44Z"/><path d="M52,10.29a.46.46,0,0,0,.53,0,.28.28,0,0,0,.12-.15H53a.77.77,0,0,1-.28.43.87.87,0,0,1-.48.13.94.94,0,0,1-.35-.06.73.73,0,0,1-.26-.18.8.8,0,0,1-.17-.27,1,1,0,0,1-.06-.35,1,1,0,0,1,.06-.35.8.8,0,0,1,.44-.46A.86.86,0,0,1,52.28,9a.78.78,0,0,1,.37.08.73.73,0,0,1,.26.22.9.9,0,0,1,.15.31,1.17,1.17,0,0,1,0,.37h-1.2A.46.46,0,0,0,52,10.29Zm.51-.87a.32.32,0,0,0-.26-.09.39.39,0,0,0-.18,0,.34.34,0,0,0-.12.09.33.33,0,0,0-.06.12.51.51,0,0,0,0,.11h.74A.52.52,0,0,0,52.49,9.43Z"/><path d="M53.75,10.69,53.18,9h.48L54,10.17h0L54.35,9h.44l-.56,1.65Z"/><path d="M55.48,10.29a.46.46,0,0,0,.53,0,.28.28,0,0,0,.12-.15h.4a.77.77,0,0,1-.29.43.87.87,0,0,1-.48.13.94.94,0,0,1-.35-.06.73.73,0,0,1-.26-.18.8.8,0,0,1-.17-.27,1,1,0,0,1-.06-.35A1,1,0,0,1,55,9.52a.8.8,0,0,1,.44-.46A.86.86,0,0,1,55.77,9a.78.78,0,0,1,.37.08.73.73,0,0,1,.26.22.9.9,0,0,1,.15.31,1.17,1.17,0,0,1,0,.37H55.38A.46.46,0,0,0,55.48,10.29ZM56,9.43a.32.32,0,0,0-.26-.09.39.39,0,0,0-.18,0,.34.34,0,0,0-.12.09.33.33,0,0,0-.06.12.51.51,0,0,0,0,.11h.74A.52.52,0,0,0,56,9.43Z"/><path d="M57.26,9v.23h0a.51.51,0,0,1,.22-.21A.65.65,0,0,1,57.76,9a.77.77,0,0,1,.3,0,.44.44,0,0,1,.18.14.53.53,0,0,1,.09.21,1.33,1.33,0,0,1,0,.28v1h-.45V9.76a.58.58,0,0,0-.06-.3.26.26,0,0,0-.23-.1.31.31,0,0,0-.26.11.61.61,0,0,0-.08.36v.87h-.45V9Z"/><path d="M59.63,9v.3h-.33v.82a.15.15,0,0,0,.1.19h.23v.35h-.27l-.2,0a.48.48,0,0,1-.17-.06.3.3,0,0,1-.11-.12.42.42,0,0,1,0-.2v-1h-.27V9h.27V8.54h.45V9Z"/><path d="M.24,9H.79a.1.1,0,0,1,.07,0l.2.35.19-.34A.1.1,0,0,1,1.35,9h.54l-.24.35-.27.4a.09.09,0,0,0,0,.13l.48.7,0,.08H1.34s0,0-.06,0l-.22-.37c-.07.13-.14.26-.22.36a.11.11,0,0,1-.07.05H.21l0-.07L.74,9.9a.09.09,0,0,0,0-.13L.27,9.1Z"/></g></g></g></g></svg>