<svg xmlns="http://www.w3.org/2000/svg" viewBox="0 0 98.89 23"><defs><style>.cls-1{fill:#fff;}</style></defs><title>thehollywoodreporter-white</title><g id="Layer_2" data-name="Layer 2"><g id="Layer_1-2" data-name="Layer 1"><g id="Layer_2-2" data-name="Layer 2"><g id="Layer_1-2-2" data-name="Layer 1-2"><path class="cls-1" d="M15.76.25H13.7A33.78,33.78,0,0,1,20.34.18,1.51,1.51,0,0,1,20,.25c-.49,0-1,0-1.48,0a.37.37,0,0,0-.42.32Q16.18,7,14.22,13.37l-.82,2.69h2.27A35,35,0,0,1,9,16.14a1.15,1.15,0,0,1,.29-.09h1.41a.39.39,0,0,0,.29-.19q1.17-3.76,2.31-7.53a.47.47,0,0,0,0-.13l-.33,0H7.3c-.22,0-.35,0-.43.29-.74,2.46-1.49,4.91-2.24,7.37,0,.05,0,.11-.06.24h2a36.3,36.3,0,0,1-6.6.07,1.22,1.22,0,0,1,.29-.11H1.8a.33.33,0,0,0,.39-.27v0Q4.52,8.14,6.85.51c0-.07,0-.15.06-.29H4.67A37.18,37.18,0,0,1,11.33.17,1.15,1.15,0,0,1,11,.25H9.63a.39.39,0,0,0-.29.19Q8.2,4.14,7.08,7.84a.55.55,0,0,0,0,.14h6c.19,0,.34,0,.41-.24C14.25,5.3,15,2.86,15.74.44A1.65,1.65,0,0,0,15.76.25Z"/><path class="cls-1" d="M37.27,21.72v.08a3,3,0,0,0,4.11.33,5,5,0,0,0,1.23-2c.57-1.7,1.11-3.42,1.66-5.14.17-.53.33-1.06.45-1.6-.29.46-.55.92-.86,1.36a4.68,4.68,0,0,1-1.49,1.45,2.35,2.35,0,0,1-3.62-2A6.11,6.11,0,0,1,39,12.44c.63-2.15,1.31-4.3,2-6.45,0-.13.07-.26.13-.45H39.38V5.39h4.06l-.53,1.78c-.68,2.24-1.36,4.47-2,6.72a5.32,5.32,0,0,0-.23,1.35c0,.71.47,1.06,1.17.89a2.76,2.76,0,0,0,1.33-.88A8.73,8.73,0,0,0,45,12.15c.69-2,1.3-3.94,1.93-5.91.29-.88.27-.88,1.2-.88h1.34l-1,3.2Q47.06,13.29,45.6,18a7.8,7.8,0,0,1-2,3.49,5.29,5.29,0,0,1-5.06,1.33,2.55,2.55,0,0,1-1.35-.78,1.8,1.8,0,0,1-.48-1.69,1.28,1.28,0,0,1,1.49-1l.12,0a1.29,1.29,0,0,1-.89,2.42Z"/><path class="cls-1" d="M92.52,13.72c-.08.13-.13.22-.2.31a14.06,14.06,0,0,1-1.41,1.76,2.57,2.57,0,0,1-3.86-.27,4.47,4.47,0,0,1-1-2.49A7.68,7.68,0,0,1,90.5,5.46a4.71,4.71,0,0,1,2-.37,1.8,1.8,0,0,1,1.84,1.65.53.53,0,0,0,.13.3l2.1-6.8H94.83V.09h4.06l-.71,2.34L94.64,14a6.7,6.7,0,0,0-.27,1.34.74.74,0,0,0,.24.61.84.84,0,0,0,.72-.07,3,3,0,0,0,.81-.86c.44-.75.82-1.53,1.23-2.29a3.37,3.37,0,0,1,.2-.3l.08,0a.54.54,0,0,1,0,.18c-.49.93-.95,1.9-1.52,2.82a2,2,0,0,1-2,1,1.72,1.72,0,0,1-1.64-1.72C92.5,14.47,92.52,14.12,92.52,13.72Zm-4.59.21a11.19,11.19,0,0,0,.32,1.6,1.12,1.12,0,0,0,1.65.66A3.3,3.3,0,0,0,91,15.42a12.48,12.48,0,0,0,1.4-2A20.13,20.13,0,0,0,94.16,8,2.7,2.7,0,0,0,94,6.14a1.31,1.31,0,0,0-1.71-.72h0a3,3,0,0,0-.94.54,7.17,7.17,0,0,0-1.12,1.2,13.21,13.21,0,0,0-2.25,6.76Z"/><path class="cls-1" d="M52.26,5.55H50.54l0-.1a.74.74,0,0,1,.23-.08h3.85c0,.08,0,.19-.08.31-.82,2.71-1.65,5.42-2.46,8.13a6,6,0,0,0-.25,1.43.8.8,0,0,0,1.13.86,3.48,3.48,0,0,0,1.18-.74,8.36,8.36,0,0,0,2.1-3.44c.69-2,1.29-4,1.93-6l0-.07c0-.41.29-.52.67-.49.56,0,1.12,0,1.72,0,0,.15-.06.27-.1.38-.83,2.71-1.68,5.4-2.5,8.11a5.65,5.65,0,0,0-.23,1.38.83.83,0,0,0,.95.92,2.66,2.66,0,0,0,1.43-.5,7.63,7.63,0,0,0,2.07-2.13,11.28,11.28,0,0,0,2.07-5.31,4.92,4.92,0,0,0-.07-1.32L64,7.1a1.23,1.23,0,0,1-1.48.38A1.21,1.21,0,0,1,63,5.16a1.28,1.28,0,0,1,1.34.92,4.27,4.27,0,0,1,.18,2,11.64,11.64,0,0,1-3.3,7,4.29,4.29,0,0,1-2.66,1.39A2.25,2.25,0,0,1,56,14.23c0-.35,0-.7,0-1.09l-.18.33a7.5,7.5,0,0,1-1.84,2.42,2.48,2.48,0,0,1-1.49.64,2.37,2.37,0,0,1-2.5-3.1c.21-1.06.57-2.1.87-3.16.43-1.45.89-2.89,1.33-4.34A3.66,3.66,0,0,0,52.26,5.55Z"/><path class="cls-1" d="M74.8,9.55c-.21,2.95-1.43,5.29-4.19,6.56A3.93,3.93,0,0,1,64.86,13a7.36,7.36,0,0,1,4.22-7.5c3.44-1.37,5.61,1.2,5.72,3.78C74.81,9.35,74.8,9.46,74.8,9.55ZM72.89,7.69a9.75,9.75,0,0,0-.21-1.27,1.47,1.47,0,0,0-1.75-1.12l-.12,0a2.42,2.42,0,0,0-1,.48,5.39,5.39,0,0,0-1,1.19,14.59,14.59,0,0,0-2,5.82,5.49,5.49,0,0,0,.08,2.32,1.43,1.43,0,0,0,1.67,1.15,2.18,2.18,0,0,0,1.1-.41,5.32,5.32,0,0,0,1.15-1.29A14.87,14.87,0,0,0,72.89,7.69Z"/><path class="cls-1" d="M16.28,12A7.38,7.38,0,0,1,20.71,5.4C24,4.15,26,6.59,26.27,8.85a7.29,7.29,0,0,1-4.47,7.41A3.92,3.92,0,0,1,16.39,13,8.79,8.79,0,0,1,16.28,12Zm1.95,1.77c0,.35,0,.74.13,1.12a1.59,1.59,0,0,0,2.31,1.24,2.54,2.54,0,0,0,.86-.57,6.18,6.18,0,0,0,.91-1.15,14.45,14.45,0,0,0,1.91-6.23,6,6,0,0,0-.19-1.9,1.38,1.38,0,0,0-1.51-1,1.78,1.78,0,0,0-1.23.45,7,7,0,0,0-1.15,1.32,15.09,15.09,0,0,0-2,6.77Z"/><path class="cls-1" d="M75.42,12a7.27,7.27,0,0,1,4.12-6.43,4,4,0,0,1,5.85,3.05A7.29,7.29,0,0,1,81,16.24c-3.11,1.11-5.07-1-5.45-3.23C75.47,12.7,75.45,12.38,75.42,12Zm2,1.86c0,.35.05.73.13,1.1a1.59,1.59,0,0,0,2.31,1.24,2.72,2.72,0,0,0,.9-.61,6.19,6.19,0,0,0,.9-1.17,15,15,0,0,0,1.83-5.59,5.63,5.63,0,0,0-.06-2.29,1.52,1.52,0,0,0-2-1.17,2.77,2.77,0,0,0-1.06.57A4.78,4.78,0,0,0,79.39,7a15.2,15.2,0,0,0-2,6.81Z"/><path class="cls-1" d="M37.91,12.46a.48.48,0,0,1,0,.15,12,12,0,0,1-1.69,3.1,2,2,0,0,1-1.59.83,1.73,1.73,0,0,1-1.91-1.84A5.9,5.9,0,0,1,33,13C34.2,8.88,35.46,4.78,36.7.68c0-.12.07-.24.12-.44H35.1V.08h4.05c0,.17-.11.39-.17.61L34.92,14a9.94,9.94,0,0,0-.29,1.27.63.63,0,0,0,.23.71.65.65,0,0,0,.8-.12A3.88,3.88,0,0,0,36.4,15c.44-.75.82-1.53,1.23-2.29a2.08,2.08,0,0,1,.19-.29Z"/><path class="cls-1" d="M30.87.24H29.09A18.9,18.9,0,0,1,33.23,0c-.2.65-.39,1.29-.57,1.93L28.95,14.12a5.89,5.89,0,0,0-.25,1.31c0,.57.41.84.89.52a2.56,2.56,0,0,0,.79-.79c.48-.79.88-1.63,1.32-2.44.06-.1.13-.2.24-.36,0,.12.06.16.05.18a12,12,0,0,1-1.72,3.16,2,2,0,0,1-1.82.83,1.72,1.72,0,0,1-1.67-1.65,5.06,5.06,0,0,1,.24-2L30.74.71C30.78.58,30.82.44,30.87.24Z"/><path class="cls-1" d="M91,21.08l.89,1.86H90.49c-.08,0-.18-.12-.22-.21-.18-.4-.36-.79-.51-1.2a.42.42,0,0,0-.48-.32c-.78,0-.57-.11-.81.57a.42.42,0,0,1,0,.1c-.36,1.2-.4,1.22-1.72,1,0-.1,0-.19.07-.29.45-1.47.9-2.93,1.34-4.41a.38.38,0,0,1,.43-.33h0c.77,0,1.54,0,2.29,0a3.61,3.61,0,0,1,1.1.21,1,1,0,0,1,.68,1.22A1.88,1.88,0,0,1,91,21.08Zm-2-.84c.5,0,.93,0,1.36,0a.9.9,0,0,0,.88-.78c.07-.35-.06-.57-.42-.6a11.85,11.85,0,0,0-1.24,0,.26.26,0,0,0-.2.14c-.14.39-.26.78-.39,1.24Z"/><path class="cls-1" d="M74.59,21.08l.88,1.86H74.09c-.08,0-.18-.12-.22-.21-.19-.41-.37-.81-.52-1.23a.38.38,0,0,0-.43-.29c-.67,0-.67,0-.86.65-.08.26-.18.52-.24.79s-.19.32-.43.31-.64,0-1,0l-.09,0a2.55,2.55,0,0,1,.05-.25c.45-1.49.91-3,1.36-4.47a.33.33,0,0,1,.38-.29c.8,0,1.61,0,2.41,0a3.47,3.47,0,0,1,1.1.23,1,1,0,0,1,.65,1.15A1.9,1.9,0,0,1,74.59,21.08Zm-2-.84c.5,0,.95,0,1.39,0a.86.86,0,0,0,.83-.71c.11-.42,0-.65-.46-.67s-.76,0-1.15,0a.32.32,0,0,0-.24.16c-.13.38-.24.78-.37,1.22Z"/><path class="cls-1" d="M52.53,22.94H51.15c-.08,0-.17-.13-.22-.22-.19-.4-.37-.81-.52-1.23a.38.38,0,0,0-.43-.29c-.66,0-.66,0-.86.62-.08.29-.19.54-.25.82s-.19.32-.43.31-.64,0-1,0l-.09,0c0-.09,0-.19.06-.29.45-1.48.91-3,1.35-4.44.07-.22.15-.31.4-.31.77,0,1.53,0,2.29,0h.31c.81,0,1.36.39,1.5.93a2,2,0,0,1-.84,1.93,7.53,7.53,0,0,1-.81.35Zm-2.9-2.72c.52,0,1,0,1.5,0a.83.83,0,0,0,.73-.73c.09-.39-.05-.61-.45-.63s-.78,0-1.17,0A.29.29,0,0,0,50,19C49.86,19.4,49.75,19.81,49.63,20.23Z"/><path class="cls-1" d="M67,22.94a2.84,2.84,0,0,1-.6,0,1.7,1.7,0,0,1-1.56-2.23,8,8,0,0,1,.35-1.15,2.45,2.45,0,0,1,2-1.64,4.32,4.32,0,0,1,1.94,0,1.58,1.58,0,0,1,1.25,1.92,7.53,7.53,0,0,1-.46,1.57,2.49,2.49,0,0,1-2.24,1.51A3.41,3.41,0,0,1,67,22.94Zm.26-1.06a1.23,1.23,0,0,0,1.25-.68A8.61,8.61,0,0,0,69,19.77a.67.67,0,0,0-.34-.76,1.49,1.49,0,0,0-2,.57,7,7,0,0,0-.34,1c-.27.88.07,1.34,1,1.34Z"/><path class="cls-1" d="M53.26,22.89l1.53-5h4.4a8.26,8.26,0,0,1-.29.86.4.4,0,0,1-.31.16c-.79,0-1.58,0-2.38,0-.26,0-.37.08-.42.32a6.13,6.13,0,0,1-.19.64H58a8.46,8.46,0,0,1-.29.9.34.34,0,0,1-.26.13c-.63,0-1.26,0-1.89,0-.23,0-.36.05-.41.29s-.13.44-.2.7h3c-.1.34-.18.63-.29.91a.26.26,0,0,1-.2.13H53.34Z"/><path class="cls-1" d="M87.24,17.9a8,8,0,0,1-.29.86.41.41,0,0,1-.32.15c-.78,0-1.56,0-2.34,0-.26,0-.4.06-.46.33s-.11.39-.18.63h2.42c-.1.32-.16.6-.27.86a.36.36,0,0,1-.29.16c-.63,0-1.26,0-1.89,0-.23,0-.36,0-.41.29a7,7,0,0,1-.21.7h3c-.1.34-.17.62-.29.9a.26.26,0,0,1-.2.14H81.28c0-.15.07-.26.1-.36.44-1.46.89-2.91,1.33-4.37.07-.23.16-.33.42-.32C84.5,17.91,85.85,17.9,87.24,17.9Z"/><path class="cls-1" d="M58.68,22.94l.23-.76c.41-1.34.82-2.67,1.22-4a.32.32,0,0,1,.35-.29h0c.79,0,1.58,0,2.37,0a3.41,3.41,0,0,1,1.09.24,1,1,0,0,1,.62,1.08c-.18,1.39-.83,2-2.07,2.09a15.78,15.78,0,0,1-1.62,0,.36.36,0,0,0-.42.29v0c-.09.34-.22.68-.3,1,0,.18-.13.27-.33.26Zm2.2-2.54H62a1,1,0,0,0,1.1-1c.07-.36-.06-.57-.43-.57s-.78,0-1.17,0a.26.26,0,0,0-.19.14c-.15.43-.28.88-.44,1.39Z"/><path class="cls-1" d="M77.38,22.94l1.22-4H76.84c.1-.33.18-.63.29-.91a.27.27,0,0,1,.21-.11h4.73c-.1.33-.19.64-.29.93,0,.06-.16.1-.25.1-.4,0-.8,0-1.2,0-.21,0-.29.07-.36.27-.33,1.12-.7,2.23-1,3.35a.46.46,0,0,1-.51.42h-.06C78.06,22.93,77.74,22.94,77.38,22.94Z"/><path class="cls-1" d="M47,3.92l.48-1.59H46.34a.36.36,0,0,0-.24.21c-.15.44-.29.89-.43,1.35H44.6a2.82,2.82,0,0,1,.07-.29c.33-1.1.68-2.19,1-3.29A.34.34,0,0,1,46,0h0c.24,0,.48,0,.77,0L46.4,1.54h1.27c.06,0,.13-.14.15-.23.11-.35.2-.71.34-1a.4.4,0,0,1,.29-.21,7.68,7.68,0,0,1,.83,0,2,2,0,0,1,0,.27c-.35,1.11-.69,2.22-1,3.34-.06.2-.14.29-.36.27S47.35,3.92,47,3.92Z"/><path class="cls-1" d="M53.28.08,53,.83c-.53,0-1.06,0-1.58,0a.47.47,0,0,0-.6.46,1.26,1.26,0,0,1-.07.29h1.6a4.51,4.51,0,0,1-.19.62.35.35,0,0,1-.26.14,8,8,0,0,1-1,0c-.29,0-.45.08-.49.37a3.41,3.41,0,0,1-.12.4h2c-.08.27-.13.48-.21.69a.29.29,0,0,1-.22.11H49c0-.11,0-.2.06-.29l1-3.32c0-.16.08-.29.31-.29h2.75Z"/><path class="cls-1" d="M45.16,0c-.14.79-.14.78-.88.79s-.51-.11-.71.52-.48,1.53-.7,2.29c-.06.19-.14.29-.35.27s-.52,0-.83,0L42.62.84H41.33c.07-.25.12-.46.2-.65a.27.27,0,0,1,.2-.14Z"/></g></g></g></g></svg>