<svg xmlns="http://www.w3.org/2000/svg" viewBox="0 0 105.02 67.97"><defs><style>.cls-1{fill:#ef5035;}</style></defs><title>traverse-laurel-red</title><g id="Layer_2" data-name="Layer 2"><g id="Layer_1-2" data-name="Layer 1"><g id="Layer_2-2" data-name="Layer 2"><g id="Layer_1-2-2" data-name="Layer 1-2"><path class="cls-1" d="M80.81,4.5A4.3,4.3,0,0,1,79.93.11a3.11,3.11,0,0,1,2.61,3.22c-.13,1.91.94,2.52,2.37,3,.07,0,.17,0,.26,0-.51-2.59-.48-2.88.39-4.23A3.37,3.37,0,0,1,87.45,6c-.37,1.61.33,2.4,1.56,3.06.16.09.31.22.65.45a4.87,4.87,0,0,1,.78-4.39c1.81.89,2,2.24,1,5.93.23.25.5.52.74.82a4.93,4.93,0,0,0,1,1.08c.33-1.63.58-3.11,2.1-4.16.92,1.38,1.37,2.91.54,4.21-1.1,1.73-.48,2.94.52,4.25l.18.15A4.82,4.82,0,0,1,99,13.49,3.62,3.62,0,0,1,99.37,17a6.28,6.28,0,0,1-1.17,2,1.31,1.31,0,0,0-.27,1.56c.27.61.52,1.22.89,2.08a4.7,4.7,0,0,1,3-3.74,3.35,3.35,0,0,1-.9,4.52c-1.5,1.18-1.47,2.37-.77,4A5.37,5.37,0,0,1,104,24.55a3.47,3.47,0,0,1-.89,3.59,5.34,5.34,0,0,1-1.57,1.24,1.54,1.54,0,0,0-1,2.08,9.08,9.08,0,0,1,.18,1,5.52,5.52,0,0,1,4.2-1.94,4.13,4.13,0,0,1,0,1.06,4.57,4.57,0,0,1-3.16,3.29c-1,.3-1.46.77-1.41,1.8a7.82,7.82,0,0,1-.23,1.4,5.05,5.05,0,0,1,4.74-1.56,3.37,3.37,0,0,1-1.7,2.9,8.66,8.66,0,0,1-2.11.89c-1.69.48-1.7.45-1.89,2.29,2.94-.82,3.07-.83,4.84-.14a4.92,4.92,0,0,1-2.66,2.61,3.63,3.63,0,0,1-1.67.37c-1.77-.24-2.5.74-2.88,2.24,2.32-.74,3.13-.69,5.05.4a4.24,4.24,0,0,1-3.36,2.29,7.23,7.23,0,0,1-2,0c-1.61-.16-1.78-.08-2.56,1.63A6.31,6.31,0,0,1,98.9,53.3c-2.19,2.5-4.66,1.88-7.23.89L90,55.75a21.49,21.49,0,0,1,2.72.63,3.65,3.65,0,0,1,2.15,1.69c-1.7,1.45-3.52,1.35-5.41.62a5.66,5.66,0,0,1-.65-.3c-1.42-.77-1.42-.77-2.86.49A7.24,7.24,0,0,1,90.32,62a4.58,4.58,0,0,1-3.86.55,5.93,5.93,0,0,1-2.14-1.14c-1.07-1.08-2.06-1-3.29-.13a6.44,6.44,0,0,1,3.81,3.59c-2.18,1.27-4.25.44-7-2.78a22.74,22.74,0,0,0-12,5.88l-1-1a8.81,8.81,0,0,1,3.69-2.89,56.37,56.37,0,0,1,6.81-2.7,2.1,2.1,0,0,0,1.77-2,5.06,5.06,0,0,1,2.76-4.28,5.55,5.55,0,0,1,.77-.28c.94,1.49.65,3.08-.87,5.44,1.92-.37,2-.41,1.92-2.25a5.35,5.35,0,0,1,2-4.83,2.61,2.61,0,0,1,.48-.3.75.75,0,0,1,.28,0c1,1.69,1,3-.13,5.55.35-.21.58-.33.81-.48,1.22-.77,1.23-.78.85-2.16a5.14,5.14,0,0,1,.68-4.58A11.84,11.84,0,0,1,87.7,50a5.55,5.55,0,0,1,1,4.9c1.4-.37,1.63-.74,1.1-2-.74-1.82-1-3.61.14-5.37.13-.2.3-.36.56-.68a5.59,5.59,0,0,1,1.85,4.65c1.43-.86,1.55-1.23.74-2.45a5.07,5.07,0,0,1-.74-5.16,7.33,7.33,0,0,1,.5-.78A5.93,5.93,0,0,1,95.3,48l1.29-2.18c-1.8-1.83-3.47-3.64-2.23-6.62a5.31,5.31,0,0,1,3.27,4.33l.3-.82c.57-1.51.57-1.51-.7-2.6-1.11-1-2.12-2-2.13-3.59a12.13,12.13,0,0,1,.14-1.36c1.86.43,2.64,1.12,3.92,3.32.07-.33.14-.58.2-.86.33-1.48.33-1.49-1.05-2.18a4.86,4.86,0,0,1-3-3.8,1.63,1.63,0,0,1,0-.43,2,2,0,0,1,.22-.42,5.69,5.69,0,0,1,4.27,2.71v-.83c0-1.73,0-1.73-1.61-2.31a4.52,4.52,0,0,1-3.43-3.88,4.64,4.64,0,0,1,4.7,2.17c-.08-.6-.11-.89-.15-1.17s-.11-.65-.18-1a1.1,1.1,0,0,0-1.06-1,12.2,12.2,0,0,1-2-.4,3.53,3.53,0,0,1-2.53-2.66c1.17-.7,1.86-.63,4.51.52-.15-.53-.27-1-.41-1.41a1.17,1.17,0,0,0-1.31-.88,11.61,11.61,0,0,1-1.58,0,4.36,4.36,0,0,1-3.5-2.33,4.48,4.48,0,0,1,5.18.5l-1.71-3c-2.29.86-4.42,1.23-6.18-1.09a4.55,4.55,0,0,1,5-.51L91.55,11.9c-3.22,1.48-4.7,1.45-6.28-.13a5.42,5.42,0,0,1,4.32-1.53l-2-1.7c-1.89,1.23-3.73,2.66-6,1,1-1.56,2-2,4.3-2.06-.36-.25-.61-.45-.9-.62-1.66-1-1.66-1-3.14.33a3.56,3.56,0,0,1-4.32.65,4.3,4.3,0,0,1,4-2.57l-.65-.76Z"/><path class="cls-1" d="M24.29,4.5l-.65.76a4.38,4.38,0,0,1,4.07,2.63,3.21,3.21,0,0,1-2.88.19,5.38,5.38,0,0,1-1.24-.71C23,7,22.42,6.11,21.92,6.17A6.85,6.85,0,0,0,19.41,7.4a4.71,4.71,0,0,1,4.16,1.91c-1.24,1.48-2.39,1.36-6-.71l-2,1.57a5.76,5.76,0,0,1,4.32,1.57c-1.37,1.59-3.18,1.63-6.24.13l-2.09,2.39a4.49,4.49,0,0,1,4.9.43c-1,1.92-2.63,2.26-6,1.22L8.66,18.85a4.46,4.46,0,0,1,5.16-.51,4.28,4.28,0,0,1-3.3,2.33,6.72,6.72,0,0,1-.86,0c-2.07,0-2.15.08-2.52,2.33,1.4-.82,2.78-1.38,4.49-.73a3.55,3.55,0,0,1-2.43,2.76,6.39,6.39,0,0,1-1.82.39,1.39,1.39,0,0,0-1.46,1.44c-.06.47-.16.94-.3,1.69a5.23,5.23,0,0,1,4.67-2.15,3.82,3.82,0,0,1-2,3.36,4.15,4.15,0,0,1-.91.43c-2.15.82-2.15.82-2,3.27a20.42,20.42,0,0,1,1.88-1.85,4,4,0,0,1,2.52-.8,4.24,4.24,0,0,1-1.38,3.55,9.93,9.93,0,0,1-1.68,1.1c-1.22.65-1.25.65-1,2,.07.33.15.65.22,1a14.66,14.66,0,0,1,1.52-2,16.78,16.78,0,0,1,2.22-1.52,3.68,3.68,0,0,1-.48,3.86,9,9,0,0,1-1.53,1.52c-1.07.91-1.08.9-.62,2.14.11.3.24.6.42,1.08a5.28,5.28,0,0,1,3.09-4.22c1.4,2.29.45,4-2,6.57l1.2,2.11a6.33,6.33,0,0,1,2.36-4.82A3.76,3.76,0,0,1,13,46.92a6.45,6.45,0,0,1-.91,1.94c-.81,1.31-.82,1.41.26,2.57.13.13.28.25.58.52a5.35,5.35,0,0,1,1.63-5.2,4.84,4.84,0,0,1,1.31,3.92,11.82,11.82,0,0,1-.57,2.08c-.52,1.43-.5,1.5,1.09,2.29a5.59,5.59,0,0,1,.89-4.9,4.57,4.57,0,0,1,2,5.18c-.4,1.88-.4,1.88,1.67,3.09a5.24,5.24,0,0,1-.24-5.77,5.17,5.17,0,0,1,2.71,3.76,12,12,0,0,1,0,1.44c0,1.87,0,1.87,2.06,2.51-1.24-1.75-1.91-3.5-1.15-5.64a5,5,0,0,1,3.37,3,1.75,1.75,0,0,1,.2.69c-.06,2.13,1.19,2.86,3.08,3.33a21.65,21.65,0,0,1,7.51,3.52c.61.44,1.16,1,1.89,1.58l-1.06,1.13A22.65,22.65,0,0,0,27.3,62.1c-3,3.24-4.79,4-7.07,2.77a6.4,6.4,0,0,1,3.72-3.52c-1.44-1.11-1.56-1.09-3,0-1.63,1.18-3.35,1.9-5.38,1.07a7.31,7.31,0,0,1-.71-.4,6.36,6.36,0,0,1,4.21-3.05c-1.13-1.34-1.31-1.35-2.69-.62-2,1.09-4.07,1.34-6.05-.16.74-1.47,2.58-2.34,4.92-2.47a12.36,12.36,0,0,1-1.22-1,1.16,1.16,0,0,0-1.41-.27A10.31,10.31,0,0,1,10,55c-1.58.09-2.39-.33-3.74-1.71A5.7,5.7,0,0,1,11,52c-.5-1.58-.95-1.88-2.29-1.7a5.68,5.68,0,0,1-4.52-.95A14.28,14.28,0,0,1,3,48.16a4.79,4.79,0,0,1,5.34-.26c-.26-.58-.45-.94-.59-1.31A1.57,1.57,0,0,0,6,45.5a5,5,0,0,1-4.62-2.38,3.85,3.85,0,0,1-.28-.69c1.68-.84,3.22-.36,4.75.28-.06-1.87-.07-1.87-1.79-2.38C2.66,39.92,1.27,39.47.58,38c-.2-.42-.33-.87-.54-1.45A5.05,5.05,0,0,1,4.9,38c-.12-.82-.22-1.47-.3-2.12s-.74-.81-1.26-1a4.71,4.71,0,0,1-3-2.84A8.21,8.21,0,0,1,0,30.72c1.67-.24,2.72.21,4.25,1.76.09-.41.14-.75.24-1.08a1.48,1.48,0,0,0-.91-2A4.61,4.61,0,0,1,1,26.3a10.08,10.08,0,0,1-.1-1.68c1.78.21,2.61.78,4,2.82A15.51,15.51,0,0,0,5.41,25c0-.33-.39-.72-.69-1a4.76,4.76,0,0,1-1.94-3.09,14.89,14.89,0,0,1,.12-2.11c2,.68,2.61,1.38,3.39,3.63a9.17,9.17,0,0,1,.49-1.11,2.25,2.25,0,0,0-.29-3,4.19,4.19,0,0,1-.47-5,5,5,0,0,1,2.5,4.2l1.37-2.12c.41-.62,0-1.11-.3-1.59A4.65,4.65,0,0,1,9.34,9.6a3.85,3.85,0,0,1,.47-.67c1.31.9,1.69,1.66,1.92,4.15a24.39,24.39,0,0,0,1.73-1.79c.15-.19.07-.61,0-.91-.13-.71-.38-1.4-.46-2.1a3.33,3.33,0,0,1,1.51-3.2c1.14,1.24,1.31,2.67.79,4.57A25.77,25.77,0,0,0,17.4,8a1.5,1.5,0,0,0,.33-1c0-.57-.13-1.14-.13-1.72,0-1.6.43-2.29,2-3.27,1,1.34.75,2.77.19,4.43.62-.27,1-.49,1.46-.64a1.71,1.71,0,0,0,1.25-2A3.8,3.8,0,0,1,25,0c1,1.76.27,3.16-.72,4.51Z"/><path class="cls-1" d="M24.92,24.49h-3.1v8.14H19.46V24.49H16.34V22.42h8.59Z"/><path class="cls-1" d="M26.07,32.63V22.42h4.6a3,3,0,0,1,1.33.3,3.54,3.54,0,0,1,1.06.79,3.7,3.7,0,0,1,.7,1.11A3.3,3.3,0,0,1,34,25.87a3.55,3.55,0,0,1-.44,1.74,3.12,3.12,0,0,1-1.22,1.22l2.24,3.8H31.92l-2-3.29H28.42v3.29Zm2.35-5.35h2.16a.89.89,0,0,0,.72-.4,1.63,1.63,0,0,0,.3-1,1.42,1.42,0,0,0-.35-1,1,1,0,0,0-.74-.37H28.42Z"/><path class="cls-1" d="M38.32,22.42h2.13l3.72,10.21H41.76L41,30.34H37.79L37,32.63H34.6Zm2.26,6.3-1.19-3.59-1.22,3.59Z"/><path class="cls-1" d="M45.78,22.42l2.4,7.25,2.37-7.25H53L49.17,32.63h-2L43.27,22.42Z"/><path class="cls-1" d="M61.16,30.55v2.07H54V22.42h7v2.07H56.35v2h4v1.91h-4v2.17Z"/><path class="cls-1" d="M62.6,32.63V22.42h4.6a3,3,0,0,1,1.33.3,3.54,3.54,0,0,1,1.06.79,3.7,3.7,0,0,1,.7,1.11,3.3,3.3,0,0,1,.25,1.25,3.55,3.55,0,0,1-.44,1.74,3.12,3.12,0,0,1-1.22,1.22l2.24,3.8H68.45l-2-3.29H65v3.29ZM65,27.28h2.16a.89.89,0,0,0,.72-.4,1.63,1.63,0,0,0,.3-1,1.42,1.42,0,0,0-.35-1,1,1,0,0,0-.75-.37H65Z"/><path class="cls-1" d="M78.36,25.41a1.45,1.45,0,0,0-.3-.22,5.65,5.65,0,0,0-.65-.33,6.25,6.25,0,0,0-.85-.3,3.38,3.38,0,0,0-.92-.13q-1.26,0-1.26.85a.67.67,0,0,0,.14.43,1.2,1.2,0,0,0,.4.31,3.69,3.69,0,0,0,.65.25l.93.26A12.23,12.23,0,0,1,77.8,27a3.55,3.55,0,0,1,1,.59,2.39,2.39,0,0,1,.67.85,3,3,0,0,1,.22,1.21,3,3,0,0,1-.33,1.46,2.72,2.72,0,0,1-.86,1,3.61,3.61,0,0,1-1.22.53,6.09,6.09,0,0,1-1.42.17,7.93,7.93,0,0,1-1.15-.08,8.29,8.29,0,0,1-1.15-.25,9.09,9.09,0,0,1-1.08-.4,6,6,0,0,1-1-.53l1-2.06a2,2,0,0,0,.37.27,5.55,5.55,0,0,0,.78.4,8,8,0,0,0,1,.36,4.36,4.36,0,0,0,1.16.16q1.25,0,1.25-.76a.65.65,0,0,0-.19-.47,1.76,1.76,0,0,0-.52-.33,5.61,5.61,0,0,0-.78-.28l-1-.29A8.49,8.49,0,0,1,73.47,28a3.22,3.22,0,0,1-.85-.58,2.11,2.11,0,0,1-.5-.76,2.8,2.8,0,0,1-.17-1,3.2,3.2,0,0,1,.3-1.42,3.07,3.07,0,0,1,.82-1.06,3.57,3.57,0,0,1,1.2-.65,4.77,4.77,0,0,1,1.44-.22,5.49,5.49,0,0,1,1,.1,7.93,7.93,0,0,1,1,.26,7.14,7.14,0,0,1,.89.36l.75.4Z"/><path class="cls-1" d="M88.25,30.55v2.07H81.06V22.42h7v2.07H83.43v2h4v1.91h-4v2.17Z"/><path class="cls-1" d="M36.74,41.81A5.15,5.15,0,0,1,37.09,40a5,5,0,0,1,1-1.63,5.1,5.1,0,0,1,1.61-1.16,5,5,0,0,1,2.16-.44,4.85,4.85,0,0,1,2.49.62A4,4,0,0,1,45.93,39l-1.82,1.27a2.11,2.11,0,0,0-.44-.65,2.39,2.39,0,0,0-1.23-.65,3.37,3.37,0,0,0-.65-.07,2.43,2.43,0,0,0-1.18.27,2.59,2.59,0,0,0-.83.71,2.92,2.92,0,0,0-.49,1,3.94,3.94,0,0,0-.16,1.11,3.65,3.65,0,0,0,.19,1.16,3.1,3.1,0,0,0,.54,1,2.61,2.61,0,0,0,.85.68,2.42,2.42,0,0,0,1.11.25,2.86,2.86,0,0,0,.65-.08,2.65,2.65,0,0,0,.65-.25,2.29,2.29,0,0,0,.57-.43,2,2,0,0,0,.42-.65L46,44.73a3,3,0,0,1-.68,1,4.2,4.2,0,0,1-1,.75,5.73,5.73,0,0,1-2.55.62,4.57,4.57,0,0,1-2-.45,5.15,5.15,0,0,1-1.59-1.2,5.5,5.5,0,0,1-1-1.7A5.3,5.3,0,0,1,36.74,41.81Z"/><path class="cls-1" d="M47.22,47V36.79h2.36V47Z"/><path class="cls-1" d="M59.31,38.87H56.2V47H53.84V38.87H50.72V36.8H59.3Z"/><path class="cls-1" d="M62,36.79l2.2,4.69,2.23-4.69H69l-3.64,6.73V47H63.06V43.49l-3.59-6.7Z"/><path class="cls-1" d="M23.59,14.22h.84l1.85,4.87h-1l-.45-1.22H23.15l-.45,1.22h-1Zm1.09,3L24,15.3l-.7,1.91Z"/><path class="cls-1" d="M28.66,18.29a1.09,1.09,0,0,0,.57-.14,1.11,1.11,0,0,0,.37-.36,1.48,1.48,0,0,0,.2-.5,2.91,2.91,0,0,0,.06-.59V14.22h.94V16.7a3.55,3.55,0,0,1-.12.93,2.15,2.15,0,0,1-.38.77,1.81,1.81,0,0,1-.65.52,2.24,2.24,0,0,1-1,.19,2.21,2.21,0,0,1-1-.2,1.85,1.85,0,0,1-.65-.54,2.14,2.14,0,0,1-.37-.77,3.65,3.65,0,0,1-.11-.91V14.21h.95V16.7a2.94,2.94,0,0,0,0,.61,1.46,1.46,0,0,0,.2.5,1.08,1.08,0,0,0,.36.34A1.07,1.07,0,0,0,28.66,18.29Z"/><path class="cls-1" d="M31.75,19.09V14.22h1.77a2.64,2.64,0,0,1,1,.19,2.1,2.1,0,0,1,1.21,1.31,2.9,2.9,0,0,1,.17.93,2.85,2.85,0,0,1-.17,1,2.15,2.15,0,0,1-.49.76,2.18,2.18,0,0,1-.76.49,2.68,2.68,0,0,1-1,.18ZM35,16.65a2.08,2.08,0,0,0-.09-.65,1.44,1.44,0,0,0-.28-.51,1.25,1.25,0,0,0-.46-.33,1.54,1.54,0,0,0-.61-.12h-.82v3.21h.82a1.48,1.48,0,0,0,.62-.12,1.27,1.27,0,0,0,.45-.33,1.52,1.52,0,0,0,.28-.51A2.06,2.06,0,0,0,35,16.65Z"/><path class="cls-1" d="M36.66,19.09V14.22h.95v4.87Z"/><path class="cls-1" d="M42,18.26v.83H38.62V14.22h3.32V15H39.57v1.17h2.05V17H39.57v1.27Z"/><path class="cls-1" d="M43.69,16v3.12h-.95V14.22h.74L46,17.42V14.23H47v4.86H46.2Z"/><path class="cls-1" d="M47.7,16.62a2.52,2.52,0,0,1,.16-.88,2.37,2.37,0,0,1,1.23-1.33,2.33,2.33,0,0,1,1-.21,2.22,2.22,0,0,1,1.16.29,1.89,1.89,0,0,1,.73.77l-.73.5a1.25,1.25,0,0,0-.23-.35,1.17,1.17,0,0,0-.29-.22,1.33,1.33,0,0,0-.33-.12,1.57,1.57,0,0,0-.33,0,1.28,1.28,0,0,0-.62.14,1.37,1.37,0,0,0-.46.38,1.63,1.63,0,0,0-.26.52,2,2,0,0,0-.09.58,1.89,1.89,0,0,0,.1.62,1.63,1.63,0,0,0,.29.53,1.45,1.45,0,0,0,.45.36,1.24,1.24,0,0,0,.58.14,1.53,1.53,0,0,0,.33,0,1.28,1.28,0,0,0,.65-.36,1.06,1.06,0,0,0,.22-.33L52,18a1.46,1.46,0,0,1-.33.48,2.13,2.13,0,0,1-.49.35,2.49,2.49,0,0,1-.58.22,2.54,2.54,0,0,1-.6.08,2.07,2.07,0,0,1-1-.22,2.48,2.48,0,0,1-.74-.59,2.66,2.66,0,0,1-.49-.8A2.5,2.5,0,0,1,47.7,16.62Z"/><path class="cls-1" d="M56.07,18.26v.83H52.69V14.22H56V15H53.63v1.17h2.05V17H53.63v1.27Z"/><path class="cls-1" d="M59.64,14.22h.84l1.85,4.87h-1l-.45-1.22h-1.7l-.45,1.22h-1Zm1.09,3-.67-1.91-.7,1.91Z"/><path class="cls-1" d="M64.12,14.23H65l.55,1.61.55-1.61H67l-.83,2.22L66.76,18l1.38-3.79h1l-2,4.87h-.8l-.84-2-.86,2h-.8l-2-4.87h1L64.33,18l.6-1.56Z"/><path class="cls-1" d="M70.63,14.22h.84l1.85,4.87h-1l-.45-1.22h-1.7l-.45,1.22h-1Zm1.09,3-.67-1.91-.7,1.91Z"/><path class="cls-1" d="M73.86,19.09V14.22H76a1.39,1.39,0,0,1,.62.14,1.61,1.61,0,0,1,.49.37,1.75,1.75,0,0,1,.33.52,1.57,1.57,0,0,1,.12.59,1.63,1.63,0,0,1-.24.86,1.36,1.36,0,0,1-.65.56l1.11,1.83H76.72l-1-1.63h-.92v1.63Zm.95-2.46H76a.5.5,0,0,0,.25-.06.62.62,0,0,0,.2-.17.84.84,0,0,0,.13-.25,1,1,0,0,0,0-.31.88.88,0,0,0-.06-.33.82.82,0,0,0-.15-.25.67.67,0,0,0-.21-.16A.55.55,0,0,0,76,15H74.82Z"/><path class="cls-1" d="M78.41,19.09V14.22h1.77a2.64,2.64,0,0,1,1,.19,2.1,2.1,0,0,1,1.21,1.31,2.9,2.9,0,0,1,.15.94,2.85,2.85,0,0,1-.17,1,2.15,2.15,0,0,1-.48.77,2.18,2.18,0,0,1-.76.49,2.68,2.68,0,0,1-1,.18Zm3.22-2.44a2.08,2.08,0,0,0-.09-.65,1.44,1.44,0,0,0-.28-.51,1.25,1.25,0,0,0-.46-.33,1.54,1.54,0,0,0-.61-.12h-.82v3.21h.82a1.48,1.48,0,0,0,.62-.12,1.27,1.27,0,0,0,.45-.33,1.52,1.52,0,0,0,.28-.51A2.06,2.06,0,0,0,81.64,16.65Z"/><path class="cls-1" d="M28.53,54.38V49.5H31.8v.83H29.48v1.25h1.93v.77H29.48v2Z"/><path class="cls-1" d="M32.47,54.38V49.5h.95v4.87Z"/><path class="cls-1" d="M34.43,54.38V49.5h.95v4h2.48v.83Z"/><path class="cls-1" d="M42.41,54.38V51.15l-1.24,2.4h-.52l-1.25-2.4v3.22h-.95V49.5h1l1.44,2.77,1.45-2.77h1v4.87Z"/><path class="cls-1" d="M46,54.38V49.5h3.27v.83H47v1.25h1.93v.77H47v2Z"/><path class="cls-1" d="M53.34,53.55v.83H50V49.5h3.32v.83H50.9v1.17H53v.76H50.9v1.27Z"/><path class="cls-1" d="M56.88,50.78l-.18-.13a2.13,2.13,0,0,0-.31-.16,2.69,2.69,0,0,0-.4-.13,1.73,1.73,0,0,0-.43-.06,1,1,0,0,0-.58.14.48.48,0,0,0-.19.41.42.42,0,0,0,.07.25.62.62,0,0,0,.21.18,1.76,1.76,0,0,0,.35.14l.48.13q.36.09.65.21A1.76,1.76,0,0,1,57,52a1.14,1.14,0,0,1,.33.4,1.31,1.31,0,0,1,.11.57,1.41,1.41,0,0,1-.15.65,1.24,1.24,0,0,1-.4.45,1.72,1.72,0,0,1-.58.25,2.89,2.89,0,0,1-.68.08,3.67,3.67,0,0,1-1.08-.16,3.34,3.34,0,0,1-1-.47l.42-.82a1.31,1.31,0,0,0,.22.16,3.35,3.35,0,0,0,.38.2,2.94,2.94,0,0,0,.49.17,2.2,2.2,0,0,0,.55.07q.78,0,.78-.5a.41.41,0,0,0-.09-.27.75.75,0,0,0-.25-.19,2.44,2.44,0,0,0-.4-.15l-.52-.15a4.46,4.46,0,0,1-.61-.21,1.59,1.59,0,0,1-.43-.27,1,1,0,0,1-.26-.36,1.23,1.23,0,0,1-.08-.48,1.51,1.51,0,0,1,.14-.65,1.33,1.33,0,0,1,.38-.48,1.73,1.73,0,0,1,.57-.29,2.34,2.34,0,0,1,.69-.1,2.69,2.69,0,0,1,.95.16,3.53,3.53,0,0,1,.75.38Z"/><path class="cls-1" d="M61.79,50.33H60.23v4h-.94v-4H57.73V49.5h4.05Z"/><path class="cls-1" d="M62.4,54.38V49.5h.95v4.87Z"/><path class="cls-1" d="M64.86,49.5l1.31,3.69,1.31-3.69h1l-1.9,4.87h-.8L63.84,49.5Z"/><path class="cls-1" d="M70,49.5h.84l1.85,4.87h-1l-.45-1.22h-1.7l-.45,1.22h-1Zm1.09,3-.67-1.91-.7,1.91Z"/><path class="cls-1" d="M73.18,54.38V49.5h.95v4h2.48v.83Z"/></g></g></g></g></svg>