<svg xmlns="http://www.w3.org/2000/svg" viewBox="0 0 375.07 66.41"><title>usatoday-black</title><g id="Layer_2" data-name="Layer 2"><g id="Layer_1-2" data-name="Layer 1"><path d="M33.32,66.41A33.2,33.2,0,1,1,33.33,0,32.41,32.41,0,0,1,56.11,9.15a32.11,32.11,0,0,1,10.35,24A32,32,0,0,1,57.32,56,32.63,32.63,0,0,1,33.32,66.41Z"/><path d="M242.59,54.16A23.47,23.47,0,0,1,232,51.62a18.84,18.84,0,0,1-8-8,19.5,19.5,0,0,1-2.37-10.05,20,20,0,0,1,4.69-12.38,19.29,19.29,0,0,1,12.19-6.69,24.48,24.48,0,0,1,13,1.29A18.39,18.39,0,0,1,257.89,20,19.44,19.44,0,0,1,263,28.69a19.12,19.12,0,0,1,.79,5.68A19.7,19.7,0,0,1,257,49.18a19.15,19.15,0,0,1-9.81,4.51C245.65,53.93,244.12,54,242.59,54.16ZM252.23,34a11,11,0,0,0-.8-4.34,8.41,8.41,0,0,0-4-4.53,10,10,0,0,0-6.94-1,8.51,8.51,0,0,0-6.61,5.45,12.52,12.52,0,0,0-.25,8.46,8.36,8.36,0,0,0,4.66,5.35,10.36,10.36,0,0,0,8,.27,8.19,8.19,0,0,0,4.6-3.9A11.54,11.54,0,0,0,252.23,34Z"/><path d="M267.38,34.15q0-8.89,0-17.78c0-1.39,0-1.39,1.42-1.39h13.42a26.35,26.35,0,0,1,9.12,1.56,17.91,17.91,0,0,1,5.91,3.5,17,17,0,0,1,5.37,10.47,21.6,21.6,0,0,1,.3,3.6c-.08,4.58-1.13,8.86-4.16,12.46a16.5,16.5,0,0,1-4.68,3.84,22.32,22.32,0,0,1-10.39,2.81c-5.1.11-10.2.11-15.3.15-.88,0-1-.13-1-1.1Q267.37,43.2,267.38,34.15Zm11.21,0q0,4.27,0,8.55c0,.3,0,.6,0,.9,0,.51.14.63.65.64.79,0,1.59,0,2.38,0a14.07,14.07,0,0,0,4.26-.8,7.71,7.71,0,0,0,4.86-5,14,14,0,0,0,0-8.65,7.51,7.51,0,0,0-3.25-4.2C284.88,24,282,24,279.07,24.08a.47.47,0,0,0-.46.48c0,.25,0,.49,0,.74Q278.58,29.75,278.58,34.19Z"/><path d="M78.54,28.26q0-6,0-12c0-1.24,0-1.24,1.23-1.25h8.64c.19,0,.38,0,.58,0,.58,0,.71.17.75.76,0,.27,0,.55,0,.82,0,6.94,0,13.88,0,20.82a14.54,14.54,0,0,0,.38,3.25,4.47,4.47,0,0,0,4.48,3.64,11.82,11.82,0,0,0,2.54-.08,4.31,4.31,0,0,0,3.65-3.37,14.41,14.41,0,0,0,.43-3.41c0-7,0-13.93,0-20.9,0-.27,0-.55,0-.82,0-.54.17-.66.71-.71.19,0,.38,0,.58,0h9.22a.61.61,0,0,1,.68.66c0,.22,0,.44,0,.66,0,7.82,0,15.64,0,23.45A15,15,0,0,1,110.72,47a11.83,11.83,0,0,1-4.53,4.66,19.09,19.09,0,0,1-9,2.42,36.32,36.32,0,0,1-3.69,0,20,20,0,0,1-8.59-2.27,11.53,11.53,0,0,1-5.27-6,16.75,16.75,0,0,1-1.14-6.28Q78.53,33.9,78.54,28.26Z"/><path d="M185.73,53.27c-.41,0-.67.1-.93.1H175.1c-.83,0-.89-.05-1.16-.87-.42-1.27-.84-2.55-1.25-3.83-.21-.66-.28-.74-1-.74H159c-.77,0-.84.06-1.09.84-.4,1.23-.78,2.46-1.18,3.68-.28.87-.34.91-1.21.91h-9.38c-.26,0-.53,0-.9-.09.08-.32.12-.55.2-.77l5.12-13.81,4.56-12.26,3.92-10.57c.3-.81.39-.88,1.26-.88h10.29c.9,0,1,.07,1.3.94q3.93,10.56,7.86,21.13,2.84,7.63,5.66,15.28C185.52,52.59,185.59,52.85,185.73,53.27ZM165.42,24.67h-.13c-.9,4.79-2.69,9.31-4.07,14a.71.71,0,0,0,0,.23,54.52,54.52,0,0,0,8.23,0c-.05-.23-.09-.46-.16-.69-.46-1.46-1-2.92-1.4-4.39q-1.09-3.62-2.12-7.26C165.62,25.9,165.54,25.28,165.42,24.67Z"/><path d="M301.18,53.26c.11-.41.17-.67.26-.92l5.45-14.65,5.18-14c1-2.65,2-5.29,3-7.94a1.06,1.06,0,0,1,1.15-.81c3.48,0,7,0,10.45,0,.83,0,.92.07,1.2.84l7.72,20.83q2.91,7.83,5.82,15.65l.06.15c.26.74.18.89-.6.9-1.54,0-3.07,0-4.61,0h-5.1c-.87,0-1-.07-1.24-.89-.45-1.33-.88-2.66-1.32-4-.22-.66-.24-.69-.93-.69H315c-.75,0-.81.05-1.05.78-.41,1.28-.81,2.56-1.21,3.85-.26.85-.35.93-1.2.94h-9.38C301.85,53.36,301.59,53.31,301.18,53.26Zm20-28.71c0,.15-.08.31-.12.46-.39,1.62-.71,3.27-1.19,4.86-.8,2.68-1.69,5.33-2.54,8-.09.27-.13.56-.22,1l2.82,0c.9,0,1.81,0,2.71,0a13.29,13.29,0,0,0,2.75-.11C324.1,33.95,322.16,29.42,321.21,24.55Z"/><path d="M139.44,26.14,138.06,25a9.86,9.86,0,0,0-7.4-2.09,4.17,4.17,0,0,0-1.27.33,2.3,2.3,0,0,0-.42,4.07,9.78,9.78,0,0,0,2.2,1.09c1.93.71,3.9,1.31,5.83,2a14.41,14.41,0,0,1,4.44,2.63,9.21,9.21,0,0,1,2.89,4.32,12.86,12.86,0,0,1-.65,9.46,11.75,11.75,0,0,1-6.51,6,18.29,18.29,0,0,1-5.52,1.22,23.73,23.73,0,0,1-9.78-1.36,19.15,19.15,0,0,1-6-3.47c-.67-.56-.71-.76-.22-1.44,1.49-2.07,3-4.13,4.5-6.19l.35-.47c.35.31.64.55.9.81a11.87,11.87,0,0,0,6.35,3.41,8.52,8.52,0,0,0,3.76-.09,3,3,0,0,0,2.27-3.93,2.36,2.36,0,0,0-1.21-1.6,21,21,0,0,0-2.75-1.28c-1.62-.6-3.29-1.06-4.91-1.67a14.48,14.48,0,0,1-5-3.07,9.49,9.49,0,0,1-2.94-6.35,11.06,11.06,0,0,1,2.3-8,12.37,12.37,0,0,1,5.38-3.94A18.15,18.15,0,0,1,131,14.3a23.48,23.48,0,0,1,7.47,1,15.54,15.54,0,0,1,5.51,3c.33.28.43.51.17.89q-2.22,3.22-4.42,6.45C139.62,25.8,139.56,25.93,139.44,26.14Z"/><path d="M334.07,15.07c.4,0,.66-.08.92-.08,3.43,0,6.86,0,10.29,0a1.28,1.28,0,0,1,1.28.79c1.68,3.11,3.42,6.19,5.1,9.3a28.47,28.47,0,0,1,2.55,6.13c.38-1,.68-2,1.12-2.92.91-1.9,1.87-3.79,2.85-5.65s2.18-4,3.29-6,.72-1.63,2.67-1.64c2.91,0,5.82,0,8.72,0,1.1,0,1.25.23.69,1.2-1.29,2.27-2.6,4.51-3.91,6.77l-7,12.17c-.72,1.23-1.43,2.47-2.17,3.69a3.55,3.55,0,0,0-.51,1.95c0,3.79,0,7.57,0,11.36,0,1.22,0,1.24-1.24,1.24h-9.13c-1.33,0-1.36,0-1.36-1.4,0-3.68,0-7.35,0-11a4.49,4.49,0,0,0-.65-2.41c-3.31-5.66-6.58-11.34-9.86-17-1.06-1.83-2.13-3.65-3.18-5.48C334.37,15.77,334.26,15.48,334.07,15.07Z"/><path d="M206.16,15h13.66c1.3,0,1.3,0,1.3,1.26q0,3.25,0,6.5c0,.25,0,.49,0,.74a.56.56,0,0,1-.59.56l-.74,0H213l-.74,0a.49.49,0,0,0-.52.52c0,.3,0,.6,0,.9q0,13.17,0,26.34c0,1.52,0,1.52-1.49,1.52H202c-.25,0-.49,0-.74,0-.58,0-.7-.17-.74-.76,0-.27,0-.55,0-.82q0-13.17,0-26.34c0-1.36,0-1.36-1.36-1.36h-6.83a2.27,2.27,0,0,1-.73,0,.8.8,0,0,1-.42-.42,1.82,1.82,0,0,1,0-.65q0-3.42,0-6.83c0-.14,0-.27,0-.41,0-.59.14-.68.76-.72.25,0,.49,0,.74,0Z"/><path d="M369.32,50c0,.82,0,1.64,0,2.46,0,.32,0,.75-.43.74s-.42-.44-.42-.75c0-1.18,0-2.36,0-3.53,0-.33,0-.68.44-.77a.78.78,0,0,1,1,.55c.23.59.41,1.19.61,1.79L371,51.9c.14-.32.24-.49.3-.68.28-.77.55-1.55.82-2.32a4.68,4.68,0,0,1,.18-.46.61.61,0,0,1,.69-.33c.35,0,.44.28.45.58,0,.77,0,1.53,0,2.3,0,.38,0,.77,0,1.15s.19.89-.4,1c-.33.07-.44-.22-.45-1.06,0-.47,0-.93,0-1.4a.77.77,0,0,0-.14-.48l-.72,2-.17.46c-.1.26-.2.52-.55.53s-.51-.27-.61-.57l-.82-2.41c0-.1-.08-.19-.12-.29Z"/><path d="M365.49,51c0-.46,0-.93,0-1.39a.58.58,0,0,0-.64-.66,1.38,1.38,0,0,1-.56-.06.63.63,0,0,1-.31-.39c0-.09.16-.26.29-.33a.84.84,0,0,1,.4-.06h2.71a.77.77,0,0,1,.4.07c.12.08.26.24.26.36a.52.52,0,0,1-.27.35,1.41,1.41,0,0,1-.48.07c-.71.08-.76.12-.78.87s0,1.53,0,2.3a5.81,5.81,0,0,1,0,.65.47.47,0,0,1-.93,0c0-.57,0-1.15,0-1.72Z"/><path d="M375.07,50.69c0,.55,0,1.09,0,1.64a1.45,1.45,0,0,1-.07.56.49.49,0,0,1-.36.26c-.12,0-.27-.15-.35-.27a.85.85,0,0,1-.07-.4q-.08-1.8-.16-3.6a1.79,1.79,0,0,1,0-.33.45.45,0,0,1,.49-.45.44.44,0,0,1,.48.45c0,.71,0,1.42,0,2.13Z"/></g></g></svg>