<svg xmlns="http://www.w3.org/2000/svg" viewBox="0 0 99.55 17.63"><title>usatoday-black</title><g id="Layer_2" data-name="Layer 2"><g id="Layer_1-2" data-name="Layer 1"><g id="Layer_2-2" data-name="Layer 2"><g id="Layer_1-2-2" data-name="Layer 1-2"><path d="M8.81,17.63A8.82,8.82,0,0,1,8.82,0a8.6,8.6,0,0,1,6,2.43A8.53,8.53,0,0,1,17.61,8.8a8.5,8.5,0,0,1-2.43,6.07A8.66,8.66,0,0,1,8.81,17.63Z"/><path d="M64.38,14.38a6.23,6.23,0,0,1-2.81-.67,5,5,0,0,1-2.12-2.12,5.18,5.18,0,0,1-.63-2.67,5.31,5.31,0,0,1,1.25-3.29,5.12,5.12,0,0,1,3.24-1.78,6.5,6.5,0,0,1,3.45.34,4.88,4.88,0,0,1,1.69,1.12A5.16,5.16,0,0,1,69.8,7.62,5.08,5.08,0,0,1,70,9.13a5.23,5.23,0,0,1-1.8,3.93,5.08,5.08,0,0,1-2.6,1.2C65.19,14.32,64.78,14.34,64.38,14.38ZM66.94,9a2.92,2.92,0,0,0-.21-1.15,2.23,2.23,0,0,0-1.06-1.2,2.66,2.66,0,0,0-1.84-.27,2.26,2.26,0,0,0-1.75,1.45A3.32,3.32,0,0,0,62,10.1a2.22,2.22,0,0,0,1.24,1.42,2.75,2.75,0,0,0,2.12.07,2.17,2.17,0,0,0,1.22-1A3.06,3.06,0,0,0,66.94,9Z"/><path d="M71,9.07V4.35C71,4,71,4,71.34,4H74.9a7,7,0,0,1,2.42.41,4.76,4.76,0,0,1,1.57.93A4.51,4.51,0,0,1,80.32,8.1a5.73,5.73,0,0,1,.08,1,5.07,5.07,0,0,1-1.1,3.31,4.38,4.38,0,0,1-1.24,1,5.93,5.93,0,0,1-2.76.75c-1.35,0-2.71,0-4.06,0-.23,0-.27,0-.27-.29Q71,11.47,71,9.07Zm3,0v2.51c0,.14,0,.17.17.17h.63a3.74,3.74,0,0,0,1.13-.21,2,2,0,0,0,1.29-1.33,3.72,3.72,0,0,0,0-2.3,2,2,0,0,0-.86-1.12,3.89,3.89,0,0,0-2.24-.4.12.12,0,0,0-.12.13h0v.2q0,1.18,0,2.36Z"/><path d="M20.82,7.5V4.32c0-.33,0-.33.33-.33H23.6c.15,0,.19,0,.2.2V9.93a3.86,3.86,0,0,0,.1.86,1.19,1.19,0,0,0,1.19,1,3.14,3.14,0,0,0,.67,0,1.14,1.14,0,0,0,1-.89,3.83,3.83,0,0,0,.11-.91V4.17c0-.14,0-.18.19-.19h2.6a.16.16,0,0,1,.18.18v6.4a4,4,0,0,1-.45,1.92,3.14,3.14,0,0,1-1.2,1.24,5.07,5.07,0,0,1-2.39.64,9.64,9.64,0,0,1-1,0,5.31,5.31,0,0,1-2.28-.6,3.06,3.06,0,0,1-1.4-1.59,4.45,4.45,0,0,1-.3-1.67Q20.82,9,20.82,7.5Z"/><path d="M49.28,14.14c-.11,0-.18,0-.25,0H46.46c-.22,0-.24,0-.31-.23l-.33-1c-.06-.18-.07-.2-.27-.2H42.18c-.2,0-.22,0-.29.22l-.31,1c-.07.23-.09.24-.32.24H38.77a.92.92,0,0,1-.24,0c0-.08,0-.15.05-.2l1.36-3.67L41.15,7l1-2.81c.08-.22.1-.23.33-.23h2.73c.24,0,.27,0,.35.25l2.09,5.61,1.5,4.06C49.22,14,49.24,14,49.28,14.14ZM43.89,6.55h0a38.51,38.51,0,0,1-1.08,3.72.19.19,0,0,0,0,.06,14.48,14.48,0,0,0,2.19,0c0-.06,0-.12,0-.18-.12-.39-.27-.78-.37-1.17Q44.25,8,44,7.05C43.94,6.88,43.92,6.71,43.89,6.55Z"/><path d="M79.93,14.14c0-.11,0-.18.07-.24L81.45,10l1.38-3.72.8-2.11A.28.28,0,0,1,83.93,4H86.7c.22,0,.24,0,.32.22l2,5.53,1.55,4.16,0,0c.07.2,0,.24-.16.24H87.89c-.23,0-.27,0-.33-.24l-.35-1.06c-.06-.18-.06-.18-.25-.18H83.6c-.2,0-.22,0-.28.21l-.32,1c-.07.23-.09.25-.32.25H80.19A.8.8,0,0,1,79.93,14.14Zm5.31-7.62a.52.52,0,0,1,0,.12c-.1.43-.19.87-.32,1.29-.21.71-.45,1.42-.67,2.12a2.5,2.5,0,0,0-.06.27h1.47a3.53,3.53,0,0,0,.73,0C86,9,85.5,7.81,85.25,6.52Z"/><path d="M37,6.94l-.37-.3a2.62,2.62,0,0,0-2-.55,1.11,1.11,0,0,0-.34.09.61.61,0,0,0-.11,1.08,2.6,2.6,0,0,0,.58.29c.51.19,1,.35,1.55.53a3.83,3.83,0,0,1,1.18.7,2.45,2.45,0,0,1,.77,1.15,3.41,3.41,0,0,1-.17,2.51A3.12,3.12,0,0,1,36.39,14a4.86,4.86,0,0,1-1.47.32,6.3,6.3,0,0,1-2.6-.36,5.08,5.08,0,0,1-1.59-.92c-.18-.15-.19-.2-.06-.38L31.87,11l.09-.12.24.22a3.15,3.15,0,0,0,1.69.91,2.26,2.26,0,0,0,1,0,.8.8,0,0,0,.6-1,.63.63,0,0,0-.32-.42,5.58,5.58,0,0,0-.73-.34c-.43-.16-.87-.28-1.3-.44a3.84,3.84,0,0,1-1.33-.82A2.52,2.52,0,0,1,31,7.26a2.94,2.94,0,0,1,.61-2.12,3.28,3.28,0,0,1,1.43-1,4.82,4.82,0,0,1,1.69-.29,6.23,6.23,0,0,1,2,.27,4.13,4.13,0,0,1,1.46.8c.09.07.11.14,0,.24L37.07,6.81Z"/><path d="M88.67,4l.24,0h2.73a.34.34,0,0,1,.34.21c.45.83.91,1.64,1.35,2.47A7.56,7.56,0,0,1,94,8.29c.1-.27.18-.53.3-.78.24-.5.5-1,.76-1.5s.58-1.06.87-1.59.19-.43.71-.44H99c.29,0,.33.06.18.32l-1,1.8L96.25,9.33c-.19.33-.38.66-.58,1a.94.94,0,0,0-.14.52v3c0,.32,0,.33-.33.33H92.79c-.35,0-.36,0-.36-.37V10.88a1.19,1.19,0,0,0-.17-.64c-.88-1.5-1.75-3-2.62-4.51l-.84-1.45C88.74,4.19,88.72,4.11,88.67,4Z"/><path d="M54.7,4h3.63c.35,0,.35,0,.35.33V6.24a.15.15,0,0,1-.15.15h-2.2a.13.13,0,0,0-.14.14v7.23c0,.4,0,.4-.4.4H53.4c-.15,0-.19,0-.2-.2v-.22q0-3.5,0-7c0-.36,0-.36-.36-.36H51a.6.6,0,0,1-.19,0,.21.21,0,0,1-.11-.11.48.48,0,0,1,0-.17V4.18c0-.16,0-.18.2-.19H54.7Z"/><path d="M98,13.28v.65c0,.08,0,.2-.11.2s-.11-.12-.11-.2V13c0-.09,0-.18.12-.2a.21.21,0,0,1,.26.13h0c.06.16.11.32.16.48l.13.37c0-.08.06-.13.08-.18l.22-.62,0-.12a.16.16,0,0,1,.18-.09c.09,0,.12.07.12.15v.92c0,.1.05.24-.11.27s-.12-.06-.12-.28v-.37a.2.2,0,0,0,0-.13l-.19.53,0,.12c0,.07-.05.14-.15.14s-.14-.07-.16-.15l-.22-.64s0-.05,0-.08Z"/><path d="M97,13.54v-.37a.15.15,0,0,0-.13-.17h0a.37.37,0,0,1-.15,0,.17.17,0,0,1-.08-.1s0-.07.08-.09l.11,0h.72l.11,0a.15.15,0,0,1,.07.1.14.14,0,0,1-.07.09l-.13,0c-.19,0-.2,0-.21.23s0,.41,0,.61a1.54,1.54,0,0,1,0,.17A.12.12,0,0,1,97,14v-.46Z"/><path d="M99.55,13.46v.44a.38.38,0,0,1,0,.15.13.13,0,0,1-.1.07s-.07,0-.09-.07a.23.23,0,0,1,0-.11l0-1a.48.48,0,0,1,0-.09.12.12,0,0,1,.12-.12h0a.12.12,0,0,1,.13.11h0v.57Z"/></g></g></g></g></svg>