<svg xmlns="http://www.w3.org/2000/svg" viewBox="0 0 442.78 125.66"><title>variety-black</title><g id="Layer_2" data-name="Layer 2"><g id="Layer_1-2" data-name="Layer 1"><path d="M442.78,17.3c-2.36.67-4.69,1.49-7.08,2-17.27,3.62-34.7,6.18-52.23,8.1-35.29,3.87-70.66,4.18-106.06,2.39-17.38-.88-34.78-1.87-52.09-3.64-18.79-1.93-37.52-4.54-56.19-7.42-12.85-2-25.55-4.92-38.3-7.51a2.37,2.37,0,0,0-2.37.94L85.64,52.72q-36.8,34.85-73.58,69.73a7.21,7.21,0,0,1-4.75,2.35c-2.29.13-4.56.54-7.1.87L35.13,19.24c-7,1.94-14.06,4-21.16,5.79-3.28.84-6.67,1.27-10,1.83a10.45,10.45,0,0,1-2.76.08A1.78,1.78,0,0,1,0,26.14c-.11-.19.31-.8.62-1.08a9.16,9.16,0,0,1,1.59-1,30.37,30.37,0,0,0,13.9-16C16.51,7.09,17,6.75,18,7,29.49,9.79,40.79,8.89,52,5.47,55.43,4.42,58.85,3.23,62.64,2L31.05,91.39l.25.13L42.9,78.94,115.08.56a4.84,4.84,0,0,0,.39-.56h1c.14.1.26.25.41.28,6,1.18,12,2.42,18,3.51a663,663,0,0,0,66.74,9c18.15,1.42,36.33,2.6,54.51,3.28a366.86,366.86,0,0,0,73.57-4.29c12.29-2,24.44-4.57,36.1-9a3.21,3.21,0,0,1,3.06.24C382.53,10.82,397.4,14.65,413,15.48c9.07.48,18.19,0,27.29,0a8.86,8.86,0,0,1,2.5.79Z"/><path d="M159,117.37c-.76,2.81-.76,2.81-3.42,2.81H127.12c.14-1.82.62-3.16,2.56-3.37,3.86-.42,5.31-2.89,6.32-6.4,6.47-22.45,13.13-44.85,19.73-67.27.08-.27.14-.55.3-1.16-4.69,1.14-9.26,2.1-12,6.23a8,8,0,0,0,0,9c1.78,2.86.29,4.37-2.52,4.49-6.8.28-11-5.08-9.13-11.88,1.39-5.12,5.19-8,9.72-10.1,5.41-2.52,11.21-3.5,17.08-4A101.42,101.42,0,0,1,187.32,37a42,42,0,0,1,12.61,4.56c15.06,8.53,12.59,29.12-.43,36.54-6.68,3.8-13.8,4-21.13,2.68-.84-.16-1.68-.35-2.86-.59.17,2.76.24,5.38.53,8,.64,5.75,1.81,11.39,4.78,16.46,1.78,3,4,5.54,7.88,5.74a6.63,6.63,0,0,0,7-4.34,34.18,34.18,0,0,0,1.16-3.79c.28-1,.77-1.29,1.58-.49a11,11,0,0,1,1.15,1.29c3.3,4.46,3.48,9.32,1.47,14.26-1.85,4.55-5.77,6.42-10.39,6.9-10.69,1.11-17.87-3.87-21.5-14.81a57.65,57.65,0,0,1-2.67-20.29c.17-5.06.86-10.1,1.36-15.14a16.78,16.78,0,0,1,.63-2.43c.79.38,1.36.63,1.91.92a19.42,19.42,0,0,0,10.37,2.13c7.42-.44,12.86-6.36,13.28-14.29.5-9.42-4.94-16-14.77-17.73-1.41-.26-2.86-.34-4.28-.59s-2.21.2-2.66,1.76c-2.95,10.23-6,20.43-9,30.63l-11,37.08c-.13.44-.27.88-.38,1.33-.47,2.07-.13,2.62,2,3.2Z"/><path d="M260,42.06l.86-2.81H263q20.15,0,40.3,0c1.71,0,3.26-.12,4.54-1.57.45-.51,1.65-.38,2.68-.57V56.53c-.13.07-.23.15-.33.16-3.36.16-3.36.16-4.56-3-.81-2.16-1.65-4.3-2.41-6.47a3.44,3.44,0,0,0-3.62-2.58c-4.84,0-9.69,0-14.53.05a1.88,1.88,0,0,0-1.45.94c-2.92,9.64-5.77,19.3-8.62,29a4.29,4.29,0,0,0-.05.82c5.23,0,10.4.08,15.57-.07A4.21,4.21,0,0,0,293,73.7c1.19-1.4,2.17-3,3.22-4.49,1.86-2.68,1.86-2.68,5.43-2.1-.72,2.49-1.43,5-2.16,7.42-1.43,4.86-3,9.69-4.24,14.59-.48,1.85-1.26,2.65-3.14,2.31a12.51,12.51,0,0,0-1.37-.1c0-2.6,0-5.11,0-7.63,0-2.33-.45-2.9-2.79-2.93q-6.83-.08-13.66,0a1.77,1.77,0,0,0-1.37.88c-3.28,10.9-6.5,21.83-9.81,33H265c6.69,0,13.38-.06,20.06,0a7.13,7.13,0,0,0,6.35-3.09c2-2.74,4.4-5.21,6.29-8,1.53-2.28,3.37-2.88,6-2.25-.14.46-.25.94-.44,1.38q-3.84,9.15-7.71,18.3c-.72,1.71-2.51,1.94-3.92.67a5.87,5.87,0,0,0-2.52-1.29,15.62,15.62,0,0,0-3.44-.21H237c.06-2.07.93-2.93,2.82-3.41,6.19-1.57,6-.39,8.17-7.85q9-30.65,18.09-61.27c.9-3.06.72-3.41-2.26-4.36Z"/><path d="M66.45,117.33c-.55,2.85-.55,2.85-3.14,2.85H41.1c.23-1.91.85-3.12,2.89-3.33,4.23-.43,7.14-2.89,9.83-6.07Q86,72.74,118.31,34.85a4.62,4.62,0,0,1,2.28-1.29c1.72-.44,3.49-.67,5.47-1-.23,3.11-.42,6.07-.66,9Q123.54,65,121.65,88.46q-1,11.81-1.94,23.61c-.27,3.22.11,3.78,3.28,4.52,1,.23,2,.5,3,.76-.56,2.83-.56,2.83-3.16,2.83h-27c.27-1.69.56-2.89,2.54-3.35,5.66-1.33,5.61-1.44,6.06-7.34.25-3.33.61-6.65.95-10.22-.65,0-1.25-.11-1.85-.11-9.92,0-19.84,0-29.75,0a2.82,2.82,0,0,0-2.49,1.16c-3.24,4.05-6.58,8-9.84,12.06-1.74,2.15-1.48,2.94,1.11,3.77Zm42.94-63-.41-.2L77.34,93.26h28.52Z"/><path d="M337,44.64c-3.53,0-6.83-.18-10.09.1a5.69,5.69,0,0,0-3.38,2,59.26,59.26,0,0,0-5.6,7.67c-1.38,2.32-3.17,2.65-5.61,2.1,1.93-6,3.93-11.91,5.73-17.91.5-1.65,1.51-1.42,2.64-1.34a.79.79,0,0,1,.55.34c.87,1.6,2.36,1.61,3.9,1.61q20.15,0,40.31,0c1.76,0,3.38-.07,4.71-1.6.45-.52,1.67-.36,2.84-.56V57.66a14.49,14.49,0,0,1-2.82-.06,2,2,0,0,1-1.14-1.18c-1.06-3-2-6-3-9-.78-2.3-1.48-2.78-3.93-2.79-2.71,0-5.41,0-8.21,0-1.62,5.41-3.23,10.75-4.82,16.09Q341.53,86.12,334,111.53c-1,3.3-.68,3.82,2.69,4.69,1.33.34,2.65.72,4,1.08-.34,2.85-.37,2.88-3,2.88H306.41c.12-1.8.51-3.09,2.54-3.28,1.19-.11,2.35-.58,3.54-.77,2.58-.4,4-1.86,4.68-4.38C321,98.42,325,85.13,329,71.84q3.74-12.58,7.51-25.15C336.67,46.09,336.8,45.47,337,44.64Z"/><path d="M374.37,42.06c.59-3.33.26-2.8,3.08-2.81,8.3,0,16.61,0,24.91,0h1.9c.08,2-.49,3.25-2.55,3.43a11.43,11.43,0,0,0-2,.57c-2.85.81-3.19,1.37-2.48,4.17q2.46,9.62,4.94,19.24c.62,2.43,1.24,4.86,1.94,7.6,1.09-1.43,2-2.61,2.89-3.8L424.69,47c1.74-2.32,1.49-3-1.29-3.73-1.45-.36-2.89-.75-4.32-1.12.31-2.86.31-2.86,3-2.86h19.8c.16,2.12-.59,3.18-2.58,3.43-3.85.48-6.45,2.72-8.78,5.77C423,58.4,415.15,68.17,407.47,78a11,11,0,0,0-1.81,3.46c-3.09,10.07-6.09,20.17-9.12,30.26-.88,2.95-.54,3.51,2.41,4.21,1.62.39,3.24.83,4.85,1.25a2.85,2.85,0,0,1,.45.21c-.51,2.72-.51,2.72-3.23,2.72H369.15c.15-1.94.81-3.14,2.84-3.32,1.19-.11,2.33-.67,3.52-.84,2.39-.33,3.59-1.78,4.24-4,3.14-10.66,6.31-21.3,9.43-32a4.58,4.58,0,0,0,0-2.33c-2.66-10.19-5.43-20.36-8-30.57-.65-2.55-1.88-4.09-4.52-4.47A16.87,16.87,0,0,1,374.37,42.06Z"/><path d="M233.71,117.35c-.75,2.8-.75,2.8-3.43,2.8H201.82c.18-1.77.6-3.11,2.56-3.37,4.47-.59,6.43-3.3,7.64-7.59,5.79-20.48,11.91-40.87,17.92-61.3.94-3.21.74-3.6-2.37-4.64l-3.38-1.15c.51-2.85.51-2.85,3.17-2.85h29.27c0,1.89-.45,3.11-2.44,3.4-1.3.19-2.53.8-3.82,1.06A4.29,4.29,0,0,0,247,47.16Q237.34,79.6,227.67,112c-.87,2.92-.57,3.39,2.45,4.25C231.28,116.6,232.43,117,233.71,117.35Z"/></g></g></svg>