<svg xmlns="http://www.w3.org/2000/svg" viewBox="0 0 105.36 106"><defs><style>.cls-1{fill:#ef5035;}</style></defs><title>webby-red</title><g id="Layer_2" data-name="Layer 2"><g id="Layer_1-2" data-name="Layer 1"><g id="Layer_2-2" data-name="Layer 2"><g id="Layer_1-2-2" data-name="Layer 1-2"><path class="cls-1" d="M53,106c-15.31-.27-28.11-5.7-38.47-16.61A52.27,52.27,0,0,1,1.14,63.79,50,50,0,0,1,.08,50.4,52.39,52.39,0,0,1,17.48,13.63,51.43,51.43,0,0,1,41,1.32,50.25,50.25,0,0,1,49.19.13,52,52,0,0,1,84.73,11,53,53,0,0,1,105,46.66a50.62,50.62,0,0,1,.32,8.82,53,53,0,0,1-37.85,48.36,45.69,45.69,0,0,1-9.64,1.84C56.1,105.82,54.39,105.91,53,106Zm51-54.77a50.47,50.47,0,0,0-1.74-11.56A51.45,51.45,0,0,0,55.53,1.51,50.52,50.52,0,0,0,37.4,3.75,51.62,51.62,0,0,0,50,104.48,50.45,50.45,0,0,0,69.8,101.6C90.43,94.2,104,74.94,104,51.23Z"/><path class="cls-1" d="M102.52,53a50.41,50.41,0,0,1-33.3,47.5,49.57,49.57,0,0,1-18.76,2.87A50.4,50.4,0,1,1,100.26,38,50.67,50.67,0,0,1,102.52,53ZM89.89,53A37.47,37.47,0,1,0,52.44,90.64,37.62,37.62,0,0,0,89.89,53Zm-45.6,44h-.11L44,94.19,43.22,94l-1.28,2.44-.1,0L41.7,93.7l-.94-.21.29,4.65.83.17L43.1,96l.13,0,.19,2.6.83.18,2.17-4.11-.93-.2ZM16.08,81.79l4.34-1.65-.57-.78-2.54,1-.06-.09L19,78.11l-.51-.64-2.54,1-.07-.09,1.71-2.12L17,75.42l-2.85,3.7.51.67,2.5-.9.06.09-1.61,2.13ZM77.3,92.31l-1.09-1.88-1.16-2-.78.48,1.15,2-.1.08-2.51-1.27-.74.44,1.13,2,1.11,1.9.77-.48-1.2-2.11L74,91.4l2.63,1.3Zm-52.2-1.8,1.52,1a2.18,2.18,0,0,0,.33.18,1.17,1.17,0,0,0,1.76-.78,3.1,3.1,0,0,0-.07-.86c1.11-.33,1.47-1.27.69-2a16.63,16.63,0,0,0-1.71-1.26Zm-3.95-3.2c.65.51,1.24,1,1.88,1.44a1,1,0,0,0,1.23,0,1.09,1.09,0,0,0,.51-1.14,2.22,2.22,0,0,0-.06-.34,1.15,1.15,0,0,0,1.22-.9,1.41,1.41,0,0,0-.64-1.39c-.39-.34-.78-.67-1.21-1ZM54.47,97.89l.32-.29A1.49,1.49,0,0,0,55.15,96,1.22,1.22,0,0,0,54,95.1c-.67-.06-1.35,0-2,0v4.48l1-.05V98.09h.51l.86,1.43,1-.08ZM72.1,93.83a2.83,2.83,0,0,0-1-2,1.93,1.93,0,0,0-3.14,1,2.6,2.6,0,0,0,.74,2.47,1.81,1.81,0,0,0,2.17.47A1.93,1.93,0,0,0,72.1,93.83ZM82.86,86l.45-.34,1.52.46.76-.72-1.74-.56v-.35A1.47,1.47,0,0,0,83,82.95a1.33,1.33,0,0,0-1.61.31c-.43.39-.83.81-1.27,1.25l3,3.2.67-.63ZM56.94,99.25A17,17,0,0,0,58.71,99a2,2,0,0,0,1.44-2.54A2,2,0,0,0,58,94.64a14.62,14.62,0,0,0-1.68.2ZM76.8,88A2.78,2.78,0,0,0,77.94,90a1.91,1.91,0,0,0,2.33.09A1.93,1.93,0,0,0,81,87.92a2.81,2.81,0,0,0-1.17-1.58,1.82,1.82,0,0,0-2-.11,1.86,1.86,0,0,0-1,1.73Zm-13.89,5.7,1.29,4.27.88-.28-.48-1.72,1.33-.41.55,1.71.88-.27-1.28-4.25L65.2,93l.48,1.72-1.33.38-.54-1.67Zm25.79-15,.94-1.41L89,76.82l-1,1.38-.73-.51,1.08-1.6-.69-.48L86,78l3.65,2.54,1.66-2.41-.7-.47-1.13,1.6Zm-4,2.41,1.22-1.48-.65-.54-1.85,2.19,3.38,2.9,1.87-2.23L88,81.43,86.75,82.9,86,82.29,87.11,81l-.63-.54-1.11,1.28ZM22.52,83.64l.58-.54-2-2.09-3.21,3,2,2.15.59-.6-1.3-1.41.7-.75L21,84.77l.58-.64-1.15-1.25.65-.61ZM48.39,94.89l-1.94,4.31.9.09.47-.92,1.44.13.29,1,.94.11-1.21-4.62ZM38,92.4l-3,3.68.87.29.66-.77,1.39.51v1l.85.3V92.68ZM8.48,54.5l1.84-1.84L8.52,51,6.68,52.7ZM94.42,52.7l1.83,1.78L98,52.72l-1.79-1.8ZM30.81,89c-.15,1.62.34,3.24-.92,4.56l.86.51a5.41,5.41,0,0,0,.37-.63,2.91,2.91,0,0,1,1.34-1.53c.56-.31,1.08-.7,1.67-1.1l-.89-.51-1.56,1.07V89.46Z"/><path class="cls-1" d="M56.13,44.13a4,4,0,0,0-.83-.31c-1.65-.23-3.31-.45-5-.62-1.33-.14-2.67-.2-4-.29a7.28,7.28,0,0,1-.9-.13l.12-1.32c1.15-.09,2.22-.15,3.27-.27q3.21-.35,6.41-.75a2.71,2.71,0,0,0,1-.41c-1.26-.89-2.76-.8-4.26-1.12l.91-1.14a15.78,15.78,0,0,1,5.28,1.16l.16.09c.4.25.8.51.8,1a1,1,0,0,1-.82,1c-1.11.37-2.23.67-3.35,1a.46.46,0,0,0-.26.13c.35.09.7.16,1,.27.78.24,1.55.48,2.32.75a2.82,2.82,0,0,1,.75.41.74.74,0,0,1,.09,1.27,4.12,4.12,0,0,1-1.33.79c-.84.29-1.72.48-2.66.73.64.15,1.24.25,1.81.44a12.07,12.07,0,0,1,2,.76c.86.45.86,1.08,0,1.62a8.87,8.87,0,0,1-3,1.11,4.79,4.79,0,0,0-1.1.33c.65.15,1.3.26,1.94.45a21.69,21.69,0,0,1,2.13.72,4,4,0,0,1,.8.56,1.27,1.27,0,0,1-.9,1.16c-1,.39-2,.7-3.07,1-.19.07-.4.1-.73.18.91.17,1.7.28,2.47.48a7.1,7.1,0,0,1,1.63.61c.82.45.89,1.22.12,1.74a9.94,9.94,0,0,1-2.08,1,15.86,15.86,0,0,1-1.78.45c.83.19,1.52.31,2.17.51a10.84,10.84,0,0,1,1.47.54,1.52,1.52,0,0,1,1,1.82L57.2,63.2l0,.14L59.81,63l0,.51L57,65V65l2.76-.4a21.6,21.6,0,0,1,0,2.88,1.62,1.62,0,0,1-.9,1,10.54,10.54,0,0,1-2.35.84,19.27,19.27,0,0,1-9.19-.17,10.27,10.27,0,0,1-2-.87,1.28,1.28,0,0,1-.69-1.3c0-.75,0-1.49,0-2.28L47,65V65l-2.42-1.27V63l2.22.26,0-.12-2.22-1.1a1.48,1.48,0,0,1,.77-1.95,1.44,1.44,0,0,1,.2-1.66c.79-.08,1.66-.13,2.54-.24q3.26-.42,6.52-.89a8.53,8.53,0,0,0,1.38-.45v-.24a4.56,4.56,0,0,0-.89-.3C54,56.2,52.9,56.05,51.76,56c-1.88-.12-3.76-.17-5.64-.25-.66,0-.93-.21-.93-.66s.3-.74.93-.8c1.56-.15,3.12-.25,4.68-.43s2.81-.4,4.21-.64a5.92,5.92,0,0,0,1.07-.4v-.23A6,6,0,0,0,55,52.22c-1.47-.2-2.94-.38-4.42-.51-1.7-.16-3.42-.25-5.07-.37a.77.77,0,0,1-.32-1c.12-.35.42-.41.75-.44,2.23-.19,4.46-.37,6.68-.59.93-.1,1.86-.29,2.77-.47a4.23,4.23,0,0,0,.75-.29c-.17-.44-.51-.46-.8-.51-1.68-.18-3.37-.36-5.07-.51-1.37-.12-2.75-.18-4.13-.27l-.49-.06a.63.63,0,0,1-.56-.7h0a.67.67,0,0,1,.61-.73h0c.87-.08,1.75-.1,2.63-.2q3.42-.41,6.83-.88a4.37,4.37,0,0,0,.94-.36Z"/><path class="cls-1" d="M69.31,69.94l.33-.3L78,77.8l-.3.33Z"/><path class="cls-1" d="M70,69.18l.29-.34L79,76.66l-.25.38Z"/><path class="cls-1" d="M38.6,33.36l-.35.28-6.81-9.51.33-.3Z"/><path class="cls-1" d="M28.9,79.8l-.36-.27,7.77-8.74.38.25Z"/><path class="cls-1" d="M69.26,36,69,35.65l8.11-8.39.32.3Z"/><path class="cls-1" d="M68.55,70.68l.33-.3,8,8.55-.3.33Z"/><path class="cls-1" d="M73.32,81.91l-.38.24-6.79-9.49.33-.3Z"/><path class="cls-1" d="M73.58,24.23l.34.29-7,9.38-.37-.26Z"/><path class="cls-1" d="M68.29,21l.4.2L63.42,31.65l-.4-.2Z"/><path class="cls-1" d="M81,74.28l-.29.34-9.33-7,.27-.36Z"/><path class="cls-1" d="M70.69,37.53l-.3-.33,8.89-7.7.27.36Z"/><path class="cls-1" d="M23.78,31.76l.28-.36,9.34,7-.25.37Z"/><path class="cls-1" d="M32.78,39.32l-.25.37-9.64-6.59.22-.39Z"/><path class="cls-1" d="M48.63,17.39h.44l1.16,11.66-.43.13Z"/><path class="cls-1" d="M61.49,30.78l-.38-.2,4.3-10.85c.46.06.37.29.26.54l-1.16,2.91-2.79,7A4.27,4.27,0,0,1,61.49,30.78Z"/><path class="cls-1" d="M35.6,70.06l.33.29-8.11,8.4-.33-.29Z"/><path class="cls-1" d="M67.78,71.36l.34-.29L75.78,80l-.36.26Z"/><path class="cls-1" d="M64,19.14l.42.13L60.52,30.39l-.41-.19Z"/><path class="cls-1" d="M24.71,30.56l.27-.35,9,7.42-.27.36Z"/><path class="cls-1" d="M70,36.75l-.3-.33,8.56-8.08.27.36Z"/><path class="cls-1" d="M36.21,35.34l-.34.29-8-8.59.35-.27Z"/><path class="cls-1" d="M37,34.66l-.33.29L29,26l.34-.29Z"/><path class="cls-1" d="M22.82,72.79l-.22-.39L32.34,66l.26.36Z"/><path class="cls-1" d="M43.38,75.2l.37.21L39.44,86.22c-.39,0-.41-.18-.3-.46.28-.67.54-1.35.81-2l3.15-7.95C43.19,75.6,43.29,75.41,43.38,75.2Z"/><path class="cls-1" d="M70.71,68.39l.3-.33,9,7.42-.26.36Z"/><path class="cls-1" d="M35.24,84.29l-.39-.21,5.72-10.24.39.22Z"/><path class="cls-1" d="M81.88,73l-.24.38L72,66.76l.25-.37Z"/><path class="cls-1" d="M23.7,74.08l-.26-.37,9.45-6.84.3.33Z"/><path class="cls-1" d="M26.69,77.63l-.33-.3,8.5-8,.33.3Z"/><path class="cls-1" d="M31.3,64.16l.17.42L21.22,70.1,21,69.73Z"/><path class="cls-1" d="M76.36,52.52,88,52.37v.44L76.29,53Z"/><path class="cls-1" d="M25.65,76.51l-.31-.32,8.83-7.66.3.33Z"/><path class="cls-1" d="M17.53,45.93l.11-.43L29,47.88v.46Z"/><path class="cls-1" d="M33.51,67.7l.31.32-9.17,7.26L24.34,75Z"/><path class="cls-1" d="M66.85,20.29l.4.2L62.47,31.14,62.05,31Z"/><path class="cls-1" d="M30.23,25l.36-.26L37.78,34l-.33.3Z"/><path class="cls-1" d="M74.77,25.18l.36.27-7.37,9.07-.38-.24Z"/><path class="cls-1" d="M76,26.21l.34.29-7.84,8.81-.3-.33Z"/><path class="cls-1" d="M35.47,36.12l-.32.31-8.43-8.27.34-.29Z"/><path class="cls-1" d="M80.26,30.74l.28.35-9.16,7.24-.3-.33Z"/><path class="cls-1" d="M72.56,40.07l-.25-.37L82,33.29l.3.34Z"/><path class="cls-1" d="M60.06,75.76l3.62,11.1c-.29.21-.43.14-.51-.15-.22-.72-.47-1.43-.7-2.14L59.65,75.9Z"/><path class="cls-1" d="M31.67,41.08l-.22.39L21.27,35.74l.19-.41Z"/><path class="cls-1" d="M31.18,42l-.23.39L20.59,37.11l.13-.44Z"/><path class="cls-1" d="M65.27,73.24l.36-.26L72,82.81l-.39.22Z"/><path class="cls-1" d="M45.3,75.93l.43.1L42.37,87.24l-.45,0Z"/><path class="cls-1" d="M58.64,76.15l.44-.09,3.16,11.27-.42.16Z"/><path class="cls-1" d="M37.14,71.46l.35.28-7.38,9.08-.35-.28Z"/><path class="cls-1" d="M86.51,63.18l-.11.43-11.2-3.4.1-.44Z"/><path class="cls-1" d="M22,71.51l-.22-.39,10-6,.28.35Z"/><path class="cls-1" d="M44.34,75.57l.4.19-3.84,11-.43-.11Z"/><path class="cls-1" d="M62.5,18.7l.44.1L59.58,30l-.45,0Z"/><path class="cls-1" d="M73.3,64.57l10.21,5.76-.22.39L73.15,65Z"/><path class="cls-1" d="M19.82,67.32l-.16-.42,10.7-4.61.22.39Z"/><path class="cls-1" d="M74,63.11l.23-.39,10.65,4.82-.23.42Z"/><path class="cls-1" d="M42.41,74.78l.4.21L38,85.67l-.42-.14Z"/><path class="cls-1" d="M68,85.14l-.41.17L62.54,74.74l.4-.2Z"/><path class="cls-1" d="M38.18,20.17,38.6,20l4.56,10.77-.4.21Z"/><path class="cls-1" d="M74.55,81l-.34.28L67,72l.33-.3Z"/><path class="cls-1" d="M75.94,48.74l-.13-.39,11.48-2.2c.19.44-.07.47-.32.51l-4.43.85-6,1.18Z"/><path class="cls-1" d="M30.31,43.9l-.19.41L19.31,40l.14-.43Z"/><path class="cls-1" d="M73.61,41.87l-.23-.39L83.68,36l.23.39Z"/><path class="cls-1" d="M73.07,41l-.21-.4,10-6,.25.37Z"/><path class="cls-1" d="M32.21,40.17l-.24.38-9.89-6.17.2-.4Z"/><path class="cls-1" d="M33.89,83.5l-.38-.23,6.14-10,.41.19Z"/><path class="cls-1" d="M34.73,36.82l-.28.34-8.7-7.83L26,29Z"/><path class="cls-1" d="M70.73,83.63l-.37.25-6-10.1.37-.24Z"/><path class="cls-1" d="M32.74,23.2l.36-.27,6.38,9.81-.33.3Z"/><path class="cls-1" d="M71,22.49l.38.23-6.13,10-.41-.19Z"/><path class="cls-1" d="M34,22.35l.39-.22,5.94,10.05-.35.28Z"/><path class="cls-1" d="M64.3,32.15l-.39-.22,5.7-10.22.4.2Z"/><path class="cls-1" d="M38.8,72.72l.36.26L32.6,82.67l-.36-.26Z"/><path class="cls-1" d="M63.48,74.3l.38-.23,5.49,10.32-.35.28Z"/><path class="cls-1" d="M59.23,88.08l-.43.09L56.62,76.62h.45Z"/><path class="cls-1" d="M38,72.09l.35.28-7,9.39L31,81.49Z"/><path class="cls-1" d="M19.86,38.55l.22-.39L30.69,43l-.17.41Z"/><path class="cls-1" d="M85,38.75l.19.41L74.55,43.77l-.24-.38Z"/><path class="cls-1" d="M74,42.81l-.16-.42,10.5-5.07.19.4Z"/><path class="cls-1" d="M18.72,41.43,18.9,41l11,3.86-.11.44Z"/><path class="cls-1" d="M81.17,32l.24.38-9.48,6.86-.29-.34Z"/><path class="cls-1" d="M17.86,44.39,18,44l11.25,2.88,0,.45Z"/><path class="cls-1" d="M75.74,47.78l-.1-.43,4.52-1.06,6.39-1.52c.24-.06.51-.2.58.31Z"/><path class="cls-1" d="M41.3,31.71l-.39.21L35.41,21.58l.37-.25Z"/><path class="cls-1" d="M87.76,49.26l.09.43L76.24,50.86c-.11-.51.22-.47.47-.51L80.2,50Z"/><path class="cls-1" d="M36.75,20.88l.39-.22,5.07,10.57-.39.21Z"/><path class="cls-1" d="M76.28,51.93l0-.44,11.64-.65,0,.45Z"/><path class="cls-1" d="M44.12,30.43l-.42.16-4.11-11,.41-.17Z"/><path class="cls-1" d="M16.92,55.25c-.1-.58.28-.47.51-.48,1.52-.1,3-.18,4.56-.26l6.26-.34h.27l.09.41Z"/><path class="cls-1" d="M76.14,56.08v-.45L87.73,57v.45Z"/><path class="cls-1" d="M59.93,18,57.54,29.48c-.51,0-.4-.28-.34-.54L58,24.89l1.36-6.49C59.44,18.2,59.41,17.87,59.93,18Z"/><path class="cls-1" d="M85.91,65.07l-11-3.88.11-.44,11,3.87Z"/><path class="cls-1" d="M51.73,17.21l.51,0v11.7l-.33,0Z"/><path class="cls-1" d="M41.08,19l.44-.08L45.13,30l-.4.2Z"/><path class="cls-1" d="M66.59,85.79l-.4.19-4.6-10.8L62,75Z"/><path class="cls-1" d="M46.15,29.78c-.46.2-.48-.07-.54-.29l-1.32-4.64-1.62-5.78c-.07-.24-.2-.51.29-.59Z"/><path class="cls-1" d="M65.18,86.37l-.42.15-4.13-11L61,75.4Z"/><path class="cls-1" d="M46.74,29.64,44.08,18.22l.36-.13a.82.82,0,0,1,.11.18L47,29C47.1,29.24,47.28,29.56,46.74,29.64Z"/><path class="cls-1" d="M72.66,23.55l-6.59,9.73L65.71,33l6.55-9.68Z"/><path class="cls-1" d="M46.38,76.2l.42.15-2.88,11.4-.42-.15Z"/><path class="cls-1" d="M57.63,76.44l.43-.11c.34,1.46.66,2.88,1,4.3l1.52,6.59c.05.22.24.51-.29.69Z"/><path class="cls-1" d="M52.48,77,53,77v11.7l-.33.05Z"/><path class="cls-1" d="M74.88,44.73l-.19-.41,10.92-4.16.18.41Z"/><path class="cls-1" d="M18.28,42.9l.13-.43,11.16,3.39-.1.44Z"/><path class="cls-1" d="M30.83,63.25l.2.4-10.5,5.07-.21-.4Z"/><path class="cls-1" d="M28.62,51l0,.45L16.92,50.6l.05-.44Z"/><path class="cls-1" d="M84.23,69l-.2.4L73.62,64.09l.15-.42Z"/><path class="cls-1" d="M85.51,66.14l-.19.41L74.49,62.18l.15-.42Z"/><path class="cls-1" d="M19.27,65.9l-.18-.41L30,61.37l.24.39Z"/><path class="cls-1" d="M28.62,55.22v.45L17.08,56.81l-.1-.44Z"/><path class="cls-1" d="M49.42,76.85h.39a2,2,0,0,1,0,.36l-.51,4.41q-.37,3-.73,6.09a2.87,2.87,0,0,1-.11.61c0,.09-.18.13-.27.2L48,88.44Z"/><path class="cls-1" d="M54,28.91l.86-11.58c.46-.13.43.14.41.37q-.08,1.19-.16,2.37-.3,4.06-.6,8.11a2.29,2.29,0,0,1-.07.56c0,.11-.18.19-.27.28Z"/><path class="cls-1" d="M18.28,62.94l-.19-.41,11.24-3.19.18.41Z"/><path class="cls-1" d="M72.55,65.88l.23-.38,9.93,6.19-.21.39Z"/><path class="cls-1" d="M58.59,29.76l-.43-.12L61,18.26l.42.13Z"/><path class="cls-1" d="M75.49,59.14l.12-.38h.31l10.48,2.69c.24.06.59,0,.41.56Z"/><path class="cls-1" d="M17.24,58.35V57.9l11.49-1.66,0,.44Z"/><path class="cls-1" d="M76.24,55.06v-.45l11.6.87v.44Z"/><path class="cls-1" d="M16.87,53.73v-.47l11.62-.15,0,.44Z"/><path class="cls-1" d="M53.52,77H54l.65,11.7-.44,0Z"/><path class="cls-1" d="M17.24,47.45l.11-.4L28.9,49c-.11.59-.47.37-.7.33-1.52-.23-3-.51-4.51-.73l-6.09-1Z"/><path class="cls-1" d="M86.18,41.66l.07.45-4.71,1.57-5.89,1.94c-.23.08-.51.25-.57-.27Z"/><path class="cls-1" d="M50,88.69l-.43-.09L50.4,77l.45-.07Z"/><path class="cls-1" d="M56.16,88.55c-.55.12-.47-.23-.51-.45-.11-.89-.18-1.79-.27-2.68Q55,81.73,54.65,78a6.26,6.26,0,0,1-.05-.87c0-.12.13-.23.2-.34l.18,0Z"/><path class="cls-1" d="M17.1,48.94l0-.41L28.7,49.92c.06.51-.23.42-.47.4l-2.18-.26-8.39-1A4.9,4.9,0,0,1,17.1,48.94Z"/><path class="cls-1" d="M76.1,49.85V49.4l11.49-1.66,0,.44Z"/><path class="cls-1" d="M86.72,43.55l-11.2,3.17-.17-.34a1.15,1.15,0,0,1,.23-.14l10.54-3C86.37,43.19,86.64,43.05,86.72,43.55Z"/><path class="cls-1" d="M57.93,17.6l.43.13L56.49,29.24H56Z"/><path class="cls-1" d="M56.92,17.34c-.08.78-.13,1.39-.21,2q-.55,4.63-1.11,9.26c0,.24,0,.6-.51.51.06-.55.1-1.11.17-1.66q.55-4.66,1.11-9.32a1.63,1.63,0,0,1,.1-.51C56.54,17.54,56.69,17.5,56.92,17.34Z"/><path class="cls-1" d="M76.24,53.58l11.7.38c.11.45-.16.42-.38.42-.92,0-1.84,0-2.76-.07l-7.89-.26C76.66,54,76.3,54.17,76.24,53.58Z"/><path class="cls-1" d="M76,56.71l2.8.44L87,58.51c.23,0,.55,0,.43.46a2.47,2.47,0,0,1-.41,0L76.41,57.22C76.22,57.19,75.89,57.22,76,56.71Z"/><path class="cls-1" d="M28.9,57.31l.15.4L17.56,59.9c0-.45,0-.45.39-.51l4.36-.84,6-1.15C28.49,57.37,28.66,57.35,28.9,57.31Z"/><path class="cls-1" d="M87.26,60.15l-.07.44L75.8,58.2a.58.58,0,0,1,0-.19,1.45,1.45,0,0,1,.1-.25Z"/><path class="cls-1" d="M29.09,58.33l.15.38-.4.14-5.35,1.26-5.17,1.21c-.24.06-.51.19-.57-.32Z"/><path class="cls-1" d="M29.8,60.75,18.72,64.41,18.57,64l1.2-.41,9.39-3.1C29.41,60.42,29.68,60.21,29.8,60.75Z"/><path class="cls-1" d="M47.31,76.45l.43.09c-.19.93-.36,1.82-.55,2.71L45.46,87.5c-.05.24,0,.58-.54.45Z"/><path class="cls-1" d="M51.3,29h-.44L50.2,17.25h.44Z"/><path class="cls-1" d="M53.73,17.25v.42q-.17,5.42-.35,10.83c0,.2.13.56-.37.51a2.64,2.64,0,0,1-.05-.41q.16-5.35.33-10.71C53.32,17.62,53.15,17.21,53.73,17.25Z"/><path class="cls-1" d="M36.59,85l-.39-.21,5.26-10.47.4.19Z"/><path class="cls-1" d="M45.59,17.88c.43-.14.44.13.51.35l1.52,8.05q.28,1.52.56,3c-.46.24-.46-.1-.51-.31-.19-.92-.35-1.84-.51-2.76q-.78-3.88-1.52-7.81A4.06,4.06,0,0,0,45.59,17.88Z"/><path class="cls-1" d="M51.45,77l.43,0-.37,11.71c-.41,0-.42,0-.42-.33q0-1.28.06-2.57.12-3.85.24-7.7C51.4,77.73,51.43,77.38,51.45,77Z"/><path class="cls-1" d="M46.9,88.36l-.42-.14.9-5.65c.28-1.78.57-3.55.87-5.32,0-.21-.07-.61.51-.51Z"/><path class="cls-1" d="M47.13,17.61l.44,0,1.65,11.58-.43.1Z"/><path class="cls-1" d="M28.46,52.5l-11.54-.37c-.15-.44.1-.43.33-.42.67,0,1.33,0,2,0L27.4,52a6.67,6.67,0,0,1,.87.06c.11,0,.2.15.31.23Z"/><path class="cls-1" d="M57.25,88.44c-.17-1.15-.33-2.22-.51-3.29-.37-2.54-.74-5.07-1.08-7.61,0-.26-.29-.65.32-.84l1.66,11.62Z"/><path class="cls-1" d="M26.33,90.34l.58-.85a4.82,4.82,0,0,1,.81.63.64.64,0,0,1,.07.6.62.62,0,0,1-.57.15A4.9,4.9,0,0,1,26.33,90.34Z"/><path class="cls-1" d="M28.4,89.48l-1-.62.51-.83.95.78Z"/><path class="cls-1" d="M22.42,87.24l.65-.78.93.88c-.24.7-.47.79-1,.43A6,6,0,0,1,22.42,87.24Z"/><path class="cls-1" d="M23.58,85.88l.64-.74a3.87,3.87,0,0,1,.62.58.56.56,0,0,1,0,.54.67.67,0,0,1-.58.12A3.23,3.23,0,0,1,23.58,85.88Z"/><path class="cls-1" d="M52.94,97.15V95.94c.45,0,.93-.21,1.22.26a.8.8,0,0,1,0,.7C53.88,97.34,53.4,97.22,52.94,97.15Z"/><path class="cls-1" d="M68.89,93.32a1,1,0,0,1,.59-1.08.83.83,0,0,1,1.06.29,4.29,4.29,0,0,1,.59,1.34.86.86,0,0,1-.51,1,.91.91,0,0,1-1.09-.22A2,2,0,0,1,68.89,93.32Z"/><path class="cls-1" d="M82.29,83.68c1,.51.93.84,0,1.67-.14-.13-.29-.26-.44-.4s-.27-.31-.46-.51Z"/><path class="cls-1" d="M57.39,95.59c1.16-.24,1.67.11,1.82,1.16s-.31,1.39-1.45,1.49Z"/><path class="cls-1" d="M80.19,88.53a.94.94,0,0,1-1.31.94A1.89,1.89,0,0,1,77.74,88a.78.78,0,0,1,.4-.91,1.33,1.33,0,0,1,.94-.06A1.89,1.89,0,0,1,80.19,88.53Z"/><path class="cls-1" d="M49,97.57l-.87,0,.46-1.15h.12Z"/><path class="cls-1" d="M37.92,94v1.18l-.84-.29.75-1Z"/><path class="cls-1" d="M37.89,52.37A11.9,11.9,0,0,1,38.22,51,1.8,1.8,0,0,1,41.58,51a3.49,3.49,0,0,1,0,2.78,1.73,1.73,0,0,1-1.68,1.12,1.66,1.66,0,0,1-1.63-1.08A10.45,10.45,0,0,1,37.89,52.37Zm2.8,0a5.58,5.58,0,0,0-.28-1,.76.76,0,0,0-.54-.36.65.65,0,0,0-.51.34,2.4,2.4,0,0,0,0,2.11.72.72,0,0,0,.54.36.75.75,0,0,0,.51-.4,5.35,5.35,0,0,0,.28-1Z"/><path class="cls-1" d="M34,51.45l-.67-.74A2,2,0,0,1,35,49.83a1.47,1.47,0,0,1,1.46.79,1.52,1.52,0,0,1-.17,1.65,6.16,6.16,0,0,1-.61.66l-.79.78h1.7v1H33.43a1.17,1.17,0,0,1,.36-1.35,13,13,0,0,0,1.3-1.27c.37-.4.43-.74.22-1s-.58-.19-1,.11Z"/><path class="cls-1" d="M64.21,50.26l1.95-.37a27.29,27.29,0,0,1,.09,4.82H65.12V51.19l-.74.07Z"/><path class="cls-1" d="M71.09,53a1.41,1.41,0,0,0-1-1,2,2,0,0,0-.72-.16,1.7,1.7,0,0,0-.73.15,2.54,2.54,0,0,1,.21-.75.65.65,0,0,1,.51-.34.76.76,0,0,1,.54.36l1-.7a1.73,1.73,0,0,0-1.47-.77A1.75,1.75,0,0,0,67.76,51a3.16,3.16,0,0,0-.19,1.18,5.07,5.07,0,0,0,.23,1.59,1.59,1.59,0,0,0,.92.93,1.87,1.87,0,0,0,.71.15,1.85,1.85,0,0,0,.74-.16,1.44,1.44,0,0,0,.94-1A2.46,2.46,0,0,0,71.09,53Zm-1.69.88c-.26,0-.63-.28-.63-.54s.46-.51.65-.51.72.3.72.51-.46.54-.73.54Z"/></g></g></g></g></svg>