<svg xmlns="http://www.w3.org/2000/svg" viewBox="0 0 614.68 719.72"><defs><style>.cls-1{fill:#f05136;}.cls-2{fill:#333;}</style></defs><title>wr-vert-color</title><g id="Layer_2" data-name="Layer 2"><g id="Layer_1-2" data-name="Layer 1"><path class="cls-1" d="M394.94,3.4a1.36,1.36,0,0,0-.67,0A2.3,2.3,0,0,0,392,4s-.38.55-.34.09c0,0,.35-2.1.37-2.45a4.27,4.27,0,0,0,.24-1.45h0l0,0a.24.24,0,0,0-.12,0h0s-.14-.1-.17-.13a.9.9,0,0,0-.56,0s-.06,0-.09,0c-.75.25-1.39,2-1.39,2h0a.07.07,0,0,0,0,.09,6,6,0,0,0-.37,1.23,11.17,11.17,0,0,0-.22,1.1,1.38,1.38,0,0,1-.43.8l.06-1.62h0c0-.13,0-.25.06-.38a3.47,3.47,0,0,0,0-.65,2.55,2.55,0,0,0-.27-1.2.65.65,0,0,0-.57-.12,1.34,1.34,0,0,0-1,.66,4.87,4.87,0,0,0-.62,1.88c0,.17-.06.34-.08.51l-.36,1.56c-.11.45-.25.88-.37,1.33l-.21.61c-.11-.19-.06-.39-.13-.57.13-.17.07-.38.07-.57a9.18,9.18,0,0,0,0-1.43.32.32,0,0,0-.08-.21l-.68.27,0,.05h-.09l-.17.07a1,1,0,0,0-.59.47,3.86,3.86,0,0,0-.44,1.31,10.81,10.81,0,0,0-.05,2.51.47.47,0,0,1-.09.35,15.5,15.5,0,0,0-1.42,2.38c-.08.17-.16.19-.31.1a1.12,1.12,0,0,0-.72-.16,2.7,2.7,0,0,0-.79.2l-.53.24h0a9.65,9.65,0,0,0-1.18.6,12.63,12.63,0,0,0-1.33.88l-.07.06a6.56,6.56,0,0,1-2.49.58s-.05-.08,0-.1c.72-1.59,1.41-3.19,2.16-4.76.41-.87,1-1.66,1.37-2.54a4.3,4.3,0,0,0,.22-1.67,1.73,1.73,0,0,0-1-1.5c-.74.92-1.5,1.81-2.18,2.76-1,1.33-1.91,2.69-2.81,4.07A16.6,16.6,0,0,1,369,14.55a17.81,17.81,0,0,0-3.09,3.16,6.43,6.43,0,0,0-.81,1.64,2.57,2.57,0,0,1-.22.29,6.36,6.36,0,0,0-1.24,2.17,1.81,1.81,0,0,1-.19.38c-.25.39-.45.81-.67,1.21-.08.14-.2.41-.33.68h0c-1.32,3-6.33,11.58-7.68,14.53-.94,2.06-1.73,4.2-2.85,6.16-1.34,2.35-7.83,18-7.83,18-2.35,4.66-4.58,9.25-7.47,14.59-3.67,6.79-8.44,13.86-12.83,20.67l-.25-.23a15.84,15.84,0,0,1-2.66-4.12,2.52,2.52,0,0,1,1-3.24A29.87,29.87,0,0,0,326,86.8c1.79-2,1.55-3.61-.34-5.45a2.87,2.87,0,0,1-.92-1.78c0-1.36-.15-2.34-1.86-2,.32-2.5.18-2.73-2.1-3.54-1.38-.49-1.58-.9-1.05-2.24.7-1.8.18-2.73-1.74-2.94-1.15-.13-2.31-.11-3.47-.19a5,5,0,0,1-3.86-1.7c.12-.42.2-.42.34-.91-.07,0-.38.42-.86.49-.31-.52-.52-.92-.78-1.28a8,8,0,0,0-1.26-1.62A27.58,27.58,0,0,0,299,58.7a15.24,15.24,0,0,0-2.15-.53c-1.45-2.59-5.28-2.17-11.65-1.24-5.5.81-10.6,5.22-13.31,9.81-4.5-7-12-19.08-13.75-21.73-1.34-2.67-2.39-4.74-2.63-5.09l-1.17-1.67c.14.19.19.21-.65-1.11-1.6-2.56-3.88-4.54-4.78-7.43-.76-2.45-3.1-3.79-3.3-6.46a3.74,3.74,0,0,0-.69-1.38c-1.68-1.72-3.93-1.91-6.13-2.24-1.36-.21-2.71-.46-4.05-.77-.71-.16-1.36-.54-2.07-.7-2-.44-2.65-.14-3.67,1.57-1-.38-2.08-.74-3.11-1.16-2.29-.92-4.59-1.81-6.83-2.82a23.17,23.17,0,0,1-2.43-1.62c-1.48-.91-2.77-.56-3.77,1.12,1.47,1,3,2,4.42,3.1.72.53,1.84,1.12,1.93,1.79.15,1.15,1,1,1.55,1.41s1.29.69,1.9,1.08c4.13,2.68,8.35,5.09,13.34,5.91a7.48,7.48,0,0,1,5.46,5.06c1.7,5.58,3,6.9,4.55,12.52,0,.06,3.53,10.53,5.78,16,0,0,9,14.69,11.31,20.06a32.65,32.65,0,0,0-1.56,6.45,66.94,66.94,0,0,0,3.82,31.81c1.09,4.86,2.6,11.24,3.91,15.42,0,.29,0,.58.07.87.26,3.07.55,6.13.71,9.21a23.13,23.13,0,0,1-1.32,9.53,11.53,11.53,0,0,1-3.2,4.91,3.81,3.81,0,0,1-4.06.69,2.14,2.14,0,0,1-1.53-2.52c0-.11,0-.22.08-.45a3.2,3.2,0,0,0,.35,3.41,3.71,3.71,0,0,0,4.83.76,8.7,8.7,0,0,0,3.38-3.72c.36-.7.66-1.43,1-2.2a9.16,9.16,0,0,1,.13,3.13,17.07,17.07,0,0,1-1.59,5.1c-1,2.17-2.08,4.32-3,6.51a10.52,10.52,0,0,0-1,4.92,6.58,6.58,0,0,0,.48,2.17,18.45,18.45,0,0,1,0-2.17,8.28,8.28,0,0,1,1.6-3.7,44.65,44.65,0,0,1,4.77-5.47,41.06,41.06,0,0,0,4.61-5.39,9.88,9.88,0,0,0,1.81-4.52c.06-.62.1-1.25.14-1.87a.82.82,0,0,1,.12.36c.13,1.41.3,2.81.37,4.22a28.8,28.8,0,0,1-1.31,10.83A19,19,0,0,1,264,182.93c-1.33.44-2.7.76-4,1.25a10.22,10.22,0,0,0-4.16,2.71,4.07,4.07,0,0,0-.43,5.22,1.21,1.21,0,0,0,1.3.61c-.31-.24-.59-.42-.83-.65a2.23,2.23,0,0,1-.51-2.82,4.42,4.42,0,0,1,3.39-2.37,7.28,7.28,0,0,1,5.09,1.23,24.61,24.61,0,0,1,6.13,5.57c.14.16.26.34.37.47a20.51,20.51,0,0,0-2.29.52,4.16,4.16,0,0,0-3,3.88,7,7,0,0,0,2.61,6.23,21.58,21.58,0,0,0,2.11,1.38,4.18,4.18,0,0,0-.35-.54,9.31,9.31,0,0,1-2.42-4.39,4.92,4.92,0,0,1,.2-2.7,2.27,2.27,0,0,1,1.91-1.58,7.91,7.91,0,0,1,3.43.42c2.17.64,4.32,1.36,6.5,2a18.44,18.44,0,0,0,4.9.77,10.43,10.43,0,0,0,6.21-2.15,18.92,18.92,0,0,0,6.26-7.91,42.28,42.28,0,0,0,2.82-8.71c.87-4,1.67-8,2.5-12a48.79,48.79,0,0,1,2.09-7.38,23.35,23.35,0,0,1,1.2-2.67c1.58-1,10.64,13.65,11.36,19.23,1.76,9.22,2.22,18.51-1.11,27.23-3.28,2.55-6.47,5.12-9.5,7.85l0,0a1.62,1.62,0,0,1-.69.56l.07.07-.8.74,0,0a1.66,1.66,0,0,1-.59.59h0a78.59,78.59,0,0,0-6.34,6.74l-.07.09a91.81,91.81,0,0,0-9.93,14c-8.17,14-13.72,29.85-23.83,42.67a93.67,93.67,0,0,1-9.06,9.86c-2,1.9-9,5.75-9.64,8.45-.13.49-1.79,1.37,3.14,2.88,2,.63,4.37.29,6.32,1.48,5.47,3.32.86,4.31,2,6.16,3.56,5.61,6.86,1.71,13,3.24,1.37.34,11.31,5.92,18.58,8.25-1.82,8.3-4,19.37-5.71,26.77-1.24,5.26.63,22.65,1.42,27.89,1.49,9.88,2.69,16.48,3.6,26.42.57,6.16-.48,12.15-4.31,17.52-3.24,4.54-2.78,7.84,1.33,11.69s6,6,8.09,11.08a73.8,73.8,0,0,0,3.94,7.4.87.87,0,0,0,.27.3c6.75,4.63,15,5.33,16.16,5.14,3.34-.55,4.39-2.3,2.9-5.07a.85.85,0,0,0-.36-.34c-7-3.66-8.41-9.39-8.52-14.12,0-.62,0-1.22,0-1.8a38.28,38.28,0,0,1,9.13,13.31,76.24,76.24,0,0,0,4.34,7.51.9.9,0,0,0,.29.3c7.15,4.54,15.73,5,16.89,4.73,3.44-.69,4.46-2.53,2.81-5.34a.89.89,0,0,0-.38-.34c-7.38-3.53-9-9.4-9.32-14.3-.45-7.76-1-15.67-3-23.15-3.28-12.63-3-25.16-1.45-37.88a130.42,130.42,0,0,0,1.19-16c0-7.95.86-15.62,5.23-22.44a29.67,29.67,0,0,0,3.37-7.86c4.73.95,8.08,1.63,8.23,1.83,9.52,3.72,3.74-25.43,8.52-65.19,1.12-9.37-1.16-18.74-1.21-28.18,0-3.87-.3-7.72-.63-11.57-.51-6.09.25-9.51,2-15.43,5.07-17.44,3.91-31.74,1.45-49.48,5.37-7.8,4.54-14.57,3.18-18.95-1.1-3.55-9.42-11.46-19.81-21.4a20.84,20.84,0,0,1,.65-4.55,73.8,73.8,0,0,1,5.42-13.79c2.58-5.38,5.6-10.19,7.53-15.85,1.56-4.57,4-9,5.44-13.63,1.09-3.52,2.07-7.41,3.11-11.37l0-.13.5-1.89.38-1.51a.68.68,0,0,0,.13-.25l.43-2,.87-3.48s.38-2.34.61-3.49c.68-3.36,1.29-6.73,2-10.09.24-1.2.55-2.39.9-3.57.29-1,.69-2,1-3,.22-.65.4-1.31.61-2s.41-1.06.64-1.57c.07-.14.15-.27.23-.39l0,0c.22-.49.45-1,.7-1.46a3.46,3.46,0,0,1,.46-.79,13.59,13.59,0,0,1,1.1-1,29.8,29.8,0,0,1,3.84-2.67,23.72,23.72,0,0,1,2.11-1.25c1.78-.86,3.56-1.7,5.39-2.45a2.62,2.62,0,0,1,.39-.16,2.06,2.06,0,0,0,1.1-.73,11.79,11.79,0,0,0,1.18-1.68A10,10,0,0,1,386.35,15a11.6,11.6,0,0,0,2-2.06c.19-.27.41-.52.62-.77a3.59,3.59,0,0,0,.84-1.31,1.07,1.07,0,0,1,.21-.37,15.64,15.64,0,0,0,1.4-2,26.75,26.75,0,0,1,2.18-3c.39-.51.81-1,1.2-1.51.09-.14.17-.28.27-.41S395.07,3.44,394.94,3.4ZM293.48,188.52a13.39,13.39,0,0,1-2.87,4.35,13.19,13.19,0,0,1-5.95,4,11.34,11.34,0,0,1-7.72-.42c-.76-.3-1.49-.7-2.24-1.06l0-.12.79.2a14.81,14.81,0,0,0,11.7-1.73,11.7,11.7,0,0,0,4.56-5.46,22.85,22.85,0,0,0,1.91-7.71c.15-2,.13-3.93.18-5.9a.62.62,0,0,1,0-.12,26.6,26.6,0,0,1,.76,5.46A22.43,22.43,0,0,1,293.48,188.52ZM305.91,417.1c-.16-1-.35-2-.59-3.13-2.56-11.52-2.14-22.84-.49-34.27,1.29,7.21,2.5,14.44,3.42,21.71A26.73,26.73,0,0,1,305.91,417.1Z"/><path class="cls-1" d="M0,487.75H5.52a2.27,2.27,0,0,1,2.4,1.77L31.1,565.87q.39,1.31.68,2.82t.62,3.15q.32-1.64.65-3.15a24,24,0,0,1,.78-2.82l26-76.35a2.81,2.81,0,0,1,.91-1.25,2.4,2.4,0,0,1,1.56-.53h1.82a2.23,2.23,0,0,1,1.49.49,3.27,3.27,0,0,1,.91,1.28l26,76.35q.45,1.31.81,2.76t.68,3.09q.33-1.58.59-3.05a24.31,24.31,0,0,1,.65-2.79l23.18-76.35a2.35,2.35,0,0,1,.88-1.25,2.53,2.53,0,0,1,1.59-.53h5.07L97,580.64H91L63.89,500a33.69,33.69,0,0,1-.91-3.35,34.29,34.29,0,0,1-.91,3.35l-27.2,80.61H29Z"/><path class="cls-1" d="M237.57,534.17a57,57,0,0,1-3.18,19.53,43.38,43.38,0,0,1-9,15,39.63,39.63,0,0,1-13.83,9.58,48.49,48.49,0,0,1-35.58,0,39.6,39.6,0,0,1-13.83-9.58,43.75,43.75,0,0,1-9-15,60.72,60.72,0,0,1,0-39,43.74,43.74,0,0,1,9-15A40,40,0,0,1,176,490.12a44.93,44.93,0,0,1,17.72-3.41,45.71,45.71,0,0,1,17.86,3.38,39.45,39.45,0,0,1,13.83,9.62,43.73,43.73,0,0,1,9,15A56.76,56.76,0,0,1,237.57,534.17Zm-6.88,0A53.54,53.54,0,0,0,228,516.7a37.71,37.71,0,0,0-7.5-13.13,32.17,32.17,0,0,0-11.66-8.24,38.78,38.78,0,0,0-15.13-2.86,38.19,38.19,0,0,0-15,2.86,32.84,32.84,0,0,0-11.69,8.24,37.55,37.55,0,0,0-7.6,13.13,58.06,58.06,0,0,0,0,35,37.57,37.57,0,0,0,7.6,13.1A32.47,32.47,0,0,0,178.78,573a38.59,38.59,0,0,0,15,2.82A39.19,39.19,0,0,0,208.88,573a31.81,31.81,0,0,0,11.66-8.21,37.73,37.73,0,0,0,7.5-13.1A53.46,53.46,0,0,0,230.69,534.17Z"/><path class="cls-1" d="M320,557.54q.39-1,.81-2.07a17.81,17.81,0,0,1,.94-1.94L357.82,489a2.37,2.37,0,0,1,1-1.05,4.15,4.15,0,0,1,1.43-.2h4.61v92.89h-5.84V501.47a35.7,35.7,0,0,1,.2-3.61l-36.17,64.93a2.83,2.83,0,0,1-2.6,1.71h-1a2.92,2.92,0,0,1-2.6-1.71l-37.14-65a36.31,36.31,0,0,1,.2,3.68v79.17h-5.78V487.75h4.54a4.46,4.46,0,0,1,1.46.2,2.31,2.31,0,0,1,1.07,1.05l37.07,64.6A26.85,26.85,0,0,1,320,557.54Z"/><path class="cls-1" d="M462.16,487.75v5.58H413.79v37.55H454v5.45H413.79v38.73h48.37v5.58H407.1V487.75Z"/><path class="cls-1" d="M503.45,488a3.07,3.07,0,0,1,1.11,1L564,569.48q-.19-2-.2-3.81V487.75h5.84v92.89H566.5a2.79,2.79,0,0,1-2.4-1.31l-59.74-80.62q.19,2,.2,3.74v78.19h-5.78V487.75H502A3.62,3.62,0,0,1,503.45,488Z"/><path class="cls-2" d="M17.06,670.28v48.23H9.28V611.88H36.81q18.68,0,27.91,7.12T74,639.92a28.39,28.39,0,0,1-2.14,11.15,26.15,26.15,0,0,1-6.14,8.85A32.78,32.78,0,0,1,56,666.18a43.3,43.3,0,0,1-12.74,3.2,12.34,12.34,0,0,1,3.28,3l37.14,46.12H76.93a4.52,4.52,0,0,1-2.1-.45,5.46,5.46,0,0,1-1.71-1.51L38.57,673.3A7.68,7.68,0,0,0,35.79,671a11.76,11.76,0,0,0-4.61-.68Zm0-5.73H35.82a44.93,44.93,0,0,0,12.85-1.69A27.82,27.82,0,0,0,58.28,658a21,21,0,0,0,6-7.61,23.59,23.59,0,0,0,2.06-10q0-11.38-7.55-16.88t-22-5.5H17.06Z"/><path class="cls-2" d="M139.37,718.51h-7.86V611.88h7.86Z"/><path class="cls-2" d="M243,624.84a2.15,2.15,0,0,1-2,1.28,4.43,4.43,0,0,1-2.56-1.39,33,33,0,0,0-10.94-6.22,34.08,34.08,0,0,0-20.27.23,21.72,21.72,0,0,0-7.5,4.52,19.22,19.22,0,0,0-4.59,6.63,20.38,20.38,0,0,0-1.57,7.91,16,16,0,0,0,2.33,9,20.85,20.85,0,0,0,6.15,6,40,40,0,0,0,8.67,4.18q4.85,1.7,10,3.35t10,3.66a36.07,36.07,0,0,1,8.67,5,21.82,21.82,0,0,1,8.48,18.39A34.17,34.17,0,0,1,245.48,700a29.4,29.4,0,0,1-6.75,10.29,31.73,31.73,0,0,1-10.83,6.9,39.74,39.74,0,0,1-14.64,2.52q-10.68,0-18.38-3.73a43.19,43.19,0,0,1-13.5-10.21l2.13-3.32a2.7,2.7,0,0,1,2.14-1.13,3.07,3.07,0,0,1,1.76.9l2.6,2.22q1.52,1.32,3.66,2.86a30.4,30.4,0,0,0,5,2.86,35.38,35.38,0,0,0,6.49,2.22,34.84,34.84,0,0,0,8.33.9,32,32,0,0,0,11.46-1.92,25.12,25.12,0,0,0,8.52-5.24,22.17,22.17,0,0,0,5.31-7.87,25.93,25.93,0,0,0,1.83-9.76,17,17,0,0,0-2.33-9.31,20,20,0,0,0-6.15-6.1,39.92,39.92,0,0,0-8.67-4.11q-4.85-1.66-10-3.24t-10-3.54a34.43,34.43,0,0,1-8.67-5,23,23,0,0,1-6.15-7.61,25,25,0,0,1-2.33-11.42,26.68,26.68,0,0,1,2.06-10.32,25.62,25.62,0,0,1,6-8.78,29.71,29.71,0,0,1,9.81-6.1,36.2,36.2,0,0,1,13.33-2.3,40.82,40.82,0,0,1,15.08,2.64,36.13,36.13,0,0,1,12.18,8.06Z"/><path class="cls-2" d="M299.59,718.51h-7.86V611.88h7.86Z"/><path class="cls-2" d="M357.46,612.15a3.59,3.59,0,0,1,1.3,1.17l69.86,92.39a43.45,43.45,0,0,1-.23-4.37V611.88h6.86V718.51h-3.74a3.3,3.3,0,0,1-2.82-1.51l-70.16-92.54a42.8,42.8,0,0,1,.23,4.3v89.75H352V611.88h3.81A4.35,4.35,0,0,1,357.46,612.15Z"/><path class="cls-2" d="M541.1,713.46a83.23,83.23,0,0,0,10.14-.56,55.33,55.33,0,0,0,8.5-1.7,53.58,53.58,0,0,0,7.48-2.75q3.54-1.62,7.13-3.65V676.09H553.61a2,2,0,0,1-1.41-.53,1.6,1.6,0,0,1-.57-1.21v-4.22h29.82V708a70.7,70.7,0,0,1-8.39,5,56.22,56.22,0,0,1-9.3,3.65,72.58,72.58,0,0,1-10.68,2.26,91.67,91.67,0,0,1-12.51.79,56.6,56.6,0,0,1-21.31-3.88,47.3,47.3,0,0,1-16.55-11A49.49,49.49,0,0,1,492,687.61a67.9,67.9,0,0,1,0-44.87,48.73,48.73,0,0,1,10.83-17.18,47.77,47.77,0,0,1,17-11,61.82,61.82,0,0,1,22.46-3.88,72.92,72.92,0,0,1,11.4.83,53.36,53.36,0,0,1,9.72,2.45,46,46,0,0,1,8.39,4,56.82,56.82,0,0,1,7.47,5.46l-2.06,3.32a2.13,2.13,0,0,1-1.91,1.13,2.88,2.88,0,0,1-1.3-.3,16.17,16.17,0,0,1-3.32-2.11,35.72,35.72,0,0,0-5.87-3.47,49.4,49.4,0,0,0-9.27-3.24,55,55,0,0,0-13.5-1.43,51.71,51.71,0,0,0-19,3.32,40.32,40.32,0,0,0-14.45,9.49,42,42,0,0,0-9.23,15.07,58,58,0,0,0-3.24,20,58.76,58.76,0,0,0,3.28,20.27,43.29,43.29,0,0,0,9.19,15.18,39.66,39.66,0,0,0,14.19,9.53A48.66,48.66,0,0,0,541.1,713.46Z"/><path class="cls-2" d="M596.49,619.25a8.72,8.72,0,0,1,.72-3.53,9.24,9.24,0,0,1,4.84-4.84,9,9,0,0,1,7.06,0,9.25,9.25,0,0,1,4.84,4.84,9,9,0,0,1,0,7.06,9.24,9.24,0,0,1-4.84,4.84,9,9,0,0,1-7.06,0,9.24,9.24,0,0,1-4.84-4.84A8.72,8.72,0,0,1,596.49,619.25Zm1.32,0a7.57,7.57,0,0,0,.61,3,7.77,7.77,0,0,0,4.13,4.13,7.82,7.82,0,0,0,6.06,0,7.77,7.77,0,0,0,4.13-4.13,7.82,7.82,0,0,0,0-6.06,7.76,7.76,0,0,0-4.13-4.13,7.82,7.82,0,0,0-6.06,0,7.77,7.77,0,0,0-4.13,4.13A7.57,7.57,0,0,0,597.81,619.25Zm5.79,5.21h-1.32V614h4a3.55,3.55,0,0,1,2.54.75,2.9,2.9,0,0,1,.76,2.16,3.33,3.33,0,0,1-.21,1.25,2.48,2.48,0,0,1-.57.87,2.83,2.83,0,0,1-.84.56,4.57,4.57,0,0,1-1,.31l3.13,4.6h-1.49l-3.13-4.6h-1.88Zm0-5.77h1.69q.54,0,1.08,0a3,3,0,0,0,1-.22,1.7,1.7,0,0,0,.7-.54,1.65,1.65,0,0,0,.27-1,1.56,1.56,0,0,0-.21-.84,1.58,1.58,0,0,0-.54-.53,2.41,2.41,0,0,0-.76-.28,4.3,4.3,0,0,0-.84-.09h-2.35Z"/></g></g></svg>