<svg xmlns="http://www.w3.org/2000/svg" viewBox="0 0 257.06 300.99"><defs><style>.cls-1{fill:#f05136;}.cls-2{fill:#333;}</style></defs><title>wr-vert-color</title><g id="Layer_2" data-name="Layer 2"><g id="Layer_1-2" data-name="Layer 1"><g id="Layer_2-2" data-name="Layer 2"><g id="Layer_1-2-2" data-name="Layer 1-2"><path class="cls-1" d="M165.17,1.42a.57.57,0,0,0-.28,0,1,1,0,0,0-.95.25s-.16.23-.14,0c0,0,.15-.88.15-1a1.79,1.79,0,0,0,.1-.61H164L163.93,0a.38.38,0,0,0-.23,0h0c-.31.1-.58.84-.58.84h0a0,0,0,0,0,0,0,2.51,2.51,0,0,0-.15.51,4.67,4.67,0,0,0-.09.46.58.58,0,0,1-.18.33l0-.68h0a.35.35,0,0,1,0-.16,1.45,1.45,0,0,0,0-.27,1.07,1.07,0,0,0-.11-.5.27.27,0,0,0-.24-.05.56.56,0,0,0-.42.28,2,2,0,0,0-.26.79,1.88,1.88,0,0,1,0,.21l-.15.65c0,.19-.1.37-.15.56l-.09.26c0-.08,0-.16-.05-.24s0-.16,0-.24a3.84,3.84,0,0,0,0-.6.13.13,0,0,0,0-.09l-.28.11v0h0l-.07,0a.42.42,0,0,0-.25.2,1.61,1.61,0,0,0-.18.55,4.52,4.52,0,0,0,0,1,.2.2,0,0,1,0,.15,6.48,6.48,0,0,0-.59,1c0,.07-.07.08-.13,0a.47.47,0,0,0-.3-.07,1.13,1.13,0,0,0-.33.08l-.22.1h0a4,4,0,0,0-.49.25,5.28,5.28,0,0,0-.56.37l0,0a2.74,2.74,0,0,1-1,.24s0,0,0,0c.3-.66.59-1.33.9-2,.17-.36.42-.69.57-1.06a1.8,1.8,0,0,0,.09-.7.72.72,0,0,0-.42-.63c-.31.38-.63.76-.91,1.15-.42.56-.8,1.12-1.18,1.7a6.94,6.94,0,0,1-1.35,1.38A7.45,7.45,0,0,0,153,7.4a2.69,2.69,0,0,0-.34.69l-.09.12a2.66,2.66,0,0,0-.52.91.76.76,0,0,1-.08.16c-.1.16-.19.34-.28.51s-.08.17-.14.28h0c-.55,1.25-2.65,4.84-3.21,6.08-.39.86-.72,1.76-1.19,2.58-.56,1-3.27,7.53-3.27,7.53-1,1.95-1.92,3.87-3.12,6.1-1.53,2.84-3.53,5.8-5.37,8.64l-.1-.1a6.62,6.62,0,0,1-1.11-1.72,1.05,1.05,0,0,1,.42-1.36,12.49,12.49,0,0,0,1.72-1.52,1.42,1.42,0,0,0-.14-2.28,1.2,1.2,0,0,1-.38-.74c0-.57-.06-1-.78-.84.13-1,.08-1.14-.88-1.48-.58-.2-.66-.38-.44-.94.29-.75.08-1.14-.73-1.23-.48-.05-1,0-1.45-.08a2.09,2.09,0,0,1-1.61-.71c.05-.18.08-.18.14-.38,0,0-.16.18-.36.2-.13-.22-.22-.38-.33-.54a3.35,3.35,0,0,0-.53-.68A11.53,11.53,0,0,0,125,24.54a6.37,6.37,0,0,0-.9-.22c-.61-1.08-2.21-.91-4.87-.52a8.48,8.48,0,0,0-5.57,4.1c-1.88-2.93-5-8-5.75-9.09-.56-1.12-1-2-1.1-2.13l-.49-.7c.06.08.08.09-.27-.46-.67-1.07-1.62-1.9-2-3.11-.32-1-1.3-1.59-1.38-2.7a1.56,1.56,0,0,0-.29-.58,4.12,4.12,0,0,0-2.56-.94c-.57-.09-1.13-.19-1.69-.32-.3-.07-.57-.23-.87-.29-.84-.18-1.11-.06-1.53.66-.42-.16-.87-.31-1.3-.49-1-.38-1.92-.76-2.86-1.18a9.69,9.69,0,0,1-1-.68A1,1,0,0,0,89,6.37c.61.42,1.25.84,1.85,1.3.3.22.77.47.81.75.06.48.42.42.65.59s.54.29.79.45a14.64,14.64,0,0,0,5.58,2.47A3.13,3.13,0,0,1,101,14c.71,2.33,1.25,2.89,1.9,5.24,0,0,1.48,4.4,2.42,6.69,0,0,3.76,6.14,4.73,8.39a13.65,13.65,0,0,0-.65,2.7,28,28,0,0,0,1.6,13.3c.46,2,1.09,4.7,1.64,6.45a1.53,1.53,0,0,0,0,.36c.11,1.28.23,2.56.3,3.85a9.67,9.67,0,0,1-.55,4A4.82,4.82,0,0,1,111,67.07a1.59,1.59,0,0,1-1.7.29.89.89,0,0,1-.64-1.05.49.49,0,0,1,0-.19,1.34,1.34,0,0,0,.15,1.43,1.55,1.55,0,0,0,2,.32,3.64,3.64,0,0,0,1.41-1.56c.15-.29.28-.6.42-.92a3.83,3.83,0,0,1,.05,1.31,7.14,7.14,0,0,1-.66,2.13c-.42.91-.87,1.81-1.25,2.72a4.4,4.4,0,0,0-.42,2.06,2.75,2.75,0,0,0,.2.91,7.72,7.72,0,0,1,0-.91,3.46,3.46,0,0,1,.67-1.55,18.67,18.67,0,0,1,2-2.29,17.17,17.17,0,0,0,1.93-2.25,4.13,4.13,0,0,0,.76-1.89c0-.26,0-.52.06-.78a.34.34,0,0,1,.05.15c.05.59.13,1.18.15,1.76a12,12,0,0,1-.55,4.53,8,8,0,0,1-5.32,5.21c-.56.18-1.13.32-1.67.52A4.27,4.27,0,0,0,107,78.15a1.7,1.7,0,0,0-.18,2.18.51.51,0,0,0,.54.26,4.39,4.39,0,0,1-.35-.27.93.93,0,0,1-.21-1.18,1.85,1.85,0,0,1,1.42-1,3,3,0,0,1,2.13.51A10.29,10.29,0,0,1,112.91,81l.15.2a8.58,8.58,0,0,0-1,.22A1.74,1.74,0,0,0,110.85,83a2.93,2.93,0,0,0,1.09,2.61,9,9,0,0,0,.88.58,1.75,1.75,0,0,0-.15-.23,3.89,3.89,0,0,1-1-1.84,2.06,2.06,0,0,1,.08-1.13,1,1,0,0,1,.8-.66,3.31,3.31,0,0,1,1.43.18c.91.27,1.81.57,2.72.84a7.71,7.71,0,0,0,2,.32,4.36,4.36,0,0,0,2.6-.9A7.91,7.91,0,0,0,124,79.49a17.68,17.68,0,0,0,1.18-3.64c.36-1.67.7-3.35,1-5a20.4,20.4,0,0,1,.87-3.09,9.77,9.77,0,0,1,.5-1.12c.66-.42,4.45,5.71,4.75,8,.74,3.86.93,7.74-.46,11.39-1.37,1.07-2.71,2.14-4,3.28h0a.68.68,0,0,1-.29.23l0,0-.33.31h0a.69.69,0,0,1-.25.25h0A32.87,32.87,0,0,0,124.39,93l0,0a38.4,38.4,0,0,0-4.15,5.85c-3.42,5.85-5.74,12.48-10,17.85a39.17,39.17,0,0,1-3.79,4.12c-.84.79-3.76,2.4-4,3.53-.05.2-.75.57,1.31,1.2.84.26,1.83.12,2.64.62,2.29,1.39.36,1.8.84,2.58,1.49,2.35,2.87.72,5.44,1.36.57.14,4.73,2.48,7.77,3.45-.76,3.47-1.67,8.1-2.39,11.2-.52,2.2.26,9.47.59,11.66.62,4.13,1.12,6.89,1.51,11a10.52,10.52,0,0,1-1.8,7.33c-1.36,1.9-1.16,3.28.56,4.89a11.32,11.32,0,0,1,3.38,4.63,30.86,30.86,0,0,0,1.65,3.09.36.36,0,0,0,.11.13,12.85,12.85,0,0,0,6.76,2.15c1.4-.23,1.84-1,1.21-2.12a.36.36,0,0,0-.15-.14,6.31,6.31,0,0,1-3.56-5.91v-.75a16,16,0,0,1,3.82,5.57,31.88,31.88,0,0,0,1.82,3.14.38.38,0,0,0,.12.13,13.2,13.2,0,0,0,7.06,2c1.44-.29,1.87-1.06,1.18-2.23a.37.37,0,0,0-.16-.14,6.55,6.55,0,0,1-3.9-6,48.41,48.41,0,0,0-1.25-9.68,41.85,41.85,0,0,1-.61-15.84,54.54,54.54,0,0,0,.5-6.69c0-3.32.36-6.53,2.19-9.38a12.41,12.41,0,0,0,1.41-3.29,31.43,31.43,0,0,1,3.44.77c4,1.56,1.56-10.64,3.56-27.26.47-3.92-.49-7.84-.51-11.79,0-1.62-.13-3.23-.26-4.84a15.09,15.09,0,0,1,.84-6.45c2.12-7.29,1.64-13.27.61-20.69a8.72,8.72,0,0,0,1.33-7.93c-.46-1.48-3.94-4.79-8.28-8.95a8.72,8.72,0,0,1,.27-1.9,30.86,30.86,0,0,1,2.27-5.77,60.75,60.75,0,0,0,3.15-6.63c.65-1.91,1.67-3.76,2.28-5.7.46-1.47.87-3.1,1.3-4.76V26.4l.21-.79.16-.63a.28.28,0,0,0,.05-.1L151,24l.36-1.46s.16-1,.26-1.46c.28-1.41.54-2.81.84-4.22.1-.5.23-1,.38-1.49s.29-.84.42-1.25.17-.55.26-.84a4.62,4.62,0,0,1,.27-.66l.1-.16h0c.09-.2.19-.42.29-.61a1.45,1.45,0,0,1,.19-.33,5.68,5.68,0,0,1,.46-.42A12.46,12.46,0,0,1,156.47,10a9.92,9.92,0,0,1,.88-.52c.74-.36,1.49-.71,2.25-1l.16-.07a.86.86,0,0,0,.46-.31,4.93,4.93,0,0,0,.49-.7,4.18,4.18,0,0,1,.86-1.13,4.85,4.85,0,0,0,.84-.86c.08-.11.17-.22.26-.32a1.5,1.5,0,0,0,.35-.55.45.45,0,0,1,.09-.15,6.54,6.54,0,0,0,.59-.84,11.19,11.19,0,0,1,.91-1.25l.5-.63.11-.17C165.26,1.43,165.22,1.43,165.17,1.42ZM122.74,78.83a5.6,5.6,0,0,1-1.2,1.82A5.52,5.52,0,0,1,119,82.33a4.74,4.74,0,0,1-3.23-.18c-.32-.13-.62-.29-.94-.44v-.05l.33.08a6.19,6.19,0,0,0,4.89-.72A4.89,4.89,0,0,0,122,78.73a9.56,9.56,0,0,0,.8-3.22c.06-.84.05-1.64.08-2.47a.26.26,0,0,1,0-.05,11.12,11.12,0,0,1,.32,2.28A9.38,9.38,0,0,1,122.74,78.83Zm5.2,95.59c-.07-.42-.15-.84-.25-1.31a39.24,39.24,0,0,1-.2-14.33c.54,3,1,6,1.43,9.08A11.18,11.18,0,0,1,127.94,174.43Z"/><path class="cls-1" d="M0,204H2.31a1,1,0,0,1,1,.74L13,236.65q.16.55.28,1.18t.26,1.32q.13-.69.27-1.32a10,10,0,0,1,.33-1.18L25,204.72a1.18,1.18,0,0,1,.38-.52,1,1,0,0,1,.65-.22h.76a.93.93,0,0,1,.62.2,1.37,1.37,0,0,1,.38.54l10.87,31.93q.19.55.34,1.15t.28,1.29q.14-.66.25-1.28a10.17,10.17,0,0,1,.27-1.17l9.69-31.93a1,1,0,0,1,.37-.52,1.06,1.06,0,0,1,.66-.22h2.12L40.57,242.82H38.06L26.72,209.1a14.09,14.09,0,0,1-.38-1.4,14.34,14.34,0,0,1-.38,1.4L14.58,242.81H12.13Z"/><path class="cls-1" d="M99.35,223.39A23.84,23.84,0,0,1,98,231.56a18.14,18.14,0,0,1-3.76,6.27,16.57,16.57,0,0,1-5.78,4,20.28,20.28,0,0,1-14.88,0,16.56,16.56,0,0,1-5.78-4A18.3,18.3,0,0,1,64,231.56a25.39,25.39,0,0,1,0-16.31A18.29,18.29,0,0,1,67.81,209a16.73,16.73,0,0,1,5.79-4A18.79,18.79,0,0,1,81,203.54,19.12,19.12,0,0,1,88.49,205a16.5,16.5,0,0,1,5.78,4A18.29,18.29,0,0,1,98,215.25,23.74,23.74,0,0,1,99.35,223.39Zm-2.88,0a22.39,22.39,0,0,0-1.12-7.31,15.77,15.77,0,0,0-3.14-5.49,13.45,13.45,0,0,0-4.88-3.45A16.22,16.22,0,0,0,81,206a16,16,0,0,0-6.27,1.2,13.73,13.73,0,0,0-4.89,3.45,15.7,15.7,0,0,0-3.18,5.49,24.28,24.28,0,0,0,0,14.64,15.71,15.71,0,0,0,3.18,5.48,13.58,13.58,0,0,0,4.92,3.43A16.14,16.14,0,0,0,81,240.81a16.39,16.39,0,0,0,6.31-1.18,13.3,13.3,0,0,0,4.88-3.43,15.78,15.78,0,0,0,3.14-5.48A22.36,22.36,0,0,0,96.48,223.39Z"/><path class="cls-1" d="M133.83,233.16l.34-.87a7.45,7.45,0,0,1,.39-.81l15.08-27a1,1,0,0,1,.42-.44,1.74,1.74,0,0,1,.6-.08h1.93v38.85h-2.44V209.71a14.93,14.93,0,0,1,.08-1.51L135.1,235.36a1.18,1.18,0,0,1-1.09.72h-.42a1.22,1.22,0,0,1-1.09-.72L117,208.18a15.19,15.19,0,0,1,.08,1.54v33.11h-2.42V204h1.9a1.87,1.87,0,0,1,.61.08,1,1,0,0,1,.45.44l15.5,27A11.23,11.23,0,0,1,133.83,233.16Z"/><path class="cls-1" d="M193.28,204v2.33H173.05V222h16.82v2.28H173.05v16.2h20.23v2.33h-23V204Z"/><path class="cls-1" d="M210.55,204.08a1.28,1.28,0,0,1,.46.42l24.86,33.66q-.08-.84-.08-1.59V204h2.44v38.85h-1.31a1.17,1.17,0,0,1-1-.55l-25-33.72q.08.84.08,1.56v32.7H208.6V204h1.35A1.51,1.51,0,0,1,210.55,204.08Z"/><path class="cls-2" d="M7.13,280.31v20.17H3.88V255.89H15.39q7.81,0,11.67,3t3.88,8.75a11.87,11.87,0,0,1-.89,4.66,10.94,10.94,0,0,1-2.57,3.7,13.71,13.71,0,0,1-4.07,2.62,18.11,18.11,0,0,1-5.33,1.34,5.16,5.16,0,0,1,1.37,1.25L35,300.48H32.17a1.89,1.89,0,0,1-.88-.19,2.28,2.28,0,0,1-.72-.63L16.13,281.58a3.21,3.21,0,0,0-1.16-1,4.92,4.92,0,0,0-1.93-.28Zm0-2.4H15a18.79,18.79,0,0,0,5.37-.71,11.63,11.63,0,0,0,4-2A8.78,8.78,0,0,0,26.88,272a9.87,9.87,0,0,0,.86-4.18q0-4.76-3.16-7.06t-9.2-2.3H7.13Z"/><path class="cls-2" d="M58.29,300.48H55V255.89h3.29Z"/><path class="cls-2" d="M101.63,261.31a.9.9,0,0,1-.84.54,1.85,1.85,0,0,1-1.07-.58,13.8,13.8,0,0,0-4.58-2.6,14.25,14.25,0,0,0-8.48.1,9.08,9.08,0,0,0-3.14,1.89,8,8,0,0,0-1.92,2.77,8.52,8.52,0,0,0-.66,3.31,6.69,6.69,0,0,0,1,3.76A8.72,8.72,0,0,0,84.5,273a16.73,16.73,0,0,0,3.63,1.75q2,.71,4.18,1.4t4.18,1.53a15.08,15.08,0,0,1,3.63,2.09,9.13,9.13,0,0,1,3.55,7.69,14.29,14.29,0,0,1-1,5.28,12.3,12.3,0,0,1-2.82,4.3,13.27,13.27,0,0,1-4.53,2.89A16.62,16.62,0,0,1,89.19,301a17.48,17.48,0,0,1-7.69-1.56,18.06,18.06,0,0,1-5.65-4.27l.89-1.39a1.13,1.13,0,0,1,.89-.47,1.28,1.28,0,0,1,.74.38l1.09.93q.64.55,1.53,1.2a12.71,12.71,0,0,0,2.09,1.2,14.8,14.8,0,0,0,2.71.93,14.57,14.57,0,0,0,3.48.38,13.38,13.38,0,0,0,4.79-.8,10.51,10.51,0,0,0,3.56-2.19A9.27,9.27,0,0,0,99.86,292a10.84,10.84,0,0,0,.77-4.08,7.11,7.11,0,0,0-1-3.89,8.36,8.36,0,0,0-2.57-2.55,16.69,16.69,0,0,0-3.63-1.72q-2-.69-4.18-1.36t-4.18-1.48a14.4,14.4,0,0,1-3.63-2.09,9.62,9.62,0,0,1-2.57-3.18,10.46,10.46,0,0,1-1-4.78,11.16,11.16,0,0,1,.86-4.32,10.71,10.71,0,0,1,2.51-3.67,12.43,12.43,0,0,1,4.1-2.55,15.14,15.14,0,0,1,5.57-1,17.07,17.07,0,0,1,6.31,1.1,15.11,15.11,0,0,1,5.09,3.37Z"/><path class="cls-2" d="M125.29,300.48H122V255.89h3.29Z"/><path class="cls-2" d="M149.49,256a1.5,1.5,0,0,1,.54.49l29.22,38.64a18.17,18.17,0,0,1-.1-1.83V255.89H182v44.59h-1.56a1.38,1.38,0,0,1-1.18-.63l-29.34-38.7a17.9,17.9,0,0,1,.1,1.8v37.53h-2.83V255.89h1.59A1.82,1.82,0,0,1,149.49,256Z"/><path class="cls-2" d="M226.29,298.37a34.81,34.81,0,0,0,4.24-.23,23.14,23.14,0,0,0,3.55-.71,22.41,22.41,0,0,0,3.13-1.15q1.48-.68,3-1.53v-12h-8.67a.84.84,0,0,1-.59-.22.67.67,0,0,1-.24-.51v-1.76h12.47v15.84a29.57,29.57,0,0,1-3.51,2.09,23.51,23.51,0,0,1-3.89,1.53,30.35,30.35,0,0,1-4.47.95,38.34,38.34,0,0,1-5.23.33,23.67,23.67,0,0,1-8.91-1.62,19.78,19.78,0,0,1-6.92-4.6,20.7,20.7,0,0,1-4.48-7.2,28.4,28.4,0,0,1,0-18.77,20.38,20.38,0,0,1,4.53-7.18,20,20,0,0,1,7.11-4.6,25.85,25.85,0,0,1,9.39-1.62,30.5,30.5,0,0,1,4.77.35,22.32,22.32,0,0,1,4.07,1,19.24,19.24,0,0,1,3.51,1.67,23.76,23.76,0,0,1,3.12,2.28l-.86,1.39a.89.89,0,0,1-.8.47,1.2,1.2,0,0,1-.54-.13,6.76,6.76,0,0,1-1.39-.88,14.94,14.94,0,0,0-2.45-1.45,20.66,20.66,0,0,0-3.88-1.36,23,23,0,0,0-5.65-.6,21.63,21.63,0,0,0-7.95,1.39,16.86,16.86,0,0,0-6,4,17.56,17.56,0,0,0-3.86,6.3,24.26,24.26,0,0,0-1.36,8.36,24.57,24.57,0,0,0,1.37,8.48A18.1,18.1,0,0,0,212.7,293a16.59,16.59,0,0,0,5.93,4A20.35,20.35,0,0,0,226.29,298.37Z"/><path class="cls-2" d="M249.46,259a3.65,3.65,0,0,1,.3-1.48,3.86,3.86,0,0,1,2-2,3.76,3.76,0,0,1,3,0,3.87,3.87,0,0,1,2,2,3.76,3.76,0,0,1,0,3,3.86,3.86,0,0,1-2,2,3.76,3.76,0,0,1-3,0,3.86,3.86,0,0,1-2-2A3.65,3.65,0,0,1,249.46,259Zm.55,0a3.17,3.17,0,0,0,.26,1.25,3.25,3.25,0,1,0,0-2.53A3.17,3.17,0,0,0,250,259Zm2.42,2.18h-.55v-4.37h1.67a1.48,1.48,0,0,1,1.06.31,1.21,1.21,0,0,1,.32.9,1.39,1.39,0,0,1-.09.52,1,1,0,0,1-.24.36,1.18,1.18,0,0,1-.35.23,1.91,1.91,0,0,1-.42.13l1.31,1.92h-.62l-1.31-1.92h-.79Zm0-2.41h1.16a1.25,1.25,0,0,0,.42-.09.71.71,0,0,0,.29-.23.69.69,0,0,0,.11-.42.65.65,0,0,0-.09-.35.66.66,0,0,0-.23-.22,1,1,0,0,0-.32-.12,1.8,1.8,0,0,0-.35,0h-1Z"/></g></g></g></g></svg>